<?xml version="1.0" encoding="utf-8"?>
<!-- Generator: Adobe Illustrator 24.1.3, SVG Export Plug-In . SVG Version: 6.00 Build 0)  -->
<svg version="1.1" id="Шар_1" xmlns="http://www.w3.org/2000/svg" xmlns:xlink="http://www.w3.org/1999/xlink" x="0px" y="0px"
	 viewBox="0 0 40 40" style="enable-background:new 0 0 40 40;" xml:space="preserve">
<style type="text/css">
	.st0{fill:url(#SVGID_1_);}
	.st1{opacity:0.5;}
	.st2{fill:url(#SVGID_2_);}
	.st3{opacity:0.6;}
	.st4{fill:#FFFFFF;fill-opacity:0;}
	.st5{opacity:1.000000e-02;fill:#FDFCFC;enable-background:new    ;}
	.st6{opacity:3.000000e-02;fill:#FBF8F8;enable-background:new    ;}
	.st7{opacity:4.000000e-02;fill:#F9F5F5;enable-background:new    ;}
	.st8{opacity:5.000000e-02;fill:#F7F2F2;enable-background:new    ;}
	.st9{opacity:6.000000e-02;fill:#F5EFEF;enable-background:new    ;}
	.st10{opacity:8.000000e-02;fill:#F3EBEB;enable-background:new    ;}
	.st11{opacity:9.000000e-02;fill:#F1E8E8;enable-background:new    ;}
	.st12{opacity:0.1;fill:#EFE5E5;enable-background:new    ;}
	.st13{opacity:0.12;fill:#EDE2E2;enable-background:new    ;}
	.st14{opacity:0.13;fill:#EBDEDE;enable-background:new    ;}
	.st15{opacity:0.14;fill:#E9DBDB;enable-background:new    ;}
	.st16{opacity:0.15;fill:#E7D8D8;enable-background:new    ;}
	.st17{opacity:0.17;fill:#E4D4D4;enable-background:new    ;}
	.st18{opacity:0.18;fill:#E2D1D1;enable-background:new    ;}
	.st19{opacity:0.19;fill:#E0CECE;enable-background:new    ;}
	.st20{opacity:0.21;fill:#DECBCB;enable-background:new    ;}
	.st21{opacity:0.22;fill:#DCC7C7;enable-background:new    ;}
	.st22{opacity:0.23;fill:#DAC4C4;enable-background:new    ;}
	.st23{opacity:0.24;fill:#D8C1C1;enable-background:new    ;}
	.st24{opacity:0.26;fill:#D6BEBE;enable-background:new    ;}
	.st25{opacity:0.27;fill:#D4BABA;enable-background:new    ;}
	.st26{opacity:0.28;fill:#D2B7B7;enable-background:new    ;}
	.st27{opacity:0.29;fill:#D0B4B4;enable-background:new    ;}
	.st28{opacity:0.31;fill:#CEB1B1;enable-background:new    ;}
	.st29{opacity:0.32;fill:#CCADAD;enable-background:new    ;}
	.st30{opacity:0.33;fill:#CAAAAA;enable-background:new    ;}
	.st31{opacity:0.35;fill:#C8A7A7;enable-background:new    ;}
	.st32{opacity:0.36;fill:#C6A3A3;enable-background:new    ;}
	.st33{opacity:0.37;fill:#C4A0A0;enable-background:new    ;}
	.st34{opacity:0.38;fill:#C29D9D;enable-background:new    ;}
	.st35{opacity:0.4;fill:#C09A9A;enable-background:new    ;}
	.st36{opacity:0.41;fill:#BE9696;enable-background:new    ;}
	.st37{opacity:0.42;fill:#BC9393;enable-background:new    ;}
	.st38{opacity:0.44;fill:#BA9090;enable-background:new    ;}
	.st39{opacity:0.45;fill:#B88D8D;enable-background:new    ;}
	.st40{opacity:0.46;fill:#B68989;enable-background:new    ;}
	.st41{opacity:0.47;fill:#B48686;enable-background:new    ;}
	.st42{opacity:0.49;fill:#B28383;enable-background:new    ;}
	.st43{opacity:0.5;fill:#AF7F7F;enable-background:new    ;}
	.st44{opacity:0.51;fill:#AD7C7C;enable-background:new    ;}
	.st45{opacity:0.53;fill:#AB7979;enable-background:new    ;}
	.st46{opacity:0.54;fill:#A97676;enable-background:new    ;}
	.st47{opacity:0.55;fill:#A77272;enable-background:new    ;}
	.st48{opacity:0.56;fill:#A56F6F;enable-background:new    ;}
	.st49{opacity:0.58;fill:#A36C6C;enable-background:new    ;}
	.st50{opacity:0.59;fill:#A16969;enable-background:new    ;}
	.st51{opacity:0.6;fill:#9F6565;enable-background:new    ;}
	.st52{opacity:0.62;fill:#9D6262;enable-background:new    ;}
	.st53{opacity:0.63;fill:#9B5F5F;enable-background:new    ;}
	.st54{opacity:0.64;fill:#995C5C;enable-background:new    ;}
	.st55{opacity:0.65;fill:#975858;enable-background:new    ;}
	.st56{opacity:0.67;fill:#955555;enable-background:new    ;}
	.st57{opacity:0.68;fill:#935252;enable-background:new    ;}
	.st58{opacity:0.69;fill:#914E4E;enable-background:new    ;}
	.st59{opacity:0.71;fill:#8F4B4B;enable-background:new    ;}
	.st60{opacity:0.72;fill:#8D4848;enable-background:new    ;}
	.st61{opacity:0.73;fill:#8B4545;enable-background:new    ;}
	.st62{opacity:0.74;fill:#894141;enable-background:new    ;}
	.st63{opacity:0.76;fill:#873E3E;enable-background:new    ;}
	.st64{opacity:0.77;fill:#853B3B;enable-background:new    ;}
	.st65{opacity:0.78;fill:#833838;enable-background:new    ;}
	.st66{opacity:0.79;fill:#813434;enable-background:new    ;}
	.st67{opacity:0.81;fill:#7F3131;enable-background:new    ;}
	.st68{opacity:0.82;fill:#7D2E2E;enable-background:new    ;}
	.st69{opacity:0.83;fill:#7B2B2B;enable-background:new    ;}
	.st70{opacity:0.85;fill:#782727;enable-background:new    ;}
	.st71{opacity:0.86;fill:#762424;enable-background:new    ;}
	.st72{opacity:0.87;fill:#742121;enable-background:new    ;}
	.st73{opacity:0.88;fill:#721D1D;enable-background:new    ;}
	.st74{opacity:0.9;fill:#701A1A;enable-background:new    ;}
	.st75{opacity:0.91;fill:#6E1717;enable-background:new    ;}
	.st76{opacity:0.92;fill:#6C1414;enable-background:new    ;}
	.st77{opacity:0.94;fill:#6A1010;enable-background:new    ;}
	.st78{opacity:0.95;fill:#680D0D;enable-background:new    ;}
	.st79{opacity:0.96;fill:#660A0A;enable-background:new    ;}
	.st80{opacity:0.97;fill:#640707;enable-background:new    ;}
	.st81{opacity:0.99;fill:#620303;enable-background:new    ;}
	.st82{fill:#600000;}
	.st83{fill:#FFFFFF;}
</style>
<linearGradient id="SVGID_1_" gradientUnits="userSpaceOnUse" x1="11.9106" y1="30.7005" x2="31.3806" y2="11.2305" gradientTransform="matrix(1 0 0 -1 0 41.1399)">
	<stop  offset="0" style="stop-color:#FF0000"/>
	<stop  offset="1" style="stop-color:#850000"/>
</linearGradient>
<path class="st0" d="M7.4,26.6c-1.5-0.7-2.5-2.2-2.6-3.8c-0.1-1.6,0.3-3.3,1.1-4.7c3.9-8,12.8-12.3,21.5-10.5c1.8,0.3,3.4,1,4.8,2.2
	c2.1,2,3.1,4.8,2.8,7.6c-0.3,2.8-1.2,5.5-2.6,7.9c-0.9,1.9-2.2,3.7-3.7,5.2c-1.6,1.5-3.7,2.3-5.8,2.2c-4.4-0.3-7.4-5.2-11.8-5.7
	C9.9,26.9,8.6,27.1,7.4,26.6z"/>
<g class="st1">
	
		<image style="overflow:visible;enable-background:new    ;" width="394" height="379" xlink:href="34CBB8B7.png"  transform="matrix(0.24 0 0 0.24 -26.805 -25.575)">
	</image>
</g>
<linearGradient id="SVGID_2_" gradientUnits="userSpaceOnUse" x1="27.634" y1="15.4601" x2="13.644" y2="29.4501" gradientTransform="matrix(1 0 0 -1 0 41.1399)">
	<stop  offset="0" style="stop-color:#FF0000"/>
	<stop  offset="1" style="stop-color:#850000"/>
</linearGradient>
<path class="st2" d="M10.8,24c-1.1-0.5-1.8-1.6-1.9-2.8c0-1.2,0.2-2.4,0.8-3.4c2.9-5.9,9.4-9,15.8-7.7c1.3,0.2,2.5,0.8,3.5,1.6
	c1.5,1.5,2.3,3.5,2.1,5.6c-0.2,2.1-0.9,4-1.9,5.8c-0.7,1.4-1.6,2.7-2.7,3.8c-1.1,1.1-2.7,1.7-4.3,1.6c-3.2-0.2-5.5-3.8-8.7-4.2
	C12.6,24.3,11.7,24.2,10.8,24z"/>
<g class="st3">
	<path class="st4" d="M25.8,21.3l-2.4,1.2c-0.1,0-0.4,0-0.4-0.1v-2.5c0-0.1,0.3-0.2,0.4-0.1l2.3,1.3C25.9,21,25.9,21.2,25.8,21.3z
		 M29.1,20c0-1.2-0.9-2.1-2.1-2.1c0,0,0,0,0,0h-5.4c-1.2,0-2.1,1-2.1,2.1v2.5c0,1.2,0.9,2.1,2.1,2.1H27c1.2,0,2.1-0.9,2.1-2.1
		c0,0,0,0,0,0L29.1,20z"/>
	<path class="st5" d="M25.8,21.2l-2.4,1.2c-0.1,0-0.4,0-0.4-0.1v-2.5c0-0.1,0.3-0.2,0.4-0.1l2.3,1.3C25.8,21,25.9,21.1,25.8,21.2z
		 M29.1,19.9c0-1.2-0.9-2.1-2.1-2.1c0,0,0,0,0,0h-5.4c-1.2,0-2.1,0.9-2.1,2.1c0,0,0,0,0,0v2.5c0,1.2,1,2.1,2.1,2.1H27
		c1.2,0,2.1-0.9,2.1-2.1V19.9z"/>
	<path class="st6" d="M25.8,21.2l-2.4,1.2c-0.1,0-0.4,0-0.4-0.1v-2.5c0-0.1,0.3-0.2,0.4-0.1l2.3,1.3C25.8,21,25.9,21.1,25.8,21.2z
		 M29,19.9c0-1.2-0.9-2.1-2.1-2.1h-5.4c-1.2,0-2.1,0.9-2.1,2.1v2.5c0,1.2,0.9,2.1,2.1,2.1c0,0,0,0,0,0h5.4c1.2,0,2.1-0.9,2.1-2.1v0
		V19.9z"/>
	<path class="st7" d="M25.7,21.1l-2.4,1.2c-0.1,0.1-0.4,0-0.4-0.1v-2.5c0-0.1,0.3-0.2,0.4-0.1l2.3,1.3
		C25.8,20.9,25.8,21.1,25.7,21.1z M29,19.8c0-1.2-0.9-2.1-2.1-2.1c0,0,0,0,0,0h-5.4c-1.2,0-2.1,0.9-2.1,2.1c0,0,0,0,0,0v2.5
		c0,1.2,0.9,2.1,2.1,2.1c0,0,0,0,0,0h5.4c1.2,0,2.1-0.9,2.1-2.1c0,0,0,0,0,0V19.8z"/>
	<path class="st8" d="M25.7,21.1l-2.4,1.2c-0.1,0-0.4,0-0.4-0.1v-2.4c0-0.1,0.3-0.2,0.4-0.1l2.3,1.3C25.7,20.9,25.8,21,25.7,21.1z
		 M29,19.8c0-1.2-0.9-2.1-2.1-2.1h-5.4c-1.2,0-2.1,1-2.1,2.1v2.5c0,1.2,0.9,2.1,2.1,2.1h5.4c1.2,0,2.1-0.9,2.1-2.1V19.8z"/>
	<path class="st9" d="M25.7,21l-2.4,1.2c-0.1,0-0.4,0-0.4-0.1v-2.5c0-0.1,0.3-0.2,0.4-0.1l2.3,1.3C25.7,20.9,25.8,21,25.7,21z
		 M28.9,19.8c0-1.2-0.9-2.1-2.1-2.1c0,0,0,0,0,0h-5.4c-1.2,0-2.1,0.9-2.1,2.1c0,0,0,0,0,0v2.5c0,1.2,0.9,2.1,2.1,2.1c0,0,0,0,0,0
		h5.4c1.2,0,2.1-0.9,2.1-2.1c0,0,0,0,0,0V19.8z"/>
	<path class="st10" d="M25.6,21l-2.4,1.2c-0.1,0-0.4,0-0.4-0.1v-2.5c0-0.1,0.3-0.2,0.4-0.1l2.3,1.3C25.6,20.8,25.7,21,25.6,21z
		 M28.9,19.7c0-1.2-0.9-2.1-2.1-2.1c0,0,0,0,0,0h-5.4c-1.2,0-2.1,0.9-2.1,2.1c0,0,0,0,0,0v2.5c0,1.2,0.9,2.1,2.1,2.1c0,0,0,0,0,0
		h5.4c1.2,0,2.1-0.9,2.1-2.1c0,0,0,0,0,0L28.9,19.7z"/>
	<path class="st11" d="M25.6,21l-2.3,1.2c-0.1,0-0.4,0-0.4-0.1v-2.5c0-0.1,0.3-0.2,0.4-0.1l2.3,1.3C25.6,20.8,25.7,20.9,25.6,21z
		 M28.8,19.7c0-1.2-0.9-2.1-2.1-2.1c0,0,0,0,0,0h-5.4c-1.2,0-2.1,1-2.1,2.1v2.6c0,1.2,0.9,2.1,2.1,2.1h5.4c1.2,0,2.1-1,2.1-2.1V19.7
		z"/>
	<path class="st12" d="M25.6,20.9l-2.4,1.2c-0.1,0-0.4,0-0.4-0.1v-2.5c0-0.1,0.3-0.2,0.4-0.1l2.3,1.3C25.6,20.7,25.7,20.9,25.6,20.9
		z M28.8,19.7c0-1.2-0.9-2.1-2.1-2.1c0,0,0,0,0,0h-5.4c-1.2,0-2.1,0.9-2.1,2.1c0,0,0,0,0,0v2.5c0,1.2,1,2.1,2.1,2.1h5.4
		c1.2,0,2.1-0.9,2.1-2.1L28.8,19.7z"/>
	<path class="st13" d="M25.5,20.9l-2.4,1.2c-0.1,0-0.4,0-0.4-0.1v-2.5c0-0.1,0.3-0.2,0.4-0.1l2.3,1.3C25.5,20.7,25.6,20.9,25.5,20.9
		z M28.8,19.6c0-1.2-0.9-2.1-2.1-2.1h-5.4c-1.2,0-2.1,0.9-2.1,2.1v2.5c0,1.2,0.9,2.1,2.1,2.1c0,0,0,0,0,0h5.4c1.2,0,2.1-0.9,2.1-2.1
		v0L28.8,19.6z"/>
	<path class="st14" d="M25.5,20.9l-2.4,1.2c-0.1,0-0.4,0-0.4-0.1v-2.5c0-0.1,0.3-0.2,0.4-0.1l2.3,1.3C25.5,20.7,25.6,20.8,25.5,20.9
		z M28.7,19.6c0-1.2-0.9-2.1-2.1-2.1c0,0,0,0,0,0h-5.4c-1.2,0-2.1,0.9-2.1,2.1c0,0,0,0,0,0v2.5c0,1.2,0.9,2.1,2.1,2.2c0,0,0,0,0.1,0
		h5.4c1.2,0,2.1-0.9,2.1-2.1c0,0,0,0,0,0L28.7,19.6z"/>
	<path class="st15" d="M25.4,20.8L23.1,22c-0.1,0-0.4,0-0.4-0.1v-2.5c0-0.1,0.3-0.2,0.4-0.1l2.3,1.3C25.5,20.6,25.5,20.8,25.4,20.8z
		 M28.7,19.5c0-1.2-0.9-2.1-2.1-2.1c0,0,0,0,0,0h-5.4c-1.2,0-2.1,0.9-2.1,2.1c0,0,0,0,0,0v2.5c0,1.2,1,2.1,2.1,2.1h5.4
		c1.2,0,2.1-0.9,2.1-2.1V19.5z"/>
	<path class="st16" d="M25.4,20.8L23,22c-0.1,0.1-0.4,0-0.4-0.1v-2.5c0-0.1,0.3-0.2,0.4-0.1l2.3,1.3C25.4,20.6,25.5,20.7,25.4,20.8z
		 M28.7,19.5c0-1.2-0.9-2.1-2.1-2.1c0,0,0,0,0,0h-5.4c-1.2,0-2.1,0.9-2.1,2.1c0,0,0,0,0,0V22c0,1.2,0.9,2.1,2.1,2.1c0,0,0,0,0,0h5.4
		c1.2,0,2.1-0.9,2.1-2.1c0,0,0,0,0,0V19.5z"/>
	<path class="st17" d="M25.4,20.8L23,22c-0.1,0-0.4,0-0.4-0.1v-2.5c0-0.1,0.3-0.2,0.4-0.1l2.3,1.3C25.4,20.6,25.5,20.7,25.4,20.8z
		 M28.6,19.5c0-1.2-0.9-2.1-2.1-2.1c0,0,0,0,0,0h-5.4c-1.2,0-2.1,0.9-2.1,2.1c0,0,0,0,0,0V22c0,1.2,0.9,2.1,2.1,2.1c0,0,0,0,0,0h5.4
		c1.2,0,2.1-0.9,2.1-2.1c0,0,0,0,0,0L28.6,19.5z"/>
	<path class="st18" d="M25.3,20.7L23,21.9c-0.1,0-0.4,0-0.4-0.1v-2.5c0-0.1,0.3-0.2,0.4-0.1l2.3,1.3C25.4,20.5,25.4,20.7,25.3,20.7z
		 M28.6,19.4c0-1.2-0.9-2.1-2.1-2.1h-5.4c-1.2,0-2.1,1-2.1,2.1v2.5c0,1.2,0.9,2.1,2.1,2.1h5.4c1.2,0,2.1-0.9,2.1-2.1V19.4z"/>
	<path class="st19" d="M25.3,20.7l-2.4,1.2c-0.1,0-0.4,0-0.4-0.1v-2.5c0-0.1,0.3-0.2,0.4-0.1l2.3,1.3C25.3,20.5,25.4,20.6,25.3,20.7
		z M28.6,19.4c0-1.2-0.9-2.1-2.1-2.1c0,0,0,0,0,0H21c-1.2,0-2.1,0.9-2.1,2.1c0,0,0,0,0,0v2.5c0,1.2,0.9,2.1,2.1,2.1c0,0,0,0,0,0h5.4
		c1.2,0,2.1-0.9,2.1-2.1c0,0,0,0,0,0V19.4z"/>
	<path class="st20" d="M25.3,20.7l-2.4,1.2c-0.1,0-0.4,0-0.4-0.1v-2.5c0-0.1,0.3-0.2,0.4-0.1l2.3,1.3C25.3,20.5,25.4,20.6,25.3,20.7
		z M28.5,19.4c0-1.2-0.9-2.1-2.1-2.1H21c-1.2,0-2.1,0.9-2.1,2.1v0v2.5c0,1.2,0.9,2.1,2.1,2.1c0,0,0,0,0,0h5.4c1.2,0,2.1-1,2.1-2.1
		L28.5,19.4z"/>
	<path class="st21" d="M25.3,20.6l-2.4,1.2c-0.1,0-0.4,0-0.4-0.1v-2.4c0-0.1,0.3-0.2,0.4-0.1l2.3,1.3C25.3,20.4,25.3,20.6,25.3,20.6
		z M28.5,19.3c0-1.2-1-2.1-2.1-2.1H21c-1.2,0-2.1,1-2.1,2.1v2.5c0,1.1,1,2.1,2.1,2.1h5.4c1.2,0,2.1-0.9,2.1-2.1c0,0,0,0,0,0
		L28.5,19.3z"/>
	<path class="st22" d="M25.2,20.6l-2.4,1.2c-0.1,0-0.4,0-0.4-0.1v-2.5c0-0.1,0.3-0.2,0.4-0.1l2.3,1.3C25.3,20.4,25.3,20.5,25.2,20.6
		z M28.4,19.3c0-1.2-0.9-2.1-2.1-2.1c0,0,0,0,0,0h-5.4c-1.2,0-2.1,0.9-2.1,2.1c0,0,0,0,0,0v2.5c0,1.2,1,2.1,2.1,2.1h5.4
		c1.2,0,2.1-0.9,2.1-2.1V19.3z"/>
	<path class="st23" d="M25.2,20.6l-2.4,1.2c-0.1,0.1-0.4,0-0.4-0.1v-2.5c0-0.1,0.3-0.2,0.4-0.1l2.3,1.3
		C25.2,20.4,25.3,20.5,25.2,20.6z M28.4,19.3c0-1.2-0.9-2.1-2.1-2.1c0,0,0,0,0,0h-5.4c-1.2,0-2.1,0.9-2.1,2.1v2.5
		c0,1.2,0.9,2.1,2.1,2.1c0,0,0,0,0,0h5.4c1.2,0,2.1-0.9,2.1-2.1v0L28.4,19.3z"/>
	<path class="st24" d="M25.1,20.5l-2.4,1.2c-0.1,0-0.4,0-0.4-0.1v-2.5c0-0.1,0.3-0.2,0.4-0.1l2.3,1.3C25.1,20.3,25.3,20.5,25.1,20.5
		z M28.4,19.3c0-1.2-0.9-2.1-2.1-2.2c0,0,0,0-0.1,0h-5.4c-1.2,0-2.1,0.9-2.1,2.1c0,0,0,0,0,0.1v2.5c0,1.2,0.9,2.1,2.1,2.1
		c0,0,0,0,0,0h5.4c1.2,0,2.1-0.9,2.1-2.1c0,0,0,0,0,0V19.3z"/>
	<path class="st25" d="M25.1,20.5l-2.4,1.2c-0.1,0.1-0.4,0-0.4-0.1v-2.5c0-0.1,0.3-0.2,0.4-0.1l2.3,1.3
		C25.1,20.3,25.2,20.4,25.1,20.5z M28.3,19.2c0-1.2-0.9-2.1-2.1-2.1h-5.5c-1.2,0-2.1,1-2.1,2.1v2.5c0,1.2,0.9,2.1,2.1,2.1h5.5
		c1.2,0,2.1-0.9,2.1-2.1L28.3,19.2z"/>
	<path class="st26" d="M25.1,20.4l-2.4,1.2c-0.1,0-0.4,0-0.4-0.1v-2.5c0-0.1,0.3-0.2,0.4-0.1l2.3,1.3C25.1,20.3,25.2,20.4,25.1,20.4
		z M28.3,19.1c0-1.2-0.9-2.1-2.1-2.1c0,0,0,0,0,0h-5.4c-1.2,0-2.1,0.9-2.1,2.1c0,0,0,0,0,0v2.5c0,1.2,0.9,2.1,2.1,2.1c0,0,0,0,0,0
		h5.4c1.2,0,2.1-0.9,2.1-2.1c0,0,0,0,0,0V19.1z"/>
	<path class="st27" d="M25,20.4l-2.4,1.2c-0.1,0-0.4,0-0.4-0.1V19c0-0.1,0.3-0.2,0.4-0.1l2.3,1.3C25,20.3,25.1,20.4,25,20.4z
		 M28.3,19.1c0-1.2-0.9-2.1-2.1-2.1l0,0h-5.4c-1.2,0-2.1,0.9-2.1,2.1v0v2.5c0,1.2,0.9,2.1,2.1,2.1c0,0,0,0,0,0h5.4
		c1.2,0,2.1-0.9,2.1-2.1c0,0,0,0,0,0V19.1z"/>
	<path class="st28" d="M25,20.4l-2.4,1.2c-0.1,0-0.4,0-0.4-0.1V19c0-0.1,0.3-0.2,0.4-0.1l2.3,1.3C25,20.2,25.1,20.3,25,20.4z
		 M28.3,19.1c0-1.2-0.9-2.1-2.1-2.1c0,0,0,0,0,0h-5.4c-1.2,0-2.1,1-2.1,2.1v2.5c0,1.2,0.9,2.1,2.1,2.1h5.4c1.2,0,2.1-0.9,2.1-2.1
		c0,0,0,0,0-0.1V19.1z"/>
	<path class="st29" d="M24.9,20.3l-2.4,1.2c-0.1,0-0.4,0-0.4-0.1v-2.5c0-0.1,0.3-0.2,0.4-0.1l2.3,1.3C25,20.1,25,20.3,24.9,20.3z
		 M28.2,19c0-1.2-0.9-2.1-2.1-2.1c0,0,0,0,0,0h-5.4c-1.2,0-2.1,0.9-2.1,2.1c0,0,0,0,0,0v2.5c0,1.2,1,2.1,2.1,2.1h5.4
		c1.2,0,2.1-0.9,2.1-2.1V19z"/>
	<path class="st30" d="M24.9,20.3l-2.4,1.2c-0.1,0-0.4,0-0.4-0.1v-2.5c0-0.1,0.3-0.2,0.4-0.1l2.3,1.3C24.9,20.1,25,20.3,24.9,20.3z
		 M28.1,19c0-1.2-0.9-2.1-2.1-2.1h-5.4c-1.2,0-2.1,0.9-2.1,2.1v2.5c0,1.2,0.9,2.1,2.1,2.1c0,0,0,0,0,0H26c1.2,0,2.1-0.9,2.1-2.1v0
		V19z"/>
	<path class="st31" d="M24.9,20.3l-2.4,1.2c-0.1,0-0.4,0-0.4-0.1v-2.5c0-0.1,0.3-0.2,0.4-0.1l2.3,1.3C24.9,20.1,25,20.3,24.9,20.3z
		 M28.1,18.9c0-1.2-0.9-2.1-2.1-2.1c0,0,0,0,0,0h-5.4c-1.2,0-2.1,0.9-2.1,2.1c0,0,0,0,0,0v2.5c0,1.2,0.9,2.1,2.1,2.1c0,0,0,0,0,0H26
		c1.2,0,2.1-0.9,2.1-2.1c0,0,0,0,0,0V18.9z"/>
	<path class="st32" d="M24.8,20.3l-2.4,1.2c-0.1,0.1-0.4,0-0.4-0.1v-2.5c0-0.1,0.3-0.2,0.4-0.1l2.3,1.3C24.9,20,24.9,20.2,24.8,20.3
		z M28.1,18.9c0-1.2-0.9-2.1-2.1-2.1c0,0,0,0,0,0h-5.4c-1.2,0-2.1,0.9-2.1,2.1c0,0,0,0,0,0v2.5c0,1.2,1,2.1,2.1,2.1H26
		c1.2,0,2.1-0.9,2.1-2.1V18.9z"/>
	<path class="st33" d="M24.8,20.2l-2.4,1.2c-0.1,0-0.4,0-0.4-0.1v-2.5c0-0.1,0.3-0.2,0.4-0.1l2.3,1.3C24.8,20,24.9,20.1,24.8,20.2z
		 M28,18.9c0-1.2-0.9-2.1-2.1-2.1c0,0,0,0,0,0h-5.4c-1.2,0-2.1,0.9-2.1,2.1c0,0,0,0,0,0v2.5c0,1.2,0.9,2.1,2.1,2.1c0,0,0,0,0,0h5.4
		c1.2,0,2.1-0.9,2.1-2.1c0,0,0,0,0,0V18.9z"/>
	<path class="st34" d="M24.8,20.2l-2.4,1.2c-0.1,0-0.4,0-0.4-0.1v-2.5c0-0.1,0.3-0.2,0.4-0.1l2.3,1.3C24.8,20,24.9,20.1,24.8,20.2z
		 M28,18.8c0-1.2-0.9-2.1-2.1-2.1c0,0,0,0,0,0h-5.4c-1.2,0-2.1,0.9-2.1,2.1c0,0,0,0,0,0v2.5c0,1.2,0.9,2.1,2.1,2.1c0,0,0,0,0,0h5.4
		c1.2,0,2.1-0.9,2.1-2.1c0,0,0,0,0,0L28,18.8z"/>
	<path class="st35" d="M24.7,20.1l-2.4,1.2c-0.1,0-0.4,0-0.4-0.1v-2.5c0-0.1,0.3-0.2,0.4-0.1l2.3,1.3C24.7,19.9,24.8,20.1,24.7,20.1
		z M28,18.8c0-1.2-0.9-2.1-2.1-2.1h-5.4c-1.2,0-2.1,1-2.1,2.1v2.5c0,1.2,0.9,2.1,2.1,2.1h5.4c1.2,0,2.1-0.9,2.1-2.1V18.8z"/>
	<path class="st36" d="M24.7,20.1l-2.4,1.2c-0.1,0-0.4,0-0.4-0.1v-2.4c0-0.1,0.3-0.2,0.4-0.1l2.3,1.3C24.7,19.9,24.8,20,24.7,20.1z
		 M27.9,18.8c0-1.2-0.9-2.1-2.1-2.1c0,0,0,0,0,0h-5.4c-1.2,0-2.1,0.9-2.1,2.1c0,0,0,0,0,0v2.5c0,1.2,0.9,2.1,2.1,2.1c0,0,0,0,0,0
		h5.4c1.2,0,2.1-0.9,2.1-2.1c0,0,0,0,0,0V18.8z"/>
	<path class="st37" d="M24.7,20.1l-2.4,1.2c-0.1,0-0.4,0-0.4-0.1v-2.5c0-0.1,0.3-0.2,0.4-0.1l2.3,1.3C24.7,19.9,24.8,20,24.7,20.1z
		 M27.9,18.7c0-1.2-0.9-2.1-2.1-2.1h-5.4c-1.2,0-2.1,0.9-2.1,2.1v0v2.5c0,1.2,0.9,2.1,2.1,2.1c0,0,0,0,0,0h5.4
		c1.2,0,2.1-0.9,2.1-2.1v0V18.7z"/>
	<path class="st38" d="M24.6,20l-2.4,1.2c-0.1,0-0.4,0-0.4-0.1v-2.5c0-0.1,0.3-0.2,0.4-0.1l2.3,1.3C24.6,19.8,24.7,20,24.6,20z
		 M27.8,18.7c0-1.2-0.9-2.1-2.1-2.1c0,0,0,0,0,0h-5.4c-1.2,0-2.1,1-2.1,2.1v2.6c0,1.2,0.9,2.1,2.1,2.1c0,0,0,0,0,0h5.4
		c1.2,0,2.1-1,2.1-2.1V18.7z"/>
	<path class="st39" d="M24.6,20l-2.4,1.2c-0.1,0-0.4,0-0.4-0.1v-2.5c0-0.1,0.3-0.2,0.4-0.1l2.3,1.3C24.6,19.8,24.7,19.9,24.6,20z
		 M27.8,18.7c0-1.2-0.9-2.1-2.1-2.1c0,0,0,0,0,0h-5.4c-1.2,0-2.1,0.9-2.1,2.1c0,0,0,0,0,0v2.5c0,1.2,1,2.1,2.1,2.1h5.4
		c1.2,0,2.1-0.9,2.1-2.1L27.8,18.7z"/>
	<path class="st40" d="M24.6,19.9l-2.4,1.2c-0.1,0-0.4,0-0.4-0.1v-2.5c0-0.1,0.3-0.2,0.4-0.1l2.3,1.3C24.6,19.8,24.7,19.9,24.6,19.9
		z M27.8,18.6c0-1.2-0.9-2.1-2.1-2.1h-5.4c-1.2,0-2.1,0.9-2.1,2.1v2.5c0,1.2,0.9,2.1,2.1,2.1c0,0,0,0,0,0h5.4c1.2,0,2.1-0.9,2.1-2.1
		v0V18.6z"/>
	<path class="st41" d="M24.5,19.9l-2.4,1.2c-0.1,0.1-0.4,0-0.4-0.1v-2.5c0-0.1,0.3-0.2,0.4-0.1l2.3,1.3
		C24.5,19.7,24.6,19.9,24.5,19.9z M27.7,18.6c0-1.2-0.9-2.1-2.1-2.1c0,0,0,0,0,0h-5.4c-1.2,0-2.1,0.9-2.1,2.1c0,0,0,0,0,0v2.5
		c0,1.2,0.9,2.1,2.1,2.2c0,0,0,0,0.1,0h5.4c1.2,0,2.1-0.9,2.1-2.1c0,0,0,0,0,0L27.7,18.6z"/>
	<path class="st42" d="M24.5,19.9l-2.4,1.2c-0.1,0-0.4,0-0.4-0.1v-2.5c0-0.1,0.3-0.2,0.4-0.1l2.3,1.3C24.5,19.7,24.6,19.8,24.5,19.9
		z M27.7,18.5c0-1.2-0.9-2.1-2.1-2.1h-5.4c-1.2,0-2.1,1-2.1,2.1v2.5c0,1.2,0.9,2.1,2.1,2.1h5.4c1.2,0,2.1-0.9,2.1-2.1V18.5z"/>
	<path class="st43" d="M24.5,19.8L22,21c-0.1,0-0.4,0-0.4-0.1v-2.5c0-0.1,0.3-0.2,0.4-0.1l2.3,1.3C24.5,19.6,24.5,19.8,24.5,19.8z
		 M27.7,18.5c0-1.2-0.9-2.1-2.1-2.1c0,0,0,0,0,0h-5.4c-1.2,0-2.1,0.9-2.1,2.1c0,0,0,0,0,0V21c0,1.2,0.9,2.1,2.1,2.1c0,0,0,0,0,0h5.4
		c1.2,0,2.1-0.9,2.1-2.1c0,0,0,0,0,0V18.5z"/>
	<path class="st44" d="M24.4,19.8L22,21c-0.1,0-0.4,0-0.4-0.1v-2.5c0-0.1,0.3-0.2,0.4-0.1l2.3,1.3C24.4,19.6,24.5,19.7,24.4,19.8z
		 M27.6,18.5c0-1.2-0.9-2.1-2.1-2.1l0,0h-5.4c-1.2,0-2.1,0.9-2.1,2.1v0V21c0,1.2,0.9,2.1,2.1,2.1c0,0,0,0,0,0h5.4
		c1.2,0,2.1-0.9,2.1-2.1c0,0,0,0,0,0L27.6,18.5z"/>
	<path class="st45" d="M24.4,19.8L22,21c-0.1,0-0.4,0-0.4-0.1v-2.5c0-0.1,0.3-0.2,0.4-0.1l2.3,1.3C24.4,19.6,24.5,19.7,24.4,19.8z
		 M27.6,18.4c0-1.2-0.9-2.1-2.1-2.1c0,0,0,0,0,0h-5.4c-1.2,0-2.1,1-2.1,2.1v2.5c0,1.2,0.9,2.1,2.1,2.1h5.4c1.2,0,2.1-0.9,2.1-2.1
		c0,0,0,0,0,0L27.6,18.4z"/>
	<path class="st46" d="M24.3,19.7l-2.4,1.2c-0.1,0-0.4,0-0.4-0.1v-2.5c0-0.1,0.3-0.2,0.4-0.1l2.3,1.3C24.3,19.5,24.4,19.7,24.3,19.7
		z M27.6,18.4c0-1.2-0.9-2.1-2.1-2.1c0,0,0,0,0,0H20c-1.2,0-2.1,0.9-2.1,2.1c0,0,0,0,0,0v2.5c0,1.2,1,2.1,2.1,2.1h5.4
		c1.2,0,2.1-0.9,2.1-2.1V18.4z"/>
	<path class="st47" d="M24.3,19.7l-2.4,1.2c-0.1,0-0.4,0-0.4-0.1v-2.5c0-0.1,0.3-0.2,0.4-0.1l2.4,1.3C24.3,19.5,24.4,19.6,24.3,19.7
		z M27.5,18.4c0-1.2-1-2.1-2.1-2.1H20c-1.2,0-2.1,0.9-2.1,2.1v2.5c0,1.2,0.9,2.1,2.1,2.1c0,0,0,0,0,0h5.4c1.2,0,2.1-0.9,2.1-2.1v0
		V18.4z"/>
	<path class="st48" d="M24.3,19.7l-2.4,1.2c-0.1,0.1-0.4,0-0.4-0.1v-2.5c0-0.1,0.3-0.2,0.4-0.1l2.3,1.3
		C24.3,19.5,24.4,19.6,24.3,19.7z M27.5,18.3c0-1.1-0.9-2.1-2.1-2.1H20c-1.2,0-2.1,0.9-2.1,2.1c0,0,0,0,0,0v2.5c0,1.1,1,2.1,2.1,2.1
		h5.4c1.2,0,2.1-0.9,2.1-2.1c0,0,0,0,0,0L27.5,18.3z"/>
	<path class="st49" d="M24.3,19.6l-2.4,1.2c-0.1,0-0.4,0-0.4-0.1v-2.4c0-0.1,0.3-0.2,0.4-0.1l2.3,1.3C24.3,19.4,24.3,19.6,24.3,19.6
		z M27.4,18.3c0-1.2-0.9-2.1-2.1-2.1c0,0,0,0,0,0h-5.4c-1.2,0-2.1,0.9-2.1,2.1c0,0,0,0,0,0v2.5c0,1.2,1,2.1,2.1,2.1h5.4
		c1.2,0,2.1-0.9,2.1-2.1V18.3z"/>
	<path class="st50" d="M24.3,19.6l-2.4,1.2c-0.1,0-0.4,0-0.4-0.1v-2.4c0-0.1,0.3-0.2,0.4-0.1l2.3,1.3C24.3,19.4,24.3,19.5,24.3,19.6
		z M27.4,18.3c0-1.2-0.9-2.1-2.1-2.1c0,0,0,0-0.1,0h-5.4c-1.2,0-2.1,1-2.1,2.1v2.5c0,1.2,0.9,2.1,2.1,2.1c0,0,0,0,0,0h5.4
		c1.2,0,2.1-0.9,2.1-2.1c0,0,0,0,0,0L27.4,18.3z"/>
	<path class="st51" d="M24.2,19.6l-2.4,1.2c-0.1,0-0.4,0-0.4-0.1v-2.5c0-0.1,0.3-0.2,0.4-0.1l2.3,1.3C24.2,19.4,24.3,19.5,24.2,19.6
		z M27.4,18.3c0-1.2-0.9-2.1-2.1-2.2c0,0,0,0-0.1,0h-5.4c-1.2,0-2.1,0.9-2.1,2.1c0,0,0,0,0,0.1v2.5c0,1.2,0.9,2.1,2.1,2.1
		c0,0,0,0,0,0h5.4c1.2,0,2.1-0.9,2.1-2.1c0,0,0,0,0,0V18.3z"/>
	<path class="st52" d="M24.1,19.5l-2.4,1.2c-0.1,0-0.4,0-0.4-0.1v-2.5c0-0.1,0.3-0.2,0.4-0.1l2.3,1.3C24.1,19.3,24.3,19.5,24.1,19.5
		z M27.3,18.2c0-1.2-0.9-2.1-2.1-2.1h-5.5c-1.2,0-2.1,1-2.1,2.1v2.5c0,1.2,0.9,2.1,2.1,2.1h5.5c1.2,0,2.1-0.9,2.1-2.1L27.3,18.2z"/>
	<path class="st53" d="M24.1,19.5l-2.4,1.2c-0.1,0-0.4,0-0.4-0.1v-2.5c0-0.1,0.3-0.2,0.4-0.1l2.3,1.3C24.1,19.3,24.2,19.4,24.1,19.5
		z M27.3,18.1c0-1.2-0.9-2.1-2.1-2.1c0,0,0,0,0,0h-5.4c-1.2,0-2.1,0.9-2.1,2.1c0,0,0,0,0,0v2.5c0,1.2,0.9,2.1,2.1,2.1c0,0,0,0,0,0
		h5.4c1.2,0,2.1-0.9,2.1-2.1c0,0,0,0,0,0V18.1z"/>
	<path class="st54" d="M24.1,19.4l-2.4,1.2c-0.1,0-0.4,0-0.4-0.1v-2.5c0-0.1,0.3-0.2,0.4-0.1l2.3,1.3C24.1,19.3,24.2,19.4,24.1,19.4
		z M27.3,18.1c0-1.2-0.9-2.1-2.1-2.1h-5.4c-1.2,0-2.1,0.9-2.1,2.1v0v2.5c0,1.2,0.9,2.1,2.1,2.1c0,0,0,0,0,0h5.4
		c1.2,0,2.1-0.9,2.1-2.1v0V18.1z"/>
	<path class="st55" d="M24,19.4l-2.4,1.2c-0.1,0-0.4,0-0.4-0.1V18c0-0.1,0.3-0.2,0.4-0.1l2.3,1.3C24,19.3,24.1,19.4,24,19.4z
		 M27.3,18.1c0-1.2-0.9-2.1-2.1-2.1c0,0,0,0,0,0h-5.4c-1.2,0-2.1,0.9-2.1,2.1c0,0,0,0,0,0v2.5c0,1.2,0.9,2.1,2.1,2.1c0,0,0,0,0,0
		h5.4c1.2,0,2.1-0.9,2.1-2.1c0,0,0,0,0-0.1V18.1z"/>
	<path class="st56" d="M24,19.4l-2.4,1.2c-0.1,0-0.4,0-0.4-0.1V18c0-0.1,0.3-0.2,0.4-0.1l2.3,1.3C24,19.2,24.1,19.3,24,19.4z
		 M27.2,18c0-1.2-0.9-2.1-2.1-2.1c0,0,0,0,0,0h-5.4c-1.2,0-2.1,0.9-2.1,2.1c0,0,0,0,0,0v2.5c0,1.2,1,2.1,2.1,2.1h5.4
		c1.2,0,2.1-0.9,2.1-2.1V18z"/>
	<path class="st57" d="M24,19.3l-2.4,1.2c-0.1,0.1-0.4,0-0.4-0.1V18c0-0.1,0.3-0.2,0.4-0.1l2.3,1.3C24,19.1,24.1,19.3,24,19.3z
		 M27.1,18c0-1.2-0.9-2.1-2.1-2.1h-5.4c-1.2,0-2.1,0.9-2.1,2.1v2.5c0,1.2,0.9,2.1,2.1,2.1c0,0,0,0,0,0H25c1.2,0,2.1-0.9,2.1-2.1v0
		V18z"/>
	<path class="st58" d="M23.9,19.3l-2.4,1.2c-0.1,0-0.4,0-0.4-0.1v-2.5c0-0.1,0.3-0.2,0.4-0.1l2.3,1.3C23.9,19.1,24,19.3,23.9,19.3z
		 M27.1,18c0-1.2-0.9-2.1-2.1-2.1c0,0,0,0,0,0h-5.4c-1.2,0-2.1,0.9-2.1,2.1c0,0,0,0,0,0v2.5c0,1.2,0.9,2.1,2.1,2.1c0,0,0,0,0,0H25
		c1.2,0,2.1-0.9,2.1-2.1c0,0,0,0,0,0V18z"/>
	<path class="st59" d="M23.9,19.3l-2.4,1.2c-0.1,0-0.4,0-0.4-0.1v-2.5c0-0.1,0.3-0.2,0.4-0.1l2.3,1.3C23.9,19.1,24,19.3,23.9,19.3z
		 M27.1,17.9c0-1.2-0.9-2.1-2.1-2.1h-5.4c-1.2,0-2.1,1-2.1,2.1v2.5c0,1.2,0.9,2.1,2.1,2.1H25c1.2,0,2.1-0.9,2.1-2.1V17.9z"/>
	<path class="st60" d="M23.8,19.3l-2.4,1.2c-0.1,0-0.4,0-0.4-0.1v-2.5c0-0.1,0.3-0.2,0.4-0.1l2.3,1.3C23.8,19,23.9,19.2,23.8,19.3z
		 M27,17.9c0-1.2-0.9-2.1-2.1-2.1c0,0,0,0,0,0h-5.4c-1.2,0-2.1,0.9-2.1,2.1c0,0,0,0,0,0v2.5c0,1.2,0.9,2.1,2.1,2.1c0,0,0,0,0,0h5.4
		c1.2,0,2.1-0.9,2.1-2.1c0,0,0,0,0,0V17.9z"/>
	<path class="st61" d="M23.8,19.2l-2.4,1.2c-0.1,0-0.4,0-0.4-0.1v-2.5c0-0.1,0.3-0.2,0.4-0.1l2.3,1.3C23.8,19,23.9,19.1,23.8,19.2z
		 M27,17.8c0-1.2-0.9-2.1-2.1-2.1l0,0h-5.4c-1.2,0-2.1,0.9-2.1,2.1v0v2.5c0,1.2,0.9,2.1,2.1,2.1c0,0,0,0,0,0h5.4
		c1.2,0,2.1-0.9,2.1-2.1c0,0,0,0,0,0V17.8z"/>
	<path class="st62" d="M23.8,19.2l-2.4,1.2c-0.1,0-0.4,0-0.4-0.1v-2.5c0-0.1,0.3-0.2,0.4-0.1l2.3,1.3C23.8,19,23.9,19.1,23.8,19.2z
		 M27,17.8c0-1.2-0.9-2.1-2.1-2.1c0,0,0,0,0,0h-5.4c-1.2,0-2.1,1-2.1,2.1v2.5c0,1.2,0.9,2.1,2.1,2.1h5.4c1.2,0,2.1-0.9,2.1-2.1
		c0,0,0,0,0,0V17.8z"/>
	<path class="st63" d="M23.7,19.1l-2.4,1.2c-0.1,0-0.4,0-0.4-0.1v-2.5c0-0.1,0.3-0.2,0.4-0.1l2.3,1.3C23.7,18.9,23.8,19.1,23.7,19.1
		z M26.9,17.8c0-1.2-0.9-2.1-2.1-2.1c0,0,0,0,0,0h-5.4c-1.2,0-2.1,0.9-2.1,2.1c0,0,0,0,0,0v2.5c0,1.2,1,2.1,2.1,2.1h5.4
		c1.2,0,2.1-0.9,2.1-2.1c0,0,0,0,0,0V17.8z"/>
	<path class="st64" d="M23.7,19.1l-2.5,1.2c-0.1,0.1-0.4,0-0.4-0.1v-2.4c0-0.1,0.3-0.2,0.4-0.1l2.3,1.3C23.7,18.9,23.8,19,23.7,19.1
		z M26.9,17.7c0-1.2-0.9-2.1-2.1-2.1h-5.4c-1.2,0-2.1,0.9-2.1,2.1v2.5c0,1.2,0.9,2.1,2.1,2.1c0,0,0,0,0,0h5.4c1.2,0,2.1-0.9,2.1-2.1
		V17.7z"/>
	<path class="st65" d="M23.7,19.1l-2.4,1.2c-0.1,0-0.4,0-0.4-0.1v-2.5c0-0.1,0.3-0.2,0.4-0.1l2.3,1.3C23.7,18.9,23.8,19,23.7,19.1z
		 M26.8,17.7c0-1.2-0.9-2.1-2.1-2.1c0,0,0,0,0,0h-5.4c-1.2,0-2.1,1-2.1,2.1v2.6c0,1.2,0.9,2.1,2.1,2.1c0,0,0,0,0,0h5.4
		c1.2,0,2.1-1,2.1-2.1V17.7z"/>
	<path class="st66" d="M23.6,19l-2.4,1.2c-0.1,0-0.4,0-0.4-0.1v-2.5c0-0.1,0.3-0.2,0.4-0.1l2.3,1.3C23.6,18.8,23.7,19,23.6,19z
		 M26.8,17.7c0-1.2-0.9-2.1-2.1-2.1c0,0,0,0,0,0h-5.4c-1.2,0-2.1,0.9-2.1,2.1c0,0,0,0,0,0v2.5c0,1.2,1,2.1,2.1,2.1h5.4
		c1.2,0,2.1-0.9,2.1-2.1L26.8,17.7z"/>
	<path class="st67" d="M23.6,19l-2.4,1.2c-0.1,0-0.4,0-0.4-0.1v-2.5c0-0.1,0.3-0.2,0.4-0.1l2.3,1.3C23.6,18.8,23.7,18.9,23.6,19z
		 M26.8,17.6c0-1.2-0.9-2.1-2.1-2.1c0,0,0,0,0,0h-5.4c-1.2,0-2.1,0.9-2.1,2.1c0,0,0,0,0,0v2.5c0,1.2,0.9,2.1,2.1,2.1c0,0,0,0,0,0
		h5.4c1.2,0,2.1-0.9,2.1-2.1c0,0,0,0,0,0V17.6z"/>
	<path class="st68" d="M23.6,18.9l-2.4,1.2c-0.1,0-0.4,0-0.4-0.1v-2.5c0-0.1,0.3-0.2,0.4-0.1l2.3,1.3C23.6,18.8,23.7,18.9,23.6,18.9
		z M26.7,17.6c0-1.2-0.9-2.1-2.1-2.1c0,0,0,0,0,0h-5.4c-1.2,0-2.1,0.9-2.1,2.1c0,0,0,0,0,0v2.5c0,1.2,0.9,2.1,2.1,2.2c0,0,0,0,0.1,0
		h5.4c1.2,0,2.1-0.9,2.1-2.1c0,0,0,0,0,0L26.7,17.6z"/>
	<path class="st69" d="M23.5,18.9l-2.4,1.2c-0.1,0-0.4,0-0.4-0.1v-2.5c0-0.1,0.3-0.2,0.4-0.1l2.3,1.3C23.5,18.7,23.6,18.9,23.5,18.9
		z M26.7,17.5c0-1.2-0.9-2.1-2.1-2.1h-5.4c-1.2,0-2.1,1-2.1,2.1v2.5c0,1.2,0.9,2.1,2.1,2.1h5.4c1.2,0,2.1-0.9,2.1-2.1V17.5z"/>
	<path class="st70" d="M23.5,18.9l-2.4,1.2c-0.1,0-0.4,0-0.4-0.1v-2.5c0-0.1,0.3-0.2,0.4-0.1l2.3,1.3C23.5,18.7,23.6,18.8,23.5,18.9
		z M26.7,17.5c0-1.2-0.9-2.1-2.1-2.1c0,0,0,0,0,0h-5.4c-1.2,0-2.1,0.9-2.1,2.1c0,0,0,0,0,0V20c0,1.2,0.9,2.1,2.1,2.1c0,0,0,0,0,0
		h5.4c1.2,0,2.1-0.9,2.1-2.1c0,0,0,0,0,0V17.5z"/>
	<path class="st71" d="M23.5,18.8L21,20c-0.1,0-0.4,0-0.4-0.1v-2.5c0-0.1,0.3-0.2,0.4-0.1l2.3,1.3C23.4,18.6,23.6,18.8,23.5,18.8z
		 M26.6,17.5c0-1.2-0.9-2.1-2.1-2.1h-5.4c-1.2,0-2.1,0.9-2.1,2.1v0V20c0,1.2,0.9,2.1,2.1,2.1c0,0,0,0,0,0h5.4c1.2,0,2.1-0.9,2.1-2.1
		v0V17.5z"/>
	<path class="st72" d="M23.4,18.8L21,20c-0.1,0-0.4,0-0.4-0.1v-2.5c0-0.1,0.3-0.2,0.4-0.1l2.3,1.3C23.4,18.6,23.5,18.8,23.4,18.8z
		 M26.6,17.4c0-1.2-0.9-2.1-2.1-2.1c0,0,0,0,0,0h-5.4c-1.2,0-2.1,0.9-2.1,2.1c0,0,0,0,0,0v2.5c0,1.2,0.9,2.1,2.1,2.1c0,0,0,0,0,0
		h5.4c1.2,0,2.1-0.9,2.1-2.1c0,0,0,0,0,0V17.4z"/>
	<path class="st73" d="M23.4,18.8L21,20c-0.1,0.1-0.4,0-0.4-0.1v-2.5c0-0.1,0.3-0.2,0.4-0.1l2.3,1.3C23.4,18.6,23.5,18.7,23.4,18.8z
		 M26.6,17.4c0-1.2-0.9-2.1-2.1-2.1c0,0,0,0,0,0H19c-1.2,0-2.1,0.9-2.1,2.1c0,0,0,0,0,0v2.5c0,1.2,1,2.1,2.1,2.1h5.4
		c1.2,0,2.1-0.9,2.1-2.1V17.4z"/>
	<path class="st74" d="M23.3,18.7l-2.4,1.2c-0.1,0-0.4,0-0.4-0.1v-2.5c0-0.1,0.3-0.2,0.4-0.1l2.3,1.3C23.3,18.5,23.4,18.7,23.3,18.7
		z M26.5,17.4c0-1.2-1-2.1-2.1-2.1H19c-1.2,0-2.1,0.9-2.1,2.1v2.5c0,1.2,0.9,2.1,2.1,2.1c0,0,0,0,0,0h5.4c1.2,0,2.1-0.9,2.1-2.1v0
		L26.5,17.4z"/>
	<path class="st75" d="M23.3,18.7l-2.4,1.2c-0.1,0-0.4,0-0.4-0.1v-2.5c0-0.1,0.3-0.2,0.4-0.1l2.4,1.3C23.3,18.5,23.4,18.6,23.3,18.7
		z M26.5,17.3c0-1.1-1-2.1-2.1-2.1H19c-1.2,0-2.1,0.9-2.1,2.1c0,0,0,0,0,0v2.5c0,1.1,1,2.1,2.1,2.1h5.4c1.2,0,2.1-0.9,2.1-2.1
		c0,0,0,0,0,0V17.3z"/>
	<path class="st76" d="M23.3,18.7l-2.4,1.2c-0.1,0-0.4,0-0.4-0.1v-2.5c0-0.1,0.3-0.2,0.4-0.1l2.3,1.3C23.3,18.5,23.4,18.6,23.3,18.7
		z M26.4,17.3c0-1.2-0.9-2.1-2.1-2.1h-5.4c-1.2,0-2.1,1-2.1,2.1v2.5c0,1.2,0.9,2.1,2.1,2.1h5.4c1.2,0,2.1-0.9,2.1-2.1V17.3z"/>
	<path class="st77" d="M23.3,18.6l-2.4,1.2c-0.1,0-0.4,0-0.4-0.1v-2.5c0-0.1,0.3-0.2,0.4-0.1l2.3,1.3C23.3,18.4,23.3,18.6,23.3,18.6
		z M26.4,17.3c0-1.2-0.9-2.1-2.1-2.1c0,0,0,0-0.1,0h-5.4c-1.2,0-2.1,1-2.1,2.1v2.5c0,1.2,0.9,2.1,2.1,2.1c0,0,0,0,0,0h5.4
		c1.2,0,2.1-0.9,2.1-2.1c0,0,0,0,0,0L26.4,17.3z"/>
	<path class="st78" d="M23.3,18.6l-2.4,1.2c-0.1,0-0.4,0-0.4-0.1v-2.4c0-0.1,0.3-0.2,0.4-0.1l2.3,1.3C23.2,18.4,23.3,18.5,23.3,18.6
		z M26.4,17.3c0-1.2-0.9-2.1-2.1-2.2c0,0,0,0-0.1,0h-5.4c-1.2,0-2.1,0.9-2.1,2.1c0,0,0,0,0,0.1v2.5c0,1.2,0.9,2.1,2.1,2.1
		c0,0,0,0,0,0h5.4c1.2,0,2.1-0.9,2.1-2.1c0,0,0,0,0,0V17.3z"/>
	<path class="st79" d="M23.2,18.6l-2.4,1.2c-0.1,0-0.4,0-0.4-0.1v-2.5c0-0.1,0.3-0.2,0.4-0.1l2.3,1.3C23.2,18.4,23.3,18.5,23.2,18.6
		z M26.3,17.2c0-1.2-0.9-2.1-2.1-2.1h-5.5c-1.2,0-2.1,1-2.1,2.1v2.5c0,1.2,0.9,2.1,2.1,2.1h5.5c1.2,0,2.1-0.9,2.1-2.1c0,0,0,0,0,0
		L26.3,17.2z"/>
	<path class="st80" d="M23.1,18.5l-2.4,1.2c-0.1,0-0.4,0-0.4-0.1v-2.5c0-0.1,0.3-0.2,0.4-0.1l2.3,1.3C23.1,18.3,23.3,18.5,23.1,18.5
		z M26.3,17.1c0-1.2-0.9-2.1-2.1-2.1c0,0,0,0,0,0h-5.4c-1.2,0-2.1,0.9-2.1,2.1c0,0,0,0,0,0v2.5c0,1.2,1,2.1,2.1,2.1h5.4
		c1.2,0,2.1-0.9,2.1-2.1V17.1z"/>
	<path class="st81" d="M23.1,18.5l-2.4,1.2c-0.1,0-0.4,0-0.4-0.1v-2.5c0-0.1,0.3-0.2,0.4-0.1l2.3,1.3C23.1,18.3,23.2,18.4,23.1,18.5
		z M26.3,17.1c0-1.2-0.9-2.1-2.1-2.1h-5.4c-1.2,0-2.1,0.9-2.1,2.1v2.5c0,1.2,0.9,2.1,2.1,2.1c0,0,0,0,0,0h5.4c1.2,0,2.1-0.9,2.1-2.1
		v0V17.1z"/>
	<path class="st82" d="M23.1,18.4l-2.4,1.2c-0.1,0.1-0.4,0-0.4-0.1v-2.5c0-0.1,0.3-0.2,0.4-0.1l2.3,1.3
		C23.1,18.3,23.2,18.4,23.1,18.4z M26.3,17.1c0-1.2-0.9-2.1-2.1-2.1c0,0,0,0,0,0h-5.4c-1.2,0-2.1,0.9-2.1,2.1c0,0,0,0,0,0v2.5
		c0,1.2,0.9,2.1,2.1,2.1c0,0,0,0,0,0h5.4c1.2,0,2.1-0.9,2.1-2.1c0,0,0,0,0-0.1V17.1z"/>
</g>
<path class="st83" d="M26.3,17.1c0-1.2-0.9-2.1-2.1-2.1c0,0,0,0,0,0h-5.5c-1.2,0-2.1,0.9-2.1,2.1v2.4c0,1.2,0.9,2.1,2.1,2.1h5.4
	c1.2,0,2.1-0.9,2.1-2.1c0,0,0,0,0-0.1V17.1z M23.3,18.3l-2.4,1.2c-0.1,0-0.4,0-0.4-0.1v-2.5c0-0.1,0.3-0.2,0.4-0.1l2.3,1.3
	C23.3,18.1,23.3,18.3,23.3,18.3z"/>
</svg>
