<?xml version="1.0" encoding="utf-8"?>
<!-- Generator: Adobe Illustrator 24.1.3, SVG Export Plug-In . SVG Version: 6.00 Build 0)  -->
<svg version="1.1" id="Шар_1" xmlns="http://www.w3.org/2000/svg" xmlns:xlink="http://www.w3.org/1999/xlink" x="0px" y="0px"
	 viewBox="0 0 40 40" style="enable-background:new 0 0 40 40;" xml:space="preserve">
<style type="text/css">
	.st0{fill:url(#SVGID_1_);}
	.st1{opacity:0.5;}
	.st2{fill:url(#SVGID_2_);}
	.st3{opacity:0.7;}
	.st4{fill-rule:evenodd;clip-rule:evenodd;fill:#FFFFFF;fill-opacity:0;}
	.st5{opacity:1.000000e-02;fill-rule:evenodd;clip-rule:evenodd;fill:#FCFCFD;enable-background:new    ;}
	.st6{opacity:3.000000e-02;fill-rule:evenodd;clip-rule:evenodd;fill:#FAFAFB;enable-background:new    ;}
	.st7{opacity:4.000000e-02;fill-rule:evenodd;clip-rule:evenodd;fill:#F7F7F9;enable-background:new    ;}
	.st8{opacity:5.000000e-02;fill-rule:evenodd;clip-rule:evenodd;fill:#F4F4F7;enable-background:new    ;}
	.st9{opacity:6.000000e-02;fill-rule:evenodd;clip-rule:evenodd;fill:#F2F1F5;enable-background:new    ;}
	.st10{opacity:8.000000e-02;fill-rule:evenodd;clip-rule:evenodd;fill:#EFEFF3;enable-background:new    ;}
	.st11{opacity:9.000000e-02;fill-rule:evenodd;clip-rule:evenodd;fill:#ECECF1;enable-background:new    ;}
	.st12{opacity:0.1;fill-rule:evenodd;clip-rule:evenodd;fill:#EAE9EF;enable-background:new    ;}
	.st13{opacity:0.11;fill-rule:evenodd;clip-rule:evenodd;fill:#E7E7ED;enable-background:new    ;}
	.st14{opacity:0.13;fill-rule:evenodd;clip-rule:evenodd;fill:#E4E4EA;enable-background:new    ;}
	.st15{opacity:0.14;fill-rule:evenodd;clip-rule:evenodd;fill:#E2E1E8;enable-background:new    ;}
	.st16{opacity:0.15;fill-rule:evenodd;clip-rule:evenodd;fill:#DFDFE6;enable-background:new    ;}
	.st17{opacity:0.16;fill-rule:evenodd;clip-rule:evenodd;fill:#DDDCE4;enable-background:new    ;}
	.st18{opacity:0.18;fill-rule:evenodd;clip-rule:evenodd;fill:#DAD9E2;enable-background:new    ;}
	.st19{opacity:0.19;fill-rule:evenodd;clip-rule:evenodd;fill:#D7D6E0;enable-background:new    ;}
	.st20{opacity:0.2;fill-rule:evenodd;clip-rule:evenodd;fill:#D5D4DE;enable-background:new    ;}
	.st21{opacity:0.21;fill-rule:evenodd;clip-rule:evenodd;fill:#D2D1DC;enable-background:new    ;}
	.st22{opacity:0.23;fill-rule:evenodd;clip-rule:evenodd;fill:#CFCEDA;enable-background:new    ;}
	.st23{opacity:0.24;fill-rule:evenodd;clip-rule:evenodd;fill:#CDCCD8;enable-background:new    ;}
	.st24{opacity:0.25;fill-rule:evenodd;clip-rule:evenodd;fill:#CAC9D6;enable-background:new    ;}
	.st25{opacity:0.26;fill-rule:evenodd;clip-rule:evenodd;fill:#C7C6D4;enable-background:new    ;}
	.st26{opacity:0.28;fill-rule:evenodd;clip-rule:evenodd;fill:#C5C4D2;enable-background:new    ;}
	.st27{opacity:0.29;fill-rule:evenodd;clip-rule:evenodd;fill:#C2C1D0;enable-background:new    ;}
	.st28{opacity:0.3;fill-rule:evenodd;clip-rule:evenodd;fill:#BFBECE;enable-background:new    ;}
	.st29{opacity:0.31;fill-rule:evenodd;clip-rule:evenodd;fill:#BDBBCC;enable-background:new    ;}
	.st30{opacity:0.33;fill-rule:evenodd;clip-rule:evenodd;fill:#BAB9CA;enable-background:new    ;}
	.st31{opacity:0.34;fill-rule:evenodd;clip-rule:evenodd;fill:#B7B6C8;enable-background:new    ;}
	.st32{opacity:0.35;fill-rule:evenodd;clip-rule:evenodd;fill:#B5B3C6;enable-background:new    ;}
	.st33{opacity:0.36;fill-rule:evenodd;clip-rule:evenodd;fill:#B2B1C4;enable-background:new    ;}
	.st34{opacity:0.38;fill-rule:evenodd;clip-rule:evenodd;fill:#AFAEC1;enable-background:new    ;}
	.st35{opacity:0.39;fill-rule:evenodd;clip-rule:evenodd;fill:#ADABBF;enable-background:new    ;}
	.st36{opacity:0.4;fill-rule:evenodd;clip-rule:evenodd;fill:#AAA9BD;enable-background:new    ;}
	.st37{opacity:0.41;fill-rule:evenodd;clip-rule:evenodd;fill:#A8A6BB;enable-background:new    ;}
	.st38{opacity:0.43;fill-rule:evenodd;clip-rule:evenodd;fill:#A5A3B9;enable-background:new    ;}
	.st39{opacity:0.44;fill-rule:evenodd;clip-rule:evenodd;fill:#A2A0B7;enable-background:new    ;}
	.st40{opacity:0.45;fill-rule:evenodd;clip-rule:evenodd;fill:#A09EB5;enable-background:new    ;}
	.st41{opacity:0.46;fill-rule:evenodd;clip-rule:evenodd;fill:#9D9BB3;enable-background:new    ;}
	.st42{opacity:0.48;fill-rule:evenodd;clip-rule:evenodd;fill:#9A98B1;enable-background:new    ;}
	.st43{opacity:0.49;fill-rule:evenodd;clip-rule:evenodd;fill:#9896AF;enable-background:new    ;}
	.st44{opacity:0.5;fill-rule:evenodd;clip-rule:evenodd;fill:#9593AD;enable-background:new    ;}
	.st45{opacity:0.51;fill-rule:evenodd;clip-rule:evenodd;fill:#9290AB;enable-background:new    ;}
	.st46{opacity:0.52;fill-rule:evenodd;clip-rule:evenodd;fill:#908EA9;enable-background:new    ;}
	.st47{opacity:0.54;fill-rule:evenodd;clip-rule:evenodd;fill:#8D8BA7;enable-background:new    ;}
	.st48{opacity:0.55;fill-rule:evenodd;clip-rule:evenodd;fill:#8A88A5;enable-background:new    ;}
	.st49{opacity:0.56;fill-rule:evenodd;clip-rule:evenodd;fill:#8886A3;enable-background:new    ;}
	.st50{opacity:0.57;fill-rule:evenodd;clip-rule:evenodd;fill:#8583A1;enable-background:new    ;}
	.st51{opacity:0.59;fill-rule:evenodd;clip-rule:evenodd;fill:#82809F;enable-background:new    ;}
	.st52{opacity:0.6;fill-rule:evenodd;clip-rule:evenodd;fill:#807D9D;enable-background:new    ;}
	.st53{opacity:0.61;fill-rule:evenodd;clip-rule:evenodd;fill:#7D7B9B;enable-background:new    ;}
	.st54{opacity:0.62;fill-rule:evenodd;clip-rule:evenodd;fill:#7B7899;enable-background:new    ;}
	.st55{opacity:0.64;fill-rule:evenodd;clip-rule:evenodd;fill:#787596;enable-background:new    ;}
	.st56{opacity:0.65;fill-rule:evenodd;clip-rule:evenodd;fill:#757394;enable-background:new    ;}
	.st57{opacity:0.66;fill-rule:evenodd;clip-rule:evenodd;fill:#737092;enable-background:new    ;}
	.st58{opacity:0.67;fill-rule:evenodd;clip-rule:evenodd;fill:#706D90;enable-background:new    ;}
	.st59{opacity:0.69;fill-rule:evenodd;clip-rule:evenodd;fill:#6D6B8E;enable-background:new    ;}
	.st60{opacity:0.7;fill-rule:evenodd;clip-rule:evenodd;fill:#6B688C;enable-background:new    ;}
	.st61{opacity:0.71;fill-rule:evenodd;clip-rule:evenodd;fill:#68658A;enable-background:new    ;}
	.st62{opacity:0.72;fill-rule:evenodd;clip-rule:evenodd;fill:#656288;enable-background:new    ;}
	.st63{opacity:0.74;fill-rule:evenodd;clip-rule:evenodd;fill:#636086;enable-background:new    ;}
	.st64{opacity:0.75;fill-rule:evenodd;clip-rule:evenodd;fill:#605D84;enable-background:new    ;}
	.st65{opacity:0.76;fill-rule:evenodd;clip-rule:evenodd;fill:#5D5A82;enable-background:new    ;}
	.st66{opacity:0.77;fill-rule:evenodd;clip-rule:evenodd;fill:#5B5880;enable-background:new    ;}
	.st67{opacity:0.79;fill-rule:evenodd;clip-rule:evenodd;fill:#58557E;enable-background:new    ;}
	.st68{opacity:0.8;fill-rule:evenodd;clip-rule:evenodd;fill:#55527C;enable-background:new    ;}
	.st69{opacity:0.81;fill-rule:evenodd;clip-rule:evenodd;fill:#53507A;enable-background:new    ;}
	.st70{opacity:0.82;fill-rule:evenodd;clip-rule:evenodd;fill:#504D78;enable-background:new    ;}
	.st71{opacity:0.84;fill-rule:evenodd;clip-rule:evenodd;fill:#4D4A76;enable-background:new    ;}
	.st72{opacity:0.85;fill-rule:evenodd;clip-rule:evenodd;fill:#4B4774;enable-background:new    ;}
	.st73{opacity:0.86;fill-rule:evenodd;clip-rule:evenodd;fill:#484572;enable-background:new    ;}
	.st74{opacity:0.87;fill-rule:evenodd;clip-rule:evenodd;fill:#464270;enable-background:new    ;}
	.st75{opacity:0.89;fill-rule:evenodd;clip-rule:evenodd;fill:#433F6D;enable-background:new    ;}
	.st76{opacity:0.9;fill-rule:evenodd;clip-rule:evenodd;fill:#403D6B;enable-background:new    ;}
	.st77{opacity:0.91;fill-rule:evenodd;clip-rule:evenodd;fill:#3E3A69;enable-background:new    ;}
	.st78{opacity:0.92;fill-rule:evenodd;clip-rule:evenodd;fill:#3B3767;enable-background:new    ;}
	.st79{opacity:0.94;fill-rule:evenodd;clip-rule:evenodd;fill:#383565;enable-background:new    ;}
	.st80{opacity:0.95;fill-rule:evenodd;clip-rule:evenodd;fill:#363263;enable-background:new    ;}
	.st81{opacity:0.96;fill-rule:evenodd;clip-rule:evenodd;fill:#332F61;enable-background:new    ;}
	.st82{opacity:0.97;fill-rule:evenodd;clip-rule:evenodd;fill:#302C5F;enable-background:new    ;}
	.st83{opacity:0.99;fill-rule:evenodd;clip-rule:evenodd;fill:#2E2A5D;enable-background:new    ;}
	.st84{fill-rule:evenodd;clip-rule:evenodd;fill:#2B275B;}
	.st85{fill-rule:evenodd;clip-rule:evenodd;fill:#FFFFFF;}
</style>
<g>
	<g id="OBJETCS">
		
			<linearGradient id="SVGID_1_" gradientUnits="userSpaceOnUse" x1="11.8764" y1="234.4637" x2="31.3464" y2="253.9337" gradientTransform="matrix(1 0 0 1 0 -224)">
			<stop  offset="0" style="stop-color:#48A5D1"/>
			<stop  offset="0.45" style="stop-color:#285EB8"/>
			<stop  offset="1" style="stop-color:#000398"/>
		</linearGradient>
		<path class="st0" d="M7.4,26.7c-1.5-0.7-2.5-2.2-2.6-3.8c-0.1-1.6,0.3-3.3,1.1-4.7c3.9-8,12.8-12.3,21.5-10.5
			c1.8,0.3,3.4,1,4.8,2.2c2.1,2,3.1,4.8,2.8,7.6s-1.2,5.5-2.6,7.9c-0.9,1.9-2.2,3.7-3.7,5.2c-1.6,1.5-3.7,2.3-5.8,2.2
			c-4.4-0.3-7.4-5.2-11.8-5.7C9.9,26.9,8.5,27.1,7.4,26.7z"/>
		<g class="st1">
			
				<image style="overflow:visible;enable-background:new    ;" width="394" height="379" xlink:href="C0AF1025.png"  transform="matrix(0.24 0 0 0.24 -26.93 -25.58)">
			</image>
		</g>
		
			<linearGradient id="SVGID_2_" gradientUnits="userSpaceOnUse" x1="27.6053" y1="249.6947" x2="13.6153" y2="235.7047" gradientTransform="matrix(1 0 0 1 0 -224)">
			<stop  offset="0" style="stop-color:#48A5D1"/>
			<stop  offset="0.45" style="stop-color:#285EB8"/>
			<stop  offset="1" style="stop-color:#000398"/>
		</linearGradient>
		<path class="st2" d="M10.8,24c-1.1-0.5-1.8-1.6-1.9-2.8c0-1.2,0.2-2.4,0.8-3.4c2.9-5.9,9.4-9,15.8-7.7c1.3,0.2,2.5,0.8,3.5,1.6
			c1.5,1.5,2.3,3.5,2.1,5.6s-0.9,4-1.9,5.8c-0.7,1.4-1.6,2.7-2.7,3.8c-1.1,1.1-2.7,1.7-4.3,1.6c-3.2-0.2-5.5-3.8-8.7-4.2
			C12.5,24.3,11.6,24.2,10.8,24z"/>
		<g class="st3">
			<path class="st4" d="M22.8,21.9v4.8c0,0.1,0.1,0.1,0.1,0.1h1.8c0.1,0,0.1-0.1,0.1-0.1v-4.8H26c0.1,0,0.1-0.1,0.1-0.1l0.1-1.4
				c0-0.1,0-0.1-0.1-0.1l0,0h-1.4v-1c0-0.2,0.2-0.4,0.4-0.4h1c0.1,0,0.1-0.1,0.1-0.1v-1.5c0-0.1-0.1-0.1-0.1-0.1h-1.7
				c-1,0-1.8,0.8-1.8,1.8l0,0v1.4h-0.9c-0.1,0-0.1,0.1-0.1,0.1l0,0V22c0,0.1,0,0.1,0.1,0.1l0,0L22.8,21.9L22.8,21.9z"/>
			<path class="st5" d="M22.8,21.9v4.8c0,0.1,0.1,0.1,0.1,0.1l0,0h1.8c0.1,0,0.1-0.1,0.1-0.1l0,0v-4.8H26c0.1,0,0.1,0,0.1-0.1
				l0.1-1.5c0-0.1,0-0.1-0.1-0.1l0,0h-1.4v-1c0-0.2,0.2-0.4,0.4-0.4h1c0.1,0,0.1-0.1,0.1-0.1l0,0v-1.5c0-0.1-0.1-0.1-0.1-0.1l0,0
				h-1.7c-1,0-1.8,0.8-1.8,1.8v1.4h-0.9c-0.1,0-0.1,0.1-0.1,0.1v1.5c0,0.1,0.1,0.1,0.1,0.1l0,0L22.8,21.9L22.8,21.9z"/>
			<path class="st6" d="M22.6,21.9v4.8c0,0.1,0.1,0.1,0.1,0.1h1.8c0.1,0,0.1-0.1,0.1-0.1v-4.8h1.3c0.1,0,0.1-0.1,0.1-0.1l0.1-1.5
				c0-0.1,0-0.1-0.1-0.1l0,0h-1.4v-1c0-0.2,0.2-0.4,0.4-0.4h1c0.1,0,0.1-0.1,0.1-0.1v-1.5c0-0.1,0-0.1-0.1-0.1l0,0h-1.7
				c-1,0-1.8,0.8-1.8,1.8l0,0v1.4h-0.9c-0.1,0-0.1,0.1-0.1,0.1l0,0v1.5c0,0.1,0,0.1,0.1,0.1l0,0L22.6,21.9L22.6,21.9z"/>
			<path class="st7" d="M22.6,21.8v4.8c0,0.1,0.1,0.1,0.1,0.1l0,0h1.8c0.1,0,0.1-0.1,0.1-0.1l0,0v-4.8h1.3c0.1,0,0.1,0,0.1-0.1
				l0.1-1.5c0-0.1,0-0.1-0.1-0.1l0,0h-1.4v-1c0-0.2,0.2-0.4,0.4-0.4l0,0h1c0.1,0,0.1-0.1,0.1-0.1v-1.5C26.1,17,26,17,26,17h-1.7
				c-1,0-1.8,0.8-1.8,1.8v1.4h-0.9c-0.1,0-0.1,0.1-0.1,0.1v1.5c0,0.1,0.1,0.1,0.1,0.1l0,0L22.6,21.8L22.6,21.8z"/>
			<path class="st8" d="M22.5,21.8v4.8c0,0.1,0.1,0.1,0.1,0.1h1.8c0.1,0,0.1-0.1,0.1-0.1v-4.8h1.3c0.1,0,0.1-0.1,0.1-0.1l0.1-1.5
				c0-0.1,0-0.1-0.1-0.1l0,0h-1.4v-1c0-0.2,0.2-0.4,0.4-0.4h1c0.1,0,0.1,0,0.1-0.1l0,0v-1.5c0-0.1-0.1-0.1-0.1-0.1l0,0h-1.7
				c-1,0-1.8,0.8-1.8,1.8l0,0v1.4h-0.9c-0.1,0-0.1,0.1-0.1,0.1l0,0v1.5c0,0.1,0.1,0.1,0.1,0.1L22.5,21.8L22.5,21.8z"/>
			<path class="st9" d="M22.5,21.7v4.8c0,0.1,0,0.1,0.1,0.1l0,0h1.8c0.1,0,0.1-0.1,0.1-0.1l0,0v-4.8h1.3c0.1,0,0.1,0,0.1-0.1l0,0
				l0.1-1.5c0-0.1,0-0.1-0.1-0.1l0,0h-1.4v-1c0-0.2,0.2-0.4,0.4-0.4l0,0h1c0.1,0,0.1-0.1,0.1-0.1V17c0-0.1-0.1-0.1-0.1-0.1h-1.7
				c-1,0-1.8,0.8-1.8,1.8l0,0v1.4h-0.9c-0.1,0-0.1,0.1-0.1,0.1v1.5c0,0.1,0.1,0.1,0.1,0.1l0,0L22.5,21.7L22.5,21.7z"/>
			<path class="st10" d="M22.5,21.7v4.8c0,0.1,0.1,0.1,0.1,0.1h1.8c0.1,0,0.1-0.1,0.1-0.1v-4.8h1.3c0.1,0,0.1-0.1,0.1-0.1l0.1-1.5
				c0-0.1,0-0.1-0.1-0.1l0,0h-1.4v-1c0-0.2,0.2-0.4,0.4-0.4h1c0.1,0,0.1,0,0.1-0.1l0,0V17c0-0.1-0.1-0.1-0.1-0.1l0,0h-1.7
				c-1,0-1.8,0.8-1.8,1.8l0,0v1.4h-0.9c-0.1,0-0.1,0.1-0.1,0.1l0,0v1.5c0,0.1,0.1,0.1,0.1,0.1L22.5,21.7L22.5,21.7z"/>
			<path class="st11" d="M22.5,21.6v4.8c0,0.1,0,0.1,0.1,0.1l0,0h1.8c0.1,0,0.1-0.1,0.1-0.1l0,0v-4.8h1.3c0.1,0,0.1,0,0.1-0.1
				l0.1-1.5c0-0.1,0-0.1-0.1-0.1l0,0h-1.4v-1c0-0.2,0.2-0.4,0.4-0.4l0,0h1c0.1,0,0.1-0.1,0.1-0.1l0,0v-1.5c0-0.1-0.1-0.1-0.1-0.1
				h-1.6c-1,0-1.8,0.8-1.8,1.8l0,0V20h-0.9c-0.1,0-0.1,0.1-0.1,0.1l0,0v1.5c0,0.1,0.1,0.1,0.1,0.1l0,0L22.5,21.6L22.5,21.6z"/>
			<path class="st12" d="M22.5,21.6v4.8c0,0.1,0.1,0.1,0.1,0.1l0,0h1.8c0.1,0,0.1-0.1,0.1-0.1v-4.9h1.3c0.1,0,0.1,0,0.1-0.1l0.1-1.5
				c0-0.1,0-0.1-0.1-0.1l0,0h-1.4v-1c0-0.2,0.2-0.4,0.4-0.4h1c0.1,0,0.1,0,0.1-0.1l0,0v-1.5c0-0.1-0.1-0.1-0.1-0.1l0,0h-1.7
				c-1,0-1.8,0.8-1.8,1.8l0,0v1.4h-0.9c-0.1,0-0.1,0-0.1,0.1l0,0v1.5c0,0.1,0.1,0.1,0.1,0.1L22.5,21.6L22.5,21.6z"/>
			<path class="st13" d="M22.4,21.5v4.8c0,0.1,0,0.1,0.1,0.1l0,0h1.8c0.1,0,0.1-0.1,0.1-0.1l0,0v-4.8h1.3c0.1,0,0.1,0,0.1-0.1l0,0
				l0.1-1.5c0-0.1,0-0.1-0.1-0.1l0,0h-1.4v-1c0-0.2,0.2-0.4,0.4-0.4l0,0h1c0.1,0,0.1-0.1,0.1-0.1l0,0v-1.5c0-0.1-0.1-0.1-0.1-0.1H24
				c-1,0-1.8,0.8-1.8,1.8l0,0v1.4h-0.9c-0.1,0-0.1,0.1-0.1,0.1l0,0v1.3c0,0.1,0.1,0.1,0.1,0.1l0,0h0.9L22.4,21.5z"/>
			<path class="st14" d="M22.4,21.5v4.8c0,0.1,0.1,0.1,0.1,0.1l0,0h1.8c0.1,0,0.1-0.1,0.1-0.1v-4.9h1.3c0.1,0,0.1-0.1,0.1-0.1
				l0.1-1.5c0-0.1,0-0.1-0.1-0.1l0,0h-1.4v-1c0-0.2,0.2-0.4,0.4-0.4h1c0.1,0,0.1,0,0.1-0.1l0,0v-1.5c0-0.1-0.1-0.1-0.1-0.1l0,0H24
				c-1,0-1.8,0.8-1.8,1.8v1.4h-0.9c-0.1,0-0.1,0.1-0.1,0.1v1.4c0,0.1,0.1,0.1,0.1,0.1L22.4,21.5L22.4,21.5z"/>
			<path class="st15" d="M22.3,21.5v4.8c0,0.1,0,0.1,0.1,0.1l0,0h1.8c0.1,0,0.1-0.1,0.1-0.1l0,0v-4.8h1.3c0.1,0,0.1-0.1,0.1-0.1
				l0.1-1.5c0-0.1,0-0.1-0.1-0.1l0,0h-1.4v-1c0-0.2,0.2-0.4,0.4-0.4h1c0.1,0,0.1-0.1,0.1-0.1l0,0v-1.5c0-0.1-0.1-0.1-0.1-0.1H24
				c-1,0-1.8,0.8-1.8,1.7v0.1v1.4h-0.9c-0.1,0-0.1,0.1-0.1,0.1l0,0v1.3c0,0.1,0,0.1,0.1,0.1l0,0L22.3,21.5L22.3,21.5z"/>
			<path class="st16" d="M22.3,21.4v4.8c0,0.1,0.1,0.1,0.1,0.1l0,0h1.8c0.1,0,0.1-0.1,0.1-0.1v-4.9h1.3c0.1,0,0.1,0,0.1-0.1l0.1-1.5
				c0-0.1,0-0.1-0.1-0.1l0,0h-1.4v-1c0-0.2,0.2-0.4,0.4-0.4h1c0.1,0,0.1,0,0.1-0.1l0,0v-1.5c0-0.1-0.1-0.1-0.1-0.1l0,0H24
				c-1,0-1.8,0.8-1.8,1.8v1.4h-0.9c-0.1,0-0.1,0.1-0.1,0.1v1.5c0.1,0,0.1,0,0.2,0L22.3,21.4L22.3,21.4z"/>
			<path class="st17" d="M22.1,21.4v4.8c0,0.1,0.1,0.1,0.1,0.1H24c0.1,0,0.1-0.1,0.1-0.1v-4.9h1.3c0.1,0,0.1-0.1,0.1-0.1l0.1-1.5
				c0-0.1,0-0.1-0.1-0.1l0,0h-1.3v-1c0-0.2,0.2-0.4,0.4-0.4h1c0.1,0,0.1-0.1,0.1-0.1l0,0v-1.5c0-0.1-0.1-0.1-0.1-0.1H24
				c-1,0-1.8,0.8-1.8,1.8l0,0v1.4h-0.9c-0.1,0-0.1,0.1-0.1,0.1l0,0v1.5c0,0.1,0,0.1,0.1,0.1l0,0L22.1,21.4L22.1,21.4z"/>
			<path class="st18" d="M22.1,21.3v4.8c0,0.1,0.1,0.1,0.1,0.1l0,0H24c0.1,0,0.1-0.1,0.1-0.1l0,0v-4.8h1.3c0.1,0,0.1,0,0.1-0.1
				l0.1-1.5c0-0.1,0-0.1-0.1-0.1l0,0h-1.4v-1c0-0.2,0.2-0.4,0.4-0.4h1c0.1,0,0.1,0,0.1-0.1l0,0v-1.5c0-0.1-0.1-0.1-0.1-0.1l0,0h-1.7
				c-1,0-1.8,0.8-1.8,1.8l0,0v1.4h-0.8c-0.1,0-0.1,0.1-0.1,0.1v1.5c0,0.1,0.1,0.1,0.1,0.1l0,0L22.1,21.3L22.1,21.3z"/>
			<path class="st19" d="M22.1,21.3v4.8c0,0.1,0.1,0.1,0.1,0.1H24c0.1,0,0.1-0.1,0.1-0.1v-4.9h1.3c0.1,0,0.1-0.1,0.1-0.1l0.1-1.5
				c0-0.1,0-0.1-0.1-0.1l0,0h-1.4v-1c0-0.2,0.2-0.4,0.4-0.4l0,0h1c0.1,0,0.1-0.1,0.1-0.1v-1.5c0-0.1-0.1-0.1-0.1-0.1l0,0h-1.7
				c-1,0-1.8,0.8-1.8,1.8l0,0v1.4h-0.8c-0.1,0-0.1,0.1-0.1,0.1l0,0v1.5c0,0.1,0,0.1,0.1,0.1l0,0L22.1,21.3L22.1,21.3z"/>
			<path class="st20" d="M22,21.2V26c0,0.1,0.1,0.1,0.1,0.1l0,0h1.8C24,26.1,24,26,24,26l0,0v-4.9h1.3c0.1,0,0.1,0,0.1-0.1l0.1-1.5
				c0-0.1,0-0.1-0.1-0.1l0,0H24v-1c0-0.2,0.2-0.4,0.4-0.4h1c0.1,0,0.1-0.1,0.1-0.1l0,0v-1.5c0-0.1-0.1-0.1-0.1-0.1l0,0h-1.7
				c-1,0-1.8,0.8-1.8,1.8v1.4H21c-0.1,0-0.1,0.1-0.1,0.1v1.5c0,0.1,0.1,0.1,0.1,0.1l0,0H22L22,21.2z"/>
			<path class="st21" d="M22,21.2V26c0,0.1,0.1,0.1,0.1,0.1h1.8C24,26.1,24,26,24,26v-4.9h1.3c0.1,0,0.1-0.1,0.1-0.1l0.1-1.5
				c0-0.1,0-0.1-0.1-0.1l0,0H24v-1c0-0.2,0.2-0.4,0.4-0.4l0,0h1c0.1,0,0.1-0.1,0.1-0.1v-1.6c0-0.1,0-0.1-0.1-0.1l0,0h-1.7
				c-1,0-1.8,0.8-1.8,1.8l0,0v1.4H21c-0.1,0-0.1,0.1-0.1,0.1l0,0V21c0,0.1,0,0.1,0.1,0.1l0,0L22,21.2L22,21.2z"/>
			<path class="st22" d="M22,21.1v4.8c0,0.1,0.1,0.1,0.1,0.1l0,0h1.8c0.1,0,0.1-0.1,0.1-0.1l0,0V21h1.3c0.1,0,0.1,0,0.1-0.1l0.1-1.5
				c0-0.1,0-0.1-0.1-0.1l0,0h-1.4v-1c0-0.2,0.2-0.4,0.4-0.4l0,0h1c0.1,0,0.1-0.1,0.1-0.1v-1.5c0-0.1-0.1-0.1-0.1-0.1h-1.7
				c-1,0-1.8,0.8-1.8,1.8v1.4h-0.9c-0.1,0-0.1,0.1-0.1,0.1V21c0,0.1,0.1,0.1,0.1,0.1l0,0H22L22,21.1z"/>
			<path class="st23" d="M22,21.1v4.8c0,0.1,0.1,0.1,0.1,0.1h1.8c0.1,0,0.1-0.1,0.1-0.1V21h1.3c0.1,0,0.1-0.1,0.1-0.1l0.1-1.5
				c0-0.1,0-0.1-0.1-0.1l0,0h-1.4v-1c0-0.2,0.2-0.4,0.4-0.4l0,0h1c0.1,0,0.1-0.1,0.1-0.1v-1.5c0-0.1,0-0.1-0.1-0.1l0,0h-1.7
				c-1,0-1.8,0.8-1.8,1.8l0,0v1.3h-0.9c-0.1,0-0.1,0.1-0.1,0.1l0,0v1.5c0,0.1,0.1,0.1,0.1,0.1L22,21.1L22,21.1z"/>
			<path class="st24" d="M21.9,21.1v4.8c0,0.1,0,0.1,0.1,0.1l0,0h1.8c0.1,0,0.1-0.1,0.1-0.1l0,0V21h1.3c0.1,0,0.1,0,0.1-0.1l0,0
				l0.1-1.5c0-0.1,0-0.1-0.1-0.1l0,0h-1.4v-1c0-0.2,0.2-0.4,0.4-0.4l0,0h1c0.1,0,0.1-0.1,0.1-0.1v-1.5c0-0.1-0.1-0.1-0.1-0.1h-1.7
				c-1,0-1.8,0.8-1.8,1.8l0,0v1.3h-0.9c-0.1,0-0.1,0.1-0.1,0.1v1.5c0,0.1,0.1,0.1,0.1,0.1l0,0L21.9,21.1L21.9,21.1z"/>
			<path class="st25" d="M21.9,21v4.8c0,0.1,0.1,0.1,0.1,0.1h1.8c0.1,0,0.1-0.1,0.1-0.1v-4.9h1.3c0.1,0,0.1-0.1,0.1-0.1l0.1-1.5
				c0-0.1,0-0.1-0.1-0.1l0,0h-1.4v-1c0-0.2,0.2-0.4,0.4-0.4l0,0h1c0.1,0,0.1,0,0.1-0.1l0,0v-1.5c0-0.1-0.1-0.1-0.1-0.1l0,0h-1.7
				c-1,0-1.8,0.8-1.8,1.8l0,0v1.4h-0.9c-0.1,0-0.1,0.1-0.1,0.1l0,0v1.5c0,0.1,0.1,0.1,0.1,0.1L21.9,21L21.9,21z"/>
			<path class="st26" d="M21.8,21v4.8c0,0.1,0,0.1,0.1,0.1l0,0h1.8c0.1,0,0.1-0.1,0.1-0.1l0,0v-4.9H25c0.1,0,0.1,0,0.1-0.1l0.1-1.5
				c0-0.1,0-0.1-0.1-0.1l0,0h-1.4v-1c0-0.2,0.2-0.4,0.4-0.5l0,0h1c0.1,0,0.1-0.1,0.1-0.1l0,0v-1.5c0-0.1-0.1-0.1-0.1-0.1h-1.7
				c-1,0-1.8,0.8-1.8,1.8l0,0v1.4h-0.9c-0.1,0-0.1,0.1-0.1,0.1l0,0v1.5c0,0.1,0.1,0.1,0.1,0.1l0,0L21.8,21L21.8,21z"/>
			<path class="st27" d="M21.8,20.9v4.8c0,0.1,0.1,0.1,0.1,0.1l0,0h1.8c0.1,0,0.1-0.1,0.1-0.1v-4.8H25c0.1,0,0.1,0,0.1-0.1l0.1-1.5
				c0-0.1,0-0.1-0.1-0.1l0,0h-1.4v-1c0-0.2,0.2-0.4,0.4-0.4l0,0h1c0.1,0,0.1,0,0.1-0.1l0,0v-1.5c0-0.1-0.1-0.1-0.1-0.1l0,0h-1.7
				c-1,0-1.8,0.8-1.8,1.8l0,0v1.4h-0.9c-0.1,0-0.1,0-0.1,0.1l0,0v1.5c0,0.1,0.1,0.1,0.1,0.1L21.8,20.9L21.8,20.9z"/>
			<path class="st28" d="M21.8,20.9v4.8c0,0.1,0,0.1,0.1,0.1l0,0h1.8c0.1,0,0.1-0.1,0.1-0.1l0,0v-4.9H25c0.1,0,0.1,0,0.1-0.1
				l0.1-1.5c0-0.1,0-0.1-0.1-0.1l0,0h-1.4v-1c0-0.2,0.2-0.4,0.4-0.4l0,0h1c0.1,0,0.1-0.1,0.1-0.1l0,0v-1.5c0-0.1-0.1-0.1-0.1-0.1
				h-1.7c-1,0-1.8,0.8-1.8,1.8l0,0v1.4h-0.9c-0.1,0-0.1,0.1-0.1,0.1l0,0v1.5c0,0.1,0.1,0.1,0.1,0.1l0,0H21.8L21.8,20.9z"/>
			<path class="st29" d="M21.6,20.8v4.8c0,0.1,0.1,0.1,0.1,0.1l0,0h1.8c0.1,0,0.1-0.1,0.1-0.1v-4.8H25c0.1,0,0.1,0,0.1-0.1l0.2-1.5
				c0-0.1,0-0.1-0.1-0.1l0,0h-1.5v-1c0-0.2,0.2-0.4,0.4-0.4l0,0h1c0.1,0,0.1,0,0.1-0.1l0,0v-1.5c0-0.1-0.1-0.1-0.1-0.1l0,0h-1.7
				c-1,0-1.8,0.8-1.8,1.8l0,0v1.4h-0.9c-0.1,0-0.1,0.1-0.1,0.1v1.5c0,0.1,0.1,0.1,0.1,0.1L21.6,20.8L21.6,20.8z"/>
			<path class="st30" d="M21.6,20.8v4.8c0,0.1,0,0.1,0.1,0.1l0,0h1.8c0.1,0,0.1-0.1,0.1-0.1l0,0v-4.8H25c0.1,0,0.1-0.1,0.1-0.1
				l0.1-1.5c0-0.1,0-0.1-0.1-0.1l0,0h-1.4v-1c0-0.2,0.2-0.4,0.4-0.4l0,0h1c0.1,0,0.1-0.1,0.1-0.1l0,0v-1.5C25.1,16,25,16,25,16h-1.7
				c-1,0-1.8,0.8-1.8,1.8l0,0v1.4h-0.9c-0.1,0-0.1,0.1-0.1,0.1l0,0v1.5c0,0.1,0,0.1,0.1,0.1l0,0L21.6,20.8L21.6,20.8z"/>
			<path class="st31" d="M21.5,20.7v4.8c0,0.1,0.1,0.1,0.1,0.1l0,0h1.8c0.1,0,0.1-0.1,0.1-0.1v-4.8h1.3c0.1,0,0.1,0,0.1-0.1l0.1-1.5
				c0-0.1,0-0.1-0.1-0.1l0,0h-1.4v-1c0-0.2,0.2-0.4,0.4-0.4l0,0h1c0.1,0,0.1,0,0.1-0.1l0,0V16c0-0.1-0.1-0.1-0.1-0.1l0,0h-1.7
				c-1,0-1.8,0.8-1.8,1.8l0,0v1.4h-0.9c-0.1,0-0.1,0.1-0.1,0.1v1.5c0,0.1,0.1,0.1,0.1,0.1L21.5,20.7L21.5,20.7z"/>
			<path class="st32" d="M21.5,20.7v4.8c0,0.1,0.1,0.1,0.1,0.1h1.8c0.1,0,0.1-0.1,0.1-0.1v-4.8h1.3c0.1,0,0.1-0.1,0.1-0.1l0.1-1.5
				c0-0.1,0-0.1-0.1-0.1l0,0h-1.4v-1c0-0.2,0.2-0.4,0.4-0.4l0,0h1c0.1,0,0.1-0.1,0.1-0.1l0,0V16c0-0.1-0.1-0.1-0.1-0.1h-1.7
				c-1,0-1.8,0.8-1.8,1.8l0,0v1.4h-0.9c-0.1,0-0.1,0.1-0.1,0.1l0,0v1.5c0,0.1,0,0.1,0.1,0.1l0,0L21.5,20.7L21.5,20.7z"/>
			<path class="st33" d="M21.5,20.7v4.8c0,0.1,0.1,0.1,0.1,0.1l0,0h1.8c0.1,0,0.1-0.1,0.1-0.1l0,0v-4.8h1.3c0.1,0,0.1,0,0.1-0.1
				l0.1-1.5c0-0.1,0-0.1-0.1-0.1l0,0h-1.4v-1c0-0.2,0.2-0.4,0.4-0.4l0,0h1c0.1,0,0.1-0.1,0.1-0.1V16c0-0.1-0.1-0.1-0.1-0.1l0,0h-1.6
				c-1,0-1.8,0.8-1.8,1.8l0,0v1.4h-0.9c-0.1,0-0.1,0.1-0.1,0.1v1.5c0,0.1,0.1,0.1,0.1,0.1l0,0L21.5,20.7L21.5,20.7z"/>
			<path class="st34" d="M21.5,20.6v4.8c0,0.1,0.1,0.1,0.1,0.1h1.8c0.1,0,0.1-0.1,0.1-0.1v-4.8h1.3c0.1,0,0.1-0.1,0.1-0.1l0.1-1.5
				c0-0.1,0-0.1-0.1-0.1l0,0h-1.4v-1c0-0.2,0.2-0.4,0.4-0.4l0,0h1c0.1,0,0.1-0.1,0.1-0.1v-1.5c0-0.1-0.1-0.1-0.1-0.1h-1.6
				c-1,0-1.8,0.8-1.8,1.8l0,0V19h-0.9c-0.1,0-0.1,0.1-0.1,0.1l0,0v1.5c0,0.1,0,0.1,0.1,0.1l0,0L21.5,20.6L21.5,20.6z"/>
			<path class="st35" d="M21.4,20.6v4.7c0,0.1,0.1,0.1,0.1,0.1l0,0h1.8c0.1,0,0.1-0.1,0.1-0.1l0,0v-4.8h1.3c0.1,0,0.1,0,0.1-0.1
				l0.1-1.5c0-0.1,0-0.1-0.1-0.1l0,0h-1.4v-1c0-0.2,0.2-0.4,0.4-0.4l0,0h1c0.1,0,0.1-0.1,0.1-0.1l0,0v-1.5c0-0.1-0.1-0.1-0.1-0.1
				l0,0H23c-1,0-1.8,0.8-1.8,1.8v1.4h-0.9c-0.1,0-0.1,0.1-0.1,0.1v1.5c0,0.1,0.1,0.1,0.1,0.1l0,0H21.4L21.4,20.6z"/>
			<path class="st36" d="M21.4,20.5v4.8c0,0.1,0.1,0.1,0.1,0.1h1.8c0.1,0,0.1-0.1,0.1-0.1v-4.9h1.3c0.1,0,0.1-0.1,0.1-0.1l0.1-1.5
				c0-0.1,0-0.1-0.1-0.1l0,0h-1.4v-1c0-0.2,0.2-0.4,0.4-0.4l0,0h1c0.1,0,0.1-0.1,0.1-0.1v-1.5c0-0.1,0-0.1-0.1-0.1l0,0H23
				c-1,0-1.8,0.8-1.8,1.8v1.4h-0.9c-0.1,0-0.1,0.1-0.1,0.1l0,0v1.4c0,0.1,0,0.1,0.1,0.1l0,0L21.4,20.5L21.4,20.5z"/>
			<path class="st37" d="M21.3,20.5v4.8c0,0.1,0.1,0.1,0.1,0.1l0,0h1.8c0.1,0,0.1-0.1,0.1-0.1l0,0v-4.8h1.3c0.1,0,0.1,0,0.1-0.1
				l0.1-1.5c0-0.1,0-0.1-0.1-0.1l0,0h-1.4v-1c0-0.2,0.2-0.4,0.4-0.4l0,0h1c0.1,0,0.1-0.1,0.1-0.1v-1.5c0-0.1-0.1-0.1-0.1-0.1h-1.6
				c-1,0-1.8,0.8-1.8,1.7c0,0,0,0,0,0.1v1.4h-0.9c-0.1,0-0.1,0.1-0.1,0.1v1.3c0,0.1,0.1,0.1,0.1,0.1l0,0L21.3,20.5L21.3,20.5z"/>
			<path class="st38" d="M21.3,20.4v4.8c0,0.1,0.1,0.1,0.1,0.1h1.8c0.1,0,0.1,0,0.1-0.1v-4.9h1.3c0.1,0,0.1-0.1,0.1-0.1l0.1-1.5
				c0-0.1,0-0.1-0.1-0.1l0,0h-1.4v-1c0-0.2,0.2-0.4,0.4-0.4l0,0h1c0.1,0,0.1-0.1,0.1-0.1v-1.5c0-0.1,0-0.1-0.1-0.1l0,0H23
				c-1,0-1.8,0.8-1.8,1.8v1.4h-0.9c-0.1,0-0.1,0.1-0.1,0.1l0,0v1.5c0,0.1,0.1,0.1,0.1,0.1H21.3L21.3,20.4z"/>
			<path class="st39" d="M21.3,20.4v4.8c0,0.1,0,0.1,0.1,0.1l0,0h1.8c0.1,0,0.1-0.1,0.1-0.1l0,0v-4.9h1.3c0.1,0,0.1,0,0.1-0.1l0,0
				l0.1-1.5c0-0.1,0-0.1-0.1-0.1l0,0h-1.4v-1c0-0.2,0.2-0.4,0.4-0.4l0,0h1c0.1,0,0.1-0.1,0.1-0.1v-1.5c0-0.1-0.1-0.1-0.1-0.1H23
				c-1,0-1.7,0.8-1.7,1.8v1.4h-0.9c-0.1,0-0.1,0.1-0.1,0.1v1.5c0,0.1,0.1,0.1,0.1,0.1l0,0L21.3,20.4L21.3,20.4z"/>
			<path class="st40" d="M21.1,20.3v4.8c0,0.1,0.1,0.1,0.1,0.1H23c0.1,0,0.1-0.1,0.1-0.1v-4.8h1.3c0.1,0,0.1-0.1,0.1-0.1l0.1-1.5
				c0-0.1,0-0.1-0.1-0.1l0,0h-1.4v-1c0-0.2,0.2-0.4,0.4-0.4l0,0h1c0.1,0,0.1,0,0.1-0.1l0,0v-1.5c0-0.1-0.1-0.1-0.1-0.1l0,0h-1.7
				c-1,0-1.8,0.8-1.8,1.8l0,0v1.4h-0.8c-0.1,0-0.1,0.1-0.1,0.1l0,0v1.5c0,0.1,0,0.1,0.1,0.2l0,0h0.9V20.3z"/>
			<path class="st41" d="M21.1,20.3v4.8c0,0.1,0,0.1,0.1,0.1l0,0H23c0.1,0,0.1-0.1,0.1-0.1l0,0v-4.9h1.3c0.1,0,0.1,0,0.1-0.1
				l0.1-1.5c0-0.1,0-0.1-0.1-0.1l0,0h-1.4v-1c0-0.2,0.2-0.4,0.4-0.4l0,0h1c0.1,0,0.1-0.1,0.1-0.1l0,0v-1.5c0-0.1-0.1-0.1-0.1-0.1
				h-1.7c-1,0-1.8,0.8-1.8,1.8l0,0v1.4h-0.8c-0.1,0-0.1,0.1-0.1,0.1l0,0v1.5c0,0.1,0.1,0.1,0.1,0.1l0,0L21.1,20.3L21.1,20.3z"/>
			<path class="st42" d="M21,20.3v4.8c0,0.1,0.1,0.1,0.1,0.1l0,0h1.8c0.1,0,0.1-0.1,0.1-0.1v-4.9h1.3c0.1,0,0.1,0,0.1-0.1l0.1-1.5
				c0-0.1,0-0.1-0.1-0.1l0,0H23v-1c0-0.2,0.2-0.4,0.4-0.4l0,0h1c0.1,0,0.1,0,0.1-0.1l0,0v-1.5c0-0.1-0.1-0.1-0.1-0.1l0,0h-1.7
				c-1,0-1.8,0.8-1.8,1.8l0,0v1.4H20c-0.1,0-0.1,0-0.1,0.1l0,0v1.5c0,0.1,0.1,0.1,0.1,0.1h0.9v0H21z"/>
			<path class="st43" d="M21,20.2V25c0,0.1,0,0.1,0.1,0.1l0,0h1.8C23,25.1,23,25,23,25l0,0v-4.8h1.3c0.1,0,0.1,0,0.1-0.1l0.1-1.5
				c0-0.1,0-0.1-0.1-0.1l0,0H23v-1c0-0.2,0.2-0.4,0.4-0.4l0,0h1c0.1,0,0.1-0.1,0.1-0.1l0,0v-1.5c0-0.1-0.1-0.1-0.1-0.1h-1.7
				c-1,0-1.8,0.8-1.8,1.8l0,0v1.4H20c-0.1,0-0.1,0.1-0.1,0.1l0,0v1.5c0,0.1,0.1,0.1,0.1,0.1l0,0L21,20.2L21,20.2z"/>
			<path class="st44" d="M21,20.2V25c0,0.1,0.1,0.1,0.1,0.1l0,0h1.8C23,25.1,23,25,23,25v-4.9h1.3c0.1,0,0.1,0,0.1-0.1l0.1-1.5
				c0-0.1,0-0.1-0.1-0.1l0,0h-1.4v-1.1c0-0.2,0.2-0.4,0.4-0.4l0,0h1c0.1,0,0.1,0,0.1-0.1l0,0v-1.5c0-0.1-0.1-0.1-0.1-0.1l0,0h-1.7
				c-1,0-1.8,0.8-1.8,1.8l0,0v1.4h-0.9c-0.1,0-0.1,0.1-0.1,0.1V20c0,0.1,0.1,0.1,0.1,0.1L21,20.2L21,20.2z"/>
			<path class="st45" d="M21,20.1v4.8c0,0.1,0,0.1,0.1,0.1l0,0h1.8c0.1,0,0.1-0.1,0.1-0.1l0,0v-4.8h1.3c0.1,0,0.1,0,0.1-0.1l0,0
				l0.1-1.5c0-0.1,0-0.1-0.1-0.1l0,0h-1.4v-1c0-0.2,0.2-0.4,0.4-0.4l0,0h1c0.1,0,0.1-0.1,0.1-0.1l0,0v-1.6c0-0.1-0.1-0.1-0.1-0.1
				h-1.7c-1,0-1.8,0.8-1.8,1.8l0,0v1.3h-0.9c-0.1,0-0.1,0.1-0.1,0.1l0,0v1.5c0,0.1,0.1,0.1,0.1,0.1l0,0h0.9L21,20.1z"/>
			<path class="st46" d="M20.9,20.1v4.8C20.9,25,21,25,21,25l0,0h1.8c0.1,0,0.1-0.1,0.1-0.1V20h1.4c0.1,0,0.1,0,0.1-0.1l0.1-1.5
				c0-0.1,0-0.1-0.1-0.1l0,0h-1.5v-1c0-0.2,0.2-0.4,0.4-0.4l0,0h1c0.1,0,0.1,0,0.1-0.1l0,0v-1.5c0-0.1-0.1-0.1-0.1-0.1l0,0h-1.7
				c-1,0-1.8,0.8-1.8,1.8l0,0v1.3h-0.9c-0.1,0-0.1,0.1-0.1,0.1v1.5c0,0.1,0.1,0.1,0.1,0.1L20.9,20.1L20.9,20.1z"/>
			<path class="st47" d="M20.9,20v4.8c0,0.1,0.1,0.1,0.1,0.1h1.8c0.1,0,0.1-0.1,0.1-0.1v-4.9h1.3c0.1,0,0.1-0.1,0.1-0.1l0.1-1.5
				c0-0.1,0-0.1-0.1-0.1l0,0h-1.4v-1c0-0.2,0.2-0.4,0.4-0.4l0,0h1c0.1,0,0.1-0.1,0.1-0.1l0,0v-1.5c0-0.1-0.1-0.1-0.1-0.1h-1.7
				c-1,0-1.8,0.8-1.8,1.8l0,0v1.4h-0.9c-0.1,0-0.1,0.1-0.1,0.1l0,0v1.5c0,0.1,0,0.1,0.1,0.1l0,0L20.9,20L20.9,20z"/>
			<path class="st48" d="M20.8,20v4.8c0,0.1,0.1,0.1,0.1,0.1l0,0h1.8c0.1,0,0.1-0.1,0.1-0.1l0,0v-4.9H24c0.1,0,0.1,0,0.1-0.1
				l0.1-1.5c0-0.1,0-0.1-0.1-0.1l0,0h-1.4v-1c0-0.2,0.2-0.4,0.4-0.4l0,0h1c0.1,0,0.1,0,0.1-0.1l0,0v-1.5c0-0.1-0.1-0.1-0.1-0.1l0,0
				h-1.7c-1,0-1.8,0.8-1.8,1.8l0,0v1.4h-0.9c-0.1,0-0.1,0.1-0.1,0.1v1.5c0,0.1,0.1,0.1,0.1,0.1l0,0L20.8,20L20.8,20z"/>
			<path class="st49" d="M20.8,19.9v4.8c0,0.1,0.1,0.1,0.1,0.1h1.8c0.1,0,0.1-0.1,0.1-0.1v-4.9H24c0.1,0,0.1-0.1,0.1-0.1l0.1-1.4
				c0-0.1,0-0.1-0.1-0.1l0,0h-1.4v-1c0-0.2,0.2-0.4,0.4-0.4l0,0h1c0.1,0,0.1-0.1,0.1-0.1v-1.5c0-0.1-0.1-0.1-0.1-0.1l0,0h-1.7
				c-1,0-1.8,0.8-1.8,1.8l0,0v1.4h-0.9c-0.1,0-0.1,0.1-0.1,0.1l0,0v1.5c0,0.1,0,0.1,0.1,0.1l0,0L20.8,19.9L20.8,19.9z"/>
			<path class="st50" d="M20.8,19.9v4.8c0,0.1,0.1,0.1,0.1,0.1l0,0h1.8c0.1,0,0.1-0.1,0.1-0.1l0,0v-4.9H24c0.1,0,0.1,0,0.1-0.1
				l0.1-1.5c0-0.1,0-0.1-0.1-0.1l0,0h-1.4v-1c0-0.2,0.2-0.4,0.4-0.4l0,0h1c0.1,0,0.1-0.1,0.1-0.2V15c0-0.1-0.1-0.1-0.1-0.1l0,0h-1.6
				c-1,0-1.8,0.8-1.8,1.8v1.4h-0.9c-0.1,0-0.1,0.1-0.1,0.1v1.5c0,0.1,0.1,0.1,0.1,0.1l0,0L20.8,19.9L20.8,19.9z"/>
			<path class="st51" d="M20.6,19.8v4.8c0,0.1,0.1,0.1,0.1,0.1h1.8c0.1,0,0.1-0.1,0.1-0.1v-4.9h1.3c0.1,0,0.1-0.1,0.1-0.1l0.1-1.5
				c0-0.1,0-0.1-0.1-0.1l0,0h-1.4v-1c0-0.2,0.2-0.4,0.4-0.4l0,0h1c0.1,0,0.1-0.1,0.1-0.1V15c0-0.1-0.1-0.1-0.1-0.1l0,0h-1.7
				c-1,0-1.8,0.8-1.8,1.8l0,0v1.4h-0.9c-0.1,0-0.1,0.1-0.1,0.1l0,0v1.5c0,0.1,0,0.1,0.1,0.1l0,0L20.6,19.8L20.6,19.8z"/>
			<path class="st52" d="M20.6,19.8v4.8c0,0.1,0.1,0.1,0.1,0.1l0,0h1.8c0.1,0,0.1-0.1,0.1-0.1l0,0v-4.9h1.3c0.1,0,0.1,0,0.1-0.1
				l0.1-1.5c0-0.1,0-0.1-0.1-0.1l0,0h-1.4v-1c0-0.2,0.2-0.4,0.4-0.4l0,0h1c0.1,0,0.1-0.1,0.1-0.1V15c0-0.1-0.1-0.1-0.1-0.1l0,0h-1.7
				c-1,0-1.8,0.8-1.8,1.8v1.4h-0.9c-0.1,0-0.1,0.1-0.1,0.1v1.5c0,0.1,0.1,0.1,0.1,0.1l0,0L20.6,19.8L20.6,19.8z"/>
			<path class="st53" d="M20.5,19.8v4.8c0,0.1,0.1,0.1,0.1,0.1h1.8c0.1,0,0.1-0.1,0.1-0.1v-4.9h1.3c0.1,0,0.1-0.1,0.1-0.1l0.1-1.5
				c0-0.1,0-0.1-0.1-0.1l0,0h-1.4v-1c0-0.2,0.2-0.4,0.4-0.4l0,0h1c0.1,0,0.1-0.1,0.1-0.1l0,0V15c0-0.1,0-0.1-0.1-0.1l0,0h-1.7
				c-1,0-1.8,0.8-1.8,1.8l0,0v1.4h-0.9c-0.1,0-0.1,0.1-0.1,0.1l0,0v1.5c0,0.1,0.1,0.1,0.1,0.1L20.5,19.8L20.5,19.8z"/>
			<path class="st54" d="M20.5,19.7v4.8c0,0.1,0,0.1,0.1,0.1l0,0h1.8c0.1,0,0.1-0.1,0.1-0.1l0,0v-4.9h1.3c0.1,0,0.1,0,0.1-0.1l0,0
				L24,18c0-0.1,0-0.1-0.1-0.1l0,0h-1.4v-1c0-0.2,0.2-0.4,0.4-0.4l0,0h1c0.1,0,0.1-0.1,0.1-0.1v-1.5c0-0.1-0.1-0.1-0.1-0.1l0,0h-1.7
				c-1,0-1.8,0.8-1.8,1.8l0,0V18h-0.9c-0.1,0-0.1,0.1-0.1,0.1v1.5c0,0.1,0.1,0.1,0.1,0.1l0,0H20.5L20.5,19.7z"/>
			<path class="st55" d="M20.5,19.7v4.8c0,0.1,0.1,0.1,0.1,0.1h1.8c0.1,0,0.1-0.1,0.1-0.1v-4.8h1.3c0.1,0,0.1-0.1,0.1-0.1l0.1-1.5
				c0-0.1,0-0.1-0.1-0.1l0,0h-1.4v-1c0-0.2,0.2-0.4,0.4-0.4l0,0h1c0.1,0,0.1,0,0.1-0.1l0,0V15c0-0.1-0.1-0.1-0.1-0.1h-1.6
				c-1,0-1.8,0.8-1.8,1.8l0,0v1.4h-0.9c-0.1,0-0.1,0.1-0.1,0.1l0,0v1.5c0,0.1,0.1,0.1,0.1,0.1L20.5,19.7L20.5,19.7z"/>
			<path class="st56" d="M20.5,19.6v4.8c0,0.1,0,0.1,0.1,0.1l0,0h1.8c0.1,0,0.1-0.1,0.1-0.1l0,0v-4.9h1.3c0.1,0,0.1,0,0.1-0.1
				l0.1-1.5c0-0.1,0-0.1-0.1-0.1l0,0h-1.4v-1c0-0.2,0.2-0.4,0.4-0.4l0,0h1c0.1,0,0.1-0.1,0.1-0.1l0,0v-1.5c0-0.1-0.1-0.1-0.1-0.1
				l0,0h-1.6c-1,0-1.8,0.8-1.8,1.8l0,0v1.4h-0.9c-0.1,0-0.1,0.1-0.1,0.1l0,0v1.5c0,0.1,0.1,0.1,0.1,0.1l0,0L20.5,19.6L20.5,19.6z"/>
			<path class="st57" d="M20.4,19.6v4.8c0,0.1,0.1,0.1,0.1,0.1l0,0h1.8c0.1,0,0.1-0.1,0.1-0.1v-4.8h1.3c0.1,0,0.1,0,0.1-0.1l0.1-1.5
				c0-0.1,0-0.1-0.1-0.1l0,0h-1.4v-1c0-0.2,0.2-0.4,0.4-0.4l0,0h1c0.1,0,0.1,0,0.1-0.1l0,0v-1.5c0-0.1-0.1-0.1-0.1-0.1H22
				c-1,0-1.8,0.8-1.8,1.8l0,0V18h-0.9c-0.1,0-0.1,0-0.1,0.1l0,0v1.5c0,0.1,0.1,0.1,0.1,0.1L20.4,19.6L20.4,19.6z"/>
			<path class="st58" d="M20.4,19.5v4.8c0,0.1,0,0.1,0.1,0.1l0,0h1.8c0.1,0,0.1-0.1,0.1-0.1l0,0v-4.9h1.3c0.1,0,0.1,0,0.1-0.1
				l0.1-1.5c0-0.1,0-0.1-0.1-0.1l0,0h-1.4v-1c0-0.2,0.2-0.4,0.4-0.4l0,0h1c0.1,0,0.1-0.1,0.1-0.1l0,0v-1.5c0-0.1-0.1-0.1-0.1-0.1
				l0,0H22c-1,0-1.8,0.8-1.8,1.7v1.4h-0.9c-0.1,0-0.1,0.1-0.1,0.1l0,0v1.5c0,0.1,0.1,0.1,0.1,0.1l0,0h0.9v0.1H20.4z"/>
			<path class="st59" d="M20.4,19.5v4.8c0,0.1,0.1,0.1,0.1,0.1l0,0h1.8c0.1,0,0.1-0.1,0.1-0.1l0,0v-4.9h1.3c0.1,0,0.1,0,0.1-0.1
				l0.1-1.5c0-0.1,0-0.1-0.1-0.1l0,0h-1.5v-1c0-0.2,0.2-0.4,0.4-0.4l0,0h1c0.1,0,0.1,0,0.1-0.1l0,0v-1.5c0-0.1-0.1-0.1-0.1-0.1h-1.7
				c-1,0-1.8,0.8-1.8,1.8l0,0v1.4h-0.9c-0.1,0-0.1,0.1-0.1,0.1v1.4c0,0.1,0.1,0.1,0.1,0.1L20.4,19.5L20.4,19.5z"/>
			<path class="st60" d="M20.3,19.4v4.8c0,0.1,0,0.1,0.1,0.1l0,0h1.8c0.1,0,0.1,0,0.1-0.1v-4.9h1.3c0.1,0,0.1,0,0.1-0.1l0,0l0.1-1.5
				c0-0.1,0-0.1-0.1-0.1l0,0h-1.4v-1c0-0.2,0.2-0.4,0.4-0.4l0,0h1c0.1,0,0.1-0.1,0.1-0.1l0,0v-1.5c0-0.1-0.1-0.1-0.1-0.1l0,0H22
				c-1,0-1.8,0.8-1.8,1.7v0.1v1.4h-0.9c-0.1,0-0.1,0.1-0.1,0.1l0,0v1.5c0,0.1,0.1,0.1,0.1,0.1l0,0H20.3L20.3,19.4z"/>
			<path class="st61" d="M20.3,19.4v4.8c0,0.1,0.1,0.1,0.1,0.1l0,0h1.8c0.1,0,0.1-0.1,0.1-0.1l0,0v-4.9h1.3c0.1,0,0.1,0,0.1-0.1
				l0.1-1.5c0-0.1,0-0.1-0.1-0.1l0,0h-1.4v-1c0-0.2,0.2-0.4,0.4-0.4l0,0h1c0.1,0,0.1,0,0.1-0.1l0,0v-1.5c0-0.1-0.1-0.1-0.1-0.1h-1.7
				c-1,0-1.8,0.8-1.8,1.8v1.4h-0.9c-0.1,0-0.1,0.1-0.1,0.1v1.5c0,0.1,0.1,0.1,0.1,0.1L20.3,19.4L20.3,19.4z"/>
			<path class="st62" d="M20.1,19.4v4.8c0,0.1,0.1,0.1,0.1,0.1l0,0H22c0.1,0,0.1-0.1,0.1-0.1v-4.9h1.3c0.1,0,0.1-0.1,0.1-0.1
				l0.1-1.5c0-0.1,0-0.1-0.1-0.1l0,0h-1.3v-1c0-0.2,0.2-0.4,0.4-0.4l0,0h1c0.1,0,0.1-0.1,0.1-0.1l0,0v-1.5c0-0.1-0.1-0.1-0.1-0.1
				l0,0h-1.7c-1,0-1.8,0.8-1.8,1.8l0,0v1.4h-0.9c-0.1,0-0.1,0.1-0.1,0.1l0,0v1.5c0,0.1,0,0.1,0.1,0.1l0,0L20.1,19.4L20.1,19.4z"/>
			<path class="st63" d="M20.1,19.3v4.8c0,0.1,0.1,0.1,0.1,0.1l0,0H22c0.1,0,0.1-0.1,0.1-0.1l0,0v-4.8h1.3c0.1,0,0.1,0,0.1-0.1
				l0.1-1.5c0-0.1,0-0.1-0.1-0.1l0,0h-1.4v-1c0-0.2,0.2-0.4,0.4-0.4l0,0h1c0.1,0,0.1,0,0.1-0.1l0,0v-1.5c0-0.1-0.1-0.1-0.1-0.1h-1.7
				c-1,0-1.8,0.8-1.8,1.8l0,0v1.4h-0.8c-0.1,0-0.1,0.1-0.1,0.1v1.5c0,0.1,0.1,0.1,0.1,0.1l0,0L20.1,19.3L20.1,19.3z"/>
			<path class="st64" d="M20,19.3v4.8c0,0.1,0.1,0.1,0.1,0.1l0,0h1.8c0.1,0,0.1-0.1,0.1-0.1v-4.9h1.3c0.1,0,0.1-0.1,0.1-0.1l0.1-1.5
				c0-0.1,0-0.1-0.1-0.1l0,0H22v-1c0-0.2,0.2-0.4,0.4-0.4l0,0h1c0.1,0,0.1-0.1,0.1-0.1l0,0v-1.5c0-0.1-0.1-0.1-0.1-0.1l0,0h-1.7
				c-1,0-1.8,0.8-1.8,1.8l0,0v1.4h-0.7c-0.1,0-0.1,0.1-0.1,0.1l0,0v1.5c0,0.1,0,0.1,0.1,0.1l0,0h0.9L20,19.3z"/>
			<path class="st65" d="M20,19.2V24c0,0.1,0.1,0.1,0.1,0.1h1.8C22,24.1,22,24,22,24l0,0v-4.9h1.3c0.1,0,0.1,0,0.1-0.1l0.1-1.5
				c0-0.1,0-0.1-0.1-0.1l0,0H22v-1c0-0.2,0.2-0.4,0.4-0.4l0,0h1c0.1,0,0.1-0.1,0.1-0.1v-1.5c0-0.1-0.1-0.1-0.1-0.1l0,0h-1.7
				c-1,0-1.8,0.8-1.8,1.8v1.4H19c-0.1,0-0.1,0.1-0.1,0.1v1.5c0,0.1,0.1,0.1,0.1,0.1l0,0H20L20,19.2z"/>
			<path class="st66" d="M20,19.2V24c0,0.1,0.1,0.1,0.1,0.1l0,0h1.8C22,24.1,22,24,22,24l0,0v-4.9h1.3c0.1,0,0.1-0.1,0.1-0.1
				l0.1-1.5c0-0.1,0-0.1-0.1-0.1l0,0H22v-1c0-0.2,0.2-0.4,0.4-0.4l0,0h1c0.1,0,0.1-0.1,0.1-0.1l0,0v-1.6c0-0.1-0.1-0.1-0.1-0.1l0,0
				h-1.7c-1,0-1.8,0.8-1.8,1.8l0,0v1.4H19c-0.1,0-0.1,0.1-0.1,0.1l0,0V19c0,0.1,0,0.1,0.1,0.1l0,0L20,19.2L20,19.2z"/>
			<path class="st67" d="M20,19.1v4.8c0,0.1,0.1,0.1,0.1,0.1h1.8c0.1,0,0.1-0.1,0.1-0.1l0,0V19h1.3c0.1,0,0.1,0,0.1-0.1l0.1-1.5
				c0-0.1,0-0.1-0.1-0.1l0,0H22v-1c0-0.2,0.2-0.4,0.4-0.4l0,0h1c0.1,0,0.1-0.1,0.1-0.1v-1.5c0-0.1-0.1-0.1-0.1-0.1l0,0h-1.7
				c-1,0-1.8,0.8-1.8,1.8v1.3H19c-0.1,0-0.1,0.1-0.1,0.1v1.5C18.9,19,19,19,19,19l0,0h0.9L20,19.1z"/>
			<path class="st68" d="M20,19.1v4.8c0,0.1,0.1,0.1,0.1,0.1l0,0h1.8c0.1,0,0.1-0.1,0.1-0.1l0,0V19h1.3c0.1,0,0.1-0.1,0.1-0.1
				l0.1-1.5c0-0.1,0-0.1-0.1-0.1l0,0H22v-1c0-0.2,0.2-0.4,0.4-0.4l0,0h1c0.1,0,0.1-0.1,0.1-0.1l0,0v-1.5c0-0.1,0-0.1-0.1-0.1l0,0
				h-1.7c-1,0-1.8,0.8-1.8,1.8l0,0v1.3H19c-0.1,0-0.1,0.1-0.1,0.1l0,0v1.5C18.9,19,19,19,19,19L20,19.1L20,19.1z"/>
			<path class="st69" d="M19.9,19v4.8c0,0.1,0,0.1,0.1,0.1l0,0h1.8c0.1,0,0.1-0.1,0.1-0.1v-4.9h1.3c0.1,0,0.1,0,0.1-0.1l0,0l0.1-1.5
				c0-0.1-0.1-0.1-0.2-0.1l0,0h-1.4v-1c0-0.2,0.2-0.4,0.4-0.4l0,0h1c0.1,0,0.1-0.1,0.1-0.1v-1.5c0-0.1-0.1-0.1-0.1-0.1l0,0h-1.7
				c-1,0-1.8,0.8-1.8,1.8l0,0v1.4h-0.9c-0.1,0-0.1,0.1-0.1,0.1v1.5c0,0.1,0.1,0.1,0.1,0.1l0,0H19.9L19.9,19z"/>
			<path class="st70" d="M19.9,19v4.8c0,0.1,0.1,0.1,0.1,0.1l0,0h1.8c0.1,0,0.1-0.1,0.1-0.1l0,0v-4.9h1.3c0.1,0,0.1-0.1,0.1-0.1
				l0.1-1.5c0-0.1,0-0.1-0.1-0.1l0,0h-1.4v-1c0-0.2,0.2-0.4,0.4-0.4l0,0h1c0.1,0,0.1,0,0.1-0.1l0,0v-1.5c0-0.1-0.1-0.1-0.1-0.1h-1.7
				c-1,0-1.8,0.8-1.8,1.8l0,0v1.4h-0.9c-0.1,0-0.1,0.1-0.1,0.1l0,0v1.5c0,0.1,0.1,0.1,0.1,0.1L19.9,19L19.9,19z"/>
			<path class="st71" d="M19.8,19v4.8c0,0.1,0,0.1,0.1,0.1l0,0h1.8c0.1,0,0.1-0.1,0.1-0.1v-4.9H23c0.1,0,0.1,0,0.1-0.1l0,0l0.1-1.5
				c0-0.1,0-0.1-0.1-0.1l0,0h-1.4v-1c0-0.2,0.2-0.4,0.4-0.4l0,0h1c0.1,0,0.1-0.1,0.1-0.1l0,0v-1.5c0-0.1-0.1-0.1-0.1-0.1l0,0h-1.7
				c-1,0-1.8,0.8-1.8,1.8l0,0v1.4h-0.9c-0.1,0-0.1,0.1-0.1,0.1l0,0v1.5c0,0.1,0.1,0.1,0.1,0.1l0,0L19.8,19L19.8,19z"/>
			<path class="st72" d="M19.8,18.9v4.8c0,0.1,0.1,0.1,0.1,0.1l0,0h1.8c0.1,0,0.1-0.1,0.1-0.1l0,0v-4.9H23c0.1,0,0.1,0,0.1-0.1
				l0.1-1.4c0-0.1,0-0.1-0.1-0.1l0,0h-1.4v-1c0-0.2,0.2-0.4,0.4-0.4l0,0h1c0.1,0,0.1,0,0.1-0.1l0,0v-1.5c0-0.1-0.1-0.1-0.1-0.1h-1.7
				c-1,0-1.8,0.8-1.8,1.8l0,0v1.4h-0.9c-0.1,0-0.1,0.1-0.1,0.1l0,0v1.5c0,0.1,0.1,0.1,0.1,0.1L19.8,18.9L19.8,18.9z"/>
			<path class="st73" d="M19.6,18.9v4.8c0,0.1,0,0.1,0.1,0.1l0,0h1.8c0.1,0,0.1-0.1,0.1-0.1v-4.9h1.3c0.1,0,0.1,0,0.1-0.1l0.1-1.5
				c0-0.1,0-0.1-0.1-0.1l0,0h-1.4v-1c0-0.2,0.2-0.4,0.4-0.4l0,0h1c0.1,0,0.1-0.1,0.1-0.1l0,0v-1.5C23.1,14,23,14,23,14l0,0h-1.7
				c-1,0-1.8,0.8-1.8,1.8l0,0v1.4h-0.9c-0.1,0-0.1,0.1-0.1,0.1l0,0v1.5c0,0.1,0.1,0.1,0.1,0.1l0,0H19.6L19.6,18.9z"/>
			<path class="st74" d="M19.6,18.8v4.8c0,0.1,0.1,0.1,0.1,0.1l0,0h1.8c0.1,0,0.1-0.1,0.1-0.1l0,0v-4.9h1.3c0.1,0,0.1,0,0.1-0.1
				l0.1-1.5c0-0.1,0-0.1-0.1-0.1l0,0h-1.4v-1c0-0.2,0.2-0.4,0.4-0.4l0,0h1c0.1,0,0.1,0,0.1-0.1l0,0V14c0-0.1-0.1-0.1-0.1-0.1h-1.7
				c-1,0-1.8,0.8-1.8,1.8l0,0v1.4h-0.9c-0.1,0-0.1,0.1-0.1,0.1v1.5c0,0.1,0.1,0.1,0.1,0.1L19.6,18.8L19.6,18.8z"/>
			<path class="st75" d="M19.6,18.8v4.8c0,0.1,0,0.1,0.1,0.1l0,0h1.8c0.1,0,0.1-0.1,0.1-0.1v-4.9h1.3c0.1,0,0.1,0,0.1-0.1l0,0
				l0.1-1.5c0-0.1,0-0.1-0.1-0.1l0,0h-1.4v-1c0-0.2,0.2-0.4,0.4-0.4l0,0h1c0.1,0,0.1-0.1,0.1-0.1l0,0V14c0-0.1-0.1-0.1-0.1-0.1l0,0
				h-1.7c-1,0-1.8,0.8-1.8,1.8l0,0v1.4h-0.9c-0.1,0-0.1,0.1-0.1,0.1l0,0v1.5c0,0.1,0.1,0.1,0.1,0.1l0,0L19.6,18.8L19.6,18.8z"/>
			<path class="st76" d="M19.5,18.7v4.8c0,0.1,0.1,0.1,0.1,0.1l0,0h1.8c0.1,0,0.1-0.1,0.1-0.1l0,0v-4.9h1.3c0.1,0,0.1,0,0.1-0.1
				L23,17c0-0.1,0-0.1-0.1-0.1l0,0h-1.4v-1c0-0.2,0.2-0.4,0.4-0.4l0,0h1c0.1,0,0.1,0,0.1-0.1l0,0v-1.5c0-0.1-0.1-0.1-0.1-0.1h-1.7
				c-1,0-1.8,0.8-1.8,1.8l0,0V17h-0.9c-0.1,0-0.1,0.1-0.1,0.1v1.5c0,0.1,0.1,0.1,0.1,0.1H19.5L19.5,18.7z"/>
			<path class="st77" d="M19.5,18.7v4.8c0,0.1,0.1,0.1,0.1,0.1l0,0h1.8c0.1,0,0.1-0.1,0.1-0.1v-4.9h1.3c0.1,0,0.1-0.1,0.1-0.1L23,17
				c0-0.1,0-0.1-0.1-0.1l0,0h-1.4v-1c0-0.2,0.2-0.4,0.4-0.4l0,0h1c0.1,0,0.1-0.1,0.1-0.1l0,0v-1.5c0-0.1-0.1-0.1-0.1-0.1l0,0h-1.7
				c-1,0-1.8,0.8-1.8,1.8l0,0V17h-0.9c-0.1,0-0.1,0.1-0.1,0.1l0,0v1.5c0,0.1,0,0.1,0.1,0.1l0,0H19.5L19.5,18.7z"/>
			<path class="st78" d="M19.5,18.6v4.8c0,0.1,0.1,0.1,0.1,0.1l0,0h1.8c0.1,0,0.1-0.1,0.1-0.1l0,0v-4.9h1.3c0.1,0,0.1,0,0.1-0.1
				l0.1-1.5c0-0.1,0-0.1-0.1-0.1l0,0h-1.4v-1c0-0.2,0.2-0.4,0.4-0.4l0,0h1c0.1,0,0.1,0,0.1-0.1l0,0v-1.5c0-0.1-0.1-0.1-0.1-0.1h-1.6
				c-1,0-1.8,0.8-1.8,1.8l0,0v1.4h-0.9c-0.1,0-0.1,0.1-0.1,0.1v1.5c0,0.1,0.1,0.1,0.1,0.1l0,0L19.5,18.6L19.5,18.6z"/>
			<path class="st79" d="M19.5,18.6v4.8c0,0.1,0.1,0.1,0.1,0.1l0,0h1.8c0.1,0,0.1-0.1,0.1-0.1v-4.9h1.3c0.1,0,0.1-0.1,0.1-0.1
				l0.1-1.5c0-0.1,0-0.1-0.1-0.1l0,0h-1.4v-1c0-0.2,0.2-0.4,0.4-0.4l0,0h1c0.1,0,0.1-0.1,0.1-0.1l0,0v-1.5c0-0.1-0.1-0.1-0.1-0.1
				l0,0h-1.6c-1,0-1.8,0.8-1.8,1.8l0,0v1.4h-0.9c-0.1,0-0.1,0.1-0.1,0.1l0,0v1.5c0,0.1,0,0.1,0.1,0.1l0,0L19.5,18.6L19.5,18.6z"/>
			<path class="st80" d="M19.4,18.6v4.7c0,0.1,0.1,0.1,0.1,0.1h1.8c0.1,0,0.1-0.1,0.1-0.1l0,0v-4.8h1.3c0.1,0,0.1,0,0.1-0.1l0.1-1.5
				c0-0.1,0-0.1-0.1-0.1l0,0h-1.4v-1c0-0.2,0.2-0.4,0.4-0.4h1c0.1,0,0.1-0.1,0.1-0.1v-1.5c0-0.1-0.1-0.1-0.1-0.1l0,0H21
				c-1,0-1.8,0.8-1.8,1.8v1.4h-0.9c-0.1,0-0.1,0.1-0.1,0.1v1.5c0,0.1,0.1,0.1,0.1,0.1l0,0H19.4L19.4,18.6z"/>
			<path class="st81" d="M19.4,18.5v4.8c0,0.1,0.1,0.1,0.1,0.1l0,0h1.8c0.1,0,0.1-0.1,0.1-0.1v-4.9h1.3c0.1,0,0.1-0.1,0.1-0.1
				l0.1-1.5c0-0.1,0-0.1-0.1-0.1l0,0h-1.4v-1c0-0.2,0.2-0.4,0.4-0.4l0,0h1c0.1,0,0.1-0.1,0.1-0.1l0,0v-1.5c0-0.1-0.1-0.1-0.1-0.1
				l0,0H21c-1,0-1.8,0.8-1.8,1.8v1.4h-0.9c-0.1,0-0.1,0.1-0.1,0.1l0,0v1.4c0,0.1,0,0.1,0.1,0.1l0,0L19.4,18.5L19.4,18.5z"/>
			<path class="st82" d="M19.3,18.5v4.8c0,0.1,0.1,0.1,0.1,0.1h1.8c0.1,0,0.1-0.1,0.1-0.1l0,0v-4.9h1.3c0.1,0,0.1,0,0.1-0.1l0.1-1.5
				c0-0.1,0-0.1-0.1-0.1l0,0h-1.4v-1c0-0.2,0.2-0.4,0.4-0.4l0,0h1c0.1,0,0.1-0.1,0.1-0.1v-1.5c0-0.1-0.1-0.1-0.1-0.1l0,0h-1.7
				c-1,0-1.8,0.8-1.8,1.7c0,0,0,0,0,0.1v1.4h-0.9c-0.1,0-0.1,0.1-0.1,0.1v1.4c0,0.1,0.1,0.1,0.1,0.1l0,0L19.3,18.5L19.3,18.5z"/>
			<path class="st83" d="M19.3,18.4v4.8c0,0.1,0.1,0.1,0.1,0.1l0,0h1.8c0.1,0,0.1,0,0.1-0.1l0,0v-4.9h1.3c0.1,0,0.1-0.1,0.1-0.1
				l0.1-1.5c0-0.1,0-0.1-0.1-0.1l0,0h-1.4v-1c0-0.2,0.2-0.4,0.4-0.4l0,0h1c0.1,0,0.1-0.1,0.1-0.1l0,0v-1.5c0-0.1,0-0.1-0.1-0.1l0,0
				h-1.7c-1,0-1.8,0.8-1.8,1.8v1.4h-0.9c-0.1,0-0.1,0.1-0.1,0.1l0,0v1.5c0,0.1,0,0.1,0.1,0.1l0,0L19.3,18.4L19.3,18.4z"/>
			<path class="st84" d="M19.1,18.4v4.8c0,0.1,0.1,0.1,0.1,0.1H21c0.1,0,0.1-0.1,0.1-0.1v-4.9h1.3c0.1,0,0.1,0,0.1-0.1l0.1-1.5
				c0-0.1,0-0.1-0.1-0.1l0,0h-1.3v-1c0-0.2,0.2-0.4,0.4-0.4l0,0h1c0.1,0,0.1-0.1,0.1-0.1v-1.5c0-0.1-0.1-0.1-0.1-0.1l0,0h-1.7
				c-1,0-1.8,0.8-1.8,1.8v1.4h-0.9c-0.1,0-0.1,0.1-0.1,0.1v1.5c0,0.1,0.1,0.1,0.1,0.1l0,0L19.1,18.4L19.1,18.4z"/>
		</g>
		<path class="st85" d="M19.1,18.4v4.8c0,0.1,0.1,0.1,0.1,0.1H21c0.1,0,0.1-0.1,0.1-0.1v-4.9h1.3c0.1,0,0.1,0,0.1-0.1l0.1-1.5
			c0-0.1,0-0.1-0.1-0.1l0,0h-1.3v-1c0-0.2,0.2-0.4,0.4-0.4l0,0h1c0.1,0,0.1-0.1,0.1-0.1v-1.5c0-0.1-0.1-0.1-0.1-0.1l0,0h-1.7
			c-1,0-1.8,0.8-1.8,1.8v1.4h-0.9c-0.1,0-0.1,0.1-0.1,0.1v1.5c0,0.1,0.1,0.1,0.1,0.1l0,0L19.1,18.4L19.1,18.4z"/>
	</g>
</g>
</svg>
