<?xml version="1.0" encoding="utf-8"?>
<!-- Generator: Adobe Illustrator 24.1.3, SVG Export Plug-In . SVG Version: 6.00 Build 0)  -->
<svg version="1.1" id="Шар_1" xmlns="http://www.w3.org/2000/svg" xmlns:xlink="http://www.w3.org/1999/xlink" x="0px" y="0px"
	 viewBox="0 0 40 40" style="enable-background:new 0 0 40 40;" xml:space="preserve">
<style type="text/css">
	.st0{fill:url(#SVGID_1_);}
	.st1{opacity:0.5;}
	.st2{fill:url(#SVGID_2_);}
	.st3{opacity:0.6;}
	.st4{fill:#FFFFFF;fill-opacity:0;}
	.st5{opacity:1.000000e-02;fill:#FDFCFD;enable-background:new    ;}
	.st6{opacity:2.000000e-02;fill:#FBFAFC;enable-background:new    ;}
	.st7{opacity:4.000000e-02;fill:#F9F7FA;enable-background:new    ;}
	.st8{opacity:5.000000e-02;fill:#F7F5F9;enable-background:new    ;}
	.st9{opacity:6.000000e-02;fill:#F5F2F7;enable-background:new    ;}
	.st10{opacity:7.000000e-02;fill:#F3F0F6;enable-background:new    ;}
	.st11{opacity:8.000000e-02;fill:#F1EDF4;enable-background:new    ;}
	.st12{opacity:0.1;fill:#EFEBF3;enable-background:new    ;}
	.st13{opacity:0.11;fill:#EDE8F1;enable-background:new    ;}
	.st14{opacity:0.12;fill:#EBE5F0;enable-background:new    ;}
	.st15{opacity:0.13;fill:#E9E3EE;enable-background:new    ;}
	.st16{opacity:0.14;fill:#E7E0ED;enable-background:new    ;}
	.st17{opacity:0.15;fill:#E5DEEB;enable-background:new    ;}
	.st18{opacity:0.17;fill:#E3DBEA;enable-background:new    ;}
	.st19{opacity:0.18;fill:#E2D9E8;enable-background:new    ;}
	.st20{opacity:0.19;fill:#E0D6E7;enable-background:new    ;}
	.st21{opacity:0.2;fill:#DED3E5;enable-background:new    ;}
	.st22{opacity:0.21;fill:#DCD1E4;enable-background:new    ;}
	.st23{opacity:0.23;fill:#DACEE2;enable-background:new    ;}
	.st24{opacity:0.24;fill:#D8CCE1;enable-background:new    ;}
	.st25{opacity:0.25;fill:#D6C9DF;enable-background:new    ;}
	.st26{opacity:0.26;fill:#D4C7DD;enable-background:new    ;}
	.st27{opacity:0.27;fill:#D2C4DC;enable-background:new    ;}
	.st28{opacity:0.29;fill:#D0C2DA;enable-background:new    ;}
	.st29{opacity:0.3;fill:#CEBFD9;enable-background:new    ;}
	.st30{opacity:0.31;fill:#CCBCD7;enable-background:new    ;}
	.st31{opacity:0.32;fill:#CABAD6;enable-background:new    ;}
	.st32{opacity:0.33;fill:#C8B7D4;enable-background:new    ;}
	.st33{opacity:0.35;fill:#C6B5D3;enable-background:new    ;}
	.st34{opacity:0.36;fill:#C4B2D1;enable-background:new    ;}
	.st35{opacity:0.37;fill:#C2B0D0;enable-background:new    ;}
	.st36{opacity:0.38;fill:#C0ADCE;enable-background:new    ;}
	.st37{opacity:0.39;fill:#BEABCD;enable-background:new    ;}
	.st38{opacity:0.4;fill:#BCA8CB;enable-background:new    ;}
	.st39{opacity:0.42;fill:#BAA5CA;enable-background:new    ;}
	.st40{opacity:0.43;fill:#B8A3C8;enable-background:new    ;}
	.st41{opacity:0.44;fill:#B6A0C7;enable-background:new    ;}
	.st42{opacity:0.45;fill:#B49EC5;enable-background:new    ;}
	.st43{opacity:0.46;fill:#B29BC4;enable-background:new    ;}
	.st44{opacity:0.48;fill:#B099C2;enable-background:new    ;}
	.st45{opacity:0.49;fill:#AE96C1;enable-background:new    ;}
	.st46{opacity:0.5;fill:#AC93BF;enable-background:new    ;}
	.st47{opacity:0.51;fill:#AB91BD;enable-background:new    ;}
	.st48{opacity:0.52;fill:#A98EBC;enable-background:new    ;}
	.st49{opacity:0.54;fill:#A78CBA;enable-background:new    ;}
	.st50{opacity:0.55;fill:#A589B9;enable-background:new    ;}
	.st51{opacity:0.56;fill:#A387B7;enable-background:new    ;}
	.st52{opacity:0.57;fill:#A184B6;enable-background:new    ;}
	.st53{opacity:0.58;fill:#9F82B4;enable-background:new    ;}
	.st54{opacity:0.6;fill:#9D7FB3;enable-background:new    ;}
	.st55{opacity:0.61;fill:#9B7CB1;enable-background:new    ;}
	.st56{opacity:0.62;fill:#997AB0;enable-background:new    ;}
	.st57{opacity:0.63;fill:#9777AE;enable-background:new    ;}
	.st58{opacity:0.64;fill:#9575AD;enable-background:new    ;}
	.st59{opacity:0.65;fill:#9372AB;enable-background:new    ;}
	.st60{opacity:0.67;fill:#9170AA;enable-background:new    ;}
	.st61{opacity:0.68;fill:#8F6DA8;enable-background:new    ;}
	.st62{opacity:0.69;fill:#8D6BA7;enable-background:new    ;}
	.st63{opacity:0.7;fill:#8B68A5;enable-background:new    ;}
	.st64{opacity:0.71;fill:#8965A4;enable-background:new    ;}
	.st65{opacity:0.73;fill:#8763A2;enable-background:new    ;}
	.st66{opacity:0.74;fill:#8560A1;enable-background:new    ;}
	.st67{opacity:0.75;fill:#835E9F;enable-background:new    ;}
	.st68{opacity:0.76;fill:#815B9D;enable-background:new    ;}
	.st69{opacity:0.77;fill:#7F599C;enable-background:new    ;}
	.st70{opacity:0.79;fill:#7D569A;enable-background:new    ;}
	.st71{opacity:0.8;fill:#7B5499;enable-background:new    ;}
	.st72{opacity:0.81;fill:#795197;enable-background:new    ;}
	.st73{opacity:0.82;fill:#774E96;enable-background:new    ;}
	.st74{opacity:0.83;fill:#764C94;enable-background:new    ;}
	.st75{opacity:0.85;fill:#744993;enable-background:new    ;}
	.st76{opacity:0.86;fill:#724791;enable-background:new    ;}
	.st77{opacity:0.87;fill:#704490;enable-background:new    ;}
	.st78{opacity:0.88;fill:#6E428E;enable-background:new    ;}
	.st79{opacity:0.89;fill:#6C3F8D;enable-background:new    ;}
	.st80{opacity:0.9;fill:#6A3C8B;enable-background:new    ;}
	.st81{opacity:0.92;fill:#683A8A;enable-background:new    ;}
	.st82{opacity:0.93;fill:#663788;enable-background:new    ;}
	.st83{opacity:0.94;fill:#643587;enable-background:new    ;}
	.st84{opacity:0.95;fill:#623285;enable-background:new    ;}
	.st85{opacity:0.96;fill:#603084;enable-background:new    ;}
	.st86{opacity:0.98;fill:#5E2D82;enable-background:new    ;}
	.st87{opacity:0.99;fill:#5C2B81;enable-background:new    ;}
	.st88{fill:#5A287F;}
	.st89{fill:#FFFFFF;}
</style>
<linearGradient id="SVGID_1_" gradientUnits="userSpaceOnUse" x1="10.7243" y1="233.3158" x2="31.0943" y2="253.6758" gradientTransform="matrix(1 0 0 1 0 -224)">
	<stop  offset="0" style="stop-color:#FCE9A7"/>
	<stop  offset="0.21" style="stop-color:#FCBB45"/>
	<stop  offset="0.38" style="stop-color:#F75274"/>
	<stop  offset="0.52" style="stop-color:#D53692"/>
	<stop  offset="0.74" style="stop-color:#6C2C9C"/>
	<stop  offset="1" style="stop-color:#483EBA"/>
</linearGradient>
<path class="st0" d="M7.4,26.7c-1.5-0.7-2.5-2.2-2.6-3.8c-0.1-1.6,0.3-3.3,1.1-4.7c3.9-8,12.8-12.3,21.5-10.5c1.8,0.3,3.4,1,4.8,2.2
	c2.1,2,3.1,4.8,2.8,7.6s-1.2,5.5-2.6,7.9c-0.9,1.9-2.2,3.7-3.7,5.2c-1.6,1.5-3.7,2.3-5.8,2.2c-4.4-0.3-7.4-5.2-11.8-5.7
	C9.9,26.9,8.5,27.1,7.4,26.7z"/>
<g class="st1">
	
		<image style="overflow:visible;enable-background:new    ;" width="393" height="379" xlink:href="7ABD646C.png"  transform="matrix(0.24 0 0 0.24 -26.77 -25.58)">
	</image>
</g>
<linearGradient id="SVGID_2_" gradientUnits="userSpaceOnUse" x1="29.2903" y1="251.3797" x2="10.6903" y2="232.7797" gradientTransform="matrix(1 0 0 1 0 -224)">
	<stop  offset="0" style="stop-color:#FBE18A"/>
	<stop  offset="0.21" style="stop-color:#FCBB45"/>
	<stop  offset="0.38" style="stop-color:#F75274"/>
	<stop  offset="0.52" style="stop-color:#D53692"/>
	<stop  offset="0.74" style="stop-color:#8F39CE"/>
	<stop  offset="1" style="stop-color:#5B4FE9"/>
</linearGradient>
<path class="st2" d="M10.8,24c-1.1-0.5-1.8-1.6-1.9-2.8c0-1.2,0.2-2.4,0.8-3.4c2.9-5.9,9.4-9,15.8-7.7c1.3,0.2,2.5,0.8,3.5,1.6
	c1.5,1.5,2.3,3.5,2.1,5.6s-0.9,4-1.9,5.8c-0.7,1.4-1.6,2.7-2.7,3.8c-1.1,1.1-2.7,1.7-4.3,1.6c-3.2-0.2-5.5-3.8-8.7-4.2
	C12.5,24.3,11.6,24.2,10.8,24z"/>
<g class="st3">
	<path class="st4" d="M27.8,19.1c0,0.3-0.2,0.6-0.5,0.7s-0.6-0.2-0.7-0.5c0-0.1,0-0.1,0-0.2c0-0.3,0.3-0.6,0.7-0.5
		C27.5,18.6,27.7,18.9,27.8,19.1z M26,21.8c0-0.9-0.7-1.6-1.6-1.6c-0.9,0-1.6,0.7-1.6,1.6s0.7,1.6,1.6,1.6
		C25.3,23.5,26,22.7,26,21.8z M27,21.8c0,1.4-1.1,2.6-2.5,2.6c-1.4,0-2.6-1.1-2.6-2.5s1.1-2.6,2.5-2.6l0,0
		C25.8,19.3,27,20.4,27,21.8z M28.5,24c0,1.2-1,2.1-2.1,2.1l0,0h-4.2c-1.2,0-2.1-1-2.1-2.1l0,0v-4.2c0-1.2,1-2.1,2.1-2.1l0,0h4.2
		c1.2,0,2.1,1,2.1,2.1V24z M29.5,19.8c0-1.7-1.4-3.1-3.1-3.1l0,0h-4.2c-1.7,0-3.1,1.4-3.1,3.1l0,0V24c0,1.7,1.4,3.1,3.1,3.1h4.2
		c1.7,0,3.1-1.4,3.1-3.1l0,0V19.8z"/>
	<path class="st5" d="M27.7,19.1c0,0.3-0.3,0.6-0.6,0.6s-0.6-0.3-0.6-0.6c0-0.3,0.3-0.6,0.6-0.6C27.3,18.5,27.7,18.7,27.7,19.1
		L27.7,19.1z M26,21.8c0-0.9-0.7-1.6-1.6-1.6c-0.9,0-1.6,0.7-1.6,1.6s0.7,1.6,1.6,1.6C25.3,23.4,26,22.7,26,21.8L26,21.8z M27,21.8
		c0,1.4-1.1,2.6-2.5,2.6c-1.4,0-2.6-1.1-2.6-2.5s1.1-2.6,2.5-2.6l0,0C25.8,19.3,26.8,20.4,27,21.8z M28.5,23.9c0,1.2-1,2.1-2.1,2.1
		l0,0h-4.2c-1.2,0-2.1-1-2.1-2.1l0,0v-4.2c0-1.2,1-2.1,2.1-2.1h4.2c1.2,0,2.1,1,2.1,2.1l0,0V23.9z M29.5,19.8c0-1.7-1.4-3.1-3.1-3.1
		h-4.2c-1.7,0-3.1,1.4-3.1,3.1l0,0v4.1c0,1.7,1.4,3.1,3.1,3.1l0,0h4.2c1.7,0,3.1-1.4,3.1-3.1l0,0V19.8z"/>
	<path class="st6" d="M27.7,19c0,0.3-0.3,0.6-0.6,0.6s-0.6-0.3-0.6-0.6s0.3-0.6,0.6-0.6l0,0C27.3,18.4,27.7,18.7,27.7,19z M26,21.8
		c0-0.9-0.7-1.6-1.6-1.6c-0.9,0-1.6,0.7-1.6,1.6s0.7,1.6,1.6,1.6C25.3,23.4,26,22.7,26,21.8L26,21.8z M26.8,21.8
		c0,1.4-1.1,2.5-2.5,2.5c-1.4,0-2.5-1.1-2.5-2.5s1.1-2.5,2.5-2.5C25.8,19.3,26.8,20.4,26.8,21.8L26.8,21.8z M28.5,23.9
		c0,1.2-1,2.1-2.1,2.1h-4.2c-1.2,0-2.1-1-2.1-2.1v-4.2c0-1.2,1-2.1,2.1-2.1l0,0h4.2c1.2,0,2.1,1,2.1,2.1l0,0V23.9z M29.5,19.7
		c0-1.7-1.4-3.1-3.1-3.1h-4.2c-1.7,0-3.1,1.4-3.1,3.1l0,0v4.2c0,1.7,1.4,3.1,3.1,3.1l0,0h4.2c1.7,0,3.1-1.4,3.1-3.1V19.7z"/>
	<path class="st7" d="M27.5,19c0,0.3-0.3,0.6-0.6,0.6s-0.6-0.3-0.6-0.6s0.3-0.6,0.6-0.6l0,0C27.3,18.4,27.5,18.7,27.5,19z M26,21.7
		c0-0.9-0.7-1.7-1.6-1.7c-0.9,0-1.7,0.7-1.7,1.6s0.7,1.7,1.6,1.7l0,0C25.2,23.3,25.8,22.6,26,21.7z M26.8,21.7
		c0,1.4-1.1,2.5-2.6,2.5c-1.4,0-2.5-1.1-2.5-2.6c0-1.4,1.1-2.5,2.5-2.5C25.7,19.2,26.8,20.3,26.8,21.7L26.8,21.7z M28.5,23.9
		c0,1.2-1,2.1-2.1,2.1l0,0h-4.1c-1.2,0-2.1-1-2.1-2.1v-4.2c0-1.2,1-2.1,2.1-2.1h4c1.2,0,2.1,1,2.1,2.1l0,0L28.5,23.9z M29.5,19.7
		c0-1.7-1.4-3.1-3.1-3.1c0,0,0,0-0.1,0h-4.1c-1.7,0-3.1,1.4-3.1,3.1l0,0v4.2c0,1.7,1.4,3.1,3.1,3.1l0,0h4.1c1.7,0,3.1-1.4,3.1-3.1
		l0,0L29.5,19.7z"/>
	<path class="st8" d="M27.5,19c0,0.3-0.3,0.6-0.6,0.6s-0.6-0.3-0.6-0.6c0-0.3,0.3-0.6,0.6-0.6C27.3,18.3,27.5,18.6,27.5,19
		C27.5,18.9,27.5,19,27.5,19z M25.8,21.7c0-0.9-0.7-1.6-1.6-1.6s-1.6,0.7-1.6,1.6s0.7,1.6,1.6,1.6l0,0
		C25.2,23.3,25.8,22.6,25.8,21.7z M26.8,21.7c0,1.4-1.1,2.5-2.5,2.5c-1.4,0-2.5-1.1-2.5-2.5s1.1-2.5,2.5-2.5l0,0
		C25.7,19.1,26.8,20.3,26.8,21.7z M28.3,23.8c0,1.2-1,2.1-2.1,2.1l0,0H22c-1.2,0-2.1-1-2.1-2.1v-4.2c0-1.2,1-2.1,2.1-2.1l0,0h4.2
		c1.2,0,2.1,1,2.1,2.1l0,0V23.8z M29.3,19.7c0-1.7-1.4-3.1-3.1-3.1H22c-1.7,0-3.1,1.4-3.1,3.1l0,0v4.2c0,1.7,1.4,3.1,3.1,3.1l0,0
		h4.2c1.7,0,3.1-1.4,3.1-3.1l0,0V19.7z"/>
	<path class="st9" d="M27.5,18.9c0,0.3-0.3,0.6-0.6,0.6s-0.6-0.3-0.6-0.6c0-0.3,0.3-0.6,0.6-0.6S27.5,18.6,27.5,18.9L27.5,18.9z
		 M25.8,21.6c0-0.9-0.8-1.6-1.7-1.6c-0.9,0-1.6,0.8-1.6,1.7c0,0.9,0.7,1.6,1.6,1.6C25,23.3,25.8,22.6,25.8,21.6
		C25.8,21.7,25.8,21.6,25.8,21.6z M26.8,21.6c0,1.4-1.1,2.5-2.5,2.5c-1.4,0-2.5-1.1-2.5-2.5s1.1-2.5,2.5-2.5
		C25.5,19.1,26.8,20.2,26.8,21.6z M28.3,23.8c0,1.2-0.9,2.1-2.1,2.1H22c-1.2,0-2.1-1-2.1-2.1l0,0v-4.2c0-1.2,1-2.1,2.1-2.1l0,0h4.2
		c1.2,0,2.1,1,2.1,2.1l0,0V23.8z M29.3,19.6c0-1.7-1.4-3.1-3.1-3.1l0,0H22c-1.7,0-3.1,1.4-3.1,3.1l0,0v4.1c0,1.7,1.4,3.1,3.1,3.1
		l0,0h4.2c1.7,0,3.1-1.4,3.1-3.1V19.6z"/>
	<path class="st10" d="M27.5,18.9c0,0.3-0.3,0.6-0.6,0.6s-0.6-0.3-0.6-0.6s0.3-0.6,0.6-0.6l0,0C27.2,18.3,27.5,18.5,27.5,18.9z
		 M25.8,21.6c0-0.9-0.7-1.6-1.6-1.6s-1.6,0.7-1.6,1.6s0.7,1.6,1.6,1.6l0,0C25,23.2,25.8,22.5,25.8,21.6z M26.7,21.6
		c0,1.4-1.1,2.5-2.6,2.5c-1.4,0-2.5-1.1-2.5-2.6c0-1.4,1.1-2.5,2.6-2.5l0,0C25.5,19,26.7,20.2,26.7,21.6L26.7,21.6z M28.3,23.7
		c0,1.2-1,2.1-2.1,2.1l0,0h-4.1c-1.2,0-2.1-1-2.1-2.1v-4.2c0-1.2,1-2.1,2.1-2.1h4.2c1.2,0,2.1,1,2.1,2.1L28.3,23.7L28.3,23.7z
		 M29.3,19.6c0-1.7-1.4-3.1-3.1-3.1H22c-1.7,0-3.1,1.4-3.1,3.1l0,0v4.2c0,1.7,1.4,3.1,3.1,3.1l0,0h4.2c1.7,0,3.1-1.4,3.1-3.1V19.6z"
		/>
	<path class="st11" d="M27.5,18.8c0,0.3-0.3,0.6-0.7,0.5c-0.3,0-0.5-0.3-0.5-0.5c0-0.3,0.2-0.6,0.5-0.7s0.6,0.2,0.7,0.5
		C27.5,18.7,27.5,18.8,27.5,18.8z M25.8,21.5c0-0.9-0.7-1.6-1.6-1.6s-1.6,0.7-1.6,1.6s0.7,1.6,1.6,1.6l0,0
		C25,23.2,25.8,22.4,25.8,21.5z M26.7,21.5c0,1.4-1.1,2.6-2.5,2.6c-1.4,0-2.6-1.1-2.6-2.5s1.1-2.6,2.5-2.6l0,0
		C25.5,19,26.7,20.1,26.7,21.5z M28.3,23.7c0,1.2-1,2.1-2.1,2.1H22c-1.2,0-2.1-1-2.1-2.1l0,0v-4.2c0-1.2,1-2.1,2.1-2.1l0,0h4.2
		c1.2,0,2.1,1,2.1,2.1V23.7z M29.3,19.5c0-1.7-1.4-3.1-3.1-3.1H22c-1.7,0-3.1,1.4-3.1,3.1l0,0v4.2c0,1.7,1.4,3.1,3.1,3.1l0,0h4.2
		c1.7,0,3.1-1.4,3.1-3.1V19.5z"/>
	<path class="st12" d="M27.3,18.8c0,0.3-0.3,0.6-0.6,0.6s-0.6-0.3-0.6-0.6c0-0.3,0.3-0.6,0.6-0.6S27.3,18.4,27.3,18.8L27.3,18.8z
		 M25.7,21.5c0-0.9-0.7-1.6-1.6-1.6s-1.6,0.7-1.6,1.6s0.7,1.6,1.6,1.6l0,0C25,23.1,25.7,22.4,25.7,21.5z M26.5,21.5
		c0,1.4-1.1,2.5-2.5,2.5c-1.4,0-2.5-1.1-2.5-2.5S22.6,19,24,19C25.4,19,26.5,20.1,26.5,21.5L26.5,21.5z M28.3,23.6
		c0,1.2-1,2.1-2.1,2.1l0,0H22c-1.2,0-2.1-1-2.1-2.1l0,0v-4.2c0-1.2,0.9-2.1,2.1-2.2l0,0h4.2c1.2,0,2.1,0.9,2.2,2.1v0.1v4.2H28.3z
		 M29.3,19.5c0-1.7-1.4-3.1-3.1-3.1H22c-1.7,0-3.1,1.4-3.1,3.1l0,0v4.1c0,1.7,1.4,3.1,3.1,3.1l0,0h4.2c1.7,0,3.1-1.4,3.1-3.1V19.5z"
		/>
	<path class="st13" d="M27.3,18.7c0,0.3-0.3,0.6-0.6,0.6s-0.6-0.3-0.6-0.6s0.3-0.6,0.6-0.6l0,0C27,18.1,27.3,18.4,27.3,18.7z
		 M25.7,21.5c0-0.9-0.7-1.6-1.6-1.6s-1.6,0.7-1.6,1.6s0.7,1.6,1.6,1.6l0,0C25,23.1,25.7,22.4,25.7,21.5z M26.5,21.5
		c0,1.4-1.1,2.5-2.6,2.5c-1.4,0-2.5-1.1-2.5-2.6c0-1.4,1.1-2.5,2.6-2.5l0,0C25.5,18.9,26.5,20,26.5,21.5L26.5,21.5z M28.2,23.6
		c0,1.2-1,2.1-2.1,2.1l0,0h-4.2c-1.2,0-2.1-1-2.1-2.1v-4.2c0-1.2,1-2.1,2.1-2.1h4.2c1.2,0,2.1,1,2.1,2.1l0,0V23.6z M29.2,19.4
		c0-1.7-1.4-3.1-3.1-3.1h-4.2c-1.7,0-3.1,1.4-3.1,3.1l0,0v4.2c0,1.7,1.4,3.1,3.1,3.1l0,0h4.2c1.7,0,3.1-1.4,3.1-3.1V19.4z"/>
	<path class="st14" d="M27.3,18.7c0,0.3-0.2,0.6-0.5,0.7s-0.6-0.2-0.7-0.5c0-0.1,0-0.1,0-0.2c0-0.3,0.3-0.6,0.7-0.5
		C27,18.2,27.3,18.4,27.3,18.7z M25.5,21.4c0-0.9-0.7-1.6-1.6-1.6s-1.6,0.7-1.6,1.6S23,23,23.9,23l0,0
		C24.8,23.1,25.5,22.3,25.5,21.4L25.5,21.4L25.5,21.4z M26.5,21.4c0,1.4-1.1,2.6-2.5,2.6c-1.4,0-2.6-1.1-2.6-2.5s1.1-2.6,2.5-2.6
		l0,0C25.3,18.9,26.5,20,26.5,21.4L26.5,21.4L26.5,21.4z M28,23.6c0,1.2-1,2.1-2.1,2.1l0,0h-4.1c-1.2,0-2.1-1-2.1-2.1l0,0v-4.2
		c0-1.2,1-2.1,2.1-2.1H26c1.2,0,2.1,1,2.1,2.1l0,0L28,23.6z M29,19.4c0-1.7-1.4-3.1-3.1-3.1h-4.2c-1.7,0-3.1,1.4-3.1,3.1l0,0v4.2
		c0,1.7,1.4,3.1,3.1,3.1h4.1c1.7,0,3.1-1.4,3.1-3.1L29,19.4z"/>
	<path class="st15" d="M27.3,18.7c0,0.3-0.3,0.6-0.6,0.6s-0.6-0.3-0.6-0.6c0-0.3,0.3-0.6,0.6-0.6C27,18,27.3,18.3,27.3,18.7
		C27.3,18.6,27.3,18.7,27.3,18.7z M25.5,21.4c0-0.9-0.7-1.6-1.6-1.6s-1.6,0.7-1.6,1.6S23,23,23.9,23l0,0
		C24.8,23,25.5,22.3,25.5,21.4L25.5,21.4z M26.5,21.4c0,1.4-1.1,2.5-2.5,2.5c-1.4,0-2.5-1.1-2.5-2.5s1.1-2.5,2.5-2.5
		C25.3,18.8,26.5,20,26.5,21.4L26.5,21.4z M28.2,23.5c0,1.2-1,2.1-2.1,2.1l0,0h-4.2c-1.2,0-2.1-1-2.1-2.1v-4.2c0-1.2,1-2.1,2.1-2.1
		l0,0h4.2c1.2,0,2.1,1,2.1,2.1l0,0V23.5z M29.2,19.4c0-1.7-1.4-3.1-3.1-3.1h-4.2c-1.7,0-3.1,1.4-3.1,3.1l0,0v4.2
		c0,1.7,1.4,3.1,3.1,3.1l0,0h4.2c1.7,0,3.1-1.4,3.1-3.1l0,0V19.4z"/>
	<path class="st16" d="M27.2,18.6c0,0.3-0.3,0.6-0.6,0.6S26,18.9,26,18.6s0.3-0.6,0.6-0.6l0,0C27,18,27.2,18.3,27.2,18.6z
		 M25.5,21.3c0-0.9-0.7-1.6-1.6-1.6s-1.7,0.7-1.7,1.6s0.7,1.6,1.6,1.6l0,0C24.8,22.9,25.5,22.2,25.5,21.3z M26.5,21.3
		c0,1.4-1.1,2.5-2.5,2.5c-1.4,0-2.5-1.1-2.5-2.5s1.1-2.5,2.5-2.5C25.3,18.8,26.5,19.9,26.5,21.3L26.5,21.3z M28,23.4
		c0,1.2-1,2.1-2.1,2.1h-4.2c-1.2,0-2.1-1-2.1-2.1v-4.1c0-1.2,1-2.1,2.1-2.1l0,0H26c1.2,0,2.1,1,2.1,2.1l0,0V23.4z M29,19.3
		c0-1.7-1.4-3.1-3.1-3.1h-4.2c-1.7,0-3.1,1.4-3.1,3.1l0,0v4.2c0,1.7,1.4,3.1,3.1,3.1l0,0H26c1.7,0,3.1-1.4,3.1-3.1V19.3z"/>
	<path class="st17" d="M27.2,18.6c0,0.3-0.3,0.6-0.6,0.6S26,18.9,26,18.6s0.3-0.6,0.6-0.6l0,0C26.8,18,27.2,18.2,27.2,18.6z
		 M25.5,21.3c0-0.9-0.7-1.6-1.6-1.6s-1.6,0.7-1.6,1.6s0.7,1.6,1.6,1.6l0,0C24.8,22.9,25.5,22.2,25.5,21.3z M26.3,21.3
		c0,1.4-1.1,2.6-2.5,2.6c-1.4,0-2.6-1.1-2.6-2.5s1.1-2.6,2.5-2.6l0,0C25.3,18.8,26.3,19.9,26.3,21.3z M28,23.5c0,1.2-1,2.1-2.1,2.1
		h-4.2c-1.2,0-2.1-1-2.1-2.1v-4.2c0-1.2,1-2.1,2.1-2.1l0,0h4.2c1.2,0,2.1,1,2.1,2.1l0,0V23.5z M29,19.3c0-1.7-1.4-3.1-3.1-3.1l0,0
		h-4.2c-1.7,0-3.1,1.4-3.1,3.1l0,0v4.2c0,1.7,1.4,3.1,3.1,3.1h4.1c1.7,0,3.1-1.4,3.1-3.1l0,0L29,19.3z"/>
	<path class="st18" d="M27,18.5c0,0.3-0.3,0.6-0.6,0.6s-0.6-0.3-0.6-0.6c0-0.3,0.3-0.6,0.6-0.6C26.8,17.9,27,18.2,27,18.5
		C27.2,18.5,27.2,18.5,27,18.5z M25.5,21.2c0-0.9-0.7-1.6-1.6-1.6s-1.6,0.7-1.6,1.6s0.7,1.6,1.6,1.6l0,0
		C24.8,22.9,25.5,22.1,25.5,21.2z M26.3,21.2c0,1.4-1.1,2.5-2.5,2.5c-1.4,0-2.5-1.1-2.5-2.5s1.1-2.5,2.5-2.5
		C25.3,18.7,26.3,19.8,26.3,21.2L26.3,21.2z M28,23.4c0,1.2-1,2.1-2.1,2.1l0,0h-4.2c-1.2,0-2.1-1-2.1-2.1v-4.2c0-1.2,1-2.1,2.1-2.1
		l0,0h4.2c1.2,0,2.1,1,2.1,2.1l0,0V23.4z M29,19.2c0-1.7-1.4-3.1-3.1-3.1h-4.2c-1.7,0-3.1,1.4-3.1,3.1l0,0v4.1
		c0,1.7,1.4,3.1,3.1,3.1h4.2c1.7,0,3.1-1.4,3.1-3.1l0,0V19.2z"/>
	<path class="st19" d="M27,18.5c0,0.3-0.3,0.6-0.6,0.6s-0.6-0.3-0.6-0.6c0-0.3,0.3-0.6,0.6-0.6S27,18.2,27,18.5L27,18.5z M25.3,21.2
		c0-0.9-0.7-1.6-1.6-1.6s-1.6,0.7-1.6,1.6s0.7,1.6,1.6,1.6l0,0C24.7,22.8,25.3,22.1,25.3,21.2z M26.3,21.2c0,1.4-1.1,2.5-2.5,2.5
		s-2.5-1.1-2.5-2.5s1.1-2.5,2.5-2.5C25.2,18.7,26.3,19.8,26.3,21.2L26.3,21.2z M28,23.3c0,1.2-1,2.1-2.1,2.1l0,0h-4.2
		c-1.2,0-2.1-0.9-2.1-2.1l0,0v-4.1c0-1.2,1-2.1,2.1-2.1l0,0h4.2c1.2,0,2.1,1,2.1,2.1l0,0V23.3z M29,19.1c0-1.7-1.4-3.1-3.1-3.1l0,0
		h-4.2c-1.7,0-3.1,1.4-3.1,3.1l0,0v4.2c0,1.7,1.4,3.1,3.1,3.1h4.2c1.7,0,3.1-1.4,3.1-3.1V19.1z"/>
	<path class="st20" d="M27,18.4c0,0.3-0.3,0.6-0.6,0.6s-0.6-0.3-0.6-0.6s0.3-0.6,0.6-0.6l0,0C26.8,17.8,27,18.1,27,18.4z M25.3,21.2
		c0-0.9-0.7-1.6-1.6-1.6s-1.6,0.7-1.6,1.6s0.7,1.6,1.6,1.6l0,0C24.7,22.8,25.3,22.1,25.3,21.2z M26.3,21.2c0,1.4-1.1,2.5-2.6,2.5
		c-1.4,0-2.5-1.1-2.5-2.6c0-1.4,1.1-2.5,2.6-2.5l0,0C25.2,18.6,26.3,19.8,26.3,21.2L26.3,21.2L26.3,21.2z M27.8,23.3
		c0,1.2-1,2.1-2.1,2.1l0,0h-4.2c-1.2,0-2.1-1-2.1-2.1v-4.2c0-1.2,1-2.1,2.1-2.1h4.2c1.2,0,2.1,1,2.1,2.1l0,0V23.3z M28.8,19.1
		c0-1.7-1.4-3.1-3.1-3.1h-4.2c-1.7,0-3.1,1.4-3.1,3.1l0,0v4.2c0,1.7,1.4,3.1,3.1,3.1h4.2c1.7,0,3.1-1.4,3.1-3.1V19.1z"/>
	<path class="st21" d="M27,18.4c0,0.3-0.3,0.6-0.6,0.6s-0.6-0.3-0.6-0.6c0-0.3,0.3-0.6,0.6-0.6S27,18,27,18.4L27,18.4z M25.3,21.1
		c0-0.9-0.7-1.6-1.6-1.6s-1.6,0.7-1.6,1.6s0.7,1.6,1.6,1.6l0,0C24.5,22.7,25.3,22,25.3,21.1z M26.3,21.1c0,1.4-1.1,2.6-2.5,2.6
		c-1.4,0-2.6-1.1-2.6-2.5s1.1-2.6,2.5-2.6l0,0C25,18.6,26.3,19.7,26.3,21.1L26.3,21.1L26.3,21.1z M27.8,23.3c0,1.2-1,2.1-2.1,2.1
		l0,0h-4.2c-1.2,0-2.1-1-2.1-2.1l0,0v-4.2c0-1.2,1-2.1,2.1-2.1h4.2c1.2,0,2.1,1,2.1,2.1l0,0V23.3z M28.8,19.1c0-1.7-1.4-3.1-3.1-3.1
		h-4.2c-1.7,0-3.1,1.4-3.1,3.1l0,0v4.2c0,1.7,1.4,3.1,3.1,3.1h4.1c1.7,0,3.1-1.4,3.1-3.1L28.8,19.1z"/>
	<path class="st22" d="M27,18.4c0,0.3-0.3,0.6-0.6,0.6s-0.6-0.3-0.6-0.6c0-0.3,0.3-0.6,0.6-0.6C26.7,17.7,27,18,27,18.4
		C27,18.3,27,18.4,27,18.4z M25.3,21.1c0-0.9-0.7-1.6-1.6-1.6S22,20.2,22,21.1s0.7,1.6,1.6,1.6l0,0C24.5,22.7,25.3,22,25.3,21.1z
		 M26.2,21.1c0,1.4-1.1,2.5-2.5,2.5c-1.4,0-2.5-1.1-2.5-2.5s1.1-2.5,2.5-2.5C25,18.5,26.2,19.7,26.2,21.1L26.2,21.1L26.2,21.1z
		 M27.8,23.2c0,1.2-1,2.1-2.1,2.1h-4.2c-1.2,0-2.1-1-2.1-2.1l0,0v-4.1c0-1.2,1-2.1,2.1-2.1h4.2c1.2,0,2.1,1,2.1,2.1l0,0V23.2z
		 M28.8,19.1c0-1.7-1.4-3.1-3.1-3.1h-4.2c-1.7,0-3.1,1.4-3.1,3.1l0,0v4.1c0,1.7,1.4,3.1,3.1,3.1l0,0h4.2c1.7,0,3.1-1.4,3.1-3.1V19.1
		z"/>
	<path class="st23" d="M26.8,18.3c0,0.3-0.3,0.6-0.6,0.6s-0.6-0.3-0.6-0.6s0.3-0.6,0.6-0.6l0,0C26.7,17.7,26.8,18,26.8,18.3z
		 M25.3,21c0-0.9-0.7-1.6-1.6-1.6S22,20.1,22,21s0.7,1.6,1.6,1.6l0,0C24.5,22.7,25.3,21.9,25.3,21z M26.2,21c0,1.4-1.1,2.5-2.6,2.5
		c-1.4,0-2.5-1.1-2.5-2.6c0-1.4,1.1-2.5,2.6-2.5l0,0C25,18.5,26.2,19.6,26.2,21L26.2,21z M27.8,23.2c0,1.2-1,2.1-2.1,2.1l0,0h-4.2
		c-1.2,0-2.1-1-2.1-2.1V19c0-1.2,1-2.1,2.1-2.1l0,0h4.2c1.2,0,2.1,1,2.1,2.1l0,0V23.2z M28.8,19c0-1.7-1.4-3.1-3.1-3.1h-4.2
		c-1.7,0-3.1,1.4-3.1,3.1l0,0v4.2c0,1.7,1.4,3.1,3.1,3.1l0,0h4.2c1.7,0,3.1-1.4,3.1-3.1V19z"/>
	<path class="st24" d="M26.8,18.3c0,0.3-0.3,0.6-0.6,0.6s-0.6-0.3-0.6-0.6c0-0.3,0.3-0.6,0.6-0.6S26.8,18,26.8,18.3L26.8,18.3z
		 M25.2,21c0-0.9-0.7-1.6-1.6-1.6S22,20.1,22,21s0.7,1.6,1.6,1.6l0,0C24.5,22.6,25.2,21.9,25.2,21L25.2,21L25.2,21z M26,21
		c0,1.4-1.1,2.6-2.5,2.6c-1.4,0-2.6-1.1-2.6-2.5s1.1-2.6,2.5-2.6l0,0C25,18.5,26,19.6,26,21L26,21z M27.7,23.2
		c0,1.2-0.9,2.1-2.1,2.1l0,0h-4.2c-1.1,0-2.1-0.9-2.1-2.1c0,0,0,0,0-0.1v-4.2c0-1.2,1-2.1,2.1-2.1h4.2c1.2,0,2.1,1,2.1,2.1l0,0
		L27.7,23.2z M28.7,19c0-1.7-1.4-3.1-3.1-3.1h-4.2c-1.7,0-3.1,1.4-3.1,3.1l0,0v4.2c0,1.7,1.4,3.1,3.1,3.1h4.1c1.7,0,3.1-1.4,3.1-3.1
		L28.7,19z"/>
	<path class="st25" d="M26.8,18.2c0,0.3-0.3,0.6-0.6,0.6s-0.6-0.3-0.6-0.6c0-0.3,0.3-0.6,0.6-0.6C26.5,17.6,26.8,17.9,26.8,18.2
		C26.8,18.2,26.8,18.2,26.8,18.2z M25.2,20.9c0-0.9-0.7-1.6-1.6-1.6S22,20,22,20.9s0.7,1.6,1.6,1.6l0,0
		C24.5,22.6,25.2,21.8,25.2,20.9z M26,20.9c0,1.4-1.1,2.5-2.5,2.5c-1.4,0-2.5-1.1-2.5-2.5s1.1-2.5,2.5-2.5
		C24.9,18.4,26,19.5,26,20.9L26,20.9z M27.7,23.1c0,1.2-1,2.1-2.1,2.1l0,0h-4.2c-1.2,0-2.1-1-2.1-2.1v-4.2c0-1.2,1-2.1,2.1-2.1l0,0
		h4.2c1.2,0,2.1,1,2.1,2.1l0,0V23.1z M28.7,18.9c0-1.7-1.4-3.1-3.1-3.1h-4.2c-1.7,0-3.1,1.4-3.1,3.1l0,0V23c0,1.7,1.4,3.1,3.1,3.1
		l0,0h4.2c1.7,0,3.1-1.4,3.1-3.1V18.9z"/>
	<path class="st26" d="M26.8,18.2c0,0.3-0.3,0.6-0.6,0.6s-0.6-0.3-0.6-0.6s0.3-0.6,0.6-0.6l0,0C26.5,17.6,26.8,17.8,26.8,18.2z
		 M25,20.9c0-0.9-0.7-1.6-1.6-1.6s-1.6,0.7-1.6,1.6s0.7,1.6,1.6,1.6l0,0C24.3,22.5,25,21.8,25,20.9z M26,20.9c0,1.4-1.1,2.5-2.5,2.5
		S21,22.3,21,20.9s1.1-2.5,2.5-2.5C24.8,18.4,26,19.5,26,20.9L26,20.9z M27.7,23c0,1.2-1,2.1-2.1,2.1h-4.3c-1.2,0-2.1-1-2.1-2.1
		v-4.2c0-1.2,1-2.1,2.1-2.1l0,0h4.2c1.2,0,2.1,1,2.1,2.1l0,0V23H27.7z M28.7,18.9c0-1.7-1.4-3.1-3.1-3.1h-4.2
		c-1.7,0-3.1,1.4-3.1,3.1l0,0v4.2c0,1.7,1.4,3.1,3.1,3.1h4.2c1.7,0,3.1-1.4,3.1-3.1V18.9z"/>
	<path class="st27" d="M26.8,18.1c0,0.3-0.3,0.6-0.6,0.6s-0.6-0.3-0.6-0.6s0.3-0.6,0.6-0.6l0,0C26.5,17.5,26.8,17.8,26.8,18.1z
		 M25,20.9c0-0.9-0.7-1.6-1.6-1.6s-1.6,0.7-1.6,1.6s0.7,1.6,1.6,1.6l0,0C24.3,22.5,25,21.8,25,20.9z M26,20.9c0,1.4-1.1,2.6-2.5,2.6
		s-2.6-1.1-2.6-2.5s1.1-2.6,2.5-2.6l0,0C24.8,18.3,26,19.4,26,20.9z M27.5,23c0,1.2-1,2.1-2.1,2.1h-4.2c-1.2,0-2.1-1-2.1-2.1l0,0
		v-4.2c0-1.2,1-2.1,2.1-2.1l0,0h4.2c1.2,0,2.1,1,2.1,2.1l0,0V23z M28.5,18.8c0-1.7-1.4-3.1-3.1-3.1l0,0h-4.2c-1.7,0-3.1,1.4-3.1,3.1
		l0,0V23c0,1.7,1.4,3.1,3.1,3.1h4.2c1.7,0,3.1-1.4,3.1-3.1l0,0V18.8z"/>
	<path class="st28" d="M26.7,18.1c0,0.3-0.3,0.6-0.6,0.6s-0.6-0.3-0.6-0.6c0-0.3,0.3-0.6,0.6-0.6C26.3,17.5,26.7,17.7,26.7,18.1
		L26.7,18.1z M25,20.8c0-0.9-0.7-1.6-1.6-1.6s-1.6,0.7-1.6,1.6s0.7,1.6,1.6,1.6l0,0C24.3,22.4,25,21.7,25,20.8z M26,20.8
		c0,1.4-1.1,2.6-2.5,2.6c-1.4,0-2.6-1.1-2.6-2.5s1.1-2.6,2.5-2.6l0,0C24.8,18.3,25.8,19.4,26,20.8z M27.5,23c0,1.2-1,2.1-2.1,2.1
		l0,0h-4.2c-1.2,0-2.1-1-2.1-2.1l0,0v-4.2c0-1.2,1-2.1,2.1-2.1h4.2c1.2,0,2.1,1,2.1,2.1V23z M28.5,18.8c0-1.7-1.4-3.1-3.1-3.1h-4.2
		c-1.7,0-3.1,1.4-3.1,3.1l0,0v4.1c0,1.7,1.4,3.1,3.1,3.1l0,0h4.2c1.7,0,3.1-1.4,3.1-3.1l0,0V18.8z"/>
	<path class="st29" d="M26.7,18.1c0,0.3-0.3,0.6-0.6,0.6s-0.6-0.3-0.6-0.6c0-0.3,0.3-0.6,0.6-0.6S26.7,17.7,26.7,18.1L26.7,18.1z
		 M25,20.8c0-0.9-0.7-1.6-1.6-1.6s-1.6,0.7-1.6,1.6s0.7,1.6,1.6,1.6l0,0C24.3,22.4,25,21.7,25,20.8z M25.8,20.8
		c0,1.4-1.1,2.5-2.5,2.5c-1.4,0-2.5-1.1-2.5-2.5s1.1-2.5,2.5-2.5C24.8,18.2,25.8,19.4,25.8,20.8z M27.5,22.9c0,1.2-1,2.1-2.1,2.1
		l0,0h-4.2c-1.2,0-2.1-1-2.1-2.1v-4.2c0-1.2,1-2.1,2.1-2.1h4.2c1.2,0,2.1,1,2.1,2.1l0,0V22.9z M28.5,18.8c0-1.7-1.4-3.1-3.1-3.1l0,0
		h-4.2c-1.7,0-3.1,1.4-3.1,3.1l0,0v4.1c0,1.7,1.4,3.1,3.1,3.1l0,0h4.2c1.7,0,3.1-1.4,3.1-3.1V18.8z"/>
	<path class="st30" d="M26.5,18c0,0.3-0.3,0.6-0.6,0.6s-0.6-0.3-0.6-0.6s0.3-0.6,0.6-0.6l0,0C26.3,17.4,26.5,17.7,26.5,18z M25,20.7
		c0-0.9-0.7-1.6-1.6-1.6s-1.6,0.7-1.6,1.6s0.7,1.6,1.6,1.6C24.1,22.4,24.8,21.7,25,20.7L25,20.7z M25.8,20.7c0,1.4-1.1,2.5-2.6,2.5
		c-1.4,0-2.5-1.1-2.5-2.6c0-1.4,1.1-2.5,2.5-2.5C24.7,18.2,25.8,19.3,25.8,20.7L25.8,20.7z M27.5,22.9c0,1.2-1,2.1-2.1,2.1h-4.2
		c-1.2,0-2.1-1-2.1-2.1v-4.2c0-1.2,1-2.1,2.1-2.1h4.2c1.2,0,2.1,1,2.1,2.1l0,0V22.9z M28.5,18.7c0-1.7-1.4-3.1-3.1-3.1h-4.2
		c-1.7,0-3.1,1.4-3.1,3.1l0,0v4.2c0,1.7,1.4,3.1,3.1,3.1h4.1c1.7,0,3.1-1.4,3.1-3.1L28.5,18.7z"/>
	<path class="st31" d="M26.5,18c0,0.3-0.3,0.6-0.6,0.6s-0.6-0.3-0.6-0.6c0-0.3,0.3-0.6,0.6-0.6S26.5,17.6,26.5,18L26.5,18z
		 M24.8,20.7c0-0.9-0.7-1.6-1.6-1.6s-1.6,0.7-1.6,1.6s0.7,1.6,1.6,1.6l0,0C24.1,22.3,24.8,21.6,24.8,20.7z M25.8,20.7
		c0,1.4-1.1,2.6-2.5,2.6c-1.4,0-2.6-1.1-2.6-2.5s1.1-2.6,2.5-2.6l0,0C24.7,18.2,25.8,19.3,25.8,20.7z M27.3,22.8
		c0,1.2-1,2.1-2.1,2.1l0,0H21c-1.2,0-2.1-1-2.1-2.1l0,0v-4.2c0-1.2,1-2.1,2.1-2.1h4.2c1.2,0,2.1,1,2.1,2.1l0,0V22.8z M28.3,18.7
		c0-1.7-1.4-3.1-3.1-3.1H21c-1.7,0-3.1,1.4-3.1,3.1l0,0v4.2c0,1.7,1.4,3.1,3.1,3.1h4.2c1.7,0,3.1-1.4,3.1-3.1V18.7z"/>
	<path class="st32" d="M26.5,17.9c0,0.3-0.3,0.6-0.6,0.6s-0.6-0.3-0.5-0.7c0-0.3,0.3-0.5,0.5-0.5C26.3,17.3,26.5,17.6,26.5,17.9z
		 M24.8,20.6c0-0.9-0.8-1.6-1.7-1.6c-0.9,0-1.6,0.8-1.6,1.7c0,0.9,0.8,1.6,1.7,1.6l0,0C24.1,22.3,24.8,21.5,24.8,20.6z M25.8,20.6
		c0,1.4-1.1,2.5-2.5,2.5c-1.4,0-2.5-1.1-2.5-2.5s1.1-2.5,2.5-2.5l0,0C24.7,18.1,25.8,19.3,25.8,20.6z M27.3,22.8
		c0,1.2-0.9,2.1-2.1,2.1H21c-1.2,0-2.1-1-2.1-2.1l0,0v-4.2c0-1.2,1-2.1,2.1-2.1h4.2c1.2,0,2.1,1,2.1,2.1l0,0V22.8z M28.3,18.6
		c0-1.7-1.4-3.1-3.1-3.1H21c-1.7,0-3.1,1.4-3.1,3.1l0,0v4.1c0,1.7,1.4,3.1,3.1,3.1l0,0h4.2c1.7,0,3.1-1.4,3.1-3.1V18.6z"/>
	<path class="st33" d="M26.5,17.9c0,0.3-0.3,0.6-0.6,0.6s-0.6-0.3-0.6-0.6s0.3-0.6,0.6-0.6l0,0C26.2,17.3,26.5,17.5,26.5,17.9z
		 M24.8,20.6c0-0.9-0.7-1.6-1.6-1.6s-1.6,0.7-1.6,1.6s0.7,1.6,1.6,1.6l0,0C24,22.2,24.8,21.5,24.8,20.6z M25.8,20.6
		c0,1.4-1.1,2.5-2.6,2.5c-1.4,0-2.5-1.1-2.5-2.6c0-1.4,1.1-2.5,2.6-2.5l0,0C24.5,18,25.8,19.2,25.8,20.6L25.8,20.6z M27.3,22.7
		c0,1.2-1,2.1-2.1,2.1l0,0H21c-1.2,0-2.1-1-2.1-2.1v-4.2c0-1.2,1-2.1,2.1-2.1l0,0h4.2c1.2,0,2.1,1,2.1,2.1l0,0V22.7z M28.3,18.6
		c0-1.7-1.4-3.1-3.1-3.1H21c-1.7,0-3.1,1.4-3.1,3.1l0,0v4.2c0,1.7,1.4,3.1,3.1,3.1l0,0h4.2c1.7,0,3.1-1.4,3.1-3.1V18.6z"/>
	<path class="st34" d="M26.5,17.8c0,0.3-0.3,0.6-0.6,0.6s-0.6-0.3-0.6-0.6c0-0.3,0.3-0.6,0.6-0.6S26.5,17.5,26.5,17.8L26.5,17.8z
		 M24.8,20.6c0-0.9-0.7-1.6-1.6-1.6s-1.6,0.7-1.6,1.6s0.7,1.6,1.6,1.6l0,0C24,22.2,24.8,21.4,24.8,20.6z M25.7,20.6
		c0,1.4-1.1,2.6-2.5,2.6c-1.4,0-2.6-1.1-2.6-2.5s1.1-2.6,2.5-2.6l0,0C24.5,18,25.7,19.1,25.7,20.6z M27.3,22.7c0,1.2-1,2.1-2.1,2.1
		l0,0H21c-1.2,0-2.1-1-2.1-2.1l0,0v-4.2c0-1.2,1-2.1,2.1-2.1h4.2c1.2,0,2.1,1,2.1,2.1V22.7z M28.3,18.5c0-1.7-1.4-3.1-3.1-3.1H21
		c-1.7,0-3.1,1.4-3.1,3.1l0,0v4.2c0,1.7,1.4,3.1,3.1,3.1H25c1.7,0,3.1-1.4,3.1-3.1L28.3,18.5z"/>
	<path class="st35" d="M26.3,17.8c0,0.3-0.3,0.6-0.6,0.6s-0.6-0.3-0.6-0.6c0-0.3,0.3-0.6,0.6-0.6S26.3,17.4,26.3,17.8L26.3,17.8z
		 M24.8,20.5c0-0.9-0.7-1.6-1.6-1.6s-1.6,0.7-1.6,1.6s0.7,1.6,1.6,1.6l0,0C24,22.1,24.8,21.4,24.8,20.5z M25.7,20.5
		c0,1.4-1.1,2.5-2.5,2.5c-1.4,0-2.5-1.1-2.5-2.5s1.1-2.5,2.5-2.5C24.6,18,25.7,19.1,25.7,20.5L25.7,20.5z M27.3,22.7
		c0,1.2-1,2.1-2.1,2.1H21c-1.2,0-2.1-1-2.1-2.1v-4.2c0-1.2,1-2.1,2.1-2.1l0,0h4.2c1.1-0.1,2.1,0.9,2.1,2l0,0V22.7z M28.3,18.5
		c0-1.7-1.4-3.1-3.1-3.1H21c-1.7,0-3.1,1.4-3.1,3.1l0,0v4.1c0,1.7,1.4,3.1,3.1,3.1h4.2c1.7,0,3.1-1.4,3.1-3.1V18.5z"/>
	<path class="st36" d="M26.3,17.8c0,0.3-0.3,0.6-0.6,0.6s-0.6-0.3-0.6-0.6s0.3-0.6,0.6-0.6l0,0C26,17.2,26.3,17.4,26.3,17.8z
		 M24.7,20.5c0-0.9-0.7-1.6-1.6-1.6s-1.6,0.7-1.6,1.6s0.7,1.6,1.6,1.6l0,0C24,22.1,24.7,21.4,24.7,20.5z M25.5,20.5
		c0,1.4-1.1,2.5-2.5,2.5c-1.4,0-2.5-1.1-2.5-2.5S21.6,18,23,18C24.5,17.9,25.5,19.1,25.5,20.5L25.5,20.5z M27.2,22.6
		c0,1.2-1,2.1-2.1,2.1h-4.2c-1.2,0-2.1-1-2.1-2.1v-4.2c0-1.2,0.9-2.1,2.1-2.1l0,0h4.2c1.2,0,2.1,0.9,2.1,2.1l0,0V22.6z M28.2,18.4
		c0-1.7-1.4-3.1-3.1-3.1h-4.2c-1.7,0-3.1,1.4-3.1,3.1l0,0v4.2c0,1.7,1.4,3.1,3.1,3.1h4.2c1.7,0,3.1-1.4,3.1-3.1V18.4z"/>
	<path class="st37" d="M26.3,17.7c0,0.3-0.3,0.6-0.6,0.6s-0.6-0.3-0.6-0.6s0.3-0.6,0.6-0.6l0,0C26,17.1,26.3,17.4,26.3,17.7z
		 M24.5,20.4c0-0.9-0.7-1.6-1.6-1.6s-1.6,0.7-1.6,1.6S22,22,22.9,22l0,0C23.9,22.1,24.5,21.4,24.5,20.4
		C24.7,20.4,24.7,20.4,24.5,20.4L24.5,20.4z M25.5,20.4c0,1.4-1.1,2.6-2.5,2.6c-1.4,0-2.6-1.1-2.6-2.5s1.1-2.6,2.5-2.6l0,0
		C24.3,17.9,25.5,19,25.5,20.4L25.5,20.4L25.5,20.4z M27,22.6c0,1.2-1,2.1-2.1,2.1h-4.1c-1.2,0-2.1-1-2.1-2.1v-4.2
		c0-1.2,1-2.1,2.1-2.1H25c1.2,0,2.1,1,2.1,2.1l0,0L27,22.6z M28,18.4c0-1.7-1.4-3.1-3.1-3.1l0,0h-4.2c-1.7,0-3.1,1.4-3.1,3.1l0,0
		v4.2c0,1.7,1.4,3.1,3.1,3.1l0,0H25c1.7,0,3.1-1.4,3.1-3.1l0,0V18.4z"/>
	<path class="st38" d="M26.3,17.7c0,0.3-0.3,0.6-0.6,0.6s-0.6-0.3-0.6-0.6c0-0.3,0.3-0.6,0.6-0.6S26.3,17.3,26.3,17.7L26.3,17.7z
		 M24.5,20.4c0-0.9-0.7-1.6-1.6-1.6s-1.6,0.7-1.6,1.6S22,22,22.9,22l0,0C23.9,22,24.5,21.3,24.5,20.4L24.5,20.4z M25.5,20.4
		c0,1.4-1.1,2.5-2.5,2.5c-1.4,0-2.5-1.1-2.5-2.5s1.1-2.5,2.5-2.5C24.3,17.8,25.5,19,25.5,20.4L25.5,20.4z M27.2,22.5
		c0,1.2-1,2.1-2.1,2.1l0,0h-4.2c-1.2,0-2.1-1-2.1-2.1l0,0v-4.2c0-1.2,1-2.1,2.1-2.1l0,0h4.2c1.2,0,2.1,1,2.1,2.1l0,0V22.5z
		 M28.2,18.4c0-1.7-1.4-3.1-3.1-3.1l0,0h-4.2c-1.7,0-3.1,1.4-3.1,3.1l0,0v4.1c0,1.7,1.4,3.1,3.1,3.1l0,0h4.2c1.7,0,3.1-1.4,3.1-3.1
		l0,0V18.4z"/>
	<path class="st39" d="M26.2,17.6c0,0.3-0.3,0.6-0.6,0.6l0,0c-0.3,0-0.6-0.2-0.7-0.5c0-0.3,0.2-0.6,0.5-0.7c0.1,0,0.1,0,0.2,0
		C26,17,26.2,17.3,26.2,17.6z M24.5,20.3c0-0.9-0.7-1.6-1.6-1.6s-1.7,0.7-1.7,1.6s0.7,1.6,1.6,1.6l0,0
		C23.9,21.9,24.5,21.2,24.5,20.3z M25.5,20.3c0,1.4-1.1,2.5-2.5,2.5c-1.4,0-2.5-1.1-2.5-2.5s1.1-2.5,2.5-2.5
		C24.3,17.8,25.5,18.9,25.5,20.3L25.5,20.3z M27,22.4c0,1.2-1,2.1-2.1,2.1l0,0h-4.2c-1.2,0-2.1-1-2.1-2.1v-4.1c0-1.2,1-2.1,2.1-2.1
		l0,0H25c1.2,0,2.1,1,2.1,2.1V22.4z M28,18.3c0-1.7-1.4-3.1-3.1-3.1l0,0h-4.2c-1.7,0-3.1,1.4-3.1,3.1l0,0v4.1c0,1.7,1.4,3.1,3.1,3.1
		l0,0H25c1.7,0,3.1-1.4,3.1-3.1V18.3z"/>
	<path class="st40" d="M26.2,17.6c0,0.3-0.3,0.6-0.6,0.6S25,17.9,25,17.6s0.3-0.6,0.6-0.6l0,0C25.8,17,26.2,17.2,26.2,17.6z
		 M24.5,20.3c0-0.9-0.7-1.6-1.6-1.6s-1.6,0.7-1.6,1.6s0.7,1.6,1.6,1.6l0,0C23.8,21.9,24.5,21.2,24.5,20.3z M25.3,20.3
		c0,1.4-1.1,2.5-2.6,2.5c-1.4,0-2.5-1.1-2.5-2.6c0-1.4,1.1-2.5,2.6-2.5l0,0C24.3,17.7,25.5,18.9,25.3,20.3
		C25.5,20.3,25.5,20.3,25.3,20.3z M27,22.4c0,1.2-1,2.1-2.1,2.1l0,0h-4.2c-1.2,0-2.1-1-2.1-2.1v-4.1c0-1.2,1-2.1,2.1-2.1h4.2
		c1.2,0,2.1,1,2.1,2.1V22.4z M28,18.3c0-1.7-1.4-3.1-3.1-3.1h-4.2c-1.7,0-3.1,1.4-3.1,3.1l0,0v4.2c0,1.7,1.4,3.1,3.1,3.1l0,0h4.2
		c1.7,0,3.1-1.4,3.1-3.1V18.3z"/>
	<path class="st41" d="M26.2,17.5c0,0.3-0.3,0.6-0.6,0.6S25,17.8,25,17.5c0-0.3,0.3-0.6,0.6-0.6C25.8,16.9,26.2,17.2,26.2,17.5
		L26.2,17.5z M24.5,20.3c0-0.9-0.7-1.6-1.6-1.6s-1.6,0.7-1.6,1.6s0.7,1.6,1.6,1.6l0,0C23.8,21.9,24.5,21.2,24.5,20.3z M25.3,20.3
		c0,1.4-1.1,2.6-2.5,2.6s-2.6-1.1-2.6-2.5s1.1-2.6,2.5-2.6l0,0C24.3,17.8,25.3,18.9,25.3,20.3z M27,22.4c0,1.2-1,2.1-2.1,2.1l0,0
		h-4.2c-1.2,0-2.1-1-2.1-2.1l0,0v-4.2c0-1.2,1-2.1,2.1-2.1h4.2c1.2,0,2.1,1,2.1,2.1l0,0V22.4z M28,18.3c0-1.7-1.4-3.1-3.1-3.1h-4.2
		c-1.7,0-3.1,1.4-3.1,3.1l0,0v4.2c0,1.7,1.4,3.1,3.1,3.1h4.1c1.7,0,3.1-1.4,3.1-3.1L28,18.3z"/>
	<path class="st42" d="M26,17.5c0,0.3-0.3,0.6-0.6,0.6s-0.6-0.3-0.5-0.7c0-0.3,0.3-0.5,0.5-0.5C25.8,16.9,26,17.2,26,17.5L26,17.5z
		 M24.5,20.2c0-0.9-0.7-1.6-1.6-1.6s-1.6,0.7-1.6,1.6s0.7,1.6,1.6,1.6l0,0C23.6,21.8,24.5,21.1,24.5,20.2z M25.3,20.2
		c0,1.4-1.1,2.5-2.5,2.5s-2.6-1.1-2.6-2.5s1.1-2.5,2.5-2.5S25.3,18.8,25.3,20.2L25.3,20.2z M27,22.4c0,1.2-1,2.1-2.1,2.1l0,0h-4.2
		c-1.2,0-2.1-1-2.1-2.1v-4.2c0-1.2,1-2.1,2.1-2.1h4.2c1.2,0,2.1,1,2.1,2.1l0,0V22.4z M28,18.2c0-1.7-1.4-3.1-3.1-3.1h-4.2
		c-1.7,0-3.1,1.4-3.1,3.1l0,0v4.1c0,1.7,1.4,3.1,3.1,3.1h4.2c1.7,0,3.1-1.4,3.1-3.1V18.2z"/>
	<path class="st43" d="M26,17.5c0,0.3-0.3,0.6-0.6,0.6s-0.6-0.3-0.6-0.6s0.3-0.6,0.6-0.6l0,0C25.8,16.9,26,17.1,26,17.5z M24.3,20.2
		c0-0.9-0.7-1.6-1.6-1.6s-1.6,0.7-1.6,1.6s0.7,1.6,1.6,1.6l0,0C23.6,21.8,24.3,21.1,24.3,20.2z M25.3,20.2c0,1.4-1.1,2.5-2.6,2.5
		c-1.4,0-2.5-1.1-2.5-2.6c0-1.4,1.1-2.5,2.6-2.5l0,0C24.1,17.6,25.3,18.8,25.3,20.2L25.3,20.2z M26.8,22.3c0,1.2-1,2.1-2.1,2.1l0,0
		h-4.2c-1.2,0-2.1-1-2.1-2.1v-4.2c0-1.2,1-2.1,2.1-2.1h4.2c1.2,0,2.1,1,2.1,2.1l0,0V22.3z M27.8,18.1c0-1.7-1.4-3.1-3.1-3.1h-4.2
		c-1.7,0-3.1,1.4-3.1,3.1l0,0v4.2c0,1.7,1.4,3.1,3.1,3.1h4.2c1.7,0,3.1-1.4,3.1-3.1V18.1z"/>
	<path class="st44" d="M26,17.4c0,0.3-0.3,0.6-0.6,0.6s-0.6-0.3-0.6-0.6c0-0.3,0.3-0.6,0.6-0.6S26,17.1,26,17.4L26,17.4z M24.3,20.1
		c0-0.9-0.7-1.6-1.6-1.6s-1.6,0.7-1.6,1.6s0.7,1.6,1.6,1.6l0,0C23.5,21.7,24.3,21,24.3,20.1z M25.3,20.1c0,1.4-1.1,2.6-2.5,2.6
		s-2.6-1.1-2.6-2.5s1.1-2.6,2.5-2.6l0,0C24,17.6,25.3,18.7,25.3,20.1L25.3,20.1L25.3,20.1z M26.8,22.3c0,1.2-1,2.1-2.1,2.1l0,0h-4.2
		c-1.2,0-2.1-1-2.1-2.1l0,0v-4.2c0-1.2,1-2.1,2.1-2.1h4.2c1.2,0,2.1,1,2.1,2.1l0,0V22.3z M27.8,18.1c0-1.7-1.4-3.1-3.1-3.1h-4.2
		c-1.7,0-3.1,1.4-3.1,3.1l0,0v4.2c0,1.7,1.4,3.1,3.1,3.1h4.2c1.7,0,3.1-1.4,3.1-3.1V18.1z"/>
	<path class="st45" d="M26,17.4c0,0.3-0.3,0.6-0.6,0.6s-0.6-0.3-0.6-0.6c0-0.3,0.3-0.6,0.6-0.6S26,17,26,17.4L26,17.4z M24.3,20.1
		c0-0.9-0.7-1.6-1.6-1.6S21,19.2,21,20.1s0.7,1.6,1.6,1.6l0,0C23.5,21.7,24.3,21,24.3,20.1z M25.2,20.1c0,1.4-1.1,2.5-2.5,2.5
		s-2.5-1.1-2.5-2.5s1.1-2.5,2.5-2.5C24,17.5,25.2,18.7,25.2,20.1L25.2,20.1L25.2,20.1z M26.8,22.2c0,1.2-1,2.1-2.1,2.1h-4.1
		c-1.2,0-2.1-1-2.1-2.1V18c0-1.2,1-2.1,2.1-2.1l0,0h4.2c1.2,0,2.1,1,2.1,2.1l0,0L26.8,22.2z M27.8,18.1c0-1.7-1.4-3.1-3.1-3.1h-4.2
		c-1.7,0-3.1,1.4-3.1,3.1l0,0v4.1c0,1.7,1.4,3.1,3.1,3.1h4.2c1.7,0,3.1-1.4,3.1-3.1V18.1z"/>
	<path class="st46" d="M25.8,17.3c0,0.3-0.3,0.6-0.6,0.6s-0.6-0.3-0.6-0.6s0.3-0.6,0.6-0.6l0,0C25.7,16.7,25.8,17,25.8,17.3z
		 M24.3,20c0-0.9-0.7-1.6-1.6-1.6S21,19.1,21,20s0.7,1.6,1.6,1.6l0,0C23.5,21.7,24.3,20.9,24.3,20z M25.2,20c0,1.4-1.1,2.5-2.6,2.5
		c-1.4,0-2.5-1.1-2.5-2.6c0-1.4,1.1-2.5,2.6-2.5l0,0C24,17.5,25.2,18.6,25.2,20L25.2,20z M26.8,22.2c0,1.2-1,2.1-2.1,2.1l0,0h-4.2
		c-1.2,0-2.1-1-2.1-2.1V18c0-1.2,1-2.1,2.1-2.1l0,0h4.2c1.2,0,2.1,1,2.1,2.1l0,0V22.2z M27.8,18c0-1.7-1.4-3.1-3.1-3.1h-4.2
		c-1.7,0-3.1,1.4-3.1,3.1l0,0v4.2c0,1.7,1.4,3.1,3.1,3.1l0,0h4.2c1.7,0,3.1-1.4,3.1-3.1V18z"/>
	<path class="st47" d="M25.8,17.3c0,0.3-0.3,0.6-0.6,0.6s-0.6-0.3-0.6-0.6s0.3-0.6,0.6-0.6l0,0C25.5,16.7,25.8,17,25.8,17.3z
		 M24.1,20c0-0.9-0.7-1.6-1.6-1.6s-1.6,0.7-1.6,1.6s0.7,1.6,1.6,1.6l0,0C23.5,21.6,24.1,20.9,24.1,20L24.1,20L24.1,20z M25,20
		c0,1.4-1.1,2.6-2.5,2.6s-2.6-1.1-2.6-2.5s1.1-2.6,2.5-2.6l0,0C24,17.5,25,18.6,25,20L25,20z M26.7,22.2c0,1.2-0.9,2.1-2.1,2.1l0,0
		h-4.2c-1.1,0-2.1-0.9-2.1-2.1c0,0,0,0,0-0.1v-4.2c0-1.2,1-2.1,2.1-2.1l0,0h4.2c1.2,0,2.1,1,2.1,2.1l0,0L26.7,22.2z M27.7,18
		c0-1.7-1.4-3.1-3.1-3.1l0,0h-4.2c-1.7,0-3.1,1.4-3.1,3.1l0,0v4.2c0,1.7,1.4,3.1,3.1,3.1h4.2c1.7,0,3.1-1.4,3.1-3.1l0,0V18z"/>
	<path class="st48" d="M25.8,17.2c0,0.3-0.3,0.6-0.6,0.6s-0.6-0.3-0.6-0.6c0-0.3,0.3-0.6,0.6-0.6S25.8,16.9,25.8,17.2L25.8,17.2z
		 M24.1,20c0-0.9-0.7-1.6-1.6-1.6s-1.6,0.7-1.6,1.6s0.7,1.6,1.6,1.6l0,0C23.5,21.6,24.1,20.9,24.1,20z M25,20c0,1.4-1.1,2.5-2.5,2.5
		S20,21.4,20,20s1.1-2.5,2.5-2.5C24,17.4,25,18.5,25,20z M26.7,22.1c0,1.2-1,2.1-2.1,2.1l0,0h-4.2c-1.2,0-2.1-1-2.1-2.1v-4.2
		c0-1.2,1-2.1,2.1-2.1h4.2c1.2,0,2.1,1,2.1,2.1l0,0V22.1z M27.7,17.9c0-1.7-1.4-3.1-3.1-3.1h-4.2c-1.7,0-3.1,1.4-3.1,3.1l0,0V22
		c0,1.7,1.4,3.1,3.1,3.1l0,0h4.2c1.7,0,3.1-1.4,3.1-3.1l0,0V17.9z"/>
	<path class="st49" d="M25.8,17.2c0,0.3-0.3,0.6-0.6,0.6l0,0c-0.3,0-0.6-0.2-0.7-0.5c0-0.3,0.2-0.6,0.5-0.7c0.1,0,0.1,0,0.2,0
		C25.5,16.6,25.8,16.9,25.8,17.2z M24,19.9c0-0.9-0.7-1.6-1.6-1.6s-1.6,0.7-1.6,1.6s0.7,1.6,1.6,1.6l0,0C23.4,21.5,24,20.8,24,19.9z
		 M25,19.9c0,1.4-1.1,2.5-2.5,2.5S20,21.3,20,19.9s1.1-2.5,2.5-2.5S25,18.5,25,19.9L25,19.9z M26.7,22.1c0,1.2-1,2.1-2.1,2.1h-4.2
		c-1.2,0-2.1-1-2.1-2.1v-4.2c0-1.2,1-2.1,2.1-2.1h4.2c1.2,0,2.1,1,2.1,2.1l0,0V22.1z M27.7,17.9c0-1.7-1.4-3.1-3.1-3.1l0,0h-4.2
		c-1.7,0-3.1,1.4-3.1,3.1V22c0,1.7,1.4,3.1,3.1,3.1l0,0h4.2c1.7,0,3.1-1.4,3.1-3.1V17.9z"/>
	<path class="st50" d="M25.8,17.2c0,0.3-0.3,0.6-0.6,0.6s-0.6-0.3-0.6-0.6s0.3-0.6,0.6-0.6l0,0C25.5,16.6,25.8,16.8,25.8,17.2z
		 M24,19.9c0-0.9-0.7-1.6-1.6-1.6s-1.6,0.7-1.6,1.6s0.7,1.6,1.6,1.6l0,0C23.4,21.5,24,20.8,24,19.9z M25,19.9c0,1.4-1.2,2.5-2.6,2.5
		s-2.5-1.2-2.5-2.6s1.2-2.5,2.6-2.5S25,18.4,25,19.9C25,19.8,25,19.9,25,19.9z M26.5,22c0,1.2-1,2.1-2.1,2.1l0,0h-4.2
		c-1.2,0-2.1-1-2.1-2.1v-4.2c0-1.2,1-2.1,2.1-2.1h4.2c1.2,0,2.1,1,2.1,2.1V22z M27.5,17.8c0-1.7-1.4-3.1-3.1-3.1l0,0h-4.2
		c-1.7,0-3.1,1.4-3.1,3.1l0,0V22c0,1.7,1.4,3.1,3.1,3.1h4.2c1.7,0,3.1-1.4,3.1-3.1l0,0V17.8z"/>
	<path class="st51" d="M25.7,17.1c0,0.3-0.3,0.6-0.6,0.6s-0.6-0.3-0.6-0.6c0-0.3,0.3-0.6,0.6-0.6C25.5,16.5,25.7,16.8,25.7,17.1
		L25.7,17.1z M24,19.8c0-0.9-0.7-1.6-1.6-1.6s-1.6,0.7-1.6,1.6s0.7,1.6,1.6,1.6l0,0C23.3,21.5,24,20.7,24,19.8z M25,19.8
		c0,1.4-1.1,2.6-2.5,2.6s-2.6-1.1-2.6-2.5s1.1-2.6,2.5-2.6l0,0C23.8,17.3,25,18.4,25,19.8z M26.5,22c0,1.2-1,2.1-2.1,2.1l0,0h-4.2
		c-1.2,0-2.1-1-2.1-2.1l0,0v-4.2c0-1.2,1-2.1,2.1-2.1h4.2c1.2,0,2.1,1,2.1,2.1l0,0V22z M27.5,17.8c0-1.7-1.4-3.1-3.1-3.1h-4.2
		c-1.7,0-3.1,1.4-3.1,3.1l0,0V22c0,1.7,1.4,3.1,3.1,3.1l0,0h4.2c1.7,0,3.1-1.4,3.1-3.1V17.8z"/>
	<path class="st52" d="M25.7,17.1c0,0.3-0.3,0.6-0.6,0.6s-0.6-0.3-0.5-0.7c0-0.3,0.3-0.5,0.5-0.5C25.3,16.5,25.7,16.7,25.7,17.1
		L25.7,17.1z M24,19.8c0-0.9-0.7-1.6-1.6-1.6s-1.6,0.7-1.6,1.6s0.7,1.6,1.6,1.6l0,0C23.3,21.4,24,20.7,24,19.8z M24.8,19.8
		c0,1.4-1.1,2.5-2.5,2.5s-2.5-1.1-2.5-2.5s1.1-2.5,2.5-2.5C23.8,17.2,24.8,18.4,24.8,19.8L24.8,19.8z M26.5,21.9
		c0,1.2-1,2.1-2.1,2.1l0,0h-4.2c-1.2,0-2.1-1-2.1-2.1v-4.2c0-1.2,1-2.1,2.1-2.1l0,0h4.2c1.2,0,2.1,1,2.1,2.1l0,0V21.9z M27.5,17.8
		c0-1.7-1.4-3.1-3.1-3.1l0,0h-4.2c-1.7,0-3.1,1.4-3.1,3.1l0,0v4.1c0,1.7,1.4,3.1,3.1,3.1l0,0h4.2c1.7,0,3.1-1.4,3.1-3.1V17.8z"/>
	<path class="st53" d="M25.5,17c0,0.3-0.3,0.6-0.6,0.6s-0.6-0.3-0.6-0.6s0.3-0.6,0.6-0.6l0,0C25.3,16.4,25.5,16.7,25.5,17z M24,19.7
		c0-0.9-0.7-1.6-1.6-1.6s-1.6,0.7-1.6,1.6s0.7,1.6,1.6,1.6l0,0C23.1,21.4,24,20.6,24,19.7z M24.8,19.7c0,1.4-1.1,2.5-2.6,2.5
		c-1.4,0-2.5-1.1-2.5-2.6c0-1.4,1.1-2.5,2.6-2.5l0,0C23.8,17.2,24.8,18.3,24.8,19.7L24.8,19.7z M26.5,21.9c0,1.2-1,2.1-2.1,2.1l0,0
		h-4.2c-1.2,0-2.1-1-2.1-2.1v-4.2c0-1.2,1-2.1,2.1-2.1l0,0h4.2c1.2,0,2.1,1,2.1,2.1l0,0V21.9z M27.5,17.7c0-1.7-1.4-3.1-3.1-3.1
		h-4.2c-1.7,0-3.1,1.4-3.1,3.1l0,0v4.2c0,1.7,1.4,3.1,3.1,3.1l0,0h4.2c1.7,0,3.1-1.4,3.1-3.1V17.7z"/>
	<path class="st54" d="M25.5,17c0,0.3-0.3,0.6-0.7,0.5c-0.3,0-0.5-0.3-0.5-0.5c0-0.3,0.2-0.6,0.5-0.7s0.6,0.2,0.7,0.5
		C25.5,16.9,25.5,16.9,25.5,17z M23.9,19.7c0-0.9-0.7-1.6-1.6-1.6s-1.6,0.7-1.6,1.6s0.7,1.6,1.6,1.6l0,0
		C23.1,21.3,23.9,20.6,23.9,19.7z M24.8,19.7c0,1.4-1.1,2.6-2.5,2.6s-2.6-1.1-2.6-2.5s1.1-2.6,2.5-2.6l0,0
		C23.6,17.1,24.8,18.3,24.8,19.7z M26.3,21.8c0,1.2-1,2.1-2.1,2.1l0,0h-4.1c-1.2,0-2.1-1-2.1-2.1v-4.2c0-1.2,1-2.1,2.1-2.1l0,0h4.1
		c1.2,0,2.1,1,2.1,2.1l0,0V21.8z M27.3,17.7c0-1.7-1.4-3.1-3.1-3.1H20c-1.7,0-3.1,1.4-3.1,3.1l0,0v4.2c0,1.7,1.4,3.1,3.1,3.1h4.2
		c1.7,0,3.1-1.4,3.1-3.1V17.7z"/>
	<path class="st55" d="M25.5,16.9c0,0.3-0.3,0.6-0.6,0.6s-0.6-0.3-0.6-0.6c0-0.3,0.3-0.6,0.6-0.6S25.5,16.6,25.5,16.9L25.5,16.9z
		 M23.9,19.7c0-0.9-0.8-1.6-1.7-1.6c-0.9,0-1.6,0.8-1.6,1.7c0,0.9,0.8,1.6,1.7,1.6l0,0C23.1,21.3,23.9,20.5,23.9,19.7z M24.8,19.7
		c0,1.4-1.1,2.5-2.5,2.5s-2.5-1.1-2.5-2.5s1.1-2.5,2.5-2.5l0,0C23.6,17.1,24.8,18.3,24.8,19.7z M26.3,21.8c0,1.2-0.9,2.1-2.1,2.1H20
		c-1.2,0-2.1-1-2.1-2.1v-4.2c0-1.2,1-2.1,2.1-2.1l0,0h4.2c1.2,0,2.1,1,2.1,2.1l0,0V21.8z M27.3,17.6c0-1.7-1.4-3.1-3.1-3.1H20
		c-1.7,0-3.1,1.4-3.1,3.1l0,0v4.1c0,1.7,1.4,3.1,3.1,3.1l0,0h4.2c1.7,0,3.1-1.4,3.1-3.1V17.6z"/>
	<path class="st56" d="M25.5,16.9c0,0.3-0.3,0.6-0.6,0.6s-0.6-0.3-0.6-0.6s0.3-0.6,0.6-0.6l0,0C25.2,16.3,25.5,16.6,25.5,16.9z
		 M23.8,19.6c0-0.9-0.7-1.6-1.6-1.6s-1.6,0.7-1.6,1.6s0.7,1.6,1.6,1.6l0,0C23,21.2,23.8,20.5,23.8,19.6z M24.8,19.6
		c0,1.4-1.1,2.5-2.6,2.5c-1.4,0-2.5-1.1-2.5-2.6c0-1.4,1.1-2.5,2.6-2.5l0,0C23.5,17.1,24.8,18.2,24.8,19.6L24.8,19.6z M26.3,21.8
		c0,1.2-1,2.1-2.1,2.1H20c-1.2,0-2.1-1-2.1-2.1v-4.2c0-1.2,1-2.1,2.1-2.1h4.2c1.2,0,2.1,1,2.1,2.1V21.8z M27.3,17.6
		c0-1.7-1.4-3.1-3.1-3.1l0,0H20c-1.7,0-3.1,1.4-3.1,3.1l0,0v4.2c0,1.7,1.4,3.1,3.1,3.1h4.2c1.7,0,3.1-1.4,3.1-3.1V17.6z"/>
	<path class="st57" d="M25.5,16.9c0,0.3-0.2,0.6-0.5,0.7s-0.7-0.3-0.7-0.6c0-0.1,0-0.1,0-0.2c0-0.3,0.3-0.6,0.7-0.5
		C25.2,16.4,25.3,16.6,25.5,16.9z M23.8,19.6c0-0.9-0.7-1.6-1.6-1.6s-1.6,0.7-1.6,1.6s0.7,1.6,1.6,1.6l0,0
		C23,21.2,23.8,20.5,23.8,19.6z M24.7,19.6c0,1.4-1.1,2.6-2.5,2.6s-2.6-1.1-2.6-2.5s1.1-2.6,2.5-2.6l0,0
		C23.5,17,24.7,18.2,24.7,19.6z M26.3,21.7c0,1.2-1,2.1-2.1,2.1H20c-1.2,0-2.1-1-2.1-2.1v-4.2c0-1.2,1-2.1,2.1-2.1l0,0h4.2
		c1.2,0,2.1,1,2.1,2.1L26.3,21.7L26.3,21.7z M27.3,17.5c0-1.7-1.4-3.1-3.1-3.1l0,0H20c-1.7,0-3.1,1.4-3.1,3.1l0,0v4.2
		c0,1.7,1.4,3.1,3.1,3.1l0,0h4.1c1.7,0,3.1-1.4,3.1-3.1l0,0L27.3,17.5L27.3,17.5z"/>
	<path class="st58" d="M25.3,16.8c0,0.3-0.3,0.6-0.6,0.6s-0.6-0.3-0.6-0.6c0-0.3,0.3-0.6,0.6-0.6C25.2,16.2,25.3,16.5,25.3,16.8
		L25.3,16.8z M23.8,19.5c0-0.9-0.7-1.6-1.6-1.6s-1.6,0.7-1.6,1.6s0.7,1.6,1.6,1.6l0,0C23,21.2,23.8,20.4,23.8,19.5z M24.7,19.5
		c0,1.4-1.1,2.5-2.5,2.5s-2.5-1.1-2.5-2.5s1.1-2.5,2.5-2.5C23.5,17,24.7,18.1,24.7,19.5z M26.3,21.7c0,1.2-1,2.1-2.1,2.1l0,0H20
		c-1.2,0-2.1-1-2.1-2.1l0,0v-4.2c0-1.2,1-2.1,2.1-2.1h4.2c1.1-0.1,2.1,0.9,2.1,2.1l0,0V21.7z M27.3,17.5c0-1.7-1.4-3.1-3.1-3.1l0,0
		H20c-1.7,0-3.1,1.4-3.1,3.1l0,0v4.1c0,1.7,1.4,3.1,3.1,3.1h4.1c1.7,0,3.1-1.4,3.1-3.1l0,0L27.3,17.5z"/>
	<path class="st59" d="M25.3,16.8c0,0.3-0.3,0.6-0.6,0.6s-0.6-0.3-0.6-0.6s0.3-0.6,0.6-0.6l0,0C25,16.2,25.3,16.4,25.3,16.8z
		 M23.6,19.5c0-0.9-0.7-1.6-1.6-1.6s-1.6,0.7-1.6,1.6s0.7,1.6,1.6,1.6l0,0C23,21.1,23.6,20.4,23.6,19.5z M24.5,19.5
		c0,1.4-1.1,2.5-2.5,2.5s-2.5-1.1-2.5-2.5S20.6,17,22,17S24.5,18.1,24.5,19.5L24.5,19.5z M26.2,21.6c0,1.2-1,2.1-2.1,2.1h-4.2
		c-1.2,0-2.1-1-2.1-2.1v-4.2c0-1.2,0.9-2.1,2.1-2.1l0,0h4.2c1.2,0,2.1,1,2.1,2.1V21.6z M27.2,17.5c0-1.7-1.4-3.1-3.1-3.1l0,0h-4.2
		c-1.7,0-3.1,1.4-3.1,3.1l0,0v4.2c0,1.7,1.4,3.1,3.1,3.1h4.2c1.7,0,3.1-1.4,3.1-3.1V17.5z"/>
	<path class="st60" d="M25.3,16.7c0,0.3-0.3,0.6-0.6,0.6s-0.6-0.3-0.6-0.6s0.3-0.6,0.6-0.6l0,0C25,16.1,25.3,16.4,25.3,16.7z
		 M23.5,19.4c0-0.9-0.7-1.6-1.6-1.6s-1.6,0.7-1.6,1.6S21,21,21.9,21l0,0C22.9,21.1,23.6,20.4,23.5,19.4
		C23.6,19.5,23.6,19.4,23.5,19.4L23.5,19.4z M24.5,19.4c0,1.4-1.1,2.5-2.6,2.5c-1.4,0-2.5-1.1-2.5-2.6c0-1.4,1.1-2.5,2.6-2.5l0,0
		C23.4,16.9,24.5,18,24.5,19.4L24.5,19.4L24.5,19.4z M26,21.6c0,1.2-1,2.1-2.1,2.1l0,0h-4.1c-1.2,0-2.1-1-2.1-2.1l0,0v-4.2
		c0-1.2,1-2.1,2.1-2.1H24c1.2,0,2.1,1,2.1,2.1L26,21.6z M27,17.4c0-1.7-1.4-3.1-3.1-3.1l0,0h-4.1c-1.7,0-3.1,1.4-3.1,3.1l0,0v4.2
		c0,1.7,1.4,3.1,3.1,3.1l0,0h4.1c1.7,0,3.1-1.4,3.1-3.1l0,0V17.4z"/>
	<path class="st61" d="M25.3,16.7c0,0.3-0.3,0.6-0.6,0.6s-0.6-0.3-0.6-0.6c0-0.3,0.3-0.6,0.6-0.6S25.3,16.3,25.3,16.7L25.3,16.7z
		 M23.5,19.4c0-0.9-0.7-1.6-1.6-1.6s-1.6,0.7-1.6,1.6S21,21,21.9,21l0,0C22.9,21,23.5,20.3,23.5,19.4z M24.5,19.4
		c0,1.4-1.1,2.5-2.5,2.5s-2.5-1.1-2.5-2.5s1.1-2.5,2.5-2.5S24.5,18,24.5,19.4L24.5,19.4z M26.2,21.5c0,1.2-1,2.1-2.1,2.1l0,0h-4.2
		c-1.2,0-2.1-1-2.1-2.1l0,0v-4.2c0-1.2,1-2.1,2.1-2.1h4.2c1.2,0,2.1,1,2.1,2.1V21.5z M27.2,17.4c0-1.7-1.4-3.1-3.1-3.1l0,0h-4.2
		c-1.7,0-3.1,1.4-3.1,3.1l0,0v4.2c0,1.7,1.4,3.1,3.1,3.1l0,0H24c1.7,0,3.1-1.4,3.1-3.1L27.2,17.4z"/>
	<path class="st62" d="M25.3,16.6c0,0.3-0.3,0.6-0.6,0.6s-0.6-0.3-0.6-0.6c0-0.3,0.3-0.6,0.6-0.6S25.3,16.3,25.3,16.6L25.3,16.6z
		 M23.5,19.4c0-0.9-0.7-1.6-1.6-1.6s-1.6,0.7-1.6,1.6S21,21,21.9,21l0,0C22.9,21,23.5,20.2,23.5,19.4L23.5,19.4z M24.5,19.4
		c0,1.4-1.1,2.5-2.5,2.5s-2.5-1.1-2.5-2.5s1.1-2.5,2.5-2.5C23.4,16.8,24.5,18,24.5,19.4L24.5,19.4z M26.2,21.5c0,1.2-1,2.1-2.1,2.1
		l0,0h-4.2c-1.2,0-2.1-1-2.1-2.1v-4.2c0-1.2,1-2.1,2.1-2.1l0,0h4.2c1.2,0,2.1,1,2.1,2.1V21.5z M27.2,17.3c0-1.7-1.4-3.1-3.1-3.1l0,0
		h-4.2c-1.7,0-3.1,1.4-3.1,3.1v4.1c0,1.7,1.4,3.1,3.1,3.1l0,0h4.2c1.7,0,3.1-1.4,3.1-3.1l0,0V17.3z"/>
	<path class="st63" d="M25.2,16.6c0,0.3-0.3,0.6-0.6,0.6S24,16.9,24,16.6s0.3-0.6,0.6-0.6l0,0C24.8,16,25.2,16.3,25.2,16.6z
		 M23.5,19.3c0-0.9-0.7-1.6-1.6-1.6s-1.6,0.7-1.6,1.6s0.7,1.6,1.6,1.6l0,0C22.8,20.9,23.5,20.2,23.5,19.3z M24.5,19.3
		c0,1.4-1.1,2.5-2.6,2.5c-1.4,0-2.5-1.1-2.5-2.6c0-1.4,1.1-2.5,2.6-2.5l0,0C23.3,16.7,24.5,17.9,24.5,19.3L24.5,19.3z M26,21.4
		c0,1.2-1,2.1-2.1,2.1l0,0h-4.2c-1.2,0-2.1-1-2.1-2.1v-4.1c0-1.2,1-2.1,2.1-2.1l0,0H24c1.2,0,2.1,1,2.1,2.1V21.4z M27,17.3
		c0-1.7-1.4-3.1-3.1-3.1l0,0h-4.2c-1.7,0-3.1,1.4-3.1,3.1l0,0v4.2c0,1.7,1.4,3.1,3.1,3.1l0,0H24c1.7,0,3.1-1.4,3.1-3.1l0,0V17.3z"/>
	<path class="st64" d="M25.2,16.6c0,0.3-0.3,0.6-0.7,0.5c-0.3,0-0.5-0.3-0.5-0.5c0-0.3,0.2-0.6,0.5-0.7s0.6,0.2,0.7,0.5
		C25.2,16.4,25.2,16.5,25.2,16.6z M23.5,19.3c0-0.9-0.7-1.6-1.6-1.6s-1.6,0.7-1.6,1.6s0.7,1.6,1.6,1.6l0,0
		C22.8,20.9,23.5,20.2,23.5,19.3z M24.3,19.3c0,1.4-1.1,2.6-2.5,2.6s-2.6-1.1-2.6-2.5s1.1-2.6,2.5-2.6l0,0
		C23.3,16.8,24.3,17.9,24.3,19.3z M26,21.4c0,1.2-1,2.1-2.1,2.1l0,0h-4.2c-1.2,0-2.1-1-2.1-2.1v-4.2c0-1.2,1-2.1,2.1-2.1l0,0h4.2
		c1.2,0,2.1,1,2.1,2.1V21.4z M27,17.3c0-1.7-1.4-3.1-3.1-3.1l0,0h-4.2c-1.7,0-3.1,1.4-3.1,3.1l0,0v4.1c0,1.7,1.4,3.1,3.1,3.1l0,0
		h4.1c1.7,0,3.1-1.4,3.1-3.1l0,0L27,17.3z"/>
	<path class="st65" d="M25,16.5c0,0.3-0.3,0.6-0.6,0.6s-0.6-0.3-0.6-0.6c0-0.3,0.3-0.6,0.6-0.6C24.8,15.9,25,16.2,25,16.5L25,16.5z
		 M23.5,19.2c0-0.9-0.7-1.6-1.6-1.6s-1.6,0.7-1.6,1.6s0.7,1.6,1.6,1.6l0,0C22.6,20.9,23.5,20.1,23.5,19.2z M24.3,19.2
		c0,1.4-1.1,2.5-2.5,2.5s-2.6-1.1-2.6-2.5s1.1-2.5,2.5-2.5S24.3,17.8,24.3,19.2L24.3,19.2z M26,21.4c0,1.2-1,2.1-2.1,2.1l0,0h-4.2
		c-1.2,0-2.1-1-2.1-2.1v-4.2c0-1.2,1-2.1,2.1-2.1l0,0h4.2c1.2,0,2.1,1,2.1,2.1V21.4z M27,17.2c0-1.7-1.4-3.1-3.1-3.1l0,0h-4.2
		c-1.7,0-3.1,1.4-3.1,3.1l0,0v4.1c0,1.7,1.4,3.1,3.1,3.1l0,0h4.2c1.7,0,3.1-1.4,3.1-3.1l0,0V17.2z"/>
	<path class="st66" d="M25,16.5c0,0.3-0.3,0.6-0.6,0.6s-0.6-0.3-0.6-0.6s0.3-0.6,0.6-0.6l0,0C24.8,15.9,25,16.1,25,16.5z M23.4,19.2
		c0-0.9-0.7-1.6-1.6-1.6s-1.6,0.7-1.6,1.6s0.7,1.6,1.6,1.6l0,0C22.6,20.8,23.4,20.1,23.4,19.2L23.4,19.2z M24.3,19.2
		c0,1.4-1.1,2.5-2.6,2.5c-1.4,0-2.5-1.1-2.5-2.6c0-1.4,1.1-2.5,2.6-2.5l0,0C23.1,16.6,24.3,17.8,24.3,19.2L24.3,19.2z M25.8,21.3
		c0,1.2-1,2.1-2.1,2.1l0,0h-4.2c-1.2,0-2.1-1-2.1-2.1v-4.1c0-1.2,1-2.1,2.1-2.1h4.2c1.2,0,2.1,1,2.1,2.1l0,0V21.3z M26.8,17.1
		c0-1.7-1.4-3.1-3.1-3.1l0,0h-4.2c-1.7,0-3.1,1.4-3.1,3.1l0,0v4.2c0,1.7,1.4,3.1,3.1,3.1h4.2c1.7,0,3.1-1.4,3.1-3.1V17.1z"/>
	<path class="st67" d="M25,16.4c0,0.3-0.2,0.6-0.5,0.7c-0.3,0-0.6-0.2-0.7-0.5c0-0.1,0-0.1,0-0.2c0-0.3,0.3-0.6,0.7-0.5
		C24.8,15.9,25,16.1,25,16.4z M23.4,19.1c0-0.9-0.7-1.6-1.6-1.6s-1.6,0.7-1.6,1.6s0.7,1.6,1.6,1.6l0,0C22.5,20.8,23.4,20,23.4,19.1z
		 M24.3,19.1c0,1.4-1.1,2.6-2.5,2.6s-2.6-1.1-2.6-2.5s1.1-2.6,2.5-2.6l0,0C23,16.6,24.3,17.7,24.3,19.1L24.3,19.1L24.3,19.1z
		 M25.8,21.3c0,1.2-1,2.1-2.1,2.1l0,0h-4.2c-1.2,0-2.1-1-2.1-2.1l0,0v-4.2c0-1.2,1-2.1,2.1-2.1l0,0h4.2c1.2,0,2.1,1,2.1,2.1V21.3z
		 M26.8,17.1c0-1.7-1.4-3.1-3.1-3.1l0,0h-4.2c-1.7,0-3.1,1.4-3.1,3.1l0,0v4.2c0,1.7,1.4,3.1,3.1,3.1h4.1c1.7,0,3.1-1.4,3.1-3.1l0,0
		L26.8,17.1z"/>
	<path class="st68" d="M25,16.4c0,0.3-0.3,0.6-0.6,0.6s-0.6-0.3-0.6-0.6c0-0.3,0.3-0.6,0.6-0.6C24.7,15.8,25,16,25,16.4L25,16.4z
		 M23.3,19.1c0-0.9-0.7-1.6-1.6-1.6S20,18.2,20,19.1s0.7,1.6,1.6,1.6l0,0C22.5,20.7,23.3,20,23.3,19.1z M24.1,19.1
		c0,1.4-1.1,2.5-2.5,2.5s-2.5-1.1-2.5-2.5s1.1-2.5,2.5-2.5C23,16.5,24.1,17.7,24.1,19.1L24.1,19.1L24.1,19.1z M25.8,21.2
		c0,1.2-1,2.1-2.1,2.1l0,0h-4.1c-1.2,0-2.1-1-2.1-2.1l0,0V17c0-1.2,1-2.1,2.1-2.1h4.2c1.2,0,2.1,1,2.1,2.1L25.8,21.2z M26.8,17.1
		c0-1.7-1.4-3.1-3.1-3.1l0,0h-4.2c-1.7,0-3.1,1.4-3.1,3.1l0,0v4.1c0,1.7,1.4,3.1,3.1,3.1h4.2c1.7,0,3.1-1.4,3.1-3.1l0,0V17.1z"/>
	<path class="st69" d="M25,16.3c0,0.3-0.3,0.6-0.6,0.6s-0.6-0.3-0.6-0.6s0.3-0.6,0.6-0.6l0,0C24.7,15.7,25,16,25,16.3z M23.3,19.1
		c0-0.9-0.7-1.6-1.6-1.6S20,18.2,20,19.1s0.7,1.6,1.6,1.6l0,0C22.5,20.7,23.3,20,23.3,19.1z M24.1,19.1c0,1.4-1.1,2.5-2.5,2.5
		s-2.5-1.1-2.5-2.5s1.1-2.5,2.5-2.5C23,16.5,24.1,17.7,24.1,19.1L24.1,19.1z M25.8,21.2c0,1.2-1,2.1-2.1,2.1h-4.2
		c-1.2,0-2.1-1-2.1-2.1v-4.1c0-1.2,1-2.1,2.1-2.1h4.2c1.2,0,2.1,1,2.1,2.1l0,0V21.2z M26.8,17c0-1.7-1.4-3.1-3.1-3.1l0,0h-4.2
		c-1.7,0-3.1,1.4-3.1,3.1l0,0v4.2c0,1.7,1.4,3.1,3.1,3.1l0,0h4.2c1.7,0,3.1-1.4,3.1-3.1V17z"/>
	<path class="st70" d="M24.8,16.3c0,0.3-0.3,0.6-0.6,0.6c-0.3,0-0.6-0.3-0.6-0.6s0.3-0.6,0.6-0.6l0,0C24.5,15.7,24.8,16,24.8,16.3z
		 M23.1,19c0-0.9-0.7-1.6-1.6-1.6s-1.6,0.7-1.6,1.6s0.7,1.6,1.6,1.6l0,0C22.5,20.6,23.1,19.9,23.1,19z M24.1,19
		c0,1.4-1.1,2.6-2.5,2.6S19,20.5,19,19.1s1.1-2.6,2.5-2.6l0,0C23,16.5,24.1,17.6,24.1,19z M25.8,21.2c0,1.2-0.9,2.1-2.1,2.1l0,0
		h-4.2c-1.2,0-2.2-0.9-2.2-2.1c0,0,0,0,0-0.1v-4.2c0-1.2,1-2.1,2.1-2.1h4.2c1.2,0,2.1,1,2.1,2.1L25.8,21.2z M26.8,17
		c0-1.7-1.4-3.1-3.1-3.1l0,0h-4.2c-1.7,0-3.1,1.4-3.1,3.1l0,0v4.2c0,1.7,1.4,3.1,3.1,3.1l0,0h4.1c1.7,0,3.1-1.4,3.1-3.1l0,0L26.8,17
		z"/>
	<path class="st71" d="M24.8,16.3c0,0.3-0.3,0.6-0.6,0.6c-0.3,0-0.6-0.3-0.6-0.6c0-0.3,0.3-0.6,0.6-0.6S24.8,15.9,24.8,16.3
		L24.8,16.3z M23.1,19c0-0.9-0.7-1.6-1.6-1.6s-1.6,0.7-1.6,1.6s0.7,1.6,1.6,1.6l0,0C22.5,20.6,23.1,19.9,23.1,19z M24,19
		c0,1.4-1.1,2.5-2.5,2.5S19,20.4,19,19s1.1-2.5,2.5-2.5S24,17.6,24,19L24,19z M25.7,21.1c0,1.2-1,2.1-2.1,2.1l0,0h-4.2
		c-1.2,0-2.1-1-2.1-2.1v-4.2c0-1.2,1-2.1,2.1-2.1h4.2c1.2,0,2.1,1,2.1,2.1V21.1z M26.7,16.9c0-1.7-1.4-3.1-3.1-3.1l0,0h-4.2
		c-1.7,0-3.1,1.4-3.1,3.1l0,0V21c0,1.7,1.4,3.1,3.1,3.1l0,0h4.1c1.7,0,3.1-1.4,3.1-3.1l0,0L26.7,16.9z"/>
	<path class="st72" d="M24.8,16.2c0,0.3-0.3,0.6-0.6,0.6c-0.3,0-0.6-0.3-0.6-0.6c0-0.3,0.3-0.6,0.6-0.6
		C24.5,15.6,24.8,15.9,24.8,16.2L24.8,16.2z M23.1,18.9c0-0.9-0.7-1.6-1.6-1.6s-1.6,0.7-1.6,1.6s0.7,1.6,1.6,1.6l0,0
		C22.4,20.6,23.1,19.8,23.1,18.9z M24,18.9c0,1.4-1.1,2.5-2.5,2.5S19,20.3,19,18.9s1.1-2.5,2.5-2.5S24,17.5,24,18.9L24,18.9z
		 M25.7,21.1c0,1.2-1,2.1-2.1,2.1l0,0h-4.2c-1.2,0-2.1-1-2.1-2.1v-4.2c0-1.2,1-2.1,2.1-2.1l0,0h4.2c1.2,0,2.1,1,2.1,2.1V21.1z
		 M26.7,16.9c0-1.7-1.4-3.1-3.1-3.1l0,0h-4.2c-1.7,0-3.1,1.4-3.1,3.1V21c0,1.7,1.4,3.1,3.1,3.1l0,0h4.2c1.7,0,3.1-1.4,3.1-3.1l0,0
		V16.9z"/>
	<path class="st73" d="M24.8,16.2c0,0.3-0.3,0.6-0.6,0.6c-0.3,0-0.6-0.3-0.6-0.6s0.3-0.6,0.6-0.6l0,0C24.5,15.6,24.8,15.8,24.8,16.2
		L24.8,16.2z M23,18.9c0-0.9-0.7-1.6-1.6-1.6s-1.6,0.7-1.6,1.6s0.7,1.6,1.6,1.6l0,0C22.4,20.5,23,19.8,23,18.9z M24,18.9
		c0,1.4-1.2,2.5-2.6,2.5s-2.5-1.2-2.5-2.6s1.2-2.5,2.6-2.5S24,17.4,24,18.9L24,18.9z M25.5,21c0,1.2-1,2.1-2.1,2.1h-4.2
		c-1.2,0-2.1-1-2.1-2.1v-4.2c0-1.2,1-2.1,2.1-2.1h4.2c1.2,0,2.1,0.9,2.1,2.1l0,0V21z M26.5,16.9c0-1.7-1.4-3.1-3.1-3.1l0,0h-4.2
		c-1.7,0-3.1,1.4-3.1,3.1l0,0v4.2c0,1.7,1.4,3.1,3.1,3.1l0,0h4.2c1.7,0,3.1-1.4,3.1-3.1V16.9z"/>
	<path class="st74" d="M24.7,16.1c0,0.3-0.3,0.6-0.7,0.5c-0.3,0-0.5-0.3-0.5-0.5c0-0.3,0.2-0.6,0.5-0.7s0.6,0.2,0.7,0.5
		C24.7,16,24.7,16.1,24.7,16.1z M23,18.8c0-0.9-0.7-1.6-1.6-1.6s-1.6,0.7-1.6,1.6s0.7,1.6,1.6,1.6l0,0C22.3,20.5,23,19.7,23,18.8z
		 M24,18.8c0,1.4-1.1,2.6-2.5,2.6s-2.6-1.1-2.6-2.5s1.1-2.6,2.5-2.6l0,0C22.8,16.3,24,17.4,24,18.8z M25.5,21c0,1.2-1,2.1-2.1,2.1
		l0,0h-4.2c-1.2,0-2.1-1-2.1-2.1l0,0v-4.2c0-1.2,1-2.1,2.1-2.1h4.2c1.2,0,2.1,1,2.1,2.1V21z M26.5,16.8c0-1.7-1.4-3.1-3.1-3.1l0,0
		h-4.2c-1.7,0-3.1,1.4-3.1,3.1l0,0V21c0,1.7,1.4,3.1,3.1,3.1l0,0h4.1c1.7,0,3.1-1.4,3.1-3.1l0,0L26.5,16.8z"/>
	<path class="st75" d="M24.7,16.1c0,0.3-0.3,0.6-0.6,0.6c-0.3,0-0.6-0.3-0.6-0.6c0-0.3,0.3-0.6,0.6-0.6
		C24.3,15.5,24.7,15.7,24.7,16.1L24.7,16.1z M23,18.8c0-0.9-0.7-1.6-1.6-1.6s-1.6,0.7-1.6,1.6s0.7,1.6,1.6,1.6l0,0
		C22.3,20.4,23,19.7,23,18.8z M23.9,18.8c0,1.4-1.1,2.6-2.5,2.6s-2.6-1.1-2.6-2.5s1.1-2.6,2.5-2.6l0,0
		C22.8,16.3,23.9,17.4,23.9,18.8z M25.5,20.9c0,1.2-1,2.1-2.1,2.1l0,0h-4.2c-1.2,0-2.1-1-2.1-2.1l0,0v-4.2c0-1.2,1-2.1,2.1-2.1h4.2
		c1.2,0,2.1,1,2.1,2.1V20.9z M26.5,16.8c0-1.7-1.4-3.1-3.1-3.1l0,0h-4.2c-1.7,0-3.1,1.4-3.1,3.1l0,0v4.1c0,1.7,1.4,3.1,3.1,3.1l0,0
		h4.2c1.7,0,3.1-1.4,3.1-3.1V16.8z"/>
	<path class="st76" d="M24.5,16c0,0.3-0.3,0.6-0.6,0.6c-0.3,0-0.6-0.3-0.6-0.6s0.3-0.6,0.6-0.6l0,0C24.3,15.4,24.5,15.7,24.5,16
		L24.5,16z M23,18.8c0-0.9-0.7-1.6-1.6-1.6s-1.6,0.7-1.6,1.6s0.7,1.6,1.6,1.6l0,0C22.3,20.4,23,19.7,23,18.8z M23.9,18.8
		c0,1.4-1.1,2.5-2.6,2.5c-1.4,0-2.5-1.1-2.5-2.6c0-1.4,1.1-2.5,2.6-2.5l0,0C22.8,16.2,23.9,17.3,23.9,18.8
		C23.9,18.7,23.9,18.7,23.9,18.8z M25.5,20.9c0,1.2-1,2.1-2.1,2.1h-4.2c-1.2,0-2.1-1-2.1-2.1v-4.2c0-1.2,1-2.1,2.1-2.1h4.2
		c1.2,0,2.1,1,2.1,2.1V20.9z M26.5,16.7c0-1.7-1.4-3.1-3.1-3.1l0,0h-4.2c-1.7,0-3.1,1.4-3.1,3.1l0,0v4.2c0,1.7,1.4,3.1,3.1,3.1l0,0
		h4.2c1.7,0,3.1-1.4,3.1-3.1V16.7z"/>
	<path class="st77" d="M24.5,16c0,0.3-0.3,0.6-0.6,0.6c-0.3,0-0.6-0.3-0.6-0.6c0-0.3,0.3-0.6,0.6-0.6S24.5,15.7,24.5,16L24.5,16z
		 M22.9,18.7c0-0.9-0.7-1.6-1.6-1.7c-0.9,0-1.6,0.7-1.7,1.6s0.8,1.7,1.7,1.7l0,0C22.1,20.3,22.9,19.6,22.9,18.7z M23.9,18.7
		c0,1.4-1.1,2.6-2.5,2.6s-2.6-1.1-2.6-2.5s1.1-2.6,2.5-2.6S23.9,17.3,23.9,18.7L23.9,18.7z M25.5,20.8c0,1.2-1,2.1-2.1,2.1l0,0h-4.1
		c-1.2,0-2.1-1-2.1-2.1v-4.2c0-1.2,1-2.1,2.1-2.1h4c1.2,0,2.1,1,2.1,2.1l0,0L25.5,20.8z M26.5,16.7c0-1.7-1.4-3.1-3.1-3.1l0,0h-4.2
		c-1.7,0-3.1,1.4-3.1,3.1l0,0v4.2c0,1.7,1.4,3.1,3.1,3.1l0,0h4.1c1.7,0,3.1-1.4,3.1-3.1L26.5,16.7z"/>
	<path class="st78" d="M24.5,16c0,0.3-0.3,0.6-0.6,0.6c-0.3,0-0.6-0.3-0.6-0.6c0-0.3,0.3-0.6,0.6-0.6C24.3,15.3,24.5,15.6,24.5,16
		C24.5,15.9,24.5,15.9,24.5,16z M22.9,18.7c0-0.9-0.7-1.6-1.6-1.6s-1.6,0.7-1.6,1.6s0.7,1.6,1.6,1.6l0,0
		C22.1,20.3,22.9,19.6,22.9,18.7z M23.8,18.7c0,1.4-1.1,2.5-2.5,2.5s-2.5-1.1-2.5-2.5s1.1-2.5,2.5-2.5l0,0
		C22.6,16.1,23.8,17.3,23.8,18.7z M25.3,20.8c0,1.2-0.9,2.1-2.1,2.1H19c-1.2,0-2.1-1-2.1-2.1v-4.2c0-1.2,1-2.1,2.1-2.1h4.2
		c1.2,0,2.1,1,2.1,2.1l0,0V20.8z M26.3,16.6c0-1.7-1.4-3.1-3.1-3.1l0,0H19c-1.7,0-3.1,1.4-3.1,3.1l0,0v4.1c0,1.7,1.4,3.1,3.1,3.1
		l0,0h4.2c1.7,0,3.1-1.4,3.1-3.1V16.6z"/>
	<path class="st79" d="M24.5,15.9c0,0.3-0.3,0.6-0.6,0.6s-0.6-0.2-0.6-0.6s0.3-0.6,0.6-0.6l0,0C24.3,15.3,24.5,15.6,24.5,15.9
		L24.5,15.9z M22.9,18.6c0-0.9-0.8-1.6-1.7-1.6s-1.6,0.8-1.6,1.7c0,0.9,0.7,1.6,1.6,1.6S22.9,19.6,22.9,18.6
		C22.9,18.7,22.9,18.6,22.9,18.6z M23.8,18.6c0,1.4-1.1,2.5-2.5,2.5s-2.5-1.1-2.5-2.5s1.1-2.5,2.5-2.5
		C22.5,16.1,23.8,17.2,23.8,18.6L23.8,18.6z M25.3,20.8c0,1.2-0.9,2.1-2.1,2.1H19c-1.2,0-2.1-1-2.1-2.1v-4.2c0-1.2,1-2.1,2.1-2.1
		l0,0h4.2c1.2,0,2.1,1,2.1,2.1l0,0V20.8z M26.3,16.6c0-1.7-1.4-3.1-3.1-3.1l0,0H19c-1.7,0-3.1,1.4-3.1,3.1l0,0v4.2
		c0,1.7,1.4,3.1,3.1,3.1l0,0h4.2c1.7,0,3.1-1.4,3.1-3.1l0,0V16.6z"/>
	<path class="st80" d="M24.5,15.9c0,0.3-0.3,0.6-0.6,0.6s-0.6-0.3-0.6-0.6s0.3-0.6,0.6-0.6l0,0C24.1,15.3,24.5,15.5,24.5,15.9
		L24.5,15.9z M22.8,18.6c0-0.9-0.7-1.6-1.6-1.6s-1.6,0.7-1.6,1.6s0.7,1.6,1.6,1.6l0,0C22,20.2,22.8,19.5,22.8,18.6z M23.6,18.6
		c0,1.4-1.1,2.6-2.5,2.6s-2.6-1.1-2.6-2.5s1.1-2.6,2.5-2.6l0,0C22.5,16,23.6,17.2,23.6,18.6z M25.3,20.7c0,1.2-1,2.1-2.1,2.1H19
		c-1.2,0-2.1-1-2.1-2.1l0,0v-4.2c0-1.2,1-2.1,2.1-2.1h4.2c1.2,0,2.1,1,2.1,2.1L25.3,20.7L25.3,20.7z M26.3,16.6
		c0-1.7-1.4-3.1-3.1-3.1l0,0H19c-1.7,0-3.1,1.4-3.1,3.1l0,0v4.2c0,1.7,1.4,3.1,3.1,3.1l0,0h4.1c1.7,0,3.1-1.4,3.1-3.1l0,0V16.6z"/>
	<path class="st81" d="M24.3,15.8c0,0.3-0.3,0.6-0.6,0.6c-0.3,0-0.6-0.3-0.6-0.6c0-0.3,0.3-0.6,0.6-0.6
		C24.1,15.2,24.3,15.5,24.3,15.8L24.3,15.8z M22.8,18.5c0-0.9-0.7-1.6-1.6-1.6s-1.6,0.7-1.6,1.6s0.7,1.6,1.6,1.6l0,0
		C22,20.2,22.8,19.4,22.8,18.5z M23.6,18.5c0,1.4-1.1,2.5-2.5,2.5s-2.5-1.1-2.5-2.5s1.1-2.5,2.5-2.5S23.6,17.1,23.6,18.5L23.6,18.5z
		 M25.3,20.7c0,1.2-1,2.1-2.1,2.1H19c-1.2,0-2.1-1-2.1-2.1v-4.2c0-1.2,1-2.1,2.1-2.1l0,0h4.2c1.2,0,2.1,0.9,2.1,2.1l0,0V20.7z
		 M26.3,16.5c0-1.7-1.4-3.1-3.1-3.1l0,0H19c-1.7,0-3.1,1.4-3.1,3.1l0,0v4.1c0,1.7,1.4,3.1,3.1,3.1l0,0h4.1c1.7,0,3.1-1.3,3.1-3
		c0,0,0,0,0-0.1L26.3,16.5L26.3,16.5z"/>
	<path class="st82" d="M24.3,15.8c0,0.3-0.3,0.6-0.6,0.6c-0.3,0-0.6-0.3-0.6-0.6c0-0.3,0.3-0.6,0.6-0.6S24.3,15.4,24.3,15.8
		L24.3,15.8z M22.6,18.5c0-0.9-0.7-1.6-1.6-1.6s-1.6,0.7-1.6,1.6s0.7,1.6,1.6,1.6l0,0C22,20.1,22.6,19.4,22.6,18.5z M23.5,18.5
		c0,1.4-1.1,2.5-2.5,2.5s-2.5-1.1-2.5-2.5S19.6,16,21,16S23.5,17.1,23.5,18.5L23.5,18.5z M25.3,20.6c0,1.2-1,2.1-2.1,2.1H19
		c-1.2,0-2.1-1-2.1-2.1l0,0v-4.2c0-1.2,0.9-2.1,2.1-2.2l0,0h4.2c1.2,0,2.2,0.9,2.2,2.1v0.1v4.2H25.3z M26.3,16.5
		c0-1.7-1.4-3.1-3.1-3.1l0,0h-4.3c-1.7,0-3.1,1.4-3.1,3.1l0,0v4.1c0,1.7,1.4,3.1,3.1,3.1l0,0H23c1.7,0,3.1-1.4,3.1-3.1l0,0
		L26.3,16.5z"/>
	<path class="st83" d="M24.3,15.7c0,0.3-0.3,0.6-0.6,0.6S23,16,23,15.7s0.3-0.6,0.6-0.6l0,0C24,15.1,24.3,15.4,24.3,15.7L24.3,15.7z
		 M22.6,18.5c0-0.9-0.7-1.6-1.6-1.6s-1.6,0.7-1.6,1.6s0.7,1.6,1.6,1.6l0,0C22,20.1,22.6,19.3,22.6,18.5z M23.5,18.5
		c0,1.4-1.1,2.5-2.6,2.5c-1.4,0-2.5-1.1-2.5-2.6c0-1.4,1.1-2.5,2.6-2.5l0,0C22.5,15.9,23.5,17,23.5,18.5
		C23.5,18.4,23.5,18.4,23.5,18.5z M25.2,20.6c0,1.2-1,2.1-2.1,2.1h-4.2c-1.2,0-2.1-1-2.1-2.1v-4.2c0-1.2,1-2.1,2.1-2.1h4.2
		c1.2,0,2.1,1,2.1,2.1l0,0V20.6z M26.2,16.4c0-1.7-1.4-3.1-3.1-3.1l0,0h-4.2c-1.7,0-3.1,1.4-3.1,3.1l0,0v4.2c0,1.7,1.4,3.1,3.1,3.1
		l0,0h4.2c1.7,0,3.1-1.4,3.1-3.1V16.4z"/>
	<path class="st84" d="M24.3,15.7c0,0.3-0.3,0.6-0.6,0.6c-0.3,0-0.6-0.3-0.6-0.6c0-0.3,0.3-0.6,0.6-0.6S24.3,15.3,24.3,15.7
		L24.3,15.7z M22.5,18.4c0-0.9-0.7-1.6-1.6-1.6s-1.6,0.7-1.6,1.6S20,20,20.9,20l0,0C21.9,20,22.5,19.3,22.5,18.4z M23.5,18.4
		c0,1.4-1.1,2.6-2.5,2.6s-2.6-1.1-2.6-2.5s1.1-2.6,2.5-2.6l0,0C22.4,15.9,23.5,17,23.5,18.4z M25.2,20.5c0,1.2-1,2.1-2.1,2.1h-4.2
		c-1.2,0-2.1-1-2.1-2.1v-4.2c0-1.2,1-2.1,2.1-2.1l0,0h4.2c1.2,0,2.1,1,2.1,2.1V20.5z M26.2,16.4c0-1.7-1.4-3.1-3.1-3.1l0,0h-4.2
		c-1.7,0-3.1,1.4-3.1,3.1l0,0v4.2c0,1.7,1.4,3.1,3.1,3.1l0,0H23c1.7,0,3.1-1.4,3.1-3.1l0,0L26.2,16.4z"/>
	<path class="st85" d="M24.3,15.7c0,0.3-0.3,0.6-0.6,0.6c-0.3,0-0.6-0.3-0.6-0.6c0-0.3,0.3-0.6,0.6-0.6C24,15,24.3,15.3,24.3,15.7
		C24.3,15.6,24.3,15.6,24.3,15.7z M22.5,18.4c0-0.9-0.7-1.6-1.6-1.6s-1.7,0.7-1.7,1.6S20,20,20.9,20l0,0
		C21.9,20,22.5,19.3,22.5,18.4z M23.5,18.4c0,1.4-1.1,2.5-2.5,2.5s-2.5-1.1-2.5-2.5s1.1-2.5,2.5-2.5S23.5,17,23.5,18.4L23.5,18.4z
		 M25,20.5c0,1.2-1,2.1-2.1,2.1h-4.2c-1.2,0-2.1-1-2.1-2.1l0,0v-4.2c0-1.2,1-2.1,2.1-2.1l0,0H23c1.2,0,2.1,1,2.1,2.1V20.5z M26,16.3
		c0-1.7-1.4-3.1-3.1-3.1l0,0h-4.2c-1.7,0-3.1,1.4-3.1,3.1l0,0v4.1c0,1.7,1.4,3.1,3.1,3.1l0,0H23c1.7,0,3.1-1.4,3.1-3.1V16.3z"/>
	<path class="st86" d="M24.1,15.6c0,0.3-0.3,0.6-0.6,0.6s-0.6-0.3-0.6-0.6s0.3-0.6,0.6-0.6l0,0C24,15,24.1,15.3,24.1,15.6L24.1,15.6
		z M22.5,18.3c0-0.9-0.7-1.6-1.6-1.6s-1.7,0.7-1.7,1.6s0.7,1.6,1.6,1.6l0,0C21.8,19.9,22.5,19.2,22.5,18.3z M23.5,18.3
		c0,1.4-1.1,2.5-2.6,2.5c-1.4,0-2.5-1.1-2.5-2.6c0-1.4,1.1-2.5,2.6-2.5l0,0C22.3,15.7,23.5,16.9,23.5,18.3L23.5,18.3z M25,20.4
		c0,1.2-1,2.1-2.1,2.1l0,0h-4.2c-1.2,0-2.1-1-2.1-2.1v-4.1c0-1.2,1-2.1,2.1-2.1l0,0H23c1.2,0,2.1,1,2.1,2.1V20.4z M26,16.3
		c0-1.7-1.4-3.1-3.1-3.1l0,0h-4.2c-1.7,0-3.1,1.4-3.1,3.1l0,0v4.2c0,1.7,1.4,3.1,3.1,3.1l0,0H23c1.7,0,3.1-1.4,3.1-3.1V16.3z"/>
	<path class="st87" d="M24.1,15.6c0,0.3-0.3,0.6-0.6,0.6c-0.3,0-0.6-0.3-0.6-0.6c0-0.3,0.3-0.6,0.6-0.6S24.1,15.2,24.1,15.6
		L24.1,15.6z M22.5,18.3c0-0.9-0.7-1.6-1.6-1.6s-1.6,0.7-1.6,1.6s0.7,1.6,1.6,1.6l0,0C21.8,19.9,22.5,19.2,22.5,18.3z M23.4,18.3
		c0,1.4-1.1,2.6-2.5,2.6s-2.6-1.1-2.6-2.5s1.1-2.6,2.5-2.6l0,0C22.3,15.8,23.4,16.9,23.4,18.3z M25,20.4c0,1.2-1,2.1-2.1,2.1l0,0
		h-4.2c-1.2,0-2.1-1-2.1-2.1l0,0v-4.2c0-1.2,1-2.1,2.1-2.1h4.2c1.2,0,2.1,1,2.1,2.1V20.4z M26,16.3c0-1.7-1.4-3.1-3.1-3.1l0,0h-4.2
		c-1.7,0-3.1,1.4-3.1,3.1l0,0v4.2c0,1.7,1.4,3.1,3.1,3.1l0,0h4.1c1.7,0,3.1-1.4,3.1-3.1L26,16.3z"/>
	<path class="st88" d="M24,15.5c0,0.3-0.3,0.6-0.6,0.6c-0.3,0-0.6-0.3-0.6-0.6c0-0.3,0.3-0.6,0.6-0.6C23.9,14.9,24,15.2,24,15.5
		L24,15.5z M22.5,18.2c0-0.9-0.7-1.6-1.6-1.6s-1.6,0.7-1.6,1.6s0.7,1.6,1.6,1.6l0,0C21.6,19.9,22.5,19.1,22.5,18.2z M23.4,18.2
		c0,1.4-1.1,2.5-2.5,2.5s-2.6-1.1-2.6-2.5s1.1-2.5,2.5-2.5S23.4,16.8,23.4,18.2L23.4,18.2z M25,20.4c0,1.2-1,2.1-2.1,2.1l0,0h-4.2
		c-1.2,0-2.1-1-2.1-2.1l0,0v-4.2c0-1.2,1-2.1,2.1-2.1h4.2c1.2,0,2.1,1,2.1,2.1V20.4z M26,16.2c0-1.7-1.4-3.1-3.1-3.1l0,0h-4.2
		c-1.7,0-3.1,1.4-3.1,3.1l0,0v4.1c0,1.7,1.4,3.1,3.1,3.1l0,0h4.2c1.7,0,3.1-1.4,3.1-3.1V16.2z"/>
</g>
<path class="st89" d="M24,15.5c0,0.3-0.3,0.6-0.6,0.6c-0.3,0-0.6-0.3-0.6-0.6c0-0.3,0.3-0.6,0.6-0.6C23.9,14.9,24,15.2,24,15.5
	L24,15.5z M23.4,18.2c0,1.4-1.1,2.5-2.5,2.5s-2.6-1.1-2.6-2.5s1.1-2.5,2.5-2.5S23.4,16.8,23.4,18.2L23.4,18.2z M22.5,18.2
	c0-0.9-0.7-1.6-1.6-1.6s-1.6,0.7-1.6,1.6s0.7,1.6,1.6,1.6l0,0C21.6,19.9,22.5,19.1,22.5,18.2z M26,16.2c0-1.7-1.4-3.1-3.1-3.1l0,0
	h-4.2c-1.7,0-3.1,1.4-3.1,3.1l0,0v4.2c0,1.7,1.4,3.1,3.1,3.1l0,0h4.2c1.7,0,3.1-1.4,3.1-3.1V16.2z M25,20.4c0,1.2-1,2.1-2.1,2.1l0,0
	h-4.2c-1.2,0-2.1-1-2.1-2.1v-4.2c0-1.2,1-2.1,2.1-2.1h4.1c1.2,0,2.1,1,2.1,2.1L25,20.4z"/>
</svg>
