<svg id="Шар_1" xmlns="http://www.w3.org/2000/svg" xmlns:xlink="http://www.w3.org/1999/xlink" viewBox="0 0 40 40"><style>.st0{fill:url(#SVGID_1_)}.st1{opacity:.5}.st2{fill:url(#SVGID_2_)}.st3{opacity:.7}.st4{fill-rule:evenodd;clip-rule:evenodd;fill:#fff;fill-opacity:0}.st5,.st6{enable-background:new}.st5{fill-rule:evenodd;clip-rule:evenodd;opacity:1e-2;fill:#fcfcfd}.st6{opacity:3e-2;fill:#fafafb}.st6,.st7,.st8{fill-rule:evenodd;clip-rule:evenodd}.st7{enable-background:new;opacity:4e-2;fill:#f7f7f9}.st8{opacity:5e-2;fill:#f4f4f7}.st10,.st8,.st9{enable-background:new}.st9{fill-rule:evenodd;clip-rule:evenodd;opacity:6e-2;fill:#f2f1f5}.st10{opacity:8e-2;fill:#efeff3}.st10,.st11,.st12{fill-rule:evenodd;clip-rule:evenodd}.st11{enable-background:new;opacity:9e-2;fill:#ececf1}.st12{opacity:.1;fill:#eae9ef}.st12,.st13,.st14{enable-background:new}.st13{fill-rule:evenodd;clip-rule:evenodd;opacity:.11;fill:#e7e7ed}.st14{opacity:.13;fill:#e4e4ea}.st14,.st15,.st16{fill-rule:evenodd;clip-rule:evenodd}.st15{enable-background:new;opacity:.14;fill:#e2e1e8}.st16{opacity:.15;fill:#dfdfe6}.st16,.st17,.st18{enable-background:new}.st17{fill-rule:evenodd;clip-rule:evenodd;opacity:.16;fill:#dddce4}.st18{opacity:.18;fill:#dad9e2}.st18,.st19,.st20{fill-rule:evenodd;clip-rule:evenodd}.st19{enable-background:new;opacity:.19;fill:#d7d6e0}.st20{opacity:.2;fill:#d5d4de}.st20,.st21,.st22{enable-background:new}.st21{fill-rule:evenodd;clip-rule:evenodd;opacity:.21;fill:#d2d1dc}.st22{opacity:.23;fill:#cfceda}.st22,.st23,.st24{fill-rule:evenodd;clip-rule:evenodd}.st23{enable-background:new;opacity:.24;fill:#cdccd8}.st24{opacity:.25;fill:#cac9d6}.st24,.st25,.st26{enable-background:new}.st25{fill-rule:evenodd;clip-rule:evenodd;opacity:.26;fill:#c7c6d4}.st26{opacity:.28;fill:#c5c4d2}.st26,.st27,.st28{fill-rule:evenodd;clip-rule:evenodd}.st27{enable-background:new;opacity:.29;fill:#c2c1d0}.st28{opacity:.3;fill:#bfbece}.st28,.st29,.st30{enable-background:new}.st29{fill-rule:evenodd;clip-rule:evenodd;opacity:.31;fill:#bdbbcc}.st30{opacity:.33;fill:#bab9ca}.st30,.st31,.st32{fill-rule:evenodd;clip-rule:evenodd}.st31{enable-background:new;opacity:.34;fill:#b7b6c8}.st32{opacity:.35;fill:#b5b3c6}.st32,.st33,.st34{enable-background:new}.st33{fill-rule:evenodd;clip-rule:evenodd;opacity:.36;fill:#b2b1c4}.st34{opacity:.38;fill:#afaec1}.st34,.st35,.st36{fill-rule:evenodd;clip-rule:evenodd}.st35{enable-background:new;opacity:.39;fill:#adabbf}.st36{opacity:.4;fill:#aaa9bd}.st36,.st37,.st38{enable-background:new}.st37{fill-rule:evenodd;clip-rule:evenodd;opacity:.41;fill:#a8a6bb}.st38{opacity:.43;fill:#a5a3b9}.st38,.st39,.st40{fill-rule:evenodd;clip-rule:evenodd}.st39{enable-background:new;opacity:.44;fill:#a2a0b7}.st40{opacity:.45;fill:#a09eb5}.st40,.st41,.st42{enable-background:new}.st41{fill-rule:evenodd;clip-rule:evenodd;opacity:.46;fill:#9d9bb3}.st42{opacity:.48;fill:#9a98b1}.st42,.st43,.st44{fill-rule:evenodd;clip-rule:evenodd}.st43{enable-background:new;opacity:.49;fill:#9896af}.st44{opacity:.5;fill:#9593ad}.st44,.st45,.st46{enable-background:new}.st45{fill-rule:evenodd;clip-rule:evenodd;opacity:.51;fill:#9290ab}.st46{opacity:.52;fill:#908ea9}.st46,.st47,.st48{fill-rule:evenodd;clip-rule:evenodd}.st47{enable-background:new;opacity:.54;fill:#8d8ba7}.st48{opacity:.55;fill:#8a88a5}.st48,.st49,.st50{enable-background:new}.st49{fill-rule:evenodd;clip-rule:evenodd;opacity:.56;fill:#8886a3}.st50{opacity:.57;fill:#8583a1}.st50,.st51,.st52{fill-rule:evenodd;clip-rule:evenodd}.st51{enable-background:new;opacity:.59;fill:#82809f}.st52{opacity:.6;fill:#807d9d}.st52,.st53,.st54{enable-background:new}.st53{fill-rule:evenodd;clip-rule:evenodd;opacity:.61;fill:#7d7b9b}.st54{opacity:.62;fill:#7b7899}.st54,.st55,.st56{fill-rule:evenodd;clip-rule:evenodd}.st55{enable-background:new;opacity:.64;fill:#787596}.st56{opacity:.65;fill:#757394}.st56,.st57,.st58{enable-background:new}.st57{fill-rule:evenodd;clip-rule:evenodd;opacity:.66;fill:#737092}.st58{opacity:.67;fill:#706d90}.st58,.st59,.st60{fill-rule:evenodd;clip-rule:evenodd}.st59{enable-background:new;opacity:.69;fill:#6d6b8e}.st60{opacity:.7;fill:#6b688c}.st60,.st61,.st62{enable-background:new}.st61{fill-rule:evenodd;clip-rule:evenodd;opacity:.71;fill:#68658a}.st62{opacity:.72;fill:#656288}.st62,.st63,.st64{fill-rule:evenodd;clip-rule:evenodd}.st63{enable-background:new;opacity:.74;fill:#636086}.st64{opacity:.75;fill:#605d84}.st64,.st65,.st66{enable-background:new}.st65{fill-rule:evenodd;clip-rule:evenodd;opacity:.76;fill:#5d5a82}.st66{opacity:.77;fill:#5b5880}.st66,.st67,.st68{fill-rule:evenodd;clip-rule:evenodd}.st67{enable-background:new;opacity:.79;fill:#58557e}.st68{opacity:.8;fill:#55527c}.st68,.st69,.st70{enable-background:new}.st69{fill-rule:evenodd;clip-rule:evenodd;opacity:.81;fill:#53507a}.st70{opacity:.82;fill:#504d78}.st70,.st71,.st72{fill-rule:evenodd;clip-rule:evenodd}.st71{enable-background:new;opacity:.84;fill:#4d4a76}.st72{opacity:.85;fill:#4b4774}.st72,.st73,.st74{enable-background:new}.st73{fill-rule:evenodd;clip-rule:evenodd;opacity:.86;fill:#484572}.st74{opacity:.87;fill:#464270}.st74,.st75,.st76{fill-rule:evenodd;clip-rule:evenodd}.st75{enable-background:new;opacity:.89;fill:#433f6d}.st76{opacity:.9;fill:#403d6b}.st76,.st77,.st78{enable-background:new}.st77{fill-rule:evenodd;clip-rule:evenodd;opacity:.91;fill:#3e3a69}.st78{opacity:.92;fill:#3b3767}.st78,.st79,.st80{fill-rule:evenodd;clip-rule:evenodd}.st79{enable-background:new;opacity:.94;fill:#383565}.st80{opacity:.95;fill:#363263}.st80,.st81,.st82{enable-background:new}.st81{fill-rule:evenodd;clip-rule:evenodd;opacity:.96;fill:#332f61}.st82{opacity:.97;fill:#302c5f}.st82,.st83,.st84,.st85{fill-rule:evenodd;clip-rule:evenodd}.st83{opacity:.99;enable-background:new;fill:#2e2a5d}.st84{fill:#2b275b}.st85{fill:#fff}</style><g id="OBJETCS"><linearGradient id="SVGID_1_" gradientUnits="userSpaceOnUse" x1="11.876" y1="234.464" x2="31.346" y2="253.934" gradientTransform="translate(0 -224)"><stop offset="0" stop-color="#48a5d1"/><stop offset=".45" stop-color="#285eb8"/><stop offset="1" stop-color="#000398"/></linearGradient><path class="st0" d="M7.4 26.7c-1.5-.7-2.5-2.2-2.6-3.8-.1-1.6.3-3.3 1.1-4.7 3.9-8 12.8-12.3 21.5-10.5 1.8.3 3.4 1 4.8 2.2 2.1 2 3.1 4.8 2.8 7.6s-1.2 5.5-2.6 7.9c-.9 1.9-2.2 3.7-3.7 5.2-1.6 1.5-3.7 2.3-5.8 2.2-4.4-.3-7.4-5.2-11.8-5.7-1.2-.2-2.6 0-3.7-.4z"/><image width="394" height="379" xlink:href="C0AF1025.png" transform="matrix(.24 0 0 .24 -26.93 -25.58)" overflow="visible" class="st1"/><linearGradient id="SVGID_2_" gradientUnits="userSpaceOnUse" x1="27.605" y1="249.695" x2="13.615" y2="235.705" gradientTransform="translate(0 -224)"><stop offset="0" stop-color="#48a5d1"/><stop offset=".45" stop-color="#285eb8"/><stop offset="1" stop-color="#000398"/></linearGradient><path class="st2" d="M10.8 24c-1.1-.5-1.8-1.6-1.9-2.8 0-1.2.2-2.4.8-3.4 2.9-5.9 9.4-9 15.8-7.7 1.3.2 2.5.8 3.5 1.6 1.5 1.5 2.3 3.5 2.1 5.6s-.9 4-1.9 5.8c-.7 1.4-1.6 2.7-2.7 3.8-1.1 1.1-2.7 1.7-4.3 1.6-3.2-.2-5.5-3.8-8.7-4.2-1 0-1.9-.1-2.7-.3z"/><g class="st3"><path class="st4" d="M22.8 21.9v4.8c0 .1.1.1.1.1h1.8c.1 0 .1-.1.1-.1v-4.8H26c.1 0 .1-.1.1-.1l.1-1.4c0-.1 0-.1-.1-.1h-1.4v-1c0-.2.2-.4.4-.4h1c.1 0 .1-.1.1-.1v-1.5c0-.1-.1-.1-.1-.1h-1.7c-1 0-1.8.8-1.8 1.8v1.4h-.9c-.1 0-.1.1-.1.1V22c0 .1 0 .1.1.1l1.1-.2z"/><path class="st5" d="M22.8 21.9v4.8c0 .1.1.1.1.1h1.8c.1 0 .1-.1.1-.1v-4.8H26c.1 0 .1 0 .1-.1l.1-1.5c0-.1 0-.1-.1-.1h-1.4v-1c0-.2.2-.4.4-.4h1c.1 0 .1-.1.1-.1v-1.5c0-.1-.1-.1-.1-.1h-1.7c-1 0-1.8.8-1.8 1.8v1.4h-.9c-.1 0-.1.1-.1.1v1.5c0 .1.1.1.1.1l1.1-.1z"/><path class="st6" d="M22.6 21.9v4.8c0 .1.1.1.1.1h1.8c.1 0 .1-.1.1-.1v-4.8h1.3c.1 0 .1-.1.1-.1l.1-1.5c0-.1 0-.1-.1-.1h-1.4v-1c0-.2.2-.4.4-.4h1c.1 0 .1-.1.1-.1v-1.5c0-.1 0-.1-.1-.1h-1.7c-1 0-1.8.8-1.8 1.8v1.4h-.9c-.1 0-.1.1-.1.1v1.5c0 .1 0 .1.1.1l1-.1z"/><path class="st7" d="M22.6 21.8v4.8c0 .1.1.1.1.1h1.8c.1 0 .1-.1.1-.1v-4.8h1.3c.1 0 .1 0 .1-.1l.1-1.5c0-.1 0-.1-.1-.1h-1.4v-1c0-.2.2-.4.4-.4h1c.1 0 .1-.1.1-.1v-1.5c0-.1-.1-.1-.1-.1h-1.7c-1 0-1.8.8-1.8 1.8v1.4h-.9c-.1 0-.1.1-.1.1v1.5c0 .1.1.1.1.1l1-.1z"/><path class="st8" d="M22.5 21.8v4.8c0 .1.1.1.1.1h1.8c.1 0 .1-.1.1-.1v-4.8h1.3c.1 0 .1-.1.1-.1l.1-1.5c0-.1 0-.1-.1-.1h-1.4v-1c0-.2.2-.4.4-.4h1c.1 0 .1 0 .1-.1v-1.5c0-.1-.1-.1-.1-.1h-1.7c-1 0-1.8.8-1.8 1.8v1.4h-.9c-.1 0-.1.1-.1.1v1.5c0 .1.1.1.1.1l1-.1z"/><path class="st9" d="M22.5 21.7v4.8c0 .1 0 .1.1.1h1.8c.1 0 .1-.1.1-.1v-4.8h1.3c.1 0 .1 0 .1-.1l.1-1.5c0-.1 0-.1-.1-.1h-1.4v-1c0-.2.2-.4.4-.4h1c.1 0 .1-.1.1-.1V17c0-.1-.1-.1-.1-.1h-1.7c-1 0-1.8.8-1.8 1.8v1.4h-.9c-.1 0-.1.1-.1.1v1.5c0 .1.1.1.1.1l1-.1z"/><path class="st10" d="M22.5 21.7v4.8c0 .1.1.1.1.1h1.8c.1 0 .1-.1.1-.1v-4.8h1.3c.1 0 .1-.1.1-.1l.1-1.5c0-.1 0-.1-.1-.1h-1.4v-1c0-.2.2-.4.4-.4h1c.1 0 .1 0 .1-.1V17c0-.1-.1-.1-.1-.1h-1.7c-1 0-1.8.8-1.8 1.8v1.4h-.9c-.1 0-.1.1-.1.1v1.5c0 .1.1.1.1.1l1-.1z"/><path class="st11" d="M22.5 21.6v4.8c0 .1 0 .1.1.1h1.8c.1 0 .1-.1.1-.1v-4.8h1.3c.1 0 .1 0 .1-.1L26 20c0-.1 0-.1-.1-.1h-1.4v-1c0-.2.2-.4.4-.4h1c.1 0 .1-.1.1-.1v-1.5c0-.1-.1-.1-.1-.1h-1.6c-1 0-1.8.8-1.8 1.8V20h-.9c-.1 0-.1.1-.1.1v1.5c0 .1.1.1.1.1l.9-.1z"/><path class="st12" d="M22.5 21.6v4.8c0 .1.1.1.1.1h1.8c.1 0 .1-.1.1-.1v-4.9h1.3c.1 0 .1 0 .1-.1l.1-1.5c0-.1 0-.1-.1-.1h-1.4v-1c0-.2.2-.4.4-.4h1c.1 0 .1 0 .1-.1v-1.5c0-.1-.1-.1-.1-.1h-1.7c-1 0-1.8.8-1.8 1.8v1.4h-.9c-.1 0-.1 0-.1.1v1.5c0 .1.1.1.1.1h1z"/><path class="st13" d="M22.4 21.5v4.8c0 .1 0 .1.1.1h1.8c.1 0 .1-.1.1-.1v-4.8h1.3c.1 0 .1 0 .1-.1l.1-1.5c0-.1 0-.1-.1-.1h-1.4v-1c0-.2.2-.4.4-.4h1c.1 0 .1-.1.1-.1v-1.5c0-.1-.1-.1-.1-.1H24c-1 0-1.8.8-1.8 1.8v1.4h-.9c-.1 0-.1.1-.1.1v1.3c0 .1.1.1.1.1h.9l.2.1z"/><path class="st14" d="M22.4 21.5v4.8c0 .1.1.1.1.1h1.8c.1 0 .1-.1.1-.1v-4.9h1.3c.1 0 .1-.1.1-.1l.1-1.5c0-.1 0-.1-.1-.1h-1.4v-1c0-.2.2-.4.4-.4h1c.1 0 .1 0 .1-.1v-1.5c0-.1-.1-.1-.1-.1H24c-1 0-1.8.8-1.8 1.8v1.4h-.9c-.1 0-.1.1-.1.1v1.4c0 .1.1.1.1.1l1.1.1z"/><path class="st15" d="M22.3 21.5v4.8c0 .1 0 .1.1.1h1.8c.1 0 .1-.1.1-.1v-4.8h1.3c.1 0 .1-.1.1-.1l.1-1.5c0-.1 0-.1-.1-.1h-1.4v-1c0-.2.2-.4.4-.4h1c.1 0 .1-.1.1-.1v-1.5c0-.1-.1-.1-.1-.1H24c-1 0-1.8.8-1.8 1.7v1.5h-.9c-.1 0-.1.1-.1.1v1.3c0 .1 0 .1.1.1l1 .1z"/><path class="st16" d="M22.3 21.4v4.8c0 .1.1.1.1.1h1.8c.1 0 .1-.1.1-.1v-4.9h1.3c.1 0 .1 0 .1-.1l.1-1.5c0-.1 0-.1-.1-.1h-1.4v-1c0-.2.2-.4.4-.4h1c.1 0 .1 0 .1-.1v-1.5c0-.1-.1-.1-.1-.1H24c-1 0-1.8.8-1.8 1.8v1.4h-.9c-.1 0-.1.1-.1.1v1.5h.2l.9.1z"/><path class="st17" d="M22.1 21.4v4.8c0 .1.1.1.1.1H24c.1 0 .1-.1.1-.1v-4.9h1.3c.1 0 .1-.1.1-.1l.1-1.5c0-.1 0-.1-.1-.1h-1.3v-1c0-.2.2-.4.4-.4h1c.1 0 .1-.1.1-.1v-1.5c0-.1-.1-.1-.1-.1H24c-1 0-1.8.8-1.8 1.8v1.4h-.9c-.1 0-.1.1-.1.1v1.5c0 .1 0 .1.1.1h.8z"/><path class="st18" d="M22.1 21.3v4.8c0 .1.1.1.1.1H24c.1 0 .1-.1.1-.1v-4.8h1.3c.1 0 .1 0 .1-.1l.1-1.5c0-.1 0-.1-.1-.1h-1.4v-1c0-.2.2-.4.4-.4h1c.1 0 .1 0 .1-.1v-1.5c0-.1-.1-.1-.1-.1h-1.7c-1 0-1.8.8-1.8 1.8v1.4h-.8c-.1 0-.1.1-.1.1v1.5c0 .1.1.1.1.1l.9-.1z"/><path class="st19" d="M22.1 21.3v4.8c0 .1.1.1.1.1H24c.1 0 .1-.1.1-.1v-4.9h1.3c.1 0 .1-.1.1-.1l.1-1.5c0-.1 0-.1-.1-.1h-1.4v-1c0-.2.2-.4.4-.4h1c.1 0 .1-.1.1-.1v-1.5c0-.1-.1-.1-.1-.1h-1.7c-1 0-1.8.8-1.8 1.8v1.4h-.8c-.1 0-.1.1-.1.1v1.5c0 .1 0 .1.1.1h.9z"/><path class="st20" d="M22 21.2V26c0 .1.1.1.1.1h1.8c.1 0 .1-.1.1-.1v-4.9h1.3c.1 0 .1 0 .1-.1l.1-1.5c0-.1 0-.1-.1-.1H24v-1c0-.2.2-.4.4-.4h1c.1 0 .1-.1.1-.1v-1.5c0-.1-.1-.1-.1-.1h-1.7c-1 0-1.8.8-1.8 1.8v1.4H21c-.1 0-.1.1-.1.1v1.5c0 .1.1.1.1.1h1z"/><path class="st21" d="M22 21.2V26c0 .1.1.1.1.1h1.8c.1 0 .1-.1.1-.1v-4.9h1.3c.1 0 .1-.1.1-.1l.1-1.5c0-.1 0-.1-.1-.1H24v-1c0-.2.2-.4.4-.4h1c.1 0 .1-.1.1-.1v-1.6c0-.1 0-.1-.1-.1h-1.7c-1 0-1.8.8-1.8 1.8v1.4H21c-.1 0-.1.1-.1.1V21c0 .1 0 .1.1.1l1 .1z"/><path class="st22" d="M22 21.1v4.8c0 .1.1.1.1.1h1.8c.1 0 .1-.1.1-.1V21h1.3c.1 0 .1 0 .1-.1l.1-1.5c0-.1 0-.1-.1-.1H24v-1c0-.2.2-.4.4-.4h1c.1 0 .1-.1.1-.1v-1.5c0-.1-.1-.1-.1-.1h-1.7c-1 0-1.8.8-1.8 1.8v1.4H21c-.1 0-.1.1-.1.1V21c0 .1.1.1.1.1h1z"/><path class="st23" d="M22 21.1v4.8c0 .1.1.1.1.1h1.8c.1 0 .1-.1.1-.1V21h1.3c.1 0 .1-.1.1-.1l.1-1.5c0-.1 0-.1-.1-.1H24v-1c0-.2.2-.4.4-.4h1c.1 0 .1-.1.1-.1v-1.5c0-.1 0-.1-.1-.1h-1.7c-1 0-1.8.8-1.8 1.8v1.3H21c-.1 0-.1.1-.1.1v1.5c0 .1.1.1.1.1l1 .1z"/><path class="st24" d="M21.9 21.1v4.8c0 .1 0 .1.1.1h1.8c.1 0 .1-.1.1-.1V21h1.3c.1 0 .1 0 .1-.1l.1-1.5c0-.1 0-.1-.1-.1h-1.4v-1c0-.2.2-.4.4-.4h1c.1 0 .1-.1.1-.1v-1.5c0-.1-.1-.1-.1-.1h-1.7c-1 0-1.8.8-1.8 1.8v1.3h-.9c-.1 0-.1.1-.1.1v1.5c0 .1.1.1.1.1l1 .1z"/><path class="st25" d="M21.9 21v4.8c0 .1.1.1.1.1h1.8c.1 0 .1-.1.1-.1v-4.9h1.3c.1 0 .1-.1.1-.1l.1-1.5c0-.1 0-.1-.1-.1h-1.4v-1c0-.2.2-.4.4-.4h1c.1 0 .1 0 .1-.1v-1.5c0-.1-.1-.1-.1-.1h-1.7c-1 0-1.8.8-1.8 1.8v1.4h-.9c-.1 0-.1.1-.1.1v1.5c0 .1.1.1.1.1h1z"/><path class="st26" d="M21.8 21v4.8c0 .1 0 .1.1.1h1.8c.1 0 .1-.1.1-.1v-4.9H25c.1 0 .1 0 .1-.1l.1-1.5c0-.1 0-.1-.1-.1h-1.4v-1c0-.2.2-.4.4-.5h1c.1 0 .1-.1.1-.1v-1.5c0-.1-.1-.1-.1-.1h-1.7c-1 0-1.8.8-1.8 1.8v1.4h-.9c-.1 0-.1.1-.1.1v1.5c0 .1.1.1.1.1l1.1.1z"/><path class="st27" d="M21.8 20.9v4.8c0 .1.1.1.1.1h1.8c.1 0 .1-.1.1-.1v-4.8H25c.1 0 .1 0 .1-.1l.1-1.5c0-.1 0-.1-.1-.1h-1.4v-1c0-.2.2-.4.4-.4h1c.1 0 .1 0 .1-.1v-1.5c0-.1-.1-.1-.1-.1h-1.7c-1 0-1.8.8-1.8 1.8v1.4h-.9c-.1 0-.1 0-.1.1v1.5c0 .1.1.1.1.1l1.1-.1z"/><path class="st28" d="M21.8 20.9v4.8c0 .1 0 .1.1.1h1.8c.1 0 .1-.1.1-.1v-4.9H25c.1 0 .1 0 .1-.1l.1-1.5c0-.1 0-.1-.1-.1h-1.4v-1c0-.2.2-.4.4-.4h1c.1 0 .1-.1.1-.1v-1.5c0-.1-.1-.1-.1-.1h-1.7c-1 0-1.8.8-1.8 1.8v1.4h-.9c-.1 0-.1.1-.1.1v1.5c0 .1.1.1.1.1h1.1z"/><path class="st29" d="M21.6 20.8v4.8c0 .1.1.1.1.1h1.8c.1 0 .1-.1.1-.1v-4.8H25c.1 0 .1 0 .1-.1l.2-1.5c0-.1 0-.1-.1-.1h-1.5v-1c0-.2.2-.4.4-.4h1c.1 0 .1 0 .1-.1v-1.5c0-.1-.1-.1-.1-.1h-1.7c-1 0-1.8.8-1.8 1.8v1.4h-.9c-.1 0-.1.1-.1.1v1.5c0 .1.1.1.1.1l.9-.1z"/><path class="st30" d="M21.6 20.8v4.8c0 .1 0 .1.1.1h1.8c.1 0 .1-.1.1-.1v-4.8H25c.1 0 .1-.1.1-.1l.1-1.5c0-.1 0-.1-.1-.1h-1.4v-1c0-.2.2-.4.4-.4h1c.1 0 .1-.1.1-.1v-1.5c-.1-.1-.2-.1-.2-.1h-1.7c-1 0-1.8.8-1.8 1.8v1.4h-.9c-.1 0-.1.1-.1.1v1.5c0 .1 0 .1.1.1l1-.1z"/><path class="st31" d="M21.5 20.7v4.8c0 .1.1.1.1.1h1.8c.1 0 .1-.1.1-.1v-4.8h1.3c.1 0 .1 0 .1-.1l.1-1.5c0-.1 0-.1-.1-.1h-1.4v-1c0-.2.2-.4.4-.4h1c.1 0 .1 0 .1-.1V16c0-.1-.1-.1-.1-.1h-1.7c-1 0-1.8.8-1.8 1.8v1.4h-.9c-.1 0-.1.1-.1.1v1.5c0 .1.1.1.1.1l1-.1z"/><path class="st32" d="M21.5 20.7v4.8c0 .1.1.1.1.1h1.8c.1 0 .1-.1.1-.1v-4.8h1.3c.1 0 .1-.1.1-.1l.1-1.5c0-.1 0-.1-.1-.1h-1.4v-1c0-.2.2-.4.4-.4h1c.1 0 .1-.1.1-.1V16c0-.1-.1-.1-.1-.1h-1.7c-1 0-1.8.8-1.8 1.8v1.4h-.9c-.1 0-.1.1-.1.1v1.5c0 .1 0 .1.1.1l1-.1z"/><path class="st33" d="M21.5 20.7v4.8c0 .1.1.1.1.1h1.8c.1 0 .1-.1.1-.1v-4.8h1.3c.1 0 .1 0 .1-.1l.1-1.5c0-.1 0-.1-.1-.1h-1.4v-1c0-.2.2-.4.4-.4h1c.1 0 .1-.1.1-.1V16c0-.1-.1-.1-.1-.1h-1.6c-1 0-1.8.8-1.8 1.8v1.4h-.9c-.1 0-.1.1-.1.1v1.5c0 .1.1.1.1.1l.9-.1z"/><path class="st34" d="M21.5 20.6v4.8c0 .1.1.1.1.1h1.8c.1 0 .1-.1.1-.1v-4.8h1.3c.1 0 .1-.1.1-.1L25 19c0-.1 0-.1-.1-.1h-1.4v-1c0-.2.2-.4.4-.4h1c.1 0 .1-.1.1-.1v-1.5c0-.1-.1-.1-.1-.1h-1.6c-1 0-1.8.8-1.8 1.8V19h-.9c-.1 0-.1.1-.1.1v1.5c0 .1 0 .1.1.1l.9-.1z"/><path class="st35" d="M21.4 20.6v4.7c0 .1.1.1.1.1h1.8c.1 0 .1-.1.1-.1v-4.8h1.3c.1 0 .1 0 .1-.1l.1-1.5c0-.1 0-.1-.1-.1h-1.4v-1c0-.2.2-.4.4-.4h1c.1 0 .1-.1.1-.1v-1.5c0-.1-.1-.1-.1-.1H23c-1 0-1.8.8-1.8 1.8v1.4h-.9c-.1 0-.1.1-.1.1v1.5c0 .1.1.1.1.1h1.1z"/><path class="st36" d="M21.4 20.5v4.8c0 .1.1.1.1.1h1.8c.1 0 .1-.1.1-.1v-4.9h1.3c.1 0 .1-.1.1-.1l.1-1.5c0-.1 0-.1-.1-.1h-1.4v-1c0-.2.2-.4.4-.4h1c.1 0 .1-.1.1-.1v-1.5c0-.1 0-.1-.1-.1H23c-1 0-1.8.8-1.8 1.8v1.4h-.9c-.1 0-.1.1-.1.1v1.4c0 .1 0 .1.1.1l1.1.1z"/><path class="st37" d="M21.3 20.5v4.8c0 .1.1.1.1.1h1.8c.1 0 .1-.1.1-.1v-4.8h1.3c.1 0 .1 0 .1-.1l.1-1.5c0-.1 0-.1-.1-.1h-1.4v-1c0-.2.2-.4.4-.4h1c.1 0 .1-.1.1-.1v-1.5c0-.1-.1-.1-.1-.1h-1.6c-1 0-1.8.8-1.8 1.7v1.5h-.9c-.1 0-.1.1-.1.1v1.3c0 .1.1.1.1.1l.9.1z"/><path class="st38" d="M21.3 20.4v4.8c0 .1.1.1.1.1h1.8c.1 0 .1 0 .1-.1v-4.9h1.3c.1 0 .1-.1.1-.1l.1-1.5c0-.1 0-.1-.1-.1h-1.4v-1c0-.2.2-.4.4-.4h1c.1 0 .1-.1.1-.1v-1.5c0-.1 0-.1-.1-.1H23c-1 0-1.8.8-1.8 1.8v1.4h-.9c-.1 0-.1.1-.1.1v1.5c0 .1.1.1.1.1h1z"/><path class="st39" d="M21.3 20.4v4.8c0 .1 0 .1.1.1h1.8c.1 0 .1-.1.1-.1v-4.9h1.3c.1 0 .1 0 .1-.1l.1-1.5c0-.1 0-.1-.1-.1h-1.4v-1c0-.2.2-.4.4-.4h1c.1 0 .1-.1.1-.1v-1.5c0-.1-.1-.1-.1-.1H23c-1 0-1.7.8-1.7 1.8v1.4h-.9c-.1 0-.1.1-.1.1v1.5c0 .1.1.1.1.1h.9z"/><path class="st40" d="M21.1 20.3v4.8c0 .1.1.1.1.1H23c.1 0 .1-.1.1-.1v-4.8h1.3c.1 0 .1-.1.1-.1l.1-1.5c0-.1 0-.1-.1-.1h-1.4v-1c0-.2.2-.4.4-.4h1c.1 0 .1 0 .1-.1v-1.5c0-.1-.1-.1-.1-.1h-1.7c-1 0-1.8.8-1.8 1.8v1.4h-.8c-.1 0-.1.1-.1.1v1.5c0 .1 0 .1.1.2h.9v-.2z"/><path class="st41" d="M21.1 20.3v4.8c0 .1 0 .1.1.1H23c.1 0 .1-.1.1-.1v-4.9h1.3c.1 0 .1 0 .1-.1l.1-1.5c0-.1 0-.1-.1-.1h-1.4v-1c0-.2.2-.4.4-.4h1c.1 0 .1-.1.1-.1v-1.5c0-.1-.1-.1-.1-.1h-1.7c-1 0-1.8.8-1.8 1.8v1.4h-.8c-.1 0-.1.1-.1.1v1.5c0 .1.1.1.1.1h.9z"/><path class="st42" d="M21 20.3v4.8c0 .1.1.1.1.1h1.8c.1 0 .1-.1.1-.1v-4.9h1.3c.1 0 .1 0 .1-.1l.1-1.5c0-.1 0-.1-.1-.1H23v-1c0-.2.2-.4.4-.4h1c.1 0 .1 0 .1-.1v-1.5c0-.1-.1-.1-.1-.1h-1.7c-1 0-1.8.8-1.8 1.8v1.4H20c-.1 0-.1 0-.1.1v1.5c0 .1.1.1.1.1h1z"/><path class="st43" d="M21 20.2V25c0 .1 0 .1.1.1h1.8c.1 0 .1-.1.1-.1v-4.8h1.3c.1 0 .1 0 .1-.1l.1-1.5c0-.1 0-.1-.1-.1H23v-1c0-.2.2-.4.4-.4h1c.1 0 .1-.1.1-.1v-1.5c0-.1-.1-.1-.1-.1h-1.7c-1 0-1.8.8-1.8 1.8v1.4H20c-.1 0-.1.1-.1.1v1.5c0 .1.1.1.1.1l1-.1z"/><path class="st44" d="M21 20.2V25c0 .1.1.1.1.1h1.8c.1 0 .1-.1.1-.1v-4.9h1.3c.1 0 .1 0 .1-.1l.1-1.5c0-.1 0-.1-.1-.1H23v-1.1c0-.2.2-.4.4-.4h1c.1 0 .1 0 .1-.1v-1.5c0-.1-.1-.1-.1-.1h-1.7c-1 0-1.8.8-1.8 1.8v1.4H20c-.1 0-.1.1-.1.1V20c0 .1.1.1.1.1l1 .1z"/><path class="st45" d="M21 20.1v4.8c0 .1 0 .1.1.1h1.8c.1 0 .1-.1.1-.1v-4.8h1.3c.1 0 .1 0 .1-.1l.1-1.5c0-.1 0-.1-.1-.1H23v-1c0-.2.2-.4.4-.4h1c.1 0 .1-.1.1-.1v-1.6c0-.1-.1-.1-.1-.1h-1.7c-1 0-1.8.8-1.8 1.8v1.3H20c-.1 0-.1.1-.1.1v1.5c0 .1.1.1.1.1h.9l.1.1z"/><path class="st46" d="M20.9 20.1v4.8c0 .1.1.1.1.1h1.8c.1 0 .1-.1.1-.1V20h1.4c.1 0 .1 0 .1-.1l.1-1.5c0-.1 0-.1-.1-.1h-1.5v-1c0-.2.2-.4.4-.4h1c.1 0 .1 0 .1-.1v-1.5c0-.1-.1-.1-.1-.1h-1.7c-1 0-1.8.8-1.8 1.8v1.3h-.9c-.1 0-.1.1-.1.1v1.5c0 .1.1.1.1.1l1 .1z"/><path class="st47" d="M20.9 20v4.8c0 .1.1.1.1.1h1.8c.1 0 .1-.1.1-.1v-4.9h1.3c.1 0 .1-.1.1-.1l.1-1.5c0-.1 0-.1-.1-.1h-1.4v-1c0-.2.2-.4.4-.4h1c.1 0 .1-.1.1-.1v-1.5c0-.1-.1-.1-.1-.1h-1.7c-1 0-1.8.8-1.8 1.8v1.4h-.9c-.1 0-.1.1-.1.1v1.5c0 .1 0 .1.1.1h1z"/><path class="st48" d="M20.8 20v4.8c0 .1.1.1.1.1h1.8c.1 0 .1-.1.1-.1v-4.9H24c.1 0 .1 0 .1-.1l.1-1.5c0-.1 0-.1-.1-.1h-1.4v-1c0-.2.2-.4.4-.4h1c.1 0 .1 0 .1-.1v-1.5c0-.1-.1-.1-.1-.1h-1.7c-1 0-1.8.8-1.8 1.8v1.4h-.9c-.1 0-.1.1-.1.1v1.5c0 .1.1.1.1.1h1.1z"/><path class="st49" d="M20.8 19.9v4.8c0 .1.1.1.1.1h1.8c.1 0 .1-.1.1-.1v-4.9H24c.1 0 .1-.1.1-.1l.1-1.4c0-.1 0-.1-.1-.1h-1.4v-1c0-.2.2-.4.4-.4h1c.1 0 .1-.1.1-.1v-1.5c0-.1-.1-.1-.1-.1h-1.7c-1 0-1.8.8-1.8 1.8v1.4h-.9c-.1 0-.1.1-.1.1v1.5c0 .1 0 .1.1.1l1.1-.1z"/><path class="st50" d="M20.8 19.9v4.8c0 .1.1.1.1.1h1.8c.1 0 .1-.1.1-.1v-4.9H24c.1 0 .1 0 .1-.1l.1-1.5c0-.1 0-.1-.1-.1h-1.4v-1c0-.2.2-.4.4-.4h1c.1 0 .1-.1.1-.2V15c0-.1-.1-.1-.1-.1h-1.6c-1 0-1.8.8-1.8 1.8v1.4h-.9c-.1 0-.1.1-.1.1v1.5c0 .1.1.1.1.1l1 .1z"/><path class="st51" d="M20.6 19.8v4.8c0 .1.1.1.1.1h1.8c.1 0 .1-.1.1-.1v-4.9h1.3c.1 0 .1-.1.1-.1l.1-1.5c0-.1 0-.1-.1-.1h-1.4v-1c0-.2.2-.4.4-.4h1c.1 0 .1-.1.1-.1V15c0-.1-.1-.1-.1-.1h-1.7c-1 0-1.8.8-1.8 1.8v1.4h-.9c-.1 0-.1.1-.1.1v1.5c0 .1 0 .1.1.1h1z"/><path class="st52" d="M20.6 19.8v4.8c0 .1.1.1.1.1h1.8c.1 0 .1-.1.1-.1v-4.9h1.3c.1 0 .1 0 .1-.1l.1-1.5c0-.1 0-.1-.1-.1h-1.4v-1c0-.2.2-.4.4-.4h1c.1 0 .1-.1.1-.1V15c0-.1-.1-.1-.1-.1h-1.7c-1 0-1.8.8-1.8 1.8v1.4h-.9c-.1 0-.1.1-.1.1v1.5c0 .1.1.1.1.1h1z"/><path class="st53" d="M20.5 19.8v4.8c0 .1.1.1.1.1h1.8c.1 0 .1-.1.1-.1v-4.9h1.3c.1 0 .1-.1.1-.1l.1-1.5c0-.1 0-.1-.1-.1h-1.4v-1c0-.2.2-.4.4-.4h1c.1 0 .1-.1.1-.1V15c0-.1 0-.1-.1-.1h-1.7c-1 0-1.8.8-1.8 1.8v1.4h-.9c-.1 0-.1.1-.1.1v1.5c0 .1.1.1.1.1h1z"/><path class="st54" d="M20.5 19.7v4.8c0 .1 0 .1.1.1h1.8c.1 0 .1-.1.1-.1v-4.9h1.3c.1 0 .1 0 .1-.1L24 18c0-.1 0-.1-.1-.1h-1.4v-1c0-.2.2-.4.4-.4h1c.1 0 .1-.1.1-.1v-1.5c0-.1-.1-.1-.1-.1h-1.7c-1 0-1.8.8-1.8 1.8V18h-.9c-.1 0-.1.1-.1.1v1.5c0 .1.1.1.1.1h1z"/><path class="st55" d="M20.5 19.7v4.8c0 .1.1.1.1.1h1.8c.1 0 .1-.1.1-.1v-4.8h1.3c.1 0 .1-.1.1-.1l.1-1.5c0-.1 0-.1-.1-.1h-1.4v-1c0-.2.2-.4.4-.4h1c.1 0 .1 0 .1-.1V15c0-.1-.1-.1-.1-.1h-1.6c-1 0-1.8.8-1.8 1.8v1.4h-.9c-.1 0-.1.1-.1.1v1.5c0 .1.1.1.1.1l.9-.1z"/><path class="st56" d="M20.5 19.6v4.8c0 .1 0 .1.1.1h1.8c.1 0 .1-.1.1-.1v-4.9h1.3c.1 0 .1 0 .1-.1l.1-1.5c0-.1 0-.1-.1-.1h-1.4v-1c0-.2.2-.4.4-.4h1c.1 0 .1-.1.1-.1v-1.5c0-.1-.1-.1-.1-.1h-1.6c-1 0-1.8.8-1.8 1.8v1.4h-.9c-.1 0-.1.1-.1.1v1.5c0 .1.1.1.1.1h.9z"/><path class="st57" d="M20.4 19.6v4.8c0 .1.1.1.1.1h1.8c.1 0 .1-.1.1-.1v-4.8h1.3c.1 0 .1 0 .1-.1l.1-1.5c0-.1 0-.1-.1-.1h-1.4v-1c0-.2.2-.4.4-.4h1c.1 0 .1 0 .1-.1v-1.5c0-.1-.1-.1-.1-.1H22c-1 0-1.8.8-1.8 1.8V18h-.9c-.1 0-.1 0-.1.1v1.5c0 .1.1.1.1.1l1.1-.1z"/><path class="st58" d="M20.4 19.5v4.8c0 .1 0 .1.1.1h1.8c.1 0 .1-.1.1-.1v-4.9h1.3c.1 0 .1 0 .1-.1l.1-1.5c0-.1 0-.1-.1-.1h-1.4v-1c0-.2.2-.4.4-.4h1c.1 0 .1-.1.1-.1v-1.5c0-.1-.1-.1-.1-.1H22c-1 0-1.8.8-1.8 1.7v1.4h-.9c-.1 0-.1.1-.1.1v1.5c0 .1.1.1.1.1h.9v.1h.2z"/><path class="st59" d="M20.4 19.5v4.8c0 .1.1.1.1.1h1.8c.1 0 .1-.1.1-.1v-4.9h1.3c.1 0 .1 0 .1-.1l.1-1.5c0-.1 0-.1-.1-.1h-1.5v-1c0-.2.2-.4.4-.4h1c.1 0 .1 0 .1-.1v-1.5c0-.1-.1-.1-.1-.1H22c-1 0-1.8.8-1.8 1.8v1.4h-.9c-.1 0-.1.1-.1.1v1.4c0 .1.1.1.1.1l1.1.1z"/><path class="st60" d="M20.3 19.4v4.8c0 .1 0 .1.1.1h1.8c.1 0 .1 0 .1-.1v-4.9h1.3c.1 0 .1 0 .1-.1l.1-1.5c0-.1 0-.1-.1-.1h-1.4v-1c0-.2.2-.4.4-.4h1c.1 0 .1-.1.1-.1v-1.5c0-.1-.1-.1-.1-.1H22c-1 0-1.8.8-1.8 1.7v1.5h-.9c-.1 0-.1.1-.1.1v1.5c0 .1.1.1.1.1h1z"/><path class="st61" d="M20.3 19.4v4.8c0 .1.1.1.1.1h1.8c.1 0 .1-.1.1-.1v-4.9h1.3c.1 0 .1 0 .1-.1l.1-1.5c0-.1 0-.1-.1-.1h-1.4v-1c0-.2.2-.4.4-.4h1c.1 0 .1 0 .1-.1v-1.5c0-.1-.1-.1-.1-.1H22c-1 0-1.8.8-1.8 1.8v1.4h-.9c-.1 0-.1.1-.1.1v1.5c0 .1.1.1.1.1h1z"/><path class="st62" d="M20.1 19.4v4.8c0 .1.1.1.1.1H22c.1 0 .1-.1.1-.1v-4.9h1.3c.1 0 .1-.1.1-.1l.1-1.5c0-.1 0-.1-.1-.1h-1.3v-1c0-.2.2-.4.4-.4h1c.1 0 .1-.1.1-.1v-1.5c0-.1-.1-.1-.1-.1h-1.7c-1 0-1.8.8-1.8 1.8v1.4h-.9c-.1 0-.1.1-.1.1v1.5c0 .1 0 .1.1.1h.9z"/><path class="st63" d="M20.1 19.3v4.8c0 .1.1.1.1.1H22c.1 0 .1-.1.1-.1v-4.8h1.3c.1 0 .1 0 .1-.1l.1-1.5c0-.1 0-.1-.1-.1h-1.4v-1c0-.2.2-.4.4-.4h1c.1 0 .1 0 .1-.1v-1.5c0-.1-.1-.1-.1-.1h-1.7c-1 0-1.8.8-1.8 1.8v1.4h-.8c-.1 0-.1.1-.1.1v1.5c0 .1.1.1.1.1l.9-.1z"/><path class="st64" d="M20 19.3v4.8c0 .1.1.1.1.1h1.8c.1 0 .1-.1.1-.1v-4.9h1.3c.1 0 .1-.1.1-.1l.1-1.5c0-.1 0-.1-.1-.1H22v-1c0-.2.2-.4.4-.4h1c.1 0 .1-.1.1-.1v-1.5c0-.1-.1-.1-.1-.1h-1.7c-1 0-1.8.8-1.8 1.8v1.4h-.7c-.1 0-.1.1-.1.1v1.5c0 .1 0 .1.1.1h.9-.1z"/><path class="st65" d="M20 19.2V24c0 .1.1.1.1.1h1.8c.1 0 .1-.1.1-.1v-4.9h1.3c.1 0 .1 0 .1-.1l.1-1.5c0-.1 0-.1-.1-.1H22v-1c0-.2.2-.4.4-.4h1c.1 0 .1-.1.1-.1v-1.5c0-.1-.1-.1-.1-.1h-1.7c-1 0-1.8.8-1.8 1.8v1.4H19c-.1 0-.1.1-.1.1v1.5c0 .1.1.1.1.1h1z"/><path class="st66" d="M20 19.2V24c0 .1.1.1.1.1h1.8c.1 0 .1-.1.1-.1v-4.9h1.3c.1 0 .1-.1.1-.1l.1-1.5c0-.1 0-.1-.1-.1H22v-1c0-.2.2-.4.4-.4h1c.1 0 .1-.1.1-.1v-1.6c0-.1-.1-.1-.1-.1h-1.7c-1 0-1.8.8-1.8 1.8v1.4H19c-.1 0-.1.1-.1.1V19c0 .1 0 .1.1.1l1 .1z"/><path class="st67" d="M20 19.1v4.8c0 .1.1.1.1.1h1.8c.1 0 .1-.1.1-.1V19h1.3c.1 0 .1 0 .1-.1l.1-1.5c0-.1 0-.1-.1-.1H22v-1c0-.2.2-.4.4-.4h1c.1 0 .1-.1.1-.1v-1.5c0-.1-.1-.1-.1-.1h-1.7c-1 0-1.8.8-1.8 1.8v1.3H19c-.1 0-.1.1-.1.1v1.5c0 .1.1.1.1.1h.9l.1.1z"/><path class="st68" d="M20 19.1v4.8c0 .1.1.1.1.1h1.8c.1 0 .1-.1.1-.1V19h1.3c.1 0 .1-.1.1-.1l.1-1.5c0-.1 0-.1-.1-.1H22v-1c0-.2.2-.4.4-.4h1c.1 0 .1-.1.1-.1v-1.5c0-.1 0-.1-.1-.1h-1.7c-1 0-1.8.8-1.8 1.8v1.3H19c-.1 0-.1.1-.1.1v1.5c0 .1.1.1.1.1l1 .1z"/><path class="st69" d="M19.9 19v4.8c0 .1 0 .1.1.1h1.8c.1 0 .1-.1.1-.1v-4.9h1.3c.1 0 .1 0 .1-.1l.1-1.5c0-.1-.1-.1-.2-.1h-1.4v-1c0-.2.2-.4.4-.4h1c.1 0 .1-.1.1-.1v-1.5c0-.1-.1-.1-.1-.1h-1.7c-1 0-1.8.8-1.8 1.8v1.4h-.9c-.1 0-.1.1-.1.1v1.5c0 .1.1.1.1.1h1.1z"/><path class="st70" d="M19.9 19v4.8c0 .1.1.1.1.1h1.8c.1 0 .1-.1.1-.1v-4.9h1.3c.1 0 .1-.1.1-.1l.1-1.5c0-.1 0-.1-.1-.1h-1.4v-1c0-.2.2-.4.4-.4h1c.1 0 .1 0 .1-.1v-1.5c0-.1-.1-.1-.1-.1h-1.7c-1 0-1.8.8-1.8 1.8v1.4h-.9c-.1 0-.1.1-.1.1v1.5c0 .1.1.1.1.1h1z"/><path class="st71" d="M19.8 19v4.8c0 .1 0 .1.1.1h1.8c.1 0 .1-.1.1-.1v-4.9H23c.1 0 .1 0 .1-.1l.1-1.5c0-.1 0-.1-.1-.1h-1.4v-1c0-.2.2-.4.4-.4h1c.1 0 .1-.1.1-.1v-1.5c0-.1-.1-.1-.1-.1h-1.7c-1 0-1.8.8-1.8 1.8v1.4h-.9c-.1 0-.1.1-.1.1v1.5c0 .1.1.1.1.1h1.1z"/><path class="st72" d="M19.8 18.9v4.8c0 .1.1.1.1.1h1.8c.1 0 .1-.1.1-.1v-4.9H23c.1 0 .1 0 .1-.1l.1-1.4c0-.1 0-.1-.1-.1h-1.4v-1c0-.2.2-.4.4-.4h1c.1 0 .1 0 .1-.1v-1.5c0-.1-.1-.1-.1-.1h-1.7c-1 0-1.8.8-1.8 1.8v1.4h-.9c-.1 0-.1.1-.1.1v1.5c0 .1.1.1.1.1l1.1-.1z"/><path class="st73" d="M19.6 18.9v4.8c0 .1 0 .1.1.1h1.8c.1 0 .1-.1.1-.1v-4.9h1.3c.1 0 .1 0 .1-.1l.1-1.5c0-.1 0-.1-.1-.1h-1.4v-1c0-.2.2-.4.4-.4h1c.1 0 .1-.1.1-.1v-1.5c0-.1-.1-.1-.1-.1h-1.7c-1 0-1.8.8-1.8 1.8v1.4h-.9c-.1 0-.1.1-.1.1v1.5c0 .1.1.1.1.1h1z"/><path class="st74" d="M19.6 18.8v4.8c0 .1.1.1.1.1h1.8c.1 0 .1-.1.1-.1v-4.9h1.3c.1 0 .1 0 .1-.1l.1-1.5c0-.1 0-.1-.1-.1h-1.4v-1c0-.2.2-.4.4-.4h1c.1 0 .1 0 .1-.1V14c0-.1-.1-.1-.1-.1h-1.7c-1 0-1.8.8-1.8 1.8v1.4h-.9c-.1 0-.1.1-.1.1v1.5c0 .1.1.1.1.1h1z"/><path class="st75" d="M19.6 18.8v4.8c0 .1 0 .1.1.1h1.8c.1 0 .1-.1.1-.1v-4.9h1.3c.1 0 .1 0 .1-.1l.1-1.5c0-.1 0-.1-.1-.1h-1.4v-1c0-.2.2-.4.4-.4h1c.1 0 .1-.1.1-.1V14c0-.1-.1-.1-.1-.1h-1.7c-1 0-1.8.8-1.8 1.8v1.4h-.9c-.1 0-.1.1-.1.1v1.5c0 .1.1.1.1.1h1z"/><path class="st76" d="M19.5 18.7v4.8c0 .1.1.1.1.1h1.8c.1 0 .1-.1.1-.1v-4.9h1.3c.1 0 .1 0 .1-.1L23 17c0-.1 0-.1-.1-.1h-1.4v-1c0-.2.2-.4.4-.4h1c.1 0 .1 0 .1-.1v-1.5c0-.1-.1-.1-.1-.1h-1.7c-1 0-1.8.8-1.8 1.8V17h-.9c-.1 0-.1.1-.1.1v1.5c0 .1.1.1.1.1h1z"/><path class="st77" d="M19.5 18.7v4.8c0 .1.1.1.1.1h1.8c.1 0 .1-.1.1-.1v-4.9h1.3c.1 0 .1-.1.1-.1L23 17c0-.1 0-.1-.1-.1h-1.4v-1c0-.2.2-.4.4-.4h1c.1 0 .1-.1.1-.1v-1.5c0-.1-.1-.1-.1-.1h-1.7c-1 0-1.8.8-1.8 1.8V17h-.9c-.1 0-.1.1-.1.1v1.5c0 .1 0 .1.1.1h1z"/><path class="st78" d="M19.5 18.6v4.8c0 .1.1.1.1.1h1.8c.1 0 .1-.1.1-.1v-4.9h1.3c.1 0 .1 0 .1-.1l.1-1.5c0-.1 0-.1-.1-.1h-1.4v-1c0-.2.2-.4.4-.4h1c.1 0 .1 0 .1-.1v-1.5c0-.1-.1-.1-.1-.1h-1.6c-1 0-1.8.8-1.8 1.8v1.4h-.9c-.1 0-.1.1-.1.1v1.5c0 .1.1.1.1.1h.9z"/><path class="st79" d="M19.5 18.6v4.8c0 .1.1.1.1.1h1.8c.1 0 .1-.1.1-.1v-4.9h1.3c.1 0 .1-.1.1-.1l.1-1.5c0-.1 0-.1-.1-.1h-1.4v-1c0-.2.2-.4.4-.4h1c.1 0 .1-.1.1-.1v-1.5c0-.1-.1-.1-.1-.1h-1.6c-1 0-1.8.8-1.8 1.8v1.4h-.9c-.1 0-.1.1-.1.1v1.5c0 .1 0 .1.1.1h.9z"/><path class="st80" d="M19.4 18.6v4.7c0 .1.1.1.1.1h1.8c.1 0 .1-.1.1-.1v-4.8h1.3c.1 0 .1 0 .1-.1l.1-1.5c0-.1 0-.1-.1-.1h-1.4v-1c0-.2.2-.4.4-.4h1c.1 0 .1-.1.1-.1v-1.5c0-.1-.1-.1-.1-.1H21c-1 0-1.8.8-1.8 1.8v1.4h-.9c-.1 0-.1.1-.1.1v1.5c0 .1.1.1.1.1h1.1z"/><path class="st81" d="M19.4 18.5v4.8c0 .1.1.1.1.1h1.8c.1 0 .1-.1.1-.1v-4.9h1.3c.1 0 .1-.1.1-.1l.1-1.5c0-.1 0-.1-.1-.1h-1.4v-1c0-.2.2-.4.4-.4h1c.1 0 .1-.1.1-.1v-1.5c0-.1-.1-.1-.1-.1H21c-1 0-1.8.8-1.8 1.8v1.4h-.9c-.1 0-.1.1-.1.1v1.4c0 .1 0 .1.1.1l1.1.1z"/><path class="st82" d="M19.3 18.5v4.8c0 .1.1.1.1.1h1.8c.1 0 .1-.1.1-.1v-4.9h1.3c.1 0 .1 0 .1-.1l.1-1.5c0-.1 0-.1-.1-.1h-1.4v-1c0-.2.2-.4.4-.4h1c.1 0 .1-.1.1-.1v-1.5c0-.1-.1-.1-.1-.1H21c-1 0-1.8.8-1.8 1.7v1.5h-.9c-.1 0-.1.1-.1.1v1.4c0 .1.1.1.1.1l1 .1z"/><path class="st83" d="M19.3 18.4v4.8c0 .1.1.1.1.1h1.8c.1 0 .1 0 .1-.1v-4.9h1.3c.1 0 .1-.1.1-.1l.1-1.5c0-.1 0-.1-.1-.1h-1.4v-1c0-.2.2-.4.4-.4h1c.1 0 .1-.1.1-.1v-1.5c0-.1 0-.1-.1-.1H21c-1 0-1.8.8-1.8 1.8v1.4h-.9c-.1 0-.1.1-.1.1v1.5c0 .1 0 .1.1.1h1z"/><path class="st84" d="M19.1 18.4v4.8c0 .1.1.1.1.1H21c.1 0 .1-.1.1-.1v-4.9h1.3c.1 0 .1 0 .1-.1l.1-1.5c0-.1 0-.1-.1-.1h-1.3v-1c0-.2.2-.4.4-.4h1c.1 0 .1-.1.1-.1v-1.5c0-.1-.1-.1-.1-.1h-1.7c-1 0-1.8.8-1.8 1.8v1.4h-.9c-.1 0-.1.1-.1.1v1.5c0 .1.1.1.1.1h.9z"/></g><path class="st85" d="M19.1 18.4v4.8c0 .1.1.1.1.1H21c.1 0 .1-.1.1-.1v-4.9h1.3c.1 0 .1 0 .1-.1l.1-1.5c0-.1 0-.1-.1-.1h-1.3v-1c0-.2.2-.4.4-.4h1c.1 0 .1-.1.1-.1v-1.5c0-.1-.1-.1-.1-.1h-1.7c-1 0-1.8.8-1.8 1.8v1.4h-.9c-.1 0-.1.1-.1.1v1.5c0 .1.1.1.1.1h.9z"/></g></svg>