<svg xmlns="http://www.w3.org/2000/svg" viewBox="0 0 100 100"><defs><style>.cls-1{fill:url(#radial-gradient)}.cls-2{fill:url(#linear-gradient)}.cls-3{fill:url(#radial-gradient-2)}.cls-4{fill:url(#linear-gradient-2)}.cls-5{fill:url(#radial-gradient-3)}.cls-6{fill:#fff}</style><radialGradient id="radial-gradient" cx="50" cy="50" r="47.12" gradientUnits="userSpaceOnUse"><stop offset=".65" stop-color="#e632b7"/><stop offset=".71" stop-color="#df33b5"/><stop offset=".79" stop-color="#cd36b0"/><stop offset=".9" stop-color="#ae3ba8"/><stop offset="1" stop-color="#89419e"/></radialGradient><linearGradient id="linear-gradient" x1="81.76" y1="13.54" x2="48.31" y2="46.99" gradientUnits="userSpaceOnUse"><stop offset=".26" stop-color="#d852d2"/><stop offset=".75" stop-color="#f251b3" stop-opacity=".34"/><stop offset="1" stop-color="#ff51a3" stop-opacity="0"/></linearGradient><radialGradient id="radial-gradient-2" cx="50.9" cy="48.61" r="56.14" gradientUnits="userSpaceOnUse"><stop offset=".48" stop-color="#c841a3"/><stop offset=".55" stop-color="#c53fa2"/><stop offset=".61" stop-color="#bb3a9f"/><stop offset=".67" stop-color="#ab3199"/><stop offset=".71" stop-color="#952591"/><stop offset=".76" stop-color="#791688"/></radialGradient><linearGradient id="linear-gradient-2" x1="73.94" y1="23.87" x2="43.9" y2="53.91" gradientUnits="userSpaceOnUse"><stop offset=".25" stop-color="#d95ab1"/><stop offset=".74" stop-color="#f254a8" stop-opacity=".35"/><stop offset="1" stop-color="#ff51a3" stop-opacity="0"/></linearGradient><radialGradient id="radial-gradient-3" cx="49.15" cy="47.76" r="51.16" gradientUnits="userSpaceOnUse"><stop offset=".28" stop-color="#ae1489"/><stop offset=".35" stop-color="#aa1387"/><stop offset=".43" stop-color="#9e1081"/><stop offset=".5" stop-color="#8a0b78"/><stop offset=".58" stop-color="#6e046b"/><stop offset=".62" stop-color="#5d0063"/></radialGradient></defs><g id="OBJECTS"><path class="cls-1" d="M96.08 44.77l-9.8-23.65a13.69 13.69 0 0 0-7.4-7.4l-23.65-9.8a13.73 13.73 0 0 0-10.46 0l-23.66 9.8a13.7 13.7 0 0 0-7.39 7.4l-9.8 23.65a13.73 13.73 0 0 0 0 10.46l9.8 23.65a13.7 13.7 0 0 0 7.39 7.4l23.66 9.8a13.73 13.73 0 0 0 10.46 0l23.65-9.8a13.69 13.69 0 0 0 7.4-7.4l9.8-23.65a13.73 13.73 0 0 0 0-10.46z"/><path class="cls-2" d="M48.86 89.5a25.58 25.58 0 0 1-3.86-.28c-3.08-.45-5.94-2.28-8.23-3.76a59.57 59.57 0 0 1-19-19.61l-.34-.57a49.19 49.19 0 0 1-5.42-11.2C9.9 46.69 9.54 39 11.11 33.37 13 26.71 18 20.7 26.52 15a42.12 42.12 0 0 1 23.1-7.31 34.65 34.65 0 0 1 6.87.68c8 1.62 15.84 6.3 22.07 13.2a57.93 57.93 0 0 1 6.36 8.57c.58.94 1.15 1.92 1.69 2.91l.51.93c1.89 3.43 4 7.33 4.43 11.44C93 60 77.93 73 70.7 79.3c-5.36 4.7-10.36 8.62-17.13 9.79a27.75 27.75 0 0 1-4.71.41z"/><path class="cls-3" d="M84.07 30.68a56.51 56.51 0 0 0-6.25-8.42C72.12 16 64.63 11.06 56.29 9.37c-10-2-20.71.78-29.22 6.48-6.41 4.3-12.81 10-15 17.79-1.73 6.15-.82 14.11 1 20.16 1.23 4.2 3.45 7.82 5.66 11.54a58.51 58.51 0 0 0 18.61 19.28c2.38 1.53 5 3.2 7.83 3.61a26.05 26.05 0 0 0 8.22-.12c6.73-1.17 11.63-5.2 16.66-9.56 9.08-7.88 21.79-19.74 20.5-33-.41-4.26-2.8-8.29-4.82-12-.53-.97-1.09-1.93-1.66-2.87z"/><path class="cls-4" d="M52.4 77.67a21.21 21.21 0 0 1-10-2.56 27.77 27.77 0 0 1-6.13-4.89c-.61-.59-1.23-1.19-1.88-1.78A71.75 71.75 0 0 1 26.07 60c-2.84-3.6-6.36-9.16-4.07-15.59A32 32 0 0 1 26.21 37a38.47 38.47 0 0 0 3.3-5.31c.59-1.22 1.07-2.56 1.54-3.85 1-2.7 2-5.48 4-7.65a12 12 0 0 1 9-3.74 18.25 18.25 0 0 1 12.19 5.1 49.74 49.74 0 0 1 5.34 6.54A59.59 59.59 0 0 0 65.41 33a19 19 0 0 0 5.12 4.33c.52.27 1 .51 1.56.74l.73.33a17.73 17.73 0 0 1 5.25 3.1c5 4.61 5 11.53-.06 19l-.13.2a46.89 46.89 0 0 1-7.36 9.12c-5.4 4.9-11.64 7.69-17.57 7.85z"/><path class="cls-5" d="M71.68 39c-.54-.24-1.08-.49-1.62-.77a20.66 20.66 0 0 1-5.4-4.55C61.4 30 59 25.66 55.52 22.24c-5.08-4.93-14.28-7.16-19.72-1.4-2.87 3.05-3.57 7.49-5.39 11.26-2.13 4.42-5.84 8-7.49 12.64-1.92 5.45.54 10.34 3.94 14.67A69.6 69.6 0 0 0 35 67.7c2.55 2.32 4.71 4.87 7.8 6.53a20.18 20.18 0 0 0 10.09 2.43c6.31-.17 12.24-3.35 16.92-7.59a46.55 46.55 0 0 0 7.33-9.14c3.69-5.46 5.77-12.55.21-17.68A19.28 19.28 0 0 0 71.68 39z"/><path class="cls-6" d="M61.39 20.42H38.61a18.29 18.29 0 0 0-18.29 18.29v22.78a18.29 18.29 0 0 0 18.29 18.29h22.78a18.29 18.29 0 0 0 18.29-18.29V38.71a18.29 18.29 0 0 0-18.29-18.29zM74 59.3a14.78 14.78 0 0 1-14.79 14.78H40.8A14.77 14.77 0 0 1 26 59.3V40.89a14.78 14.78 0 0 1 14.8-14.77h18.41A14.78 14.78 0 0 1 74 40.89z"/><path class="cls-6" d="M50.8 34.57A15.64 15.64 0 1 0 66.43 50.2 15.63 15.63 0 0 0 50.8 34.57zm0 25a9.41 9.41 0 1 1 9.4-9.41 9.41 9.41 0 0 1-9.4 9.45zm18.52-25.25a4 4 0 1 1-4-4 4 4 0 0 1 4 4z"/></g></svg>