<svg id="Шар_1" xmlns="http://www.w3.org/2000/svg" xmlns:xlink="http://www.w3.org/1999/xlink" viewBox="0 0 40 40"><style>.st0{fill:url(#SVGID_1_)}.st1{opacity:.5}.st2{fill:url(#SVGID_2_)}.st3{opacity:.6}.st4{fill:#fff;fill-opacity:0}.st5{opacity:1e-2;fill:#fdfcfd}.st5,.st6,.st7{enable-background:new}.st6{opacity:2e-2;fill:#fbfafc}.st7{opacity:4e-2;fill:#f9f7fa}.st10,.st11,.st8,.st9{enable-background:new}.st8{opacity:5e-2;fill:#f7f5f9}.st9{opacity:6e-2;fill:#f5f2f7}.st10{opacity:7e-2;fill:#f3f0f6}.st11{opacity:8e-2;fill:#f1edf4}.st12{opacity:.1;fill:#efebf3}.st12,.st13,.st14,.st15{enable-background:new}.st13{opacity:.11;fill:#ede8f1}.st14{opacity:.12;fill:#ebe5f0}.st15{opacity:.13;fill:#e9e3ee}.st16{opacity:.14;fill:#e7e0ed}.st16,.st17,.st18,.st19{enable-background:new}.st17{opacity:.15;fill:#e5deeb}.st18{opacity:.17;fill:#e3dbea}.st19{opacity:.18;fill:#e2d9e8}.st20{opacity:.19;fill:#e0d6e7}.st20,.st21,.st22,.st23{enable-background:new}.st21{opacity:.2;fill:#ded3e5}.st22{opacity:.21;fill:#dcd1e4}.st23{opacity:.23;fill:#dacee2}.st24{opacity:.24;fill:#d8cce1}.st24,.st25,.st26,.st27{enable-background:new}.st25{opacity:.25;fill:#d6c9df}.st26{opacity:.26;fill:#d4c7dd}.st27{opacity:.27;fill:#d2c4dc}.st28{opacity:.29;fill:#d0c2da}.st28,.st29,.st30,.st31{enable-background:new}.st29{opacity:.3;fill:#cebfd9}.st30{opacity:.31;fill:#ccbcd7}.st31{opacity:.32;fill:#cabad6}.st32{opacity:.33;fill:#c8b7d4}.st32,.st33,.st34,.st35{enable-background:new}.st33{opacity:.35;fill:#c6b5d3}.st34{opacity:.36;fill:#c4b2d1}.st35{opacity:.37;fill:#c2b0d0}.st36{opacity:.38;fill:#c0adce}.st36,.st37,.st38,.st39{enable-background:new}.st37{opacity:.39;fill:#beabcd}.st38{opacity:.4;fill:#bca8cb}.st39{opacity:.42;fill:#baa5ca}.st40{opacity:.43;fill:#b8a3c8}.st40,.st41,.st42,.st43{enable-background:new}.st41{opacity:.44;fill:#b6a0c7}.st42{opacity:.45;fill:#b49ec5}.st43{opacity:.46;fill:#b29bc4}.st44{opacity:.48;fill:#b099c2}.st44,.st45,.st46,.st47{enable-background:new}.st45{opacity:.49;fill:#ae96c1}.st46{opacity:.5;fill:#ac93bf}.st47{opacity:.51;fill:#ab91bd}.st48{opacity:.52;fill:#a98ebc}.st48,.st49,.st50,.st51{enable-background:new}.st49{opacity:.54;fill:#a78cba}.st50{opacity:.55;fill:#a589b9}.st51{opacity:.56;fill:#a387b7}.st52{opacity:.57;fill:#a184b6}.st52,.st53,.st54,.st55{enable-background:new}.st53{opacity:.58;fill:#9f82b4}.st54{opacity:.6;fill:#9d7fb3}.st55{opacity:.61;fill:#9b7cb1}.st56{opacity:.62;fill:#997ab0}.st56,.st57,.st58,.st59{enable-background:new}.st57{opacity:.63;fill:#9777ae}.st58{opacity:.64;fill:#9575ad}.st59{opacity:.65;fill:#9372ab}.st60{opacity:.67;fill:#9170aa}.st60,.st61,.st62,.st63{enable-background:new}.st61{opacity:.68;fill:#8f6da8}.st62{opacity:.69;fill:#8d6ba7}.st63{opacity:.7;fill:#8b68a5}.st64{opacity:.71;fill:#8965a4}.st64,.st65,.st66,.st67{enable-background:new}.st65{opacity:.73;fill:#8763a2}.st66{opacity:.74;fill:#8560a1}.st67{opacity:.75;fill:#835e9f}.st68{opacity:.76;fill:#815b9d}.st68,.st69,.st70,.st71{enable-background:new}.st69{opacity:.77;fill:#7f599c}.st70{opacity:.79;fill:#7d569a}.st71{opacity:.8;fill:#7b5499}.st72{opacity:.81;fill:#795197}.st72,.st73,.st74,.st75{enable-background:new}.st73{opacity:.82;fill:#774e96}.st74{opacity:.83;fill:#764c94}.st75{opacity:.85;fill:#744993}.st76{opacity:.86;fill:#724791}.st76,.st77,.st78,.st79{enable-background:new}.st77{opacity:.87;fill:#704490}.st78{opacity:.88;fill:#6e428e}.st79{opacity:.89;fill:#6c3f8d}.st80{opacity:.9;fill:#6a3c8b}.st80,.st81,.st82,.st83{enable-background:new}.st81{opacity:.92;fill:#683a8a}.st82{opacity:.93;fill:#663788}.st83{opacity:.94;fill:#643587}.st84{opacity:.95;fill:#623285}.st84,.st85,.st86,.st87{enable-background:new}.st85{opacity:.96;fill:#603084}.st86{opacity:.98;fill:#5e2d82}.st87{opacity:.99;fill:#5c2b81}.st88{fill:#5a287f}.st89{fill:#fff}</style><linearGradient id="SVGID_1_" gradientUnits="userSpaceOnUse" x1="10.724" y1="233.316" x2="31.094" y2="253.676" gradientTransform="translate(0 -224)"><stop offset="0" stop-color="#fce9a7"/><stop offset=".21" stop-color="#fcbb45"/><stop offset=".38" stop-color="#f75274"/><stop offset=".52" stop-color="#d53692"/><stop offset=".74" stop-color="#6c2c9c"/><stop offset="1" stop-color="#483eba"/></linearGradient><path class="st0" d="M7.4 26.7c-1.5-.7-2.5-2.2-2.6-3.8-.1-1.6.3-3.3 1.1-4.7 3.9-8 12.8-12.3 21.5-10.5 1.8.3 3.4 1 4.8 2.2 2.1 2 3.1 4.8 2.8 7.6s-1.2 5.5-2.6 7.9c-.9 1.9-2.2 3.7-3.7 5.2-1.6 1.5-3.7 2.3-5.8 2.2-4.4-.3-7.4-5.2-11.8-5.7-1.2-.2-2.6 0-3.7-.4z"/><image width="393" height="379" xlink:href="7ABD646C.png" transform="matrix(.24 0 0 .24 -26.77 -25.58)" overflow="visible" class="st1"/><linearGradient id="SVGID_2_" gradientUnits="userSpaceOnUse" x1="29.29" y1="251.38" x2="10.69" y2="232.78" gradientTransform="translate(0 -224)"><stop offset="0" stop-color="#fbe18a"/><stop offset=".21" stop-color="#fcbb45"/><stop offset=".38" stop-color="#f75274"/><stop offset=".52" stop-color="#d53692"/><stop offset=".74" stop-color="#8f39ce"/><stop offset="1" stop-color="#5b4fe9"/></linearGradient><path class="st2" d="M10.8 24c-1.1-.5-1.8-1.6-1.9-2.8 0-1.2.2-2.4.8-3.4 2.9-5.9 9.4-9 15.8-7.7 1.3.2 2.5.8 3.5 1.6 1.5 1.5 2.3 3.5 2.1 5.6s-.9 4-1.9 5.8c-.7 1.4-1.6 2.7-2.7 3.8-1.1 1.1-2.7 1.7-4.3 1.6-3.2-.2-5.5-3.8-8.7-4.2-1 0-1.9-.1-2.7-.3z"/><g class="st3"><path class="st4" d="M27.8 19.1c0 .3-.2.6-.5.7s-.6-.2-.7-.5v-.2c0-.3.3-.6.7-.5.2 0 .4.3.5.5zM26 21.8c0-.9-.7-1.6-1.6-1.6-.9 0-1.6.7-1.6 1.6s.7 1.6 1.6 1.6c.9.1 1.6-.7 1.6-1.6zm1 0c0 1.4-1.1 2.6-2.5 2.6s-2.6-1.1-2.6-2.5 1.1-2.6 2.5-2.6 2.6 1.1 2.6 2.5zm1.5 2.2c0 1.2-1 2.1-2.1 2.1h-4.2c-1.2 0-2.1-1-2.1-2.1v-4.2c0-1.2 1-2.1 2.1-2.1h4.2c1.2 0 2.1 1 2.1 2.1V24zm1-4.2c0-1.7-1.4-3.1-3.1-3.1h-4.2c-1.7 0-3.1 1.4-3.1 3.1V24c0 1.7 1.4 3.1 3.1 3.1h4.2c1.7 0 3.1-1.4 3.1-3.1v-4.2z"/><path class="st5" d="M27.7 19.1c0 .3-.3.6-.6.6s-.6-.3-.6-.6.3-.6.6-.6c.2 0 .6.2.6.6zM26 21.8c0-.9-.7-1.6-1.6-1.6-.9 0-1.6.7-1.6 1.6s.7 1.6 1.6 1.6c.9 0 1.6-.7 1.6-1.6zm1 0c0 1.4-1.1 2.6-2.5 2.6s-2.6-1.1-2.6-2.5 1.1-2.6 2.5-2.6 2.4 1.1 2.6 2.5zm1.5 2.1c0 1.2-1 2.1-2.1 2.1h-4.2c-1.2 0-2.1-1-2.1-2.1v-4.2c0-1.2 1-2.1 2.1-2.1h4.2c1.2 0 2.1 1 2.1 2.1v4.2zm1-4.1c0-1.7-1.4-3.1-3.1-3.1h-4.2c-1.7 0-3.1 1.4-3.1 3.1v4.1c0 1.7 1.4 3.1 3.1 3.1h4.2c1.7 0 3.1-1.4 3.1-3.1v-4.1z"/><path class="st6" d="M27.7 19c0 .3-.3.6-.6.6s-.6-.3-.6-.6.3-.6.6-.6c.2 0 .6.3.6.6zM26 21.8c0-.9-.7-1.6-1.6-1.6-.9 0-1.6.7-1.6 1.6s.7 1.6 1.6 1.6c.9 0 1.6-.7 1.6-1.6zm.8 0c0 1.4-1.1 2.5-2.5 2.5s-2.5-1.1-2.5-2.5 1.1-2.5 2.5-2.5c1.5 0 2.5 1.1 2.5 2.5zm1.7 2.1c0 1.2-1 2.1-2.1 2.1h-4.2c-1.2 0-2.1-1-2.1-2.1v-4.2c0-1.2 1-2.1 2.1-2.1h4.2c1.2 0 2.1 1 2.1 2.1v4.2zm1-4.2c0-1.7-1.4-3.1-3.1-3.1h-4.2c-1.7 0-3.1 1.4-3.1 3.1v4.2c0 1.7 1.4 3.1 3.1 3.1h4.2c1.7 0 3.1-1.4 3.1-3.1v-4.2z"/><path class="st7" d="M27.5 19c0 .3-.3.6-.6.6s-.6-.3-.6-.6.3-.6.6-.6c.4 0 .6.3.6.6zM26 21.7c0-.9-.7-1.7-1.6-1.7-.9 0-1.7.7-1.7 1.6s.7 1.7 1.6 1.7c.9 0 1.5-.7 1.7-1.6zm.8 0c0 1.4-1.1 2.5-2.6 2.5-1.4 0-2.5-1.1-2.5-2.6 0-1.4 1.1-2.5 2.5-2.5 1.5.1 2.6 1.2 2.6 2.6zm1.7 2.2c0 1.2-1 2.1-2.1 2.1h-4.1c-1.2 0-2.1-1-2.1-2.1v-4.2c0-1.2 1-2.1 2.1-2.1h4c1.2 0 2.1 1 2.1 2.1l.1 4.2zm1-4.2c0-1.7-1.4-3.1-3.1-3.1h-4.2c-1.7 0-3.1 1.4-3.1 3.1v4.2c0 1.7 1.4 3.1 3.1 3.1h4.1c1.7 0 3.1-1.4 3.1-3.1l.1-4.2z"/><path class="st8" d="M27.5 19c0 .3-.3.6-.6.6s-.6-.3-.6-.6.3-.6.6-.6c.4-.1.6.2.6.6 0-.1 0 0 0 0zm-1.7 2.7c0-.9-.7-1.6-1.6-1.6s-1.6.7-1.6 1.6.7 1.6 1.6 1.6c1 0 1.6-.7 1.6-1.6zm1 0c0 1.4-1.1 2.5-2.5 2.5s-2.5-1.1-2.5-2.5 1.1-2.5 2.5-2.5c1.4-.1 2.5 1.1 2.5 2.5zm1.5 2.1c0 1.2-1 2.1-2.1 2.1H22c-1.2 0-2.1-1-2.1-2.1v-4.2c0-1.2 1-2.1 2.1-2.1h4.2c1.2 0 2.1 1 2.1 2.1v4.2zm1-4.1c0-1.7-1.4-3.1-3.1-3.1H22c-1.7 0-3.1 1.4-3.1 3.1v4.2c0 1.7 1.4 3.1 3.1 3.1h4.2c1.7 0 3.1-1.4 3.1-3.1v-4.2z"/><path class="st9" d="M27.5 18.9c0 .3-.3.6-.6.6s-.6-.3-.6-.6.3-.6.6-.6.6.3.6.6zm-1.7 2.7c0-.9-.8-1.6-1.7-1.6-.9 0-1.6.8-1.6 1.7 0 .9.7 1.6 1.6 1.6.9 0 1.7-.7 1.7-1.7 0 .1 0 0 0 0zm1 0c0 1.4-1.1 2.5-2.5 2.5s-2.5-1.1-2.5-2.5 1.1-2.5 2.5-2.5c1.2 0 2.5 1.1 2.5 2.5zm1.5 2.2c0 1.2-.9 2.1-2.1 2.1H22c-1.2 0-2.1-1-2.1-2.1v-4.2c0-1.2 1-2.1 2.1-2.1h4.2c1.2 0 2.1 1 2.1 2.1v4.2zm1-4.2c0-1.7-1.4-3.1-3.1-3.1H22c-1.7 0-3.1 1.4-3.1 3.1v4.1c0 1.7 1.4 3.1 3.1 3.1h4.2c1.7 0 3.1-1.4 3.1-3.1v-4.1z"/><path class="st10" d="M27.5 18.9c0 .3-.3.6-.6.6s-.6-.3-.6-.6.3-.6.6-.6.6.2.6.6zm-1.7 2.7c0-.9-.7-1.6-1.6-1.6s-1.6.7-1.6 1.6.7 1.6 1.6 1.6c.8 0 1.6-.7 1.6-1.6zm.9 0c0 1.4-1.1 2.5-2.6 2.5-1.4 0-2.5-1.1-2.5-2.6 0-1.4 1.1-2.5 2.6-2.5 1.3 0 2.5 1.2 2.5 2.6zm1.6 2.1c0 1.2-1 2.1-2.1 2.1h-4.1c-1.2 0-2.1-1-2.1-2.1v-4.2c0-1.2 1-2.1 2.1-2.1h4.2c1.2 0 2.1 1 2.1 2.1l-.1 4.2zm1-4.1c0-1.7-1.4-3.1-3.1-3.1H22c-1.7 0-3.1 1.4-3.1 3.1v4.2c0 1.7 1.4 3.1 3.1 3.1h4.2c1.7 0 3.1-1.4 3.1-3.1v-4.2z"/><path class="st11" d="M27.5 18.8c0 .3-.3.6-.7.5-.3 0-.5-.3-.5-.5 0-.3.2-.6.5-.7s.6.2.7.5v.2zm-1.7 2.7c0-.9-.7-1.6-1.6-1.6s-1.6.7-1.6 1.6.7 1.6 1.6 1.6c.8.1 1.6-.7 1.6-1.6zm.9 0c0 1.4-1.1 2.6-2.5 2.6s-2.6-1.1-2.6-2.5 1.1-2.6 2.5-2.6 2.6 1.1 2.6 2.5zm1.6 2.2c0 1.2-1 2.1-2.1 2.1H22c-1.2 0-2.1-1-2.1-2.1v-4.2c0-1.2 1-2.1 2.1-2.1h4.2c1.2 0 2.1 1 2.1 2.1v4.2zm1-4.2c0-1.7-1.4-3.1-3.1-3.1H22c-1.7 0-3.1 1.4-3.1 3.1v4.2c0 1.7 1.4 3.1 3.1 3.1h4.2c1.7 0 3.1-1.4 3.1-3.1v-4.2z"/><path class="st12" d="M27.3 18.8c0 .3-.3.6-.6.6s-.6-.3-.6-.6.3-.6.6-.6.6.2.6.6zm-1.6 2.7c0-.9-.7-1.6-1.6-1.6s-1.6.7-1.6 1.6.7 1.6 1.6 1.6c.9 0 1.6-.7 1.6-1.6zm.8 0c0 1.4-1.1 2.5-2.5 2.5s-2.5-1.1-2.5-2.5S22.6 19 24 19s2.5 1.1 2.5 2.5zm1.8 2.1c0 1.2-1 2.1-2.1 2.1H22c-1.2 0-2.1-1-2.1-2.1v-4.2c0-1.2.9-2.1 2.1-2.2h4.2c1.2 0 2.1.9 2.2 2.1v4.3h-.1zm1-4.1c0-1.7-1.4-3.1-3.1-3.1H22c-1.7 0-3.1 1.4-3.1 3.1v4.1c0 1.7 1.4 3.1 3.1 3.1h4.2c1.7 0 3.1-1.4 3.1-3.1v-4.1z"/><path class="st13" d="M27.3 18.7c0 .3-.3.6-.6.6s-.6-.3-.6-.6.3-.6.6-.6.6.3.6.6zm-1.6 2.8c0-.9-.7-1.6-1.6-1.6s-1.6.7-1.6 1.6.7 1.6 1.6 1.6c.9 0 1.6-.7 1.6-1.6zm.8 0c0 1.4-1.1 2.5-2.6 2.5-1.4 0-2.5-1.1-2.5-2.6 0-1.4 1.1-2.5 2.6-2.5s2.5 1.1 2.5 2.6zm1.7 2.1c0 1.2-1 2.1-2.1 2.1h-4.2c-1.2 0-2.1-1-2.1-2.1v-4.2c0-1.2 1-2.1 2.1-2.1h4.2c1.2 0 2.1 1 2.1 2.1v4.2zm1-4.2c0-1.7-1.4-3.1-3.1-3.1h-4.2c-1.7 0-3.1 1.4-3.1 3.1v4.2c0 1.7 1.4 3.1 3.1 3.1h4.2c1.7 0 3.1-1.4 3.1-3.1v-4.2z"/><path class="st14" d="M27.3 18.7c0 .3-.2.6-.5.7s-.6-.2-.7-.5v-.2c0-.3.3-.6.7-.5.2 0 .5.2.5.5zm-1.8 2.7c0-.9-.7-1.6-1.6-1.6s-1.6.7-1.6 1.6.7 1.6 1.6 1.6c.9.1 1.6-.7 1.6-1.6zm1 0c0 1.4-1.1 2.6-2.5 2.6s-2.6-1.1-2.6-2.5 1.1-2.6 2.5-2.6 2.6 1.1 2.6 2.5zm1.5 2.2c0 1.2-1 2.1-2.1 2.1h-4.1c-1.2 0-2.1-1-2.1-2.1v-4.2c0-1.2 1-2.1 2.1-2.1H26c1.2 0 2.1 1 2.1 2.1l-.1 4.2zm1-4.2c0-1.7-1.4-3.1-3.1-3.1h-4.2c-1.7 0-3.1 1.4-3.1 3.1v4.2c0 1.7 1.4 3.1 3.1 3.1h4.1c1.7 0 3.1-1.4 3.1-3.1l.1-4.2z"/><path class="st15" d="M27.3 18.7c0 .3-.3.6-.6.6s-.6-.3-.6-.6.3-.6.6-.6c.3-.1.6.2.6.6 0-.1 0 0 0 0zm-1.8 2.7c0-.9-.7-1.6-1.6-1.6s-1.6.7-1.6 1.6.7 1.6 1.6 1.6c.9 0 1.6-.7 1.6-1.6zm1 0c0 1.4-1.1 2.5-2.5 2.5s-2.5-1.1-2.5-2.5 1.1-2.5 2.5-2.5c1.3-.1 2.5 1.1 2.5 2.5zm1.7 2.1c0 1.2-1 2.1-2.1 2.1h-4.2c-1.2 0-2.1-1-2.1-2.1v-4.2c0-1.2 1-2.1 2.1-2.1h4.2c1.2 0 2.1 1 2.1 2.1v4.2zm1-4.1c0-1.7-1.4-3.1-3.1-3.1h-4.2c-1.7 0-3.1 1.4-3.1 3.1v4.2c0 1.7 1.4 3.1 3.1 3.1h4.2c1.7 0 3.1-1.4 3.1-3.1v-4.2z"/><path class="st16" d="M27.2 18.6c0 .3-.3.6-.6.6s-.6-.3-.6-.6.3-.6.6-.6c.4 0 .6.3.6.6zm-1.7 2.7c0-.9-.7-1.6-1.6-1.6s-1.7.7-1.7 1.6.7 1.6 1.6 1.6c1 0 1.7-.7 1.7-1.6zm1 0c0 1.4-1.1 2.5-2.5 2.5s-2.5-1.1-2.5-2.5 1.1-2.5 2.5-2.5c1.3 0 2.5 1.1 2.5 2.5zm1.5 2.1c0 1.2-1 2.1-2.1 2.1h-4.2c-1.2 0-2.1-1-2.1-2.1v-4.1c0-1.2 1-2.1 2.1-2.1H26c1.2 0 2.1 1 2.1 2.1v4.1zm1-4.1c0-1.7-1.4-3.1-3.1-3.1h-4.2c-1.7 0-3.1 1.4-3.1 3.1v4.2c0 1.7 1.4 3.1 3.1 3.1H26c1.7 0 3.1-1.4 3.1-3.1v-4.2z"/><path class="st17" d="M27.2 18.6c0 .3-.3.6-.6.6s-.6-.3-.6-.6.3-.6.6-.6c.2 0 .6.2.6.6zm-1.7 2.7c0-.9-.7-1.6-1.6-1.6s-1.6.7-1.6 1.6.7 1.6 1.6 1.6c.9 0 1.6-.7 1.6-1.6zm.8 0c0 1.4-1.1 2.6-2.5 2.6s-2.6-1.1-2.6-2.5 1.1-2.6 2.5-2.6c1.6 0 2.6 1.1 2.6 2.5zm1.7 2.2c0 1.2-1 2.1-2.1 2.1h-4.2c-1.2 0-2.1-1-2.1-2.1v-4.2c0-1.2 1-2.1 2.1-2.1h4.2c1.2 0 2.1 1 2.1 2.1v4.2zm1-4.2c0-1.7-1.4-3.1-3.1-3.1h-4.2c-1.7 0-3.1 1.4-3.1 3.1v4.2c0 1.7 1.4 3.1 3.1 3.1h4.1c1.7 0 3.1-1.4 3.1-3.1l.1-4.2z"/><path class="st18" d="M27 18.5c0 .3-.3.6-.6.6s-.6-.3-.6-.6.3-.6.6-.6c.4 0 .6.3.6.6.2 0 .2 0 0 0zm-1.5 2.7c0-.9-.7-1.6-1.6-1.6s-1.6.7-1.6 1.6.7 1.6 1.6 1.6c.9.1 1.6-.7 1.6-1.6zm.8 0c0 1.4-1.1 2.5-2.5 2.5s-2.5-1.1-2.5-2.5 1.1-2.5 2.5-2.5c1.5 0 2.5 1.1 2.5 2.5zm1.7 2.2c0 1.2-1 2.1-2.1 2.1h-4.2c-1.2 0-2.1-1-2.1-2.1v-4.2c0-1.2 1-2.1 2.1-2.1h4.2c1.2 0 2.1 1 2.1 2.1v4.2zm1-4.2c0-1.7-1.4-3.1-3.1-3.1h-4.2c-1.7 0-3.1 1.4-3.1 3.1v4.1c0 1.7 1.4 3.1 3.1 3.1h4.2c1.7 0 3.1-1.4 3.1-3.1v-4.1z"/><path class="st19" d="M27 18.5c0 .3-.3.6-.6.6s-.6-.3-.6-.6.3-.6.6-.6.6.3.6.6zm-1.7 2.7c0-.9-.7-1.6-1.6-1.6s-1.6.7-1.6 1.6.7 1.6 1.6 1.6c1 0 1.6-.7 1.6-1.6zm1 0c0 1.4-1.1 2.5-2.5 2.5s-2.5-1.1-2.5-2.5 1.1-2.5 2.5-2.5 2.5 1.1 2.5 2.5zm1.7 2.1c0 1.2-1 2.1-2.1 2.1h-4.2c-1.2 0-2.1-.9-2.1-2.1v-4.1c0-1.2 1-2.1 2.1-2.1h4.2c1.2 0 2.1 1 2.1 2.1v4.1zm1-4.2c0-1.7-1.4-3.1-3.1-3.1h-4.2c-1.7 0-3.1 1.4-3.1 3.1v4.2c0 1.7 1.4 3.1 3.1 3.1h4.2c1.7 0 3.1-1.4 3.1-3.1v-4.2z"/><path class="st20" d="M27 18.4c0 .3-.3.6-.6.6s-.6-.3-.6-.6.3-.6.6-.6c.4 0 .6.3.6.6zm-1.7 2.8c0-.9-.7-1.6-1.6-1.6s-1.6.7-1.6 1.6.7 1.6 1.6 1.6c1 0 1.6-.7 1.6-1.6zm1 0c0 1.4-1.1 2.5-2.6 2.5-1.4 0-2.5-1.1-2.5-2.6 0-1.4 1.1-2.5 2.6-2.5 1.4 0 2.5 1.2 2.5 2.6zm1.5 2.1c0 1.2-1 2.1-2.1 2.1h-4.2c-1.2 0-2.1-1-2.1-2.1v-4.2c0-1.2 1-2.1 2.1-2.1h4.2c1.2 0 2.1 1 2.1 2.1v4.2zm1-4.2c0-1.7-1.4-3.1-3.1-3.1h-4.2c-1.7 0-3.1 1.4-3.1 3.1v4.2c0 1.7 1.4 3.1 3.1 3.1h4.2c1.7 0 3.1-1.4 3.1-3.1v-4.2z"/><path class="st21" d="M27 18.4c0 .3-.3.6-.6.6s-.6-.3-.6-.6.3-.6.6-.6.6.2.6.6zm-1.7 2.7c0-.9-.7-1.6-1.6-1.6s-1.6.7-1.6 1.6.7 1.6 1.6 1.6c.8 0 1.6-.7 1.6-1.6zm1 0c0 1.4-1.1 2.6-2.5 2.6s-2.6-1.1-2.6-2.5 1.1-2.6 2.5-2.6c1.3 0 2.6 1.1 2.6 2.5zm1.5 2.2c0 1.2-1 2.1-2.1 2.1h-4.2c-1.2 0-2.1-1-2.1-2.1v-4.2c0-1.2 1-2.1 2.1-2.1h4.2c1.2 0 2.1 1 2.1 2.1v4.2zm1-4.2c0-1.7-1.4-3.1-3.1-3.1h-4.2c-1.7 0-3.1 1.4-3.1 3.1v4.2c0 1.7 1.4 3.1 3.1 3.1h4.1c1.7 0 3.1-1.4 3.1-3.1l.1-4.2z"/><path class="st22" d="M27 18.4c0 .3-.3.6-.6.6s-.6-.3-.6-.6.3-.6.6-.6c.3-.1.6.2.6.6 0-.1 0 0 0 0zm-1.7 2.7c0-.9-.7-1.6-1.6-1.6s-1.7.7-1.7 1.6.7 1.6 1.6 1.6c.9 0 1.7-.7 1.7-1.6zm.9 0c0 1.4-1.1 2.5-2.5 2.5s-2.5-1.1-2.5-2.5 1.1-2.5 2.5-2.5c1.3-.1 2.5 1.1 2.5 2.5zm1.6 2.1c0 1.2-1 2.1-2.1 2.1h-4.2c-1.2 0-2.1-1-2.1-2.1v-4.1c0-1.2 1-2.1 2.1-2.1h4.2c1.2 0 2.1 1 2.1 2.1v4.1zm1-4.1c0-1.7-1.4-3.1-3.1-3.1h-4.2c-1.7 0-3.1 1.4-3.1 3.1v4.1c0 1.7 1.4 3.1 3.1 3.1h4.2c1.7 0 3.1-1.4 3.1-3.1v-4.1z"/><path class="st23" d="M26.8 18.3c0 .3-.3.6-.6.6s-.6-.3-.6-.6.3-.6.6-.6c.5 0 .6.3.6.6zM25.3 21c0-.9-.7-1.6-1.6-1.6S22 20.1 22 21s.7 1.6 1.6 1.6c.9.1 1.7-.7 1.7-1.6zm.9 0c0 1.4-1.1 2.5-2.6 2.5-1.4 0-2.5-1.1-2.5-2.6 0-1.4 1.1-2.5 2.6-2.5 1.3.1 2.5 1.2 2.5 2.6zm1.6 2.2c0 1.2-1 2.1-2.1 2.1h-4.2c-1.2 0-2.1-1-2.1-2.1V19c0-1.2 1-2.1 2.1-2.1h4.2c1.2 0 2.1 1 2.1 2.1v4.2zm1-4.2c0-1.7-1.4-3.1-3.1-3.1h-4.2c-1.7 0-3.1 1.4-3.1 3.1v4.2c0 1.7 1.4 3.1 3.1 3.1h4.2c1.7 0 3.1-1.4 3.1-3.1V19z"/><path class="st24" d="M26.8 18.3c0 .3-.3.6-.6.6s-.6-.3-.6-.6.3-.6.6-.6.6.3.6.6zM25.2 21c0-.9-.7-1.6-1.6-1.6S22 20.1 22 21s.7 1.6 1.6 1.6c.9 0 1.6-.7 1.6-1.6zm.8 0c0 1.4-1.1 2.6-2.5 2.6s-2.6-1.1-2.6-2.5 1.1-2.6 2.5-2.6c1.6 0 2.6 1.1 2.6 2.5zm1.7 2.2c0 1.2-.9 2.1-2.1 2.1h-4.2c-1.1 0-2.1-.9-2.1-2.1v-4.3c0-1.2 1-2.1 2.1-2.1h4.2c1.2 0 2.1 1 2.1 2.1v4.3zm1-4.2c0-1.7-1.4-3.1-3.1-3.1h-4.2c-1.7 0-3.1 1.4-3.1 3.1v4.2c0 1.7 1.4 3.1 3.1 3.1h4.1c1.7 0 3.1-1.4 3.1-3.1l.1-4.2z"/><path class="st25" d="M26.8 18.2c0 .3-.3.6-.6.6s-.6-.3-.6-.6.3-.6.6-.6.6.3.6.6zm-1.6 2.7c0-.9-.7-1.6-1.6-1.6S22 20 22 20.9s.7 1.6 1.6 1.6c.9.1 1.6-.7 1.6-1.6zm.8 0c0 1.4-1.1 2.5-2.5 2.5S21 22.3 21 20.9s1.1-2.5 2.5-2.5 2.5 1.1 2.5 2.5zm1.7 2.2c0 1.2-1 2.1-2.1 2.1h-4.2c-1.2 0-2.1-1-2.1-2.1v-4.2c0-1.2 1-2.1 2.1-2.1h4.2c1.2 0 2.1 1 2.1 2.1v4.2zm1-4.2c0-1.7-1.4-3.1-3.1-3.1h-4.2c-1.7 0-3.1 1.4-3.1 3.1V23c0 1.7 1.4 3.1 3.1 3.1h4.2c1.7 0 3.1-1.4 3.1-3.1v-4.1z"/><path class="st26" d="M26.8 18.2c0 .3-.3.6-.6.6s-.6-.3-.6-.6.3-.6.6-.6.6.2.6.6zM25 20.9c0-.9-.7-1.6-1.6-1.6s-1.6.7-1.6 1.6.7 1.6 1.6 1.6c.9 0 1.6-.7 1.6-1.6zm1 0c0 1.4-1.1 2.5-2.5 2.5S21 22.3 21 20.9s1.1-2.5 2.5-2.5c1.3 0 2.5 1.1 2.5 2.5zm1.7 2.1c0 1.2-1 2.1-2.1 2.1h-4.3c-1.2 0-2.1-1-2.1-2.1v-4.2c0-1.2 1-2.1 2.1-2.1h4.2c1.2 0 2.1 1 2.1 2.1V23h.1zm1-4.1c0-1.7-1.4-3.1-3.1-3.1h-4.2c-1.7 0-3.1 1.4-3.1 3.1v4.2c0 1.7 1.4 3.1 3.1 3.1h4.2c1.7 0 3.1-1.4 3.1-3.1v-4.2z"/><path class="st27" d="M26.8 18.1c0 .3-.3.6-.6.6s-.6-.3-.6-.6.3-.6.6-.6.6.3.6.6zM25 20.9c0-.9-.7-1.6-1.6-1.6s-1.6.7-1.6 1.6.7 1.6 1.6 1.6c.9 0 1.6-.7 1.6-1.6zm1 0c0 1.4-1.1 2.6-2.5 2.6s-2.6-1.1-2.6-2.5 1.1-2.6 2.5-2.6c1.4-.1 2.6 1 2.6 2.5zm1.5 2.1c0 1.2-1 2.1-2.1 2.1h-4.2c-1.2 0-2.1-1-2.1-2.1v-4.2c0-1.2 1-2.1 2.1-2.1h4.2c1.2 0 2.1 1 2.1 2.1V23zm1-4.2c0-1.7-1.4-3.1-3.1-3.1h-4.2c-1.7 0-3.1 1.4-3.1 3.1V23c0 1.7 1.4 3.1 3.1 3.1h4.2c1.7 0 3.1-1.4 3.1-3.1v-4.2z"/><path class="st28" d="M26.7 18.1c0 .3-.3.6-.6.6s-.6-.3-.6-.6.3-.6.6-.6c.2 0 .6.2.6.6zM25 20.8c0-.9-.7-1.6-1.6-1.6s-1.6.7-1.6 1.6.7 1.6 1.6 1.6c.9 0 1.6-.7 1.6-1.6zm1 0c0 1.4-1.1 2.6-2.5 2.6s-2.6-1.1-2.6-2.5 1.1-2.6 2.5-2.6 2.4 1.1 2.6 2.5zm1.5 2.2c0 1.2-1 2.1-2.1 2.1h-4.2c-1.2 0-2.1-1-2.1-2.1v-4.2c0-1.2 1-2.1 2.1-2.1h4.2c1.2 0 2.1 1 2.1 2.1V23zm1-4.2c0-1.7-1.4-3.1-3.1-3.1h-4.2c-1.7 0-3.1 1.4-3.1 3.1v4.1c0 1.7 1.4 3.1 3.1 3.1h4.2c1.7 0 3.1-1.4 3.1-3.1v-4.1z"/><path class="st29" d="M26.7 18.1c0 .3-.3.6-.6.6s-.6-.3-.6-.6.3-.6.6-.6.6.2.6.6zM25 20.8c0-.9-.7-1.6-1.6-1.6s-1.6.7-1.6 1.6.7 1.6 1.6 1.6c.9 0 1.6-.7 1.6-1.6zm.8 0c0 1.4-1.1 2.5-2.5 2.5s-2.5-1.1-2.5-2.5 1.1-2.5 2.5-2.5c1.5-.1 2.5 1.1 2.5 2.5zm1.7 2.1c0 1.2-1 2.1-2.1 2.1h-4.2c-1.2 0-2.1-1-2.1-2.1v-4.2c0-1.2 1-2.1 2.1-2.1h4.2c1.2 0 2.1 1 2.1 2.1v4.2zm1-4.1c0-1.7-1.4-3.1-3.1-3.1h-4.2c-1.7 0-3.1 1.4-3.1 3.1v4.1c0 1.7 1.4 3.1 3.1 3.1h4.2c1.7 0 3.1-1.4 3.1-3.1v-4.1z"/><path class="st30" d="M26.5 18c0 .3-.3.6-.6.6s-.6-.3-.6-.6.3-.6.6-.6c.4 0 .6.3.6.6zM25 20.7c0-.9-.7-1.6-1.6-1.6s-1.6.7-1.6 1.6.7 1.6 1.6 1.6c.7.1 1.4-.6 1.6-1.6zm.8 0c0 1.4-1.1 2.5-2.6 2.5-1.4 0-2.5-1.1-2.5-2.6 0-1.4 1.1-2.5 2.5-2.5 1.5.1 2.6 1.2 2.6 2.6zm1.7 2.2c0 1.2-1 2.1-2.1 2.1h-4.2c-1.2 0-2.1-1-2.1-2.1v-4.2c0-1.2 1-2.1 2.1-2.1h4.2c1.2 0 2.1 1 2.1 2.1v4.2zm1-4.2c0-1.7-1.4-3.1-3.1-3.1h-4.2c-1.7 0-3.1 1.4-3.1 3.1v4.2c0 1.7 1.4 3.1 3.1 3.1h4.1c1.7 0 3.1-1.4 3.1-3.1l.1-4.2z"/><path class="st31" d="M26.5 18c0 .3-.3.6-.6.6s-.6-.3-.6-.6.3-.6.6-.6.6.2.6.6zm-1.7 2.7c0-.9-.7-1.6-1.6-1.6s-1.6.7-1.6 1.6.7 1.6 1.6 1.6c.9 0 1.6-.7 1.6-1.6zm1 0c0 1.4-1.1 2.6-2.5 2.6s-2.6-1.1-2.6-2.5 1.1-2.6 2.5-2.6c1.5 0 2.6 1.1 2.6 2.5zm1.5 2.1c0 1.2-1 2.1-2.1 2.1H21c-1.2 0-2.1-1-2.1-2.1v-4.2c0-1.2 1-2.1 2.1-2.1h4.2c1.2 0 2.1 1 2.1 2.1v4.2zm1-4.1c0-1.7-1.4-3.1-3.1-3.1H21c-1.7 0-3.1 1.4-3.1 3.1v4.2c0 1.7 1.4 3.1 3.1 3.1h4.2c1.7 0 3.1-1.4 3.1-3.1v-4.2z"/><path class="st32" d="M26.5 17.9c0 .3-.3.6-.6.6s-.6-.3-.5-.7c0-.3.3-.5.5-.5.4 0 .6.3.6.6zm-1.7 2.7c0-.9-.8-1.6-1.7-1.6-.9 0-1.6.8-1.6 1.7 0 .9.8 1.6 1.7 1.6.9 0 1.6-.8 1.6-1.7zm1 0c0 1.4-1.1 2.5-2.5 2.5s-2.5-1.1-2.5-2.5 1.1-2.5 2.5-2.5 2.5 1.2 2.5 2.5zm1.5 2.2c0 1.2-.9 2.1-2.1 2.1H21c-1.2 0-2.1-1-2.1-2.1v-4.2c0-1.2 1-2.1 2.1-2.1h4.2c1.2 0 2.1 1 2.1 2.1v4.2zm1-4.2c0-1.7-1.4-3.1-3.1-3.1H21c-1.7 0-3.1 1.4-3.1 3.1v4.1c0 1.7 1.4 3.1 3.1 3.1h4.2c1.7 0 3.1-1.4 3.1-3.1v-4.1z"/><path class="st33" d="M26.5 17.9c0 .3-.3.6-.6.6s-.6-.3-.6-.6.3-.6.6-.6.6.2.6.6zm-1.7 2.7c0-.9-.7-1.6-1.6-1.6s-1.6.7-1.6 1.6.7 1.6 1.6 1.6c.8 0 1.6-.7 1.6-1.6zm1 0c0 1.4-1.1 2.5-2.6 2.5-1.4 0-2.5-1.1-2.5-2.6 0-1.4 1.1-2.5 2.6-2.5 1.2 0 2.5 1.2 2.5 2.6zm1.5 2.1c0 1.2-1 2.1-2.1 2.1H21c-1.2 0-2.1-1-2.1-2.1v-4.2c0-1.2 1-2.1 2.1-2.1h4.2c1.2 0 2.1 1 2.1 2.1v4.2zm1-4.1c0-1.7-1.4-3.1-3.1-3.1H21c-1.7 0-3.1 1.4-3.1 3.1v4.2c0 1.7 1.4 3.1 3.1 3.1h4.2c1.7 0 3.1-1.4 3.1-3.1v-4.2z"/><path class="st34" d="M26.5 17.8c0 .3-.3.6-.6.6s-.6-.3-.6-.6.3-.6.6-.6.6.3.6.6zm-1.7 2.8c0-.9-.7-1.6-1.6-1.6s-1.6.7-1.6 1.6.7 1.6 1.6 1.6c.8 0 1.6-.8 1.6-1.6zm.9 0c0 1.4-1.1 2.6-2.5 2.6s-2.6-1.1-2.6-2.5 1.1-2.6 2.5-2.6c1.4-.1 2.6 1 2.6 2.5zm1.6 2.1c0 1.2-1 2.1-2.1 2.1H21c-1.2 0-2.1-1-2.1-2.1v-4.2c0-1.2 1-2.1 2.1-2.1h4.2c1.2 0 2.1 1 2.1 2.1v4.2zm1-4.2c0-1.7-1.4-3.1-3.1-3.1H21c-1.7 0-3.1 1.4-3.1 3.1v4.2c0 1.7 1.4 3.1 3.1 3.1h4c1.7 0 3.1-1.4 3.1-3.1l.2-4.2z"/><path class="st35" d="M26.3 17.8c0 .3-.3.6-.6.6s-.6-.3-.6-.6.3-.6.6-.6.6.2.6.6zm-1.5 2.7c0-.9-.7-1.6-1.6-1.6s-1.6.7-1.6 1.6.7 1.6 1.6 1.6c.8 0 1.6-.7 1.6-1.6zm.9 0c0 1.4-1.1 2.5-2.5 2.5s-2.5-1.1-2.5-2.5 1.1-2.5 2.5-2.5 2.5 1.1 2.5 2.5zm1.6 2.2c0 1.2-1 2.1-2.1 2.1H21c-1.2 0-2.1-1-2.1-2.1v-4.2c0-1.2 1-2.1 2.1-2.1h4.2c1.1-.1 2.1.9 2.1 2v4.3zm1-4.2c0-1.7-1.4-3.1-3.1-3.1H21c-1.7 0-3.1 1.4-3.1 3.1v4.1c0 1.7 1.4 3.1 3.1 3.1h4.2c1.7 0 3.1-1.4 3.1-3.1v-4.1z"/><path class="st36" d="M26.3 17.8c0 .3-.3.6-.6.6s-.6-.3-.6-.6.3-.6.6-.6.6.2.6.6zm-1.6 2.7c0-.9-.7-1.6-1.6-1.6s-1.6.7-1.6 1.6.7 1.6 1.6 1.6c.9 0 1.6-.7 1.6-1.6zm.8 0c0 1.4-1.1 2.5-2.5 2.5s-2.5-1.1-2.5-2.5S21.6 18 23 18c1.5-.1 2.5 1.1 2.5 2.5zm1.7 2.1c0 1.2-1 2.1-2.1 2.1h-4.2c-1.2 0-2.1-1-2.1-2.1v-4.2c0-1.2.9-2.1 2.1-2.1h4.2c1.2 0 2.1.9 2.1 2.1v4.2zm1-4.2c0-1.7-1.4-3.1-3.1-3.1h-4.2c-1.7 0-3.1 1.4-3.1 3.1v4.2c0 1.7 1.4 3.1 3.1 3.1h4.2c1.7 0 3.1-1.4 3.1-3.1v-4.2z"/><path class="st37" d="M26.3 17.7c0 .3-.3.6-.6.6s-.6-.3-.6-.6.3-.6.6-.6.6.3.6.6zm-1.8 2.7c0-.9-.7-1.6-1.6-1.6s-1.6.7-1.6 1.6.7 1.6 1.6 1.6c1 .1 1.6-.6 1.6-1.6.2 0 .2 0 0 0zm1 0c0 1.4-1.1 2.6-2.5 2.6s-2.6-1.1-2.6-2.5 1.1-2.6 2.5-2.6 2.6 1.1 2.6 2.5zm1.5 2.2c0 1.2-1 2.1-2.1 2.1h-4.1c-1.2 0-2.1-1-2.1-2.1v-4.2c0-1.2 1-2.1 2.1-2.1H25c1.2 0 2.1 1 2.1 2.1l-.1 4.2zm1-4.2c0-1.7-1.4-3.1-3.1-3.1h-4.2c-1.7 0-3.1 1.4-3.1 3.1v4.2c0 1.7 1.4 3.1 3.1 3.1H25c1.7 0 3.1-1.4 3.1-3.1v-4.2z"/><path class="st38" d="M26.3 17.7c0 .3-.3.6-.6.6s-.6-.3-.6-.6.3-.6.6-.6.6.2.6.6zm-1.8 2.7c0-.9-.7-1.6-1.6-1.6s-1.6.7-1.6 1.6.7 1.6 1.6 1.6c1 0 1.6-.7 1.6-1.6zm1 0c0 1.4-1.1 2.5-2.5 2.5s-2.5-1.1-2.5-2.5 1.1-2.5 2.5-2.5c1.3-.1 2.5 1.1 2.5 2.5zm1.7 2.1c0 1.2-1 2.1-2.1 2.1h-4.2c-1.2 0-2.1-1-2.1-2.1v-4.2c0-1.2 1-2.1 2.1-2.1h4.2c1.2 0 2.1 1 2.1 2.1v4.2zm1-4.1c0-1.7-1.4-3.1-3.1-3.1h-4.2c-1.7 0-3.1 1.4-3.1 3.1v4.1c0 1.7 1.4 3.1 3.1 3.1h4.2c1.7 0 3.1-1.4 3.1-3.1v-4.1z"/><path class="st39" d="M26.2 17.6c0 .3-.3.6-.6.6s-.6-.2-.7-.5c0-.3.2-.6.5-.7h.2c.4 0 .6.3.6.6zm-1.7 2.7c0-.9-.7-1.6-1.6-1.6s-1.7.7-1.7 1.6.7 1.6 1.6 1.6c1.1 0 1.7-.7 1.7-1.6zm1 0c0 1.4-1.1 2.5-2.5 2.5s-2.5-1.1-2.5-2.5 1.1-2.5 2.5-2.5c1.3 0 2.5 1.1 2.5 2.5zm1.5 2.1c0 1.2-1 2.1-2.1 2.1h-4.2c-1.2 0-2.1-1-2.1-2.1v-4.1c0-1.2 1-2.1 2.1-2.1H25c1.2 0 2.1 1 2.1 2.1v4.1zm1-4.1c0-1.7-1.4-3.1-3.1-3.1h-4.2c-1.7 0-3.1 1.4-3.1 3.1v4.1c0 1.7 1.4 3.1 3.1 3.1H25c1.7 0 3.1-1.4 3.1-3.1v-4.1z"/><path class="st40" d="M26.2 17.6c0 .3-.3.6-.6.6s-.6-.3-.6-.6.3-.6.6-.6c.2 0 .6.2.6.6zm-1.7 2.7c0-.9-.7-1.6-1.6-1.6s-1.6.7-1.6 1.6.7 1.6 1.6 1.6c.9 0 1.6-.7 1.6-1.6zm.8 0c0 1.4-1.1 2.5-2.6 2.5-1.4 0-2.5-1.1-2.5-2.6 0-1.4 1.1-2.5 2.6-2.5s2.7 1.2 2.5 2.6c.2 0 .2 0 0 0zm1.7 2.1c0 1.2-1 2.1-2.1 2.1h-4.2c-1.2 0-2.1-1-2.1-2.1v-4.1c0-1.2 1-2.1 2.1-2.1h4.2c1.2 0 2.1 1 2.1 2.1v4.1zm1-4.1c0-1.7-1.4-3.1-3.1-3.1h-4.2c-1.7 0-3.1 1.4-3.1 3.1v4.2c0 1.7 1.4 3.1 3.1 3.1h4.2c1.7 0 3.1-1.4 3.1-3.1v-4.2z"/><path class="st41" d="M26.2 17.5c0 .3-.3.6-.6.6s-.6-.3-.6-.6.3-.6.6-.6c.2 0 .6.3.6.6zm-1.7 2.8c0-.9-.7-1.6-1.6-1.6s-1.6.7-1.6 1.6.7 1.6 1.6 1.6c.9 0 1.6-.7 1.6-1.6zm.8 0c0 1.4-1.1 2.6-2.5 2.6s-2.6-1.1-2.6-2.5 1.1-2.6 2.5-2.6c1.6 0 2.6 1.1 2.6 2.5zm1.7 2.1c0 1.2-1 2.1-2.1 2.1h-4.2c-1.2 0-2.1-1-2.1-2.1v-4.2c0-1.2 1-2.1 2.1-2.1h4.2c1.2 0 2.1 1 2.1 2.1v4.2zm1-4.1c0-1.7-1.4-3.1-3.1-3.1h-4.2c-1.7 0-3.1 1.4-3.1 3.1v4.2c0 1.7 1.4 3.1 3.1 3.1h4.1c1.7 0 3.1-1.4 3.1-3.1l.1-4.2z"/><path class="st42" d="M26 17.5c0 .3-.3.6-.6.6s-.6-.3-.5-.7c0-.3.3-.5.5-.5.4 0 .6.3.6.6zm-1.5 2.7c0-.9-.7-1.6-1.6-1.6s-1.6.7-1.6 1.6.7 1.6 1.6 1.6c.7 0 1.6-.7 1.6-1.6zm.8 0c0 1.4-1.1 2.5-2.5 2.5s-2.6-1.1-2.6-2.5 1.1-2.5 2.5-2.5 2.6 1.1 2.6 2.5zm1.7 2.2c0 1.2-1 2.1-2.1 2.1h-4.2c-1.2 0-2.1-1-2.1-2.1v-4.2c0-1.2 1-2.1 2.1-2.1h4.2c1.2 0 2.1 1 2.1 2.1v4.2zm1-4.2c0-1.7-1.4-3.1-3.1-3.1h-4.2c-1.7 0-3.1 1.4-3.1 3.1v4.1c0 1.7 1.4 3.1 3.1 3.1h4.2c1.7 0 3.1-1.4 3.1-3.1v-4.1z"/><path class="st43" d="M26 17.5c0 .3-.3.6-.6.6s-.6-.3-.6-.6.3-.6.6-.6c.4 0 .6.2.6.6zm-1.7 2.7c0-.9-.7-1.6-1.6-1.6s-1.6.7-1.6 1.6.7 1.6 1.6 1.6c.9 0 1.6-.7 1.6-1.6zm1 0c0 1.4-1.1 2.5-2.6 2.5-1.4 0-2.5-1.1-2.5-2.6 0-1.4 1.1-2.5 2.6-2.5 1.3 0 2.5 1.2 2.5 2.6zm1.5 2.1c0 1.2-1 2.1-2.1 2.1h-4.2c-1.2 0-2.1-1-2.1-2.1v-4.2c0-1.2 1-2.1 2.1-2.1h4.2c1.2 0 2.1 1 2.1 2.1v4.2zm1-4.2c0-1.7-1.4-3.1-3.1-3.1h-4.2c-1.7 0-3.1 1.4-3.1 3.1v4.2c0 1.7 1.4 3.1 3.1 3.1h4.2c1.7 0 3.1-1.4 3.1-3.1v-4.2z"/><path class="st44" d="M26 17.4c0 .3-.3.6-.6.6s-.6-.3-.6-.6.3-.6.6-.6.6.3.6.6zm-1.7 2.7c0-.9-.7-1.6-1.6-1.6s-1.6.7-1.6 1.6.7 1.6 1.6 1.6c.8 0 1.6-.7 1.6-1.6zm1 0c0 1.4-1.1 2.6-2.5 2.6s-2.6-1.1-2.6-2.5 1.1-2.6 2.5-2.6c1.3 0 2.6 1.1 2.6 2.5zm1.5 2.2c0 1.2-1 2.1-2.1 2.1h-4.2c-1.2 0-2.1-1-2.1-2.1v-4.2c0-1.2 1-2.1 2.1-2.1h4.2c1.2 0 2.1 1 2.1 2.1v4.2zm1-4.2c0-1.7-1.4-3.1-3.1-3.1h-4.2c-1.7 0-3.1 1.4-3.1 3.1v4.2c0 1.7 1.4 3.1 3.1 3.1h4.2c1.7 0 3.1-1.4 3.1-3.1v-4.2z"/><path class="st45" d="M26 17.4c0 .3-.3.6-.6.6s-.6-.3-.6-.6.3-.6.6-.6.6.2.6.6zm-1.7 2.7c0-.9-.7-1.6-1.6-1.6s-1.7.7-1.7 1.6.7 1.6 1.6 1.6c.9 0 1.7-.7 1.7-1.6zm.9 0c0 1.4-1.1 2.5-2.5 2.5s-2.5-1.1-2.5-2.5 1.1-2.5 2.5-2.5c1.3-.1 2.5 1.1 2.5 2.5zm1.6 2.1c0 1.2-1 2.1-2.1 2.1h-4.1c-1.2 0-2.1-1-2.1-2.1V18c0-1.2 1-2.1 2.1-2.1h4.2c1.2 0 2.1 1 2.1 2.1l-.1 4.2zm1-4.1c0-1.7-1.4-3.1-3.1-3.1h-4.2c-1.7 0-3.1 1.4-3.1 3.1v4.1c0 1.7 1.4 3.1 3.1 3.1h4.2c1.7 0 3.1-1.4 3.1-3.1v-4.1z"/><path class="st46" d="M25.8 17.3c0 .3-.3.6-.6.6s-.6-.3-.6-.6.3-.6.6-.6c.5 0 .6.3.6.6zM24.3 20c0-.9-.7-1.6-1.6-1.6S21 19.1 21 20s.7 1.6 1.6 1.6c.9.1 1.7-.7 1.7-1.6zm.9 0c0 1.4-1.1 2.5-2.6 2.5-1.4 0-2.5-1.1-2.5-2.6 0-1.4 1.1-2.5 2.6-2.5 1.3.1 2.5 1.2 2.5 2.6zm1.6 2.2c0 1.2-1 2.1-2.1 2.1h-4.2c-1.2 0-2.1-1-2.1-2.1V18c0-1.2 1-2.1 2.1-2.1h4.2c1.2 0 2.1 1 2.1 2.1v4.2zm1-4.2c0-1.7-1.4-3.1-3.1-3.1h-4.2c-1.7 0-3.1 1.4-3.1 3.1v4.2c0 1.7 1.4 3.1 3.1 3.1h4.2c1.7 0 3.1-1.4 3.1-3.1V18z"/><path class="st47" d="M25.8 17.3c0 .3-.3.6-.6.6s-.6-.3-.6-.6.3-.6.6-.6.6.3.6.6zM24.1 20c0-.9-.7-1.6-1.6-1.6s-1.6.7-1.6 1.6.7 1.6 1.6 1.6c1 0 1.6-.7 1.6-1.6zm.9 0c0 1.4-1.1 2.6-2.5 2.6s-2.6-1.1-2.6-2.5 1.1-2.6 2.5-2.6c1.6 0 2.6 1.1 2.6 2.5zm1.7 2.2c0 1.2-.9 2.1-2.1 2.1h-4.2c-1.1 0-2.1-.9-2.1-2.1v-4.3c0-1.2 1-2.1 2.1-2.1h4.2c1.2 0 2.1 1 2.1 2.1v4.3zm1-4.2c0-1.7-1.4-3.1-3.1-3.1h-4.2c-1.7 0-3.1 1.4-3.1 3.1v4.2c0 1.7 1.4 3.1 3.1 3.1h4.2c1.7 0 3.1-1.4 3.1-3.1V18z"/><path class="st48" d="M25.8 17.2c0 .3-.3.6-.6.6s-.6-.3-.6-.6.3-.6.6-.6.6.3.6.6zM24.1 20c0-.9-.7-1.6-1.6-1.6s-1.6.7-1.6 1.6.7 1.6 1.6 1.6c1 0 1.6-.7 1.6-1.6zm.9 0c0 1.4-1.1 2.5-2.5 2.5S20 21.4 20 20s1.1-2.5 2.5-2.5c1.5-.1 2.5 1 2.5 2.5zm1.7 2.1c0 1.2-1 2.1-2.1 2.1h-4.2c-1.2 0-2.1-1-2.1-2.1v-4.2c0-1.2 1-2.1 2.1-2.1h4.2c1.2 0 2.1 1 2.1 2.1v4.2zm1-4.2c0-1.7-1.4-3.1-3.1-3.1h-4.2c-1.7 0-3.1 1.4-3.1 3.1V22c0 1.7 1.4 3.1 3.1 3.1h4.2c1.7 0 3.1-1.4 3.1-3.1v-4.1z"/><path class="st49" d="M25.8 17.2c0 .3-.3.6-.6.6s-.6-.2-.7-.5c0-.3.2-.6.5-.7h.2c.3 0 .6.3.6.6zM24 19.9c0-.9-.7-1.6-1.6-1.6s-1.6.7-1.6 1.6.7 1.6 1.6 1.6c1 0 1.6-.7 1.6-1.6zm1 0c0 1.4-1.1 2.5-2.5 2.5S20 21.3 20 19.9s1.1-2.5 2.5-2.5 2.5 1.1 2.5 2.5zm1.7 2.2c0 1.2-1 2.1-2.1 2.1h-4.2c-1.2 0-2.1-1-2.1-2.1v-4.2c0-1.2 1-2.1 2.1-2.1h4.2c1.2 0 2.1 1 2.1 2.1v4.2zm1-4.2c0-1.7-1.4-3.1-3.1-3.1h-4.2c-1.7 0-3.1 1.4-3.1 3.1V22c0 1.7 1.4 3.1 3.1 3.1h4.2c1.7 0 3.1-1.4 3.1-3.1v-4.1z"/><path class="st50" d="M25.8 17.2c0 .3-.3.6-.6.6s-.6-.3-.6-.6.3-.6.6-.6.6.2.6.6zM24 19.9c0-.9-.7-1.6-1.6-1.6s-1.6.7-1.6 1.6.7 1.6 1.6 1.6c1 0 1.6-.7 1.6-1.6zm1 0c0 1.4-1.2 2.5-2.6 2.5s-2.5-1.2-2.5-2.6 1.2-2.5 2.6-2.5 2.5 1.1 2.5 2.6c0-.1 0 0 0 0zm1.5 2.1c0 1.2-1 2.1-2.1 2.1h-4.2c-1.2 0-2.1-1-2.1-2.1v-4.2c0-1.2 1-2.1 2.1-2.1h4.2c1.2 0 2.1 1 2.1 2.1V22zm1-4.2c0-1.7-1.4-3.1-3.1-3.1h-4.2c-1.7 0-3.1 1.4-3.1 3.1V22c0 1.7 1.4 3.1 3.1 3.1h4.2c1.7 0 3.1-1.4 3.1-3.1v-4.2z"/><path class="st51" d="M25.7 17.1c0 .3-.3.6-.6.6s-.6-.3-.6-.6.3-.6.6-.6c.4 0 .6.3.6.6zM24 19.8c0-.9-.7-1.6-1.6-1.6s-1.6.7-1.6 1.6.7 1.6 1.6 1.6c.9.1 1.6-.7 1.6-1.6zm1 0c0 1.4-1.1 2.6-2.5 2.6s-2.6-1.1-2.6-2.5 1.1-2.6 2.5-2.6 2.6 1.1 2.6 2.5zm1.5 2.2c0 1.2-1 2.1-2.1 2.1h-4.2c-1.2 0-2.1-1-2.1-2.1v-4.2c0-1.2 1-2.1 2.1-2.1h4.2c1.2 0 2.1 1 2.1 2.1V22zm1-4.2c0-1.7-1.4-3.1-3.1-3.1h-4.2c-1.7 0-3.1 1.4-3.1 3.1V22c0 1.7 1.4 3.1 3.1 3.1h4.2c1.7 0 3.1-1.4 3.1-3.1v-4.2z"/><path class="st52" d="M25.7 17.1c0 .3-.3.6-.6.6s-.6-.3-.5-.7c0-.3.3-.5.5-.5s.6.2.6.6zM24 19.8c0-.9-.7-1.6-1.6-1.6s-1.6.7-1.6 1.6.7 1.6 1.6 1.6c.9 0 1.6-.7 1.6-1.6zm.8 0c0 1.4-1.1 2.5-2.5 2.5s-2.5-1.1-2.5-2.5 1.1-2.5 2.5-2.5c1.5-.1 2.5 1.1 2.5 2.5zm1.7 2.1c0 1.2-1 2.1-2.1 2.1h-4.2c-1.2 0-2.1-1-2.1-2.1v-4.2c0-1.2 1-2.1 2.1-2.1h4.2c1.2 0 2.1 1 2.1 2.1v4.2zm1-4.1c0-1.7-1.4-3.1-3.1-3.1h-4.2c-1.7 0-3.1 1.4-3.1 3.1v4.1c0 1.7 1.4 3.1 3.1 3.1h4.2c1.7 0 3.1-1.4 3.1-3.1v-4.1z"/><path class="st53" d="M25.5 17c0 .3-.3.6-.6.6s-.6-.3-.6-.6.3-.6.6-.6c.4 0 .6.3.6.6zM24 19.7c0-.9-.7-1.6-1.6-1.6s-1.6.7-1.6 1.6.7 1.6 1.6 1.6c.7.1 1.6-.7 1.6-1.6zm.8 0c0 1.4-1.1 2.5-2.6 2.5-1.4 0-2.5-1.1-2.5-2.6 0-1.4 1.1-2.5 2.6-2.5 1.5.1 2.5 1.2 2.5 2.6zm1.7 2.2c0 1.2-1 2.1-2.1 2.1h-4.2c-1.2 0-2.1-1-2.1-2.1v-4.2c0-1.2 1-2.1 2.1-2.1h4.2c1.2 0 2.1 1 2.1 2.1v4.2zm1-4.2c0-1.7-1.4-3.1-3.1-3.1h-4.2c-1.7 0-3.1 1.4-3.1 3.1v4.2c0 1.7 1.4 3.1 3.1 3.1h4.2c1.7 0 3.1-1.4 3.1-3.1v-4.2z"/><path class="st54" d="M25.5 17c0 .3-.3.6-.7.5-.3 0-.5-.3-.5-.5 0-.3.2-.6.5-.7s.6.2.7.5v.2zm-1.6 2.7c0-.9-.7-1.6-1.6-1.6s-1.6.7-1.6 1.6.7 1.6 1.6 1.6c.8 0 1.6-.7 1.6-1.6zm.9 0c0 1.4-1.1 2.6-2.5 2.6s-2.6-1.1-2.6-2.5 1.1-2.6 2.5-2.6c1.4-.1 2.6 1.1 2.6 2.5zm1.5 2.1c0 1.2-1 2.1-2.1 2.1h-4.1c-1.2 0-2.1-1-2.1-2.1v-4.2c0-1.2 1-2.1 2.1-2.1h4.1c1.2 0 2.1 1 2.1 2.1v4.2zm1-4.1c0-1.7-1.4-3.1-3.1-3.1H20c-1.7 0-3.1 1.4-3.1 3.1v4.2c0 1.7 1.4 3.1 3.1 3.1h4.2c1.7 0 3.1-1.4 3.1-3.1v-4.2z"/><path class="st55" d="M25.5 16.9c0 .3-.3.6-.6.6s-.6-.3-.6-.6.3-.6.6-.6.6.3.6.6zm-1.6 2.8c0-.9-.8-1.6-1.7-1.6-.9 0-1.6.8-1.6 1.7 0 .9.8 1.6 1.7 1.6.8-.1 1.6-.9 1.6-1.7zm.9 0c0 1.4-1.1 2.5-2.5 2.5s-2.5-1.1-2.5-2.5 1.1-2.5 2.5-2.5c1.3-.1 2.5 1.1 2.5 2.5zm1.5 2.1c0 1.2-.9 2.1-2.1 2.1H20c-1.2 0-2.1-1-2.1-2.1v-4.2c0-1.2 1-2.1 2.1-2.1h4.2c1.2 0 2.1 1 2.1 2.1v4.2zm1-4.2c0-1.7-1.4-3.1-3.1-3.1H20c-1.7 0-3.1 1.4-3.1 3.1v4.1c0 1.7 1.4 3.1 3.1 3.1h4.2c1.7 0 3.1-1.4 3.1-3.1v-4.1z"/><path class="st56" d="M25.5 16.9c0 .3-.3.6-.6.6s-.6-.3-.6-.6.3-.6.6-.6.6.3.6.6zm-1.7 2.7c0-.9-.7-1.6-1.6-1.6s-1.6.7-1.6 1.6.7 1.6 1.6 1.6c.8 0 1.6-.7 1.6-1.6zm1 0c0 1.4-1.1 2.5-2.6 2.5-1.4 0-2.5-1.1-2.5-2.6 0-1.4 1.1-2.5 2.6-2.5 1.2.1 2.5 1.2 2.5 2.6zm1.5 2.2c0 1.2-1 2.1-2.1 2.1H20c-1.2 0-2.1-1-2.1-2.1v-4.2c0-1.2 1-2.1 2.1-2.1h4.2c1.2 0 2.1 1 2.1 2.1v4.2zm1-4.2c0-1.7-1.4-3.1-3.1-3.1H20c-1.7 0-3.1 1.4-3.1 3.1v4.2c0 1.7 1.4 3.1 3.1 3.1h4.2c1.7 0 3.1-1.4 3.1-3.1v-4.2z"/><path class="st57" d="M25.5 16.9c0 .3-.2.6-.5.7s-.7-.3-.7-.6v-.2c0-.3.3-.6.7-.5.2.1.3.3.5.6zm-1.7 2.7c0-.9-.7-1.6-1.6-1.6s-1.6.7-1.6 1.6.7 1.6 1.6 1.6c.8 0 1.6-.7 1.6-1.6zm.9 0c0 1.4-1.1 2.6-2.5 2.6s-2.6-1.1-2.6-2.5 1.1-2.6 2.5-2.6c1.4-.1 2.6 1.1 2.6 2.5zm1.6 2.1c0 1.2-1 2.1-2.1 2.1H20c-1.2 0-2.1-1-2.1-2.1v-4.2c0-1.2 1-2.1 2.1-2.1h4.2c1.2 0 2.1 1 2.1 2.1v4.2zm1-4.2c0-1.7-1.4-3.1-3.1-3.1H20c-1.7 0-3.1 1.4-3.1 3.1v4.2c0 1.7 1.4 3.1 3.1 3.1h4.1c1.7 0 3.1-1.4 3.1-3.1l.1-4.2z"/><path class="st58" d="M25.3 16.8c0 .3-.3.6-.6.6s-.6-.3-.6-.6.3-.6.6-.6c.5 0 .6.3.6.6zm-1.5 2.7c0-.9-.7-1.6-1.6-1.6s-1.6.7-1.6 1.6.7 1.6 1.6 1.6c.8.1 1.6-.7 1.6-1.6zm.9 0c0 1.4-1.1 2.5-2.5 2.5s-2.5-1.1-2.5-2.5 1.1-2.5 2.5-2.5c1.3 0 2.5 1.1 2.5 2.5zm1.6 2.2c0 1.2-1 2.1-2.1 2.1H20c-1.2 0-2.1-1-2.1-2.1v-4.2c0-1.2 1-2.1 2.1-2.1h4.2c1.1-.1 2.1.9 2.1 2.1v4.2zm1-4.2c0-1.7-1.4-3.1-3.1-3.1H20c-1.7 0-3.1 1.4-3.1 3.1v4.1c0 1.7 1.4 3.1 3.1 3.1h4.1c1.7 0 3.1-1.4 3.1-3.1l.1-4.1z"/><path class="st59" d="M25.3 16.8c0 .3-.3.6-.6.6s-.6-.3-.6-.6.3-.6.6-.6.6.2.6.6zm-1.7 2.7c0-.9-.7-1.6-1.6-1.6s-1.6.7-1.6 1.6.7 1.6 1.6 1.6c1 0 1.6-.7 1.6-1.6zm.9 0c0 1.4-1.1 2.5-2.5 2.5s-2.5-1.1-2.5-2.5S20.6 17 22 17s2.5 1.1 2.5 2.5zm1.7 2.1c0 1.2-1 2.1-2.1 2.1h-4.2c-1.2 0-2.1-1-2.1-2.1v-4.2c0-1.2.9-2.1 2.1-2.1h4.2c1.2 0 2.1 1 2.1 2.1v4.2zm1-4.1c0-1.7-1.4-3.1-3.1-3.1h-4.2c-1.7 0-3.1 1.4-3.1 3.1v4.2c0 1.7 1.4 3.1 3.1 3.1h4.2c1.7 0 3.1-1.4 3.1-3.1v-4.2z"/><path class="st60" d="M25.3 16.7c0 .3-.3.6-.6.6s-.6-.3-.6-.6.3-.6.6-.6.6.3.6.6zm-1.8 2.7c0-.9-.7-1.6-1.6-1.6s-1.6.7-1.6 1.6.7 1.6 1.6 1.6c1 .1 1.7-.6 1.6-1.6.1.1.1 0 0 0zm1 0c0 1.4-1.1 2.5-2.6 2.5-1.4 0-2.5-1.1-2.5-2.6 0-1.4 1.1-2.5 2.6-2.5 1.4.1 2.5 1.2 2.5 2.6zm1.5 2.2c0 1.2-1 2.1-2.1 2.1h-4.1c-1.2 0-2.1-1-2.1-2.1v-4.2c0-1.2 1-2.1 2.1-2.1H24c1.2 0 2.1 1 2.1 2.1l-.1 4.2zm1-4.2c0-1.7-1.4-3.1-3.1-3.1h-4.1c-1.7 0-3.1 1.4-3.1 3.1v4.2c0 1.7 1.4 3.1 3.1 3.1h4.1c1.7 0 3.1-1.4 3.1-3.1v-4.2z"/><path class="st61" d="M25.3 16.7c0 .3-.3.6-.6.6s-.6-.3-.6-.6.3-.6.6-.6.6.2.6.6zm-1.8 2.7c0-.9-.7-1.6-1.6-1.6s-1.6.7-1.6 1.6.7 1.6 1.6 1.6c1 0 1.6-.7 1.6-1.6zm1 0c0 1.4-1.1 2.5-2.5 2.5s-2.5-1.1-2.5-2.5 1.1-2.5 2.5-2.5 2.5 1.1 2.5 2.5zm1.7 2.1c0 1.2-1 2.1-2.1 2.1h-4.2c-1.2 0-2.1-1-2.1-2.1v-4.2c0-1.2 1-2.1 2.1-2.1h4.2c1.2 0 2.1 1 2.1 2.1v4.2zm1-4.1c0-1.7-1.4-3.1-3.1-3.1h-4.2c-1.7 0-3.1 1.4-3.1 3.1v4.2c0 1.7 1.4 3.1 3.1 3.1H24c1.7 0 3.1-1.4 3.1-3.1l.1-4.2z"/><path class="st62" d="M25.3 16.6c0 .3-.3.6-.6.6s-.6-.3-.6-.6.3-.6.6-.6.6.3.6.6zm-1.8 2.8c0-.9-.7-1.6-1.6-1.6s-1.6.7-1.6 1.6.7 1.6 1.6 1.6c1 0 1.6-.8 1.6-1.6zm1 0c0 1.4-1.1 2.5-2.5 2.5s-2.5-1.1-2.5-2.5 1.1-2.5 2.5-2.5c1.4-.1 2.5 1.1 2.5 2.5zm1.7 2.1c0 1.2-1 2.1-2.1 2.1h-4.2c-1.2 0-2.1-1-2.1-2.1v-4.2c0-1.2 1-2.1 2.1-2.1h4.2c1.2 0 2.1 1 2.1 2.1v4.2zm1-4.2c0-1.7-1.4-3.1-3.1-3.1h-4.2c-1.7 0-3.1 1.4-3.1 3.1v4.1c0 1.7 1.4 3.1 3.1 3.1h4.2c1.7 0 3.1-1.4 3.1-3.1v-4.1z"/><path class="st63" d="M25.2 16.6c0 .3-.3.6-.6.6s-.6-.3-.6-.6.3-.6.6-.6c.2 0 .6.3.6.6zm-1.7 2.7c0-.9-.7-1.6-1.6-1.6s-1.6.7-1.6 1.6.7 1.6 1.6 1.6c.9 0 1.6-.7 1.6-1.6zm1 0c0 1.4-1.1 2.5-2.6 2.5-1.4 0-2.5-1.1-2.5-2.6 0-1.4 1.1-2.5 2.6-2.5 1.3 0 2.5 1.2 2.5 2.6zm1.5 2.1c0 1.2-1 2.1-2.1 2.1h-4.2c-1.2 0-2.1-1-2.1-2.1v-4.1c0-1.2 1-2.1 2.1-2.1H24c1.2 0 2.1 1 2.1 2.1v4.1zm1-4.1c0-1.7-1.4-3.1-3.1-3.1h-4.2c-1.7 0-3.1 1.4-3.1 3.1v4.2c0 1.7 1.4 3.1 3.1 3.1H24c1.7 0 3.1-1.4 3.1-3.1v-4.2z"/><path class="st64" d="M25.2 16.6c0 .3-.3.6-.7.5-.3 0-.5-.3-.5-.5 0-.3.2-.6.5-.7s.6.2.7.5v.2zm-1.7 2.7c0-.9-.7-1.6-1.6-1.6s-1.6.7-1.6 1.6.7 1.6 1.6 1.6c.9 0 1.6-.7 1.6-1.6zm.8 0c0 1.4-1.1 2.6-2.5 2.6s-2.6-1.1-2.6-2.5 1.1-2.6 2.5-2.6c1.6 0 2.6 1.1 2.6 2.5zm1.7 2.1c0 1.2-1 2.1-2.1 2.1h-4.2c-1.2 0-2.1-1-2.1-2.1v-4.2c0-1.2 1-2.1 2.1-2.1h4.2c1.2 0 2.1 1 2.1 2.1v4.2zm1-4.1c0-1.7-1.4-3.1-3.1-3.1h-4.2c-1.7 0-3.1 1.4-3.1 3.1v4.1c0 1.7 1.4 3.1 3.1 3.1h4.1c1.7 0 3.1-1.4 3.1-3.1l.1-4.1z"/><path class="st65" d="M25 16.5c0 .3-.3.6-.6.6s-.6-.3-.6-.6.3-.6.6-.6c.4 0 .6.3.6.6zm-1.5 2.7c0-.9-.7-1.6-1.6-1.6s-1.6.7-1.6 1.6.7 1.6 1.6 1.6c.7.1 1.6-.7 1.6-1.6zm.8 0c0 1.4-1.1 2.5-2.5 2.5s-2.6-1.1-2.6-2.5 1.1-2.5 2.5-2.5 2.6 1.1 2.6 2.5zm1.7 2.2c0 1.2-1 2.1-2.1 2.1h-4.2c-1.2 0-2.1-1-2.1-2.1v-4.2c0-1.2 1-2.1 2.1-2.1h4.2c1.2 0 2.1 1 2.1 2.1v4.2zm1-4.2c0-1.7-1.4-3.1-3.1-3.1h-4.2c-1.7 0-3.1 1.4-3.1 3.1v4.1c0 1.7 1.4 3.1 3.1 3.1h4.2c1.7 0 3.1-1.4 3.1-3.1v-4.1z"/><path class="st66" d="M25 16.5c0 .3-.3.6-.6.6s-.6-.3-.6-.6.3-.6.6-.6c.4 0 .6.2.6.6zm-1.6 2.7c0-.9-.7-1.6-1.6-1.6s-1.6.7-1.6 1.6.7 1.6 1.6 1.6c.8 0 1.6-.7 1.6-1.6zm.9 0c0 1.4-1.1 2.5-2.6 2.5-1.4 0-2.5-1.1-2.5-2.6 0-1.4 1.1-2.5 2.6-2.5 1.3 0 2.5 1.2 2.5 2.6zm1.5 2.1c0 1.2-1 2.1-2.1 2.1h-4.2c-1.2 0-2.1-1-2.1-2.1v-4.1c0-1.2 1-2.1 2.1-2.1h4.2c1.2 0 2.1 1 2.1 2.1v4.1zm1-4.2c0-1.7-1.4-3.1-3.1-3.1h-4.2c-1.7 0-3.1 1.4-3.1 3.1v4.2c0 1.7 1.4 3.1 3.1 3.1h4.2c1.7 0 3.1-1.4 3.1-3.1v-4.2z"/><path class="st67" d="M25 16.4c0 .3-.2.6-.5.7-.3 0-.6-.2-.7-.5v-.2c0-.3.3-.6.7-.5.3 0 .5.2.5.5zm-1.6 2.7c0-.9-.7-1.6-1.6-1.6s-1.6.7-1.6 1.6.7 1.6 1.6 1.6c.7.1 1.6-.7 1.6-1.6zm.9 0c0 1.4-1.1 2.6-2.5 2.6s-2.6-1.1-2.6-2.5 1.1-2.6 2.5-2.6c1.3 0 2.6 1.1 2.6 2.5zm1.5 2.2c0 1.2-1 2.1-2.1 2.1h-4.2c-1.2 0-2.1-1-2.1-2.1v-4.2c0-1.2 1-2.1 2.1-2.1h4.2c1.2 0 2.1 1 2.1 2.1v4.2zm1-4.2c0-1.7-1.4-3.1-3.1-3.1h-4.2c-1.7 0-3.1 1.4-3.1 3.1v4.2c0 1.7 1.4 3.1 3.1 3.1h4.1c1.7 0 3.1-1.4 3.1-3.1l.1-4.2z"/><path class="st68" d="M25 16.4c0 .3-.3.6-.6.6s-.6-.3-.6-.6.3-.6.6-.6.6.2.6.6zm-1.7 2.7c0-.9-.7-1.6-1.6-1.6s-1.7.7-1.7 1.6.7 1.6 1.6 1.6c.9 0 1.7-.7 1.7-1.6zm.8 0c0 1.4-1.1 2.5-2.5 2.5s-2.5-1.1-2.5-2.5 1.1-2.5 2.5-2.5c1.4-.1 2.5 1.1 2.5 2.5zm1.7 2.1c0 1.2-1 2.1-2.1 2.1h-4.1c-1.2 0-2.1-1-2.1-2.1V17c0-1.2 1-2.1 2.1-2.1h4.2c1.2 0 2.1 1 2.1 2.1l-.1 4.2zm1-4.1c0-1.7-1.4-3.1-3.1-3.1h-4.2c-1.7 0-3.1 1.4-3.1 3.1v4.1c0 1.7 1.4 3.1 3.1 3.1h4.2c1.7 0 3.1-1.4 3.1-3.1v-4.1z"/><path class="st69" d="M25 16.3c0 .3-.3.6-.6.6s-.6-.3-.6-.6.3-.6.6-.6.6.3.6.6zm-1.7 2.8c0-.9-.7-1.6-1.6-1.6s-1.7.7-1.7 1.6.7 1.6 1.6 1.6c.9 0 1.7-.7 1.7-1.6zm.8 0c0 1.4-1.1 2.5-2.5 2.5s-2.5-1.1-2.5-2.5 1.1-2.5 2.5-2.5c1.4-.1 2.5 1.1 2.5 2.5zm1.7 2.1c0 1.2-1 2.1-2.1 2.1h-4.2c-1.2 0-2.1-1-2.1-2.1v-4.1c0-1.2 1-2.1 2.1-2.1h4.2c1.2 0 2.1 1 2.1 2.1v4.1zm1-4.2c0-1.7-1.4-3.1-3.1-3.1h-4.2c-1.7 0-3.1 1.4-3.1 3.1v4.2c0 1.7 1.4 3.1 3.1 3.1h4.2c1.7 0 3.1-1.4 3.1-3.1V17z"/><path class="st70" d="M24.8 16.3c0 .3-.3.6-.6.6s-.6-.3-.6-.6.3-.6.6-.6.6.3.6.6zM23.1 19c0-.9-.7-1.6-1.6-1.6s-1.6.7-1.6 1.6.7 1.6 1.6 1.6c1 0 1.6-.7 1.6-1.6zm1 0c0 1.4-1.1 2.6-2.5 2.6S19 20.5 19 19.1s1.1-2.6 2.5-2.6c1.5 0 2.6 1.1 2.6 2.5zm1.7 2.2c0 1.2-.9 2.1-2.1 2.1h-4.2c-1.2 0-2.2-.9-2.2-2.1v-4.3c0-1.2 1-2.1 2.1-2.1h4.2c1.2 0 2.1 1 2.1 2.1l.1 4.3zm1-4.2c0-1.7-1.4-3.1-3.1-3.1h-4.2c-1.7 0-3.1 1.4-3.1 3.1v4.2c0 1.7 1.4 3.1 3.1 3.1h4.1c1.7 0 3.1-1.4 3.1-3.1l.1-4.2z"/><path class="st71" d="M24.8 16.3c0 .3-.3.6-.6.6s-.6-.3-.6-.6.3-.6.6-.6.6.2.6.6zM23.1 19c0-.9-.7-1.6-1.6-1.6s-1.6.7-1.6 1.6.7 1.6 1.6 1.6c1 0 1.6-.7 1.6-1.6zm.9 0c0 1.4-1.1 2.5-2.5 2.5S19 20.4 19 19s1.1-2.5 2.5-2.5S24 17.6 24 19zm1.7 2.1c0 1.2-1 2.1-2.1 2.1h-4.2c-1.2 0-2.1-1-2.1-2.1v-4.2c0-1.2 1-2.1 2.1-2.1h4.2c1.2 0 2.1 1 2.1 2.1v4.2zm1-4.2c0-1.7-1.4-3.1-3.1-3.1h-4.2c-1.7 0-3.1 1.4-3.1 3.1V21c0 1.7 1.4 3.1 3.1 3.1h4.1c1.7 0 3.1-1.4 3.1-3.1l.1-4.1z"/><path class="st72" d="M24.8 16.2c0 .3-.3.6-.6.6s-.6-.3-.6-.6.3-.6.6-.6.6.3.6.6zm-1.7 2.7c0-.9-.7-1.6-1.6-1.6s-1.6.7-1.6 1.6.7 1.6 1.6 1.6c.9.1 1.6-.7 1.6-1.6zm.9 0c0 1.4-1.1 2.5-2.5 2.5S19 20.3 19 18.9s1.1-2.5 2.5-2.5 2.5 1.1 2.5 2.5zm1.7 2.2c0 1.2-1 2.1-2.1 2.1h-4.2c-1.2 0-2.1-1-2.1-2.1v-4.2c0-1.2 1-2.1 2.1-2.1h4.2c1.2 0 2.1 1 2.1 2.1v4.2zm1-4.2c0-1.7-1.4-3.1-3.1-3.1h-4.2c-1.7 0-3.1 1.4-3.1 3.1V21c0 1.7 1.4 3.1 3.1 3.1h4.2c1.7 0 3.1-1.4 3.1-3.1v-4.1z"/><path class="st73" d="M24.8 16.2c0 .3-.3.6-.6.6s-.6-.3-.6-.6.3-.6.6-.6.6.2.6.6zM23 18.9c0-.9-.7-1.6-1.6-1.6s-1.6.7-1.6 1.6.7 1.6 1.6 1.6c1 0 1.6-.7 1.6-1.6zm1 0c0 1.4-1.2 2.5-2.6 2.5s-2.5-1.2-2.5-2.6 1.2-2.5 2.6-2.5 2.5 1.1 2.5 2.6zm1.5 2.1c0 1.2-1 2.1-2.1 2.1h-4.2c-1.2 0-2.1-1-2.1-2.1v-4.2c0-1.2 1-2.1 2.1-2.1h4.2c1.2 0 2.1.9 2.1 2.1V21zm1-4.1c0-1.7-1.4-3.1-3.1-3.1h-4.2c-1.7 0-3.1 1.4-3.1 3.1v4.2c0 1.7 1.4 3.1 3.1 3.1h4.2c1.7 0 3.1-1.4 3.1-3.1v-4.2z"/><path class="st74" d="M24.7 16.1c0 .3-.3.6-.7.5-.3 0-.5-.3-.5-.5 0-.3.2-.6.5-.7s.6.2.7.5v.2zM23 18.8c0-.9-.7-1.6-1.6-1.6s-1.6.7-1.6 1.6.7 1.6 1.6 1.6c.9.1 1.6-.7 1.6-1.6zm1 0c0 1.4-1.1 2.6-2.5 2.6s-2.6-1.1-2.6-2.5 1.1-2.6 2.5-2.6 2.6 1.1 2.6 2.5zm1.5 2.2c0 1.2-1 2.1-2.1 2.1h-4.2c-1.2 0-2.1-1-2.1-2.1v-4.2c0-1.2 1-2.1 2.1-2.1h4.2c1.2 0 2.1 1 2.1 2.1V21zm1-4.2c0-1.7-1.4-3.1-3.1-3.1h-4.2c-1.7 0-3.1 1.4-3.1 3.1V21c0 1.7 1.4 3.1 3.1 3.1h4.1c1.7 0 3.1-1.4 3.1-3.1l.1-4.2z"/><path class="st75" d="M24.7 16.1c0 .3-.3.6-.6.6s-.6-.3-.6-.6.3-.6.6-.6c.2 0 .6.2.6.6zM23 18.8c0-.9-.7-1.6-1.6-1.6s-1.6.7-1.6 1.6.7 1.6 1.6 1.6c.9 0 1.6-.7 1.6-1.6zm.9 0c0 1.4-1.1 2.6-2.5 2.6s-2.6-1.1-2.6-2.5 1.1-2.6 2.5-2.6c1.5 0 2.6 1.1 2.6 2.5zm1.6 2.1c0 1.2-1 2.1-2.1 2.1h-4.2c-1.2 0-2.1-1-2.1-2.1v-4.2c0-1.2 1-2.1 2.1-2.1h4.2c1.2 0 2.1 1 2.1 2.1v4.2zm1-4.1c0-1.7-1.4-3.1-3.1-3.1h-4.2c-1.7 0-3.1 1.4-3.1 3.1v4.1c0 1.7 1.4 3.1 3.1 3.1h4.2c1.7 0 3.1-1.4 3.1-3.1v-4.1z"/><path class="st76" d="M24.5 16c0 .3-.3.6-.6.6s-.6-.3-.6-.6.3-.6.6-.6c.4 0 .6.3.6.6zM23 18.8c0-.9-.7-1.6-1.6-1.6s-1.6.7-1.6 1.6.7 1.6 1.6 1.6c.9 0 1.6-.7 1.6-1.6zm.9 0c0 1.4-1.1 2.5-2.6 2.5-1.4 0-2.5-1.1-2.5-2.6 0-1.4 1.1-2.5 2.6-2.5 1.4 0 2.5 1.1 2.5 2.6 0-.1 0-.1 0 0zm1.6 2.1c0 1.2-1 2.1-2.1 2.1h-4.2c-1.2 0-2.1-1-2.1-2.1v-4.2c0-1.2 1-2.1 2.1-2.1h4.2c1.2 0 2.1 1 2.1 2.1v4.2zm1-4.2c0-1.7-1.4-3.1-3.1-3.1h-4.2c-1.7 0-3.1 1.4-3.1 3.1v4.2c0 1.7 1.4 3.1 3.1 3.1h4.2c1.7 0 3.1-1.4 3.1-3.1v-4.2z"/><path class="st77" d="M24.5 16c0 .3-.3.6-.6.6s-.6-.3-.6-.6.3-.6.6-.6.6.3.6.6zm-1.6 2.7c0-.9-.7-1.6-1.6-1.7-.9 0-1.6.7-1.7 1.6s.8 1.7 1.7 1.7c.8 0 1.6-.7 1.6-1.6zm1 0c0 1.4-1.1 2.6-2.5 2.6s-2.6-1.1-2.6-2.5 1.1-2.6 2.5-2.6 2.6 1.1 2.6 2.5zm1.6 2.1c0 1.2-1 2.1-2.1 2.1h-4.1c-1.2 0-2.1-1-2.1-2.1v-4.2c0-1.2 1-2.1 2.1-2.1h4c1.2 0 2.1 1 2.1 2.1l.1 4.2zm1-4.1c0-1.7-1.4-3.1-3.1-3.1h-4.2c-1.7 0-3.1 1.4-3.1 3.1v4.2c0 1.7 1.4 3.1 3.1 3.1h4.1c1.7 0 3.1-1.4 3.1-3.1l.1-4.2z"/><path class="st78" d="M24.5 16c0 .3-.3.6-.6.6s-.6-.3-.6-.6.3-.6.6-.6c.4-.1.6.2.6.6 0-.1 0-.1 0 0zm-1.6 2.7c0-.9-.7-1.6-1.6-1.6s-1.6.7-1.6 1.6.7 1.6 1.6 1.6c.8 0 1.6-.7 1.6-1.6zm.9 0c0 1.4-1.1 2.5-2.5 2.5s-2.5-1.1-2.5-2.5 1.1-2.5 2.5-2.5c1.3-.1 2.5 1.1 2.5 2.5zm1.5 2.1c0 1.2-.9 2.1-2.1 2.1H19c-1.2 0-2.1-1-2.1-2.1v-4.2c0-1.2 1-2.1 2.1-2.1h4.2c1.2 0 2.1 1 2.1 2.1v4.2zm1-4.2c0-1.7-1.4-3.1-3.1-3.1H19c-1.7 0-3.1 1.4-3.1 3.1v4.1c0 1.7 1.4 3.1 3.1 3.1h4.2c1.7 0 3.1-1.4 3.1-3.1v-4.1z"/><path class="st79" d="M24.5 15.9c0 .3-.3.6-.6.6s-.6-.2-.6-.6.3-.6.6-.6c.4 0 .6.3.6.6zm-1.6 2.7c0-.9-.8-1.6-1.7-1.6s-1.6.8-1.6 1.7c0 .9.7 1.6 1.6 1.6s1.7-.7 1.7-1.7c0 .1 0 0 0 0zm.9 0c0 1.4-1.1 2.5-2.5 2.5s-2.5-1.1-2.5-2.5 1.1-2.5 2.5-2.5c1.2 0 2.5 1.1 2.5 2.5zm1.5 2.2c0 1.2-.9 2.1-2.1 2.1H19c-1.2 0-2.1-1-2.1-2.1v-4.2c0-1.2 1-2.1 2.1-2.1h4.2c1.2 0 2.1 1 2.1 2.1v4.2zm1-4.2c0-1.7-1.4-3.1-3.1-3.1H19c-1.7 0-3.1 1.4-3.1 3.1v4.2c0 1.7 1.4 3.1 3.1 3.1h4.2c1.7 0 3.1-1.4 3.1-3.1v-4.2z"/><path class="st80" d="M24.5 15.9c0 .3-.3.6-.6.6s-.6-.3-.6-.6.3-.6.6-.6c.2 0 .6.2.6.6zm-1.7 2.7c0-.9-.7-1.6-1.6-1.6s-1.6.7-1.6 1.6.7 1.6 1.6 1.6c.8 0 1.6-.7 1.6-1.6zm.8 0c0 1.4-1.1 2.6-2.5 2.6s-2.6-1.1-2.6-2.5 1.1-2.6 2.5-2.6c1.5-.1 2.6 1.1 2.6 2.5zm1.7 2.1c0 1.2-1 2.1-2.1 2.1H19c-1.2 0-2.1-1-2.1-2.1v-4.2c0-1.2 1-2.1 2.1-2.1h4.2c1.2 0 2.1 1 2.1 2.1v4.2zm1-4.1c0-1.7-1.4-3.1-3.1-3.1H19c-1.7 0-3.1 1.4-3.1 3.1v4.2c0 1.7 1.4 3.1 3.1 3.1h4.1c1.7 0 3.1-1.4 3.1-3.1v-4.2z"/><path class="st81" d="M24.3 15.8c0 .3-.3.6-.6.6s-.6-.3-.6-.6.3-.6.6-.6c.4 0 .6.3.6.6zm-1.5 2.7c0-.9-.7-1.6-1.6-1.6s-1.6.7-1.6 1.6.7 1.6 1.6 1.6c.8.1 1.6-.7 1.6-1.6zm.8 0c0 1.4-1.1 2.5-2.5 2.5s-2.5-1.1-2.5-2.5 1.1-2.5 2.5-2.5 2.5 1.1 2.5 2.5zm1.7 2.2c0 1.2-1 2.1-2.1 2.1H19c-1.2 0-2.1-1-2.1-2.1v-4.2c0-1.2 1-2.1 2.1-2.1h4.2c1.2 0 2.1.9 2.1 2.1v4.2zm1-4.2c0-1.7-1.4-3.1-3.1-3.1H19c-1.7 0-3.1 1.4-3.1 3.1v4.1c0 1.7 1.4 3.1 3.1 3.1h4.1c1.7 0 3.1-1.3 3.1-3v-.1l.1-4.1z"/><path class="st82" d="M24.3 15.8c0 .3-.3.6-.6.6s-.6-.3-.6-.6.3-.6.6-.6.6.2.6.6zm-1.7 2.7c0-.9-.7-1.6-1.6-1.6s-1.6.7-1.6 1.6.7 1.6 1.6 1.6c1 0 1.6-.7 1.6-1.6zm.9 0c0 1.4-1.1 2.5-2.5 2.5s-2.5-1.1-2.5-2.5S19.6 16 21 16s2.5 1.1 2.5 2.5zm1.8 2.1c0 1.2-1 2.1-2.1 2.1H19c-1.2 0-2.1-1-2.1-2.1v-4.2c0-1.2.9-2.1 2.1-2.2h4.2c1.2 0 2.2.9 2.2 2.1v4.3h-.1zm1-4.1c0-1.7-1.4-3.1-3.1-3.1h-4.3c-1.7 0-3.1 1.4-3.1 3.1v4.1c0 1.7 1.4 3.1 3.1 3.1H23c1.7 0 3.1-1.4 3.1-3.1l.2-4.1z"/><path class="st83" d="M24.3 15.7c0 .3-.3.6-.6.6s-.7-.3-.7-.6.3-.6.6-.6c.4 0 .7.3.7.6zm-1.7 2.8c0-.9-.7-1.6-1.6-1.6s-1.6.7-1.6 1.6.7 1.6 1.6 1.6c1 0 1.6-.8 1.6-1.6zm.9 0c0 1.4-1.1 2.5-2.6 2.5-1.4 0-2.5-1.1-2.5-2.6 0-1.4 1.1-2.5 2.6-2.5s2.5 1.1 2.5 2.6c0-.1 0-.1 0 0zm1.7 2.1c0 1.2-1 2.1-2.1 2.1h-4.2c-1.2 0-2.1-1-2.1-2.1v-4.2c0-1.2 1-2.1 2.1-2.1h4.2c1.2 0 2.1 1 2.1 2.1v4.2zm1-4.2c0-1.7-1.4-3.1-3.1-3.1h-4.2c-1.7 0-3.1 1.4-3.1 3.1v4.2c0 1.7 1.4 3.1 3.1 3.1h4.2c1.7 0 3.1-1.4 3.1-3.1v-4.2z"/><path class="st84" d="M24.3 15.7c0 .3-.3.6-.6.6s-.6-.3-.6-.6.3-.6.6-.6.6.2.6.6zm-1.8 2.7c0-.9-.7-1.6-1.6-1.6s-1.6.7-1.6 1.6.7 1.6 1.6 1.6c1 0 1.6-.7 1.6-1.6zm1 0c0 1.4-1.1 2.6-2.5 2.6s-2.6-1.1-2.6-2.5 1.1-2.6 2.5-2.6c1.5 0 2.6 1.1 2.6 2.5zm1.7 2.1c0 1.2-1 2.1-2.1 2.1h-4.2c-1.2 0-2.1-1-2.1-2.1v-4.2c0-1.2 1-2.1 2.1-2.1h4.2c1.2 0 2.1 1 2.1 2.1v4.2zm1-4.1c0-1.7-1.4-3.1-3.1-3.1h-4.2c-1.7 0-3.1 1.4-3.1 3.1v4.2c0 1.7 1.4 3.1 3.1 3.1H23c1.7 0 3.1-1.4 3.1-3.1l.1-4.2z"/><path class="st85" d="M24.3 15.7c0 .3-.3.6-.6.6s-.6-.3-.6-.6.3-.6.6-.6c.3-.1.6.2.6.6 0-.1 0-.1 0 0zm-1.8 2.7c0-.9-.7-1.6-1.6-1.6s-1.7.7-1.7 1.6.8 1.6 1.7 1.6c1 0 1.6-.7 1.6-1.6zm1 0c0 1.4-1.1 2.5-2.5 2.5s-2.5-1.1-2.5-2.5 1.1-2.5 2.5-2.5 2.5 1.1 2.5 2.5zm1.5 2.1c0 1.2-1 2.1-2.1 2.1h-4.2c-1.2 0-2.1-1-2.1-2.1v-4.2c0-1.2 1-2.1 2.1-2.1H23c1.2 0 2.1 1 2.1 2.1v4.2zm1-4.2c0-1.7-1.4-3.1-3.1-3.1h-4.2c-1.7 0-3.1 1.4-3.1 3.1v4.1c0 1.7 1.4 3.1 3.1 3.1H23c1.7 0 3.1-1.4 3.1-3.1v-4.1z"/><path class="st86" d="M24.1 15.6c0 .3-.3.6-.6.6s-.6-.3-.6-.6.3-.6.6-.6c.5 0 .6.3.6.6zm-1.6 2.7c0-.9-.7-1.6-1.6-1.6s-1.7.7-1.7 1.6.7 1.6 1.6 1.6c1 0 1.7-.7 1.7-1.6zm1 0c0 1.4-1.1 2.5-2.6 2.5-1.4 0-2.5-1.1-2.5-2.6 0-1.4 1.1-2.5 2.6-2.5 1.3 0 2.5 1.2 2.5 2.6zm1.5 2.1c0 1.2-1 2.1-2.1 2.1h-4.2c-1.2 0-2.1-1-2.1-2.1v-4.1c0-1.2 1-2.1 2.1-2.1H23c1.2 0 2.1 1 2.1 2.1v4.1zm1-4.1c0-1.7-1.4-3.1-3.1-3.1h-4.2c-1.7 0-3.1 1.4-3.1 3.1v4.2c0 1.7 1.4 3.1 3.1 3.1H23c1.7 0 3.1-1.4 3.1-3.1v-4.2z"/><path class="st87" d="M24.1 15.6c0 .3-.3.6-.6.6s-.6-.3-.6-.6.3-.6.6-.6.6.2.6.6zm-1.6 2.7c0-.9-.7-1.6-1.6-1.6s-1.6.7-1.6 1.6.7 1.6 1.6 1.6c.9 0 1.6-.7 1.6-1.6zm.9 0c0 1.4-1.1 2.6-2.5 2.6s-2.6-1.1-2.6-2.5 1.1-2.6 2.5-2.6c1.5 0 2.6 1.1 2.6 2.5zm1.6 2.1c0 1.2-1 2.1-2.1 2.1h-4.2c-1.2 0-2.1-1-2.1-2.1v-4.2c0-1.2 1-2.1 2.1-2.1h4.2c1.2 0 2.1 1 2.1 2.1v4.2zm1-4.1c0-1.7-1.4-3.1-3.1-3.1h-4.2c-1.7 0-3.1 1.4-3.1 3.1v4.2c0 1.7 1.4 3.1 3.1 3.1h4.1c1.7 0 3.1-1.4 3.1-3.1l.1-4.2z"/><path class="st88" d="M24 15.5c0 .3-.3.6-.6.6s-.6-.3-.6-.6.3-.6.6-.6c.5 0 .6.3.6.6zm-1.5 2.7c0-.9-.7-1.6-1.6-1.6s-1.6.7-1.6 1.6.7 1.6 1.6 1.6c.7.1 1.6-.7 1.6-1.6zm.9 0c0 1.4-1.1 2.5-2.5 2.5s-2.6-1.1-2.6-2.5 1.1-2.5 2.5-2.5 2.6 1.1 2.6 2.5zm1.6 2.2c0 1.2-1 2.1-2.1 2.1h-4.2c-1.2 0-2.1-1-2.1-2.1v-4.2c0-1.2 1-2.1 2.1-2.1h4.2c1.2 0 2.1 1 2.1 2.1v4.2zm1-4.2c0-1.7-1.4-3.1-3.1-3.1h-4.2c-1.7 0-3.1 1.4-3.1 3.1v4.1c0 1.7 1.4 3.1 3.1 3.1h4.2c1.7 0 3.1-1.4 3.1-3.1v-4.1z"/></g><path class="st89" d="M24 15.5c0 .3-.3.6-.6.6s-.6-.3-.6-.6.3-.6.6-.6c.5 0 .6.3.6.6zm-.6 2.7c0 1.4-1.1 2.5-2.5 2.5s-2.6-1.1-2.6-2.5 1.1-2.5 2.5-2.5 2.6 1.1 2.6 2.5zm-.9 0c0-.9-.7-1.6-1.6-1.6s-1.6.7-1.6 1.6.7 1.6 1.6 1.6c.7.1 1.6-.7 1.6-1.6zm3.5-2c0-1.7-1.4-3.1-3.1-3.1h-4.2c-1.7 0-3.1 1.4-3.1 3.1v4.2c0 1.7 1.4 3.1 3.1 3.1h4.2c1.7 0 3.1-1.4 3.1-3.1v-4.2zm-1 4.2c0 1.2-1 2.1-2.1 2.1h-4.2c-1.2 0-2.1-1-2.1-2.1v-4.2c0-1.2 1-2.1 2.1-2.1h4.1c1.2 0 2.1 1 2.1 2.1l.1 4.2z"/></svg>