<svg id="Шар_1" xmlns="http://www.w3.org/2000/svg" xmlns:xlink="http://www.w3.org/1999/xlink" viewBox="0 0 40 40"><style>.st0{fill:url(#SVGID_1_)}.st1{opacity:.5}.st2{fill:url(#SVGID_2_)}.st3{opacity:.6}.st4{fill:#fff;fill-opacity:0}.st5{opacity:1e-2;fill:#fdfcfc}.st5,.st6,.st7,.st8,.st9{enable-background:new}.st6{opacity:3e-2;fill:#fbf8f8}.st7{opacity:4e-2;fill:#f9f5f5}.st8{opacity:5e-2;fill:#f7f2f2}.st9{opacity:6e-2;fill:#f5efef}.st10{opacity:8e-2;fill:#f3ebeb}.st10,.st11,.st12,.st13{enable-background:new}.st11{opacity:9e-2;fill:#f1e8e8}.st12{opacity:.1;fill:#efe5e5}.st13{opacity:.12;fill:#ede2e2}.st14{opacity:.13;fill:#ebdede}.st14,.st15,.st16,.st17{enable-background:new}.st15{opacity:.14;fill:#e9dbdb}.st16{opacity:.15;fill:#e7d8d8}.st17{opacity:.17;fill:#e4d4d4}.st18{opacity:.18;fill:#e2d1d1}.st18,.st19,.st20,.st21{enable-background:new}.st19{opacity:.19;fill:#e0cece}.st20{opacity:.21;fill:#decbcb}.st21{opacity:.22;fill:#dcc7c7}.st22{opacity:.23;fill:#dac4c4}.st22,.st23,.st24,.st25{enable-background:new}.st23{opacity:.24;fill:#d8c1c1}.st24{opacity:.26;fill:#d6bebe}.st25{opacity:.27;fill:#d4baba}.st26{opacity:.28;fill:#d2b7b7}.st26,.st27,.st28,.st29{enable-background:new}.st27{opacity:.29;fill:#d0b4b4}.st28{opacity:.31;fill:#ceb1b1}.st29{opacity:.32;fill:#ccadad}.st30{opacity:.33;fill:#caaaaa}.st30,.st31,.st32,.st33{enable-background:new}.st31{opacity:.35;fill:#c8a7a7}.st32{opacity:.36;fill:#c6a3a3}.st33{opacity:.37;fill:#c4a0a0}.st34{opacity:.38;fill:#c29d9d}.st34,.st35,.st36,.st37{enable-background:new}.st35{opacity:.4;fill:#c09a9a}.st36{opacity:.41;fill:#be9696}.st37{opacity:.42;fill:#bc9393}.st38{opacity:.44;fill:#ba9090}.st38,.st39,.st40,.st41{enable-background:new}.st39{opacity:.45;fill:#b88d8d}.st40{opacity:.46;fill:#b68989}.st41{opacity:.47;fill:#b48686}.st42{opacity:.49;fill:#b28383}.st42,.st43,.st44,.st45{enable-background:new}.st43{opacity:.5;fill:#af7f7f}.st44{opacity:.51;fill:#ad7c7c}.st45{opacity:.53;fill:#ab7979}.st46{opacity:.54;fill:#a97676}.st46,.st47,.st48,.st49{enable-background:new}.st47{opacity:.55;fill:#a77272}.st48{opacity:.56;fill:#a56f6f}.st49{opacity:.58;fill:#a36c6c}.st50{opacity:.59;fill:#a16969}.st50,.st51,.st52,.st53{enable-background:new}.st51{opacity:.6;fill:#9f6565}.st52{opacity:.62;fill:#9d6262}.st53{opacity:.63;fill:#9b5f5f}.st54{opacity:.64;fill:#995c5c}.st54,.st55,.st56,.st57{enable-background:new}.st55{opacity:.65;fill:#975858}.st56{opacity:.67;fill:#955555}.st57{opacity:.68;fill:#935252}.st58{opacity:.69;fill:#914e4e}.st58,.st59,.st60,.st61{enable-background:new}.st59{opacity:.71;fill:#8f4b4b}.st60{opacity:.72;fill:#8d4848}.st61{opacity:.73;fill:#8b4545}.st62{opacity:.74;fill:#894141}.st62,.st63,.st64,.st65{enable-background:new}.st63{opacity:.76;fill:#873e3e}.st64{opacity:.77;fill:#853b3b}.st65{opacity:.78;fill:#833838}.st66{opacity:.79;fill:#813434}.st66,.st67,.st68,.st69{enable-background:new}.st67{opacity:.81;fill:#7f3131}.st68{opacity:.82;fill:#7d2e2e}.st69{opacity:.83;fill:#7b2b2b}.st70{opacity:.85;fill:#782727}.st70,.st71,.st72,.st73{enable-background:new}.st71{opacity:.86;fill:#762424}.st72{opacity:.87;fill:#742121}.st73{opacity:.88;fill:#721d1d}.st74{opacity:.9;fill:#701a1a}.st74,.st75,.st76,.st77{enable-background:new}.st75{opacity:.91;fill:#6e1717}.st76{opacity:.92;fill:#6c1414}.st77{opacity:.94;fill:#6a1010}.st78{opacity:.95;fill:#680d0d}.st78,.st79,.st80,.st81{enable-background:new}.st79{opacity:.96;fill:#660a0a}.st80{opacity:.97;fill:#640707}.st81{opacity:.99;fill:#620303}.st82{fill:#600000}.st83{fill:#fff}</style><linearGradient id="SVGID_1_" gradientUnits="userSpaceOnUse" x1="11.911" y1="30.701" x2="31.381" y2="11.23" gradientTransform="matrix(1 0 0 -1 0 41.14)"><stop offset="0" stop-color="red"/><stop offset="1" stop-color="#850000"/></linearGradient><path class="st0" d="M7.4 26.6c-1.5-.7-2.5-2.2-2.6-3.8-.1-1.6.3-3.3 1.1-4.7 3.9-8 12.8-12.3 21.5-10.5 1.8.3 3.4 1 4.8 2.2 2.1 2 3.1 4.8 2.8 7.6-.3 2.8-1.2 5.5-2.6 7.9-.9 1.9-2.2 3.7-3.7 5.2-1.6 1.5-3.7 2.3-5.8 2.2-4.4-.3-7.4-5.2-11.8-5.7-1.2-.1-2.5.1-3.7-.4z"/><image width="394" height="379" xlink:href="34CBB8B7.png" transform="matrix(.24 0 0 .24 -26.805 -25.575)" overflow="visible" class="st1"/><linearGradient id="SVGID_2_" gradientUnits="userSpaceOnUse" x1="27.634" y1="15.46" x2="13.644" y2="29.45" gradientTransform="matrix(1 0 0 -1 0 41.14)"><stop offset="0" stop-color="red"/><stop offset="1" stop-color="#850000"/></linearGradient><path class="st2" d="M10.8 24c-1.1-.5-1.8-1.6-1.9-2.8 0-1.2.2-2.4.8-3.4 2.9-5.9 9.4-9 15.8-7.7 1.3.2 2.5.8 3.5 1.6 1.5 1.5 2.3 3.5 2.1 5.6-.2 2.1-.9 4-1.9 5.8-.7 1.4-1.6 2.7-2.7 3.8-1.1 1.1-2.7 1.7-4.3 1.6-3.2-.2-5.5-3.8-8.7-4.2-.9 0-1.8-.1-2.7-.3z"/><g class="st3"><path class="st4" d="M25.8 21.3l-2.4 1.2c-.1 0-.4 0-.4-.1v-2.5c0-.1.3-.2.4-.1l2.3 1.3c.2-.1.2.1.1.2zm3.3-1.3c0-1.2-.9-2.1-2.1-2.1h-5.4c-1.2 0-2.1 1-2.1 2.1v2.5c0 1.2.9 2.1 2.1 2.1H27c1.2 0 2.1-.9 2.1-2.1V20z"/><path class="st5" d="M25.8 21.2l-2.4 1.2c-.1 0-.4 0-.4-.1v-2.5c0-.1.3-.2.4-.1l2.3 1.3c.1 0 .2.1.1.2zm3.3-1.3c0-1.2-.9-2.1-2.1-2.1h-5.4c-1.2 0-2.1.9-2.1 2.1v2.5c0 1.2 1 2.1 2.1 2.1H27c1.2 0 2.1-.9 2.1-2.1v-2.5z"/><path class="st6" d="M25.8 21.2l-2.4 1.2c-.1 0-.4 0-.4-.1v-2.5c0-.1.3-.2.4-.1l2.3 1.3c.1 0 .2.1.1.2zm3.2-1.3c0-1.2-.9-2.1-2.1-2.1h-5.4c-1.2 0-2.1.9-2.1 2.1v2.5c0 1.2.9 2.1 2.1 2.1h5.4c1.2 0 2.1-.9 2.1-2.1v-2.5z"/><path class="st7" d="M25.7 21.1l-2.4 1.2c-.1.1-.4 0-.4-.1v-2.5c0-.1.3-.2.4-.1l2.3 1.3c.2 0 .2.2.1.2zm3.3-1.3c0-1.2-.9-2.1-2.1-2.1h-5.4c-1.2 0-2.1.9-2.1 2.1v2.5c0 1.2.9 2.1 2.1 2.1h5.4c1.2 0 2.1-.9 2.1-2.1v-2.5z"/><path class="st8" d="M25.7 21.1l-2.4 1.2c-.1 0-.4 0-.4-.1v-2.4c0-.1.3-.2.4-.1l2.3 1.3c.1-.1.2 0 .1.1zm3.3-1.3c0-1.2-.9-2.1-2.1-2.1h-5.4c-1.2 0-2.1 1-2.1 2.1v2.5c0 1.2.9 2.1 2.1 2.1h5.4c1.2 0 2.1-.9 2.1-2.1v-2.5z"/><path class="st9" d="M25.7 21l-2.4 1.2c-.1 0-.4 0-.4-.1v-2.5c0-.1.3-.2.4-.1l2.3 1.3c.1.1.2.2.1.2zm3.2-1.2c0-1.2-.9-2.1-2.1-2.1h-5.4c-1.2 0-2.1.9-2.1 2.1v2.5c0 1.2.9 2.1 2.1 2.1h5.4c1.2 0 2.1-.9 2.1-2.1v-2.5z"/><path class="st10" d="M25.6 21l-2.4 1.2c-.1 0-.4 0-.4-.1v-2.5c0-.1.3-.2.4-.1l2.3 1.3c.1 0 .2.2.1.2zm3.3-1.3c0-1.2-.9-2.1-2.1-2.1h-5.4c-1.2 0-2.1.9-2.1 2.1v2.5c0 1.2.9 2.1 2.1 2.1h5.4c1.2 0 2.1-.9 2.1-2.1v-2.5z"/><path class="st11" d="M25.6 21l-2.3 1.2c-.1 0-.4 0-.4-.1v-2.5c0-.1.3-.2.4-.1l2.3 1.3s.1.1 0 .2zm3.2-1.3c0-1.2-.9-2.1-2.1-2.1h-5.4c-1.2 0-2.1 1-2.1 2.1v2.6c0 1.2.9 2.1 2.1 2.1h5.4c1.2 0 2.1-1 2.1-2.1v-2.6z"/><path class="st12" d="M25.6 20.9l-2.4 1.2c-.1 0-.4 0-.4-.1v-2.5c0-.1.3-.2.4-.1l2.3 1.3c.1 0 .2.2.1.2zm3.2-1.2c0-1.2-.9-2.1-2.1-2.1h-5.4c-1.2 0-2.1.9-2.1 2.1v2.5c0 1.2 1 2.1 2.1 2.1h5.4c1.2 0 2.1-.9 2.1-2.1v-2.5z"/><path class="st13" d="M25.5 20.9l-2.4 1.2c-.1 0-.4 0-.4-.1v-2.5c0-.1.3-.2.4-.1l2.3 1.3c.1 0 .2.2.1.2zm3.3-1.3c0-1.2-.9-2.1-2.1-2.1h-5.4c-1.2 0-2.1.9-2.1 2.1v2.5c0 1.2.9 2.1 2.1 2.1h5.4c1.2 0 2.1-.9 2.1-2.1v-2.5z"/><path class="st14" d="M25.5 20.9l-2.4 1.2c-.1 0-.4 0-.4-.1v-2.5c0-.1.3-.2.4-.1l2.3 1.3c.1 0 .2.1.1.2zm3.2-1.3c0-1.2-.9-2.1-2.1-2.1h-5.4c-1.2 0-2.1.9-2.1 2.1v2.5c0 1.2.9 2.1 2.1 2.2h5.5c1.2 0 2.1-.9 2.1-2.1l-.1-2.6z"/><path class="st15" d="M25.4 20.8L23.1 22c-.1 0-.4 0-.4-.1v-2.5c0-.1.3-.2.4-.1l2.3 1.3c.1 0 .1.2 0 .2zm3.3-1.3c0-1.2-.9-2.1-2.1-2.1h-5.4c-1.2 0-2.1.9-2.1 2.1V22c0 1.2 1 2.1 2.1 2.1h5.4c1.2 0 2.1-.9 2.1-2.1v-2.5z"/><path class="st16" d="M25.4 20.8L23 22c-.1.1-.4 0-.4-.1v-2.5c0-.1.3-.2.4-.1l2.3 1.3c.1 0 .2.1.1.2zm3.3-1.3c0-1.2-.9-2.1-2.1-2.1h-5.4c-1.2 0-2.1.9-2.1 2.1V22c0 1.2.9 2.1 2.1 2.1h5.4c1.2 0 2.1-.9 2.1-2.1v-2.5z"/><path class="st17" d="M25.4 20.8L23 22c-.1 0-.4 0-.4-.1v-2.5c0-.1.3-.2.4-.1l2.3 1.3c.1 0 .2.1.1.2zm3.2-1.3c0-1.2-.9-2.1-2.1-2.1h-5.4c-1.2 0-2.1.9-2.1 2.1V22c0 1.2.9 2.1 2.1 2.1h5.4c1.2 0 2.1-.9 2.1-2.1v-2.5z"/><path class="st18" d="M25.3 20.7L23 21.9c-.1 0-.4 0-.4-.1v-2.5c0-.1.3-.2.4-.1l2.3 1.3c.1 0 .1.2 0 .2zm3.3-1.3c0-1.2-.9-2.1-2.1-2.1h-5.4c-1.2 0-2.1 1-2.1 2.1v2.5c0 1.2.9 2.1 2.1 2.1h5.4c1.2 0 2.1-.9 2.1-2.1v-2.5z"/><path class="st19" d="M25.3 20.7l-2.4 1.2c-.1 0-.4 0-.4-.1v-2.5c0-.1.3-.2.4-.1l2.3 1.3c.1 0 .2.1.1.2zm3.3-1.3c0-1.2-.9-2.1-2.1-2.1H21c-1.2 0-2.1.9-2.1 2.1v2.5c0 1.2.9 2.1 2.1 2.1h5.4c1.2 0 2.1-.9 2.1-2.1v-2.5z"/><path class="st20" d="M25.3 20.7l-2.4 1.2c-.1 0-.4 0-.4-.1v-2.5c0-.1.3-.2.4-.1l2.3 1.3c.1 0 .2.1.1.2zm3.2-1.3c0-1.2-.9-2.1-2.1-2.1H21c-1.2 0-2.1.9-2.1 2.1v2.5c0 1.2.9 2.1 2.1 2.1h5.4c1.2 0 2.1-1 2.1-2.1v-2.5z"/><path class="st21" d="M25.3 20.6l-2.4 1.2c-.1 0-.4 0-.4-.1v-2.4c0-.1.3-.2.4-.1l2.3 1.3c.1-.1.1.1.1.1zm3.2-1.3c0-1.2-1-2.1-2.1-2.1H21c-1.2 0-2.1 1-2.1 2.1v2.5c0 1.1 1 2.1 2.1 2.1h5.4c1.2 0 2.1-.9 2.1-2.1v-2.5z"/><path class="st22" d="M25.2 20.6l-2.4 1.2c-.1 0-.4 0-.4-.1v-2.5c0-.1.3-.2.4-.1l2.3 1.3c.2 0 .2.1.1.2zm3.2-1.3c0-1.2-.9-2.1-2.1-2.1h-5.4c-1.2 0-2.1.9-2.1 2.1v2.5c0 1.2 1 2.1 2.1 2.1h5.4c1.2 0 2.1-.9 2.1-2.1v-2.5z"/><path class="st23" d="M25.2 20.6l-2.4 1.2c-.1.1-.4 0-.4-.1v-2.5c0-.1.3-.2.4-.1l2.3 1.3c.1 0 .2.1.1.2zm3.2-1.3c0-1.2-.9-2.1-2.1-2.1h-5.4c-1.2 0-2.1.9-2.1 2.1v2.5c0 1.2.9 2.1 2.1 2.1h5.4c1.2 0 2.1-.9 2.1-2.1v-2.5z"/><path class="st24" d="M25.1 20.5l-2.4 1.2c-.1 0-.4 0-.4-.1v-2.5c0-.1.3-.2.4-.1l2.3 1.3c.1 0 .3.2.1.2zm3.3-1.2c0-1.2-.9-2.1-2.1-2.2h-5.5c-1.2 0-2.1.9-2.1 2.1v2.6c0 1.2.9 2.1 2.1 2.1h5.4c1.2 0 2.1-.9 2.1-2.1v-2.5z"/><path class="st25" d="M25.1 20.5l-2.4 1.2c-.1.1-.4 0-.4-.1v-2.5c0-.1.3-.2.4-.1l2.3 1.3c.1 0 .2.1.1.2zm3.2-1.3c0-1.2-.9-2.1-2.1-2.1h-5.5c-1.2 0-2.1 1-2.1 2.1v2.5c0 1.2.9 2.1 2.1 2.1h5.5c1.2 0 2.1-.9 2.1-2.1v-2.5z"/><path class="st26" d="M25.1 20.4l-2.4 1.2c-.1 0-.4 0-.4-.1V19c0-.1.3-.2.4-.1l2.3 1.3c.1.1.2.2.1.2zm3.2-1.3c0-1.2-.9-2.1-2.1-2.1h-5.4c-1.2 0-2.1.9-2.1 2.1v2.5c0 1.2.9 2.1 2.1 2.1h5.4c1.2 0 2.1-.9 2.1-2.1v-2.5z"/><path class="st27" d="M25 20.4l-2.4 1.2c-.1 0-.4 0-.4-.1V19c0-.1.3-.2.4-.1l2.3 1.3c.1.1.2.2.1.2zm3.3-1.3c0-1.2-.9-2.1-2.1-2.1h-5.4c-1.2 0-2.1.9-2.1 2.1v2.5c0 1.2.9 2.1 2.1 2.1h5.4c1.2 0 2.1-.9 2.1-2.1v-2.5z"/><path class="st28" d="M25 20.4l-2.4 1.2c-.1 0-.4 0-.4-.1V19c0-.1.3-.2.4-.1l2.3 1.3c.1 0 .2.1.1.2zm3.3-1.3c0-1.2-.9-2.1-2.1-2.1h-5.4c-1.2 0-2.1 1-2.1 2.1v2.5c0 1.2.9 2.1 2.1 2.1h5.4c1.2 0 2.1-.9 2.1-2.1v-2.5z"/><path class="st29" d="M24.9 20.3l-2.4 1.2c-.1 0-.4 0-.4-.1v-2.5c0-.1.3-.2.4-.1l2.3 1.3c.2 0 .2.2.1.2zm3.3-1.3c0-1.2-.9-2.1-2.1-2.1h-5.4c-1.2 0-2.1.9-2.1 2.1v2.5c0 1.2 1 2.1 2.1 2.1h5.4c1.2 0 2.1-.9 2.1-2.1V19z"/><path class="st30" d="M24.9 20.3l-2.4 1.2c-.1 0-.4 0-.4-.1v-2.5c0-.1.3-.2.4-.1l2.3 1.3c.1 0 .2.2.1.2zm3.2-1.3c0-1.2-.9-2.1-2.1-2.1h-5.4c-1.2 0-2.1.9-2.1 2.1v2.5c0 1.2.9 2.1 2.1 2.1H26c1.2 0 2.1-.9 2.1-2.1V19z"/><path class="st31" d="M24.9 20.3l-2.4 1.2c-.1 0-.4 0-.4-.1v-2.5c0-.1.3-.2.4-.1l2.3 1.3c.1 0 .2.2.1.2zm3.2-1.4c0-1.2-.9-2.1-2.1-2.1h-5.4c-1.2 0-2.1.9-2.1 2.1v2.5c0 1.2.9 2.1 2.1 2.1H26c1.2 0 2.1-.9 2.1-2.1v-2.5z"/><path class="st32" d="M24.8 20.3l-2.4 1.2c-.1.1-.4 0-.4-.1v-2.5c0-.1.3-.2.4-.1l2.3 1.3c.2-.1.2.1.1.2zm3.3-1.4c0-1.2-.9-2.1-2.1-2.1h-5.4c-1.2 0-2.1.9-2.1 2.1v2.5c0 1.2 1 2.1 2.1 2.1H26c1.2 0 2.1-.9 2.1-2.1v-2.5z"/><path class="st33" d="M24.8 20.2l-2.4 1.2c-.1 0-.4 0-.4-.1v-2.5c0-.1.3-.2.4-.1l2.3 1.3c.1 0 .2.1.1.2zm3.2-1.3c0-1.2-.9-2.1-2.1-2.1h-5.4c-1.2 0-2.1.9-2.1 2.1v2.5c0 1.2.9 2.1 2.1 2.1h5.4c1.2 0 2.1-.9 2.1-2.1v-2.5z"/><path class="st34" d="M24.8 20.2l-2.4 1.2c-.1 0-.4 0-.4-.1v-2.5c0-.1.3-.2.4-.1l2.3 1.3c.1 0 .2.1.1.2zm3.2-1.4c0-1.2-.9-2.1-2.1-2.1h-5.4c-1.2 0-2.1.9-2.1 2.1v2.5c0 1.2.9 2.1 2.1 2.1h5.4c1.2 0 2.1-.9 2.1-2.1v-2.5z"/><path class="st35" d="M24.7 20.1l-2.4 1.2c-.1 0-.4 0-.4-.1v-2.5c0-.1.3-.2.4-.1l2.3 1.3c.1 0 .2.2.1.2zm3.3-1.3c0-1.2-.9-2.1-2.1-2.1h-5.4c-1.2 0-2.1 1-2.1 2.1v2.5c0 1.2.9 2.1 2.1 2.1h5.4c1.2 0 2.1-.9 2.1-2.1v-2.5z"/><path class="st36" d="M24.7 20.1l-2.4 1.2c-.1 0-.4 0-.4-.1v-2.4c0-.1.3-.2.4-.1l2.3 1.3c.1-.1.2 0 .1.1zm3.2-1.3c0-1.2-.9-2.1-2.1-2.1h-5.4c-1.2 0-2.1.9-2.1 2.1v2.5c0 1.2.9 2.1 2.1 2.1h5.4c1.2 0 2.1-.9 2.1-2.1v-2.5z"/><path class="st37" d="M24.7 20.1l-2.4 1.2c-.1 0-.4 0-.4-.1v-2.5c0-.1.3-.2.4-.1l2.3 1.3c.1 0 .2.1.1.2zm3.2-1.4c0-1.2-.9-2.1-2.1-2.1h-5.4c-1.2 0-2.1.9-2.1 2.1v2.5c0 1.2.9 2.1 2.1 2.1h5.4c1.2 0 2.1-.9 2.1-2.1v-2.5z"/><path class="st38" d="M24.6 20l-2.4 1.2c-.1 0-.4 0-.4-.1v-2.5c0-.1.3-.2.4-.1l2.3 1.3c.1 0 .2.2.1.2zm3.2-1.3c0-1.2-.9-2.1-2.1-2.1h-5.4c-1.2 0-2.1 1-2.1 2.1v2.6c0 1.2.9 2.1 2.1 2.1h5.4c1.2 0 2.1-1 2.1-2.1v-2.6z"/><path class="st39" d="M24.6 20l-2.4 1.2c-.1 0-.4 0-.4-.1v-2.5c0-.1.3-.2.4-.1l2.3 1.3c.1 0 .2.1.1.2zm3.2-1.3c0-1.2-.9-2.1-2.1-2.1h-5.4c-1.2 0-2.1.9-2.1 2.1v2.5c0 1.2 1 2.1 2.1 2.1h5.4c1.2 0 2.1-.9 2.1-2.1v-2.5z"/><path class="st40" d="M24.6 19.9l-2.4 1.2c-.1 0-.4 0-.4-.1v-2.5c0-.1.3-.2.4-.1l2.3 1.3c.1.1.2.2.1.2zm3.2-1.3c0-1.2-.9-2.1-2.1-2.1h-5.4c-1.2 0-2.1.9-2.1 2.1v2.5c0 1.2.9 2.1 2.1 2.1h5.4c1.2 0 2.1-.9 2.1-2.1v-2.5z"/><path class="st41" d="M24.5 19.9l-2.4 1.2c-.1.1-.4 0-.4-.1v-2.5c0-.1.3-.2.4-.1l2.3 1.3c.1 0 .2.2.1.2zm3.2-1.3c0-1.2-.9-2.1-2.1-2.1h-5.4c-1.2 0-2.1.9-2.1 2.1v2.5c0 1.2.9 2.1 2.1 2.2h5.5c1.2 0 2.1-.9 2.1-2.1l-.1-2.6z"/><path class="st42" d="M24.5 19.9l-2.4 1.2c-.1 0-.4 0-.4-.1v-2.5c0-.1.3-.2.4-.1l2.3 1.3c.1 0 .2.1.1.2zm3.2-1.4c0-1.2-.9-2.1-2.1-2.1h-5.4c-1.2 0-2.1 1-2.1 2.1V21c0 1.2.9 2.1 2.1 2.1h5.4c1.2 0 2.1-.9 2.1-2.1v-2.5z"/><path class="st43" d="M24.5 19.8L22 21c-.1 0-.4 0-.4-.1v-2.5c0-.1.3-.2.4-.1l2.3 1.3c.2 0 .2.2.2.2zm3.2-1.3c0-1.2-.9-2.1-2.1-2.1h-5.4c-1.2 0-2.1.9-2.1 2.1V21c0 1.2.9 2.1 2.1 2.1h5.4c1.2 0 2.1-.9 2.1-2.1v-2.5z"/><path class="st44" d="M24.4 19.8L22 21c-.1 0-.4 0-.4-.1v-2.5c0-.1.3-.2.4-.1l2.3 1.3c.1 0 .2.1.1.2zm3.2-1.3c0-1.2-.9-2.1-2.1-2.1h-5.4c-1.2 0-2.1.9-2.1 2.1V21c0 1.2.9 2.1 2.1 2.1h5.4c1.2 0 2.1-.9 2.1-2.1v-2.5z"/><path class="st45" d="M24.4 19.8L22 21c-.1 0-.4 0-.4-.1v-2.5c0-.1.3-.2.4-.1l2.3 1.3c.1 0 .2.1.1.2zm3.2-1.4c0-1.2-.9-2.1-2.1-2.1h-5.4c-1.2 0-2.1 1-2.1 2.1v2.5c0 1.2.9 2.1 2.1 2.1h5.4c1.2 0 2.1-.9 2.1-2.1v-2.5z"/><path class="st46" d="M24.3 19.7l-2.4 1.2c-.1 0-.4 0-.4-.1v-2.5c0-.1.3-.2.4-.1l2.3 1.3c.1 0 .2.2.1.2zm3.3-1.3c0-1.2-.9-2.1-2.1-2.1H20c-1.2 0-2.1.9-2.1 2.1v2.5c0 1.2 1 2.1 2.1 2.1h5.4c1.2 0 2.1-.9 2.1-2.1v-2.5z"/><path class="st47" d="M24.3 19.7l-2.4 1.2c-.1 0-.4 0-.4-.1v-2.5c0-.1.3-.2.4-.1l2.4 1.3s.1.1 0 .2zm3.2-1.3c0-1.2-1-2.1-2.1-2.1H20c-1.2 0-2.1.9-2.1 2.1v2.5c0 1.2.9 2.1 2.1 2.1h5.4c1.2 0 2.1-.9 2.1-2.1v-2.5z"/><path class="st48" d="M24.3 19.7l-2.4 1.2c-.1.1-.4 0-.4-.1v-2.5c0-.1.3-.2.4-.1l2.3 1.3c.1 0 .2.1.1.2zm3.2-1.4c0-1.1-.9-2.1-2.1-2.1H20c-1.2 0-2.1.9-2.1 2.1v2.5c0 1.1 1 2.1 2.1 2.1h5.4c1.2 0 2.1-.9 2.1-2.1v-2.5z"/><path class="st49" d="M24.3 19.6l-2.4 1.2c-.1 0-.4 0-.4-.1v-2.4c0-.1.3-.2.4-.1l2.3 1.3c.1-.1.1.1.1.1zm3.1-1.3c0-1.2-.9-2.1-2.1-2.1h-5.4c-1.2 0-2.1.9-2.1 2.1v2.5c0 1.2 1 2.1 2.1 2.1h5.4c1.2 0 2.1-.9 2.1-2.1v-2.5z"/><path class="st50" d="M24.3 19.6l-2.4 1.2c-.1 0-.4 0-.4-.1v-2.4c0-.1.3-.2.4-.1l2.3 1.3c.1-.1.1 0 .1.1zm3.1-1.3c0-1.2-.9-2.1-2.1-2.1h-5.5c-1.2 0-2.1 1-2.1 2.1v2.5c0 1.2.9 2.1 2.1 2.1h5.4c1.2 0 2.1-.9 2.1-2.1l.1-2.5z"/><path class="st51" d="M24.2 19.6l-2.4 1.2c-.1 0-.4 0-.4-.1v-2.5c0-.1.3-.2.4-.1l2.3 1.3c.1 0 .2.1.1.2zm3.2-1.3c0-1.2-.9-2.1-2.1-2.2h-5.5c-1.2 0-2.1.9-2.1 2.1v2.6c0 1.2.9 2.1 2.1 2.1h5.4c1.2 0 2.1-.9 2.1-2.1v-2.5z"/><path class="st52" d="M24.1 19.5l-2.4 1.2c-.1 0-.4 0-.4-.1v-2.5c0-.1.3-.2.4-.1l2.3 1.3c.1 0 .3.2.1.2zm3.2-1.3c0-1.2-.9-2.1-2.1-2.1h-5.5c-1.2 0-2.1 1-2.1 2.1v2.5c0 1.2.9 2.1 2.1 2.1h5.5c1.2 0 2.1-.9 2.1-2.1v-2.5z"/><path class="st53" d="M24.1 19.5l-2.4 1.2c-.1 0-.4 0-.4-.1v-2.5c0-.1.3-.2.4-.1l2.3 1.3c.1 0 .2.1.1.2zm3.2-1.4c0-1.2-.9-2.1-2.1-2.1h-5.4c-1.2 0-2.1.9-2.1 2.1v2.5c0 1.2.9 2.1 2.1 2.1h5.4c1.2 0 2.1-.9 2.1-2.1v-2.5z"/><path class="st54" d="M24.1 19.4l-2.4 1.2c-.1 0-.4 0-.4-.1V18c0-.1.3-.2.4-.1l2.3 1.3c.1.1.2.2.1.2zm3.2-1.3c0-1.2-.9-2.1-2.1-2.1h-5.4c-1.2 0-2.1.9-2.1 2.1v2.5c0 1.2.9 2.1 2.1 2.1h5.4c1.2 0 2.1-.9 2.1-2.1v-2.5z"/><path class="st55" d="M24 19.4l-2.4 1.2c-.1 0-.4 0-.4-.1V18c0-.1.3-.2.4-.1l2.3 1.3c.1.1.2.2.1.2zm3.3-1.3c0-1.2-.9-2.1-2.1-2.1h-5.4c-1.2 0-2.1.9-2.1 2.1v2.5c0 1.2.9 2.1 2.1 2.1h5.4c1.2 0 2.1-.9 2.1-2.1v-2.5z"/><path class="st56" d="M24 19.4l-2.4 1.2c-.1 0-.4 0-.4-.1V18c0-.1.3-.2.4-.1l2.3 1.3c.1 0 .2.1.1.2zm3.2-1.4c0-1.2-.9-2.1-2.1-2.1h-5.4c-1.2 0-2.1.9-2.1 2.1v2.5c0 1.2 1 2.1 2.1 2.1h5.4c1.2 0 2.1-.9 2.1-2.1V18z"/><path class="st57" d="M24 19.3l-2.4 1.2c-.1.1-.4 0-.4-.1V18c0-.1.3-.2.4-.1l2.3 1.3c.1-.1.2.1.1.1zm3.1-1.3c0-1.2-.9-2.1-2.1-2.1h-5.4c-1.2 0-2.1.9-2.1 2.1v2.5c0 1.2.9 2.1 2.1 2.1H25c1.2 0 2.1-.9 2.1-2.1V18z"/><path class="st58" d="M23.9 19.3l-2.4 1.2c-.1 0-.4 0-.4-.1v-2.5c0-.1.3-.2.4-.1l2.3 1.3c.1 0 .2.2.1.2zm3.2-1.3c0-1.2-.9-2.1-2.1-2.1h-5.4c-1.2 0-2.1.9-2.1 2.1v2.5c0 1.2.9 2.1 2.1 2.1H25c1.2 0 2.1-.9 2.1-2.1V18z"/><path class="st59" d="M23.9 19.3l-2.4 1.2c-.1 0-.4 0-.4-.1v-2.5c0-.1.3-.2.4-.1l2.3 1.3c.1 0 .2.2.1.2zm3.2-1.4c0-1.2-.9-2.1-2.1-2.1h-5.4c-1.2 0-2.1 1-2.1 2.1v2.5c0 1.2.9 2.1 2.1 2.1H25c1.2 0 2.1-.9 2.1-2.1v-2.5z"/><path class="st60" d="M23.8 19.3l-2.4 1.2c-.1 0-.4 0-.4-.1v-2.5c0-.1.3-.2.4-.1l2.3 1.3c.1-.1.2.1.1.2zm3.2-1.4c0-1.2-.9-2.1-2.1-2.1h-5.4c-1.2 0-2.1.9-2.1 2.1v2.5c0 1.2.9 2.1 2.1 2.1h5.4c1.2 0 2.1-.9 2.1-2.1v-2.5z"/><path class="st61" d="M23.8 19.2l-2.4 1.2c-.1 0-.4 0-.4-.1v-2.5c0-.1.3-.2.4-.1l2.3 1.3c.1 0 .2.1.1.2zm3.2-1.4c0-1.2-.9-2.1-2.1-2.1h-5.4c-1.2 0-2.1.9-2.1 2.1v2.5c0 1.2.9 2.1 2.1 2.1h5.4c1.2 0 2.1-.9 2.1-2.1v-2.5z"/><path class="st62" d="M23.8 19.2l-2.4 1.2c-.1 0-.4 0-.4-.1v-2.5c0-.1.3-.2.4-.1l2.3 1.3c.1 0 .2.1.1.2zm3.2-1.4c0-1.2-.9-2.1-2.1-2.1h-5.4c-1.2 0-2.1 1-2.1 2.1v2.5c0 1.2.9 2.1 2.1 2.1h5.4c1.2 0 2.1-.9 2.1-2.1v-2.5z"/><path class="st63" d="M23.7 19.1l-2.4 1.2c-.1 0-.4 0-.4-.1v-2.5c0-.1.3-.2.4-.1l2.3 1.3c.1 0 .2.2.1.2zm3.2-1.3c0-1.2-.9-2.1-2.1-2.1h-5.4c-1.2 0-2.1.9-2.1 2.1v2.5c0 1.2 1 2.1 2.1 2.1h5.4c1.2 0 2.1-.9 2.1-2.1v-2.5z"/><path class="st64" d="M23.7 19.1l-2.5 1.2c-.1.1-.4 0-.4-.1v-2.4c0-.1.3-.2.4-.1l2.3 1.3c.2-.1.3 0 .2.1zm3.2-1.4c0-1.2-.9-2.1-2.1-2.1h-5.4c-1.2 0-2.1.9-2.1 2.1v2.5c0 1.2.9 2.1 2.1 2.1h5.4c1.2 0 2.1-.9 2.1-2.1v-2.5z"/><path class="st65" d="M23.7 19.1l-2.4 1.2c-.1 0-.4 0-.4-.1v-2.5c0-.1.3-.2.4-.1l2.3 1.3c.1 0 .2.1.1.2zm3.1-1.4c0-1.2-.9-2.1-2.1-2.1h-5.4c-1.2 0-2.1 1-2.1 2.1v2.6c0 1.2.9 2.1 2.1 2.1h5.4c1.2 0 2.1-1 2.1-2.1v-2.6z"/><path class="st66" d="M23.6 19l-2.4 1.2c-.1 0-.4 0-.4-.1v-2.5c0-.1.3-.2.4-.1l2.3 1.3c.1 0 .2.2.1.2zm3.2-1.3c0-1.2-.9-2.1-2.1-2.1h-5.4c-1.2 0-2.1.9-2.1 2.1v2.5c0 1.2 1 2.1 2.1 2.1h5.4c1.2 0 2.1-.9 2.1-2.1v-2.5z"/><path class="st67" d="M23.6 19l-2.4 1.2c-.1 0-.4 0-.4-.1v-2.5c0-.1.3-.2.4-.1l2.3 1.3c.1 0 .2.1.1.2zm3.2-1.4c0-1.2-.9-2.1-2.1-2.1h-5.4c-1.2 0-2.1.9-2.1 2.1v2.5c0 1.2.9 2.1 2.1 2.1h5.4c1.2 0 2.1-.9 2.1-2.1v-2.5z"/><path class="st68" d="M23.6 18.9l-2.4 1.2c-.1 0-.4 0-.4-.1v-2.5c0-.1.3-.2.4-.1l2.3 1.3c.1.1.2.2.1.2zm3.1-1.3c0-1.2-.9-2.1-2.1-2.1h-5.4c-1.2 0-2.1.9-2.1 2.1v2.5c0 1.2.9 2.1 2.1 2.2h5.5c1.2 0 2.1-.9 2.1-2.1l-.1-2.6z"/><path class="st69" d="M23.5 18.9l-2.4 1.2c-.1 0-.4 0-.4-.1v-2.5c0-.1.3-.2.4-.1l2.3 1.3c.1 0 .2.2.1.2zm3.2-1.4c0-1.2-.9-2.1-2.1-2.1h-5.4c-1.2 0-2.1 1-2.1 2.1V20c0 1.2.9 2.1 2.1 2.1h5.4c1.2 0 2.1-.9 2.1-2.1v-2.5z"/><path class="st70" d="M23.5 18.9l-2.4 1.2c-.1 0-.4 0-.4-.1v-2.5c0-.1.3-.2.4-.1l2.3 1.3c.1 0 .2.1.1.2zm3.2-1.4c0-1.2-.9-2.1-2.1-2.1h-5.4c-1.2 0-2.1.9-2.1 2.1V20c0 1.2.9 2.1 2.1 2.1h5.4c1.2 0 2.1-.9 2.1-2.1v-2.5z"/><path class="st71" d="M23.5 18.8L21 20c-.1 0-.4 0-.4-.1v-2.5c0-.1.3-.2.4-.1l2.3 1.3c.1 0 .3.2.2.2zm3.1-1.3c0-1.2-.9-2.1-2.1-2.1h-5.4c-1.2 0-2.1.9-2.1 2.1V20c0 1.2.9 2.1 2.1 2.1h5.4c1.2 0 2.1-.9 2.1-2.1v-2.5z"/><path class="st72" d="M23.4 18.8L21 20c-.1 0-.4 0-.4-.1v-2.5c0-.1.3-.2.4-.1l2.3 1.3c.1 0 .2.2.1.2zm3.2-1.4c0-1.2-.9-2.1-2.1-2.1h-5.4c-1.2 0-2.1.9-2.1 2.1v2.5c0 1.2.9 2.1 2.1 2.1h5.4c1.2 0 2.1-.9 2.1-2.1v-2.5z"/><path class="st73" d="M23.4 18.8L21 20c-.1.1-.4 0-.4-.1v-2.5c0-.1.3-.2.4-.1l2.3 1.3c.1 0 .2.1.1.2zm3.2-1.4c0-1.2-.9-2.1-2.1-2.1H19c-1.2 0-2.1.9-2.1 2.1v2.5c0 1.2 1 2.1 2.1 2.1h5.4c1.2 0 2.1-.9 2.1-2.1v-2.5z"/><path class="st74" d="M23.3 18.7l-2.4 1.2c-.1 0-.4 0-.4-.1v-2.5c0-.1.3-.2.4-.1l2.3 1.3c.1 0 .2.2.1.2zm3.2-1.3c0-1.2-1-2.1-2.1-2.1H19c-1.2 0-2.1.9-2.1 2.1v2.5c0 1.2.9 2.1 2.1 2.1h5.4c1.2 0 2.1-.9 2.1-2.1v-2.5z"/><path class="st75" d="M23.3 18.7l-2.4 1.2c-.1 0-.4 0-.4-.1v-2.5c0-.1.3-.2.4-.1l2.4 1.3s.1.1 0 .2zm3.2-1.4c0-1.1-1-2.1-2.1-2.1H19c-1.2 0-2.1.9-2.1 2.1v2.5c0 1.1 1 2.1 2.1 2.1h5.4c1.2 0 2.1-.9 2.1-2.1v-2.5z"/><path class="st76" d="M23.3 18.7l-2.4 1.2c-.1 0-.4 0-.4-.1v-2.5c0-.1.3-.2.4-.1l2.3 1.3c.1 0 .2.1.1.2zm3.1-1.4c0-1.2-.9-2.1-2.1-2.1h-5.4c-1.2 0-2.1 1-2.1 2.1v2.5c0 1.2.9 2.1 2.1 2.1h5.4c1.2 0 2.1-.9 2.1-2.1v-2.5z"/><path class="st77" d="M23.3 18.6l-2.4 1.2c-.1 0-.4 0-.4-.1v-2.5c0-.1.3-.2.4-.1l2.3 1.3c.1 0 .1.2.1.2zm3.1-1.3c0-1.2-.9-2.1-2.1-2.1h-5.5c-1.2 0-2.1 1-2.1 2.1v2.5c0 1.2.9 2.1 2.1 2.1h5.4c1.2 0 2.1-.9 2.1-2.1l.1-2.5z"/><path class="st78" d="M23.3 18.6l-2.4 1.2c-.1 0-.4 0-.4-.1v-2.4c0-.1.3-.2.4-.1l2.3 1.3c0-.1.1 0 .1.1zm3.1-1.3c0-1.2-.9-2.1-2.1-2.2h-5.5c-1.2 0-2.1.9-2.1 2.1v2.6c0 1.2.9 2.1 2.1 2.1h5.4c1.2 0 2.1-.9 2.1-2.1v-2.5z"/><path class="st79" d="M23.2 18.6l-2.4 1.2c-.1 0-.4 0-.4-.1v-2.5c0-.1.3-.2.4-.1l2.3 1.3c.1 0 .2.1.1.2zm3.1-1.4c0-1.2-.9-2.1-2.1-2.1h-5.5c-1.2 0-2.1 1-2.1 2.1v2.5c0 1.2.9 2.1 2.1 2.1h5.5c1.2 0 2.1-.9 2.1-2.1v-2.5z"/><path class="st80" d="M23.1 18.5l-2.4 1.2c-.1 0-.4 0-.4-.1v-2.5c0-.1.3-.2.4-.1l2.3 1.3c.1 0 .3.2.1.2zm3.2-1.4c0-1.2-.9-2.1-2.1-2.1h-5.4c-1.2 0-2.1.9-2.1 2.1v2.5c0 1.2 1 2.1 2.1 2.1h5.4c1.2 0 2.1-.9 2.1-2.1v-2.5z"/><path class="st81" d="M23.1 18.5l-2.4 1.2c-.1 0-.4 0-.4-.1v-2.5c0-.1.3-.2.4-.1l2.3 1.3c.1 0 .2.1.1.2zm3.2-1.4c0-1.2-.9-2.1-2.1-2.1h-5.4c-1.2 0-2.1.9-2.1 2.1v2.5c0 1.2.9 2.1 2.1 2.1h5.4c1.2 0 2.1-.9 2.1-2.1v-2.5z"/><path class="st82" d="M23.1 18.4l-2.4 1.2c-.1.1-.4 0-.4-.1V17c0-.1.3-.2.4-.1l2.3 1.3c.1.1.2.2.1.2zm3.2-1.3c0-1.2-.9-2.1-2.1-2.1h-5.4c-1.2 0-2.1.9-2.1 2.1v2.5c0 1.2.9 2.1 2.1 2.1h5.4c1.2 0 2.1-.9 2.1-2.1v-2.5z"/></g><path class="st83" d="M26.3 17.1c0-1.2-.9-2.1-2.1-2.1h-5.5c-1.2 0-2.1.9-2.1 2.1v2.4c0 1.2.9 2.1 2.1 2.1h5.4c1.2 0 2.1-.9 2.1-2.1v-2.4zm-3 1.2l-2.4 1.2c-.1 0-.4 0-.4-.1v-2.5c0-.1.3-.2.4-.1l2.3 1.3c.1 0 .1.2.1.2z"/></svg>