<?xml version="1.0" standalone="no"?>
<!DOCTYPE svg PUBLIC "-//W3C//DTD SVG 1.1//EN" "http://www.w3.org/Graphics/SVG/1.1/DTD/svg11.dtd" >
<svg xmlns="http://www.w3.org/2000/svg" xmlns:xlink="http://www.w3.org/1999/xlink" version="1.1">
<metadata>
Created by FontForge 20190801 at Tue Oct  2 15:42:19 2018
 By www-data
woodcutter.es (c) woodcutter manero MMXVIII
</metadata>
<defs>
<font id="bad_signal_400webfont" horiz-adv-x="1014" >
  <font-face 
    font-family="bad_signal_400webfont"
    font-weight="400"
    font-stretch="normal"
    units-per-em="2048"
    panose-1="2 0 5 0 0 0 0 0 0 0"
    ascent="1638"
    descent="-410"
    x-height="1478"
    cap-height="1548"
    bbox="-50 -311474 7.58911e+06 1.1344e+07"
    underline-thickness="150"
    underline-position="-292"
    unicode-range="U+001D-F002"
  />
<missing-glyph horiz-adv-x="1024" 
d="M100 0v1434h824v-1434h-824zM150 50h724v1334h-724v-1334zM325 1148q31 28 58 43q53 30 112 30q92 0 148 -47.5t56 -127.5q0 -49 -23 -98.5t-87 -129.5q-63 -80 -99 -132t-36 -99q0 -38 24 -133h-32q-35 97 -35 148q0 76 81.5 218t81.5 217q0 57 -33 90t-91 33
q-38 0 -69 -17q-26 -15 -56 -40v45zM389 334l57 58q11 10 20 10q10 0 22 -11l56 -60q9 -11 9 -20q0 -11 -10 -22l-56 -62q-14 -14 -21 -14q-11 0 -20 10l-61 71q-7 9 -7 18q0 10 11 22z" />
    <glyph glyph-name=".notdef" horiz-adv-x="1024" 
d="M100 0v1434h824v-1434h-824zM150 50h724v1334h-724v-1334zM325 1148q31 28 58 43q53 30 112 30q92 0 148 -47.5t56 -127.5q0 -49 -23 -98.5t-87 -129.5q-63 -80 -99 -132t-36 -99q0 -38 24 -133h-32q-35 97 -35 148q0 76 81.5 218t81.5 217q0 57 -33 90t-91 33
q-38 0 -69 -17q-26 -15 -56 -40v45zM389 334l57 58q11 10 20 10q10 0 22 -11l56 -60q9 -11 9 -20q0 -11 -10 -22l-56 -62q-14 -14 -21 -14q-11 0 -20 10l-61 71q-7 9 -7 18q0 10 11 22z" />
    <glyph glyph-name=".null" horiz-adv-x="0" 
 />
    <glyph glyph-name=".null" horiz-adv-x="0" 
 />
    <glyph glyph-name="nonmarkingreturn" horiz-adv-x="508" 
 />
    <glyph glyph-name="space" unicode=" " horiz-adv-x="508" 
 />
    <glyph glyph-name="space" unicode="&#xa0;" horiz-adv-x="508" 
 />
    <glyph glyph-name="exclam" unicode="!" horiz-adv-x="467" 
d="M50 1548l40 -4h140q14 0 36 4q17 -8 64 -8h4l12 -8q-4 -22 -4 -32l4 -24q0 -44 -44 -44q-18 0 -24 -4q-8 4 -12 4l-20 -4q-16 4 -28 4l-20 -12q0 -24 100 -24q43 -4 48 -16l-4 -40v-64q0 -4 -4 -4q9 -32 32 -32q36 0 36 -12v-8q-60 -8 -60 -24q-4 -64 -12 -64q0 -4 4 -12
l-4 -56l4 -8q-4 -8 -4 -12q8 -26 8 -36v-44q0 -28 -8 -28l4 -8v-36q0 -59 -4 -160q-8 -1 -8 -8q-80 -4 -120 -4h-24q0 -2 -4 -16q0 -14 28 -20q4 0 12 4q3 0 24 -4l20 4q26 -4 52 -4h12q6 0 12 -12q-9 0 -24 -304h-4l4 -8q0 -6 -16 -12q-14 4 -16 4l-76 -12l-20 4h-52
q-17 0 -44 -4q-32 0 -32 96l-24 476q4 111 4 180q-4 103 -4 116l16 12h40q8 0 8 8t-8 8h-16q-9 0 -16 -4q-16 6 -24 20q4 140 4 192l-4 16q0 4 4 4l-8 68q20 13 20 16zM306 1124q6 0 16 -8l8 12q0 8 -8 8q-16 -6 -16 -12zM154 244h132q23 0 64 -4l8 4q76 -10 76 -20v-44
l4 -20q-10 -8 -12 -8h-20q-68 -8 -76 -8q-12 0 -28 4q-22 -4 -32 -4l-36 4q-34 0 -40 -28l12 -8h92q19 0 40 -4q16 4 28 4q72 0 72 -20q0 -12 4 -28q-8 -13 -8 -24q0 -4 4 -12q0 -28 -92 -28h-20l-8 4l-8 -4q-17 0 -44 4q-56 -4 -108 -4q-9 1 -28 24l4 28q0 32 4 116
q-4 34 -4 52q6 17 20 24z" />
    <glyph glyph-name="quotedbl" unicode="&#x22;" horiz-adv-x="672" 
 />
    <glyph glyph-name="numbersign" unicode="#" horiz-adv-x="1336" 
d="M0 1814q3 5382 4.5 7302.5t2.5 4618.5t47.5 5645t46.5 5646t1 5397t2 7189.5t11 6677.5t47.5 3093t37.5 4619.5t13 4619.5t26 4619.5t26.5 6276t61.5 3335t48 3343t13.5 5262.5t27 3604.5t24 1703t24 920.5t51.5 3843.5t51.5 6558t51 2998.5t125.5 2868t97.5 9268
t49.5 10265.5t84 4484t76 1557t174 10548.5l33 1571l31 8743l2 1579v290l1 9990v8999l131 1571v8743l1 13885l2 308l1 10019l131 8743l30 13607l1 14131l10 13877l5 4404l12 14118l5 15617l10 13367l12 13620l126 14132v8994l9 15617l12 13367l32 5942l12 15617l9 13347
l32 1571l126 9767v13620l32 13095l29 13607l12 13829l32 5427l29 13620l124 5895l19 5398l1 13111l18 13620l6 1301l20 5143l23 14131l18 12855l112 9771l22 290l21 1302l2 13111l20 13603l23 1537l6 5171l20 12855l23 13620l124 10018v5377l24 5691l17 310l13 13574
l23 1301l24 13109l112 1813v13106l13 14118l14 1301l26 13875l13 13614l110 288v1032l14 6322l16 16997l26 10016l14 1040l110 1040v2142l15 11828l25 2311l26 18463l26 11559l15 13608l112 1813l11 7174l1 1544l5 1030v5636l12 6917l9 14348l5 14348l12 1032l104 15364
v23564l29 19516l6 6152l16 9228l29 16388l87 1028v1817l4 2076q2055 3084 2057 5395l6 6403l18 14364l4 9742l6 11555l103 7208v20488l17 14344l28 4909l1 1028l16 1030l25 11788l17 1028l16 1028l104 1032v2060l23 2104v2311l25 22539l15 3352l23 9989l25 19480l102 263
v14340l3 2052l3 19470l2 9838l93 -14834v-2v3586l2 5148l2 21317l20 2070l75 8712v1044l26 7188l26 2578l27 2060l96 17414v2564l27 4132l27 3076l21 1088l27 1060l76 8216l27 6160l75 5134l176 530l21 2564l80 1028l88 3842l64 -21240l143 8196l33 263l31 1277l2 -30708
v7284l1 1542v1558l131 31750v718l1 263l2 1028l1 2301l131 20496l30 6698l1 5184l10 612l5 1287l12 2060l5 6142l10 4868l12 21512l126 1546v3330l9 4360l12 1030l32 3076l12 1048l9 8770l32 8718l126 2073v9986l32 2572l29 1028l12 4140l32 3077l29 2828l124 4108l19 4103
l1 2320l18 1035l6 3341l20 1804l23 16416l18 2821l112 2574l22 -480l21 3606l2 7017l20 1035l23 1288l6 18450l20 1560l23 2829l124 1542v1028l24 3080l17 3861l13 7178l17 3592l24 612l13 2311l126 1801v10244l13 1801l14 7240l26 1032l13 3095l110 1290v2564l14 1028
l16 3081l26 2832l14 2825l110 6167v10504l15 2052l25 1797l26 4112l26 5929l15 2052l112 4108l11 2076l1 -336zM10050 1.60682e+06v7188l12 1064l9 263l5 1034l12 1545l104 13084v4104l29 7941l6 2050l16 2568l29 2052l87 1040v3084l4 13396l8 1028l7 1028l2 1028l6 1028
l18 3116l4 14464l6 5379l103 4132v10252l17 1044l28 360l1 17994l16 3427l25 9230l17 3600l16 4885l104 13324v2054l23 4612v1542l25 2076l15 1031l23 4448l25 1032l102 23600v3176l3 3076l3 2124l2 2056l93 2056v2056l2 -21500l-1 388.5t-11 906.5t-47.5 2610t-37.5 3120
t-13 2052.5t-26 865t-26.5 1380.5t-61.5 3591t-48 3343t-13.5 1102t-27 2386.5t-24 8089t-24 8976.5t-51.5 5568t-51.5 5184t-51 4200t-125.5 2146t-101 1538t-53 512t-84 511.5t-76 -5888.5t-104 -2558.5t-88.5 5636.5t-32 7171t-16.5 -8832t-1 -17664t-0.5 -6014
t-0.5 11938t-65.5 26921.5t-65.5 12682.5t-0.5 513t-1.5 -14323t-1.5 -14321.5t-66 584t-80.5 4935.5t-15.5 5122.5t-5.5 -14265t-7.5 -30245t-8.5 -14952t-8.5 1093t-7.5 6467.5t-11 7939.5t-69 -14205t-63 -14332.5t-4.5 10115.5t-10.5 9220t-22 9732t-22 10500.5
t-10.5 17066.5t-20.5 25035t-79 10281.5t-63 1716.5t-16 12080.5t-30.5 12294t-20.5 16317t-22 28651.5t-30.5 14265.5t-76.5 1983t-71.5 1601.5t-10 1786.5t-9.5 -2235.5t-12 -16608.5t-13 -12074t-13 2942.5t-12 -407.5t-19 -7328.5t-73 -14653.5t-74 -21030t-21.5 -8307
t-11.5 -7542.5t-11 -7797t-21.5 -3212.5t-14.5 -12853t-13 -15038.5t-21.5 -16285t-73.5 -5875t-62 4654.5t-12 11773t-20.5 10880t1684.5 -242694zM8335.5 1.85691e+06q-8.5 -16384 -8.5 -16128v642v698v313.5t8.5 15430t0 -955.5zM8327 1.8439e+06v441.5v522.5t0 -441.5
t0 -522.5zM8327 1.86178e+06v16387v2059v14088v14855.5v1290.5v14595v14983.5v1929.5v1978v959v1035.5v2059.5v2246v2879.5v3206v3723v3726v17684v16276v2450v4544.5v2240v2702.5v5008v18186.5v18569.5v4116v3912.5v2498v8.5v1288.5v2488v1209v10.5v1546.5v2999.5v1460.5
v514v12544.5v14849.5t0 -125313t0 -113794zM8327 2.1063e+06v2605v1927.5v13824.5v14721.5v2817v-19246.5t0 -16649zM8327 2.1474e+06v2451.5v14474v14602v5268v12439.5v19429.5t3078.5 9680.5t19206.5 -47.5t17799 -84t5005.5 -76t17414.5 -97t15880 -65l5135 -1l17415 -1
l16012.5 -1.5t5273.5 -3.5t5317 -3t3384.5 -57t2048.5 -56l2180.5 -1.5t2186.5 -3.5t-68345.5 -38929.5t-68991.5 -38918zM176649 2.22524e+06q3715 -1.5 5777.5 -56.5t13198.5 -55t-5777.5 56.5t-13198.5 55zM208690 2.22512e+06q897 -2 1674 -10t1292 -12t13699 -6.5
t15374 -58.5t2326 -56t3344.5 -8t5308.5 -11t-20907.5 80.5t-22110.5 81.5zM253844 2.22495e+06q12.5 -8 1944 -11t5182.5 -65t3252.5 -62t386.5 -3t478 -18v-4l2 -6q532 28160 19732 29967q6682 2052 6655 3956q24576 14 31515 2071q-21 2062 6967 4492l-27 3329
q75 -12 163 -17.5t69 2176t-59 3726t-84 17684t-76 16276t-102.5 2446t-87 4494.5t3952.5 2123t3969.5 -62t66 -9t66 -19.5t257 -16t-15728.5 -14.5t-15852 -19.5t-26260.5 -46208t-26381 -46205.5zM306607 2.35179e+06q-6 2697.5 -8.5 4116t-7.5 3912.5t-11 2498t-69 8.5
t19.5 -6614t76.5 -3921zM306444 2.3661e+06q-4.5 1204 -10.5 1209t-22 10.5t-22 1546.5t26.5 -1214.5t28 -1551.5zM306358 2.37333e+06q-16 2 -79 514t-63 12544.5t-16 14849.5t-30.5 2817t-20.5 2597.5t-22 2605t-30.5 1927.5t-76.5 13824.5t-71.5 14721.5t-10 2817
t-9.5 2597.5t-12 2607t-13 2451.5t-13 14474t-12 14602t-19 5268t-73 12439.5t-74 19429.5t-21.5 11904t-11.5 13512t-11 -4576t-21.5 -15616t-14.5 640t-13 641.5t-21.5 16385.5t-73.5 16514t-62 387.5t-12 14081.5t-20.5 14722t-15 2694t-15 2748t-20.5 704t-18.5 778
t-69.5 2821t-63 17923t-6.5 16647.5t-13.5 1290.5t-20 14595t-19.5 14983.5t-61.5 1935t-55 1931.5t-7 17028t-15 17924t-21 2952t-20 2952.5t-62 17931t-55 16268.5t-7.5 1550.5t-20 2830.5t-25.5 3653t-26 5183.5t-20.5 5129.5t-63.5 3601.5t-61.5 3782.5t-6 2375
t-3 2702.5t-2.5 5008t-6 18186.5t-10.5 18569.5t-7 4116t-8.5 3912.5t-58 2498t-52 8.5t-14.5 1288.5t-17.5 2488t-11 1209t-22.5 10.5t-58 1546.5t-43.5 2999.5t-2 1460.5t-6 514t-7.5 12544.5t-4.5 14849.5t-4 2817t-12 2597.5t-11 2605t-5 1927.5t-54.5 13824.5
t-51.5 14721.5t-8.5 2817t-22.5 2597.5t-14.5 2607t-8.5 2451.5t-20.5 14474t-21 14602t-16.5 5268t-60 12439.5t-52 19429.5t-11.5 12928t-11.5 14536t-12.5 -4448t-20 -15488t-19 640t-24 641.5t-63.5 16385.5t-51 16514t-13 387.5t-13 14081.5t-13.5 14722t-26.5 2692
t3493 2698t3509 32904l770 4102l23808 1040l514 1660l5123 6l19483 3844l19376 1646l11856 7l22592 3848l-29151 3847l7938 2174l1 14l131 2057q1 0 -1 2062l387 2430l7681 3329l2565 3083l3077 4363l2572 3089l32256 32279l2316 273l8204 4619l2336 4370l32256 31744
l8221 4629l3104 2834l7548 5500l4865 21l4614 4875l5126 5395l4628 31744l32278 2048l5378 2314l5143 2057l1556 26624l6012 2560l24 2828l4365 2571l4376 25856l3454 1028l13 94l3601 278l3342 512l31744 20l3600 19200l6670 3855l28160 93l3865 278l6682 512l3952 20
l2817 19200l1280 4883l3081 5214l1292 20l26624 5141l7430 5196l4125 6987l22272 -20449l1032 20568l1794 16518l1554 2l1030 3l26368 2l4380 894l272 3l6417 1024l4200 878l23 5l25 1040l3863 1029l6502 4222l26 16l27 1540l6683 4102l25600 31744l771 1551l605 1030
l2 3964l532 7l844 3848l6976 3847l-28895 2174l7938 14l1 2057l131 2062l1 2430l513 3329l-31970 3083l266 4363l1292 3089l1290 32279l3198 273l9 4619l3104 4370l3081 31744l8318 4629l32 2834l7436 5500l8221 21l31763 4875l274 5395l1556 31744l1554 2048l5246 2314
l5653 2057l532 26624l5894 2560l5143 2828l31744 2571l6161 25856l3345 1028l6157 94l32256 278l3342 512l4365 20l3708 19200l14 3855l4113 93l3600 278l31744 512l3865 20l6682 19200l3952 4883l2817 5214l1280 20l3081 5141q-734960 -1.37793e+06 -734976 -1.37793e+06z
M1.04263e+06 3.75646e+06q26624 6987 30339 6987t3715 -176v-34v-80v-88v-64v-135v0v-2v0v-3v0v-2v-3q4125 0 4125 -126v0v-3v-4v0v-3v-4v-124v0v-5v-4v-16v-4v-5v-16v-126v0v-16v-6v-4v-16v-6v-124v0v-6v-15v-4v-6v-15v-124v0v-7v-15v-8v-15v-7v-8v-126v0v-14v-8v-9v-8v-14
v-9v-126v-13v-1v-12v-11v-17v-11v-12v-17v-126v-23v-1v-17v-18v-11v-17v-18v-124v0v-18v-21v-11v-18v-21v-124v0v-21v-19v-11v-21v-19v-124v0v-8v0v-9v-10v-8v-9v-104v0v-10v0v-11v-12v-10v-11v-101v0v-4v-4v0v-94v-1v-22v-2v0v0v-20v-75v0v-15v-15v0v-93v-1v-22v-2v0v0v-20
v-75v0v-19v-19v-20v-94v0v-20v-20l87 5396l4 19483q8 16516 4.5 16516l-3.5 -1t-38271 -44801zM1.0809e+06 3.80126e+06l6 768l9 -1t-15 -767zM1.08092e+06 3.80202e+06q-4 32256 -4 32254.5t6 -5.5q-103 0 -2 -32249zM1.08082e+06 3.83426e+06v126.5v522.5v1034.5v2625.5
t0 -1097v-3212zM1.08082e+06 3.84147e+06v2821v17923v16647.5v1290.5v2497v1985.5t0 -21965.5t0 -21199zM1.08082e+06 3.89041e+06v3010.5v1094v1035.5v2059.5t4380 1022l272 -126q-4652 -10019 -4652 -8095.5zM1.09189e+06 3.89849e+06l4200 -1l23 -12l25 -11l3863 -17
l6502 -11zM1.10653e+06 3.89843e+06l27 -17l6683 -126l25600 -23zM1.13961e+06 3.89826e+06l605 -17l2 -18l532 -11zM1.14159e+06 3.8982e+06l22873 -18l22873 -124h22873zM1.23309e+06 3.89804e+06l16707 -21v-11v-18v5510.5t-16707 -5460.5zM1.24979e+06 3.91108e+06
v18569.5v16386.5v516.5v10882.5v13697.5v2817v1923.5v1931v13191.5v14208v2181v2185.5v14340.5v14592v2694v2699.5v14213.5v15370v5011.5v13449.5v13321.5v5048.5v2617v2452v12470.5v21465v22873v22860.5v18538.5t0 -6965t0 -13972t0 -5292.5v-11708v-15824v-20835v-14700.5
v-6772v-19454.5t0 253v31732.5v29292.5v27238.5v25691v22733.5v19269.5v17216.5v15543.5v13359v11819.5v10532.5v8603v6292v3080.5t0 -13695.5v-28403.5t0 -13290v6419.5v12053v13477v9650.5v9522v9780v10523.5v13963v13461.5v13590v9230v7174v8982v8982.5v7181.5v5667.5
v9380v8988v5532v5518v3353v934.5v1051v4874.5v6666.5v7181v8195.5v6539v5390v6942v5168v934.5v1051.5v3876v9380v7200v934.5v1051v3853.5v5894.5v6659.5v6302v2742.5v3107.5v5532v5163v3368v920.5v3092v8458.5v9871v4504.5v3085.5t146 3733t436 746.5v-6l285 -43v-1l285 -34
l281 -39l280 -6l269 -35l267 -52l250 -39l247 -54l241 -53l239 -17l237 -54l235 -55q0 5683 114.5 12625.5t114.5 7096.5t114 4653.5t114 11181t110 13748t110 13742t109.5 7461t109.5 5157t104.5 11438t104.5 14125.5t103 12078t103 7462.5t101 8996.5t101 6564.5
t-99.5 -16t-99.5 -38.5t-98.5 -22.5t-98.5 -15t-98 -14t-98 -22t-96 -14.5t-96 -13.5t-95 -21.5t-95 -25.5t-92 -15t-92 -10.5t-90.5 -27.5t-90.5 -29t-89.5 -22t-89.5 -20.5t-88.5 -13.5t-88.5 4493.5t84.5 5403t84.5 3853t84 5645t84 5669.5t83 9524.5t83 9508
t82.5 9499.5t82.5 9371t81 9892t81 9896t80.5 2962t80.5 2717t80 3492t80 3853.5t-79 2961.5t-79 13.5l-157 -22v-29l-156 -1v-20l-116 -7v-35l-115 -6v-35l-108 -33v-34l-107 -39v-55l-100 -53v-52l-98 -35v-38l-89 -61v-1l-88 -52v-55l-76 -38v-53l-73 -54v-55l-70 -54
q0 15617 34.5 22292.5t34.5 13599t34 7830t34 3748t33.5 9907.5t33.5 12530t13.5 8539.5t13.5 4741.5t10.5 5252t10.5 14364t19.5 3100t19.5 -6615.5t11 4010.5t11 3209t10 11539t10 15760.5t8.5 5512.5t8.5 12330t17 11814t17 1578t3.5 6310t3.5 9218.5t13 11656.5
t34.5 14344t22 14350t12 9249.5t-39.5 1538.5l-22 -92l-29 -29l-1 -3l-7 -20l-35 -76l-6 -132l-29 -3l-1 -9l-20 -32l-23 -22l-55 -6l-51 -4l-50 -4l-23 -4l-54 -4l-51 -88l-22 -240l-21 -6l-6 -6l-43 -4l-1 -4l-34 -4l-7 -4l-21 -96l-20 -188l-23 -56l-51 -4l-50 -12
l-23 -80l-54 -28l-51 -24l-23 -21l-55 -19l-22 -24l-31 -26q-2574 -1.18745e+06 -2574 -1.18476e+06zM1.25237e+06 5.09581e+06l-55 -14l-51 -26l-50 -12l-21 -4l-6 -5l-15 -11l-1 -22l-20 -14l-23 -8l-55 -52l-51 -8l-50 -52l-23 -4l-6 -16l-7 -21l-35 -3l-7 -6l-23 -14
l-51 -4zM1.25176e+06 5.09551e+06l-51 -3l-21 -5l-22 -13l-29 -7l-1 -20zM1.25162e+06 5.09529e+06l-7 -32l-20 -44l-7 -8l-34 -18l-7 -2l-39 -12l-34 -4l-7 -8l-38 -12l-43 -4l-1 -4l-34 -12l-39 -36l-52 -8l-55 -8l-51 -4l-23 -4l-55 -52l-39 -20l-52 -12z
M1.25092e+06 5.09498e+06l-38 -13l-61 -47l-1 -21l-38 -1zM1.25073e+06 5.09489e+06l-1 -40l-52 -8l-55 -24l-22 -8l-51 -4l-54 -4l-53 -4l-52 -4l-35 -8l-34 -12l-47 -12l-1 -4l-34 -90l-7 -6l-21 -253l-22 -176l-59 -17l-1 -11l-50 -4l-23 -28l-20 -68l-7 -4z
M1.25e+06 5.09409e+06l-23 -11l-20 13576l-15 1044zM1.25022e+06 5.10851e+06q5909 1025 8472.5 1021.5t5391 -7.5t3603 -7t913.5 -24t3085 -23l6659.5 -4l6276 -4l5394 -4l2968.5 -4l4629.5 -4t9887.5 -6q5894 -4 9606.5 -6t6276 -7t5394 -8t2968.5 -19t2058.5 -18
l4618.5 -4t9237 -8t14091.5 -10t10398 -7t3000.5 -6t6958 -17t13614 -16t13350 -22t9254 -48t9781.5 -29t12085.5 -6t12084.5 -7t13477 -12t13353 -22t7094.5 -14t3124 -8t9510 -8t9237 -22t7195 -26.5t5412 -12t5398 -7.5l8980 -4.5t9492 -10t9494 -13t8982.5 -10
t7182.5 -6.5l10251.5 -4t13967 -8t6552.5 -12t1045 -8t3605 -16t3597 -32t1820 -28t3868 -12t5646 -6t5653.5 -14t5518 -22t7060.5 -25t9492 -26t8707.5 -21t6682 -16t9381 -14t7197 -10t5157 -6l9255 -4t9767 -29t9769 -40t5030.5 -25t7953.5 -23.5t-476964 -118.5z
M1.75208e+06 5.10856e+06q7051.5 -14 13604.5 -26t13612 -14t14867.5 -12.5t14490 -40t11682 -33.5t-35153.5 68t-33102.5 58zM1.84513e+06 5.10843e+06l11317 -4l9778 -4l5042 -4t6842 -5t6841.5 -6t4653.5 -40t11183 -54t13597 -17.5t9612.5 -54.5t5670 -69t10523.5 -16
l13983 -3t6584.5 -7t5658.5 -6t9883 -39t5156 -52t3619 -20t9779 -22t13747.5 -20t11805 -20t5198 -21t3307 -6t-11730 -3t-998 -10t17440 -18t16924.5 -80t15248.5 -82t3494 -14.5t3235.5 -34t-2935.5 -35.5t-3831 -130t16141 -126l18186 -2l5157 -4l4906.5 -4t5012.5 -6
t3478 -8t4621 -14t9479 -14t8974 -16t4109 -18.5t2311 1403.5t1284 1390v-4v-4v-8v-12v-6v-6q0 7171 0 7150v-8v-4v-19v-17v-4v-36v-4v-1v-7v-4v-1v-7v-52v-24v-4v-28v-16v-28v-1v-7v-4v-15v-13v-4v-6v-6v-8v-16v-20v-168v-60v-4v-12v-24v-9v-7v-32v-4v-12v-4v-10v-2v-4v-40
v-80v-13v-181v-8v-8v-8v-12v-6v0v0v0v-5v-255v-206v0v0v-2v-218v-6v-12v0v-112v0v-117v0v-179v0v-189v0v-196v-4v-101v-64v-88v-110v-109v-5v-4v-4v-1v0v-9v-1q3100 513 3614 507t1034 123.5t2572 397t8722 397.5t11047 566t12573.5 3893t9106 5123t3111.5 14594.5
t4893.5 13575t2679.5 12981t-16 12289.5t10 11239t1552 11264.5t1536 -37t-6 -10.5q16404 3077 16404 32856v-103t0 5739.5v7560.5v15105v2311v19781v523v2482v-20305v-32131v31867v1807v3758v276v4011v-30974v4627v-23924v533v4286q0 -24419 2823 -24419t2831 -155
q10282 1041 10282 6432v19019v-20470v20568v16496v1v2v769v28672v515q-405483 -170142 -399056 -170144zM2.24418e+06 5.27858e+06v28160v3332v1292v3440v5l26 -12v773v28160v3854v5134v3860v32256v5139v3604v4988v19v4622v4974v18v4113v4718v16v5390v4206v21v4369v5486v4v6
v1796v1639v2049v1802v265v2823v2405v12v11v3596v2918v3v768v24064v0v5195v14v3601v23808v4369v5393v19483v19376v2896v22592v28928v256v515v368v2v768v622v13v1029v3085v28672v1292v773v28160v3854v5134v3860v32256v5139v3604v4988v19v4622v4974v18v4110v4624v31744v4117
v3600v28160v5393v4373v28160v1024v1543v1030v26376v263v2561v2315v1801v25856v3072v2830v3083v26112v771v94v0v20v19200v3598v4445v17q15379 4373 15338 8801l-1 6987q-7 -20466 -7 -20546q-36 22592 -39 37184t-3 14591.5l-6 1.5q8 769 10 15105t30 14593.5t36 258.5
t14.5 14081t32 15746t27.5 2312t4 2366t4 1722.5t6.5 1540t32 2232.5t29.5 702.5t4 1809.5t4 3601.5t4 4422.5t4 2633t4 2449t4 5008.5t4 18441.5t4 18313t4 4242.5t4 15881.5t30 16392t30 4113t18 3911t37 2118t26 2703t37 6812l23 31744l45 5393l4 4373l60 28160l80 1024
l12 1543l28 1030l12 26376l25 263l3 2561l4 2315l6 1801l14 25856l32 3072l33 2830l19 3083l25 26112l31 771l36 94h34l38 20l8 19200l4 3598l20 4445l36 17l28 4373l16 4428l14 6987l2 -20463l47 20568l21 16500l3 1l21 2l8 769l4 28672l27 515l17 2l8 28160l1 3332l7 1292
l108 3440l136 5l8 3075l8 1390l60 15l4 3604l32 3599l22 5246l2 20l4 4878l23 5139l73 31744l84 4882l84 3603l9 4732l7 18l16 4110l20 4624l132 31744l22 4117l6 3600l85 5500l255 21l231 4366l53 5393l71 31744l17 1024l24 1543l8 1030l7 26376l9 263l12 2561l76 2315
l8 1801l6 25856l10 3072l28 2830l8 3083l8 26112l8 771l4 94h4l4 20l24 19200l40 3598l4 4445l11 17l45 4373l4 4428l64 6987l8 -20462l48 20568l12 16501l36 1l94 2l6 769q530 28672 571 29187l23 2l20 28160l8 3332l8 1284l84 3333l4 32256l16 1292l64 773l1 28160l7 3854
l8 5134l4 3860l12 32256l8 5139l6 3604l88 4988l4 19l13 4622l15 4882l4 31744l4 4624l2 3602l10 4220zM2.26397e+06 7.08612e+06l4 5390l16 4117l4 31744v-21l8 4366l4 5393l15 31744l37 1024l8 1543l12 1030l4 26376l6 263l6 2561l4 2315l4 1801l12 25856l4 3072l11 2830
l77 3083l36 26112l4 771l48 94h7l13 20l12 19200l7 3598l13 4445l4 17l16 4373l25 4428l3 6987l8 -20457l24 20568l16 16502l12 1l28 2l4 769l8 28672l12 515l4 2l7 892l17 13l8 1029l4 1037l4 1406l4 5l16 3075l6 1390l18 15l4 3604l20 3599l20 5246l4 20l8 4878l22 5139
l14 31744l24 4882l4 3603l16 4732l4 18l22 4110l6 4624l4 31744l10 4117l6 3600l28 5500l56 21l12 4366l44 5393l4 31744l8 1024l12 1543l2 1030l10 26376l9 263l7 2561l21 2315l3 1801l20 25856l13 3072l7 2830l20 3083l9 26112l7 771l3 94h65l8 20l12 19200l8 3598
l13 4445l7 17l44 4373l32 4428l28 6987zM2.26531e+06 7.65012e+06l7 20568l7 16503l9 1l4 2l16 1l28 638l180 2l16 768l16 515l15 31744l17 3332l116 1284l19 3333l21 32256l15 1292l21 773l24 28160l11 3854l5 5134l8 3860l8 32256l68 5139l12 3604l44 4988l15 19l25 4622
l5 4882l19 31744l88 4624l4 3602l4 4220l8 16l12 5390l152 4117l24 31744l17 5393l7 3605l4 4476l4 4l12 6l4 1796l24 1639l4 2049l52 1802l8 265zM2.26649e+06 7.96896e+06l4 2405l4 12l4 11l4 3596l12 2918l12 3l8 768l20 24064h8l4 5195l28 14l13 3601l11 23808l11 4369
l5 5393l15 19483l-17 16504l-32 1l-8 2l-4 1l-11 638l-13 2l-4 768l-9 515l-11 31744l-4 3332l-6 1284l-6 3333l-16 32256l-4 1292l-16 1029l-208 3196l-64 15l-59 3604l-45 3599l-43 5246l-41 20l-28 4878l-16 5139l-48 31744l-28 4882l-16 3603l-4 4732l-24 18l-41 4110
l-23 4624l-44 31744l-16 4117l-28 3600l-1 5500l-156 21l-104 4366l-20 5393l-74 31744l-18 1024l-7 1543l-5 1030l-8 26376l-12 263l-17 2561l-3 2315l-16 1801l-32 25856l-16 3072l-32 2830l-80 3083l-168 26112l-254 771l-84 94h-8l-8 20l-8 19200l-4 3598l-8 4445
l-12 17l-8 4373zM2.26455e+06 8.45801e+06l-6 22873l-252 22873l-206 22873l-20 22848l-4 9924l-12 -15939l-6 -17480l-6 -19032l-1 -22631v-26742v-30337v32376l-10 30307l-255 25174l-206 21580v18755v16189l-3 15377l-122 13594l-6 12834v15678v5403.5v6553v6182v8864
v6554v2720v2713v2829.5v5669.5v9524.5v9508v5653v7194.5v8852v6941v8996v7196v7572.5v10499.5v6284v5157v3492v3860.5v7437v8195.5v4619.5v8459.5v13980v9258v2961.5v3843.5v6284v3485v5269v8852.5v9506v8721.5v6294v2712.5v5635.5v9876v11181.5v11829v12827.5v14750v7081
v7205.5v12085v12827.5v14488v6834v6836v13093v13354v7096.5v5165v12819.5v14867.5v12051.5v7706v9500.5v7196.5v6820t3072 6404.5l-3328 -7l-2047 -23l1 -21l3073 -6l4865 -43l7425 -1l9217 -34l10241 -53l11777 -6l13058 -21l-13503 -22l27904 -29l-256 -1l-768 -20
l-3840 -23l3072 -51l1024 -22l768 -23v-6l-5120 -35l7680 -23l5632 -7l4096 -22l1024 -29l256 -1l768 -20l9216 -7l256 -35l2560 -6l512 -43l-7424 -1l-7680 -34l28672 -39l38 -52v-55l4 -38q5 15617 15 28984q264 13347 263 27480q256 13347 -7936 15173
q-115 10038 -111 23645v14103q22 -54 22 -80.5t-2.5 4977t-3 7702.5t-9 9254t-9 13621t-7 12570.5t-6.5 6284t-4736 754t-9856 -51.5t10240 -53.5t30336 -54t27520 -44t13440 -20.5t1920 -18t1019.5 265t-4.5 5699t-107 6485t-107 9268t-64.5 11278t-64.5 4120t-63 11290
t-63 23685t-61.5 10890t-61.5 -1759t-43.5 4385t-43.5 5403t-42.5 10002t-42.5 8708t-41.5 8198t-41.5 8207t-3.5 3887t-3.5 10048t-12.5 18976t-12.5 12810t-4 5128t-4.5 8216t-15 11067t-15 15145t-12.5 10775.5t-12 3833.5l-1 3433.5l-1 3205.5t-12 1544t-12 3594
t-12.5 4102t-13 2076t-20.5 1576t-20.5 2193.5t-18 3229.5t-17.5 3100t-104 1412.5t-104 518.5t-73 1160t-73 80t-71.5 -14256.5t-71.5 -12666.5t-70.5 1421t-70.5 2317t-69.5 4612t-69.5 10768t-68.5 8722t-68.5 2054t-40.5 2052t-40.5 1544t-29 1075t-29 1413t-28 2527.5
t-28 2185.5t-27 1028t-27 1056t-6 1572.5t-6 3466.5t-9.5 2956t-9.5 4116t-12 4720t-12.5 1255.5t-23 2436.5t-22.5 3335t-102 2104t-102 2106t-101.5 2064t-101.5 1806t-101 1292t-101 11788t-75 11790t-75 1293t-39.5 1287t-39.5 3215.5t-38 6295.5t-38 6690t-31.5 4634
t-31.5 2311t-30.5 1802.5t-30.5 2695.5t-4.5 6798t-4.5 8218t-3.5 4755.5t-3.5 14493.5t-9.5 15386t-9.5 3335t-76 1291.5t-76 1960.5l-0.5 5827l-0.5 5413t-3 1556t-3 8212t-3.5 8716t-4 -2015t-26 2340t-25.5 12849t-97 12072t-97 6662.5t-89 2959.5t-89 2717t-86 3348
t-86 3076l-2 5124l-2 4357t-6.5 3849t-6.5 3596.5t-6 2002.5t-6 4561t-6 10115.5t-6 -4735.5t-37 -10237.5t-37 1317t-117 1835t-99.5 6544.5t19.5 13722l2 1034l260 4635l1 4364l9 2060l49 530l1 5284l8 2055l3 2308l73 5379l19376 2060l2640 3335l22592 18221
q29952 0 30336 -12t514.5 -19t570.5 -18t440.5 -13t512.5 -12t642 -12t16002 -18t16385 -18t515 -10t14092.5 -25t14219.5 -17l134 3l646 3t641 -40v-12v-4v-9v-23v-88v-160v-8v-8v-8v-8v-8v-1q28180 0 28180 -191v-25v-15v-4v-4v0v-8v-255v-216v-255v-226v-3v-108v-6v-14
v-1v-3v-1v-8v-1v-18v-1v-33v-1v-47v-1v-53v-1v-57v-1v-65v-3v-140v-65v-118v0v-18v0v-16v0v-6v0v-3v0v-6v0v0v0v-255v0v-78v0v-75v0v-15v0v-12v0v-5v0v-5v0v-6v0v-252v0v-83v0v-81v0v-65v0v-23zM2.60214e+06 9.88001e+06v-5v0v-4v0v-5v0v-247v0v-89v0v-85v0v-60v0v-27v0v-5
v0v-3v0v-7v0v-30v0v-1v0v-8v0v-3v-1v-7v0v-245v0v-238v0v-102v0v-100v0v-91v0v-55v0v-52v0v-50v0v-40v0v-33l1 11l2326 1l5.5 8t-2.5 -22.5t9 -22.5l112 256v-8.5v-8.5q-24 257 -24 251l25 -7l-19 -9l25 -234v-11136t0 2688v14464v2048v3584t0 -1280v-14336v-23552t0 1536
v14720v2048v2944.5v5633v8193v7040.5t0 -512v-7424v-13440t6163 -9780h32256l3083 -178h3339l3085 -155h32256l5632 -153h6424l5657 -114h26368l4882 -112h263l1555 -12h1895l10 -10h11l3082 -12l2919 -1l5889 -39l1285 -1l94 -34h6657v-148h5195v3072v4736t0 -1920v-9088
v-13696v-18176v-23296t0 1408v30592v16000v2560v3968.5v8961v12800.5t0 768v-13440t0 7680t-160458 5978zM2.7626e+06 9.89221e+06v2816t0 -13824t0 -15360v2048v3072.5v9088.5t0 384v-23680t0 -15744v2176v3712v3840v11429.5t0 -725.5t0 49v18528.5v8247.5v5.5v645.5v14979
v15234v1284.5v1338.5v953.5v1028v1465.5v443v134v1154.5v16896.5v18048.5v3587v3642.5v2241.5v1298.5v2578.5v3656.5v2376v1678v3979.5v18182.5v17796.5v3721v3723.5v18055v16641v641.5v2306.5v2357.5v185v10.5v2442.5v3769v1337.5v12.5v1164.5v2873.5v3764v2691v690.5
v2608.5v2560.5v2597.5v2602v1163.5v13447v14087v6030v13972.5v19429.5v13696v15304v24864v14336v1410.5v1466.5v827.5v517v1157v14979.5v14724v1029.5v14721.5v15104.5v1540.5v706v198.5v142v270v1607.5v1480.5v1298.5v2578.5t4 3656.5t2065 2367l24337 -18l4111 -13
l3588 -10l3341 -18l5451 -13l6 -124h1549l24337 -15l4111 -9l3588 -14l3341 -9l5389 -15l19483 -14l19376 -126q25 4 65 260.5t84 393t76 649t91 13696.5t59 14592t-62226 -227245t-62226 -227501zM2.88705e+06 1.03524e+07l0.5 14597t3 14720t4 3204.5t57.5 3211
t56 14734.5l0.5 13322.5l-1.5 133l-2 2.5l-0.5 -48l-2.5 -58t-64 -10.5l-62 -0.5h-2t-3 -10l-1 -47.5l-2 -37.5l-3 -4.5l-63 -9t-72.5 -11.5t-11 -55l-1.5 -48l-6 -7t-7.5 -14t-3.5 -23.5t54 1813.5t65 5323.5t10.5 -6726.5t5 64t15.5 18529.5t15 8248.5l6.5 5.5t7 645.5
t60.5 14979t56 15234t12 1284.5t24.5 1338.5t22 953.5t22 1027.5t24.5 1414t2.5 450t-135.5 62v-8l-12 -1l-11 -4l-13 -8l-11 -1l-12 -124h-13l-126 -17v-1l-22 -11v-1l-25 -17l-24 -11l-22 -126h-25l-103 -19v-10l-19 -18l-18 -10l-1 -19l-7 -18l-6 -126h-19l-7 -18
l-103 -13q0 2578 5 4304t5 1733.5t5.5 1166.5t11.5 2318.5t11 3014.5t10.5 1857t57 258.5t63 393t12 649t3 13696.5t5 14592l2.5 2697.5t47 2702.5t60 14597t13.5 14720l0.5 3204.5v3211t10 14734.5t47.5 13322.5t37.5 770.5t4 12938t8 12426t10.5 138t54 9610t56 10756.5
t16.5 2996.5t-7 1840l-14 -14l-4 -14l-13 -33l-13 -14l-21 -76l-75 -27v-75l-6 -176l-6 -50l-13 -80l-95 -88l-17 -64l-16 -108h-15l-14 -6h-4l-13 -5h-13l-21 -6l-13 -5l-76 -126h-27l-64 -7l-119 -4v-3l-3 -5q645 -292681 645 -291268zM2.8864e+06 1.06436e+07l-1 -112v0
l-3 -3zM2.8864e+06 1.06435e+07l-126 -4v-3l-1 -8zM2.88627e+06 1.06434e+07v0l-1 -8l-4 -1zM2.88614e+06 1.06433e+07v-8l-4 -1l-2 -124v0l-4 -17l-2 -1l-124 -11l-21 -1l-1 -17l-2 -11l-10 -126h-5l-2 -19l-110 -10l-20 -18l-1 -10l-9 -19l-22 -18l-8 -126h-5l-9 -18
l-112 -13v-10l-24 -18l-25 -13l-19 -124h-25l-24 -15l-19 -9zM2.8854e+06 1.06426e+07v-9l-12 -15l-11 -14l-13 -126h-11l-12 -4l-13 -2l-126 -1v-1l-22 -17v-4l-25 -1l-24 -103h-22l-25 -11h-103v-10l-19 -19l-18 -11l-1 -10l-7 -103h-6l-19 -12h-7l-103 -13v-9l-10 -12
v-13l-11 -103l-12 -16l-10 -1l-11 -5l-103 -5h-23l-1 -96l-5 -20l-5 -1v0h-94l-26 -20zM2.88449e+06 1.06417e+07v0v-9l-20 2318zM2.8844e+06 1.06686e+07l8 -14q2061 3617 14229.5 3610t-14237.5 -3596zM2.91671e+06 1.06721e+07q1794 -13.5 3464.5 -45.5t4396 -86.5
t2728.5 -54.5l777.5 -3l12943 -3t-6967.5 103t-17342 89.5zM2.95909e+06 1.06719e+07l5135 -6q5389 -5 15161.5 -68t21197 -63l18976.5 -3.5l8320 -5.5l768.5 -3.5l3585 -3.5l7041 -5.5l6401 -5t5761 -64.5t4225 -63l2561 -1.5l1921 -5.5l1408.5 -6t-2432 -3.5l-6272 -5.5
t-7552 -66t-8960 -62l-11008 -4l-12928 -4.5l-13696 -2.5l-14592 -6t-17120 227t-7902 231zM2.95199e+06 1.06714e+07q-8320 -62 -16768 -62l-17280 -8.5l-17792 -9l-18432 -6t34560 71t35712 14.5zM2.84332e+06 1.06713e+07q-9728 -8.5 -19968 -14t-20608 -68.5t-21376 -63
t30336 77t31616 68.5zM2.73413e+06 1.06711e+07q-12416 -5 -25088 -14t1536 -14t25088 14t-1536 14zM2.7637e+06 1.0671e+07q12288 -9 24320 -72t23424 -63l22656 -9t20736 -15.5t18688 -11.5t17920 -14t-65664 92.5t-62080 92.5zM2.92216e+06 1.06708e+07
q5120 -62 10112 -62l9216 -7.5t8192 -12t7424 -11.5t6784 -11.5t6400 -12t6016 -14.5t-28160 93t-25984 38zM2.98655e+06 1.06705e+07l2176 -2l-1664 -3t-896 -1.5t-896 -1t1792 -9t4352 -10.5t-3072 12.5t-1792 14.5zM2.99992e+06 1.06704e+07q2448.5 -51.5 8859 -51.5
l13476 -5.5l13477 -5.5l9239 -5t5654 -14.5t3733.5 -15t-27990 71.5t-26448.5 25.5zM3.06387e+06 1.06703e+07q2691.5 -51.5 3481 -51.5l934.5 -6l5140.5 -6l9367 -6.5t-8621.5 57.5t-10301.5 12.5zM3.09771e+06 1.06702e+07q782.5 -6 921.5 -12.5t7691.5 -58t13964 -59.5
l7318.5 -8.5t-14885.5 72t-15010 66.5zM3.13839e+06 1.067e+07l11284 -2.5t7693 -48t3861 -58t6667.5 -10.5l6276 -0.5h3342t-21421 61t-17702.5 58.5zM3.18357e+06 1.06698e+07q907 -37.5 4619.5 -37.5l6280 -4.5l2706 -9t2965 -11.5t5416 -55t2744.5 -48l6965 -7
t11805.5 -14t9890 -23.5t5049.5 -23.5t7963.5 -45t14496 -82.5t6824 -89t6820 11392t6683.5 11371.5v-47v0v-1v0v0v-1q0 12033 0 11991v-1v-37v-1v-35v-1v-17v-1v-16v0v-254v0v-253v0q-102135 -33602 -101228 -33639.5zM3.2848e+06 1.07033e+07v0v-206v0v-201v0v-199v0v-190
v0v-187v0v-176v0v-175v0v-167v0v-160v0v-152v0v-150v0v-127v0v-125v0v-94v0v-92v0v-87v0v-86v0v-74v0v-71v0v-69v0v-66v0v-63v0v-61v0v2978zM3.2848e+06 1.07002e+07v0v-58v0v-49v0v-47v0v-43v0v-41v0v0v-1v-3v0v-1v-1v-2v0v-21v0v-7v0v-20v-43q9781 306 16718.5 294.5
t9908.5 2816t10779.5 9238t14486 7193t6822.5 920.5t1060 3107.5t5933 9400t12084 6578t14131 6957t7053.5 9636t-38.5 2801.5t2.5 3687.5t182.5 3702.5t137.5 -13.5t-16.5 16.5q5135 1814 5135 7245v-76t0 2929.5v8109.5zM3.38918e+06 1.07901e+07v1543v5163v290v1830
v11009v-19835zM3.38918e+06 1.08187e+07v13879v13367v10038v13620v8999v13883v306v13606v-87698zM3.38918e+06 1.09174e+07v8743q0 9771 139 9771l162 -1q5396 8711 -301 -18513zM3.39487e+06 1.095e+07v5910v5383v5653v-16946zM3.39487e+06 1.09721e+07v10019v8711v5143
v-23873zM3.39487e+06 1.10101e+07v5661v276v8983v-14920zM3.39487e+06 1.10304e+07v1812v8983v5396l23 -7zM3.3949e+06 1.10522e+07v1815v5127v5653v-12595zM3.3949e+06 1.107e+07v5661v276v3841v5171v-14949zM3.3949e+06 1.10977e+07v12823v13367v13877v9990v8998v13622
v16129v5942v15617v13351v14132v8994v10036v14118v13606v-184602zM3.3949e+06 1.1296e+07v15105v12855v5691v306v14102v-48059z" />
    <glyph glyph-name="dollar" unicode="$" 
 />
    <glyph glyph-name="percent" unicode="%" horiz-adv-x="1610" 
 />
    <glyph glyph-name="ampersand" unicode="&#x26;" horiz-adv-x="1683" 
 />
    <glyph glyph-name="quotesingle" unicode="'" horiz-adv-x="346" 
 />
    <glyph glyph-name="parenleft" unicode="(" horiz-adv-x="650" 
d="M442 1488q21 -8 32 -8q3 0 24 4q11 0 20 -20q-4 -34 -4 -56v-20q0 -4 -4 -4l4 -8q0 -48 -8 -48q8 -16 8 -24q-6 -16 -12 -16h-16q-136 -11 -136 -68q0 -8 -20 -8v-8q19 0 28 -20q48 -4 48 -12v-8q0 -12 -60 -20q-8 -51 -8 -60q0 -4 4 -12q0 -8 -4 -8q4 -40 4 -60v-728
q0 -9 -20 -12q0 8 -8 8q-8 -1 -8 -8v-4q0 -8 12 -8l8 4q20 0 28 -36q74 -16 92 -24q23 -44 68 -44q87 -10 96 -20q-4 -100 -8 -144q4 -15 4 -32l-12 -8q-14 4 -16 4q-28 -12 -52 -12q-21 0 -156 4q-132 27 -132 52q-76 45 -76 100q-15 27 -32 100q-13 8 -24 8h-40
q-22 0 -32 20q0 14 4 36q-4 35 -4 44q0 16 4 16q-4 47 -4 68v676q0 4 4 4q-4 20 -8 20q0 72 24 72q32 0 32 8q-52 0 -52 32v8q21 133 56 176q74 100 216 100h112zM482 1332v-12h8v4q0 8 -8 8z" />
    <glyph glyph-name="parenright" unicode=")" horiz-adv-x="604" 
d="M58 1488l28 -4h80q150 0 200 -32q62 -16 108 -92q24 -26 24 -72q0 -6 -12 -12h-52q-16 0 -32 -4q-15 4 -32 4h-16q-8 -1 -8 -8v-16l20 -4h28q34 0 108 -4q13 -64 48 -64q32 -2 32 -12v-4q0 -7 -56 -16q0 -7 -8 -24q0 -4 4 -4q0 -85 -40 -108q-4 -7 -4 -16v-8q1 -8 8 -8h4
q2 0 12 8h4q12 0 12 -16l-4 -40l8 -32q-8 -15 -8 -32v-292q0 -21 4 -36q-4 -21 -4 -40v-216q0 -6 -12 -12q-7 4 -16 4l-4 -8v-20h20q37 -44 80 -44l20 4q12 -20 12 -28q-12 -32 -48 -32h-76q-12 0 -12 -4l-20 4h-164q-16 -6 -16 -28q13 -8 24 -8h104q27 0 48 4l112 -8l8 4
q16 -6 16 -12v-4q-34 -68 -60 -68q-39 -8 -108 -8h-172q-6 0 -16 -16v-4q1 -8 8 -8h192q9 0 16 -4q8 4 12 4l8 -12q-52 -40 -292 -40q-32 0 -48 12q4 54 4 76t-4 76q0 44 28 44h40q88 13 88 48l-16 8l-8 -4q-60 0 -60 36q8 13 8 20q0 8 -4 8l4 40v552q0 25 -4 60q4 12 4 48
v40q0 53 -4 136q0 8 20 24l28 -4h20v12q-4 0 -12 4l-40 -4q-14 13 -32 72q-24 36 -136 36q0 3 -20 16l4 40v12q0 26 -4 52q4 16 4 32q0 4 -8 40zM522 72v-8h4q6 0 12 12v4h-8q-8 -1 -8 -8z" />
    <glyph glyph-name="asterisk" unicode="*" horiz-adv-x="1024" 
 />
    <glyph glyph-name="plus" unicode="+" 
 />
    <glyph glyph-name="comma" unicode="," horiz-adv-x="557" 
d="M131 250q4 0 4 -4l20 4h152q14 0 68 -8l8 4q24 0 24 -48v-24q-10 -20 -32 -20v4q-20 -8 -72 -8h-140q-14 0 -36 -4q-12 0 -24 24q4 14 4 16q-4 26 -4 52q18 12 28 12zM127 118h240q31 0 36 -16v-4l-4 -24q0 -10 28 -20q8 4 12 4q27 -11 32 -24v-8q-18 -13 -48 -100
q-9 -1 -20 -40q-18 -29 -40 -88l-16 -8q-16 4 -28 4q-25 -8 -40 -8l-24 4q-15 -4 -32 -4q-16 0 -28 20l64 192q-92 6 -92 24q0 23 -52 28l-12 16v20q0 4 4 4l-4 8v8q4 12 24 12zM351 -114q0 -4 -4 -12q4 -8 4 -12h8l4 20v4h-12z" />
    <glyph glyph-name="hyphen" unicode="-" horiz-adv-x="670" 
 />
    <glyph glyph-name="hyphen" unicode="&#xad;" horiz-adv-x="670" 
 />
    <glyph glyph-name="period" unicode="." horiz-adv-x="557" 
d="M123 244h176q88 -4 88 -20q4 -7 4 -16q-4 -50 -4 -56q0 -2 4 -16q0 -4 -4 -4l4 -28v-16q0 -9 -4 -16q1 -12 28 -24l8 4q20 0 40 -20v-8q-7 -24 -96 -24q-35 4 -44 4l-20 -4q-4 0 -12 4q-34 -4 -56 -4h-52q-21 0 -40 36q-44 0 -44 16q-4 7 -4 20v108q0 15 -4 36
q0 24 32 28z" />
    <glyph glyph-name="slash" unicode="/" horiz-adv-x="826" 
d="M554 1494h204q52 0 52 -16q-22 -54 -44 -60h-4q0 16 -8 16h-4q0 -7 -8 -20q24 -11 24 -16v-4q0 -40 -28 -84q-18 -68 -32 -68q-4 0 -12 -4l-16 8q-20 -12 -40 -12h-120q-14 0 -36 4q-7 -4 -20 -4q-24 10 -24 24q24 38 44 100q11 11 48 128q13 8 24 8zM758 1462v-8h4v8h-4
zM506 1206q29 -4 32 -4q22 4 36 4q4 0 12 -4l24 4q14 0 44 -12q16 8 28 8q0 -2 8 -12v-12q0 -31 -36 -48q-25 0 -60 -4q-40 4 -60 4l-40 -4q-23 4 -64 4q-9 0 -16 -4q-20 7 -20 20q32 56 40 56q24 0 72 4zM394 1098q2 0 52 -4l128 4q30 -8 40 -8q21 4 24 4q16 -6 16 -12
l-64 -148q-44 -108 -44 -120q-16 -50 -48 -100q0 -26 -76 -204q0 -14 -36 -80q0 -32 -68 -176v-4q0 -28 44 -36h4l24 8q8 -13 8 -24q-36 -72 -72 -184q-18 -56 -40 -56l-76 -8q-4 0 -4 4l-48 -4h-52q-14 0 -36 4q-6 -4 -24 -4q-16 6 -16 12v16l92 228q-84 11 -84 24v12
q16 23 80 196q8 0 20 48q23 49 44 112q5 0 44 116q102 257 112 268q36 103 36 108q20 0 20 8zM526 890v-8q1 -8 8 -8v16h-8zM370 466v-12h4v12h-4z" />
    <glyph glyph-name="zero" unicode="0" horiz-adv-x="863" 
d="M392 1580q254 0 336 -100v-36q4 0 12 4q31 0 40 -56q3 0 16 -20v-8q0 -8 -8 -8h-16q-20 0 -20 8l-20 -12h-16q-25 0 -60 -4l-24 4q-40 -3 -40 -12v-12q7 0 24 -8q4 0 12 4q50 -4 60 -4q50 4 60 4q15 -8 36 -8l16 4q41 -36 48 -36l8 4q32 -10 32 -24l-4 -20q0 -10 8 -56
l-20 -16h-4l-28 4q-4 -12 -24 -12h-228q-8 0 -8 8l4 56q-17 56 -32 56l-28 -4q-14 0 -52 48q-24 15 -60 20q-63 -36 -80 -36q-4 0 -4 4l-8 -4h-184l-24 -4q-7 4 -16 4l-40 -4q-16 6 -16 12v16q16 55 40 88q34 62 44 68q102 88 252 88h16zM128 1284h192q5 0 44 -8h28
q6 0 12 -16q-7 -12 -12 -60q4 -8 4 -12q0 -24 -56 -28q-12 -34 -12 -44l4 -8q-4 -20 -8 -20q8 -20 8 -60q0 -60 -4 -60q4 -71 4 -116v-444q0 -44 -12 -44h-4q-4 0 -4 4q-7 -4 -20 -4v-4q0 -21 16 -28q2 0 12 8q13 -5 24 -40q16 -12 72 -20l28 4q25 -48 76 -48q60 15 60 32v4
q0 8 -8 8q-4 0 -12 -4q-56 4 -56 16q16 121 16 184v488q0 17 -4 44q8 20 8 28l-8 88q6 16 12 16q51 -8 96 -8h96q108 0 108 -16q0 -10 -8 -36q4 -8 4 -12q-6 -16 -12 -16l-8 4q0 -12 -4 -12q3 -16 8 -16q8 4 12 4v-588l-4 -20q9 0 12 -20q0 -29 -8 -104q32 -20 48 -20h8
q9 0 16 4q16 -6 16 -12q-35 -136 -80 -136q-24 0 -24 -8v-12h4l12 8q0 -4 4 -4q0 -29 -44 -52q-20 -33 -148 -60h-12v4q-26 -12 -36 -12h-140q-112 11 -168 44q-94 73 -120 140q-28 88 -40 88q0 7 -76 8q0 6 -12 12q-4 151 -4 228v72q0 44 8 76q-8 16 -8 44v160l-4 48
q18 16 20 16h64q6 0 12 12v12l-20 4h-60l-16 12l4 28v16q0 32 -4 84l4 8q-4 7 -4 16v8q0 40 64 40l4 8v40l-4 40q19 20 44 20zM844 1240v-16h4q0 4 4 12z" />
    <glyph glyph-name="one" unicode="1" horiz-adv-x="593" 
d="M306 1538q21 -4 24 -4q9 0 16 4q164 -5 164 -20v-240q0 -16 60 -24v-24q0 -10 -32 -16v-12l28 -16q8 -13 8 -24v-4q0 -20 -56 -24q0 -24 -80 -24h-32q-24 -2 -24 -12q0 -24 24 -24q15 0 100 -4l8 -12q-4 -40 -16 -40q-25 8 -32 8v-28q1 -8 8 -8l24 16q6 0 12 -12v-140
q0 -9 4 -16q-4 -24 -8 -24q4 -60 4 -88v-384q0 -9 -4 -16q0 -68 40 -68q53 -4 64 -16q-4 -44 -16 -44h-48q-13 0 -20 -4l-24 4h-96l-24 -4q-7 4 -20 4h-16q-24 0 -24 -24l16 -12h4q39 0 40 4q34 -4 56 -4h40q22 0 56 4q63 -11 72 -16q0 -12 -4 -28q4 -60 4 -100
q0 -24 -32 -24q-40 -8 -72 -8h-188l-20 16l4 48v36q0 27 -4 48q4 21 4 48v28q0 40 -28 40h-28q-4 0 -4 4l-8 -4h-4q-28 0 -28 28v608q0 6 12 12h52q9 0 16 4l8 -4q8 4 12 4v20q0 8 -8 8h-36q-9 0 -16 4q-7 -4 -16 -4q-21 0 -24 12v44q0 33 8 120l-4 8q7 28 16 28h36q8 0 8 8
v4q0 8 -8 8h-56q-35 0 -80 4q-15 -4 -32 -4q-16 6 -16 12q8 26 8 36q0 44 -28 44q-40 0 -40 64q0 28 72 28q96 19 136 68q46 57 52 104q26 16 36 16zM470 878q-8 -38 -8 -48q6 -44 16 -44h4q8 0 8 8v4q0 13 -16 80h-4zM470 742v-28h4v28h-4zM470 386v-12h4v12h-4zM470 350
l-4 -20v-16l20 4v16q-8 10 -8 16h-8z" />
    <glyph glyph-name="two" unicode="2" horiz-adv-x="909" 
d="M368 1564q25 0 64 -40h92q148 0 148 -28q27 -5 88 -80q30 -80 36 -80l4 -8v-8q0 -8 -8 -8h-44q-28 -1 -28 -8l-28 4h-108q-9 0 -16 4q-16 -4 -16 -20l4 -20h48q17 0 40 -28h32q12 0 12 4l20 -4h88q72 -14 72 -24q0 -8 -20 -8v-12q24 0 24 -24v-4q0 -21 -12 -24h-12
q-10 8 -12 8h-4q-25 0 -36 -156q-52 -141 -84 -180q0 -22 -36 -60q-13 -34 -76 -96q0 -11 -128 -144q-22 -10 -60 -80q-84 -16 -104 -16q-12 0 -28 4q-15 -4 -32 -4h-4q-13 0 -20 4q-108 -3 -108 -20v-4q0 -6 16 -12q4 0 4 4q4 0 32 -4l48 4l36 -4l36 4q26 -4 44 -12
q13 8 24 8h4q8 -1 8 -8v-8q-32 -29 -32 -92q37 -24 84 -24l12 -28l40 -8q132 4 192 4q32 0 116 -4l20 4q88 -5 88 -16q-4 -76 -8 -96l4 -8l-4 -40q8 -25 8 -32q-10 -32 -24 -32l-8 4q-38 -8 -60 -8h-652q-22 0 -32 24l4 28v100q0 17 4 32q-4 16 -4 32v36q0 3 -12 12
q-4 0 -12 -4q-56 3 -64 16q38 176 72 176l8 4l8 -4q34 4 56 4l24 -4q16 6 16 12v4q0 13 -56 16l-24 -8q-20 6 -20 28q129 161 176 208q88 92 140 176q72 143 72 228l-4 8q15 30 24 32h36q12 4 12 24v36q-16 42 -16 52h-44q-25 0 -40 40q-49 24 -56 24h-4q-68 -16 -68 -48
q15 -16 56 -20v-4q0 -31 -44 -44l-4 -20q8 -4 12 -4q8 4 12 4q12 -20 12 -28q-6 -20 -28 -20q-11 0 -12 20h-4q-9 0 -24 -36l8 -24q-4 -22 -4 -36v-8q0 -3 8 -32q-13 -8 -24 -8h-40q-23 0 -28 -4q-22 4 -36 4h-16q-37 0 -68 -4q-21 4 -48 4q-21 -4 -24 -4q-24 9 -24 16v12
q0 22 8 60l-4 24q0 22 64 32q0 4 4 4q0 4 -4 32l4 28q0 40 -24 40q-32 0 -32 20q0 33 40 120q19 72 180 144zM276 1116v-12q1 -8 8 -8q8 13 8 24l-8 4q-8 -1 -8 -8zM848 160v-4q1 -8 8 -8q8 0 8 8l-8 4h-8zM852 128l-4 -8v-24h16q6 0 12 12q0 5 -24 20z" />
    <glyph glyph-name="three" unicode="3" horiz-adv-x="883" 
d="M412 1580q245 0 324 -128q17 -2 40 -72q24 -34 24 -80q13 -12 64 -20l4 -8v-24l-4 -24q8 -13 8 -24v-20q0 -12 -16 -12l-28 4q-22 0 -36 -184q-41 -84 -72 -96q-23 -40 -56 -40h-136q-24 -2 -24 -12v-8q0 -6 12 -12h12q176 0 176 -24q0 -6 28 -28q36 -46 36 -56
q25 0 40 -176q-9 -41 -16 -52l-8 4h-4q0 -4 -4 -12q0 -8 4 -8l-4 -28v-24q1 -8 8 -8q1 8 8 8q12 0 12 -16l-4 -56q0 -2 4 -16q-8 -16 -8 -24q26 -22 64 -24h24q6 0 12 -12q-16 -26 -40 -108q-38 -23 -44 -44q4 -7 4 -16q-77 -72 -168 -84q-24 -7 -92 -16h-128q-83 0 -172 56
q-104 86 -104 156q-10 0 -28 60q-100 8 -100 24v128q0 28 -4 88q15 12 28 12h56q21 0 36 -4q21 4 40 4h12q34 0 100 -4v-8q-60 -4 -88 -4h-12q-6 0 -12 -12v-16q0 -8 12 -8q128 0 128 -16l-4 -20q4 -35 4 -44q-8 -26 -8 -36q12 -15 16 -56q55 -20 64 -20h36l32 -40l40 -4h12
q11 0 56 28v12q-80 0 -80 20q12 27 12 44v44q0 12 -4 12l4 20v112q0 180 -156 180q-84 0 -84 20h-4l4 28v20q0 38 4 76l-8 60q6 17 20 24h40q121 0 144 40q12 0 28 48q12 0 12 72v48q0 32 56 32q0 4 8 4q0 104 -40 104q-36 0 -56 32q-41 32 -64 32q-68 -19 -68 -52
q5 -6 48 -12l8 -12l-20 -44l12 -44q-8 -18 -16 -20h-4l-24 4q-13 0 -28 -28q8 -1 8 -8v-8q0 -14 -104 -24h-16q-31 0 -56 4q-22 -4 -32 -4q-40 4 -60 4q-7 -4 -16 -4l-12 16v44l12 16l20 -4h4q20 0 24 16q0 9 -4 16q4 34 4 56v20q-48 5 -48 20q0 47 56 156q84 98 180 116
q13 4 140 8zM776 380v-28h8v28h-8z" />
    <glyph glyph-name="four" unicode="4" horiz-adv-x="932" 
d="M544 1548q8 0 28 -8l100 8q16 -4 28 -4q21 4 24 4q65 -10 76 -20q-4 -54 -4 -80v-148q5 -36 68 -36q0 -4 4 -4q-4 -30 -12 -40q-30 8 -32 8l-4 -8v-16q1 -8 8 -8h8l20 4q8 -13 8 -24q0 -32 -60 -32q-8 -20 -12 -20l4 -20v-124l4 -24q-3 -56 -20 -56q-84 0 -84 -16v-8
q0 -3 12 -12l8 4h8q76 -7 76 -28l-4 -28v-224q0 -76 20 -76l64 -8v-12q-26 -8 -36 -8h-24q-14 0 -36 4q-7 -4 -16 -4q-3 0 -24 4q-40 -3 -40 -12v-12q1 -8 8 -8h96q28 0 76 -8l8 4q20 -6 20 -28v-92l4 -40q-23 -6 -80 -16v-8q56 -8 56 -20v-24q-8 -28 -8 -32q12 -15 12 -28
v-12q0 -9 -4 -16q4 -8 4 -12q-15 -12 -28 -12h-172q-6 0 -12 -12q0 -16 44 -20l24 4q4 0 4 -4q2 0 16 4q124 -10 124 -28v-20q0 -36 -84 -36h-180q-52 0 -52 24q3 24 8 24q0 4 -4 4q4 40 4 60v12q0 42 -4 128q-10 8 -12 8h-28q-81 20 -108 20h-240q-19 0 -40 4
q-15 -4 -36 -4h-52q-48 0 -48 16l8 12q0 44 4 56q-4 38 -4 72v60q24 70 56 144q0 11 36 76q12 40 120 288q0 8 24 60q22 92 68 92l24 4v-4q17 0 52 104q0 8 -8 8l-20 -4q-24 9 -24 28q32 44 68 156q18 26 28 68q19 28 24 28h8q25 0 60 4zM752 1108v-8h4v8h-4zM752 1064v-16
h4v16h-4zM456 864q-12 4 -12 8q-28 -16 -40 -16h-116q-9 0 -16 4q-16 -4 -16 -20q10 -8 16 -8q40 0 168 -4l8 -12v-8q0 -14 -28 -48q-22 -78 -56 -152q-17 -9 -32 -76q-6 0 -12 -12q14 -12 48 -12q28 0 116 4q12 13 12 68v148q0 32 -4 76q0 32 56 32v12q0 8 -40 12
q-12 15 -12 36v12h-4l-32 -44h-4zM340 708h-40q-24 -2 -24 -12v-8q0 -6 16 -12l16 4l52 -8q16 4 16 24v12q0 8 -12 8q-13 -8 -24 -8z" />
    <glyph glyph-name="five" unicode="5" horiz-adv-x="846" 
d="M88 1520h612q8 0 40 -8l24 4q8 -16 12 -16q-5 -63 -8 -68q4 -22 4 -36v-80q0 -6 -12 -12h-4q-6 0 -96 -8h-272q-31 0 -44 -24q6 -16 20 -24h36q8 0 12 -24q-6 -24 -12 -24l4 -8v-52q0 -9 -56 -20q-10 -22 -20 -76v-12q0 -6 12 -12h8q55 24 68 24h144q139 0 212 -136
q4 -28 4 -32l-8 -4h-44q-5 0 -20 28h-236q-21 -32 -40 -32h-76q-6 0 -12 -12q0 -6 16 -16l28 4h72q23 0 64 -4l8 4q22 -4 36 -4q52 0 108 4q92 -6 92 -16l8 4h4q32 0 32 -72q4 -133 4 -232q0 -28 -52 -28q-12 -4 -12 -8l-28 4h-68q-6 0 -12 -12v-12q1 -8 8 -8l28 4l48 -4
l16 4q16 -8 28 -8l36 4l8 -12v-36q0 -9 -4 -16l4 -8q-4 -76 -4 -104q-8 -21 -8 -24q0 -22 92 -28l4 -8v-4q-12 -12 -28 -64q0 -26 -36 -68h-12l-16 12h-4q0 -12 -4 -12q0 -6 20 -24q-89 -108 -300 -108h-88q-136 14 -136 40q-1 9 -36 20q0 6 -80 80q-32 64 -52 124
q-20 16 -24 16q-3 0 -24 -4q-52 0 -52 32q0 64 -4 124q4 28 4 48l-4 20q6 17 20 24h168q40 0 80 -8q8 4 12 4q16 -6 16 -12v-16q0 -9 -4 -16q4 -8 4 -12q-4 -28 -4 -32q8 -36 8 -40q-8 -30 -8 -36q10 -68 36 -68l8 4q15 -8 76 -16q0 -22 64 -40q36 0 64 32v4q0 7 -64 16
l-4 8q12 95 12 104q-4 38 -4 84h4l-4 8v24q0 28 8 44q-8 36 -8 96v84q-15 108 -88 108q0 4 -12 4q-64 -7 -64 -52q-24 -44 -24 -56q0 -10 8 -36q-13 -11 -84 -16q-14 -28 -40 -28h-160q-10 8 -12 8q4 352 20 352l-4 36q0 112 20 112h36q12 0 12 16l4 64q0 28 -28 28
q-14 0 -32 16l12 220q-4 16 -4 32q15 12 28 12zM768 716l-4 -28l8 -4q8 0 8 8q-4 24 -12 24zM272 696v-4h12q4 14 4 16h-4q-6 0 -12 -12zM268 404v-20q1 -8 8 -8h4q0 6 8 16v8zM764 372q0 -8 -4 -8q8 -20 8 -28q-8 -28 -8 -48v-12q0 -6 12 -12h20v4l-16 16q0 17 8 40
q-10 48 -16 48h-4zM272 332l-4 -20q1 -8 8 -8q8 4 12 4v12q0 6 -12 12h-4zM272 208v-8q0 -6 12 -12q17 0 28 16q-4 16 -24 16h-4q-6 0 -12 -12zM840 212l-4 -8q1 -8 8 -8h4v8q0 8 -8 8z" />
    <glyph glyph-name="six" unicode="6" horiz-adv-x="900" 
d="M444 1610q195 -10 240 -72q23 0 60 -52q0 -10 28 -40q40 -77 40 -120l64 -16q8 -16 8 -28q-8 -16 -8 -24q8 -32 8 -48q-44 -32 -164 -32h-164q-21 0 -24 12v4q0 11 56 16v48q-9 56 -24 56h-32q-21 0 -48 40q-7 0 -36 20h-32q-60 -14 -60 -48q0 -8 48 -12l4 -8v-8
q0 -15 -16 -36v-8q0 -14 4 -36q-6 -20 -28 -20h-4l-20 4q-16 -27 -16 -48v-116l-12 -16q13 -8 24 -8q60 40 132 40h68q132 -9 132 -28q35 0 48 -28q19 0 28 -36q76 -50 76 -288v-32q0 -9 4 -16q-5 -28 -20 -28q-13 0 -20 4q-76 -4 -76 -16v-4q0 -15 104 -24l12 -16
q0 -13 -8 -72q4 -27 8 -36q-6 -92 -12 -92q0 -16 44 -32q8 4 12 4q40 -5 40 -16v-4q-18 -15 -32 -88q-64 -88 -72 -88q-90 -88 -288 -88h-84q-145 20 -188 64q-112 115 -112 192q-16 24 -36 24h-48q-11 0 -24 8q-4 139 -4 200v572q0 28 -4 88q16 12 24 12q4 0 12 -4l20 4
l28 -4q3 0 24 4q22 -4 32 -4q20 6 20 28l-12 8h-60q-24 0 -24 16q8 13 8 24q-4 29 -4 32q4 8 4 12l-48 16q0 8 -8 8q12 106 84 188q82 88 228 88q24 0 96 4zM724 1470v-32q4 0 12 -4q8 10 8 12q-4 24 -12 24h-8zM256 1330v-8l20 -4h28q30 0 32 12v8q0 6 -16 16h-52
q-12 -4 -12 -24zM724 958v-20q1 -8 8 -8l4 20q0 8 -8 8h-4zM328 662v-132l4 -28l-8 -4l-16 8q-34 -4 -56 -4h-4q-10 0 -12 -16l12 -16l20 4q9 0 40 -12q6 16 12 16h8l8 -4l-8 -84q6 -72 44 -72q10 0 40 -8q22 4 32 4q28 -48 68 -48q39 0 68 36q-10 8 -16 8q-4 0 -4 -4
q-56 4 -56 16v8q12 38 12 60v328q0 65 -88 104h-8q-53 0 -84 -80q-7 0 -8 -80zM768 782v-20q1 -8 8 -8h12q8 0 8 8q-8 18 -16 20h-12zM840 238v-12q8 0 8 8v4h-8z" />
    <glyph glyph-name="seven" unicode="7" horiz-adv-x="843" 
d="M48 1544h644q128 0 128 -20q-8 -30 -8 -56v-60q8 -39 8 -44q0 -32 -108 -32q-22 4 -32 4q-8 -13 -8 -20q10 -6 32 -12l20 4q10 0 44 -8q16 4 28 4q14 -36 64 -36q0 -4 4 -12q-16 -36 -24 -92q-23 -15 -68 -20q-26 -47 -44 -164q-18 -29 -44 -156q-18 -6 -24 -76
q-52 -200 -52 -204q-11 -12 -24 -56q-8 -1 -8 -8v-36q0 -44 -20 -60q4 -8 4 -12l-24 -72q0 -36 68 -36q20 -3 20 -12q-44 -145 -44 -152q-7 -9 -84 -20h-152q-8 -1 -8 -8v-12q1 -8 8 -8h204q6 0 16 -16v-12q0 -17 -92 -24h-156q-9 0 -16 4q-7 -4 -16 -4h-16q-6 0 -16 16v12
q20 82 56 192v28q0 16 -76 20q-4 8 -4 12l112 424q5 0 16 64q9 14 24 88q72 255 72 276q20 24 24 24h28q36 0 36 76q12 16 12 32q-56 5 -56 20l4 20q-17 16 -88 16h-372q-2 0 -20 16l4 20v16q0 43 4 72q-5 72 -8 80q6 20 28 20zM724 1112q0 -2 -8 -12v-8q1 -8 8 -8h4l4 20
q0 8 -8 8zM644 820q1 -8 8 -8q10 8 16 8l-4 28v28q0 8 -8 8q-12 0 -12 -64zM528 404h4q24 21 24 40q0 8 -8 8q-17 0 -20 -48z" />
    <glyph glyph-name="eight" unicode="8" horiz-adv-x="920" 
d="M376 1560q247 0 320 -64q21 -2 64 -64q41 -61 52 -84q0 -16 24 -64q-6 0 -12 -12l-16 4q-84 -5 -84 -16v-8q0 -6 20 -16l88 8q4 0 32 -12l8 4q32 0 32 -44q0 -18 4 -24q0 -17 -48 -20q-16 0 -28 -140q-16 -31 -24 -76q-34 -61 -52 -72q-20 -32 -48 -32v-12q0 -22 36 -36
q72 -87 84 -160q16 -62 16 -80v-120q0 -14 4 -36q0 -17 -52 -20q0 -8 -32 -8q-13 0 -20 4q-22 -4 -36 -4h-12q-17 0 -44 4q-8 -4 -12 -4v-16q0 -3 12 -12l20 4h24q26 0 52 -4l24 4q68 -7 68 -20q0 -52 40 -52l8 4h8q30 0 32 -12q0 -10 -32 -16q-8 4 -12 4q-24 -3 -24 -8
l-20 4h-112q-9 0 -12 -20q4 -16 24 -16h4q17 0 32 4l24 -4q5 0 40 4q15 -8 32 -8h32q8 -1 8 -8v-4q-82 -139 -148 -156q-65 -48 -264 -48h-68q-124 23 -124 32q-57 18 -132 112q-27 56 -52 124l-12 8h-16q-9 0 -16 -4q-56 8 -56 36q0 49 -4 120q0 250 64 328q0 9 72 72v8
q-84 64 -100 124q-25 26 -36 172v16q9 24 24 28q22 -4 32 -4l12 16l-4 36q4 14 4 16q-4 16 -4 28q0 20 48 20h264q6 0 12 -12l-16 -48q0 -3 4 -32q0 -26 -36 -32l-8 4q-28 -12 -28 -40v-44q24 -128 68 -128q0 -6 36 -12q70 0 96 76q12 70 16 144l20 12l24 -4q13 4 16 16
q0 96 -52 96q-48 0 -48 32q-56 32 -84 32q-27 -7 -64 -40q-20 0 -20 8q-54 -4 -80 -4h-144l-24 4q-5 0 -28 -28h-12q-6 0 -16 16q57 164 112 196q90 80 236 80zM784 1328v-12h8v4q0 8 -8 8zM348 1204l8 -4v12q-8 -1 -8 -8zM768 952v-16h8v8q0 8 -8 8zM224 580l-4 -20v-4
q0 -6 12 -12h52q48 0 48 -16q-4 -29 -8 -36q4 -22 4 -36v-32q0 -9 -4 -16q8 -13 8 -24v-24l-4 -24q12 -68 44 -68l52 -8l20 4q21 -38 72 -52h4q76 22 76 36v4q0 8 -12 8q-4 0 -4 -4q-60 4 -60 16v8l16 84q0 8 -4 8l4 48v112q-12 91 -40 108q0 35 -84 44q-40 -13 -64 -68
q0 -36 -84 -36h-40z" />
    <glyph glyph-name="nine" unicode="9" horiz-adv-x="903" 
d="M334 1576h148q99 0 196 -48q51 -36 52 -44q0 -18 36 -40q36 -71 52 -124q0 -36 68 -36l8 -12q0 -19 -8 -72q8 -1 8 -8v-8q0 -6 -16 -16q-9 0 -16 4q-32 0 -36 -84h-4l8 -36q0 -4 -4 -12l4 -20q0 -13 -8 -112q7 -24 12 -24l-4 -28v-256l4 -48q-16 -8 -16 -12l-20 4
l-44 -12l-20 4q-3 0 -32 -4q-22 0 -80 8q-18 -8 -20 -16v-8q3 -12 32 -12q25 0 60 4q4 0 12 -4q3 0 24 4q63 -4 92 -4l12 -20q-4 -66 -4 -100l4 -20q-15 -12 -28 -12h-124q-24 -2 -24 -12v-20l20 -4h32q132 0 132 -28q76 -10 76 -20v-4q-15 0 -36 -100q-5 0 -52 -68
q-99 -96 -288 -96h-112q-99 13 -172 60q-80 90 -80 116q-16 7 -32 84l-32 20q-4 0 -12 -4q-64 0 -64 44q0 19 -4 40q4 21 4 40q0 4 -4 12q0 20 36 20h112q148 0 148 -24l-4 -40q0 -84 76 -84q42 0 76 -48l20 -4q45 0 88 36q0 4 -16 12q-8 -4 -12 -4q-52 3 -52 20
q20 51 20 192q-4 53 -4 116q-4 14 -4 16h-4q-37 -64 -152 -64q-42 0 -88 -4q-73 13 -100 24q-34 11 -108 112q0 16 72 20q22 -4 44 -4l8 12v8q-4 12 -24 12h-96q-28 0 -28 20q0 24 -12 116v272q4 32 28 32l24 -4l16 12q0 4 -4 12q5 71 8 76q-4 8 -4 12h-28q-21 0 -24 12
q0 87 92 200q106 80 196 80zM730 1428v-12h8v4q0 8 -8 8zM362 1296q5 -6 48 -12l4 -8v-4q0 -22 -32 -40q20 -11 20 -60q-8 -4 -12 -4l-28 4q-40 -46 -40 -76h-4q0 8 -8 8l-4 -8v-8l4 -20l12 8q16 -17 16 -40v-4q0 -6 -16 -16q-7 4 -16 4q0 -2 -4 -16q3 -32 12 -32q0 12 8 12
q20 -37 20 -48v-48q0 -6 -12 -12h-8q-76 0 -76 -16v-4q0 -13 96 -16q9 -3 56 -44q16 -8 28 -8q31 0 84 48q13 8 24 8h36q14 0 36 4q6 -4 24 -4q8 10 8 12v4q-4 12 -24 12h-84q-6 0 -12 20l4 40q0 76 4 192l-4 24q0 24 44 24q13 8 20 8v12q0 14 4 36q0 60 -76 60q-9 0 -28 32
q-40 24 -52 24h-12q-60 -10 -60 -48zM310 1124v-12q8 0 8 8zM310 964v-8h4v8h-4zM802 912q0 -16 -12 -28v-4h12l4 24v8h-4zM286 404v-24q21 0 24 12v16h-4zM850 204v-4h12v12h-4q-8 -1 -8 -8z" />
    <glyph glyph-name="colon" unicode=":" horiz-adv-x="557" 
 />
    <glyph glyph-name="semicolon" unicode=";" horiz-adv-x="557" 
 />
    <glyph glyph-name="semicolon" unicode="&#x37e;" horiz-adv-x="557" 
 />
    <glyph glyph-name="less" unicode="&#x3c;" 
 />
    <glyph glyph-name="equal" unicode="=" 
 />
    <glyph glyph-name="greater" unicode="&#x3e;" 
 />
    <glyph glyph-name="question" unicode="?" horiz-adv-x="835" 
d="M438 1564q164 -8 164 -32v-4q-60 -4 -88 -4h-64q-23 0 -64 4q-16 -6 -16 -12v-4q0 -13 60 -20q61 4 112 4h84q12 0 60 -20q44 0 44 -36q56 -59 56 -96q21 -108 44 -108l8 4h28q8 -1 8 -8v-12q0 -8 -8 -8h-40q-5 0 -16 -60q0 -3 4 -24q-7 -9 -16 -104q-20 -50 -24 -68
l4 -8q0 -7 -24 -40q-19 -68 -44 -68q0 -29 -40 -80l-80 -116q-21 -32 -52 -116l-16 -8q-12 0 -12 4q-54 -4 -80 -4h-132q-6 0 -12 -12v-8l8 -12q13 0 20 4q52 -4 84 -4l56 4q32 -9 32 -12q19 8 36 8l8 -12q0 -15 -8 -84q8 -15 8 -32q-5 -8 -80 -16v-4l-28 4h-120l-24 -4
q-36 0 -36 68q-4 27 -4 44q8 107 36 184q57 119 108 180q120 166 120 388l20 16h12q4 0 4 -4q7 4 20 4v12l-20 4q-4 0 -12 -4q-29 0 -40 56q-45 44 -76 44q-52 -6 -52 -36q-3 0 -16 -20v-28q0 -6 12 -12l16 4q20 -5 20 -12q0 -9 -56 -24l-20 -88l16 -28v-16q-4 -12 -24 -12
q-7 0 -24 8q-30 -16 -48 -16l-8 4q-31 0 -48 -36h-116q-19 0 -32 20l4 28v124q0 28 52 28q8 0 8 8q-6 7 -52 12l-4 8v24q37 156 64 156q72 108 124 108q58 24 92 24q57 0 120 4zM282 1168q-4 -40 -4 -60q1 -8 8 -8q12 13 12 20q-12 23 -12 40q4 0 4 4zM730 944q0 -8 -4 -8
q4 -8 4 -12h12v12q0 8 -8 8h-4zM694 868q0 -2 -4 -16l8 -4l4 8v12h-8zM362 244h132q129 0 140 -12q-4 -80 -4 -120v-60q0 -4 8 -32q-8 -16 -20 -16q-18 0 -88 -4q-4 0 -4 4l-20 -4h-120q-9 0 -16 4q-7 -4 -16 -4q-20 6 -20 28q4 80 4 120l-4 20q4 7 4 16l-4 36q0 24 28 24z
" />
    <glyph glyph-name="at" unicode="@" horiz-adv-x="1579" 
d="M758 1564h248q48 0 228 -52q77 -28 156 -120q13 0 32 -44q18 0 44 -76q16 0 40 -100q16 -6 16 -28l-8 -12q-80 -4 -120 -4h-36q-8 -1 -8 -8v-12q0 -6 12 -12h16q9 0 16 4q32 -4 32 -8q8 4 12 4q96 -4 96 -20q0 -14 -4 -36q4 -25 4 -56v-4q-1 -9 -36 -20v-4q6 0 16 -16
l8 4q13 0 16 -60l-4 -16q0 -4 4 -4q0 -157 -40 -268q0 -16 -8 -28l4 -24q-13 -12 -140 -12q-4 0 -12 -4q-7 4 -16 4q-20 0 -20 -24q1 -8 8 -8h44q32 0 84 -4q8 4 12 4l8 -12v-4q0 -11 -24 -44q-81 -157 -236 -212q-23 -12 -160 -16l-8 4l-8 -4q-102 0 -148 68h-4l-96 -44
q-68 -8 -76 -8h-68q-96 0 -128 48q-37 0 -72 184q4 71 4 120v12q0 9 4 16l-4 8q12 10 16 92q7 0 24 184q41 126 128 204q41 16 116 24q168 -7 180 -36h16q0 18 28 28q47 -4 68 -4h180q6 0 12 -12q-2 -8 -20 -16q-7 4 -16 4q0 -8 -8 -8l4 -8v-40q1 -8 8 -8q8 4 12 4l8 -20
l-4 -20l4 -28q-10 -11 -24 -188q-8 0 -8 -32l4 -28q-16 -88 -16 -96l4 -8q-12 -38 -12 -44l4 -20q-4 -33 -8 -40q4 -7 4 -16v-4q0 -11 -8 -24q8 -13 8 -20h24q52 60 52 72q13 0 48 140q24 137 24 236v36q0 139 -48 248q-72 94 -72 96q-47 43 -124 72q-100 36 -176 36
q-103 0 -244 -72q-18 -16 -68 -44l-44 -52q-53 -65 -68 -100q-22 0 -36 -76q-23 -32 -44 -128q-18 0 -44 -260q8 -13 8 -20q-8 -28 -8 -48q0 -209 76 -352q37 -28 116 -28q33 -69 92 -104q36 -42 176 -84l116 -12q134 0 300 76q66 33 120 68h4q16 -35 24 -36q14 24 36 24
q8 -10 8 -16q0 -10 -24 -104q8 -36 8 -52v-4q-6 -36 -36 -36q-11 -23 -136 -60q0 -21 -184 -44q-39 -4 -180 -8q-133 0 -300 48l-108 60q-139 112 -172 184q-12 13 -40 84q0 15 -104 24q-64 155 -64 400v8q0 192 68 412q62 144 96 200q131 193 288 268q52 34 164 60z
M1398 1352v-20h8v20h-8zM1442 1256v-12h4v12h-4zM334 972l-4 -20v-8q1 -8 8 -8q12 15 12 28q0 8 -8 8h-8zM734 748v-28q0 -8 -64 -16h-48q-6 0 -12 -12v-12q0 -7 28 -12q4 0 4 4l40 -4h44q8 -1 8 -8q-8 -23 -16 -120q0 -81 64 -96h4q68 27 68 76q16 0 28 160q5 56 20 56h128
l24 4q7 -4 20 -4h20q12 4 12 24q-13 8 -24 8h-180l-12 8l4 40q0 59 -64 76h-8q-60 0 -80 -116q-7 0 -8 -28zM222 624q2 -8 20 -16q8 4 12 4q30 -8 40 -8q8 13 8 24l-4 20h-8q-68 -9 -68 -24zM1046 584q2 0 12 -8h52q16 8 16 24q-4 8 -4 12h-20q-56 0 -56 -24v-4zM1098 512
l-4 -8v-16q1 -8 8 -8h4v24q0 8 -8 8zM1326 -32v-8h4q8 4 12 4v20q-6 0 -16 -16z" />
    <glyph glyph-name="A" unicode="A" horiz-adv-x="918" 
d="M253 1548h276l24 -4l8 4q41 -4 64 -4h8q17 0 20 -80q15 -40 20 -116q12 0 16 -60q12 -9 68 -20q0 -20 8 -32q0 -20 -56 -24q-8 -13 -8 -20q15 -12 28 -12h28q20 -10 20 -32q-6 -16 -32 -16v-8q40 0 40 -32v-28q0 -8 -52 -12l-8 -16q0 -17 24 -104q4 -70 4 -84
q11 0 24 -96q-15 -8 -32 -8h-128q-6 0 -12 -12v-12q0 -6 12 -12h100q72 0 72 -28q0 -103 36 -220q0 -4 -4 -4l4 -20v-20l-4 -20q6 0 16 -16v-4q-4 -12 -24 -12h-28q-23 -28 -32 -28q-8 4 -12 4l-4 -8v-8q3 -24 12 -24q0 6 20 16h4q23 -44 44 -44q56 -8 56 -28q20 -23 20 -36
q9 -64 16 -88q-6 -36 -16 -36l-20 8q-26 -12 -56 -12h-96q-6 0 -12 -12q6 -16 12 -16h124q5 0 44 -8l20 4q20 -21 20 -32q-13 -7 -88 -16l-28 4l-20 -4q-21 4 -24 4l-28 -4q-35 4 -44 4l-48 -4v4l-8 -4h-4q-22 0 -32 20l4 36q-12 45 -32 176v24q0 3 -12 12q-8 -4 -12 -4
q-28 0 -168 20q-60 -4 -100 -4l-4 -8q4 -24 12 -24h8l12 8h12q6 0 12 -12l-32 -172v-52q0 -10 -28 -16l-8 4q-51 -8 -60 -8q-2 0 -52 4q-2 0 -52 -4l-20 4q-8 -4 -12 -4l-16 4l-20 -4q-28 6 -28 16l28 128q0 17 8 84v24q0 6 -12 12h-44q-21 0 -28 16v4q8 39 8 44v4
q0 9 -4 16q0 22 68 24q9 24 24 28l24 -4q18 8 20 16q0 12 -48 16q-8 10 -8 12v4q40 193 40 252q32 141 32 152q0 3 -4 24l24 116l-4 8q0 41 32 72l28 -4h8q10 0 28 100q-4 8 -4 12h-40q-6 0 -16 16v12q12 20 28 20q22 -4 32 -4q12 18 12 28q0 11 -20 20q-7 -4 -16 -4
q-24 14 -24 20q40 209 40 248q17 16 32 16zM613 1472v-12l20 -4l4 8v8l-8 12q-16 -6 -16 -12zM637 1344l8 -4h4v12h-4q-8 -1 -8 -8zM405 1024l4 -40v-4q0 -9 -4 -16q0 -4 4 -4q-4 -65 -24 -152l-28 -216h-8q-10 0 -16 32l4 16q-4 8 -4 12h-4q-8 -1 -8 -8v-92q0 -8 16 -8v-20
q0 -8 -8 -8h-8l-20 4l-4 -8l96 -16q3 0 24 4q4 0 12 -4q22 4 36 4h32q8 0 8 8q-56 355 -68 488q-5 0 -20 28h-12zM701 992v-44q0 -29 12 -32l4 8v32q4 17 4 28q-7 0 -20 8zM781 468v-16h4v16h-4zM781 444v-8h4v8h-4zM745 288v-4h8v4h-8z" />
    <glyph glyph-name="B" unicode="B" horiz-adv-x="895" 
d="M76 1498h344q4 0 4 -4l8 4h4q261 0 332 -108q22 -9 56 -120q0 -29 28 -48q22 4 32 4q18 -8 20 -16v-20q0 -28 -52 -28l-12 -16q4 -16 24 -16h28q12 0 12 -16q0 -23 -4 -64l4 -20q0 -25 -64 -28q-12 -13 -48 -140q-6 0 -40 -44q-19 -7 -60 -36v-12q44 -13 100 -64
q0 -12 -16 -12q-12 0 -28 4q-21 -4 -40 -4h-8q-16 0 -16 4l-28 -4h-104q-24 0 -24 -16q6 -20 28 -20h252q32 -23 32 -44v-40q0 -13 -12 -28v-16l20 4q10 0 16 -96q-4 -31 -4 -68v-16q0 -4 8 -32q-16 -8 -44 -8h-16l-8 -28v-48q0 -16 72 -32v-4l-4 -8q8 -13 8 -24
q-20 -27 -36 -80q-7 0 -40 -44q-13 -16 -120 -16q-60 0 -60 8l-48 -8q-7 3 -56 8q-32 -8 -68 -8h-36q-24 -2 -24 -12v-12l4 -8l68 8q26 -12 36 -12h24q4 0 48 12l52 -16q36 12 48 12h24q8 -1 8 -8v-4q0 -12 -40 -20q-5 0 -40 4q-32 -20 -52 -20q-12 0 -76 4q-24 -3 -24 -8
q-13 0 -20 4q-104 -4 -164 -4h-156q-52 3 -52 16l4 20q0 4 -4 4l4 28v68l-4 28q16 12 48 12q23 0 64 -4q12 0 28 4q80 -4 140 -4h120q22 0 56 4q7 -4 20 -4q7 0 24 8q-8 24 -32 24h-128q-21 0 -36 -4q-21 4 -40 4h-216l-24 -4q-24 10 -24 28l4 8q-7 28 -16 28h-40
q-31 0 -40 20v44l-4 28l16 12h36q48 0 48 44q0 6 -32 40v336q4 12 24 12h224q6 0 12 12v4q-4 12 -24 12q-16 0 -16 -4l-40 4h-68q-19 0 -40 -4q-15 4 -36 4h-24q-12 4 -12 24v128l4 24q-4 7 -4 20v8q0 36 60 36l8 52q0 56 -16 56q-4 0 -12 4l-20 -4q-18 8 -20 16v12
q0 12 36 20h28q0 4 4 12q0 32 -44 32q-12 5 -28 24l4 20q0 36 4 80q-4 34 -4 52l4 28q-4 21 -4 48q0 28 28 28zM360 1258v-16q0 -15 56 -20l4 -8v-20q0 -29 -12 -32h-4q-10 0 -16 36l-8 4h-4l-4 -20l16 -16q-33 -24 -56 -24q-20 0 -20 -24v-8q0 -11 68 -20q22 4 36 4l4 -8
v-68q0 -6 -12 -12h-12q-9 0 -16 4q-24 0 -24 -84v-12q0 -34 16 -44q116 15 116 32q0 9 28 40l12 36q-4 8 -4 12q18 28 64 28l8 56q0 56 -24 56h-4l-28 -4l-12 24q0 4 16 24l20 -4h8q6 0 12 12v8q-17 28 -24 28h-28q-11 0 -72 44l-20 4h-28q-14 0 -36 4q-16 -6 -16 -12z
M356 626l4 -8q0 -17 -8 -32q0 -2 4 -16q0 -13 -4 -20q4 -34 4 -56v-56q0 -26 -4 -52l8 -64q-13 -8 -24 -8h-28q-3 0 -28 -28h-24l-4 -16l12 -8q16 8 24 8q17 -41 28 -48l28 -8h4l24 4q20 0 24 -32l20 -4h16q116 0 116 24q0 12 -44 12q-4 0 -12 -4q-18 8 -20 16l20 60
q-4 8 -4 12q19 20 60 20l4 8v176q0 94 -80 128q-21 0 -76 8h-24q-4 0 -16 -16zM808 582l4 -20h8l-4 20h-8zM756 286v-8h8q0 8 -8 8z" />
    <glyph glyph-name="C" unicode="C" horiz-adv-x="903" 
d="M406 1624l24 -4h64q140 -13 140 -28v-4l-28 -4h-108q-24 -2 -24 -12v-4q0 -4 28 -20l40 4h104q17 0 32 -8q16 4 28 4q60 -15 60 -52q-13 -8 -24 -8h-220q-6 0 -12 -12v-4q0 -6 12 -12h120q14 0 36 -4q6 4 24 4l68 -12l20 4q17 -11 36 -88l24 -36l8 4h20q28 0 28 -48
q-6 -7 -52 -20l-8 -12q0 -7 24 -20l20 4h8q6 0 16 -16q-8 -25 -20 -28h-28l-4 -8l4 -24h4l16 16h16v-12q8 -28 8 -32v-8q0 -12 -52 -16q0 -7 -28 -24q-34 0 -84 -8l-64 4q-9 0 -16 -4q-27 4 -44 4h-52q-21 0 -28 16q0 6 24 24h8l28 -4l12 20l-4 20q0 4 4 12q-4 22 -4 36v24
q-64 4 -64 20v4q0 22 20 28q22 -4 36 -4q8 10 8 16q0 28 -40 28q-42 0 -68 56l-60 12q-19 0 -60 -44v-4q1 -8 8 -8h36q6 0 12 -12q0 -2 -8 -12q0 -9 4 -16q0 -21 -56 -24l-16 -20q13 -13 64 -20v-20q0 -9 -4 -16q4 -3 8 -68q-9 -8 -64 -20l-4 -8q0 -13 4 -20q-4 -44 -4 -76
v-28q0 -9 -4 -16q4 -7 4 -16v-4q0 -16 -4 -16l4 -28v-180q0 -16 4 -32q-4 -15 -4 -32v-116q0 -19 -4 -40q4 -15 4 -36v-24q0 -11 -56 -16l-4 -8v-8q0 -68 32 -68q42 -12 52 -12h32q23 -44 68 -44h4q60 15 60 40q-80 5 -80 24q12 88 40 88q12 -4 12 -8q25 8 28 20v152l-4 24
q6 17 20 24h32q33 0 52 -4q25 4 56 4h36q34 0 72 -12q8 4 12 4q20 -24 20 -28q0 -52 -36 -52q-28 0 -44 -8q-14 4 -16 4q-47 -4 -68 -4q-3 0 -24 4q-8 -4 -12 -4q-27 4 -44 4l-8 -12v-12q1 -8 8 -8h108q136 0 136 -20v-8q0 -4 -8 -32q8 -13 8 -24t-60 -16q-4 -15 -36 -32
q22 0 24 -32q-4 -8 -4 -12q23 -11 96 -24v-4q0 -9 -84 -20h-84q-9 0 -16 4q-16 -6 -16 -12v-16l20 -4h132q22 0 28 -16q-85 -208 -340 -208q-231 0 -284 64q-71 59 -88 104q-24 43 -32 84q-7 28 -16 28h-12q-76 0 -76 16v48l-8 28q6 0 16 16l28 -4h8q8 0 16 24q-4 41 -4 64
v44q0 16 4 16l-4 28v412q0 104 24 104q40 0 40 20q-4 74 -4 92q-11 7 -56 12l-4 8v12q0 17 64 20l8 16q0 32 -48 32l-12 16q0 32 36 112q94 168 304 168zM190 1196v-8q2 -8 20 -16q41 4 64 4h20q8 0 8 8v12q0 8 -8 8h-84q-4 0 -4 4q-16 -6 -16 -12zM254 384q1 -20 8 -20
q8 4 12 4v12q0 6 -12 12q-8 -1 -8 -8z" />
    <glyph glyph-name="D" unicode="D" horiz-adv-x="855" 
d="M46 1548h288q4 0 4 -4l8 4h24q178 0 244 -24q101 -34 140 -100q32 -34 32 -48l-4 -8q16 -25 20 -64q16 -2 16 -12l-8 -12q-94 -4 -140 -4h-52q-9 0 -16 4l-72 -16q-31 0 -76 44q-39 12 -92 12q-40 -5 -40 -16v-12q7 -16 28 -16h28q6 0 12 -12l-8 -16q4 -7 4 -16
q-6 -16 -28 -16q-4 0 -4 4q-27 -11 -32 -24q0 -13 56 -20q12 -12 12 -76v-32q0 -11 -56 -16q-12 -10 -12 -24v-480q0 -14 -4 -36q8 -27 8 -132v-4q0 -11 -60 -16l-4 -8v-72q92 -18 92 -24q0 -24 12 -24h76q60 11 60 24q0 6 -24 12l-8 -4q-36 4 -36 16v8q12 15 12 36v28
q0 10 64 24l4 8v612q0 9 4 16q-4 7 -4 16q7 40 32 40l8 -4q28 7 28 16v28q0 72 -12 72h-12q-9 0 -16 -4q-25 8 -28 20q0 23 56 28q0 10 28 20q38 0 52 -4q45 4 80 4h28q40 0 120 -4l8 -12q0 -9 -56 -20l-8 -16q19 -11 64 -20v-24q0 -23 4 -64l-4 -8q4 -8 4 -12
q-6 -7 -52 -12l-12 -16v-16q0 -23 4 -64q-4 -8 -4 -12q4 -16 4 -28q0 -8 -4 -8l4 -28v-336q0 -18 -8 -64q8 -28 8 -48v-4l-12 -40q8 -1 8 -8v-4q0 -10 -56 -16q-9 -9 -16 -60q0 -28 88 -44v-8q-11 -31 -24 -36h-24q-39 -8 -44 -8h-76q-24 -2 -24 -12v-8q1 -8 8 -8h56
q4 0 4 -4q8 4 12 4q76 0 76 -16v-12q-14 -12 -52 -64q-110 -84 -308 -84q-14 4 -16 4q-14 -4 -16 -4q-20 0 -48 4q-83 -4 -152 -4h-8q-22 0 -56 4q-8 -4 -12 -4l-20 4q-28 -4 -48 -4q-10 0 -28 12q8 44 8 100v128q0 21 -12 24h-68q-6 0 -16 16v36l-4 40l16 12h36q12 4 12 24
v360q0 70 4 144q-4 13 -4 112v36q0 14 64 28v16q0 19 4 40q0 52 -36 52q-32 0 -32 12v8q0 6 24 24l24 -4q16 6 16 12v8q0 28 -20 28q-14 -4 -16 -4q-18 7 -28 24v96q0 4 4 4l-4 8v92l-4 48q15 12 36 12zM710 1444v-12h8v4q0 8 -8 8zM750 1368l-4 -8v-8q1 -8 8 -8l4 8v8
q0 8 -8 8zM126 1196v-4q0 -3 12 -12l28 4h116q6 0 12 12q-6 16 -28 16h-124q-6 0 -16 -16zM854 1124q1 -8 8 -8l4 8v8h-4q-8 -1 -8 -8zM166 812q0 -12 16 -12q26 0 68 8v16q0 6 -20 16q-64 0 -64 -24v-4zM778 436q5 -20 12 -20h8q12 33 12 76q-23 -17 -32 -56zM294 448v-16
h4v16h-4zM214 336v-24h8q6 0 16 16q-13 8 -24 8zM754 144v-8q8 4 12 4v4h-12z" />
    <glyph glyph-name="E" unicode="E" horiz-adv-x="809" 
d="M42 1578h176l24 -4q7 4 20 4v-4q4 0 4 4q28 0 32 -4q84 4 136 4h196q4 0 4 -4l8 4q77 -4 100 -4q8 -10 8 -16q-2 -32 -12 -32q-88 -4 -116 -4q-35 4 -40 4l-8 -12v-8q0 -6 12 -12h88q72 0 72 -28q0 -4 -4 -4l4 -40v-56q0 -2 -8 -12q-80 -4 -120 -4h-252q-31 0 -40 -20
q0 -24 60 -28l8 -12v-4q0 -40 -52 -40q-8 -13 -8 -24v-4q60 -5 60 -20q0 -11 -20 -20q-12 0 -12 4q-47 -4 -68 -4h-92q-29 0 -32 -12v-12l20 -4h76q132 0 132 -28q-3 -36 -12 -36h-32q-22 0 -28 -20q0 -4 4 -12l-4 -20l4 -24q-4 -26 -4 -52v-16q0 -16 88 -16h240q6 0 12 -12
v-8q0 -4 -4 -4q0 -4 4 -4q-4 -54 -4 -80v-24q0 -23 4 -64q0 -28 -96 -28h-188q-56 0 -56 -24v-4q0 -21 4 -80l-12 -8q-80 -4 -108 -4l-24 4q-21 -4 -40 -4h-24q-26 0 -52 4q-14 -4 -40 -4q0 6 -12 12q4 74 4 108v364q5 30 16 32q22 -4 36 -4q8 10 8 12v76q0 28 -52 28l-8 12
q0 32 52 32l4 8v32q0 10 -16 12q-21 -4 -24 -4q-6 0 -20 16l4 20v140l4 24q-3 5 -8 68q13 8 24 8zM38 554l20 -4h172q32 0 76 -4l8 4q18 -8 20 -16l-12 -20v-8l4 -24q-8 -13 -8 -24q12 -4 12 -24v-4q0 -4 -4 -4l4 -8v-12q0 -6 -12 -12h-36q-8 0 -16 -28q0 -3 4 -24
q-4 -8 -4 -12q0 -19 52 -36l20 4h12q7 0 20 -36q47 -4 68 -4h260q40 -1 40 -8l8 4h24q8 -1 8 -8v-52l-4 -24q0 -4 4 -4l-4 -28v-16l4 -28q-8 -1 -8 -8v-4q12 -15 12 -28v-4q0 -6 -12 -12h-4q-90 -8 -96 -8h-592q-17 0 -28 16l4 20v168q0 60 -28 60q-68 4 -68 16v24q0 9 4 16
q-12 32 -12 36q11 12 64 16q8 10 8 12v4q0 40 -4 120q20 13 20 16zM226 370l-4 -8v-8q1 -8 8 -8l8 12q0 6 -12 12z" />
    <glyph glyph-name="F" unicode="F" horiz-adv-x="744" 
d="M30 1548h560q42 0 128 -4l8 -12v-88q0 -12 -84 -12h-64l-20 -4v-16q0 -6 24 -16l8 4h8q40 0 120 -4q12 -21 12 -48q0 -28 -104 -28h-276q-22 0 -28 -20q0 -24 44 -24q28 0 28 -48q-22 -12 -36 -12v4q-32 -6 -32 -16v-8q0 -11 64 -24q0 -4 4 -4l-4 -40v-24l4 -24
q0 -28 -60 -28q-8 -13 -8 -24v-100l-4 -48q22 -20 48 -20h72q52 0 108 4q96 -6 96 -16v-4q-8 -13 -8 -24v-68q0 -34 4 -100l-12 -8h-36q-4 0 -32 -8h-44q-58 0 -132 4q-60 0 -60 -32v-60q0 -8 -8 -8h-24q-39 -8 -44 -8h-204q-21 0 -28 16v232q0 50 -4 92q4 22 4 80v76
q8 36 20 36h20l8 -4l12 16q0 9 -4 16q4 22 4 36v36q0 12 -52 16l-8 12v4q0 28 28 28q9 0 16 -4q16 6 16 12v24q0 12 -52 16q-8 13 -8 24v152l4 24q-3 10 -8 64zM278 932v-4h8v12q-8 -1 -8 -8zM30 500h152q152 0 152 -16q-7 -13 -12 -48l4 -20v-36q-6 -16 -28 -16h-12
q-4 0 -4 4q-24 -10 -24 -28q4 -27 4 -44v-12q0 -8 60 -20h28q8 -2 16 -20q-8 -20 -12 -20l8 -164l-4 -8q4 -7 4 -16v-4q0 -21 -12 -24h-4q-90 -8 -96 -8h-176q-13 0 -28 12q0 13 4 20q-4 71 -4 116v24q0 14 4 36q0 4 -4 4l4 20v4q0 32 -60 32l-8 -4q-13 0 -32 16q8 34 8 40
l-4 40l16 12l28 -4q24 9 24 32l-8 88zM214 328v-8q1 -8 8 -8q18 8 20 16q0 8 -8 8h-12q-8 -1 -8 -8zM314 144h8q0 25 16 40v4h-8q-16 -4 -16 -44z" />
    <glyph glyph-name="G" unicode="G" horiz-adv-x="889" 
d="M448 1550q178 0 256 -92q25 -8 60 -72q8 0 8 -28q-20 -5 -20 -12v-28q0 -29 12 -32h8q8 0 8 8v12l-12 16v16h8q32 -56 32 -72q64 0 64 -32v-20q0 -12 -48 -16q0 -6 -8 -16q16 -18 16 -20l28 4h4q6 0 12 -12v-12q0 -20 -8 -20q8 -53 8 -72q-6 -7 -52 -12q0 -28 -132 -28
h-32q-16 0 -32 -4q-15 4 -32 4h-56q-22 0 -32 16q8 22 68 28q0 4 4 12l-4 20q8 13 8 24q0 60 -60 60l-8 12q3 24 12 24h36q12 0 12 16q-14 32 -20 32h-28q-24 0 -64 56q-26 8 -36 8h-12q-27 0 -64 -40v-4q0 -12 48 -16q4 -8 4 -12l-4 -8q4 -7 4 -16t-12 -24l-20 4h-20
q-5 0 -20 -20q0 -7 24 -20l20 4h12q8 -1 8 -8v-68q0 -4 -4 -4l4 -8v-24q0 -8 -60 -20q0 -4 -4 -4l4 -48v-40q0 -22 -4 -56q4 -8 4 -12l-4 -28l4 -40q0 -20 -4 -60q4 -94 4 -192q0 -20 -8 -52q8 -28 8 -48v-88q0 -15 -64 -20l-4 -8q0 -80 48 -80q67 0 108 -48q7 0 48 -4
q0 9 36 16q8 13 8 24l-16 8q-22 -4 -32 -4q-32 6 -32 24q16 32 20 72l16 12l24 -4q20 5 20 12v192q0 9 -4 16l4 8q0 40 -48 40q-51 0 -68 20q0 18 4 52q-4 76 -4 128q-4 8 -4 12q17 16 32 16h20q30 0 44 4q26 -4 52 -4h60q14 0 36 4q7 -4 16 -4q27 4 44 4q0 -26 72 -36h28
q12 0 12 -52q0 -16 -4 -16l4 -40v-156q0 -71 -4 -176q4 -7 4 -20q-13 -8 -24 -8h-8q-4 0 -4 4q-32 0 -32 -56q-4 -22 -4 -32q96 -16 96 -36l-32 -80q-84 -180 -352 -180q-169 0 -240 48q-85 51 -104 116q-7 3 -48 116q-4 0 -12 4q-35 -4 -40 -4q-44 5 -44 20q0 7 4 48
q-8 16 -8 24q10 11 56 16l8 20l-4 64q0 33 4 64q-4 68 -4 140q0 26 4 68q-4 17 -4 68l16 48v4q-16 59 -16 64q0 22 4 56l-4 8q4 22 4 36l-4 24q0 21 60 36l4 8q0 12 -4 12l4 20v44q-6 13 -64 36v4q0 21 68 28l4 8v12q0 28 -44 28l-16 16q11 66 72 164q86 112 268 112h76z
M832 1126v-24h8l4 20v4h-12zM288 966v-12q12 -13 12 -44h4q0 25 20 48q-2 20 -24 20q-6 0 -12 -12zM212 694h-40q0 -4 -4 -12q1 -11 20 -20l8 4h12q4 0 4 -4q13 8 20 8v16q0 3 -12 12zM172 586q4 -16 24 -16h48q6 0 12 12v8q0 9 -20 12q-4 0 -12 -4q-22 4 -32 4
q-16 0 -20 -16zM700 318v-16h4q8 0 8 8v8h-12zM224 310v-4h8v4h-8zM764 162v-4h4q8 0 8 8v4h-4q-8 -1 -8 -8z" />
    <glyph glyph-name="H" unicode="H" horiz-adv-x="898" 
d="M60 1508h116q59 0 160 -4l4 -8v-8q0 -6 -12 -12l4 -20v-16q0 -16 -4 -16l4 -28v-140q0 -19 64 -24l8 -36q-8 -18 -16 -20h-36q-16 -8 -16 -24q10 -11 60 -16l4 -8v-100q0 -12 -56 -16q-14 -32 -16 -32l4 -20q0 -13 -4 -20q4 -22 4 -36v-36q9 -20 40 -20h68q45 0 108 8
q24 -16 36 -16h228q48 0 48 -16q0 -28 -4 -32l4 -40q0 -40 -8 -120q8 -20 8 -32q0 -21 -4 -80q0 -2 4 -52l-4 -40l4 -24h-4l4 -8q0 -4 -4 -4l4 -8v-40q0 -16 -60 -24q-12 -28 -16 -28q8 -15 8 -32v-16q0 -8 -8 -8h-28q-4 0 -32 -8h-100q-22 -32 -28 -32q0 -8 -16 -8
q-10 33 -20 40l-20 -4h-12q-32 0 -52 12l4 48l-4 28l12 20l28 -4h12q6 0 16 16q0 23 -8 48q4 8 4 12q0 23 -4 28q4 52 4 84v72q0 17 -16 32q-8 -4 -12 -4q-36 8 -52 8h-92q-22 0 -36 -24q0 -8 4 -8q-8 -84 -8 -116q4 0 4 -4l-8 -4q-20 12 -28 12q-29 -4 -36 -8l-24 4h-4
q-16 0 -32 -4l-20 4l-56 -4q-53 4 -88 4l-12 16v500q0 31 64 40q0 27 4 48q-4 14 -4 16l4 20q0 18 -64 28l-4 8v12q0 13 64 24l4 20q0 13 -60 28q-8 13 -8 24v64q0 63 4 128q-4 22 -4 44q15 12 36 12zM576 1508h136q46 0 140 -4l8 -12l-4 -20q0 -2 4 -16q-4 -28 -4 -48
q0 -4 4 -12l-4 -8q4 -56 4 -96v-20q0 -9 -4 -16q8 -18 16 -20h36q12 0 16 -36q0 -24 -44 -24q-12 0 -24 -24q8 -12 60 -16l4 -8q0 -9 -4 -44q0 -3 4 -32q0 -36 -24 -36q-37 0 -40 -16v-4q0 -34 4 -108q-8 -1 -8 -8q-80 -4 -120 -4h-128q-20 0 -60 -4q0 8 -8 8l4 48v36l-4 40
q9 18 68 28q4 54 4 80q0 23 -60 32l-4 8v12q0 12 60 24l4 8q0 32 -28 32q-29 0 -40 20v188l-4 24q4 7 4 16l-4 20q21 12 40 12zM364 1096v-8q8 0 8 8h-8zM816 932v-12q8 0 8 8zM156 880v-12q4 -12 24 -12h80q30 0 32 12v4q0 15 -12 24l-40 -8l-24 4h-36q-4 0 -4 4
q-18 -8 -20 -16zM812 600l8 -4h4q12 31 12 44q-21 0 -24 -40zM60 416h176q68 -8 76 -8h20q8 -1 8 -8v-4q0 -21 -12 -24q12 -22 12 -36q-14 -12 -52 -12q0 4 -4 4l-12 -16v-64q0 -7 44 -24q4 -6 4 -24h16q0 24 24 24q1 -8 8 -8q-5 -53 -8 -60q4 -27 4 -44v-76q0 -20 4 -60
q-9 -7 -72 -16l-20 4q-35 -4 -40 -4q-65 4 -72 4l-48 -4l-8 4q-16 -4 -28 -4q-10 0 -28 12l4 28v208q0 7 -24 20l-28 -4h-12q-22 0 -32 16v60q0 32 52 32q12 15 12 28v4q0 11 -8 24q0 23 44 28zM284 368v-16h12q4 14 4 16h-16zM584 172q4 0 32 -4q13 0 20 4q34 -4 56 -4h68
q124 0 124 -20v-8l-4 -36q4 -16 4 -28q-32 -10 -32 -16v-16q1 -8 8 -8q1 8 8 8l12 -20l-4 -8q12 -20 12 -32q0 -19 -88 -24q-4 0 -4 4l-28 -4h-124q-9 0 -16 4q-7 -4 -16 -4h-8q-22 0 -32 20q4 40 4 60l-4 8l4 8l-4 36q4 44 4 76zM312 108q6 -16 12 -16q8 25 16 36v16h-4
q-4 0 -24 -36zM328 68l-4 -20v-8q6 0 16 16v12h-12z" />
    <glyph glyph-name="I" unicode="I" horiz-adv-x="436" 
d="M48 1548q13 0 20 -4q44 4 76 4h28q59 0 160 -4q1 -8 8 -8q-4 -48 -12 -72q8 -15 8 -32v-8q0 -11 -8 -24l-24 4q-17 0 -36 -8q-14 4 -16 4q-41 -4 -48 -4l-48 4l-8 -12v-8q0 -3 12 -12l48 4h44q84 -7 84 -20v-48q0 -32 60 -32q4 -8 8 -36q-5 -16 -20 -24h-36q-6 0 -12 -12
v-4q0 -15 60 -20q4 -8 4 -12q-4 -50 -4 -52q0 -8 8 -28q-4 -32 -32 -32q-9 0 -16 4q-18 -8 -20 -16v-28q0 -16 -4 -32q4 -15 4 -32v-32q0 -6 -16 -16h-28q-13 0 -20 -4l-24 4h-72q-8 -1 -8 -8v-16q0 -6 16 -12q4 0 4 4q4 0 12 -4q41 4 64 4l28 -8l28 4q6 0 20 -16l-4 -28
v-316l4 -24q-4 -7 -4 -20v-56l4 -28l-16 -12h-12l-20 4q-12 -14 -20 -36l4 -20q-4 -28 -4 -32q60 -20 96 -24v-4q0 -34 4 -100q-4 -60 -4 -84l4 -28q-4 -8 -4 -12q4 -8 4 -12q0 -9 -108 -16h-104q-23 0 -64 4q-8 -4 -12 -4q-16 4 -28 12q0 9 4 16q-4 74 -4 124v44q0 20 4 60
q-13 8 -24 8h-44q-14 0 -32 16l8 40q-4 16 -4 32q0 6 24 20h24l8 -4l12 20q-4 73 -4 92q0 23 4 28q-4 41 -4 64v180q0 59 4 160q-4 16 -4 32q8 18 16 20h40q6 0 16 16v4q0 8 -8 8h-48q-6 0 -16 16v24q0 22 24 36l24 -4q13 0 16 64q-4 44 -12 52l-20 -4h-16q-5 0 -20 20
q8 28 32 28q21 -4 24 -4l8 12v16q0 11 -8 24q-8 0 -28 -8q-6 0 -24 20q4 80 4 120v48q0 17 4 44q-5 23 -12 32v4q0 8 24 16zM292 1484v-28q1 -8 8 -8l4 20l-4 16h-8zM332 228v-28h8q0 4 4 12q-4 7 -4 16h-8z" />
    <glyph glyph-name="J" unicode="J" horiz-adv-x="539" 
d="M230 1558h148q40 0 120 -4q1 -8 8 -8q-4 -27 -4 -44q0 -80 8 -188l-4 -8q8 -18 16 -20h40q12 0 12 -16q0 -4 -4 -4l4 -20v-8q0 -6 -12 -12l-40 4q-12 -20 -12 -28q6 0 16 -16l20 4h4q24 0 24 -16q0 -17 -4 -44q4 -22 4 -44q0 -21 -60 -24q-12 -20 -12 -32v-28
q-29 0 -32 -12q0 -23 16 -36q0 -2 -8 -12v-4q24 0 24 -16q0 -46 4 -108q-4 -21 -4 -24q4 -25 4 -56v-24q0 -12 -16 -12v-8q16 -46 16 -76q0 -37 -4 -104l4 -16q-4 -21 -4 -40v-32q0 -8 -16 -8v-8q24 0 24 -20q-8 -12 -60 -16l-16 -32v-16q0 -9 4 -16q-4 -7 -4 -16
q29 -16 64 -16h16q12 0 12 -16q0 -11 -24 -44q0 -55 -36 -84q0 -23 -76 -76h-4l-16 8l-72 -44l-20 4h-16q-37 -12 -100 -12h-136q-6 0 -16 16v36q0 21 4 36q-4 21 -4 40v52q0 48 16 48h4q156 0 156 28q0 8 -8 8h-36q-21 0 -28 16v8q14 16 24 72q20 12 28 12l16 -4
q20 3 20 24v8q0 20 -8 48q15 12 36 12h140l20 4v12q-6 16 -28 16q-16 0 -32 -4l-36 4q-54 -4 -76 -4q-20 7 -20 24q4 383 8 464q-8 53 -8 72q21 20 28 20l16 -4q20 3 20 24v64q0 28 -52 28q-12 9 -12 12v12q2 10 28 20q8 -4 12 -4q24 4 24 12v16l-4 20q-22 -4 -32 -4
q-9 1 -28 24l4 28v192l-8 28q15 12 36 12zM474 1494l-4 -20l8 -4h16v24h-20zM466 714v-4q4 -8 4 -12h8v8q0 8 -8 8h-4zM454 190l-4 -8v-24h4q0 8 8 28z" />
    <glyph glyph-name="K" unicode="K" horiz-adv-x="938" 
d="M42 1488h156q40 0 120 -4q0 -6 12 -12l-8 -48l4 -56q-4 -74 -4 -132h-4q0 -22 72 -24q0 -4 4 -4q0 -2 -4 -16q4 -21 4 -24q-5 -20 -12 -20h-20q-10 8 -16 8q-16 -4 -16 -24q4 -12 24 -12h28l12 -8q-4 -27 -8 -36l4 -20l-4 -36q8 -18 16 -20q16 0 52 104q0 9 -40 16l-4 8
v12q6 22 72 28q15 11 20 36q-8 0 -8 8l-8 -4h-16q-6 0 -16 16v8q64 145 84 152h220l40 -12l24 4l4 -8v-8q-61 -121 -68 -128v-8q0 -6 20 -16l8 4h16q6 0 12 -12q0 -24 -36 -44h-28q-22 0 -32 -20v-4q0 -10 48 -16v-12q-23 -27 -36 -64q-23 -44 -28 -44h-12q-9 0 -16 4
q-30 0 -56 -64q-16 -15 -72 -144q36 -60 96 -240q13 -16 48 -120q21 -52 52 -112v-4q0 -11 -52 -16q-4 -8 -4 -12q19 -72 40 -72q96 -8 96 -28q0 -11 40 -104q27 -54 52 -128q0 -16 -164 -16h-4q-45 0 -116 4q-7 -4 -16 -4q-20 0 -80 184q-28 80 -48 80q-96 0 -96 36
q-4 26 -20 52q0 17 40 20v-4q8 4 12 4v4q-15 71 -36 104q-15 56 -32 56q-32 -51 -32 -88v-44q8 -28 8 -32q0 -8 -8 -8h-32q-24 0 -24 -24v-28q-16 -24 -28 -24v-8h4q33 0 76 -16h4l28 8l8 -12q0 -12 -4 -28q4 -60 4 -100q0 -10 -4 -32q4 -15 4 -36q-4 -28 -4 -32
q8 -13 8 -20l-8 -4h-24q-58 -8 -60 -8q-23 0 -28 4q-34 -4 -56 -4h-108q-14 0 -32 16q4 40 4 60v68q0 34 -4 72v44q-96 4 -96 24q0 10 8 40q-4 16 -4 32q13 15 56 20q8 16 8 28q0 4 -4 4l4 24q0 28 -4 28q4 40 4 60v156q0 118 -4 260q4 28 4 80l-4 24q0 24 64 28q0 4 4 4
l-4 24q4 42 4 68q-11 13 -56 16l-12 16q12 28 36 28q4 0 4 -4q24 5 24 12v28q0 8 -8 8l-24 -4q-18 7 -32 28v60q0 19 4 40q-4 15 -4 36l4 48l-4 20l4 20q-8 13 -8 20q20 12 32 12zM606 1488v-4l8 4h12q4 0 4 -4l8 4h44q4 0 4 -4l8 4h64q4 0 4 -4q8 4 12 4q10 0 104 -4l8 -12
q-29 -60 -60 -60h-264q-16 8 -16 20l28 48q15 8 32 8zM350 1080l-4 -8v-4q1 -8 8 -8q8 4 12 4v12zM170 1064l-12 -16v-16l20 -4h28q6 0 12 12q0 15 -48 24zM538 876v-8q6 0 12 12v4h-4q-8 -1 -8 -8zM574 624v-16h8v8q0 8 -8 8z" />
    <glyph glyph-name="L" unicode="L" horiz-adv-x="852" 
d="M52 1518q4 0 4 -4l8 4h132q60 0 96 -8q6 4 24 4l20 -12q-2 -36 -8 -36l4 -8v-32q0 -9 -4 -16q8 -20 8 -28q-4 -15 -4 -32q16 -8 16 -12l8 4q40 -5 40 -16v-28q0 -6 -16 -16q-25 0 -136 -8q-45 4 -84 4q-50 -4 -60 -4q-13 16 -24 56q-8 4 -12 4l-24 -4q-20 18 -20 76
q0 3 4 24q-4 48 -4 72q17 16 32 16zM288 1450v-4q1 -8 8 -8l4 8v12h-4q-8 -1 -8 -8zM44 1290q11 0 16 -40l8 -4h176q6 0 64 -8h16q6 0 12 -12q0 -28 -8 -28l4 -20v-140l4 -24l-12 -20l-28 4q-38 -12 -60 -12h-88q-14 0 -36 4q-8 -4 -12 -4q-35 4 -44 4l-20 -4q-16 17 -16 32
v40q0 12 4 12l-4 20v96q0 17 4 44q-4 7 -4 20q0 26 24 40zM284 1194l4 -20q24 0 24 24l-8 4h-12q-8 -1 -8 -8zM36 962l24 -4q14 0 36 4q65 -4 116 -4l36 4q80 -15 80 -20q4 0 8 -12q-4 -28 -4 -48q0 -21 60 -28v-8l-4 -8q4 -7 4 -16v-4q0 -11 -52 -16q-8 -13 -8 -24
q0 -12 4 -12l-4 -40v-448q0 -33 64 -48l4 -8v-4q0 -4 -4 -4q4 -8 4 -12h4q8 0 8 8v4l-4 8l8 4q6 -28 20 -28l28 4l40 -8q70 4 88 4q32 0 84 -4l56 4q53 -4 88 -4l4 -8q0 -71 -8 -92q8 -22 12 -84q0 -36 -40 -36q-27 -4 -84 -4h-244q-9 0 -16 4q-7 -4 -16 -4h-8q-13 0 -20 4
l-24 -4q-43 0 -92 8q-60 -8 -88 -8q-4 0 -4 4l-20 -4h-28q-21 0 -28 20q4 54 4 80v140q0 23 -24 28l-20 -4q-56 6 -56 16v340q0 63 4 208q6 0 16 16l20 -4h16q8 0 8 8v32q0 12 -52 16q-12 15 -12 32q0 49 16 64zM784 126v-16q1 -8 8 -8v24h-8zM784 82v-8h8v16q-8 -1 -8 -8z
" />
    <glyph glyph-name="M" unicode="M" horiz-adv-x="1188" 
d="M60 1548h28q5 0 44 -8q54 8 68 8h20q13 0 20 -4l24 4h20q35 0 108 -12q22 4 32 4l8 -12l-8 -12l4 -24h-12l-20 28q-8 -4 -12 -4v-16q17 -33 48 -56q15 -19 36 -72q4 0 4 -4l20 4q40 0 40 -48q0 -17 -52 -20q-8 -25 -8 -32q8 -30 8 -56v-12q11 -8 24 -120q3 0 12 -48
l-4 -20q8 -19 28 -112l8 -4h28q31 0 36 -56l20 -4h16q17 0 20 48q-8 4 -12 4q-14 -4 -16 -4q-22 8 -32 20q24 161 36 212q17 196 44 196q9 0 16 4l8 -4q24 5 24 12v24q0 9 -20 12l-20 -4q-16 16 -16 24q22 150 36 164h300q92 -8 96 -16l-4 -40v-100q0 -28 56 -28
q12 -17 12 -32q-10 -26 -20 -28l-24 4q-14 0 -28 -44q-80 -4 -120 -4h-72q-44 0 -44 -12v-4q0 -11 40 -16h72q119 0 132 -12l-4 -48v-256q0 -13 68 -28v-8q0 -40 -40 -40q-28 0 -28 -28q0 -9 4 -16q-4 -20 -8 -20l4 -28v-152q0 -22 4 -56q-4 -7 -4 -20q4 -8 4 -12
q-15 -12 -28 -12q-9 0 -16 4q-72 -4 -72 -16v-12q0 -6 12 -12h8q13 0 20 4q72 -4 72 -16v-140q0 -36 56 -36h28q6 0 16 -16q-8 -9 -12 -80l4 -8q0 -3 -4 -32q0 -19 8 -112q-6 -16 -12 -16h-8q-4 0 -4 4q-17 -8 -64 -8h-88l-24 4q-7 -4 -16 -4q-10 0 -32 4q-22 -4 -32 -4
l-20 12q4 54 4 80v20q0 14 -4 36q0 4 4 4l-4 28v80l-20 4h-28q-11 0 -20 -64l4 -16q-24 -67 -24 -92q0 -88 -28 -88q-21 0 -80 -4l-40 4q-42 -4 -92 -4h-4l-24 4q-7 -4 -20 -4h-4q-19 0 -32 132q-5 0 -8 16l4 8q-15 108 -24 108h-20l-40 4q-9 -9 -16 -60l12 -68l-4 -16
l4 -20q-8 -18 -16 -20l16 -32q-3 -48 -16 -48h-56q-9 0 -16 -4q-4 0 -4 4l-20 -4h-116q-56 0 -56 16q3 64 8 64l-4 28v44q0 22 4 56q-8 20 -8 28l16 12h24q52 0 52 12v12q0 6 -16 12q-3 0 -24 -4q-12 0 -12 4l-40 -4h-44q-48 0 -48 16v428q0 14 -4 36q4 8 4 12t-4 12
q0 60 40 60h28l4 16q0 36 -60 36l-12 16v72q0 17 4 44q0 4 -4 4l4 40v28q0 19 -4 40q4 47 16 72q-8 30 -8 36q0 60 48 60q11 3 20 20v32q0 8 -8 8h-8q-4 0 -32 -8h-4q-17 10 -24 28q0 5 4 40l-4 64q8 24 12 24l-4 8v4q10 20 32 20zM364 1340l-8 -12v-8q10 -20 32 -20l24 4
q21 -4 40 -4q4 0 16 16q-8 18 -16 20h-28q-20 0 -60 4zM452 1196l-4 -8l4 -64q6 0 16 56q4 0 4 4v8zM476 1024v-8q0 -6 16 -16q8 13 8 24v12q0 6 -12 12q-12 -4 -12 -24zM764 944v-4h12v12h-4q-8 -1 -8 -8zM548 812q4 -21 4 -24t-4 -24q0 -2 4 -16q-4 -16 -4 -28
q0 -19 24 -36q11 0 20 100q0 12 4 28q0 21 -28 24q-12 -2 -20 -24zM1064 776q0 -8 -4 -8l4 -8q0 -5 -4 -40l4 -20h8q0 9 12 24l-16 28l4 24h-8zM216 648q-8 -13 -8 -20q6 -16 12 -16h8q6 0 12 12q0 24 -24 24zM308 632l-4 -28v-152q0 -42 -4 -88q4 -16 4 -72v-4
q0 -13 60 -16l4 8v8q-44 277 -44 312q-4 32 -12 32h-4zM756 616q4 -15 4 -32q5 0 16 28q0 8 -8 8h-4zM480 604v-8q1 -8 8 -8h16q6 0 12 12v4q-4 12 -24 12q-6 0 -12 -12zM804 616l-24 -156q0 -40 -24 -168q0 -13 36 -20q20 5 20 12v80q0 17 4 44l-4 8q4 28 8 140
q0 15 -12 60h-4zM760 568v-12h4v12h-4zM372 188q1 -8 8 -8v16q-8 -1 -8 -8zM792 148v-40h8v20q0 10 16 12q0 6 -16 16q-8 -1 -8 -8zM204 36q6 -16 12 -16h44q6 0 12 12v8q0 6 -12 12h-32q-17 0 -24 -16z" />
    <glyph glyph-name="N" unicode="N" horiz-adv-x="949" 
d="M62 1468h196q160 0 160 -40q0 -64 24 -100q0 -44 72 -44q12 -27 12 -44v-4q0 -8 -8 -8q-22 4 -32 4q-12 -17 -12 -32q12 -32 12 -40l-4 -8q44 -122 44 -156q32 -81 40 -144l8 -4h8l4 20v4q0 67 -8 124q4 91 4 172v48q0 14 68 28v8q-3 32 -28 32l-8 -4q-9 0 -36 24l4 28
v80l4 24q-4 7 -4 20q15 12 36 12l28 -4q15 4 36 4v-4l8 4h8q25 0 60 -4l20 4q60 -8 60 -12l8 4h12q6 0 16 -16v-16q-16 -18 -16 -20l16 -28l-4 -20l4 -24l-20 -12l-20 4q-76 -10 -76 -20v-8q1 -8 8 -8h20q42 0 128 -4q20 -27 20 -44q-20 -16 -24 -16q-8 4 -12 4
q-32 -6 -32 -60q0 -19 4 -40q-4 -34 -4 -56q0 -20 4 -60q-4 -22 -4 -32q4 -21 4 -24l-4 -28q4 -35 4 -44l-4 -36q0 -44 60 -44q4 -7 8 -40q-7 -7 -60 -20l-4 -8v-24q0 -23 -4 -28q4 -22 4 -32q0 -49 -4 -120q4 -47 4 -68q-4 -50 -4 -60q4 -27 4 -44q-4 -8 -4 -12q4 -7 4 -20
q-2 -8 -20 -16q-22 4 -32 4q-16 -1 -16 -8l-28 4h-24q-24 0 -24 -24q15 -12 28 -12q21 0 36 4q26 -4 52 -4h16q6 0 12 -12q0 -9 -4 -44q0 -36 60 -36q40 0 40 -12v-4q0 -14 -88 -16q-4 0 -12 4q-27 -4 -44 -4h-48q-6 0 -12 -12v-4q4 -12 24 -12h84q48 -1 48 -8l8 4h16
q11 0 24 -8q-8 -43 -8 -56q4 -94 4 -128q-8 -1 -8 -8q-86 -4 -128 -4h-120q-9 0 -16 4q-7 -4 -16 -4q-40 0 -40 48q-12 29 -12 36v4q0 11 48 20l4 8v4q0 6 -12 12h-28q-37 0 -44 80q-14 47 -24 52q-4 0 -4 -4q-92 0 -92 44q-8 52 -72 264q-48 162 -48 200q0 23 -28 60
l-12 -20q8 -38 8 -48q-4 -97 -4 -148h-4q4 -24 8 -24l-4 -20v-28q0 -22 4 -56l-20 -60q-20 -7 -20 -32l4 -16h8l12 8h8q9 0 12 -20l-4 -36q0 -56 36 -56q28 -3 28 -8l8 4h8l16 -12l-4 -40v-48q0 -9 4 -16q-8 -16 -8 -28q0 -10 8 -108l-16 -12h-4q-23 0 -64 -4q-4 0 -4 4
l-20 -4h-56q-9 0 -16 4q-7 -4 -16 -4l-40 4q-22 -4 -32 -4q-18 8 -20 16v60q0 38 -4 76q4 27 8 104q-16 8 -16 12l-40 -4h-8q-31 0 -36 16v176q0 90 4 212q-4 26 -4 52q4 48 4 108q60 18 60 36v24q-60 0 -60 32l-4 16q4 26 4 52q0 4 -4 12q0 4 4 4q-4 54 -4 80q0 61 4 188
q-4 8 -4 12q0 28 64 40q4 14 4 16q-1 9 -24 28l-16 -8q-18 7 -28 24l4 24l-4 28l4 20l-4 20q4 35 4 44q-4 8 -4 12q17 16 32 16zM826 532v-8h4v8h-4zM178 120v-12q8 -16 24 -16q17 0 44 4q42 -4 92 -4q18 8 20 16v12q-28 8 -48 8h-124q-8 -1 -8 -8z" />
    <glyph glyph-name="O" unicode="O" horiz-adv-x="863" 
d="M380 1560q152 0 232 -24q47 -20 104 -64q0 -12 40 -40q13 -64 60 -64q43 0 60 -44v-4q-14 -14 -52 -20q0 -28 -52 -28h-72q-6 0 -12 -12v-12q0 -12 16 -12q31 0 112 -4q7 -6 12 -52l-8 -80q4 -41 12 -68q0 -44 -32 -44h-176q-6 0 -12 -12v-12l8 -12l20 4h64
q128 0 128 -20q-4 -12 -8 -12q0 -31 64 -44v-8l-4 -8q8 -13 8 -20q-15 -12 -24 -12l-16 4q-28 -14 -28 -32q0 -4 4 -12q-4 -34 -4 -56v-12q0 -22 4 -56q0 -4 -4 -4q4 -21 4 -24q0 -28 -4 -108q4 -28 4 -32q-4 -15 -4 -32q0 -9 4 -16q-4 -22 -4 -36v-48q0 -32 -4 -76
q0 -23 44 -28h36q6 0 12 -12q-23 -76 -32 -76q-17 0 -140 -8q-4 0 -4 4l-20 -4h-76q-26 0 -80 4l-12 -16q0 -4 16 -16l20 4h24q51 0 112 -4l20 4l20 -4l28 4l24 -12h16l12 8h12q12 -4 12 -24q-35 -31 -68 -52q0 -30 -128 -68q-92 -16 -148 -16h-64q-142 14 -176 48
q-44 18 -108 104l-52 132h-60q-32 0 -32 24q-4 38 -4 84v348q0 22 -4 56q4 8 4 12l-4 24q2 23 60 28q7 10 12 32q-6 16 -12 16h-28q-22 0 -32 20q0 22 24 32l28 -4h16q13 0 20 4l20 -4q97 4 124 4l52 -12q8 4 12 4l36 -44h36q6 0 12 -12v-32q-2 -8 -20 -16q-22 4 -36 4
q-12 -13 -12 -20q4 -28 4 -32q-4 -12 -8 -12l4 -20v-40q0 -9 -4 -16l4 -8q-4 -34 -4 -56q4 -35 4 -40h-4l4 -8v-40q0 -4 -4 -4l4 -8v-168q0 -92 52 -92q8 0 28 -8l24 4h8q35 -52 68 -52h12q9 1 32 24q22 0 28 16v4q0 8 -8 8h-60q-6 0 -12 12v4q12 10 12 108v432q0 9 64 24
v40q-62 0 -68 28l4 40l-4 24q4 16 4 28q0 18 -4 24q4 27 4 44v96q0 17 -4 44q4 8 4 12q0 39 -28 64v8q0 4 28 24l-28 8q-22 0 -64 -24q-4 0 -4 4q-80 0 -80 -92l-12 -40q0 -28 4 -88q-4 -48 -16 -48h-8l-8 4l-4 -8v-8l4 -8l8 4h8q20 -10 20 -32q0 -24 -116 -24h-184l-16 12
l4 20q0 8 -4 8l4 28v172q9 100 32 100q56 0 56 36v4q0 6 -44 16l-4 8q0 16 68 104q10 0 52 40q81 44 196 44zM300 1256v-4q1 -8 8 -8h4q8 0 8 8v12h-12q-8 -1 -8 -8zM300 736q0 -4 -4 -12q4 -19 4 -52h4q0 10 4 60z" />
    <glyph glyph-name="P" unicode="P" horiz-adv-x="829" 
d="M56 1538h16q4 0 4 -4l8 4h284q277 0 332 -88v-12q-6 0 -12 -12l44 -40q7 4 16 4q0 -14 48 -48q6 -16 12 -16h8q3 20 12 20q20 -16 20 -28l-12 -8h-4l-24 4q-20 -8 -20 -12q-4 0 -12 4q-34 -4 -56 -4h-4q-13 0 -20 4l-24 -4l-40 4q-22 -4 -32 -4l-24 4l-4 -8v-20
q0 -6 24 -16q2 0 16 4q152 0 152 -28h8l20 4l4 -8v-8q-7 -21 -92 -24h-76q-4 0 -4 4q-11 0 -20 -20q6 -16 12 -16h176q24 -2 24 -12q0 -38 -4 -76q4 -22 4 -36q-5 -32 -16 -32q-10 0 -20 36h-12q-12 -4 -12 -24v-8q0 -17 8 -32q-4 -7 -4 -16q8 -25 8 -32h4q2 0 12 8
q16 -6 16 -12q0 -9 -20 -12q0 8 -8 8h-4v-24h8l8 4q24 -21 40 -44l20 12h12q8 -1 8 -8q-15 -30 -24 -32q-14 4 -16 4q-9 0 -56 -44v-40q-12 -60 -64 -100q-8 -16 -60 -44q0 -9 -20 -12l-36 4q-36 -28 -180 -28q0 -4 -4 -4q-7 4 -16 4h-32q-21 0 -28 -16l-20 4h-16l-4 -20
v-12q7 -16 48 -32v-8q0 -21 -4 -36q4 -26 4 -52v-20q0 -29 -12 -32h-8l-20 12q-16 -4 -16 -20l12 -20v-4q0 -12 -16 -12v-8q37 -40 112 -52l4 -8q-16 -28 -16 -40v-4q0 -6 12 -12h16l20 4q12 -15 12 -24q-3 -24 -8 -24l4 -40v-80l4 -20l-12 -8l-28 4q-26 -8 -36 -8h-12
q-4 0 -4 4q-8 -4 -12 -4t-4 4l-20 -4h-160q-22 0 -32 20l4 48q0 8 -4 8l4 28v44q0 25 -4 60q0 44 20 44v4q-18 20 -44 20q-50 -8 -68 -8l-4 8v4q16 18 16 48l-4 40q8 24 16 24t8 -4l40 4h8q28 0 88 -4l4 8v4q0 28 -40 28q-16 4 -72 4h-36q-16 6 -16 32q0 32 4 76
q-12 62 -12 76v64q0 42 4 88q-4 17 -4 60q15 12 28 12h28q12 4 12 24v20q0 8 -8 8h-32q-28 0 -28 28v80l4 24q0 4 -4 4l12 60q-4 35 -4 44q0 12 4 28q-4 25 -4 56q0 92 20 92q48 0 48 16q0 44 -24 44q-26 -8 -36 -8l-16 28q4 27 4 44l-4 8q0 4 4 4l-4 48v40q0 10 32 16z
M332 1290q0 -14 4 -36q-4 -54 -4 -80q0 -9 4 -44q0 -17 -52 -60l-4 -20v-4q1 -8 8 -8q-4 -54 -4 -80v-56q0 -8 12 -8q26 8 36 8l20 -24l20 4h16q6 0 12 -12q-4 -8 -4 -12q8 -13 8 -20q-20 -9 -20 -12l-20 4h-12q-6 0 -12 -12v-8q0 -9 28 -16q188 46 188 64v16q0 8 -8 8h-36
q-12 0 -16 32q0 4 4 12l-4 24v8l12 40v148l-12 16v40q0 68 -32 68v8q0 2 16 20q0 5 -36 20q-112 -12 -112 -28zM352 866v-8h8q0 8 -8 8zM416 242h8v-4h-8v4z" />
    <glyph glyph-name="Q" unicode="Q" horiz-adv-x="883" 
d="M360 1426q251 0 308 -52q75 -45 88 -88q-24 -5 -24 -20q4 -8 4 -12h12l20 16h4q22 -44 88 -44q12 -15 12 -28v-16q0 -12 -48 -16l-8 -16q8 -20 12 -96q-10 -8 -12 -8h-8q-36 0 -48 -4q-35 4 -60 4h-40q-29 0 -32 -12v-12q0 -4 16 -16l8 4h80l24 4q15 -8 32 -8h28l16 -12
q-8 -30 -8 -40l4 -28l-4 -8l4 -8l-4 -40l4 -40q-4 -19 -4 -52q0 -8 28 -28l8 4h24q6 0 12 -12v-28q-6 -16 -28 -16q-4 0 -12 4q-24 0 -28 -56q-25 -12 -108 -12l-8 -12v-8q0 -13 84 -16q7 4 16 4l16 -8q-4 -101 -4 -160v-176q0 -22 4 -56l-8 -40q16 -32 44 -32h36
q6 0 12 -12v-4q0 -16 -132 -16h-92q-6 0 -12 -12v-4q0 -6 12 -12h112q30 0 56 -12l24 4q8 -1 8 -8q-12 -36 -12 -48q46 -20 92 -24v-124l-4 -24q0 -11 20 -20q22 4 36 4q6 0 12 -12v-20q0 -13 -72 -16q-14 4 -16 4q-21 -4 -40 -4q-34 0 -164 40q-42 0 -80 48
q-55 -12 -100 -12h-100q-93 0 -184 48q-91 56 -128 176q-7 56 -36 56h-40q-48 0 -48 76q-4 0 -4 16v8q6 20 52 20h20q15 0 108 -16q35 4 60 4q32 -12 40 -12l28 4q11 -8 20 -80q33 -16 68 -16h28q43 -52 72 -52q26 0 68 40l-12 8h-12q-56 0 -56 16q12 14 16 60q0 8 -4 8
q4 40 4 60v328q0 14 -4 36q4 5 4 28v20q14 24 36 24q4 0 4 -4q20 6 20 28v12q0 4 -16 12l-8 -4h-4q-22 0 -32 20v208q0 168 -24 168v8q0 28 28 28v4q-15 8 -32 8h-8q-62 -28 -108 -28q-22 -21 -40 -56q-32 0 -76 -8q-7 4 -20 4q-15 0 -28 -16q4 -16 16 -16q5 0 40 4
q68 -11 68 -24v-212q0 -14 -4 -36q4 -6 4 -24l-20 -8q-8 0 -8 4q-60 -4 -88 -4h-180q-16 7 -16 28v32q0 30 4 44q-4 26 -4 52v76q9 168 28 168q60 0 60 24q4 8 4 12q-4 8 -4 12h-24q-6 0 -16 16q41 104 72 104q0 22 108 68q70 16 108 16zM780 1126v-12h8v12h-8zM384 758
l20 -12q0 -48 -28 -48q-40 0 -40 -36q-4 -54 -4 -76q0 -34 4 -100q-4 -58 -4 -64q4 -77 4 -148q-13 -8 -24 -8h-4q-52 12 -68 12h-36q-51 0 -112 4q-15 -4 -32 -4q-34 0 -36 20q0 80 4 280q-8 53 -8 56q0 20 120 20q4 0 32 -4l20 4q25 -4 56 -4l4 8v16q0 8 -8 8h-160
q-9 0 -16 -4q-36 5 -36 12v4q0 6 12 12h36q5 0 16 32l44 8l20 -4l28 4q22 -4 32 -4l20 4l20 -4q10 0 32 4q25 -4 56 -4q18 16 36 16zM68 630l-12 -16q4 -12 24 -12h36l20 4v12q0 3 -12 12l-8 -4h-20zM932 -58l-4 -8q1 -8 8 -8l4 8q0 8 -8 8z" />
    <glyph glyph-name="R" unicode="R" horiz-adv-x="886" 
d="M44 1548q8 0 8 -4q54 4 80 4h252q281 0 352 -100q6 0 12 -12l-4 -36l8 -4q8 4 12 4q31 -40 84 -40l4 -8v-4l-4 -8q-101 -4 -160 -4h-120q-6 0 -12 -12q7 -16 28 -16h152q8 0 32 -12q3 0 24 4q21 0 24 -56q-4 -8 -4 -12q0 -12 4 -12l-4 -48v-104q0 -75 -20 -160
q16 -12 52 -16v-8q0 -12 -72 -16q0 -4 -8 -4q-12 0 -28 4q-35 -4 -44 -4l-64 4q-24 -8 -24 -16v-8q0 -6 16 -12q4 0 32 4q52 -4 84 -4l8 -12v-4l-72 -52v-16q56 -12 120 -124l-8 -16q-138 -4 -200 -4h-124q-56 24 -108 24q-20 -8 -20 -12q0 -6 4 -48q-21 -16 -116 -16h-4
q-8 -1 -8 -8v-8q20 -33 20 -44h32q15 0 36 -16q7 16 28 16q12 0 12 -16q0 -4 -4 -4q0 -2 4 -16q0 -14 -4 -36q0 -3 4 -32q0 -18 -8 -88q0 -21 56 -36l8 4h28q6 0 12 -12q0 -3 -4 -24q4 -8 4 -12q-8 -13 -8 -24v-68q0 -4 -4 -4l4 -8v-24q0 -9 -4 -16q8 -18 8 -52v-8
q0 -12 -16 -12q-22 0 -76 -4q-4 0 -4 4l-28 -4h-128q-9 0 -16 4q-7 -4 -16 -4q-13 0 -28 12q4 47 4 68v40q0 19 -4 40q4 15 4 36v4l-4 48h4q0 20 -80 20h-8q-10 8 -12 8l4 28v220q0 31 4 56q-4 20 -4 52v84q0 9 -4 16l8 20q-3 16 -8 16l4 20l-4 24q0 18 28 32l24 -4h4
q6 0 12 12v32q0 8 -8 8h-28q-28 0 -28 28v288q0 4 4 4l-4 8v48q0 9 -4 16q0 25 44 36q7 -4 16 -4l8 12v12q0 28 -24 28q-13 -8 -24 -8q-16 20 -16 24t4 12l-4 36l4 28l-4 20l4 28l-4 28q20 8 20 12zM364 1304q-8 4 -12 4q-16 -4 -16 -24v-44q0 -69 -4 -180l4 -24
q0 -44 -44 -44l-8 -16l12 -20q4 0 4 4q36 -5 36 -16v-4q0 -9 -4 -16q10 -36 20 -36q8 0 28 8q16 -4 16 -16q-4 -8 -4 -12q18 -12 28 -12q78 0 100 28v8h-24q-6 0 -12 12v4q12 56 36 56q18 0 24 -4l108 8q6 -4 24 -4q16 6 16 12v4q-4 12 -24 12h-104q-4 0 -4 4l-8 -4h-32
q-6 0 -12 12v28q0 31 -4 56q4 21 4 40l-4 48q4 21 4 40q-15 51 -40 76q4 8 4 12q-26 16 -48 16zM504 576l36 -4q4 0 12 4l20 -4l24 4l28 -4q70 4 84 4q100 -5 100 -16q8 -97 8 -108v-8q0 -6 -12 -12h-28q-5 0 -44 -8h-20q-9 0 -16 4q-6 0 -16 -16q4 -16 24 -16h24
q23 0 64 -4l8 4q20 -6 20 -28q0 -4 -4 -12q4 -16 4 -28q-8 -25 -8 -28q15 -32 72 -32q18 0 32 -12q-5 -45 -8 -56l4 -24v-4q0 -16 -4 -32q4 -48 28 -124l-16 -12h-8q-32 0 -76 -4q-4 0 -4 4l-28 -4h-160q-30 0 -40 68v120q0 76 -16 76h-24q-56 0 -56 16v208q0 22 -28 76
q16 12 24 12zM296 320l-8 -20l8 -4h12q8 0 8 8v4q-7 0 -20 12z" />
    <glyph glyph-name="S" unicode="S" horiz-adv-x="826" 
d="M378 1560q159 0 232 -32q72 -28 132 -108v-8q0 -8 -52 -12q-44 0 -44 -28l16 -8l28 4l24 -4q22 4 36 4q96 -3 96 -28v-20q0 -6 -16 -16l-24 4q-5 0 -20 -20q16 -35 16 -152q-6 0 -12 -12q-86 -4 -128 -4h-132q-13 0 -28 12q4 35 4 44q-12 112 -28 112v4q0 11 32 28v4
l-16 4q-49 0 -72 -28q-28 4 -32 4q-48 0 -68 -124q17 -41 28 -100h-4q23 -66 132 -172q10 -8 52 -20q8 4 12 4q19 -1 72 -52q-10 -8 -12 -8q-9 0 -16 4q-16 -6 -16 -12v-4q14 -23 52 -40q0 -13 60 -76q100 -134 100 -208q12 0 20 -140q-8 -54 -8 -68q0 -16 52 -24h24
q6 0 12 -12v-4q0 -12 -76 -16q-4 0 -4 4l-20 -4h-140q-6 0 -12 -12v-8q1 -8 8 -8h88q46 0 140 -4l4 -8q-21 -77 -60 -100q0 -12 -20 -24l-20 28q-21 0 -44 -72q-58 -32 -152 -32q0 -9 -36 -12h-96q-110 0 -212 68q-28 25 -60 68v12q0 6 12 12h136q17 0 44 4l24 -8
q20 7 20 24q-13 8 -24 8h-212q-40 0 -40 52q0 26 -24 40h-28q-60 0 -60 20q-4 84 -4 136v4q0 9 -4 16q11 32 20 32h204q28 -1 28 -8l20 4h16l12 -8q0 -15 -8 -84q13 -72 20 -88q0 -20 80 -20l8 4q17 0 36 -36q26 -16 40 -16h8q23 0 60 36v4q-80 3 -80 20q12 0 20 80
q0 111 -112 236q-20 15 -112 116q-112 85 -112 120v4l4 8l20 -4q8 0 8 8v8l-28 36l-20 -4h-8q-77 0 -116 256v36q0 40 12 92l-4 8q0 40 68 40q12 10 12 32q0 9 -40 16q-8 10 -8 16q47 91 84 104q55 76 236 76zM758 1260v-12h4v12h-4zM286 1180q6 -16 12 -16q8 0 8 8l-4 20
h-4q-6 0 -12 -12zM262 424v-4q-4 -50 -4 -60l8 -4h4q6 0 16 16q0 21 -12 36q8 10 8 12v4h-20zM758 352q0 -35 -4 -60h16l-8 60h-4zM790 136l-12 -20l8 -4q6 0 12 12v4q0 8 -8 8z" />
    <glyph glyph-name="T" unicode="T" horiz-adv-x="806" 
d="M-2 1548h352l72 -8q43 8 56 8h16q13 0 56 -8q38 8 60 8h8q19 0 40 -4l24 4q92 -4 92 -24v-28q12 0 16 -20q-4 -27 -4 -44v-24q0 -9 -4 -16q0 -21 28 -24l8 4q36 -5 36 -24q-9 -24 -28 -24q-20 0 -20 8l-104 -16q-26 4 -52 4q-116 -16 -116 -28q-4 -22 -4 -36v-4l4 -24
q-4 -8 -4 -12l4 -28q-8 -18 -16 -20h-4q-9 0 -20 60l-8 4q-12 -15 -12 -44q13 -60 44 -60q16 -29 16 -36q-8 -18 -16 -20h-12q-25 0 -60 -4q-4 0 -12 4q-22 -4 -36 -4h-48l-4 -16l16 -12h92q12 0 32 -12l24 4h8q4 0 16 -20q-4 -40 -4 -60v-40q0 -17 64 -24l4 -8v-28
q0 -15 -56 -20q-9 -20 -12 -20q0 -8 4 -8q-4 -47 -4 -68v-128q0 -16 -8 -52q8 -36 8 -52v-200q0 -40 96 -40q4 -8 4 -12t-4 -12q4 -16 4 -28q-8 -13 -8 -24v-64q0 -34 8 -84q-5 -36 -16 -36h-20q-17 0 -44 -4q-4 0 -4 4l-40 -4h-132l-24 4q-7 -4 -20 -4q-6 0 -12 12v244
q0 12 -92 12q0 8 -8 8l4 28v448q0 20 12 40l-4 24v8q0 15 48 24q8 15 8 32q0 6 -12 12h-36q-6 0 -16 16v116q0 37 -4 68l8 120q-4 23 -4 64v4l4 28q-17 12 -32 12q-8 0 -8 -4l-40 4h-88q-24 0 -40 40q-8 4 -12 4l-24 -4q-8 20 -12 20l4 40v8q0 22 -4 56q4 8 4 12
q-4 16 -4 32v4q7 16 28 16zM734 1396v-12h8q8 0 8 8v4h-16zM482 724q3 -52 12 -52q0 19 12 56q-8 16 -8 28q4 7 4 16l-8 4q-9 0 -12 -52zM486 580q4 -8 4 -12h12q8 0 8 8v4q0 8 -8 8h-8q-8 -1 -8 -8z" />
    <glyph glyph-name="U" unicode="U" horiz-adv-x="872" 
d="M50 1568l48 -4h16q16 0 16 4l28 -4h92q23 0 64 -4q8 4 12 4l20 -12l-4 -28v-12q0 -9 4 -16q-3 -16 -8 -16q0 -9 4 -16q-4 -56 -4 -96v-4q0 -22 4 -56q-4 -7 -4 -20q7 -23 28 -32l8 4h20q6 0 12 -12v-4q0 -9 -32 -12v4q-27 -8 -32 -24q4 -21 4 -24q-4 -22 -4 -36h-4
q-16 8 -28 8l-4 -8l4 -20l-4 -28q0 -60 16 -60q20 0 20 -132v-24q-5 -40 -16 -40l-16 16l-4 -8v-32q1 -8 8 -8h4l8 4q12 -17 12 -92v-28q0 -73 -4 -184q4 -8 4 -12q-4 -6 -4 -24l8 -16l-4 -20l4 -40q-6 -16 -12 -16q-9 0 -16 4q-40 -9 -40 -12l-20 4h-108q-16 0 -32 -4
q-15 4 -32 4h-40q-6 0 -12 20q4 66 4 100v596q0 9 4 16q-4 7 -4 16v92q0 15 60 20v8l-20 4h-28q-6 0 -12 12v200q0 22 -4 56l4 8q-4 7 -4 16q0 4 20 20zM538 1568l40 -4h148q96 0 96 -16v-4q0 -14 -4 -36q0 -4 4 -4l-4 -40v-172q0 -32 28 -32h28q6 0 12 -12q-6 -16 -12 -16
h-28q-28 0 -28 -32l4 -8q-4 -20 -8 -20l4 -20v-136q0 -37 4 -68q-4 -17 -4 -60v-36l4 -48l-24 -12q-4 0 -4 4l-28 -4h-156q-31 0 -36 -16v-12l20 -4h196q30 0 32 -12l-4 -20l4 -16q-4 -20 -8 -20l4 -40v-284l-12 -20q11 -60 48 -60q0 -8 32 -12q1 8 8 8h4q8 -1 8 -8v-4
q-16 -16 -16 -24l4 -24q0 -35 -84 -140q-9 0 -60 -36q0 -9 -108 -36q-77 -12 -140 -12q-147 0 -240 60q-120 124 -120 216q-104 5 -104 36l-4 24q8 18 16 20h44q13 0 20 4l24 -4h112q9 0 16 4q48 -12 48 -20l8 4h4q25 0 32 -40q16 -7 68 -20q7 4 16 4q50 -52 92 -52
q47 22 60 36v4q0 8 -8 8h-40q-22 0 -32 16v16l12 16v208q0 50 4 92q-4 22 -4 80v84q0 12 4 12l-4 20v396q0 16 56 20q0 7 -20 12l-24 -4l-12 16v224l-4 24q4 8 4 12l-4 20q0 6 16 20zM626 560l12 -8h16q3 0 12 12q-8 18 -16 20h-12q-12 -4 -12 -24z" />
    <glyph glyph-name="V" unicode="V" horiz-adv-x="949" 
d="M44 1478l28 -4h32q4 0 4 -4l8 4h100q14 0 36 4q6 -4 44 -8l24 4l16 -20v-16q16 -141 36 -256l28 -16l24 4h8q6 0 12 -12v-4q-2 -8 -20 -16q-22 4 -36 4l-4 -8v-12q6 -180 28 -180q8 -152 36 -256q4 0 4 -4q0 -9 -4 -16q16 -122 28 -164l-4 -8q4 -8 4 -12h4q13 0 28 160
q5 0 12 48q-4 22 -4 32q16 47 40 252l-4 8q6 24 20 24q36 -8 52 -8q43 0 72 4q28 -4 80 -4h8l60 -12q0 -31 -32 -192l-4 -28l4 -8q-52 -303 -52 -364q-32 -72 -32 -172q0 -18 72 -28l12 -16v-12q0 -11 -8 -24l4 -8q-4 -49 -16 -88l4 -8q-13 -94 -24 -104q-14 4 -16 4
q-60 -8 -64 -8q-20 0 -20 4q-40 -4 -60 -4h-184q-9 0 -16 4q-7 -4 -16 -4h-16q-31 0 -36 16v4q-16 164 -40 240q-12 0 -12 4q-4 0 -4 -4q-80 0 -80 36q-11 130 -28 176l4 8q-52 295 -60 384q-6 0 -16 116q-36 164 -36 228l16 12h12q4 0 4 -4q24 5 24 12q0 8 -8 8h-8l-24 -4
q-36 0 -36 108q-32 154 -32 192q0 7 24 16zM652 1474h180q22 0 56 -4q7 4 20 4q16 -4 16 -16q-24 -86 -48 -280q6 0 12 -12l20 4h16q8 -1 8 -8v-8q0 -6 -12 -12h-4l-24 4q-17 0 -40 -60l8 -24q-7 -28 -16 -28h-12q-12 0 -12 4l-20 -4h-36q-37 0 -68 -4q-22 4 -36 4
q-3 0 -32 -4l-20 4q-22 -4 -32 -4q-8 10 -8 12q8 57 8 80v4q13 24 44 24h8l8 -4q8 10 8 12q0 5 -52 16l-4 8l44 288zM800 966q-9 -24 -12 -24q6 -16 12 -16l12 16v12q0 6 -12 12zM376 954v-4q4 -89 4 -96h8q1 40 8 40q-7 60 -16 60h-4zM764 718l-4 -8q1 -8 8 -8q0 4 4 12z
M356 626v-4q0 -12 16 -12q35 4 44 4v12q-2 12 -32 12h-4q-24 -2 -24 -12zM420 594q-8 -25 -8 -32h4q5 0 20 24v8h-16zM760 106v-8h8v8h-8z" />
    <glyph glyph-name="W" unicode="W" horiz-adv-x="1268" 
d="M44 1538l20 -4h100q9 0 16 4q7 -4 16 -4h60l24 -4q7 4 20 4q24 -2 24 -12q0 -8 -8 -8h-36q-24 0 -24 -16q7 -48 28 -48h8l28 4q20 0 20 -48l-4 -20l16 -72q-6 -11 -88 -20q0 -12 -4 -12q6 -20 28 -20h56l32 -32h12q9 0 16 4q20 -5 20 -12v-12q0 -8 -8 -8h-40
q-12 0 -12 -44v-12l8 -28q0 -4 -4 -12q24 -179 40 -392q9 -12 12 -12q16 21 16 68v56q20 256 28 296l-4 20q11 68 28 68h24q4 0 4 -4q8 4 12 4v8q0 8 -8 8l-24 -4q-18 8 -20 16q20 176 20 284q24 13 24 16l28 -4h124q140 0 140 -16l-4 -16q0 -2 8 -44q0 -4 -4 -4
q14 -224 32 -224q8 0 8 -4l28 8q18 -8 20 -16v-4q0 -6 -12 -12h-4q-9 0 -16 4q-5 0 -28 -16l44 -476q4 0 4 -12q0 -16 -136 -16h-68q-32 0 -84 4q-28 -7 -28 -16v-8q0 -12 16 -12q4 0 4 4l20 -4q19 0 40 4l28 -4q44 4 76 4q4 0 12 -4q4 0 4 4q7 0 72 -4q48 0 228 4
q44 -4 76 -4q12 -13 12 -20l-36 -340q0 -40 56 -40h24q8 -1 8 -8v-4q-11 -115 -24 -152q0 -8 -72 -20h-148q-24 -2 -24 -12v-4q0 -6 12 -12h132q100 -8 100 -20v-12q0 -20 -196 -20h-104q-17 0 -44 4q-4 -4 -32 -4q-18 8 -20 16q0 17 4 32q-20 152 -32 208l-12 8h-24
q-6 0 -16 -16l4 -8q-8 -28 -12 -28q0 -4 4 -4q-7 -49 -16 -192q-8 -8 -104 -16h-252q-44 0 -56 24l4 28l-28 208l-20 4q-4 0 -12 -4q-64 0 -64 44q-52 441 -52 488l4 16q-19 65 -52 400q47 14 52 20v4q-9 0 -16 4l-8 -4q-40 0 -40 88q-21 187 -28 212q24 13 24 16zM996 1538
l40 -4h136q22 0 56 -4q7 4 20 4l12 -16q-8 -34 -12 -76l4 -20l-8 -20q0 -4 4 -4q-12 -87 -16 -152q0 -14 52 -20l4 -8v-4l-4 -8q-86 -4 -128 -4h-84l-24 -4q-6 0 -48 28q-48 0 -48 20l32 284q12 0 12 8zM976 1210q28 0 32 -36l16 -8q4 0 12 4q8 0 8 -4q29 4 32 4
q120 -4 140 -4l8 -12q-19 -39 -32 -264q-8 0 -16 -88v-36q0 -4 -4 -4l4 -8v-16q0 -31 -64 -40h-120l-56 -16q-14 0 -36 20q11 77 20 236q5 6 16 156q6 0 16 104q16 12 24 12zM240 1122l12 -8h8q8 0 8 8v12q0 8 -8 8h-8q-9 0 -12 -20zM396 626v-20h8v20h-8zM1116 626v-16h4
q0 4 4 12zM644 450q-8 -21 -20 -172q4 -16 24 -16h8q6 0 12 12q0 176 -20 176h-4z" />
    <glyph glyph-name="X" unicode="X" horiz-adv-x="952" 
d="M32 1548l48 -4h184q84 -8 84 -16l-4 -16l4 -20l-4 -20q26 0 48 -96q-12 -4 -12 -8l-28 4h-60q-20 0 -24 -16q7 -20 20 -20q128 0 128 -20q14 -72 32 -72l16 -8l28 8q16 -6 16 -12v-8q0 -21 -12 -24h-4q-2 0 -20 16q-16 -4 -16 -24v-4q27 -92 32 -92q14 0 36 108
q16 11 72 20l4 8l-12 8q-22 -4 -36 -4l-4 8v4l12 16q0 3 -4 24q76 205 76 236q0 20 28 20h176q92 0 92 -12v-4l-44 -136l-28 -80h-8q-68 -1 -68 -8l-28 4h-88q-9 0 -16 -4q-7 4 -16 4h-8q-22 0 -32 -20q4 -16 24 -16h32q19 0 40 4q2 0 16 -4l28 4q49 -4 96 -4h4q8 -1 8 -8
l-4 -20q48 -6 48 -16v-4q0 -12 -16 -12q-4 0 -12 4q-45 0 -52 -60q-26 -64 -32 -64h-4l-8 4v-8l8 -12v-12q0 -56 -28 -56q-8 10 -8 20h-8l-4 -16q0 -28 12 -44v-16q0 -16 -24 -72q0 -40 -28 -40q-46 -4 -88 -4h-60q-8 -1 -8 -8v-16q0 -6 12 -12h80q17 0 32 -8l24 4h8
q8 0 36 -104q11 -13 32 -104q19 -28 48 -140l44 -108q0 -76 92 -76q8 4 12 4q21 0 32 -76q13 0 24 -56q10 0 16 -56q11 -5 24 -60v-4q-2 -12 -32 -12h-8q-4 0 -4 4q-16 -8 -44 -8h-168l-24 4q-7 -4 -16 -4q-40 15 -40 72q-9 0 -40 116q-8 0 -20 68q-23 8 -100 12
q-64 174 -64 204q0 20 -16 20q-17 0 -48 -140q-7 0 -20 -56q0 -19 36 -32l36 4l4 -8v-16q-48 -110 -48 -160q-12 0 -24 -64q0 -14 -136 -20h-32l-24 4q-7 -4 -20 -4t-20 4l-24 -4h-24q-20 12 -20 24q56 139 80 228v4q0 8 -8 8h-36q-31 0 -36 16v8q64 182 120 356q12 0 20 68
l20 12l48 -4q14 0 36 4q42 -4 68 -4q14 0 84 4l8 -4q16 6 16 12v16q0 8 -8 8h-188q-14 0 -36 -4q-24 9 -24 16q4 28 4 48q-80 236 -80 240q-8 6 -28 84q-3 1 -20 60v8q0 6 16 12l8 -4l20 4v12q-76 0 -76 56q-71 212 -88 240zM348 1204v-16q0 -6 16 -12q52 0 52 24
q-4 16 -24 16h-20q-24 -2 -24 -12zM760 1164q1 -8 8 -8q8 0 8 8t-8 8q-8 -1 -8 -8zM736 1112v-4q1 -8 8 -8h8l-4 20h-4q-8 -1 -8 -8zM316 268h-12q-9 0 -16 4q-19 -6 -28 -16q4 -16 24 -16h80q6 0 12 12v12q0 12 -36 12q-13 -8 -24 -8zM420 216v-8h20v8q0 8 -8 8h-4
q-8 -1 -8 -8z" />
    <glyph glyph-name="Y" unicode="Y" horiz-adv-x="946" 
d="M650 1518l28 -4h204q9 0 16 -4q7 4 16 4l12 -16q-24 -81 -44 -124q-16 -90 -36 -116q-4 -7 -4 -20v-24q56 -3 56 -12v-8q0 -10 -28 -16q-22 4 -32 4q-32 -54 -56 -164l-80 -252q-8 -7 -12 -60l-32 -100l-32 -108q-5 0 -12 -24q4 -76 8 -96l-16 -12q-16 0 -16 4
q-40 -4 -60 -4h-192q-21 0 -24 12v80q0 14 -4 36q8 18 16 20h204q6 0 12 12q-4 16 -24 16h-176l-40 -4q-23 23 -32 96q-16 23 -40 140q-32 76 -60 196q-28 70 -60 208l16 12h32v8q0 8 -12 8l-28 -4q-27 0 -36 72q-35 77 -40 140q-8 9 -32 84v4q0 6 12 12h228q17 0 44 -4
q7 4 20 4q24 0 28 -48l-4 -16l12 -28l-4 -16q28 -34 32 -84q4 0 4 -4v-24l4 -28q-24 -5 -24 -12v-16q0 -8 12 -8l28 4q10 -24 32 -24h28q6 0 16 -16v-4q0 -8 -52 -12q-3 -48 -24 -72l-4 -20q4 -8 4 -12h4q20 11 20 20h8q16 -27 32 -128q4 0 4 -8h4q19 0 32 112q11 22 36 112
l28 8h28q8 0 8 8t-48 12l-4 8q64 253 64 276q0 15 32 24zM850 1386l12 -8l4 8v20h-4q-9 0 -12 -20zM330 1374v-24q8 0 8 12q-4 8 -4 12h-4zM670 806l-4 -28l4 -20q9 0 16 32q-6 16 -12 16h-4zM670 750v-12h4v12h-4zM322 330h276q24 0 24 -16q-8 -13 -8 -20q0 -48 28 -48
q50 -9 72 -16q4 -74 4 -108v-112q0 -36 -28 -36h-12q-4 0 -4 4q-18 -8 -52 -8h-8q-60 0 -140 4q-16 -4 -28 -4l-8 4l-8 -4q-15 0 -28 16q4 40 4 60v108q0 14 4 36q0 44 -32 44q-64 0 -64 16v44l-4 28zM594 302q0 -8 -4 -8q4 -8 4 -12q8 0 8 8v4q0 8 -8 8zM670 178v-24h8
q0 4 4 12l-4 20q-8 -1 -8 -8z" />
    <glyph glyph-name="Z" unicode="Z" horiz-adv-x="898" 
d="M58 1544q12 0 12 -4l28 4h308q17 0 32 -4q16 4 32 4h236q22 0 56 -4q7 4 16 4q0 -6 16 -16q-8 -44 -8 -136v-56l-28 -88v-4q52 -4 52 -16v-4q0 -6 -12 -12h-40q-30 0 -52 -80q-14 -25 -64 -152q-8 0 -24 -60q-25 -63 -84 -188q0 -48 -52 -48q-21 -4 -80 -4h-152l-28 -8
v-24l28 -4h104q46 0 140 -4l4 -8v-4q-40 -79 -64 -148q-11 -13 -52 -132q-28 -53 -28 -60q0 -10 24 -24l20 4q36 -2 36 -12v-4q0 -2 -8 -12q0 -6 12 -12h296q46 0 140 -4q1 -8 8 -8q-4 -60 -4 -88v-52q0 -22 4 -56l-8 -16l-20 4q-48 -8 -76 -8h-632q-25 0 -44 20
q8 204 16 240l-8 4h-56q-6 0 -12 12v12q6 33 68 172l80 184q7 42 60 144q0 18 60 148q44 114 88 208q25 76 44 76l24 -4q24 4 24 12t-44 12q-4 8 -4 12q0 7 20 52l-8 16q-8 0 -8 -4q-73 8 -168 8h-20q-42 0 -88 -4q-21 4 -48 4q-5 0 -40 -4l-8 4q-7 -4 -16 -4q-4 0 -24 16
q4 40 4 60q0 25 -4 60l4 20q-8 50 -8 56q15 12 28 12zM626 1052v-4q1 -8 8 -8l4 8v12h-4q-8 -1 -8 -8zM606 988v-8h8q6 0 12 12q0 8 -8 8q-6 0 -12 -12zM514 780v-4h8q8 0 8 8v8h-4q-6 0 -12 -12zM398 480v-8h4v8h-4z" />
    <glyph glyph-name="bracketleft" unicode="[" horiz-adv-x="758" 
 />
    <glyph glyph-name="backslash" unicode="\" horiz-adv-x="569" 
 />
    <glyph glyph-name="bracketright" unicode="]" horiz-adv-x="758" 
 />
    <glyph glyph-name="asciicircum" unicode="^" 
 />
    <glyph glyph-name="underscore" unicode="_" horiz-adv-x="1024" 
 />
    <glyph glyph-name="grave" unicode="`" horiz-adv-x="1024" 
 />
    <glyph glyph-name="a" unicode="a" horiz-adv-x="918" 
d="M253 1548h276l24 -4l8 4q41 -4 64 -4h8q17 0 20 -80q15 -40 20 -116q12 0 16 -60q12 -9 68 -20q0 -20 8 -32q0 -20 -56 -24q-8 -13 -8 -20q15 -12 28 -12h28q20 -10 20 -32q-6 -16 -32 -16v-8q40 0 40 -32v-28q0 -8 -52 -12l-8 -16q0 -17 24 -104q4 -70 4 -84
q11 0 24 -96q-15 -8 -32 -8h-128q-6 0 -12 -12v-12q0 -6 12 -12h100q72 0 72 -28q0 -103 36 -220q0 -4 -4 -4l4 -20v-20l-4 -20q6 0 16 -16v-4q-4 -12 -24 -12h-28q-23 -28 -32 -28q-8 4 -12 4l-4 -8v-8q3 -24 12 -24q0 6 20 16h4q23 -44 44 -44q56 -8 56 -28q20 -23 20 -36
q9 -64 16 -88q-6 -36 -16 -36l-20 8q-26 -12 -56 -12h-96q-6 0 -12 -12q6 -16 12 -16h124q5 0 44 -8l20 4q20 -21 20 -32q-13 -7 -88 -16l-28 4l-20 -4q-21 4 -24 4l-28 -4q-35 4 -44 4l-48 -4v4l-8 -4h-4q-22 0 -32 20l4 36q-12 45 -32 176v24q0 3 -12 12q-8 -4 -12 -4
q-28 0 -168 20q-60 -4 -100 -4l-4 -8q4 -24 12 -24h8l12 8h12q6 0 12 -12l-32 -172v-52q0 -10 -28 -16l-8 4q-51 -8 -60 -8q-2 0 -52 4q-2 0 -52 -4l-20 4q-8 -4 -12 -4l-16 4l-20 -4q-28 6 -28 16l28 128q0 17 8 84v24q0 6 -12 12h-44q-21 0 -28 16v4q8 39 8 44v4
q0 9 -4 16q0 22 68 24q9 24 24 28l24 -4q18 8 20 16q0 12 -48 16q-8 10 -8 12v4q40 193 40 252q32 141 32 152q0 3 -4 24l24 116l-4 8q0 41 32 72l28 -4h8q10 0 28 100q-4 8 -4 12h-40q-6 0 -16 16v12q12 20 28 20q22 -4 32 -4q12 18 12 28q0 11 -20 20q-7 -4 -16 -4
q-24 14 -24 20q40 209 40 248q17 16 32 16zM613 1472v-12l20 -4l4 8v8l-8 12q-16 -6 -16 -12zM637 1344l8 -4h4v12h-4q-8 -1 -8 -8zM405 1024l4 -40v-4q0 -9 -4 -16q0 -4 4 -4q-4 -65 -24 -152l-28 -216h-8q-10 0 -16 32l4 16q-4 8 -4 12h-4q-8 -1 -8 -8v-92q0 -8 16 -8v-20
q0 -8 -8 -8h-8l-20 4l-4 -8l96 -16q3 0 24 4q4 0 12 -4q22 4 36 4h32q8 0 8 8q-56 355 -68 488q-5 0 -20 28h-12zM701 992v-44q0 -29 12 -32l4 8v32q4 17 4 28q-7 0 -20 8zM781 468v-16h4v16h-4zM781 444v-8h4v8h-4zM745 288v-4h8v4h-8z" />
    <glyph glyph-name="b" unicode="b" horiz-adv-x="895" 
d="M76 1498h344q4 0 4 -4l8 4h4q261 0 332 -108q22 -9 56 -120q0 -29 28 -48q22 4 32 4q18 -8 20 -16v-20q0 -28 -52 -28l-12 -16q4 -16 24 -16h28q12 0 12 -16q0 -23 -4 -64l4 -20q0 -25 -64 -28q-12 -13 -48 -140q-6 0 -40 -44q-19 -7 -60 -36v-12q44 -13 100 -64
q0 -12 -16 -12q-12 0 -28 4q-21 -4 -40 -4h-8q-16 0 -16 4l-28 -4h-104q-24 0 -24 -16q6 -20 28 -20h252q32 -23 32 -44v-40q0 -13 -12 -28v-16l20 4q10 0 16 -96q-4 -31 -4 -68v-16q0 -4 8 -32q-16 -8 -44 -8h-16l-8 -28v-48q0 -16 72 -32v-4l-4 -8q8 -13 8 -24
q-20 -27 -36 -80q-7 0 -40 -44q-13 -16 -120 -16q-60 0 -60 8l-48 -8q-7 3 -56 8q-32 -8 -68 -8h-36q-24 -2 -24 -12v-12l4 -8l68 8q26 -12 36 -12h24q4 0 48 12l52 -16q36 12 48 12h24q8 -1 8 -8v-4q0 -12 -40 -20q-5 0 -40 4q-32 -20 -52 -20q-12 0 -76 4q-24 -3 -24 -8
q-13 0 -20 4q-104 -4 -164 -4h-156q-52 3 -52 16l4 20q0 4 -4 4l4 28v68l-4 28q16 12 48 12q23 0 64 -4q12 0 28 4q80 -4 140 -4h120q22 0 56 4q7 -4 20 -4q7 0 24 8q-8 24 -32 24h-128q-21 0 -36 -4q-21 4 -40 4h-216l-24 -4q-24 10 -24 28l4 8q-7 28 -16 28h-40
q-31 0 -40 20v44l-4 28l16 12h36q48 0 48 44q0 6 -32 40v336q4 12 24 12h224q6 0 12 12v4q-4 12 -24 12q-16 0 -16 -4l-40 4h-68q-19 0 -40 -4q-15 4 -36 4h-24q-12 4 -12 24v128l4 24q-4 7 -4 20v8q0 36 60 36l8 52q0 56 -16 56q-4 0 -12 4l-20 -4q-18 8 -20 16v12
q0 12 36 20h28q0 4 4 12q0 32 -44 32q-12 5 -28 24l4 20q0 36 4 80q-4 34 -4 52l4 28q-4 21 -4 48q0 28 28 28zM360 1258v-16q0 -15 56 -20l4 -8v-20q0 -29 -12 -32h-4q-10 0 -16 36l-8 4h-4l-4 -20l16 -16q-33 -24 -56 -24q-20 0 -20 -24v-8q0 -11 68 -20q22 4 36 4l4 -8
v-68q0 -6 -12 -12h-12q-9 0 -16 4q-24 0 -24 -84v-12q0 -34 16 -44q116 15 116 32q0 9 28 40l12 36q-4 8 -4 12q18 28 64 28l8 56q0 56 -24 56h-4l-28 -4l-12 24q0 4 16 24l20 -4h8q6 0 12 12v8q-17 28 -24 28h-28q-11 0 -72 44l-20 4h-28q-14 0 -36 4q-16 -6 -16 -12z
M356 626l4 -8q0 -17 -8 -32q0 -2 4 -16q0 -13 -4 -20q4 -34 4 -56v-56q0 -26 -4 -52l8 -64q-13 -8 -24 -8h-28q-3 0 -28 -28h-24l-4 -16l12 -8q16 8 24 8q17 -41 28 -48l28 -8h4l24 4q20 0 24 -32l20 -4h16q116 0 116 24q0 12 -44 12q-4 0 -12 -4q-18 8 -20 16l20 60
q-4 8 -4 12q19 20 60 20l4 8v176q0 94 -80 128q-21 0 -76 8h-24q-4 0 -16 -16zM808 582l4 -20h8l-4 20h-8zM756 286v-8h8q0 8 -8 8z" />
    <glyph glyph-name="c" unicode="c" horiz-adv-x="903" 
d="M406 1624l24 -4h64q140 -13 140 -28v-4l-28 -4h-108q-24 -2 -24 -12v-4q0 -4 28 -20l40 4h104q17 0 32 -8q16 4 28 4q60 -15 60 -52q-13 -8 -24 -8h-220q-6 0 -12 -12v-4q0 -6 12 -12h120q14 0 36 -4q6 4 24 4l68 -12l20 4q17 -11 36 -88l24 -36l8 4h20q28 0 28 -48
q-6 -7 -52 -20l-8 -12q0 -7 24 -20l20 4h8q6 0 16 -16q-8 -25 -20 -28h-28l-4 -8l4 -24h4l16 16h16v-12q8 -28 8 -32v-8q0 -12 -52 -16q0 -7 -28 -24q-34 0 -84 -8l-64 4q-9 0 -16 -4q-27 4 -44 4h-52q-21 0 -28 16q0 6 24 24h8l28 -4l12 20l-4 20q0 4 4 12q-4 22 -4 36v24
q-64 4 -64 20v4q0 22 20 28q22 -4 36 -4q8 10 8 16q0 28 -40 28q-42 0 -68 56l-60 12q-19 0 -60 -44v-4q1 -8 8 -8h36q6 0 12 -12q0 -2 -8 -12q0 -9 4 -16q0 -21 -56 -24l-16 -20q13 -13 64 -20v-20q0 -9 -4 -16q4 -3 8 -68q-9 -8 -64 -20l-4 -8q0 -13 4 -20q-4 -44 -4 -76
v-28q0 -9 -4 -16q4 -7 4 -16v-4q0 -16 -4 -16l4 -28v-180q0 -16 4 -32q-4 -15 -4 -32v-116q0 -19 -4 -40q4 -15 4 -36v-24q0 -11 -56 -16l-4 -8v-8q0 -68 32 -68q42 -12 52 -12h32q23 -44 68 -44h4q60 15 60 40q-80 5 -80 24q12 88 40 88q12 -4 12 -8q25 8 28 20v152l-4 24
q6 17 20 24h32q33 0 52 -4q25 4 56 4h36q34 0 72 -12q8 4 12 4q20 -24 20 -28q0 -52 -36 -52q-28 0 -44 -8q-14 4 -16 4q-47 -4 -68 -4q-3 0 -24 4q-8 -4 -12 -4q-27 4 -44 4l-8 -12v-12q1 -8 8 -8h108q136 0 136 -20v-8q0 -4 -8 -32q8 -13 8 -24t-60 -16q-4 -15 -36 -32
q22 0 24 -32q-4 -8 -4 -12q23 -11 96 -24v-4q0 -9 -84 -20h-84q-9 0 -16 4q-16 -6 -16 -12v-16l20 -4h132q22 0 28 -16q-85 -208 -340 -208q-231 0 -284 64q-71 59 -88 104q-24 43 -32 84q-7 28 -16 28h-12q-76 0 -76 16v48l-8 28q6 0 16 16l28 -4h8q8 0 16 24q-4 41 -4 64
v44q0 16 4 16l-4 28v412q0 104 24 104q40 0 40 20q-4 74 -4 92q-11 7 -56 12l-4 8v12q0 17 64 20l8 16q0 32 -48 32l-12 16q0 32 36 112q94 168 304 168zM190 1196v-8q2 -8 20 -16q41 4 64 4h20q8 0 8 8v12q0 8 -8 8h-84q-4 0 -4 4q-16 -6 -16 -12zM254 384q1 -20 8 -20
q8 4 12 4v12q0 6 -12 12q-8 -1 -8 -8z" />
    <glyph glyph-name="d" unicode="d" horiz-adv-x="855" 
d="M46 1548h288q4 0 4 -4l8 4h24q178 0 244 -24q101 -34 140 -100q32 -34 32 -48l-4 -8q16 -25 20 -64q16 -2 16 -12l-8 -12q-94 -4 -140 -4h-52q-9 0 -16 4l-72 -16q-31 0 -76 44q-39 12 -92 12q-40 -5 -40 -16v-12q7 -16 28 -16h28q6 0 12 -12l-8 -16q4 -7 4 -16
q-6 -16 -28 -16q-4 0 -4 4q-27 -11 -32 -24q0 -13 56 -20q12 -12 12 -76v-32q0 -11 -56 -16q-12 -10 -12 -24v-480q0 -14 -4 -36q8 -27 8 -132v-4q0 -11 -60 -16l-4 -8v-72q92 -18 92 -24q0 -24 12 -24h76q60 11 60 24q0 6 -24 12l-8 -4q-36 4 -36 16v8q12 15 12 36v28
q0 10 64 24l4 8v612q0 9 4 16q-4 7 -4 16q7 40 32 40l8 -4q28 7 28 16v28q0 72 -12 72h-12q-9 0 -16 -4q-25 8 -28 20q0 23 56 28q0 10 28 20q38 0 52 -4q45 4 80 4h28q40 0 120 -4l8 -12q0 -9 -56 -20l-8 -16q19 -11 64 -20v-24q0 -23 4 -64l-4 -8q4 -8 4 -12
q-6 -7 -52 -12l-12 -16v-16q0 -23 4 -64q-4 -8 -4 -12q4 -16 4 -28q0 -8 -4 -8l4 -28v-336q0 -18 -8 -64q8 -28 8 -48v-4l-12 -40q8 -1 8 -8v-4q0 -10 -56 -16q-9 -9 -16 -60q0 -28 88 -44v-8q-11 -31 -24 -36h-24q-39 -8 -44 -8h-76q-24 -2 -24 -12v-8q1 -8 8 -8h56
q4 0 4 -4q8 4 12 4q76 0 76 -16v-12q-14 -12 -52 -64q-110 -84 -308 -84q-14 4 -16 4q-14 -4 -16 -4q-20 0 -48 4q-83 -4 -152 -4h-8q-22 0 -56 4q-8 -4 -12 -4l-20 4q-28 -4 -48 -4q-10 0 -28 12q8 44 8 100v128q0 21 -12 24h-68q-6 0 -16 16v36l-4 40l16 12h36q12 4 12 24
v360q0 70 4 144q-4 13 -4 112v36q0 14 64 28v16q0 19 4 40q0 52 -36 52q-32 0 -32 12v8q0 6 24 24l24 -4q16 6 16 12v8q0 28 -20 28q-14 -4 -16 -4q-18 7 -28 24v96q0 4 4 4l-4 8v92l-4 48q15 12 36 12zM710 1444v-12h8v4q0 8 -8 8zM750 1368l-4 -8v-8q1 -8 8 -8l4 8v8
q0 8 -8 8zM126 1196v-4q0 -3 12 -12l28 4h116q6 0 12 12q-6 16 -28 16h-124q-6 0 -16 -16zM854 1124q1 -8 8 -8l4 8v8h-4q-8 -1 -8 -8zM166 812q0 -12 16 -12q26 0 68 8v16q0 6 -20 16q-64 0 -64 -24v-4zM778 436q5 -20 12 -20h8q12 33 12 76q-23 -17 -32 -56zM294 448v-16
h4v16h-4zM214 336v-24h8q6 0 16 16q-13 8 -24 8zM754 144v-8q8 4 12 4v4h-12z" />
    <glyph glyph-name="e" unicode="e" horiz-adv-x="809" 
d="M42 1578h176l24 -4q7 4 20 4v-4q4 0 4 4q28 0 32 -4q84 4 136 4h196q4 0 4 -4l8 4q77 -4 100 -4q8 -10 8 -16q-2 -32 -12 -32q-88 -4 -116 -4q-35 4 -40 4l-8 -12v-8q0 -6 12 -12h88q72 0 72 -28q0 -4 -4 -4l4 -40v-56q0 -2 -8 -12q-80 -4 -120 -4h-252q-31 0 -40 -20
q0 -24 60 -28l8 -12v-4q0 -40 -52 -40q-8 -13 -8 -24v-4q60 -5 60 -20q0 -11 -20 -20q-12 0 -12 4q-47 -4 -68 -4h-92q-29 0 -32 -12v-12l20 -4h76q132 0 132 -28q-3 -36 -12 -36h-32q-22 0 -28 -20q0 -4 4 -12l-4 -20l4 -24q-4 -26 -4 -52v-16q0 -16 88 -16h240q6 0 12 -12
v-8q0 -4 -4 -4q0 -4 4 -4q-4 -54 -4 -80v-24q0 -23 4 -64q0 -28 -96 -28h-188q-56 0 -56 -24v-4q0 -21 4 -80l-12 -8q-80 -4 -108 -4l-24 4q-21 -4 -40 -4h-24q-26 0 -52 4q-14 -4 -40 -4q0 6 -12 12q4 74 4 108v364q5 30 16 32q22 -4 36 -4q8 10 8 12v76q0 28 -52 28l-8 12
q0 32 52 32l4 8v32q0 10 -16 12q-21 -4 -24 -4q-6 0 -20 16l4 20v140l4 24q-3 5 -8 68q13 8 24 8zM38 554l20 -4h172q32 0 76 -4l8 4q18 -8 20 -16l-12 -20v-8l4 -24q-8 -13 -8 -24q12 -4 12 -24v-4q0 -4 -4 -4l4 -8v-12q0 -6 -12 -12h-36q-8 0 -16 -28q0 -3 4 -24
q-4 -8 -4 -12q0 -19 52 -36l20 4h12q7 0 20 -36q47 -4 68 -4h260q40 -1 40 -8l8 4h24q8 -1 8 -8v-52l-4 -24q0 -4 4 -4l-4 -28v-16l4 -28q-8 -1 -8 -8v-4q12 -15 12 -28v-4q0 -6 -12 -12h-4q-90 -8 -96 -8h-592q-17 0 -28 16l4 20v168q0 60 -28 60q-68 4 -68 16v24q0 9 4 16
q-12 32 -12 36q11 12 64 16q8 10 8 12v4q0 40 -4 120q20 13 20 16zM226 370l-4 -8v-8q1 -8 8 -8l8 12q0 6 -12 12z" />
    <glyph glyph-name="f" unicode="f" horiz-adv-x="744" 
d="M30 1548h560q42 0 128 -4l8 -12v-88q0 -12 -84 -12h-64l-20 -4v-16q0 -6 24 -16l8 4h8q40 0 120 -4q12 -21 12 -48q0 -28 -104 -28h-276q-22 0 -28 -20q0 -24 44 -24q28 0 28 -48q-22 -12 -36 -12v4q-32 -6 -32 -16v-8q0 -11 64 -24q0 -4 4 -4l-4 -40v-24l4 -24
q0 -28 -60 -28q-8 -13 -8 -24v-100l-4 -48q22 -20 48 -20h72q52 0 108 4q96 -6 96 -16v-4q-8 -13 -8 -24v-68q0 -34 4 -100l-12 -8h-36q-4 0 -32 -8h-44q-58 0 -132 4q-60 0 -60 -32v-60q0 -8 -8 -8h-24q-39 -8 -44 -8h-204q-21 0 -28 16v232q0 50 -4 92q4 22 4 80v76
q8 36 20 36h20l8 -4l12 16q0 9 -4 16q4 22 4 36v36q0 12 -52 16l-8 12v4q0 28 28 28q9 0 16 -4q16 6 16 12v24q0 12 -52 16q-8 13 -8 24v152l4 24q-3 10 -8 64zM278 932v-4h8v12q-8 -1 -8 -8zM30 500h152q152 0 152 -16q-7 -13 -12 -48l4 -20v-36q-6 -16 -28 -16h-12
q-4 0 -4 4q-24 -10 -24 -28q4 -27 4 -44v-12q0 -8 60 -20h28q8 -2 16 -20q-8 -20 -12 -20l8 -164l-4 -8q4 -7 4 -16v-4q0 -21 -12 -24h-4q-90 -8 -96 -8h-176q-13 0 -28 12q0 13 4 20q-4 71 -4 116v24q0 14 4 36q0 4 -4 4l4 20v4q0 32 -60 32l-8 -4q-13 0 -32 16q8 34 8 40
l-4 40l16 12l28 -4q24 9 24 32l-8 88zM214 328v-8q1 -8 8 -8q18 8 20 16q0 8 -8 8h-12q-8 -1 -8 -8zM314 144h8q0 25 16 40v4h-8q-16 -4 -16 -44z" />
    <glyph glyph-name="g" unicode="g" horiz-adv-x="889" 
d="M448 1550q178 0 256 -92q25 -8 60 -72q8 0 8 -28q-20 -5 -20 -12v-28q0 -29 12 -32h8q8 0 8 8v12l-12 16v16h8q32 -56 32 -72q64 0 64 -32v-20q0 -12 -48 -16q0 -6 -8 -16q16 -18 16 -20l28 4h4q6 0 12 -12v-12q0 -20 -8 -20q8 -53 8 -72q-6 -7 -52 -12q0 -28 -132 -28
h-32q-16 0 -32 -4q-15 4 -32 4h-56q-22 0 -32 16q8 22 68 28q0 4 4 12l-4 20q8 13 8 24q0 60 -60 60l-8 12q3 24 12 24h36q12 0 12 16q-14 32 -20 32h-28q-24 0 -64 56q-26 8 -36 8h-12q-27 0 -64 -40v-4q0 -12 48 -16q4 -8 4 -12l-4 -8q4 -7 4 -16t-12 -24l-20 4h-20
q-5 0 -20 -20q0 -7 24 -20l20 4h12q8 -1 8 -8v-68q0 -4 -4 -4l4 -8v-24q0 -8 -60 -20q0 -4 -4 -4l4 -48v-40q0 -22 -4 -56q4 -8 4 -12l-4 -28l4 -40q0 -20 -4 -60q4 -94 4 -192q0 -20 -8 -52q8 -28 8 -48v-88q0 -15 -64 -20l-4 -8q0 -80 48 -80q67 0 108 -48q7 0 48 -4
q0 9 36 16q8 13 8 24l-16 8q-22 -4 -32 -4q-32 6 -32 24q16 32 20 72l16 12l24 -4q20 5 20 12v192q0 9 -4 16l4 8q0 40 -48 40q-51 0 -68 20q0 18 4 52q-4 76 -4 128q-4 8 -4 12q17 16 32 16h20q30 0 44 4q26 -4 52 -4h60q14 0 36 4q7 -4 16 -4q27 4 44 4q0 -26 72 -36h28
q12 0 12 -52q0 -16 -4 -16l4 -40v-156q0 -71 -4 -176q4 -7 4 -20q-13 -8 -24 -8h-8q-4 0 -4 4q-32 0 -32 -56q-4 -22 -4 -32q96 -16 96 -36l-32 -80q-84 -180 -352 -180q-169 0 -240 48q-85 51 -104 116q-7 3 -48 116q-4 0 -12 4q-35 -4 -40 -4q-44 5 -44 20q0 7 4 48
q-8 16 -8 24q10 11 56 16l8 20l-4 64q0 33 4 64q-4 68 -4 140q0 26 4 68q-4 17 -4 68l16 48v4q-16 59 -16 64q0 22 4 56l-4 8q4 22 4 36l-4 24q0 21 60 36l4 8q0 12 -4 12l4 20v44q-6 13 -64 36v4q0 21 68 28l4 8v12q0 28 -44 28l-16 16q11 66 72 164q86 112 268 112h76z
M832 1126v-24h8l4 20v4h-12zM288 966v-12q12 -13 12 -44h4q0 25 20 48q-2 20 -24 20q-6 0 -12 -12zM212 694h-40q0 -4 -4 -12q1 -11 20 -20l8 4h12q4 0 4 -4q13 8 20 8v16q0 3 -12 12zM172 586q4 -16 24 -16h48q6 0 12 12v8q0 9 -20 12q-4 0 -12 -4q-22 4 -32 4
q-16 0 -20 -16zM700 318v-16h4q8 0 8 8v8h-12zM224 310v-4h8v4h-8zM764 162v-4h4q8 0 8 8v4h-4q-8 -1 -8 -8z" />
    <glyph glyph-name="h" unicode="h" horiz-adv-x="898" 
d="M60 1508h116q59 0 160 -4l4 -8v-8q0 -6 -12 -12l4 -20v-16q0 -16 -4 -16l4 -28v-140q0 -19 64 -24l8 -36q-8 -18 -16 -20h-36q-16 -8 -16 -24q10 -11 60 -16l4 -8v-100q0 -12 -56 -16q-14 -32 -16 -32l4 -20q0 -13 -4 -20q4 -22 4 -36v-36q9 -20 40 -20h68q45 0 108 8
q24 -16 36 -16h228q48 0 48 -16q0 -28 -4 -32l4 -40q0 -40 -8 -120q8 -20 8 -32q0 -21 -4 -80q0 -2 4 -52l-4 -40l4 -24h-4l4 -8q0 -4 -4 -4l4 -8v-40q0 -16 -60 -24q-12 -28 -16 -28q8 -15 8 -32v-16q0 -8 -8 -8h-28q-4 0 -32 -8h-100q-22 -32 -28 -32q0 -8 -16 -8
q-10 33 -20 40l-20 -4h-12q-32 0 -52 12l4 48l-4 28l12 20l28 -4h12q6 0 16 16q0 23 -8 48q4 8 4 12q0 23 -4 28q4 52 4 84v72q0 17 -16 32q-8 -4 -12 -4q-36 8 -52 8h-92q-22 0 -36 -24q0 -8 4 -8q-8 -84 -8 -116q4 0 4 -4l-8 -4q-20 12 -28 12q-29 -4 -36 -8l-24 4h-4
q-16 0 -32 -4l-20 4l-56 -4q-53 4 -88 4l-12 16v500q0 31 64 40q0 27 4 48q-4 14 -4 16l4 20q0 18 -64 28l-4 8v12q0 13 64 24l4 20q0 13 -60 28q-8 13 -8 24v64q0 63 4 128q-4 22 -4 44q15 12 36 12zM576 1508h136q46 0 140 -4l8 -12l-4 -20q0 -2 4 -16q-4 -28 -4 -48
q0 -4 4 -12l-4 -8q4 -56 4 -96v-20q0 -9 -4 -16q8 -18 16 -20h36q12 0 16 -36q0 -24 -44 -24q-12 0 -24 -24q8 -12 60 -16l4 -8q0 -9 -4 -44q0 -3 4 -32q0 -36 -24 -36q-37 0 -40 -16v-4q0 -34 4 -108q-8 -1 -8 -8q-80 -4 -120 -4h-128q-20 0 -60 -4q0 8 -8 8l4 48v36l-4 40
q9 18 68 28q4 54 4 80q0 23 -60 32l-4 8v12q0 12 60 24l4 8q0 32 -28 32q-29 0 -40 20v188l-4 24q4 7 4 16l-4 20q21 12 40 12zM364 1096v-8q8 0 8 8h-8zM816 932v-12q8 0 8 8zM156 880v-12q4 -12 24 -12h80q30 0 32 12v4q0 15 -12 24l-40 -8l-24 4h-36q-4 0 -4 4
q-18 -8 -20 -16zM812 600l8 -4h4q12 31 12 44q-21 0 -24 -40zM60 416h176q68 -8 76 -8h20q8 -1 8 -8v-4q0 -21 -12 -24q12 -22 12 -36q-14 -12 -52 -12q0 4 -4 4l-12 -16v-64q0 -7 44 -24q4 -6 4 -24h16q0 24 24 24q1 -8 8 -8q-5 -53 -8 -60q4 -27 4 -44v-76q0 -20 4 -60
q-9 -7 -72 -16l-20 4q-35 -4 -40 -4q-65 4 -72 4l-48 -4l-8 4q-16 -4 -28 -4q-10 0 -28 12l4 28v208q0 7 -24 20l-28 -4h-12q-22 0 -32 16v60q0 32 52 32q12 15 12 28v4q0 11 -8 24q0 23 44 28zM284 368v-16h12q4 14 4 16h-16zM584 172q4 0 32 -4q13 0 20 4q34 -4 56 -4h68
q124 0 124 -20v-8l-4 -36q4 -16 4 -28q-32 -10 -32 -16v-16q1 -8 8 -8q1 8 8 8l12 -20l-4 -8q12 -20 12 -32q0 -19 -88 -24q-4 0 -4 4l-28 -4h-124q-9 0 -16 4q-7 -4 -16 -4h-8q-22 0 -32 20q4 40 4 60l-4 8l4 8l-4 36q4 44 4 76zM312 108q6 -16 12 -16q8 25 16 36v16h-4
q-4 0 -24 -36zM328 68l-4 -20v-8q6 0 16 16v12h-12z" />
    <glyph glyph-name="i" unicode="i" horiz-adv-x="436" 
d="M48 1548q13 0 20 -4q44 4 76 4h28q59 0 160 -4q1 -8 8 -8q-4 -48 -12 -72q8 -15 8 -32v-8q0 -11 -8 -24l-24 4q-17 0 -36 -8q-14 4 -16 4q-41 -4 -48 -4l-48 4l-8 -12v-8q0 -3 12 -12l48 4h44q84 -7 84 -20v-48q0 -32 60 -32q4 -8 8 -36q-5 -16 -20 -24h-36q-6 0 -12 -12
v-4q0 -15 60 -20q4 -8 4 -12q-4 -50 -4 -52q0 -8 8 -28q-4 -32 -32 -32q-9 0 -16 4q-18 -8 -20 -16v-28q0 -16 -4 -32q4 -15 4 -32v-32q0 -6 -16 -16h-28q-13 0 -20 -4l-24 4h-72q-8 -1 -8 -8v-16q0 -6 16 -12q4 0 4 4q4 0 12 -4q41 4 64 4l28 -8l28 4q6 0 20 -16l-4 -28
v-316l4 -24q-4 -7 -4 -20v-56l4 -28l-16 -12h-12l-20 4q-12 -14 -20 -36l4 -20q-4 -28 -4 -32q60 -20 96 -24v-4q0 -34 4 -100q-4 -60 -4 -84l4 -28q-4 -8 -4 -12q4 -8 4 -12q0 -9 -108 -16h-104q-23 0 -64 4q-8 -4 -12 -4q-16 4 -28 12q0 9 4 16q-4 74 -4 124v44q0 20 4 60
q-13 8 -24 8h-44q-14 0 -32 16l8 40q-4 16 -4 32q0 6 24 20h24l8 -4l12 20q-4 73 -4 92q0 23 4 28q-4 41 -4 64v180q0 59 4 160q-4 16 -4 32q8 18 16 20h40q6 0 16 16v4q0 8 -8 8h-48q-6 0 -16 16v24q0 22 24 36l24 -4q13 0 16 64q-4 44 -12 52l-20 -4h-16q-5 0 -20 20
q8 28 32 28q21 -4 24 -4l8 12v16q0 11 -8 24q-8 0 -28 -8q-6 0 -24 20q4 80 4 120v48q0 17 4 44q-5 23 -12 32v4q0 8 24 16zM292 1484v-28q1 -8 8 -8l4 20l-4 16h-8zM332 228v-28h8q0 4 4 12q-4 7 -4 16h-8z" />
    <glyph glyph-name="j" unicode="j" horiz-adv-x="539" 
d="M230 1558h148q40 0 120 -4q1 -8 8 -8q-4 -27 -4 -44q0 -80 8 -188l-4 -8q8 -18 16 -20h40q12 0 12 -16q0 -4 -4 -4l4 -20v-8q0 -6 -12 -12l-40 4q-12 -20 -12 -28q6 0 16 -16l20 4h4q24 0 24 -16q0 -17 -4 -44q4 -22 4 -44q0 -21 -60 -24q-12 -20 -12 -32v-28
q-29 0 -32 -12q0 -23 16 -36q0 -2 -8 -12v-4q24 0 24 -16q0 -46 4 -108q-4 -21 -4 -24q4 -25 4 -56v-24q0 -12 -16 -12v-8q16 -46 16 -76q0 -37 -4 -104l4 -16q-4 -21 -4 -40v-32q0 -8 -16 -8v-8q24 0 24 -20q-8 -12 -60 -16l-16 -32v-16q0 -9 4 -16q-4 -7 -4 -16
q29 -16 64 -16h16q12 0 12 -16q0 -11 -24 -44q0 -55 -36 -84q0 -23 -76 -76h-4l-16 8l-72 -44l-20 4h-16q-37 -12 -100 -12h-136q-6 0 -16 16v36q0 21 4 36q-4 21 -4 40v52q0 48 16 48h4q156 0 156 28q0 8 -8 8h-36q-21 0 -28 16v8q14 16 24 72q20 12 28 12l16 -4
q20 3 20 24v8q0 20 -8 48q15 12 36 12h140l20 4v12q-6 16 -28 16q-16 0 -32 -4l-36 4q-54 -4 -76 -4q-20 7 -20 24q4 383 8 464q-8 53 -8 72q21 20 28 20l16 -4q20 3 20 24v64q0 28 -52 28q-12 9 -12 12v12q2 10 28 20q8 -4 12 -4q24 4 24 12v16l-4 20q-22 -4 -32 -4
q-9 1 -28 24l4 28v192l-8 28q15 12 36 12zM474 1494l-4 -20l8 -4h16v24h-20zM466 714v-4q4 -8 4 -12h8v8q0 8 -8 8h-4zM454 190l-4 -8v-24h4q0 8 8 28z" />
    <glyph glyph-name="k" unicode="k" horiz-adv-x="938" 
d="M42 1488h156q40 0 120 -4q0 -6 12 -12l-8 -48l4 -56q-4 -74 -4 -132h-4q0 -22 72 -24q0 -4 4 -4q0 -2 -4 -16q4 -21 4 -24q-5 -20 -12 -20h-20q-10 8 -16 8q-16 -4 -16 -24q4 -12 24 -12h28l12 -8q-4 -27 -8 -36l4 -20l-4 -36q8 -18 16 -20q16 0 52 104q0 9 -40 16l-4 8
v12q6 22 72 28q15 11 20 36q-8 0 -8 8l-8 -4h-16q-6 0 -16 16v8q64 145 84 152h220l40 -12l24 4l4 -8v-8q-61 -121 -68 -128v-8q0 -6 20 -16l8 4h16q6 0 12 -12q0 -24 -36 -44h-28q-22 0 -32 -20v-4q0 -10 48 -16v-12q-23 -27 -36 -64q-23 -44 -28 -44h-12q-9 0 -16 4
q-30 0 -56 -64q-16 -15 -72 -144q36 -60 96 -240q13 -16 48 -120q21 -52 52 -112v-4q0 -11 -52 -16q-4 -8 -4 -12q19 -72 40 -72q96 -8 96 -28q0 -11 40 -104q27 -54 52 -128q0 -16 -164 -16h-4q-45 0 -116 4q-7 -4 -16 -4q-20 0 -80 184q-28 80 -48 80q-96 0 -96 36
q-4 26 -20 52q0 17 40 20v-4q8 4 12 4v4q-15 71 -36 104q-15 56 -32 56q-32 -51 -32 -88v-44q8 -28 8 -32q0 -8 -8 -8h-32q-24 0 -24 -24v-28q-16 -24 -28 -24v-8h4q33 0 76 -16h4l28 8l8 -12q0 -12 -4 -28q4 -60 4 -100q0 -10 -4 -32q4 -15 4 -36q-4 -28 -4 -32
q8 -13 8 -20l-8 -4h-24q-58 -8 -60 -8q-23 0 -28 4q-34 -4 -56 -4h-108q-14 0 -32 16q4 40 4 60v68q0 34 -4 72v44q-96 4 -96 24q0 10 8 40q-4 16 -4 32q13 15 56 20q8 16 8 28q0 4 -4 4l4 24q0 28 -4 28q4 40 4 60v156q0 118 -4 260q4 28 4 80l-4 24q0 24 64 28q0 4 4 4
l-4 24q4 42 4 68q-11 13 -56 16l-12 16q12 28 36 28q4 0 4 -4q24 5 24 12v28q0 8 -8 8l-24 -4q-18 7 -32 28v60q0 19 4 40q-4 15 -4 36l4 48l-4 20l4 20q-8 13 -8 20q20 12 32 12zM606 1488v-4l8 4h12q4 0 4 -4l8 4h44q4 0 4 -4l8 4h64q4 0 4 -4q8 4 12 4q10 0 104 -4l8 -12
q-29 -60 -60 -60h-264q-16 8 -16 20l28 48q15 8 32 8zM350 1080l-4 -8v-4q1 -8 8 -8q8 4 12 4v12zM170 1064l-12 -16v-16l20 -4h28q6 0 12 12q0 15 -48 24zM538 876v-8q6 0 12 12v4h-4q-8 -1 -8 -8zM574 624v-16h8v8q0 8 -8 8z" />
    <glyph glyph-name="l" unicode="l" horiz-adv-x="852" 
d="M52 1518q4 0 4 -4l8 4h132q60 0 96 -8q6 4 24 4l20 -12q-2 -36 -8 -36l4 -8v-32q0 -9 -4 -16q8 -20 8 -28q-4 -15 -4 -32q16 -8 16 -12l8 4q40 -5 40 -16v-28q0 -6 -16 -16q-25 0 -136 -8q-45 4 -84 4q-50 -4 -60 -4q-13 16 -24 56q-8 4 -12 4l-24 -4q-20 18 -20 76
q0 3 4 24q-4 48 -4 72q17 16 32 16zM288 1450v-4q1 -8 8 -8l4 8v12h-4q-8 -1 -8 -8zM44 1290q11 0 16 -40l8 -4h176q6 0 64 -8h16q6 0 12 -12q0 -28 -8 -28l4 -20v-140l4 -24l-12 -20l-28 4q-38 -12 -60 -12h-88q-14 0 -36 4q-8 -4 -12 -4q-35 4 -44 4l-20 -4q-16 17 -16 32
v40q0 12 4 12l-4 20v96q0 17 4 44q-4 7 -4 20q0 26 24 40zM284 1194l4 -20q24 0 24 24l-8 4h-12q-8 -1 -8 -8zM36 962l24 -4q14 0 36 4q65 -4 116 -4l36 4q80 -15 80 -20q4 0 8 -12q-4 -28 -4 -48q0 -21 60 -28v-8l-4 -8q4 -7 4 -16v-4q0 -11 -52 -16q-8 -13 -8 -24
q0 -12 4 -12l-4 -40v-448q0 -33 64 -48l4 -8v-4q0 -4 -4 -4q4 -8 4 -12h4q8 0 8 8v4l-4 8l8 4q6 -28 20 -28l28 4l40 -8q70 4 88 4q32 0 84 -4l56 4q53 -4 88 -4l4 -8q0 -71 -8 -92q8 -22 12 -84q0 -36 -40 -36q-27 -4 -84 -4h-244q-9 0 -16 4q-7 -4 -16 -4h-8q-13 0 -20 4
l-24 -4q-43 0 -92 8q-60 -8 -88 -8q-4 0 -4 4l-20 -4h-28q-21 0 -28 20q4 54 4 80v140q0 23 -24 28l-20 -4q-56 6 -56 16v340q0 63 4 208q6 0 16 16l20 -4h16q8 0 8 8v32q0 12 -52 16q-12 15 -12 32q0 49 16 64zM784 126v-16q1 -8 8 -8v24h-8zM784 82v-8h8v16q-8 -1 -8 -8z
" />
    <glyph glyph-name="m" unicode="m" horiz-adv-x="1188" 
d="M60 1548h28q5 0 44 -8q54 8 68 8h20q13 0 20 -4l24 4h20q35 0 108 -12q22 4 32 4l8 -12l-8 -12l4 -24h-12l-20 28q-8 -4 -12 -4v-16q17 -33 48 -56q15 -19 36 -72q4 0 4 -4l20 4q40 0 40 -48q0 -17 -52 -20q-8 -25 -8 -32q8 -30 8 -56v-12q11 -8 24 -120q3 0 12 -48
l-4 -20q8 -19 28 -112l8 -4h28q31 0 36 -56l20 -4h16q17 0 20 48q-8 4 -12 4q-14 -4 -16 -4q-22 8 -32 20q24 161 36 212q17 196 44 196q9 0 16 4l8 -4q24 5 24 12v24q0 9 -20 12l-20 -4q-16 16 -16 24q22 150 36 164h300q92 -8 96 -16l-4 -40v-100q0 -28 56 -28
q12 -17 12 -32q-10 -26 -20 -28l-24 4q-14 0 -28 -44q-80 -4 -120 -4h-72q-44 0 -44 -12v-4q0 -11 40 -16h72q119 0 132 -12l-4 -48v-256q0 -13 68 -28v-8q0 -40 -40 -40q-28 0 -28 -28q0 -9 4 -16q-4 -20 -8 -20l4 -28v-152q0 -22 4 -56q-4 -7 -4 -20q4 -8 4 -12
q-15 -12 -28 -12q-9 0 -16 4q-72 -4 -72 -16v-12q0 -6 12 -12h8q13 0 20 4q72 -4 72 -16v-140q0 -36 56 -36h28q6 0 16 -16q-8 -9 -12 -80l4 -8q0 -3 -4 -32q0 -19 8 -112q-6 -16 -12 -16h-8q-4 0 -4 4q-17 -8 -64 -8h-88l-24 4q-7 -4 -16 -4q-10 0 -32 4q-22 -4 -32 -4
l-20 12q4 54 4 80v20q0 14 -4 36q0 4 4 4l-4 28v80l-20 4h-28q-11 0 -20 -64l4 -16q-24 -67 -24 -92q0 -88 -28 -88q-21 0 -80 -4l-40 4q-42 -4 -92 -4h-4l-24 4q-7 -4 -20 -4h-4q-19 0 -32 132q-5 0 -8 16l4 8q-15 108 -24 108h-20l-40 4q-9 -9 -16 -60l12 -68l-4 -16
l4 -20q-8 -18 -16 -20l16 -32q-3 -48 -16 -48h-56q-9 0 -16 -4q-4 0 -4 4l-20 -4h-116q-56 0 -56 16q3 64 8 64l-4 28v44q0 22 4 56q-8 20 -8 28l16 12h24q52 0 52 12v12q0 6 -16 12q-3 0 -24 -4q-12 0 -12 4l-40 -4h-44q-48 0 -48 16v428q0 14 -4 36q4 8 4 12t-4 12
q0 60 40 60h28l4 16q0 36 -60 36l-12 16v72q0 17 4 44q0 4 -4 4l4 40v28q0 19 -4 40q4 47 16 72q-8 30 -8 36q0 60 48 60q11 3 20 20v32q0 8 -8 8h-8q-4 0 -32 -8h-4q-17 10 -24 28q0 5 4 40l-4 64q8 24 12 24l-4 8v4q10 20 32 20zM364 1340l-8 -12v-8q10 -20 32 -20l24 4
q21 -4 40 -4q4 0 16 16q-8 18 -16 20h-28q-20 0 -60 4zM452 1196l-4 -8l4 -64q6 0 16 56q4 0 4 4v8zM476 1024v-8q0 -6 16 -16q8 13 8 24v12q0 6 -12 12q-12 -4 -12 -24zM764 944v-4h12v12h-4q-8 -1 -8 -8zM548 812q4 -21 4 -24t-4 -24q0 -2 4 -16q-4 -16 -4 -28
q0 -19 24 -36q11 0 20 100q0 12 4 28q0 21 -28 24q-12 -2 -20 -24zM1064 776q0 -8 -4 -8l4 -8q0 -5 -4 -40l4 -20h8q0 9 12 24l-16 28l4 24h-8zM216 648q-8 -13 -8 -20q6 -16 12 -16h8q6 0 12 12q0 24 -24 24zM308 632l-4 -28v-152q0 -42 -4 -88q4 -16 4 -72v-4
q0 -13 60 -16l4 8v8q-44 277 -44 312q-4 32 -12 32h-4zM756 616q4 -15 4 -32q5 0 16 28q0 8 -8 8h-4zM480 604v-8q1 -8 8 -8h16q6 0 12 12v4q-4 12 -24 12q-6 0 -12 -12zM804 616l-24 -156q0 -40 -24 -168q0 -13 36 -20q20 5 20 12v80q0 17 4 44l-4 8q4 28 8 140
q0 15 -12 60h-4zM760 568v-12h4v12h-4zM372 188q1 -8 8 -8v16q-8 -1 -8 -8zM792 148v-40h8v20q0 10 16 12q0 6 -16 16q-8 -1 -8 -8zM204 36q6 -16 12 -16h44q6 0 12 12v8q0 6 -12 12h-32q-17 0 -24 -16z" />
    <glyph glyph-name="n" unicode="n" horiz-adv-x="949" 
d="M62 1468h196q160 0 160 -40q0 -64 24 -100q0 -44 72 -44q12 -27 12 -44v-4q0 -8 -8 -8q-22 4 -32 4q-12 -17 -12 -32q12 -32 12 -40l-4 -8q44 -122 44 -156q32 -81 40 -144l8 -4h8l4 20v4q0 67 -8 124q4 91 4 172v48q0 14 68 28v8q-3 32 -28 32l-8 -4q-9 0 -36 24l4 28
v80l4 24q-4 7 -4 20q15 12 36 12l28 -4q15 4 36 4v-4l8 4h8q25 0 60 -4l20 4q60 -8 60 -12l8 4h12q6 0 16 -16v-16q-16 -18 -16 -20l16 -28l-4 -20l4 -24l-20 -12l-20 4q-76 -10 -76 -20v-8q1 -8 8 -8h20q42 0 128 -4q20 -27 20 -44q-20 -16 -24 -16q-8 4 -12 4
q-32 -6 -32 -60q0 -19 4 -40q-4 -34 -4 -56q0 -20 4 -60q-4 -22 -4 -32q4 -21 4 -24l-4 -28q4 -35 4 -44l-4 -36q0 -44 60 -44q4 -7 8 -40q-7 -7 -60 -20l-4 -8v-24q0 -23 -4 -28q4 -22 4 -32q0 -49 -4 -120q4 -47 4 -68q-4 -50 -4 -60q4 -27 4 -44q-4 -8 -4 -12q4 -7 4 -20
q-2 -8 -20 -16q-22 4 -32 4q-16 -1 -16 -8l-28 4h-24q-24 0 -24 -24q15 -12 28 -12q21 0 36 4q26 -4 52 -4h16q6 0 12 -12q0 -9 -4 -44q0 -36 60 -36q40 0 40 -12v-4q0 -14 -88 -16q-4 0 -12 4q-27 -4 -44 -4h-48q-6 0 -12 -12v-4q4 -12 24 -12h84q48 -1 48 -8l8 4h16
q11 0 24 -8q-8 -43 -8 -56q4 -94 4 -128q-8 -1 -8 -8q-86 -4 -128 -4h-120q-9 0 -16 4q-7 -4 -16 -4q-40 0 -40 48q-12 29 -12 36v4q0 11 48 20l4 8v4q0 6 -12 12h-28q-37 0 -44 80q-14 47 -24 52q-4 0 -4 -4q-92 0 -92 44q-8 52 -72 264q-48 162 -48 200q0 23 -28 60
l-12 -20q8 -38 8 -48q-4 -97 -4 -148h-4q4 -24 8 -24l-4 -20v-28q0 -22 4 -56l-20 -60q-20 -7 -20 -32l4 -16h8l12 8h8q9 0 12 -20l-4 -36q0 -56 36 -56q28 -3 28 -8l8 4h8l16 -12l-4 -40v-48q0 -9 4 -16q-8 -16 -8 -28q0 -10 8 -108l-16 -12h-4q-23 0 -64 -4q-4 0 -4 4
l-20 -4h-56q-9 0 -16 4q-7 -4 -16 -4l-40 4q-22 -4 -32 -4q-18 8 -20 16v60q0 38 -4 76q4 27 8 104q-16 8 -16 12l-40 -4h-8q-31 0 -36 16v176q0 90 4 212q-4 26 -4 52q4 48 4 108q60 18 60 36v24q-60 0 -60 32l-4 16q4 26 4 52q0 4 -4 12q0 4 4 4q-4 54 -4 80q0 61 4 188
q-4 8 -4 12q0 28 64 40q4 14 4 16q-1 9 -24 28l-16 -8q-18 7 -28 24l4 24l-4 28l4 20l-4 20q4 35 4 44q-4 8 -4 12q17 16 32 16zM826 532v-8h4v8h-4zM178 120v-12q8 -16 24 -16q17 0 44 4q42 -4 92 -4q18 8 20 16v12q-28 8 -48 8h-124q-8 -1 -8 -8z" />
    <glyph glyph-name="o" unicode="o" horiz-adv-x="863" 
d="M380 1560q152 0 232 -24q47 -20 104 -64q0 -12 40 -40q13 -64 60 -64q43 0 60 -44v-4q-14 -14 -52 -20q0 -28 -52 -28h-72q-6 0 -12 -12v-12q0 -12 16 -12q31 0 112 -4q7 -6 12 -52l-8 -80q4 -41 12 -68q0 -44 -32 -44h-176q-6 0 -12 -12v-12l8 -12l20 4h64
q128 0 128 -20q-4 -12 -8 -12q0 -31 64 -44v-8l-4 -8q8 -13 8 -20q-15 -12 -24 -12l-16 4q-28 -14 -28 -32q0 -4 4 -12q-4 -34 -4 -56v-12q0 -22 4 -56q0 -4 -4 -4q4 -21 4 -24q0 -28 -4 -108q4 -28 4 -32q-4 -15 -4 -32q0 -9 4 -16q-4 -22 -4 -36v-48q0 -32 -4 -76
q0 -23 44 -28h36q6 0 12 -12q-23 -76 -32 -76q-17 0 -140 -8q-4 0 -4 4l-20 -4h-76q-26 0 -80 4l-12 -16q0 -4 16 -16l20 4h24q51 0 112 -4l20 4l20 -4l28 4l24 -12h16l12 8h12q12 -4 12 -24q-35 -31 -68 -52q0 -30 -128 -68q-92 -16 -148 -16h-64q-142 14 -176 48
q-44 18 -108 104l-52 132h-60q-32 0 -32 24q-4 38 -4 84v348q0 22 -4 56q4 8 4 12l-4 24q2 23 60 28q7 10 12 32q-6 16 -12 16h-28q-22 0 -32 20q0 22 24 32l28 -4h16q13 0 20 4l20 -4q97 4 124 4l52 -12q8 4 12 4l36 -44h36q6 0 12 -12v-32q-2 -8 -20 -16q-22 4 -36 4
q-12 -13 -12 -20q4 -28 4 -32q-4 -12 -8 -12l4 -20v-40q0 -9 -4 -16l4 -8q-4 -34 -4 -56q4 -35 4 -40h-4l4 -8v-40q0 -4 -4 -4l4 -8v-168q0 -92 52 -92q8 0 28 -8l24 4h8q35 -52 68 -52h12q9 1 32 24q22 0 28 16v4q0 8 -8 8h-60q-6 0 -12 12v4q12 10 12 108v432q0 9 64 24
v40q-62 0 -68 28l4 40l-4 24q4 16 4 28q0 18 -4 24q4 27 4 44v96q0 17 -4 44q4 8 4 12q0 39 -28 64v8q0 4 28 24l-28 8q-22 0 -64 -24q-4 0 -4 4q-80 0 -80 -92l-12 -40q0 -28 4 -88q-4 -48 -16 -48h-8l-8 4l-4 -8v-8l4 -8l8 4h8q20 -10 20 -32q0 -24 -116 -24h-184l-16 12
l4 20q0 8 -4 8l4 28v172q9 100 32 100q56 0 56 36v4q0 6 -44 16l-4 8q0 16 68 104q10 0 52 40q81 44 196 44zM300 1256v-4q1 -8 8 -8h4q8 0 8 8v12h-12q-8 -1 -8 -8zM300 736q0 -4 -4 -12q4 -19 4 -52h4q0 10 4 60z" />
    <glyph glyph-name="p" unicode="p" horiz-adv-x="829" 
d="M56 1538h16q4 0 4 -4l8 4h284q277 0 332 -88v-12q-6 0 -12 -12l44 -40q7 4 16 4q0 -14 48 -48q6 -16 12 -16h8q3 20 12 20q20 -16 20 -28l-12 -8h-4l-24 4q-20 -8 -20 -12q-4 0 -12 4q-34 -4 -56 -4h-4q-13 0 -20 4l-24 -4l-40 4q-22 -4 -32 -4l-24 4l-4 -8v-20
q0 -6 24 -16q2 0 16 4q152 0 152 -28h8l20 4l4 -8v-8q-7 -21 -92 -24h-76q-4 0 -4 4q-11 0 -20 -20q6 -16 12 -16h176q24 -2 24 -12q0 -38 -4 -76q4 -22 4 -36q-5 -32 -16 -32q-10 0 -20 36h-12q-12 -4 -12 -24v-8q0 -17 8 -32q-4 -7 -4 -16q8 -25 8 -32h4q2 0 12 8
q16 -6 16 -12q0 -9 -20 -12q0 8 -8 8h-4v-24h8l8 4q24 -21 40 -44l20 12h12q8 -1 8 -8q-15 -30 -24 -32q-14 4 -16 4q-9 0 -56 -44v-40q-12 -60 -64 -100q-8 -16 -60 -44q0 -9 -20 -12l-36 4q-36 -28 -180 -28q0 -4 -4 -4q-7 4 -16 4h-32q-21 0 -28 -16l-20 4h-16l-4 -20
v-12q7 -16 48 -32v-8q0 -21 -4 -36q4 -26 4 -52v-20q0 -29 -12 -32h-8l-20 12q-16 -4 -16 -20l12 -20v-4q0 -12 -16 -12v-8q37 -40 112 -52l4 -8q-16 -28 -16 -40v-4q0 -6 12 -12h16l20 4q12 -15 12 -24q-3 -24 -8 -24l4 -40v-80l4 -20l-12 -8l-28 4q-26 -8 -36 -8h-12
q-4 0 -4 4q-8 -4 -12 -4t-4 4l-20 -4h-160q-22 0 -32 20l4 48q0 8 -4 8l4 28v44q0 25 -4 60q0 44 20 44v4q-18 20 -44 20q-50 -8 -68 -8l-4 8v4q16 18 16 48l-4 40q8 24 16 24t8 -4l40 4h8q28 0 88 -4l4 8v4q0 28 -40 28q-16 4 -72 4h-36q-16 6 -16 32q0 32 4 76
q-12 62 -12 76v64q0 42 4 88q-4 17 -4 60q15 12 28 12h28q12 4 12 24v20q0 8 -8 8h-32q-28 0 -28 28v80l4 24q0 4 -4 4l12 60q-4 35 -4 44q0 12 4 28q-4 25 -4 56q0 92 20 92q48 0 48 16q0 44 -24 44q-26 -8 -36 -8l-16 28q4 27 4 44l-4 8q0 4 4 4l-4 48v40q0 10 32 16z
M332 1290q0 -14 4 -36q-4 -54 -4 -80q0 -9 4 -44q0 -17 -52 -60l-4 -20v-4q1 -8 8 -8q-4 -54 -4 -80v-56q0 -8 12 -8q26 8 36 8l20 -24l20 4h16q6 0 12 -12q-4 -8 -4 -12q8 -13 8 -20q-20 -9 -20 -12l-20 4h-12q-6 0 -12 -12v-8q0 -9 28 -16q188 46 188 64v16q0 8 -8 8h-36
q-12 0 -16 32q0 4 4 12l-4 24v8l12 40v148l-12 16v40q0 68 -32 68v8q0 2 16 20q0 5 -36 20q-112 -12 -112 -28zM352 866v-8h8q0 8 -8 8zM416 242h8v-4h-8v4z" />
    <glyph glyph-name="q" unicode="q" horiz-adv-x="883" 
d="M360 1426q251 0 308 -52q75 -45 88 -88q-24 -5 -24 -20q4 -8 4 -12h12l20 16h4q22 -44 88 -44q12 -15 12 -28v-16q0 -12 -48 -16l-8 -16q8 -20 12 -96q-10 -8 -12 -8h-8q-36 0 -48 -4q-35 4 -60 4h-40q-29 0 -32 -12v-12q0 -4 16 -16l8 4h80l24 4q15 -8 32 -8h28l16 -12
q-8 -30 -8 -40l4 -28l-4 -8l4 -8l-4 -40l4 -40q-4 -19 -4 -52q0 -8 28 -28l8 4h24q6 0 12 -12v-28q-6 -16 -28 -16q-4 0 -12 4q-24 0 -28 -56q-25 -12 -108 -12l-8 -12v-8q0 -13 84 -16q7 4 16 4l16 -8q-4 -101 -4 -160v-176q0 -22 4 -56l-8 -40q16 -32 44 -32h36
q6 0 12 -12v-4q0 -16 -132 -16h-92q-6 0 -12 -12v-4q0 -6 12 -12h112q30 0 56 -12l24 4q8 -1 8 -8q-12 -36 -12 -48q46 -20 92 -24v-124l-4 -24q0 -11 20 -20q22 4 36 4q6 0 12 -12v-20q0 -13 -72 -16q-14 4 -16 4q-21 -4 -40 -4q-34 0 -164 40q-42 0 -80 48
q-55 -12 -100 -12h-100q-93 0 -184 48q-91 56 -128 176q-7 56 -36 56h-40q-48 0 -48 76q-4 0 -4 16v8q6 20 52 20h20q15 0 108 -16q35 4 60 4q32 -12 40 -12l28 4q11 -8 20 -80q33 -16 68 -16h28q43 -52 72 -52q26 0 68 40l-12 8h-12q-56 0 -56 16q12 14 16 60q0 8 -4 8
q4 40 4 60v328q0 14 -4 36q4 5 4 28v20q14 24 36 24q4 0 4 -4q20 6 20 28v12q0 4 -16 12l-8 -4h-4q-22 0 -32 20v208q0 168 -24 168v8q0 28 28 28v4q-15 8 -32 8h-8q-62 -28 -108 -28q-22 -21 -40 -56q-32 0 -76 -8q-7 4 -20 4q-15 0 -28 -16q4 -16 16 -16q5 0 40 4
q68 -11 68 -24v-212q0 -14 -4 -36q4 -6 4 -24l-20 -8q-8 0 -8 4q-60 -4 -88 -4h-180q-16 7 -16 28v32q0 30 4 44q-4 26 -4 52v76q9 168 28 168q60 0 60 24q4 8 4 12q-4 8 -4 12h-24q-6 0 -16 16q41 104 72 104q0 22 108 68q70 16 108 16zM780 1126v-12h8v12h-8zM384 758
l20 -12q0 -48 -28 -48q-40 0 -40 -36q-4 -54 -4 -76q0 -34 4 -100q-4 -58 -4 -64q4 -77 4 -148q-13 -8 -24 -8h-4q-52 12 -68 12h-36q-51 0 -112 4q-15 -4 -32 -4q-34 0 -36 20q0 80 4 280q-8 53 -8 56q0 20 120 20q4 0 32 -4l20 4q25 -4 56 -4l4 8v16q0 8 -8 8h-160
q-9 0 -16 -4q-36 5 -36 12v4q0 6 12 12h36q5 0 16 32l44 8l20 -4l28 4q22 -4 32 -4l20 4l20 -4q10 0 32 4q25 -4 56 -4q18 16 36 16zM68 630l-12 -16q4 -12 24 -12h36l20 4v12q0 3 -12 12l-8 -4h-20zM932 -58l-4 -8q1 -8 8 -8l4 8q0 8 -8 8z" />
    <glyph glyph-name="r" unicode="r" horiz-adv-x="886" 
d="M44 1548q8 0 8 -4q54 4 80 4h252q281 0 352 -100q6 0 12 -12l-4 -36l8 -4q8 4 12 4q31 -40 84 -40l4 -8v-4l-4 -8q-101 -4 -160 -4h-120q-6 0 -12 -12q7 -16 28 -16h152q8 0 32 -12q3 0 24 4q21 0 24 -56q-4 -8 -4 -12q0 -12 4 -12l-4 -48v-104q0 -75 -20 -160
q16 -12 52 -16v-8q0 -12 -72 -16q0 -4 -8 -4q-12 0 -28 4q-35 -4 -44 -4l-64 4q-24 -8 -24 -16v-8q0 -6 16 -12q4 0 32 4q52 -4 84 -4l8 -12v-4l-72 -52v-16q56 -12 120 -124l-8 -16q-138 -4 -200 -4h-124q-56 24 -108 24q-20 -8 -20 -12q0 -6 4 -48q-21 -16 -116 -16h-4
q-8 -1 -8 -8v-8q20 -33 20 -44h32q15 0 36 -16q7 16 28 16q12 0 12 -16q0 -4 -4 -4q0 -2 4 -16q0 -14 -4 -36q0 -3 4 -32q0 -18 -8 -88q0 -21 56 -36l8 4h28q6 0 12 -12q0 -3 -4 -24q4 -8 4 -12q-8 -13 -8 -24v-68q0 -4 -4 -4l4 -8v-24q0 -9 -4 -16q8 -18 8 -52v-8
q0 -12 -16 -12q-22 0 -76 -4q-4 0 -4 4l-28 -4h-128q-9 0 -16 4q-7 -4 -16 -4q-13 0 -28 12q4 47 4 68v40q0 19 -4 40q4 15 4 36v4l-4 48h4q0 20 -80 20h-8q-10 8 -12 8l4 28v220q0 31 4 56q-4 20 -4 52v84q0 9 -4 16l8 20q-3 16 -8 16l4 20l-4 24q0 18 28 32l24 -4h4
q6 0 12 12v32q0 8 -8 8h-28q-28 0 -28 28v288q0 4 4 4l-4 8v48q0 9 -4 16q0 25 44 36q7 -4 16 -4l8 12v12q0 28 -24 28q-13 -8 -24 -8q-16 20 -16 24t4 12l-4 36l4 28l-4 20l4 28l-4 28q20 8 20 12zM364 1304q-8 4 -12 4q-16 -4 -16 -24v-44q0 -69 -4 -180l4 -24
q0 -44 -44 -44l-8 -16l12 -20q4 0 4 4q36 -5 36 -16v-4q0 -9 -4 -16q10 -36 20 -36q8 0 28 8q16 -4 16 -16q-4 -8 -4 -12q18 -12 28 -12q78 0 100 28v8h-24q-6 0 -12 12v4q12 56 36 56q18 0 24 -4l108 8q6 -4 24 -4q16 6 16 12v4q-4 12 -24 12h-104q-4 0 -4 4l-8 -4h-32
q-6 0 -12 12v28q0 31 -4 56q4 21 4 40l-4 48q4 21 4 40q-15 51 -40 76q4 8 4 12q-26 16 -48 16zM504 576l36 -4q4 0 12 4l20 -4l24 4l28 -4q70 4 84 4q100 -5 100 -16q8 -97 8 -108v-8q0 -6 -12 -12h-28q-5 0 -44 -8h-20q-9 0 -16 4q-6 0 -16 -16q4 -16 24 -16h24
q23 0 64 -4l8 4q20 -6 20 -28q0 -4 -4 -12q4 -16 4 -28q-8 -25 -8 -28q15 -32 72 -32q18 0 32 -12q-5 -45 -8 -56l4 -24v-4q0 -16 -4 -32q4 -48 28 -124l-16 -12h-8q-32 0 -76 -4q-4 0 -4 4l-28 -4h-160q-30 0 -40 68v120q0 76 -16 76h-24q-56 0 -56 16v208q0 22 -28 76
q16 12 24 12zM296 320l-8 -20l8 -4h12q8 0 8 8v4q-7 0 -20 12z" />
    <glyph glyph-name="s" unicode="s" horiz-adv-x="826" 
d="M378 1560q159 0 232 -32q72 -28 132 -108v-8q0 -8 -52 -12q-44 0 -44 -28l16 -8l28 4l24 -4q22 4 36 4q96 -3 96 -28v-20q0 -6 -16 -16l-24 4q-5 0 -20 -20q16 -35 16 -152q-6 0 -12 -12q-86 -4 -128 -4h-132q-13 0 -28 12q4 35 4 44q-12 112 -28 112v4q0 11 32 28v4
l-16 4q-49 0 -72 -28q-28 4 -32 4q-48 0 -68 -124q17 -41 28 -100h-4q23 -66 132 -172q10 -8 52 -20q8 4 12 4q19 -1 72 -52q-10 -8 -12 -8q-9 0 -16 4q-16 -6 -16 -12v-4q14 -23 52 -40q0 -13 60 -76q100 -134 100 -208q12 0 20 -140q-8 -54 -8 -68q0 -16 52 -24h24
q6 0 12 -12v-4q0 -12 -76 -16q-4 0 -4 4l-20 -4h-140q-6 0 -12 -12v-8q1 -8 8 -8h88q46 0 140 -4l4 -8q-21 -77 -60 -100q0 -12 -20 -24l-20 28q-21 0 -44 -72q-58 -32 -152 -32q0 -9 -36 -12h-96q-110 0 -212 68q-28 25 -60 68v12q0 6 12 12h136q17 0 44 4l24 -8
q20 7 20 24q-13 8 -24 8h-212q-40 0 -40 52q0 26 -24 40h-28q-60 0 -60 20q-4 84 -4 136v4q0 9 -4 16q11 32 20 32h204q28 -1 28 -8l20 4h16l12 -8q0 -15 -8 -84q13 -72 20 -88q0 -20 80 -20l8 4q17 0 36 -36q26 -16 40 -16h8q23 0 60 36v4q-80 3 -80 20q12 0 20 80
q0 111 -112 236q-20 15 -112 116q-112 85 -112 120v4l4 8l20 -4q8 0 8 8v8l-28 36l-20 -4h-8q-77 0 -116 256v36q0 40 12 92l-4 8q0 40 68 40q12 10 12 32q0 9 -40 16q-8 10 -8 16q47 91 84 104q55 76 236 76zM758 1260v-12h4v12h-4zM286 1180q6 -16 12 -16q8 0 8 8l-4 20
h-4q-6 0 -12 -12zM262 424v-4q-4 -50 -4 -60l8 -4h4q6 0 16 16q0 21 -12 36q8 10 8 12v4h-20zM758 352q0 -35 -4 -60h16l-8 60h-4zM790 136l-12 -20l8 -4q6 0 12 12v4q0 8 -8 8z" />
    <glyph glyph-name="t" unicode="t" horiz-adv-x="806" 
d="M-2 1548h352l72 -8q43 8 56 8h16q13 0 56 -8q38 8 60 8h8q19 0 40 -4l24 4q92 -4 92 -24v-28q12 0 16 -20q-4 -27 -4 -44v-24q0 -9 -4 -16q0 -21 28 -24l8 4q36 -5 36 -24q-9 -24 -28 -24q-20 0 -20 8l-104 -16q-26 4 -52 4q-116 -16 -116 -28q-4 -22 -4 -36v-4l4 -24
q-4 -8 -4 -12l4 -28q-8 -18 -16 -20h-4q-9 0 -20 60l-8 4q-12 -15 -12 -44q13 -60 44 -60q16 -29 16 -36q-8 -18 -16 -20h-12q-25 0 -60 -4q-4 0 -12 4q-22 -4 -36 -4h-48l-4 -16l16 -12h92q12 0 32 -12l24 4h8q4 0 16 -20q-4 -40 -4 -60v-40q0 -17 64 -24l4 -8v-28
q0 -15 -56 -20q-9 -20 -12 -20q0 -8 4 -8q-4 -47 -4 -68v-128q0 -16 -8 -52q8 -36 8 -52v-200q0 -40 96 -40q4 -8 4 -12t-4 -12q4 -16 4 -28q-8 -13 -8 -24v-64q0 -34 8 -84q-5 -36 -16 -36h-20q-17 0 -44 -4q-4 0 -4 4l-40 -4h-132l-24 4q-7 -4 -20 -4q-6 0 -12 12v244
q0 12 -92 12q0 8 -8 8l4 28v448q0 20 12 40l-4 24v8q0 15 48 24q8 15 8 32q0 6 -12 12h-36q-6 0 -16 16v116q0 37 -4 68l8 120q-4 23 -4 64v4l4 28q-17 12 -32 12q-8 0 -8 -4l-40 4h-88q-24 0 -40 40q-8 4 -12 4l-24 -4q-8 20 -12 20l4 40v8q0 22 -4 56q4 8 4 12
q-4 16 -4 32v4q7 16 28 16zM734 1396v-12h8q8 0 8 8v4h-16zM482 724q3 -52 12 -52q0 19 12 56q-8 16 -8 28q4 7 4 16l-8 4q-9 0 -12 -52zM486 580q4 -8 4 -12h12q8 0 8 8v4q0 8 -8 8h-8q-8 -1 -8 -8z" />
    <glyph glyph-name="u" unicode="u" horiz-adv-x="872" 
d="M50 1568l48 -4h16q16 0 16 4l28 -4h92q23 0 64 -4q8 4 12 4l20 -12l-4 -28v-12q0 -9 4 -16q-3 -16 -8 -16q0 -9 4 -16q-4 -56 -4 -96v-4q0 -22 4 -56q-4 -7 -4 -20q7 -23 28 -32l8 4h20q6 0 12 -12v-4q0 -9 -32 -12v4q-27 -8 -32 -24q4 -21 4 -24q-4 -22 -4 -36h-4
q-16 8 -28 8l-4 -8l4 -20l-4 -28q0 -60 16 -60q20 0 20 -132v-24q-5 -40 -16 -40l-16 16l-4 -8v-32q1 -8 8 -8h4l8 4q12 -17 12 -92v-28q0 -73 -4 -184q4 -8 4 -12q-4 -6 -4 -24l8 -16l-4 -20l4 -40q-6 -16 -12 -16q-9 0 -16 4q-40 -9 -40 -12l-20 4h-108q-16 0 -32 -4
q-15 4 -32 4h-40q-6 0 -12 20q4 66 4 100v596q0 9 4 16q-4 7 -4 16v92q0 15 60 20v8l-20 4h-28q-6 0 -12 12v200q0 22 -4 56l4 8q-4 7 -4 16q0 4 20 20zM538 1568l40 -4h148q96 0 96 -16v-4q0 -14 -4 -36q0 -4 4 -4l-4 -40v-172q0 -32 28 -32h28q6 0 12 -12q-6 -16 -12 -16
h-28q-28 0 -28 -32l4 -8q-4 -20 -8 -20l4 -20v-136q0 -37 4 -68q-4 -17 -4 -60v-36l4 -48l-24 -12q-4 0 -4 4l-28 -4h-156q-31 0 -36 -16v-12l20 -4h196q30 0 32 -12l-4 -20l4 -16q-4 -20 -8 -20l4 -40v-284l-12 -20q11 -60 48 -60q0 -8 32 -12q1 8 8 8h4q8 -1 8 -8v-4
q-16 -16 -16 -24l4 -24q0 -35 -84 -140q-9 0 -60 -36q0 -9 -108 -36q-77 -12 -140 -12q-147 0 -240 60q-120 124 -120 216q-104 5 -104 36l-4 24q8 18 16 20h44q13 0 20 4l24 -4h112q9 0 16 4q48 -12 48 -20l8 4h4q25 0 32 -40q16 -7 68 -20q7 4 16 4q50 -52 92 -52
q47 22 60 36v4q0 8 -8 8h-40q-22 0 -32 16v16l12 16v208q0 50 4 92q-4 22 -4 80v84q0 12 4 12l-4 20v396q0 16 56 20q0 7 -20 12l-24 -4l-12 16v224l-4 24q4 8 4 12l-4 20q0 6 16 20zM626 560l12 -8h16q3 0 12 12q-8 18 -16 20h-12q-12 -4 -12 -24z" />
    <glyph glyph-name="v" unicode="v" horiz-adv-x="949" 
d="M44 1478l28 -4h32q4 0 4 -4l8 4h100q14 0 36 4q6 -4 44 -8l24 4l16 -20v-16q16 -141 36 -256l28 -16l24 4h8q6 0 12 -12v-4q-2 -8 -20 -16q-22 4 -36 4l-4 -8v-12q6 -180 28 -180q8 -152 36 -256q4 0 4 -4q0 -9 -4 -16q16 -122 28 -164l-4 -8q4 -8 4 -12h4q13 0 28 160
q5 0 12 48q-4 22 -4 32q16 47 40 252l-4 8q6 24 20 24q36 -8 52 -8q43 0 72 4q28 -4 80 -4h8l60 -12q0 -31 -32 -192l-4 -28l4 -8q-52 -303 -52 -364q-32 -72 -32 -172q0 -18 72 -28l12 -16v-12q0 -11 -8 -24l4 -8q-4 -49 -16 -88l4 -8q-13 -94 -24 -104q-14 4 -16 4
q-60 -8 -64 -8q-20 0 -20 4q-40 -4 -60 -4h-184q-9 0 -16 4q-7 -4 -16 -4h-16q-31 0 -36 16v4q-16 164 -40 240q-12 0 -12 4q-4 0 -4 -4q-80 0 -80 36q-11 130 -28 176l4 8q-52 295 -60 384q-6 0 -16 116q-36 164 -36 228l16 12h12q4 0 4 -4q24 5 24 12q0 8 -8 8h-8l-24 -4
q-36 0 -36 108q-32 154 -32 192q0 7 24 16zM652 1474h180q22 0 56 -4q7 4 20 4q16 -4 16 -16q-24 -86 -48 -280q6 0 12 -12l20 4h16q8 -1 8 -8v-8q0 -6 -12 -12h-4l-24 4q-17 0 -40 -60l8 -24q-7 -28 -16 -28h-12q-12 0 -12 4l-20 -4h-36q-37 0 -68 -4q-22 4 -36 4
q-3 0 -32 -4l-20 4q-22 -4 -32 -4q-8 10 -8 12q8 57 8 80v4q13 24 44 24h8l8 -4q8 10 8 12q0 5 -52 16l-4 8l44 288zM800 966q-9 -24 -12 -24q6 -16 12 -16l12 16v12q0 6 -12 12zM376 954v-4q4 -89 4 -96h8q1 40 8 40q-7 60 -16 60h-4zM764 718l-4 -8q1 -8 8 -8q0 4 4 12z
M356 626v-4q0 -12 16 -12q35 4 44 4v12q-2 12 -32 12h-4q-24 -2 -24 -12zM420 594q-8 -25 -8 -32h4q5 0 20 24v8h-16zM760 106v-8h8v8h-8z" />
    <glyph glyph-name="w" unicode="w" horiz-adv-x="1268" 
d="M44 1538l20 -4h100q9 0 16 4q7 -4 16 -4h60l24 -4q7 4 20 4q24 -2 24 -12q0 -8 -8 -8h-36q-24 0 -24 -16q7 -48 28 -48h8l28 4q20 0 20 -48l-4 -20l16 -72q-6 -11 -88 -20q0 -12 -4 -12q6 -20 28 -20h56l32 -32h12q9 0 16 4q20 -5 20 -12v-12q0 -8 -8 -8h-40
q-12 0 -12 -44v-12l8 -28q0 -4 -4 -12q24 -179 40 -392q9 -12 12 -12q16 21 16 68v56q20 256 28 296l-4 20q11 68 28 68h24q4 0 4 -4q8 4 12 4v8q0 8 -8 8l-24 -4q-18 8 -20 16q20 176 20 284q24 13 24 16l28 -4h124q140 0 140 -16l-4 -16q0 -2 8 -44q0 -4 -4 -4
q14 -224 32 -224q8 0 8 -4l28 8q18 -8 20 -16v-4q0 -6 -12 -12h-4q-9 0 -16 4q-5 0 -28 -16l44 -476q4 0 4 -12q0 -16 -136 -16h-68q-32 0 -84 4q-28 -7 -28 -16v-8q0 -12 16 -12q4 0 4 4l20 -4q19 0 40 4l28 -4q44 4 76 4q4 0 12 -4q4 0 4 4q7 0 72 -4q48 0 228 4
q44 -4 76 -4q12 -13 12 -20l-36 -340q0 -40 56 -40h24q8 -1 8 -8v-4q-11 -115 -24 -152q0 -8 -72 -20h-148q-24 -2 -24 -12v-4q0 -6 12 -12h132q100 -8 100 -20v-12q0 -20 -196 -20h-104q-17 0 -44 4q-4 -4 -32 -4q-18 8 -20 16q0 17 4 32q-20 152 -32 208l-12 8h-24
q-6 0 -16 -16l4 -8q-8 -28 -12 -28q0 -4 4 -4q-7 -49 -16 -192q-8 -8 -104 -16h-252q-44 0 -56 24l4 28l-28 208l-20 4q-4 0 -12 -4q-64 0 -64 44q-52 441 -52 488l4 16q-19 65 -52 400q47 14 52 20v4q-9 0 -16 4l-8 -4q-40 0 -40 88q-21 187 -28 212q24 13 24 16zM996 1538
l40 -4h136q22 0 56 -4q7 4 20 4l12 -16q-8 -34 -12 -76l4 -20l-8 -20q0 -4 4 -4q-12 -87 -16 -152q0 -14 52 -20l4 -8v-4l-4 -8q-86 -4 -128 -4h-84l-24 -4q-6 0 -48 28q-48 0 -48 20l32 284q12 0 12 8zM976 1210q28 0 32 -36l16 -8q4 0 12 4q8 0 8 -4q29 4 32 4
q120 -4 140 -4l8 -12q-19 -39 -32 -264q-8 0 -16 -88v-36q0 -4 -4 -4l4 -8v-16q0 -31 -64 -40h-120l-56 -16q-14 0 -36 20q11 77 20 236q5 6 16 156q6 0 16 104q16 12 24 12zM240 1122l12 -8h8q8 0 8 8v12q0 8 -8 8h-8q-9 0 -12 -20zM396 626v-20h8v20h-8zM1116 626v-16h4
q0 4 4 12zM644 450q-8 -21 -20 -172q4 -16 24 -16h8q6 0 12 12q0 176 -20 176h-4z" />
    <glyph glyph-name="x" unicode="x" horiz-adv-x="952" 
d="M32 1548l48 -4h184q84 -8 84 -16l-4 -16l4 -20l-4 -20q26 0 48 -96q-12 -4 -12 -8l-28 4h-60q-20 0 -24 -16q7 -20 20 -20q128 0 128 -20q14 -72 32 -72l16 -8l28 8q16 -6 16 -12v-8q0 -21 -12 -24h-4q-2 0 -20 16q-16 -4 -16 -24v-4q27 -92 32 -92q14 0 36 108
q16 11 72 20l4 8l-12 8q-22 -4 -36 -4l-4 8v4l12 16q0 3 -4 24q76 205 76 236q0 20 28 20h176q92 0 92 -12v-4l-44 -136l-28 -80h-8q-68 -1 -68 -8l-28 4h-88q-9 0 -16 -4q-7 4 -16 4h-8q-22 0 -32 -20q4 -16 24 -16h32q19 0 40 4q2 0 16 -4l28 4q49 -4 96 -4h4q8 -1 8 -8
l-4 -20q48 -6 48 -16v-4q0 -12 -16 -12q-4 0 -12 4q-45 0 -52 -60q-26 -64 -32 -64h-4l-8 4v-8l8 -12v-12q0 -56 -28 -56q-8 10 -8 20h-8l-4 -16q0 -28 12 -44v-16q0 -16 -24 -72q0 -40 -28 -40q-46 -4 -88 -4h-60q-8 -1 -8 -8v-16q0 -6 12 -12h80q17 0 32 -8l24 4h8
q8 0 36 -104q11 -13 32 -104q19 -28 48 -140l44 -108q0 -76 92 -76q8 4 12 4q21 0 32 -76q13 0 24 -56q10 0 16 -56q11 -5 24 -60v-4q-2 -12 -32 -12h-8q-4 0 -4 4q-16 -8 -44 -8h-168l-24 4q-7 -4 -16 -4q-40 15 -40 72q-9 0 -40 116q-8 0 -20 68q-23 8 -100 12
q-64 174 -64 204q0 20 -16 20q-17 0 -48 -140q-7 0 -20 -56q0 -19 36 -32l36 4l4 -8v-16q-48 -110 -48 -160q-12 0 -24 -64q0 -14 -136 -20h-32l-24 4q-7 -4 -20 -4t-20 4l-24 -4h-24q-20 12 -20 24q56 139 80 228v4q0 8 -8 8h-36q-31 0 -36 16v8q64 182 120 356q12 0 20 68
l20 12l48 -4q14 0 36 4q42 -4 68 -4q14 0 84 4l8 -4q16 6 16 12v16q0 8 -8 8h-188q-14 0 -36 -4q-24 9 -24 16q4 28 4 48q-80 236 -80 240q-8 6 -28 84q-3 1 -20 60v8q0 6 16 12l8 -4l20 4v12q-76 0 -76 56q-71 212 -88 240zM348 1204v-16q0 -6 16 -12q52 0 52 24
q-4 16 -24 16h-20q-24 -2 -24 -12zM760 1164q1 -8 8 -8q8 0 8 8t-8 8q-8 -1 -8 -8zM736 1112v-4q1 -8 8 -8h8l-4 20h-4q-8 -1 -8 -8zM316 268h-12q-9 0 -16 4q-19 -6 -28 -16q4 -16 24 -16h80q6 0 12 12v12q0 12 -36 12q-13 -8 -24 -8zM420 216v-8h20v8q0 8 -8 8h-4
q-8 -1 -8 -8z" />
    <glyph glyph-name="y" unicode="y" horiz-adv-x="946" 
d="M650 1518l28 -4h204q9 0 16 -4q7 4 16 4l12 -16q-24 -81 -44 -124q-16 -90 -36 -116q-4 -7 -4 -20v-24q56 -3 56 -12v-8q0 -10 -28 -16q-22 4 -32 4q-32 -54 -56 -164l-80 -252q-8 -7 -12 -60l-32 -100l-32 -108q-5 0 -12 -24q4 -76 8 -96l-16 -12q-16 0 -16 4
q-40 -4 -60 -4h-192q-21 0 -24 12v80q0 14 -4 36q8 18 16 20h204q6 0 12 12q-4 16 -24 16h-176l-40 -4q-23 23 -32 96q-16 23 -40 140q-32 76 -60 196q-28 70 -60 208l16 12h32v8q0 8 -12 8l-28 -4q-27 0 -36 72q-35 77 -40 140q-8 9 -32 84v4q0 6 12 12h228q17 0 44 -4
q7 4 20 4q24 0 28 -48l-4 -16l12 -28l-4 -16q28 -34 32 -84q4 0 4 -4v-24l4 -28q-24 -5 -24 -12v-16q0 -8 12 -8l28 4q10 -24 32 -24h28q6 0 16 -16v-4q0 -8 -52 -12q-3 -48 -24 -72l-4 -20q4 -8 4 -12h4q20 11 20 20h8q16 -27 32 -128q4 0 4 -8h4q19 0 32 112q11 22 36 112
l28 8h28q8 0 8 8t-48 12l-4 8q64 253 64 276q0 15 32 24zM850 1386l12 -8l4 8v20h-4q-9 0 -12 -20zM330 1374v-24q8 0 8 12q-4 8 -4 12h-4zM670 806l-4 -28l4 -20q9 0 16 32q-6 16 -12 16h-4zM670 750v-12h4v12h-4zM322 330h276q24 0 24 -16q-8 -13 -8 -20q0 -48 28 -48
q50 -9 72 -16q4 -74 4 -108v-112q0 -36 -28 -36h-12q-4 0 -4 4q-18 -8 -52 -8h-8q-60 0 -140 4q-16 -4 -28 -4l-8 4l-8 -4q-15 0 -28 16q4 40 4 60v108q0 14 4 36q0 44 -32 44q-64 0 -64 16v44l-4 28zM594 302q0 -8 -4 -8q4 -8 4 -12q8 0 8 8v4q0 8 -8 8zM670 178v-24h8
q0 4 4 12l-4 20q-8 -1 -8 -8z" />
    <glyph glyph-name="z" unicode="z" horiz-adv-x="898" 
d="M58 1544q12 0 12 -4l28 4h308q17 0 32 -4q16 4 32 4h236q22 0 56 -4q7 4 16 4q0 -6 16 -16q-8 -44 -8 -136v-56l-28 -88v-4q52 -4 52 -16v-4q0 -6 -12 -12h-40q-30 0 -52 -80q-14 -25 -64 -152q-8 0 -24 -60q-25 -63 -84 -188q0 -48 -52 -48q-21 -4 -80 -4h-152l-28 -8
v-24l28 -4h104q46 0 140 -4l4 -8v-4q-40 -79 -64 -148q-11 -13 -52 -132q-28 -53 -28 -60q0 -10 24 -24l20 4q36 -2 36 -12v-4q0 -2 -8 -12q0 -6 12 -12h296q46 0 140 -4q1 -8 8 -8q-4 -60 -4 -88v-52q0 -22 4 -56l-8 -16l-20 4q-48 -8 -76 -8h-632q-25 0 -44 20
q8 204 16 240l-8 4h-56q-6 0 -12 12v12q6 33 68 172l80 184q7 42 60 144q0 18 60 148q44 114 88 208q25 76 44 76l24 -4q24 4 24 12t-44 12q-4 8 -4 12q0 7 20 52l-8 16q-8 0 -8 -4q-73 8 -168 8h-20q-42 0 -88 -4q-21 4 -48 4q-5 0 -40 -4l-8 4q-7 -4 -16 -4q-4 0 -24 16
q4 40 4 60q0 25 -4 60l4 20q-8 50 -8 56q15 12 28 12zM626 1052v-4q1 -8 8 -8l4 8v12h-4q-8 -1 -8 -8zM606 988v-8h8q6 0 12 12q0 8 -8 8q-6 0 -12 -12zM514 780v-4h8q8 0 8 8v8h-4q-6 0 -12 -12zM398 480v-8h4v8h-4z" />
    <glyph glyph-name="braceleft" unicode="{" 
 />
    <glyph glyph-name="bar" unicode="|" 
 />
    <glyph glyph-name="braceright" unicode="}" 
 />
    <glyph glyph-name="asciitilde" unicode="~" 
 />
    <glyph glyph-name="exclamdown" unicode="&#xa1;" horiz-adv-x="672" 
 />
    <glyph glyph-name="cent" unicode="&#xa2;" horiz-adv-x="1139" 
 />
    <glyph glyph-name="sterling" unicode="&#xa3;" 
 />
    <glyph glyph-name="currency" unicode="&#xa4;" 
 />
    <glyph glyph-name="yen" unicode="&#xa5;" horiz-adv-x="1262" 
 />
    <glyph glyph-name="brokenbar" unicode="&#xa6;" 
 />
    <glyph glyph-name="section" unicode="&#xa7;" 
 />
    <glyph glyph-name="dieresis" unicode="&#xa8;" horiz-adv-x="1024" 
 />
    <glyph glyph-name="copyright" unicode="&#xa9;" horiz-adv-x="1336" 
d="M17730 -80q-65 0 13555 0l40 -88l39 -64l35 -125l34 -29l30 -28l29 -2l67 -27l16 -26l7 -30l21 -32l43 -27l19 -112h50l23 -5h54l59 -2h1l50 -5l23 -2l22 -126h51l6 -2l7 -1h22l29 -2l1 -1l20 -124h7l39 -7l34 -22l7 -8l38 -22l35 -7l6 -8l35 -126h39l7 -13l21 -25
l20 -23l23 -10l55 -13l51 -112h22l29 -26l1 -27l20 -32l51 -26l22 -86h23l6 -22l7 -7h35l34 -22l7 -87l21 -9l20 -1l23 -8l22 -10l21 -1l6 -8l21 -87h20l23 -10l6 -11l35 -14l34 -10l39 -87l6 -6l7 -1l21 -1l20 -21l7 -1l22 -17l29 -12l1 -1l20 -17l7 -103l35 -18l34 -1
l7 -11h39l35 -12l6 -25l29 -11l1 -12l20 -104l23 -24l50 -1l53 -23l50 -20l23 -19l54 -15l51 -3l23 -14q-55 -23 -80 1819t-36.5 6066.5t-15 8336.5t-12 8000t-20 7856.5t-14.5 7823.5t-17.5 7476.5t-15 3634t-12 3223t-15 12812.5t-21 10003t-37 785t-19.5 400l-6 -95h-7
l-23 -16l-6 -16l-21 -33l-22 -16l-23 -76l-21 -27l-20 -75l-23 -176l-6 -13l-21 -80l-23 -88l-6 -64l-21 -119l-22 -29l-21 -28l-20 -2l-7 -27l-35 -26l-34 -30l-39 -32l-6 -27l-35 -112h-38l-39 -2h-52l-55 -1h-38l-61 -2l-1 -1l-52 -126h-55l-38 -7l-43 -22l-1 -8l-34 -22
l-39 -7l-55 -8l-38 -126h-53l-52 -13l-55 -25l-51 -23l-23 -10l-55 -13l-38 -112h-53l-52 -26l-55 -27l-38 -32l-61 -26l-1 -86h-52l-55 -22l-38 -7h-53l-54 -22l-55 -87l-51 -9l-50 -1l-55 -8l-53 -10l-52 -1l-43 -8l-1 -87h-34l-39 -10l-53 -11l-52 -14l-55 -10l-23 -87
l-50 -6l-55 -1l-38 -1l-39 -21l-7 -1l-35 -17l-34 -12l-39 -1l-54 -17l-51 -103l-22 -18l-51 -1l-55 -11h-53l-52 -12l-39 -25l-34 -11l-7 -12l-34 -104l-39 -24l-54 -1l-61 -23l-1 -20l-52 -19l-55 -15l-38 -3l-39 -14l-53 -23l-52 -14l-5 -100l-21 -33l-22 -1l-51 -32
l-55 -32l-39 -30l-19 -96l-21 -31l-51 -1l-52 -30l-55 -30l-38 -28l-53 -75h-48l-13 -25l-7 -25l-44 -21l-32 -75l-28 -5l-59 -4l-101 -3l-1 -34l-7 -4h-4h-8l-8 -16l-8 -95h-24h17h19h14h2h41h7h48h8h12h48h44h84h60h4h4h5h15h36h6h6h60zM29321 72134h4h8h4h28h9h7h18h2h4
h4h16h28h13h7h24h72h8h16h4h4h8h41h23h28h28h6h14h4h4h4h4h16h12h20h12h8h4h4h60h36h4h4h4h4h4h108h104h23h41h8h4h16h12h4h4h4h13h11h44h14h18h8h4h24h24h8h12h4h4h4h4h4h8h8h40h6h10h8h48h6h10h24h24h13h3h4h8h20h16h5h15h8h24h21h3h8h8h8h20h6q4612 16 5126.5 24
t1411 24.5t2433 24.5t2434.5 46t1426 51.5t1554 51t1541 125.5t2053 95t2052 47t1562 84t4127.5 76t5259.5 94.5t3594.5 77t1930.5 28.5t1030 15t1032 14.5t1543.5 26.5t2179.5 28t2056.5 31t7062.5 29.5t7198 69.5t3090 56t3590 2.5t3460.5 2.5t2948.5 1t-73242 -1125z
M117425 73262.5q1034 2.5 5132 3.5t5126 64t4620 63t5647.5 1t-9752 -66.5t-10773.5 -65zM145163 73396q773 0 1287 1t645.5 1.5t-1287 -1t-645.5 -1.5zM152099 73523q770 0 1284 3.5t1540 14.5t3088 15t1904 15t2917.5 14.5t4767.5 7.5t5282 67t4109 63t3345 6.5t6412 19
t6148 24t3091 16.5t9007 11.5t11564 62.5t4112 56t2052 13t2181.5 26.5t1669.5 29.5t1030 29t1671.5 56t10652.5 43t15139 11t10766 14.5t7192 3.5t4124 11t2831 54.5t1297 48t9875.5 5t12300 4.5t8206 9t-4439 5.5t3237.5 4.5t14993 47.5t2321 43.5t780 5t2576 10.5
t4883 12.5t3367 12t6180 48.5t6158 46.5t-99931.5 -493.5t-99683.5 -496.5zM360952 74517.5q1544 0.5 2958.5 11t2448.5 11t11294 9t16412.5 14.5t9620 6.5t-20405 -26t-22328.5 -26zM410513 74638.5q1052 51.5 4640 60.5t6156 9.5t1940 6t2958 5.5t4613.5 6t2179.5 18.5
t1153.5 18t-18.5 11.5t-20 58t202 64t976 12.5t872 12t199 21.5t205.5 19.5t295 17t8437 9t1435 8.5t-14523.5 18.5t-16147.5 18.5t-5353 57t5523 66.5t-2167 -276.5t-3555.5 -241.5zM420458 79286q1797.5 4112 2060.5 8000t391 7856.5t-2060.5 -8000t-391 -7856.5z
M405658 110442q257 3621.5 477.5 3634t-9489 3223t-9318 12812.5t735 10003t322.5 785t-22 392t-8 12168t8519 -17239.5t8783 -25778zM388262 173964q-84.5 4232 -168 13973.5t-166.5 19429.5t-110.5 11648t-53 13256t-28 26542.5t-4.5 18831.5t-9 7054t-88.5 7325
t-110.5 7368t-30 3513t-7.5 1.5t-8.5 1.5t-80.5 192t-108.5 194.5t-31 2823.5t-7 5639.5t-12.5 3906.5t-81.5 1093.5t-106.5 3218t-62.5 4498t-32.5 15622.5t-4 17677.5t-8.5 7450.5t-42.5 15117t-70.5 13827.5t-35 2830.5t-4.5 11151.5t-6 11272.5t-73 1412.5t-116.5 2348
t-91.5 1072.5t899 -127260t860 -123032zM386323 428414q-44 1323.5 -87.5 2092t-86.5 907t-85.5 275t-84 1673t173 -2367t170.5 -2580zM385851 441658q-5 2304.5 -10.5 3712.5t-9 2956.5t-70.5 2962.5t14 -5261t76 -4370.5zM385512 479490q-49 139.5 -97.5 2709t-96 4491
t-94 3725t-49.5 3645.5t-8 6066.5t-10.5 8336.5t-110 8000t-208 7856.5t-167.5 7823.5t-125.5 7476.5t-122 3634t-114.5 3223t-107.5 12813t-104.5 10116t-55 4867.5t-8 4354t-9 2095.5t-11 2103.5t-43 2072.5t-128.5 4150.5t-92 5579.5t-1.5 -6738t-23.5 52.5t-23 18538.5
t-7.5 11980.5t-8 3995.5t-37.5 3612.5t-36.5 7452.5t-0.5 18445.5t-0.5 14976t-36 896t-73.5 897t-125.5 16769t-95 16384.5t-47 257.5t-84 191t-76 193.5t-67 2823.5t-35 5639.5t-2 3906.5t-9 1093.5t-13.5 3218t-8 4498t-3.5 15622.5t-58 17677.5t-56 7450.5t-6.5 15117
t-12.5 13827.5t-13 2830.5t-13.5 11151.5t-61.5 11272.5t-55 1412.5t-6 2348t-8.5 1072.5t-9.5 1420t-13 2738.5t-8.5 2092t-64.5 907t-62 275t-1 1673t-1 3764t-1.5 4532t-8.5 3712.5t-8 2956.5t-2.5 2962.5t-52 14738t-50.5 13463.5t-7.5 2709t-7.5 4491t-7 3725
t-9 3645.5t-9.5 6066.5t-14.5 8336.5t-58.5 8000t-51.5 7856.5t-0.5 7823.5t-3.5 7476.5t-3.5 3634t-3 3223t-6 12812.5t-4 10003t-3 785t-53.5 392t-51 12168t-5.5 14216t-5.5 6288t-5 13973.5t-9 19429.5t-9.5 12416t-10.5 14024t-57 27566.5t-52 19855.5v7054v7322
t-10 7324t-47.5 19599t-37.5 16768t-3.5 896t-7 897t-7.5 16769t-51.5 16384.5t-52 257.5t-5 191t-4.5 193.5t-8 2823.5t-14.5 5639.5t-14.5 3906.5t-42 1093.5t-51.5 3218t-51 6418t-125.5 6213.5t-96.5 3020t-48.5 3485t-84 6843t-76 3382t-67.5 907t-35.5 3755.5t-2 4012
t-9 2181.5t-13.5 1161t-8 11268t-3.5 12421.5t-58 3082.5t-56 12936t-6.5 11267.5t-12.5 2817t-13 4870.5t-13.5 2318.5t-12.5 13329.5t-68 13326.5t-62 139.5t-6 3211.5t-8.5 4793.5t-9.5 4660.5t-13 6026.5t-8.5 5393.5t-64.5 2830.5t-62 3342t-1 15767.5t-1 12960.5
t-1.5 4255t-8.5 16414.5t-8 12446.5t-2.5 3997t-52 13454t-50.5 12812.5t-7.5 5938t-7.5 3239t3588 9220.5q-15 0 3672 16l1 95q-6 0 -6.5 -8t-3 -16t1790.5 8456l1382 19483q11 19376 16 22232t1034.5 14152t2361.5 26798.5t1332 19087.5t10 7054t9610 7322t10499.5 7324
t1971 19599t2224 16384t2180.5 384t3720 384.5t12433.5 16384.5t17969.5 17035t8230 1942t1800.5 1935t3592.5 17028t3521 17804.5t1733.5 4633t1549.5 4632t3213 17803.5t17542 19469.5t17410.5 7450.5t3336.5 15117t2500 13827.5t703 2830.5t2.5 11151.5t1794.5 11272.5
t2227.5 1412.5t442 2348t14.5 1072.5t526.5 1420t2363 2738.5t1844 2092t769 907t1412 275t774 1673t13186.5 3764t14464 4532t2692 3712.5t2697 2956.5t14725 2962.5t13312 14738t2597.5 13463.5t2601 2709t903.5 4491t13064.5 3725t12296.5 3645.5t1166.5 6066.5
t2096.5 8336.5t12498.5 8000t19645.5 7856.5t-1815 7823.5t-20434 7476.5t-22490 3634t-24931.5 3223t-27758.5 12813t-30842.5 10116t-517 4867.5t30323.5 4354t25310.5 2095.5t19400 2103.5t17475 2072.5t15290.5 4150.5t11949.5 5579.5t9636.5 -6733t8351.5 57.5
t12438.5 18539.5t9490.5 11981.5t6420 3995.5t11925 3612.5t-159305 -781466t-165766 -784669zM731030 2.05955e+06q153 3903 3108 3905.5t9486 3.5t7438 3.5t4619.5 321.5l3712.5 319h-10l-13.5 -1l-23 -1.5l-36.5 -0.5l-20.5 -1l-22.5 -1.5t-36.5 -62.5t-20.5 -62
t-20.5 -3.5t-37 -14.5t-23 -15t-14 -15t-20.5 -14.5t-21.5 -7.5t-39 -67t-53 -63t-36.5 -6.5t-25.5 -19t-15 -24t-10.5 -24t-35.5 -19t-36.5 -18t-22.5 -74.5t-14.5 -63t-6.5 -13t-21 -26.5t-34.5 -29.5t-20.5 -29t-14 -56t-20.5 -43t-21.5 -11t-22.5 -14.5t-21.5 -3.5
t-13.5 -11t-13.5 -54.5t-20.5 -48t-21.5 -5t-14.5 -4.5t-20.5 -9t-34.5 -5.5t-36.5 -4.5t-22.5 -47.5t-6.5 -43.5t-14 -5t-20.5 -10.5t-13.5 -12.5t-14.5 -12t-25.5 -48.5t-15 -46.5t-10.5 -3.5l-13.5 -1t-21 -11t-34.5 -11t-20.5 -9t-23 -14.5t-37 -6.5t-20.5 -9t-17.5 -60
t-15 -60.5t-10.5 -9.5t-21.5 -6t-36.5 -5.5t-51.5 -6t-51.5 -18.5t-36.5 -18t-38.5 -11.5t-52.5 -58t-37 -64t-39 -12.5t-52.5 -12t-36.5 -21.5t-15 -19.5t-12 -17t-20 -9t-14.5 -8.5t-17.5 -18.5t-15 -18.5t-12 -57t-15 -66.5t-21 -17t-37 -16.5t-19.5 4095v16414.5
v12446.5v3997v13454v12812.5v5938v3239v4867v4353.5v2095.5v2103.5v2072.5v4150.5v5574t0 -12753.5t0 -12656.5v7054v7322v7324v19599v16768v896v897v16769v16384.5v257.5v191v193.5v2823.5v5639.5v3906.5v1099.5v1555v3091v3275.5v1733.5v2956.5v4625.5v17547.5v19213.5
v7450.5v15117v13827.5v2830.5v11151.5v11272.5v1412.5v2348v1072.5v1420v2738.5v2092v907v275v1673v3764v4532v3712.5t-13272 -163060t-13119 -160566zM757421 2.3891e+06v14738v13463.5t0 -14738t0 -13463.5zM757421 2.4245e+06q0 1921.5 -3 1914.5t904.5 2944t1686 2901
t-904.5 -4865.5t-1683 -2894zM760754 2.43218e+06q-11.5 -0.5 -22 -16.5t-20.5 -32t-21.5 -31t-14.5 -63t-13.5 -63.5t46.5 95.5t45.5 110.5zM760625 2.43194e+06q-3 -15 -13.5 -30t-21.5 -29t-21.5 -51.5t-20.5 -39.5t-13.5 -3.5t-38.5 8705.5q132 -8537 129 -8552z
M769239 2.44049e+06l785.5 8t10552.5 -87h13367l9789 -16l308 -16l14118 -33zM829168 2.44033e+06l8743 -76l14118 -89l13620 -89l14131 -89l5943 -89zM895504 2.43981e+06l13367 -89q-38 -89 -68.5 -133.5t-13298.5 222.5zM908745 2.43941e+06q-26 -44.5 -53.5 -77
t-46.5 -70t53.5 77t46.5 70zM908546 2.43922e+06l-54.5 -1h-53t54.5 1t53 0zM908336 2.43916e+06q-27.5 -61.5 -54 -62t-52.5 -61.5t-47.5 -60.5t123.5 -59.5t101.5 122.5t-71 121zM925170 2.4388e+06q6683.5 -57.5 9652.5 -58t10028 -54t12054.5 -54t4978 -53t-34.5 -53
t-36.5 -51.5t-46.5 -51.5t-52.5 -51t-36.5 -51t-36.5 -50t-53 -50t-54 -49.5t-52.5 -49.5t-45.5 -47.5t-36.5 -47.5t-20.5 -46.5t8739.5 -47q0 91 -27 264t7781.5 342t7756.5 505q-55 -1 -74 -40t-38.5 -39.5t-72.5 19456.5l13317 72q5398 327 5347 326q-55 -69 -74.5 -69.5
t-29 -34t-20 -34t-36 -14.5t-77.5 -15l-55 -27l-38 -1l-53 -16l-48 -1l-13 -12h-7l-44 -253h-32l-28 -249h-59l-101 -248h-1l-7 -246h-4l-8 232q2056 231 8217 432q-19 0 3567 -15104l10503 -195h-48l2060 -15872l12332 -183q-84 0 7598 -9472t7678 -29440
q-5 -20480 -12.5 -32256t-25.5 -23936t-21 -24832t-6 -26112t-33 -27264t-32 -27904t-4 -28672t-6 -30080t-8 -46976l-28 -32000l-9 -32512l-7 32512l-18 26112l-2 25856l-4 19968l-4 18944l-16 15360l-28 14592l-13 13824q1816 0 11036 6400t11270 12416t2050 5993t-4 14
h-8l-41 -36q5916 7 9503 10t5381 3t2308 158t1034 159t2066 159t3086 175.5t2054 21t8212 13.5t8212 5523.5t1028 12066.5t1080 9251t13889.5 5652t18575.5 9493t5772 10251.5t2058 6290t2052 7459t2183.5 5660t7308.5 3605t7947 3733.5t2832 3606t3600 6667.5t4614 10524
t2052 13365.5t1028 11829t1542 12827.5t6151 14492t6407 13486.5t7431 11286.5t7439 8855t4370.5 11438t3464.5 14125.5t1420 13870t3084.5 13350.5t3974.5 13477t5006.5 9653t3470.5 9268.5t1416 9524.5t3591 5798t4869 9892t2820.5 13477t1411 9102.5t2433 5390.5
t2434.5 3607t1426 1823t1554 1698t1541 921.5t2053 7691.5t2052 13964t1562 9238t4127.5 3612t5259.5 5667t3594.5 5660t1930.5 3350t1030 3350t1032 3350t1543.5 3350t2179.5 3605t2056.5 3733.5t7062.5 3598.5t7198 5277t3090 5413t3590 3603t3460.5 914t2948.5 2702
t7427 5390t7435 5390t5132 5390t5126 3605t4620 3605t5647.5 3605t4247.5 3605t2965 3598t1287 5653t645.5 5660t2182.5 5788t2821 9372t1284 7204t1540 9269t3088 9273t1904 2998.5t2917.5 3107t4767.5 3860t5282 7459t4109 10265.5t3345 6276t6412 6935t6148 5161
t3091 934.5t9007 1051.5t11564 3752t4112 2984.5t2052 2854.5t2181.5 9268.5t1669.5 9500t1030 5646t2827 8081l18994 5382q11284 11009 16408 15380.5t7192 5157t4124 5164t2831 9273t1297 5048.5t9875.5 8218.5t12300 14874.5t8206 11819.5t5259.5 4975.5
q-19397 10022 -6461 15031t14993 7714t2321 9508t780 11814t2576 11821t4883 11805.5t3367 7822t6180 3605t6158 5269.5t4108 11022.5t5130 9229.5t2958.5 5645.5t2448.5 3726t11294 3748t16412.5 10035t9620 13477t4621.5 7317.5t2206 7445t4640 9254.5t6156 9255
t1940 7446t2958 3478t4613.5 3350t2179.5 3350t1154 3485t17 5269t-70 8734t398 5292t1332.5 5285t1007.5 5157t318 5780.5t327.5 9494t361 9517.5t2156 11694t11650.5 13615t10880 11830t12488.5 5804t-3039 5285t-30719 11181.5t-5119 13869t22400.5 13870t11520 13622
t3840 14619.5t6784.5 12187t15488.5 9397.5t12288 11829t3712 11828t7040.5 11565t16256.5 13357t12928 13869t3968 13869t7424.5 13877t19713 13870t32129 11798.5t31489 9879t30081 11943t28673 14119t27905 13998t27136.5 11829t14208 11803t4992 9626t7936 9498
t10880 9483.5t13184 9252t6400 13604t896 13606t-561968 -563306t-555924 -569918zM2.05074e+06 3.5976e+06q7040.5 4885.5 13953 5016.5t13697 517.5t13441 6798t13185 13462.5t12672.5 10763.5t15104 6659.5t17792 8451.5t17536 6290t8771 9528.5v1571l66 10018v1815
l62 13106v5942l45 13106v5396l43 5894v5396q-133408 -134617 -126368 -129732zM2.17715e+06 3.73324e+06v11009l41 9991v8743l40 1573v9767zM2.17724e+06 3.78845e+06v14118l18 13622v16068l2 -24552v18444l5 2070l1 2572l49 3076l1 11296l46 2056l1 2052l40 2052l1 17411
l32 6408l1 2331l30 1028l1 1039l29 5404v3861l100 2056zM2.1776e+06 3.8973e+06l97 5180v2060l92 1546v4112zM2.17787e+06 3.91122e+06v5140l86 19457v1812l84 10838v5140l32 1032v1056l29 1028v1028l26 1028v1028l25 15364v1031l21 13572v1028l10 1028v1028l18 1028v530
l22 5642v4124l1 6168zM2.17823e+06 4.01421e+06l24 5391l1 6682l22 4102zM2.17828e+06 4.03192e+06l20 15400v22532l220 2075v4400l209 1542v1044v21552v3478.5v2440.5v2093v6503v6591.5v2056v6026.5v11272v7696v6289.5v6536.5v2355v1614v7214v7698v2054v1028v1028v3084
v3086v2056v2693.5v1683.5v4118v4620v1546v1542v3078v5014.5v3486.5v7694.5v8072v2071.5v3993v5126v2819v1034v5644v9094.5v4484.5v1056v8224v8196v1028v1028v8708v8333.5v2196.5v3339v1796v1028v1034.5v910v1028v15490.5v16908.5v5533.5v9886t-449 -334284z
M2.17873e+06 4.37578e+06v3701v1410v3295.5v4026.5v1579t0 -8058.5t0 -5953.5zM2.17852e+06 4.3903e+06q124 5188 182 5184t58 -10t-57 -14t-57 -19t-54 -16t-54 -23t-52 -35t-52 -20t-5.5 -9t-5.5 -52t-4 -55.5t-4 -20t-3.5 -18.5t-3.5 -14t-114.5 -42t-114.5 996l-7680 -4
l-4096 11786t-12544 11778l-31232 -8l32256 -17l1536 -27l2560 -56l2049 -253l4352 -186l-6656 -9l-13824 -19l-28416 -4l1024 -4l2816 -4l2561 -6q-11 -5 -11 -54t-118.5 -69t-118.5 -52l-1 -50l-1 -40t-6 -35.5t-6 -22t-8.5 -10.5t-8.5 -6t-119 -6t-119 -10.5t-79.5 -16
t-79.5 -23.5t256 -20t3456 -8t4736.5 -65t11137 -78t18561 -57.5t17408.5 -72t-2688 -33.5t-10624 -12t3456 -12t4608.5 -35.5t2816.5 -62t-768 -74t-4096 -86t-1792 -64.5t2432 -31t4992.5 -14t3200.5 -11t128 -20t-1536 -18t-10624 -14t-18944 -26t-20352 -54t-9856 -52
t2560 -15.5t3840 -10t3968 -12.5t11392 -8l16640 -4l7296 -4l128 -4l128 -4l9472.5 -4t9472.5 -6t256 -6l1920 -4t10893.5 -10t18789.5 -16t11136 -17t12744.5 -10t-3423 -15t-31103 -24t-5119 -22t22400.5 -18t11520 -8t3840 -7t6784.5 -10t16129 -9t24960.5 -8t12416 -6
t4096 -15.5t7296.5 -22t19585 -16.5t32129 -10t31489 -5t30081 -30t28673 -36.5t27905 -20t27136.5 -27.5t14208 -28t4992 -21t7936 -30t10880 -31t13184 -16t6400 -15.5t896 -12t640.5 -15.5t7041 -31.5t13953 -22t13697 -22.5t13441 -40t13185 -25.5t12672.5 -20
t15104 -20t17792 -10t17536 -10.5t17280 -16t17024 -23.5t16384 -14t13696 -13.5t11264 -16t10880 -29.5t10624 -60t10368 -59t5760 -34t2944 -35.5t2560 -30t896.5 -18.5t6913 -22t12161 -12.5t11009 -6t9217 -5.5t7937 -10t7552.5 -10.5t16512 -8t25216 -6l24192 -2.5
l23040 -4t22272 -5.5t21760 -14t14848 -18t7808 -8l7040 -4t6528 -8t5888 -10.5t3968 -22t3584 -35.5t5120 -24t2944.5 -8t3201 -9t5889 -8l5376.5 -3t-2048 -4t-10624 -8t-12160 -8t9728 -8t30720 -6.5l29440 -4t28416 -5.5t27136 -6t14720 -25.5t2432 -28t1920 -53.5
t-2560 -64t-7296 -17.5l-7936 -4t-8320 510.5t-19840 512t512 -26t16896 -38.5t2048 -18t2304.5 -5.5t3200.5 -7.5t2061 -10t-115 -8.5t-101 -6t-101 -5t-72.5 -6t-72.5 -43l-2 -63.5l-2 -26t-5.5 -4.5t-5.5 -24t-5 -48t-5.5 -132t-6 -187t-990502 -26175z
M3.16925e+06 4.41636e+06v4769t256 9615t244 29752q0 -24 -8.5 -34t-8.5 -24t-238 5652l159 60q2 1817 2 1801q-25 -8 -25 -18t-6 -28t-6.5 -46t-38 -29.5t-38.5 -6.5l-70 -4l-1 -12l-66 -40v-48l-169 -9v-7l-4 -16v-12l-23 -10v-98l-13 -12l-1 -4l-9 -4v-4l-241 4
q239 1028 242 2060q0 -8 4096 15390l5889 -38l-2 -27l255 19720l245 -4q0 4 -9216 2140t-9396 25298q0 6682 -86.5 12856t-86.5 8487l-3 5401l-3 5149t-7 5391t-7 4356t-8 7951t-8 14796.5t-14 9923.5v7180l-74 3586v2323l-56 2055v4376l-1 7188v5155v2312v1040l-1 -936
q73 0 201.5 1028t129 822l0.5 -212t0 4094l-14 -4v-8q18203 2060 27891 3084.5t11392 1855.5t13000.5 1089t-3807 775t-31487 1819t-5119 3866t22400.5 3590t11520 1540t3840 4102t6784.5 4102t16129 3080t24960.5 4620.5t12416 3464.5t4096 2448t7296.5 1552t19585 1028
t32129 770.5t31489 3214.5t30081 7096t28673 8499t27905 6537t27136.5 2560t14208 3071.5t4992 129t7936.5 -16891.5t10881 -11260.5t13953 4993t13697 5121t13441 7431t13185 4780t12672.5 -9686t15104 48.5t17792 18659t17536 8506t17280 131.5t17024 10t16384 10
t14976 114.5t13184 119t11904 6t11264 12.5t10880 21t10624 122t10368 119t5760 7.5l3200 2t2816 11t256.5 148t6273 147t12161 10l11009 2.5t9217 13.5t7937 141t7552.5 248t16512 237t25216 235.5t24192 228t23040 220t22272 122.5t21760 25.5t14848 16.5t7808 14.5
t7040 12t6528 128.5t5888 249t3968 136t3584 15.5l5120 3.5t2944.5 12.5t3201 137t5889 232.5t5376.5 122.5t-2048 18t-10624 12.5t-12160 13t9728 107.5t30720 176t29440 88t28416 19t27136 7.5t14720 8.5t2432 107.5t1920 174.5t-2560 90t-7296 40t-7936 21.5t-8320 7.5
t-19840 11.5t512 149t16896 285t2048 245.5t2304.5 206t3200.5 203t-1152 187t-10240 171.5t-35328 253l1024 158q2816 156 4096.5 233.5t2688.5 144.5t-1024 132t-2176 128.5t1792 124.5t3712 99t-128 70.5t-14720 62l-12416 29.5q512 12800 3712 18560t4736.5 11264
t11137 8192t18561 3968t17408.5 2944t-2688 -6144t-10624 -16768t3456 1408t4608.5 10752t2816.5 2432t-768 2816t-4096 13696t-1792 25600t2432 24448t4992.5 12160t3200.5 1408t128 1920t-1536 14848t-10624 27648t-18944 27008t-20352 26368t-9856 25856t2560 24832
t3840 12800t3712 1920t11136 2176t16640 2688t7296 11136t128 640t128 -8704t9472.5 896t9472.5 12416t256 11776t1920 1024t10893.5 1152t18789.5 9613.5t11520 19045.5t13128.5 11008t-3423 12616.5t-31103 25377t-5119 14848.5t22400.5 896t11520 2560t3840 2560
t6784.5 -3456t16129 -2304t24960.5 1536t12416 3200t4096 5376t7296.5 -1536t19585 -2304t32129 1920t31489 512t30081 2816.5t28673 5120.5t27905 4864t27136.5 2560t14208 640t4992 640.5t7936 512.5t10880 -2048t13184 -4864t6400 -5248t896 -7168t640.5 -9216
t7041 -1408t13953 6528t13697 4224t13441 3712t13185 3072t12672.5 128t15104 -1792t17792 2048t17536 3968t17280 896t17024 3200t8510 1920v-11264l45 8448v768l43 5632v1024l42 -11520v-29440l41 8960v768l40 3072v1280zM4.68499e+06 5.13698e+06v-29952l18 10496v9984
l2 1024v2816l5 3073l1 7681l49 7168l1 -12544l46 -13056l1 -14080l40 -21248l1 -22016l32 -22528l1 -25088l30 -25600l1 -25856l29 -31232v-32256l100 32512v31232l97 19456v16640l92 15104v12800l88 11520v11008l86 5376v2560l84 3328v-15616l32 -17920v20736l29 768v4096
l26 1536v25856l25 25344v23552l21 768v2048l10 1792v27904l18 27392v26624l22 26112v25600l1 24064l1 1536l24 2304l1 2048l22 3328q276 18944 386 18850.5l110 -93.5l-104.5 -0.5l-104.5 -0.5l-104 -3l-104 -3l-62 -45.5l-62 -45.5l-58 -0.5l-58 -0.5l-57 -3.5l-57 -3.5
l-54 -1l-54 -1l-52 -36.5t-52 -50t-5.5 -51t-5.5 -125.5l-4 -93.5l-4 -45.5t1792 -128l-6912 -65l-7680 -110l-8192 -1l-8448 -6h-31232l32256 -1h1536l2560 -19h2049l4352 -1h-6656l-13824 -228h-28416l1024 -10h2816l2561 -2h2816l-4864 -23h512l3072 -19z
M4.631e+06 5.32281e+06l-4608 -225h-24832l512 -13h6400l3073 -2h19201l17921 -2h16896l-22272 -20l1024 -1l5888 -20h3329l2304 -18h-3840l-4352 -2h768l4096 -3h5889l512 -24l-256 -1l-2816 -2h-18432l-19456 -238h-21248l1536 -236h3584l4096 -235h3584l18944 -221h14336
l256 -219v0l256 -26h18689l256 -25h256l3584 -8h18203l19376 -21h3920l22593 -3h-30207l-32767 -254h22529l22272 -244zM4.71276e+06 5.32075e+06l6912 -28h6657l25601 -3h24320l512 -4h7680l6913 -21h32257l32001 -253h30977l29185 -212h28161l27649 -33h26624l1792 -3
h8192l7681 -22h14081l13825 -4h13569l13313 -211h13057l12288 -141h17920l17664 -35h17408l17152 -3h16896l15872 -12h14080l12288 -5h11520l11008 -210h10752l10496 -139h10240l1280 -41h5120l512 -39h1l12545 -4h11777l10241 -11h8193l7681 -12l7424 -1l25600 -30
l24832 -1l23552 -28h22528l22016 -207h21504l8192 -205h7424l6656 -201h6400l5376 -173h2560l4608 -170q5632 168 5889 168l6145 -158h5633l5120 -156h-9216l-12032 -155h-12288l31744 -134h29696l29184 -130h27648l26624 -127h2816l-8 -122l-3.5 -38l-3.5 -38z
M5.66205e+06 5.31733e+06l-113 -29.5l-113 -29.5l-112 -25l-112 -25l-111.5 -22.5l-111.5 -22.5l-67 -21.5l-67 -21.5l16128 -10.5t16896 -10.5l2048 -5l2304.5 -5t3200.5 -6.5t-1152 -6.5t-10240 -97.5t-21120 -97.5t-13696 -93t1920 -93t2688.5 -40.5t2688.5 -40.5
t-1024 -1.5t-2176 -1.5t1792 -8t3712 -8t-128 -3l-14720 -3t-12160 -50.5t3456 -50.5t4736.5 -49.5t11137 -49.5t18561 -46t17408.5 -46t-2688 -1.5t-10624 -1.5l3456 -4l4608.5 -4l2816.5 -3.5t-768 -3.5t-4096 -54.5t-1792 -54.5t2432 -53.5t4992.5 -53.5t3200.5 -52
t128 -52t-1536 -51t-10624 -51t-18944 -50t-20352 -50t-9856 -47t2560 -47l3840 -3l3712 -3l11136 -4.5l16640 -4.5l7296 -4l128 -4l128 -6.5t9472.5 -6.5t9472.5 -37t256 -37t1920 -93.5t10893.5 -93.5l18789.5 -0.5l12416 -0.5l14024.5 -3t-3423 -3t-31103 -45.5
t-5119 -45.5l22400.5 -0.5l11520 -0.5l3840 -3.5l6784.5 -3.5l16129 -1l24960.5 -1t12416 -36.5t4096 -50t7296.5 -51t19585 -125.5t32129 -96.5t31489 -48.5t30081 -84t28673 -76.5t27905 -87.5t27136.5 -55.5l14208 -3.5l4992 -3l7936 -0.5l10880 -0.5t13184 -9.5
t6400 -9.5l896 -0.5l640.5 -0.5t7041 -114t13953 -114l13697 -5l13441 -5l13185 -1l12672.5 -1t15104 -11.5t17792 -11.5t17536 -9.5t17280 -9.5t17024 -112.5t16384 -112.5t13696 -6.5t11264 -6.5l10880 -1l10624 -1l10368 -1l5760 -1t2944 -10t2560 -10.5t896.5 -10.5
t6913 -10t12161 -9t11009 -9l9217 -1l7937 -1l7552.5 -1.5l16512 -1.5l25216 -1l24192 -1.5l23040 -1.5l22272 -1t21760 -119t14848 -119t7808 -118t7040 -118t6528 -117.5t5888 -117.5t3968 -110.5t3584 -110.5t5120 -109.5t2944.5 -96.5t3201 13t5889 -12.5t5376.5 -12.5
t-2048 -4l-10624 -4t-12160 -10.5t-6206 -10.5l-62 -1.5l-58 -1.5t-58 -127t-57 -127t-57 -122t-54 -122t-54 -14t-52 -14l-52 -1.5l-5.5 -1.5l-5.5 -2l-4 -2l3 -21v-384t-3456 -6016t-3682 2816l-112 -3t-112 -11t-223 -7h134q126 -11520 126 -11661l-6 -17.5l-5 -17.5
l-5 -1.5l-4 -1.5l-5 -12h-17v-5h-230v-210h-202v-139h-145v-41h-4v-39h-11v-4h-10l-1 -11h-11q237 3073 239 10754q0 -28 3072 179h4352l-238 -205l159 201h2q0 173 3200 258t3188 253q-1 158 -38.5 236t-38 155.5t-35.5 144.5t-35.5 132t-33.5 128.5t-33 124.5t-84.5 99
t-84.5 70.5l-4 91.5v50l-23 45v43l-13 21l-1 10l-9 13v195l-241 186v81l-239 3q3 0 11 8t19.5 11l11.5 3l-1 25856l-2 -99v0q-256 23552 -1664 23936t-10624 1408t-18944 1920t-20352 14848t-9856 27648t2560 27008t3840 26368t3840 25856t11264 24832t16640 12800
t7296 1920t128 2176t128 2688t9472.5 11136t9472.5 640t256 -8704t1920 896t10893.5 12416t18789.5 11776t12544 1024t14152.5 1152t-3807 9613.5t-31487 19045.5t-5119 12032t22400.5 13640.5t11520 25377t3840 14848.5t6784.5 896t16129 2560t24960.5 2560t12416 -3456
t4096 -2304t7296.5 1536t19585 3200t32129 5376t31489 -1536t30081 -2304t28673 1920t27905 512t27136.5 2816.5t14208 5120.5t4992 4864t7936.5 2560t10881 640t13953 3456.5t13697 3328.5t13441 -2048t13185 -4864t12672.5 -5248t15104 -7168t17792 -9216t17536 -1408
t17280 6528t17024 4224t16384 3712t14976 3072t13184 128t11904 -1792t11264 2048t10880 3968t10624 896t10368 3200t5760 2304t3200 -6016t2816 -1408t256.5 4608t6273 3200t12161 3328t11009 -5248t9217 -20480t7937 -10240t7552.5 4864t16512 1920t25216 2176
t24192 -5248t23040 -20864t22272 -9728t21760 10240t14848 5504t7808 1920t7040 2944.5t6528 5377t5888 7424.5t3968 -2688t3584 -12800t5120 -13568t2944.5 -17664t3201 -21632t5889 -22272t5376.5 -23808t-2048 -25344t-10624 -25728t-12160 -28544t9728 -31744t30720 128
t44032 47488l27648 19456q26624 16640 28032 24192t2432 13952t1920 12160t-2560 11264t-7296 8192t-7936 3968t-8320 2944t-19840 -6144t-15616 -7994q32256 81 33024 82.5t2048 9.5t2304.5 11t3200.5 53.5t-1152 100t-10240 95.5t-21120 47.5t-13696 5.5t1920 7.5
t2688.5 58t2688.5 108t-1024 105.5t-2176 103t1792 101t3712 97t-128 50t-14720 7.5t-12160 8.5t3456 10.5t4736.5 43.5t11137 130.5t18561 94l17408.5 3.5t-2688 48.5t-10624 46l3456 4l4608.5 4.5t2816.5 37.5t-768 3530t-4096 -6735t-1792 55.5t2432 18659t4992.5 8506
t3200.5 131.5t128 10t-1536 10t-10624 114.5t-18944 119t-20352 6t-9856 12.5t-908234 -135255zM7.48568e+06 5.58799e+06q2048 112.5 3712 119t11136 7.5l16640 2t7296 11t128 148t128 147t9472.5 10l9472.5 2.5l256 2.5t1920 130t10893.5 248t17492 237t8582.5 235.5
t364 228t343.5 220t173 122.5t15 25.5t26.5 16.5t191 14.5t353.5 12t176.5 128.5t16 249t28.5 136t204.5 15.5l381.5 3.5t379 12.5t373.5 137t368 232.5t365 122.5t362 18t183.5 12.5t19.5 13t31 107.5t42.5 176t27.5 105.5v3v12v5v210v139v41v39v4v11v12v286v284v207v205
v201v173v170v168v158v156v155v134v130v127v122v76v65v59v50v45v43v21v10v13v195v186v81v3v16v6v101v99v92v3v8v7v109v107v104v102v100v94v6v9v8v13v74v187v1v6v91v1v7v2v73v6987v-20455v20568v16750v262v1v19v1v228v10v2v23v19v225v13v2v2v20v276v18v2v3v24v258l48 238v0
q-103650 -34442 -101602 -34329.5zM7.58728e+06 5.62232e+06l-1 118l-2.5 118l-2.5 117.5v117.5l-0.5 110.5t-28 110.5t-28 109.5t-27.5 109.5t-27.5 13t-27 13t-27 12.5t-26.5 12.5l-26.5 4l-26 4t-26 10.5t-24.5 10.5l-24 1.5l-35 1.5t-35 127t-34.5 127t-34.5 122
t-34 122t-34 14t-33.5 14l-33.5 1.5l-33 1.5l-33 2l-31 2t-31 10.5t-22.5 10.5t-22.5 126.5t-21.5 126.5t-21.5 106t-21 106t-21 16.5t-20.5 16.5l-20.5 1.5l-20 1.5t-20 11l-2.5 11l-2.5 2l-9 2t-9 105.5l-1 105.5l-1 70.5l-2.5 70.5l-3 17.5t-25 17.5l-25 1.5l-23.5 1.5
t-23.5 6t-20.5 6l-20.5 2.5l-16.5 2.5t-16.5 105t-15.5 105t-15.5 69.5t-15 69.5t-14.5 20.5t-50 20.5t-50 19.5t-48.5 19.5l-48.5 2l-46 2t-46 5.5t-44 5.5t-44 6t-43 6.5t-43 15.5t-42 15.5t-42 14.5t-16 14t-16 103.5t-14.5 103.5t-14.5 102.5t-13 102.5t-13 100.5
t-12.5 100.5t-12.5 86.5t-10.5 86.5t-10.5 85l-5 85l-5 84t-9 84t-9 79t-11 79t-11 78l-0.5 78l-1 77.5t-12.5 77.5t-12.5 67t-11.5 67t-11.5 65t-10.5 65t-10 63.5t-110 63.5t-110 61t-104.5 61t-104.5 38t-104 38t-104 32.5t-62 32.5t-62 29.5t-58 29.5t-58 25t-57 25
t-57 22.5t-54 22.5t-54 21.5t-52 21.5t-52 10.5l-5.5 10.5l-5.5 5l-4 5l-4 6.5t1611.5 -2736.5t1610.5 -2743zM7.58405e+06 5.62791e+06q0 97.5 -114.5 97.5t-114.5 93t-113 93t-113 40.5t-112 40.5l-112 1.5l-111.5 1.5t-111.5 8t-67 8l-67 3l-63 3t-63 50.5l-3 50.5
l-3 49.5l-5 49.5l-5 46l-4 46l-4.5 1.5l-9 1.5l-8.5 4l-115 4l-115 3.5l-101 3.5t-101 54.5t-72.5 54.5t-72.5 53.5l-2 53.5l-2 52l-5.5 52l-5.5 51l-5 51l-5.5 50l-6 50l-5.5 47t-118.5 47l-118.5 3l-1 3l-1 4.5l-6 4.5l-6 4l-8.5 4t-8.5 6.5t-119 6.5t-119 37t-79.5 37
t-79.5 93.5l-1 93.5l-1 0.5l-12.5 0.5l-12.5 3l-6 3l-6.5 45.5t-38 45.5l-38 0.5l-35.5 0.5t287 0q169 0 169 1792l4 512v18715l23 16750v262l13 1l1 19l9 1v228l241 10v2l239 23v19l3 225v13l16 2v2l23 20l1 276l2 18v2l255 3v2l245 258v238l184 236v235l180 221v219
l173 26v25l6 8v21l14 3v254l16 244v28l14 3v4l74 21v253l56 212v33l1 3v22v4v211l1 141v35l73 3l1 12l1 5v210l1 139v41l14 39v4l71 11l89 12l89 286l89 284l89 207l89 205q-222 -45122 -222 -45024.5zM7.58436e+06 5.67313e+06l89 173l75 170l176 168z
M7.58471e+06 5.6738e+06l80 156l88 155l64 134zM7.58508e+06 5.67438e+06v127l27 122l26 76zM7.58516e+06 5.67477e+06l26 59l27 50l28 45l126 43l29 21l1 10l28 13l30 195l32 186l28 81l110 3v16l5 6v101l2 99v92l5 3l2 8l126 7v109l2 107l1 104l32 102l2 100l110 94v6l7 9
l22 8l8 13zM7.58597e+06 5.67653e+06l7 187l8 1l126 6v91l13 1l25 7l23 2l10 73l13 22873l112 22873v22873l26 22859l27 -20471l32 20568l26 16517l86 1v19l22 769l7 28672v4887l22 5139l87 28160l9 532l1 6164l8 536l10 32256l1 6147l8 5144l87 28160v5379l10 1044l11 5488
l14 5l10 5644l87 5637l6 3198l1 12l1 2838l21 3083l1 31762zM7.58694e+06 5.99593e+06l12 3350l1 2926l17 13zM7.58708e+06 6.0048e+06l18 3338l1 31761l11 266zM7.58711e+06 6.04173e+06l-12 2566l-25 31744l-11 4102l-12 3855l-104 4208l-24 8zM7.58692e+06 6.09001e+06
l-23 1800l-20 2430l-19 3l-15 4l-3 5635l-14 1126l-23 23l-14 22l-100 1303l-33 5733l-1 3585l-32 1536l-32 1800l-30 1543l-96 26112l-31 5140l-1 96l-30 6401h-30l-28 7243l-75 15v3849l-25 24576l-25 2313zM7.5862e+06 6.2005e+06l-75 19483l-4 19376l-3 2640l-34 22592
l-3 32512zM7.58608e+06 6.29736e+06v4867l-16 368l-95 19v5908zM7.58595e+06 6.3135e+06l-16 6145l-33 532l-16 788zM7.58581e+06 6.32158e+06l-27 21l-75 772l-176 5141l-10 28672l-80 1302l-88 3094l-64 1292zM7.58516e+06 6.39414e+06l-29 3083l-28 5644l-2 2940
l-27 4609l-26 2829l-30 5643l-32 28160l-27 3338zM7.58485e+06 6.45603e+06v2684l-5 4353v2566l-2 5642v1660l-5 16l-2 1551zM7.58471e+06 6.47835e+06v28672l-2 2055l-1 2311l-32 2057l-2 32256l-110 768v1046zM7.58456e+06 6.54829e+06l-22 26112l-8 5888l-22 5637
l-7 5910l-8 25870zM7.58436e+06 6.61797e+06v7l-13 2054l-25 1894l-23 20l-10 5120zM7.58428e+06 6.65167e+06l-112 256v28l-26 19200l-27 3855l-32 2400l-26 9l-86 2336zM7.58397e+06 6.68213e+06l-22 6987l-7 -20469v20568l-22 16518l-87 1l-9 19l-1 769l-8 28672
l-10 4887l-1 5139l-8 28160l-87 532v6164l-10 536l-11 32256l-14 6147l-10 5144l-87 28160l-6 5379l-1 1027l-1 5380l-21 32256l-1 1302l-17 3094l-12 1292l-1 32256l-17 3083l-103 5644l-18 2940l-1 4609l-11 2829v5643l-12 28160l-25 3338l-11 5645l-12 2684l-104 4353z
M7.58318e+06 7.0058e+06l-1 5642l5908 1660v0v0v0v0v0v0v0v0v0v0v0v0v0v0v0v0v0v0v0v0v0v0v0v0v0v0v0v0v0v0v0v0v0v0v0v0v0v0v0v0v0v0v0v0zM7.58909e+06 7.0131e+06v0v0v0v0v0v0v0v0v0v0v0v0v0v0v0v0v0v0v0v0v0v0v0v0v0v0v0v0v0v0v0v0v0v0v0v0v0v0v0v0v0v0v0v0v0v0v0v0z
M7.58909e+06 7.0131e+06v0v0v0v0v0v0zM7.58909e+06 7.0131e+06v0v0v0v0v0v0v0v0v0zM7.58909e+06 7.0131e+06v0v0v0v0v0v0zM7.58909e+06 7.0131e+06v0v0v0v0zM7.5891e+06 7.0131e+06q9.5 0 9.5 4102l-15 3855zM7.58909e+06 7.02527e+06l-14 8l-23 1801l-14 1800z
M7.58894e+06 7.03131e+06l-33 3l-1 4l-32 5635l-32 1126zM7.58881e+06 7.0381e+06l-96 22l-31 1303l-1 5733zM7.58865e+06 7.04874e+06l-30 1536l-28 1800l-75 1543v26112zM7.58849e+06 7.08487e+06l-25 96l-21 6401h-75l-4 7243l-3 15l-34 3849l-3 24576v2313v8201
l-16 19483l-95 19376v4432l-16 22592l-16 -32768l-33 256zM7.58814e+06 7.1758e+06l-76 368l-27 19l-75 5908l-176 4974l-11 6145z" />
    <glyph glyph-name="ordfeminine" unicode="&#xaa;" horiz-adv-x="648" 
 />
    <glyph glyph-name="guillemotleft" unicode="&#xab;" horiz-adv-x="944" 
 />
    <glyph glyph-name="logicalnot" unicode="&#xac;" 
 />
    <glyph glyph-name="registered" unicode="&#xae;" horiz-adv-x="1336" 
d="M13 0q2582 4 5920 4q-124 2816 2052.5 4352.5t2171.5 5377t774 7424.5t779 3480.5t2566 101.5l15872 -7040t15880 -17664t783.5 -21632t768 -22272t2096.5 -23808t2104 -38144q2055 -25856 2050.5 -41472t1795.5 -47872q-9 32512 16119 48128t16126.5 15654t0.5 38t-20 0
v-65l3 59q4 50 4 95l26112 43q5888 5376 5866 7936q1303 3328 1314 3425.5l11 97.5l12935 -8960t12935 -9000.5t-1 -37.5q1536 16 2436 16t1671.5 768t771.5 667l26112 99q0 -92 2570 -90.5t2666 1.5q6401 8 6401 15q28 109 65.5 109t45 13696t1932 13644t14212.5 -1
t12297 151q2336 94 4716 94h-27q19376 1536 19365 3840q20568 2048 28827 2041.5t8260 -6.5q19 18944 20.5 10112t185.5 -8704t184 1664h4887l-20 91q4974 1 4975 1t2573 896t2552 1408q536 -73 16664 -86.5t16140 -51t13.5 -125.5t1.5 -100.5t-20 -92.5l6254 -88l21 16750
l772 1q-3 0 2687 0t2753 -3l63 -3v256q-5 -19 2817 -18.5t2811 114.5t635 119t772 5l1541.5 -1t7185.5 22q2940 19 2958 19q1 0 1415.5 112.5t7057.5 112.5h-110v-13q13 2 8 3t5640 1l-10 5121q31761 5120 31761.5 5120t0.5 4608q2566 512 2544 1280q2566 6145 2566 6401
t15872 -2048t15864 -2422t767.5 -0.5t4631.5 117.5q28672 -8960 28664 -8960q1801 -9472 1801 -9485t-7 12q2057 8 18185 18.5t16125 10.5q4 768 5639 1022h-4q26112 0 26100.5 0t-0.5 -1536t662.5 -1522t3518 15.5t2873.5 1.5t6.5 -2t767.5 8.5t2568 263.5
q1543 212 27655 212q-20 8448 0 8448l96 768q6401 5632 6401 5630t14 103.5t89 246.5l15 35q3849 3 3753 3q9 3072 4.5 3712t4096 -5248t23583.5 -35840l19376 10496l4432 9984l22592 1024l-32768 2816l256 3073l4867 7681l368 7168l19 -12544l5908 -13056l4974 -14080
l6145 -21248l532 -22016l788 -22528l624 -25088l21 -25600l772 -25856l789 -31232l1150 -32256l5 32512l5644 31232l5637 19456l3198 16640l12 15104l2838 12800l3083 11520l31762 11008l267 5376l-13 2560l-22 3328l-11 -15616l-110 -17920v20736l-13 768l-10 4096
l-22 1536l-13 25856l-10 25344l-124 23552l-17 768l-1 2048l-10 1792l-6 27904l-22 27392l-10 26624l-6 26112l-124 25600v24064l-16 1536l-6 2304l-15 2048l-15 3328l-16 18944l-112 -17664v256l-8 1536l-7 23296l-9 256l-7 1792l-8 512l-9 18715l-126 16750v262l-3 1v19
l-4 1l-22 228l-3 10l-4 2l-102 23v19l-23 225v13l-22 2l-5 2l-23 20l-22 276l-101 18l-14 2l-1 3l-6 2v258l-7 238l-8 236l-6 235l-7 221l-102 219v26l-20 25l-20 8v21l-96 3l-25 254l-1 244v28v3l-28 4l-75 21v253l-15 212l-15 33l-9 3l-96 22v4l-9 211l-9 141l-32 35l-9 3
l-76 12zM710738 158433l-75 210l-176 139l-18 41l-80 39l-88 4l-64 11l-134 12v286l-1 284v207l-19 205l-3 201l-1 173l-112 170v168l-19 158l-23 156l-20 155l-19 134l-110 130v127l-2 122l-20 76l-24 65l-20 59l-2 50l-24 45l-126 43v21l-24 10l-3 13l-20 195l-24 186
l-110 81v3l-21 16l-3 6l-4 101l-3 99l-21 92l-4 3l-126 8v7l-5 109l-22 107l-12 104l-22 102l-5 100l-12 94l-126 6v9l-12 8l-11 13l-22 74l-12 187l-11 1l-124 6l-18 91l-1 1l-11 7l-13 2l-22 73l-11 22873l-110 22873v22873l-13 22859l-10 -20471l-22 20568l-13 16517
l-10 1l-124 19l-17 769l-1 28672l-10 4887l-6 5139l-22 28160l-10 532l-6 6164l-124 536v32256l-16 6147l-6 5144l-15 28160l-15 5379l-16 1044l-112 5488v5l-8 5644l-7 5637l-9 3198l-7 12l-8 2838l-9 3083l-126 31762v267v3350v2926v13v2582v3338v31761v266v1558v2566
v31744v4102v3855v4208v8v1801v1800v2430v3v4v5635v1126v23v22v1303v5733v3585v1536v1800v1543v26112v5140zM707871 634842v6401v0v7243v15v3849v-17508zM707871 676926v2313v8201v19483v-29997zM707871 726299v2640v22592v32512v256v4867v368v19v5908v4974v6145v532v788v624
v21v772v5141v28672v1302v3094v1292v32256v3083v5644v2940v4609v2829v5643v28160v3338v5645v2684v4353v2566v5642v1660v16v1551v3856v28672v3210.5t0 -270876zM707871 1.01652e+06v16512v907v909v13442v16000t0 -30477t0 -17293zM707871 1.07582e+06v15890v13066v134.5
v1030.5v1974v957v2570v14860.5v12428.5v142v9614v11527.5v3127.5v1204.5v1172.5v2358v4683.5t0 -6741t0 49.5v18543v8259.5t0 -59903t0 -56948.5zM707871 1.19308e+06v14720.5v16779.5t0 -14720.5t0 -16779.5zM707871 1.24624e+06v14346v3348v3350v16396v19201.5v5645.5
v16652t0 -39469.5t0 -39469.5zM707871 1.34515e+06v3203.5v18818v16779v2198v2193v16774v17669.5v4363.5v4292v3774.5v3719v4236v16901.5v15749v4491.5v4164.5v3518.5v3459.5v4104t-1.5 2824t-1.5 65t-2 62t2815.5 2051t3943.5 5906q23 4208 23 4216q5637 1801 11547 3601
q25870 2430 26001 2430t134.5 384t-22228 -86038.5t-22231.5 -85909zM752323 1.51892e+06q-3 386 944 13442t947 13033q5140 22 5140 1325q-7028 -28186 -7031 -27800zM784211 1.55245e+06q28 3585 19228 3579q-15 7 -9749.5 -1786t-9478.5 -1793zM807225 1.55904e+06
q-48 947 -43.5 957t4.5 0t2336 86q0 -25 1190 103t1203.5 142t9701.5 9614t9678.5 11527.5t10274.5 3127.5t10220 1209q-32768 2336 -32768 3526v4683.5t-0.5 -6738t9 52.5t8 10316t182.5 96l184 64v0l19 256q23 4867 23 5235q5139 19 5139 -4q28184 5139 28183 33323
q532 258 533.5 268t1.5 11.5t2561 2562.5t2561 2505t-112 -35q21 772 407 770.5t780.5 2688.5t394.5 2564q1150 5 1150 27q0 -12 2.5 2806.5t5646.5 2818.5q5637 3198 5625 3210q32256 2838 32262 2832t1425 1464t2960.5 1461t17422.5 124.5t15882 3483.5
q2829 2926 8472 2926h-110q13 3338 3 8983q5645 2684 6987 2675.5t5695 -9.5q2566 2566 2577 5387t1294 3651t1159 846h16l-6 6q3855 3855 5959 3847t2108 14328t-3 16391q2311 -9 3339.5 -12.5t1091.5 -7.5t63 -8.5v-67.5t-3 -63l4 -3l5635 4l1126 22h2944l2955 -1.5
t11 -3.5t5 26110q-23 -23 2843.5 -12t2859.5 662.5t124 3518t131 2880.5l1034 -0.5t2921 1535.5q20 1800 40 1800l12300.5 771.5t12556.5 873.5v0v0q7243 5140 7243 5188t3855 23l-9 256q24576 28 24580.5 28t4.5 19200q2336 3855 2327 6255q19483 9 19483 1177t9688 2358
t9676.5 1176.5t10272.5 9674.5t26797 9706l1 20568l4864 16518l-1 256q4990 4867 4999.5 5051t-13.5 184q5139 4887 33323 4907h-1q532 0 530.5 9.5t2559.5 14089.5t16897 14081t17025.5 2573t2691.5 2562t0.5 -11t2688.5 3134t34946 3159q1302 788 4396 764
q-5 28160 7 28160l32256 5379q3083 1027 3072 1016.5t1530.5 564.5t1665.5 580l4609 5644q2829 5637 2807 5625q2926 32256 2926 33797.5t1669 4363.5t7314 5762l2684 4609l4353 2829l2566 5643l5642 28160l1660 3338l16 5645l1551 2684l3856 4353l28672 2566l2055 5642
l2311 1660l2057 16l32256 1551l768 3856l1046 28672l772 2055l26112 2311l5888 2057l5637 32256l5910 768l25870 1046l262 772l7 26112l2054 5888l1894 5637l20 5910l5120 25870l24601 262l-1 3.5t0 -0.5t3621.5 767.5t3636.5 26883.5q3849 5140 3945 5236q9 6401 2345 6401
q2380 7243 5873.5 7243t-6734 1927.5t-10267.5 3127.5t-84 1204.5t8215.5 1172.5t8259.5 1159q256 19483 275 38859q1 4944 4991 4944q19 22592 5927 22464q-19 1 14061 10.5t14079 394t2571 14720.5t2572 14326.5t5122 5898.5q0 -19 3135 14073t3135 14221t3073.5 2690.5
t3063.5 5122.5t3117 16897t3127 19715q5379 1027 5377 3717t787 34946q-4 1302 16124 2849t16125.5 1549.5t2819.5 8.5t2800 6v-126l5 12q12 2838 12 5921q32256 31762 32256 31761q3083 2829 3061 8472q3083 28160 3145 28166.5t-441480 -498899t-441590 -497958z
M1.69266e+06 2.55873e+06q2304.5 2822.5 2304.5 2817.5t-11 31756q3350 266 4813 263t1469.5 2818t6.5 2815q2582 31744 2582 31760q0 -6 1669 1921.5t33430 1927.5q266 4208 260 4216q5642 1801 5645 1797.5t15875 1025t17923 965.5t3978.5 -61.5t1943.5 5.5
q28672 5635 30727 5631h-9q1800 26112 1791 32000q32256 5637 32640 5625.5t1430 -33.5q772 25870 823 26001t62.5 134.5t11.5 2057.5h5637l-23 7q5733 26112 7525.5 26102t2560.5 2550t761 27161l3001 -1h947l10 -14t10 -51.5t-20 -37.5l96 -15l6401 3849v96q-28 0 9572 0
h9607.5t7.5 -4.5t15 2331.5q-9 -9 12279 9732.5t12283.5 19429.5t1163.5 12672t1177 3072q76 0 3569.5 -32t-16954.5 -32544q20568 256 20632 256q129 0 129.5 2432t19.5 2433v0v-19q275 32256 212 34699.5t-44 2423.5l-23 4974q5139 6145 5194 6145t55 532
q6145 788 6143 1412q5123 21 5123 407t2561 780.5t2505 392.5t-45.5 16126t782.5 16133q789 5644 785 5644q32256 5637 32256 5631t-5 32250q5644 3083 8462.5 5905t2806.5 2811q32256 31762 35339 31763h-22q3083 0 3021 5.5t2242.5 1680.5t3719 1680.5t4236 14085.5
t2876.5 14073.5t55 -11.5t1669 2817.5t7314 5506.5q2684 4353 7037 4343q-10 1558 -4 1558l5642 2566q1660 31744 1660 31736t2051 767.5t2066 4631.5l3856 28672q28672 2055 28664 2046q1801 1800 1797.5 3015t1025 1216.5t33284.5 5.5l768 5635l1046 1126l772 23l26112 22
l5888 1303l5637 5733l5910 3585l25870 1536l262 1800l7 1543l2054 26112l1894 5140l20 96l5120 6401h24601l256 7243l28 15l19200 3849l3855 24576l2400 2313l9 8201l2336 19483l2380 19376l6976 6480l-32256 22592l256 -30976l4864 256l275 4864
q-572913 -674421 -570608 -671598zM2.29553e+06 3.2306e+06l4887 32256l5139 4887l28184 5139zM2.334e+06 3.30105e+06l5123 532l5122 6164l28672 536l5379 32256zM2.37932e+06 3.34668e+06l5380 5144l32256 28160l1302 5379l3094 1027l1292 5380l32256 32256z
M2.45798e+06 3.42533e+06l5644 3094l2940 1292l4609 32256l2829 3083l5643 5644l3452 2940l13 4609zM2.48569e+06 3.48108e+06l3338 5643l31761 28160l266 3338l1558 5645l2566 2684l31744 4353l4102 2566zM2.56488e+06 3.53911e+06l4208 1660l8 16l1801 1551l1800 3856
l2430 28672zM2.57513e+06 3.57692e+06l4 2311l5635 2057l1126 32256zM2.58192e+06 3.61431e+06l22 1046l1303 772l5733 26112zM2.59256e+06 3.64813e+06l1536 5637l1800 5910l1543 25870zM2.62356e+06 3.68581e+06l5140 7l96 2054l6401 1894v20l7243 5120z
M2.64245e+06 3.7195e+06l3849 256l24576 28l2313 19200l8201 3855v2400v9v2336v2380v6987v-20448v20568v16513v1v19v1v4990v19v5908v4974v6145v532v788v624v21v772v789v1150v5v5644v5637v3198v12v2838v3083v31762v267v3350v2926v13v2582v3338v31761v266v1558v2566v31744
v4102v3855v4208v8v1801v1800v2430v3v4v5635v1126v23v22v1303v5733v3585v1536v1800v1543v26112v5140v96v6401v0v7243v15v3849v24576v2313v8201v19483v16514v1v19v1v4990v19v5908v4974v6145v532v788v624v21v772v789v1150v5v5644v5637v3198v12v2838v3083v31762v267v3350v2829
v31744v3338v5645v2684v4353v2566v5642v1660v16v1551v3856v28672v2055v2311v2057v32256v768v1046v772v26112v5888v5637v5910v25870v262v7v2054v1894v20v5120v24601v256v28v19200v3855v2400v9v2336v2380v22873v22873v22873v22873v22849v14592v256v1v6401v5889v1281v768v-1024
v-1536v-3840v-4352v-5632v-6400v-6656v-6912v-12032v-12288v-14592v-14848v-15872v-16128v-16384v-17152v-18432v-18688v-26368v-26624v-27648v-29184v-30208v-30976v30976v30464v29184v28672v25088v24320v23040v20992v20224v19968v9728v9216v7936v7424v5888v5120v4096v3584
v2304v1792v1v3840v257v3840v6656v1792v5163v306v5910v5908v5910v13106v5909v1543v5163v290v1813v5171v12823v5655v1814v5908v11009v8711v5399v14131v12821v1571v5143v5383v5653v1571v9990v5396v5894v7425v5143v5155v5653v5127v5653v1557v5143v1565v276v1812v5939v12823v1571
v8711v8757v1827v8743v1812v5943v13106v5943v5943v5939v14131v5653v1543v5127v1579zM2.68139e+06 4.88663e+06v10022v12033v8994v13606v13585v13351v13877v10038v14134v14118l-76 11009l-89 8743l-89 13367l-89 5939l-89 12855l-89 5942l-89 13079l-89 13875l-89 5939z
M2.68051e+06 5.11396e+06l-65 5382l-57 1830v8966l-1 5398v5382zM2.68039e+06 5.1499e+06l-1 5396l-25 1815l-1 1557l-23 5653l-1 8983l-5 5396l-1 8983l-3 5396v13106l-252 5943v13078l-250 15105v13879l-241 12855v13620l-239 11009v8743l-234 13622v13585l-231 13367z
M2.67888e+06 5.35459e+06l-230 10039v10038l-229 13620v10038zM2.67821e+06 5.41395e+06v13351l-208 13877v13351l-199 13620v14119l-198 8711v8757l-194 8725v1812l-193 5894v11009l-192 9991v5399l-189 14131v5653l-184 5163v295l-183 14132v9015l-153 13622v13106
l-152 15617zM2.67617e+06 5.64666e+06l-148 308v14130l-142 14134zM2.67588e+06 5.68011e+06l-138 5691v306l-135 15617v8966l-121 4372v1814l-119 5427v13367l-114 380v-26544l-112 12089v10253l-98 12075v4366l-95 9780v18438l-90 1552v8017l-82 1797v2052l-79 2080
v-20474l-78 1544v5184l-38 -32764v1088l-36 1032v3849l-31 4124v1028l-29 1028v1028l-23 1028v1028l-20 1068v9222l-16 1559v2321l-14 31492v5196l-9 6710v3088l-7 5144v13117v5140l-1 7192l-15 4108v3084l-1 8993l-1 -32676l-15 14400v-29150l-26 11328v13372l-7 8196v1028
l-20 1026l-43 14855l-1 1286l-50 1564l-23 5642l-22 6172l-23 4109l-20 1812l-23 24859l-22 13320l-51 1060zM2.67398e+06 5.93959e+06l-23 1538l-21 4630l-6 3596l-7 1028l-20 1028l-43 1028zM2.67386e+06 5.95346e+06l-34 1028l-7 1028l-21 13320l-20 5144l-51 2083
l-50 8460l-23 2327l-22 5638l-23 2108l-7 1542l-22 3136l-23 15878l-20 1028l-43 1028l-1 1028l-34 1052l-7 7196l-21 5674l-23 1104l-55 3076l-51 1036l-50 2056l-21 1028l-6 2056l-35 5236l-20 -18416l-23 1028l-21 1033l-7 5944l-22 11268l-21 17418l-6 10833l-35 8961
l9990 1796l5396 2060l5894 2052l7425 1028l5143 1030l5155 6168l5653 5164l5127 3100l5653 16428l1557 1038l5143 1564l1565 3084l276 3076l1812 1582l5939 20521l12823 6956l1571 3084l8711 3076l8757 5132l1827 7949l8743 2056l1812 3335l5943 3076l13106 3602l5943 1032
l5943 8726l5939 3094l14131 8708l5653 5379l1543 7248l5127 7172l1579 3857l294 2311l10022 5646l12033 12320l8994 11287l13606 1292l13585 19464l13351 1028l13877 1040l10038 1036l14134 1028l14118 1028l11009 1036l8743 2052l13367 5151l5939 5406l12855 9744
l5942 3618l13079 4694l13875 -31720l5939 9774l12823 348l5382 5666l1830 2052l8966 6167l5398 1290l5382 5648l8983 5142l5396 2564l1815 1028l1557 1036l5653 1068l8983 3104l5396 2056l8983 1037l5396 1820l13106 1036l5943 5160l13078 2311l15105 2082l13879 5667
l12855 1288l13620 10244l11009 2216l8743 23560l13622 1076l13585 279l13367 4100l13602 2060l10039 1034q0 25089 0 14853.5t0 -8295.5v5544v6684v4625v2326.5v3005.5v4413.5v3215.5v6030.5v6030.5v3590v5638v14870v15410v9760v7174v2054v2317v4369v5642v6234v16488v13333
v1799v3376v7234t0 4990t0 364v1546v1284.5t0 -1663.5t0 -884.5v5262.5v10629v6400v1.5v11.5v0t0 446v1236v915.5v276v285v1810.5v11354v10880v12488.5v25377v14848.5v896v2560v2560t0 -3456t0 -2304v1536v3200v5376t0 -1536t0 -2304v1920v512v2816.5v5120.5t10038 2542
l23658 5q15617 24 15669 282l-39 238l13877 236l6675.5 117.5t6728.5 338.5h52q0 -219 55 -193zM3.40887e+06 6.70761e+06q-17 3200 -17 3196t0 6.5v12v128.5v249v136v15.5v3.5v12.5v137v232.5v122.5v18v12.5v13v107.5v176v88v19v7.5v8.5v107.5t-3.5 174.5t-3.5 90v40v21.5
v7.5v11.5v149v285v245.5v206v203v187v171.5v169v163v157v155.5v144.5v132v128.5v124.5v99v70.5v62v54.5v47.5v44v32v15.5v11.5v104v190.5v133.5v42v9.5v11v53.5v100v95.5v47.5v5.5v7.5v58v108v105.5v103v101v97v50v7.5v8.5v10.5v43.5v130.5v94v3.5v48.5v46v4v4.5v37.5v3530
t0 -6741.5t0 49v18659v8506v131.5v10v10v114.5v119v6v12.5v21v122v119v7.5v2v11v148v147v10v2.5v2.5v130v248v237v235.5v228v220v122.5v25.5v16.5v14.5v12v128.5v249v136v15.5v3.5v12.5v137v232.5v122.5v18v12.5v13v107.5v176v88v19v7.5v8.5v107.5v174.5v90v40v21.5v7.5
v11.5v149v285v245.5v206v203v187v171.5v169t4378.5 163t4378.5 157v155.5v144.5v132v65v16256v31872v25344v18048v15872v13952v12160v11264v8192v3968v2944t0 -6144v-16768t0 1408v10752v2432v2816v13696v25600v24448v12160v1408v1920v14848v27648v27008v26368v25856v24832
v12800v1920v2176v2688v11136t0 640t0 -8704v896v12416v11776v1024v1152v9613.5v19045.5v11136v12744.5v25377v14848.5v896v2560v2560t0 -3456t0 -2304v1536v3200v5376t0 -1536t0 -2304v1920v512v2816.5v5120.5v4864v2560v640v3456.5v3328.5t0 -2048v-4864v-5248v-7168v-9216
t0 -1408v6528v4224v3712v3072t0 128v-1792t0 2048v3968v896v3200t0 2304v-6016t0 -1408v4608v3200v3328t0 -5248v-20480t0 -10240v4864v1920v2176t0 -5248v-20864t0 -9728v10240v5504v1920v2944.5v5377v7424.5t0 -2688v-12800v-13568v-17664v-21632v-22272v-23808
t-4358 -234723t-4375 -218979zM3.42196e+06 7.11024e+06q4362.5 -12928 4362.5 -13062l-7 130q5143 0 5143 -63.5v-63.5l789.5 15616t1084.5 15540q7 0 2706.5 -32.5t9765 -32.5t9892 -29.5t5408 -29.5t2729 -25t7213.5 -25t11573.5 -22.5t11318.5 -22.5t13364 -21.5
t14361.5 -21.5t14488 -10.5t6833.5 -10.5l7219 -5l14132 -5l9509.5 -6.5l5288 -6.5t2998.5 -97.5t7961.5 -97.5t12291.5 -93t6669 -93t3093 -40.5t3620.5 -40.5l9397 -1.5l7063.5 -1.5q-26544 -16 -20499.5 -16l11171 -3l11164 -3t8220.5 -50.5t7073 -50.5t14109 -49.5
t9995 -49.5t4784.5 -46t4907 -46l1924.5 -1.5l2066 -1.5t-9197 -4t-9465 -4l3364 -3.5t-13790 -3.5t-15838 -54.5t1060 -54.5t2440.5 -53.5t3986.5 -53.5t2576 -52t1028 -52t1028 -51t1028 -51t1028 -50t1048 -50t5145 -47t5390.5 -47l1940 -3l16906.5 -3l18344 -4.5
l5953 -4.5l4899 -4l4116 -4l9130.5 -6.5l9128.5 -6.5t6166 -37t5650 -37t3596 -93.5t6038.5 -93.5t-11841.5 -0.5t-9138 -0.5t-7375 -3t-8911 -3t12350 -45.5t10784 -45.5l4612 -0.5l1027 -0.5l7940.5 -3.5l8070.5 -3.5l1425 -1l3603 -1t5907 -36.5t5140.5 -50t2960.5 -51
t13335.5 -125.5t19089.5 -96.5t7190 -48.5t5141 -84t5380 -76.5t-209084 -1254.5t-205490 -14150zM3.84374e+06 7.1255e+06l2312 -3.5l1028 -3l1028 -0.5l1028 -0.5t1028 -9.5t1028 -9.5l7174 -0.5l9232 -0.5t3613.5 -114t5271.5 -114l5393.5 -5l3982.5 -5l3873 -1l1825 -1
t2339 -11.5t9507 -11.5t8453 -9.5t1028 -9.5t1028 -112.5t1040 -112.5l4124 -6.5l6435 -6.5l3389 -1l2090 -1l2056 -1l1546 -1t1542 -10t1542 -10.5t3646 -10.5t-6590 -10t-8694 -9t1030.5 -9l3488.5 -1l8606 -1l14343 -1.5l14125.5 -1.5l9897 -1l5378.5 -1.5l1928 -1.5
l2056 -1t1540 -119t1029 -119t3599 -118t5666 -118t-77100.5 547.5t-77884.5 547zM4.01262e+06 7.12418e+06q8214 0 8733 -110.5t1301 -110.5t2324 -109.5t3080 -109.5t2329 -13t11051.5 -13t13738.5 -12.5t5020 -12.5l3080 -4l4104 -4t6540.5 -10.5t5002.5 -10.5
l2695.5 -1.5l3205.5 -1.5t3339 -127t2317 -127t4879 -122t5910 -122t5901 -14t7043.5 -12.5l6313.5 1.5l7210 -2l5514.5 -2t3084 -10.5t3978.5 -10.5t8983 -126.5t11803.5 -126.5t6289.5 -106t10378 -106t10246 -16.5t1034 -16.5l1038 -1.5l520 -1.5t516 -11t1028 -11
l2054 -2l2062 -2t4500.5 -105.5t7837.5 -105.5t5914 -70.5t6416 -70.5t15435 -17.5t14165 -17.5l8979.5 -1.5l17675.5 -1.5l11787 6v6v2.5v2.5v105v105v69.5v69.5v20.5v20.5v19.5v19.5v2v2v5.5v5.5v6v6.5v15.5t8712 299l-4 207l-24 205l-23 201l-5 173l-10 170l-22 168
l-16 158l-20 156l-22 155l-10 134l-4 130q-293123 -657 -284909 -657zM4.29752e+06 7.12496e+06l-4 122l-4 76q12 0 8 16640l-44 15104l-12 12800l-32 11520l-8 11008l-8 5376l-4 2560l-13 3328l-7 -15616l-28 -17920l-4 20736l-12 768l-20 4096l-40 1536l-9 25856l-7 25344
l-8 23552l-34 768l-22 2048l-35 1792l-5 27904l-8 27392l-40 26624l-4 26112l-8 25600l-168 24064l-92 1536l-8 2304l-4 2048l-52 3328l-1 18944l-23 -17664l-16 256l-4 1536l-8 23296l-12 256l-4 1792l-10 512l-98 18715l-1 19376l-176 4688l-9 22593l-15 28161l-40 1536
l-28 256l-40 4864l-24 256l-16 -7168l-12 2560l-18 512l-6 5888l-27 4864l-17 -7936l-96 3328l-17 512l-27 512l-8 5121l-4 5120l-39 4608l-25 512l-8 768l-4 6145l-20 512l-8 -4608l-24 -5120l-4 -5376l-92 -8960l-40 -9472l-28 6656l-60 6400l-48 2048l-4 5376l-8 768
l-8 -512l-8 -3072l-4 7168l-10 768l-22 1024l-24 5376l-12 -768l-20 -11264l-8 8448l-28 768l-172 5632l-100 1024l-36 -11520l-4 -29440l-6 8960l-10 768l-8 3072l-16 1280l-88 -11776l-40 -29952l-44 10496l-254 9984l-208 1024l-4 2816l-8 3073l-8 7681l-12 7168
l-1 -12544l-253 -13056l-241 -14080l-4 -21248l-8 -22016l-19 -22528l-33 -25088l-10 -25600l-50 -25856v-31232v-32256q0 32512 768 32390h5375l-5117 -76h-28666l6145 -65h3841l6401 -59h8461l1099 -50h-20471l20568 -45q65 0 28226 -43h1536l256 -21h4864l256 -10h-7168
l2560 -13h512l5888 -195h4864l-7936 -186v40.5v40.5v1.5v1.5v8v8v3v3v50.5v50.5v49.5v49.5v46v46v1.5v1.5v4t3328 11l-2 162.5l-1 105.5l-1 103t-10 101t-10.5 97t-10.5 50l-10 3l-9 1152t-9 2176l-1 2688l-1 11136t-1.5 640t-1.5 -8704t-12 896t-12 813.5v46l-0.5 0.5
l-2.5 -7v0l-238 -2v0l-236 -73v-27l-235 -75v-176l-221 -23v-80l-219 -88v-65l-26 -110v-1l-25 -6v0v256l1024 2432t3712 2560t3072 -3456t128 -2304t-1792 1536t2048 3200t3968 5376t896 -1536t3200 -2304t1920 2176l-11264 512l8448 5121l768 5120l5632 4608l1024 512
l-11520 768l-29440 513q8960 512 9344 -1792t1920 -4864t2176 -5248t-5248 -7168t-20864 -9216t-9728 -1408t10240 6528t5504 4224t1920 3712t1414 2689.5t5 255.5q7681 244 11265 244t3687.5 -14t103.5 -11l-13156.5 2t-14 12.5l86.5 10.5q-22016 -768 -21932 -874
t242 -106v-33l311 3l-67 -11l-67 -11l-16128 512t-16255 301q122 141 160 158.5t70.5 19t62 7.5t54.5 8.5t47.5 107.5t44 174.5l21.5 69.5q-21 41 -16 60.5l5 19.5v-2l6.5 3.5l104 5.5t97.5 12v286q186 284 226.5 387.5l40.5 103.5v-102.5v-102.5v-100.5v-100.5v-86.5v-86.5
v-85v-85v-84v-84v-79v-79v-78v-78v-77.5v-77.5v-67v-67v-65v-65v-63.5v-63.5v-61v-61v-38v-38v-32.5v-32.5v-29.5v-29.5v-25v-25v-22.5v-22.5v-21.5v-21.5v-10.5v-10.5v-5v-5v-6.5v-6.5v-97.5v-97.5v-93v-93v-40.5v-40.5v-1.5v-1.5v-8v-8v-3v-3v-50.5v-50.5v-49.5v-49.5v-46
v-46v-1.5v-1.5v-4v-4v-3.5v-3.5v-54.5v-54.5v-53.5v-53.5v-52v-52v-51v-51v-50t1.5 -3l1.5 47l-16 -6v0l-6 -9v0l-101 -8v0l-99 -13v0l-92 -74v0l-3 -187v0l-8 -1v0l-7 -6l109 91l107 1l104 7l102 2l100 73l94 6987l6 -20455l9 20568l8 16750l13 262l74 1l187 19l1 1l6 228
l91 10l1 2l7 23l2 19l73 225l6987 13l-20470 2l20568 2zM4.28024e+06 7.4071e+06l262 276l1 18l19 2l1 3l228 24l10 258l2 238l23 236l19 235l225 221l13 219l2 26l2 25l20 8l276 21l18 3l2 254l3 244l2 28l258 3l238 4l236 21l235 253l221 212l219 33l26 3l25 22l8 4
l21 211l3 141l254 35l244 3l28 12l3 5l4 210l21 139l253 41l212 39l33 4l3 11l22 12l4 286l211 284l141 207l35 205l3 201l12 173l5 170l210 168l139 158l41 156l39 155l4 134l11 130l12 127l286 122l284 76l207 65l205 59l201 50l173 45l170 43l168 21l158 10l156 13
l155 195l134 186l130 81l127 3l122 16l76 6l65 101l59 99l50 92q45 3 88 11l21 7l10 109l13 107l195 104l186 102l81 100l3 94l16 6l6 9q101 0 200 8l92 13l3 74l8 187l7 1l109 6l107 91l104 1l102 7l100 2l94 73l6 6977l9 28161l8 1536l13 256l74 4864l187 256l1 -7168
l6 2560l91 512l1 5888l7 4864l2 -7936l73 3328l6987 512l-20469 512l20568 5121l16750 5120l262 4608l1 512l19 768l1 513l228 512l10 -4608l2 -5120l23 -5376l19 -8960l225 -9472l13 6656l2 6400l2 2048l20 5376zM4.31469e+06 7.46579e+06l18 -512l2 -3072l3 7168l24 768
l258 1024l238 5376l236 -768l235 -11264l221 8448l219 768l26 5632l25 1024l8 -11520l21 -29440l3 8960l254 768l244 3072l28 1280l3 -11776l4 -29952l21 10496l253 9984l212 1024l33 2816l3 3073l22 7681l4 7168l211 -12544l141 -13056l35 -14080l3 -21248l12 -22016
l5 -22528l210 -25088v-25600l139 -25856v-31232l41 -32256v32512l39 31232v19456l4 16640v15104l11 12800v11520l12 11008l1 5376l30 2560l1 3328l28 -15616v-17920l207 20736v768l205 4096v1536l201 25856v25344l173 23552v768l170 2048v1792l168 27904v27392l158 26624
v26112l156 25600v24064l155 1536v2304l134 2048v3328l130 18944v-17664l127 256v1536l122 23296v256l76 1792v512l65 18777v22873l59 22873v22873l50 19376v2384l45 22592v-31488l43 256v4867l21 368v19l10 5908v4974l13 2v5144l195 5122v6270l186 24v788l81 6254v21l3 772
v5141l16 28672v1302l6 3094v1292l101 32256v3083l99 5644v1470t-46 3774.5t-46 3719l-1.5 4236l-1.5 16901.5t-6621 -424692zM4.3213e+06 7.91072e+06l-3.5 4164.5l-3.5 3518.5t-54.5 3459.5t-54.5 4104t-53.5 3651t-53.5 838t-52 783.5t-52 2703.5t-51 16264t-51 15363.5
t-50 2183t-50 2184t-47 17156.5t-47 16512l-3 907l-3 909t-4.5 13442t-4.5 16000l-4 5762.5l-4 5773.5t-6.5 15890t-6.5 13066t-37 134.5t-37 1030.5t-93.5 1974t-93.5 957l-0.5 2570l-0.5 14860.5l-3 12428.5l-3 142t-45.5 9614t-45.5 11527.5l-0.5 3127.5l-0.5 1204.5
l-3.5 1172.5l-3.5 2358l-1 4683.5t-1 -6741.5t-36.5 49t-50 18539.5t-51 8256t-125.5 10t-96.5 394t-48.5 14720.5t-84 16779.5t-76.5 5013t-87.5 16661.5t-55.5 14221l-3.5 2690.5l-3 5122.5l-0.5 16897l-0.5 17025.5t-9.5 3211.5t-9.5 3266l-0.5 2746.5l-0.5 2824.5
t-114 5640.5t-114 4417.5t-5 1605t-5 1425l-1 2960.5l-1 17422.5t-11.5 16014.5t-11.5 1808.5t-9.5 3138t-9.5 1469.5t-112.5 1297.5t-112.5 2960t-6.5 17549.5t-6.5 16013.5l-1 912l-1 2062l-1 17155l-1 17923v3978.5v4031.5v2108v904.5v1800.5v2115v1216.5v3.5v2819.5
v3380.5v574.5v22.5v662.5v3518v4659v2560.5v1668v1671.5v13827.5v15626v2618v3248.5v3200.5v3621.5v3629v1932v14212.5v13444.5v5257v13842v19429.5v11136v12744t0 -4320t0 -15488v2561.5v2617.5v193.5v2963.5v5441v2488v2573v5133v5696v3147v406t1145.5 -348592
t1145.5 -346164zM4.31901e+06 8.61214e+06v396.5v780.5t0 -396.5t0 -780.5zM4.31901e+06 8.61486e+06v2824.5v5640.5t0 -2824.5t0 -5640.5zM4.31901e+06 8.62935e+06v1425v2960.5t0 -1425t0 -2960.5zM4.31901e+06 8.66717e+06v1808.5v3138v1469.5v1297.5v2960t20 1793
l276 4353q18 2566 18 8208l-2 1660l3 16l1 775.5l2 4631.5l2 -112v2055q-238 9 -238 12.5l-118 7.5t-118 8.5t-117.5 67.5l-117.5 63l-110.5 1.5l-110.5 1.5l-109.5 2t-109.5 13t-13 12.5t414.5 -17187.5t427.5 -17055.5zM4.31814e+06 8.70147e+06l-12.5 51l-4 11.5l-4 11.5
l-10.5 11t-10.5 13.5l-1.5 14l-1.5 22.5t-127 61.5t-127 57.5l-122 7.5l-122 3.5l-14 3t-11 1800q0 1543 0 1492t-4 -31q0 -20 0 28v48l2688 3200.5l2688 3200.5l-253 28l212 -75v-15l16.5 1924.5t19.5 1828.5l2816 -4.5t3328 -9t-5248 -20.5t-20480 -20.5t-10240 -42.5
t4864 -51.5t1920 -51t2176 -125.5t-5248 -96.5t-20864 -48.5t13606.5 -6659t28570 -6568zM4.27648e+06 8.71454e+06q4992 -32 5504 -96t1920 -64t-5504 96t-1920 64zM4.29222e+06 8.71438e+06q3840.5 0 7424.5 -9.5t-2688 -11t-7424.5 9.5t2688 11zM4.27059e+06 8.7143e+06
q-7040 -56 -17664 -56t-21632 -9.5t-22272 -21t-36352 -31.5q-25600 -19 39680 77.5t58240 40.5zM4.1056e+06 8.71404e+06q-15616 -12 -31744 -12.5t128 -1.5t31872 -11t25344 -11.5t18048 -11.5t15872 -11t13952 -57t12160 -56t11264 -10.5t8192 -12l3968 -3.5l2944 -3.5
t-6144 -12t-16768 -12.5t1408 -65t10752 -63l2432 -2.5t2816 -13.5t13696 -17t25600 -17t24448 -13.5t12160 -8.5t1408 -69t-83584 222t-100224 273zM4.30618e+06 8.71347e+06q13952 -6 27648 -11.5t27008 -16.5t26368 -17t25856 -11.5t-54016 28.5t-52864 28z
M4.45069e+06 8.71328e+06q768 -9 1920 -9.5l2176 -6t2688 -12t-2944 15t-3840 12.5zM4.46925e+06 8.71322e+06q-8832 -5.5 -8704 -60.5t896 -55t8704 60.5t-896 55zM4.48563e+06 8.71308e+06q128 -5 1024 -16t1152 -17.5t9613.5 -11.5t19045.5 -67t12032 -70.5t13640.5 -9
t-22669.5 98t-33838 93.5zM4.58236e+06 8.71288e+06q768 -3 896 -14t2560 -16l2560 -8t-3456 -65t-2304 -62l1536 -8t3200 -11t-1408 92t-3584 92zM4.5912e+06 8.71267e+06q-3968 -7.5 -2304 -15.5t1920 -64t512 -56l2816.5 -4l5120.5 -7.5l4864 -8t-3328.5 79t-9600.5 76z
M4.60732e+06 8.7125e+06q384 -4 3456.5 -8.5t3328.5 -67.5t-2048 -63l-4864 -1.5l-5248 -1.5l-7168 -2t3839.5 73t8703.5 71zM4.58416e+06 8.71233e+06l6528 -3.5t4224 -53t3712 -51t3072 -11.5t-10240 54.5t-7296 64.5zM4.60003e+06 8.71219e+06q-1536 -11 2048 -13.5
t3968 -14t896 -22.5t3200 -61.5t-2944 36t-7168 75.5zM4.60643e+06 8.71201e+06q-5632 -0.5 -1408 -3.5l4608 -3l3200 -3.5l3328 -7.5t-5248 -7l-20480 -6.5t3456 14t12544 17zM4.58505e+06 8.71188e+06q384 0 1920 -10t2176 -20t-5248 -10t-20864 -48t-9728 -60.5
t10240 -13l5504 -0.5h1920t2944.5 -14t5377 -51.5t7424.5 -37.5t-2688 -7.5t-12800 -15t-13568 -12t-17664 -52.5t-21632 -48l-22272 -4.5t-23808 -9t-25344 -20.5t-25728 -20.5t-28544 -42.5t-31744 -51.5t128 -51t31872 -125.5t25344 -97t18048 -49t15872 -84t13952 -76
t12160 -99t11264 -67l8192 -0.5t3968 9t2944 8t-6144 -2t-16768 -56.5t1408 -56t55935 647.5t45951 647.5zM4.49635e+06 8.71055e+06q2048 -11.5 2816 -21.5t13696 -19.5t25600 -64.5t24448 -55l12160 -1t1408 -11t1027.5 -22t58 -22t108 -11t105.5 -13t103 -75t101 -63
t97 -12t50 -13.5t7.5 -11.5t8.5 -22t10.5 -67t43.5 -55t130.5 -10.5t93.5 -9v3.5v3.5v12v12.5v65v63v2.5v13.5v17v17v13.5v8.5v69v63v6v11.5v16.5v17l1 2946v4609l-6 2829v5643l-91 28160v3338l-1 5645v2684q-84023 -55678 -81975 -55689.5zM4.57832e+06 8.77059e+06v2566
l-2 5642v1660l-73 16l-27 1551l-75 3856q176 -112 153 -104l-80 1801l-88 1800l-65 2430l-110 3l-1 4l-6 5635v1126l-1 23v22l-19 1303v5733l-1 3585v1536l-228 1800v1543l-10 26112v5140l-2 96v6401h-23v7243l-19 15v3849l-225 24576v2313l-13 8201v19483l-2 19376v4944
l-2 22592v-32768l-20 256l-1 4867l-20 368v19l-18 5908v4974l-2 6145v532zM4.57734e+06 8.95555e+06v624l-2 21l-1 772l-2 789v1150zM4.57709e+06 8.95891e+06v5644l-236 5637v3198l-235 12v2838l-221 3083v31762l-219 267zM4.57618e+06 9.0147e+06l-26 2926v13l-25 2582
v3338l-8 31761zM4.57612e+06 9.05559e+06l-21 1558v2566l-3 31744zM4.5761e+06 9.09556e+06l-254 3855v4208l-244 8zM4.5756e+06 9.10543e+06l-28 1800v2430l-3 3zM4.57557e+06 9.10967e+06l-4 5635v1126l-21 23v22zM4.57529e+06 9.11778e+06v5733l-212 3585v1536z
M4.57505e+06 9.13043e+06v1543l-3 26112v5140l-22 96zM4.57502e+06 9.16972e+06h-4v7243l-211 15v3849l-141 24576v2313l-35 8201v19483l-3 19376v5968l-12 22592v-32512l-5 256v4864l-210 275zM4.5744e+06 9.28848e+06l-139 4887v5139l-41 28184v258l-39 5123z" />
    <glyph glyph-name="macron" unicode="&#xaf;" horiz-adv-x="670" 
 />
    <glyph glyph-name="degree" unicode="&#xb0;" horiz-adv-x="674" 
 />
    <glyph glyph-name="plusminus" unicode="&#xb1;" 
 />
    <glyph glyph-name="uni00B2" unicode="&#xb2;" 
 />
    <glyph glyph-name="uni00B3" unicode="&#xb3;" 
 />
    <glyph glyph-name="acute" unicode="&#xb4;" horiz-adv-x="1024" 
 />
    <glyph glyph-name="mu" unicode="&#xb5;" horiz-adv-x="1180" 
 />
    <glyph glyph-name="paragraph" unicode="&#xb6;" horiz-adv-x="1024" 
 />
    <glyph glyph-name="periodcentered" unicode="&#xb7;" horiz-adv-x="508" 
 />
    <glyph glyph-name="periodcentered" unicode="&#x2219;" horiz-adv-x="508" 
 />
    <glyph glyph-name="cedilla" unicode="&#xb8;" horiz-adv-x="1024" 
 />
    <glyph glyph-name="uni00B9" unicode="&#xb9;" 
 />
    <glyph glyph-name="ordmasculine" unicode="&#xba;" horiz-adv-x="718" 
 />
    <glyph glyph-name="guillemotright" unicode="&#xbb;" horiz-adv-x="944" 
 />
    <glyph glyph-name="onequarter" unicode="&#xbc;" horiz-adv-x="1708" 
 />
    <glyph glyph-name="onehalf" unicode="&#xbd;" horiz-adv-x="1964" 
 />
    <glyph glyph-name="threequarters" unicode="&#xbe;" horiz-adv-x="1708" 
 />
    <glyph glyph-name="questiondown" unicode="&#xbf;" horiz-adv-x="748" 
 />
    </font>
</defs>
</svg>
