<?xml version="1.0" standalone="no"?>
<!DOCTYPE svg PUBLIC "-//W3C//DTD SVG 1.1//EN" "http://www.w3.org/Graphics/SVG/1.1/DTD/svg11.dtd" >
<svg xmlns="http://www.w3.org/2000/svg" xmlns:xlink="http://www.w3.org/1999/xlink" version="1.1">
<metadata>
Created by FontForge 20170731 at Mon Jul 15 07:01:49 2019
 By Aleksey,,,
Copyright (c) 2019 by Emyself Design. All rights reserved.
</metadata>
<defs>
<font id="BlueLagoon" horiz-adv-x="288" >
  <font-face 
    font-family="Blue Lagoon"
    font-weight="400"
    font-stretch="normal"
    units-per-em="1000"
    panose-1="0 0 0 0 0 0 0 0 0 0"
    ascent="750"
    descent="-250"
    x-height="535"
    cap-height="733"
    bbox="-340.659 -308 1042 1018"
    underline-thickness="50"
    underline-position="-150"
    unicode-range="U+000D-FB01"
  />
<missing-glyph 
 />
    <glyph glyph-name="f_f" unicode="ff" horiz-adv-x="796" 
d="M717 626q-24 23 -47 28t-41.5 -6.5t-30 -39.5t-11.5 -71h126l-15 -121h-109l15 -415h-158l-8 415h-84h-109l15 -415h-159l-6 415h-83l17 121h65q-2 68 13 116.5t41 80.5t61 48.5t74 20t79.5 -5.5t77.5 -28l-68 -143q-23 22 -46 27.5t-41.5 -6t-30.5 -39.5t-12 -71h113h82
q-1 68 14 117t41.5 81t61 48.5t73.5 19.5t79.5 -6t77.5 -28l-67 -143v0z" />
    <glyph glyph-name="f_i" unicode="fi" horiz-adv-x="555" 
d="M365 0v415h-120l15 -415h-158l-7 415h-83l19 121h63q-1 68 13.5 116.5t41 80.5t61.5 48.5t74 20t79.5 -5.5t77.5 -28l-69 -142q-23 22 -46 27t-41.5 -6.5t-30.5 -39.5t-12 -71l285 -1l16 -535h-178z" />
    <glyph glyph-name=".notdef" 
 />
    <glyph glyph-name=".null" horiz-adv-x="0" 
 />
    <glyph glyph-name="nonmarkingreturn" unicode="&#xd;" 
 />
    <glyph glyph-name="NULL" horiz-adv-x="0" 
 />
    <glyph glyph-name="NULL" horiz-adv-x="0" 
 />
    <glyph glyph-name="space" unicode=" " 
 />
    <glyph glyph-name="exclam" unicode="!" horiz-adv-x="287" 
d="M220 99q0 -41 -28.5 -69.5t-69.5 -28.5t-69.5 28.5t-28.5 69.5t28.5 69.5t69.5 28.5t69.5 -28.5t28.5 -69.5zM65 733h198l-57 -481h-145z" />
    <glyph glyph-name="quotedbl" unicode="&#x22;" horiz-adv-x="424" 
d="M24 733h170l-21 -263h-83l-66 263v0zM230 733h170l-21 -263h-83l-66 263v0z" />
    <glyph glyph-name="numbersign" unicode="#" horiz-adv-x="526" 
d="M502 415h-74l-19 -127h66v-120h-84l-25 -167l-110 4l23 163h-88l-25 -167l-110 4l24 163h-56v120h73l18 127h-65v120h83l28 198h115l-30 -198h86l29 198h114l-29 -198h56v-120zM297 288l18 127h-87l-19 -127h88z" />
    <glyph glyph-name="dollar" unicode="$" horiz-adv-x="448" 
d="M276 420q28 -11 57.5 -27t50 -41t26 -60t-14.5 -85q-21 -49 -69.5 -73t-104.5 -24l-20 -112l-63 2l20 117q-39 10 -74.5 31t-59.5 56l97 104q9 -20 25.5 -35t35.5 -26l9 53q-24 10 -47.5 25t-41.5 35.5t-26.5 48t-1.5 64.5q6 27 21 48t37.5 36t51 24.5t60.5 12.5l24 138
h64l-24 -138q61 -8 116 -36l-77 -129q-11 12 -27.5 22.5t-34.5 18.5zM200 464q-4 -10 17 -20l6 36q-14 -3 -23 -16zM278 248q4 8 -4 14t-24 13l-7 -43q24 0 35 16z" />
    <glyph glyph-name="percent" unicode="%" horiz-adv-x="1066" 
d="M815 796l-447 -903l-119 55l454 893zM441 486q0 -51 -16.5 -96t-45 -78t-66.5 -52.5t-81 -19.5t-81 19.5t-66 52.5t-44.5 78t-16.5 96t16.5 96t44.5 78t66 52.5t81 19.5t81 -19.5t66.5 -52.5t45 -78t16.5 -96zM222 355q15 0 28.5 9.5t23.5 26.5t16 39.5t6 48.5t-6 48.5
t-16 39.5t-23.5 27t-28.5 10t-28.5 -10t-23 -27t-15.5 -39.5t-6 -48.5t6 -48.5t15.5 -39.5t23 -26.5t28.5 -9.5zM834 492q43 0 81 -19.5t66 -52.5t44.5 -78t16.5 -96t-16.5 -96t-44.5 -78t-66 -52.5t-81 -19.5q-44 0 -82 19.5t-66 52.5t-44.5 78t-16.5 96t16.5 96t44.5 78
t66 52.5t82 19.5zM823 118q15 0 28.5 10t23.5 27t16 39.5t6 48.5t-6 48.5t-16 39.5t-23.5 27t-28.5 10t-28.5 -10t-23 -27t-15.5 -39.5t-6 -48.5t6 -48.5t15.5 -39.5t23 -27t28.5 -10z" />
    <glyph glyph-name="ampersand" unicode="&#x26;" horiz-adv-x="684" 
d="M544 0l-94 94q-34 -44 -79 -69t-99 -25q-55 0 -101.5 17t-79.5 47t-50.5 70t-15.5 85.5t26.5 94.5t76.5 97q-16 16 -28 33t-19 38t-8 47.5t5 60.5q15 57 61 91.5t109 45t136 -2.5t141 -49l-112 -153q-23 13 -49.5 26.5t-51.5 21t-46.5 6.5t-35.5 -17q-9 -12 0.5 -34
t33 -51t58.5 -64t77 -73q-1 35 -5.5 71.5t-10.5 68.5l261 8v-162l-118 23q1 -57 -11 -112q37 -32 73.5 -64.5t71.5 -62.5zM275 148q30 -2 51.5 7t35.5 25l-143 142q-19 -26 -25.5 -55t0.5 -54.5t27 -43.5t54 -21z" />
    <glyph glyph-name="quotesingle" unicode="'" horiz-adv-x="218" 
d="M24 733h170l-21 -263h-83l-66 263v0z" />
    <glyph glyph-name="parenleft" unicode="(" horiz-adv-x="329" 
d="M276 809l26 -34q-52 -45 -85.5 -110.5t-50 -141.5t-15 -157.5t19 -157.5t51.5 -142.5t83 -112.5l-29 -38q-81 50 -136.5 124.5t-84.5 160.5t-30.5 176.5t25.5 173t83.5 150.5t142.5 109z" />
    <glyph glyph-name="parenright" unicode=")" horiz-adv-x="329" 
d="M53 809q86 -41 142.5 -109t83.5 -150.5t25.5 -173t-30 -176.5t-84.5 -160.5t-137 -124.5l-29 38q49 46 82.5 112.5t51.5 142.5t19 157.5t-15 157.5t-49.5 141.5t-85.5 110.5l26 34v0z" />
    <glyph glyph-name="asterisk" unicode="*" horiz-adv-x="406" 
d="M382 642l-118 -21l77 -82l-99 -69l-54 108l-48 -95l-99 69l68 71l-85 15l38 115l92 -46l-15 100h120l-14 -102l100 51l37 -114v0z" />
    <glyph glyph-name="plus" unicode="+" horiz-adv-x="453" 
d="M429 384v-131h-135l-4 -152h-132v152h-134v131h134v151h144l-4 -151h131v0z" />
    <glyph glyph-name="comma" unicode="," horiz-adv-x="261" 
d="M53 104l143 69q63 -91 30 -172t-141 -153l-61 52q25 20 41 46.5t20.5 54.5t-3 55t-29.5 48z" />
    <glyph glyph-name="hyphen" unicode="-" horiz-adv-x="469" 
d="M24 302h421v-120h-421v120v0z" />
    <glyph glyph-name="period" unicode="." horiz-adv-x="225" 
d="M201 88q0 -18 -7 -34.5t-19 -28.5t-28 -19t-34 -7q-37 0 -63 26t-26 63q0 18 7 34t19 28t28.5 19t34.5 7q36 0 62 -26t26 -62z" />
    <glyph glyph-name="slash" unicode="/" horiz-adv-x="318" 
d="M294 708l-159 -706l-111 29l172 703l98 -26v0z" />
    <glyph glyph-name="zero" unicode="0" horiz-adv-x="596" 
d="M313 734q59 -2 109.5 -33t87.5 -82.5t56.5 -119t16.5 -143.5t-28 -142t-65.5 -114.5t-94 -75t-112.5 -24.5t-109.5 33t-87.5 82.5t-56.5 119t-16.5 143.5t28 142t65.5 114.5t94 75t112.5 24.5zM298 149q22 0 42 16.5t34.5 45t23 66.5t8.5 81t-8.5 81t-23 66.5t-34.5 45
t-42 16.5t-41.5 -16.5t-34.5 -45t-23.5 -66.5t-8.5 -81t8.5 -81t23.5 -66.5t34.5 -45t41.5 -16.5z" />
    <glyph glyph-name="one" unicode="1" horiz-adv-x="375" 
d="M12 574l351 157v-171v-561h-186l13 462l-100 -76l-78 189v0z" />
    <glyph glyph-name="two" unicode="2" horiz-adv-x="536" 
d="M524 188l-29 -188h-483l15 140q29 42 64 82t68.5 77t63.5 70t50 62t27 52t-5 40q-19 24 -53 25t-73.5 -13.5t-78.5 -39.5t-69 -52v227q57 33 118.5 48.5t118.5 15.5t106.5 -16t82.5 -46q22 -21 39 -49.5t21 -63t-7.5 -73.5t-45.5 -80l-215 -233z" />
    <glyph glyph-name="three" unicode="3" horiz-adv-x="533" 
d="M395 406q67 -27 101 -79t21 -136q-9 -56 -37 -95.5t-69 -62.5t-91.5 -31t-104 -3t-106 23t-97.5 47l71 159q27 -35 67 -55.5t79.5 -25.5t71.5 6t43 39q13 36 -4.5 59.5t-52.5 37t-80 19t-86 5.5l21 127q17 1 32.5 0.5t30.5 -0.5q22 1 42.5 6.5t36.5 15t25.5 25t9.5 36.5
q-2 28 -26.5 44.5t-62 17.5t-83 -14t-89.5 -48l26 177q34 18 76.5 27t86.5 8t86.5 -11.5t76 -31.5t53.5 -53t20 -75q0 -57 -24 -94.5t-64 -63.5z" />
    <glyph glyph-name="four" unicode="4" horiz-adv-x="573" 
d="M561 310v-139h-99v-170h-174l4 170h-280v139l291 422h159v-422h99zM191 310h103l4 172z" />
    <glyph glyph-name="five" unicode="5" horiz-adv-x="584" 
d="M246 479q78 -3 142.5 -23.5t106 -59t57 -95t-3.5 -131.5q-18 -47 -52 -82t-79 -57.5t-97 -32t-106 -5.5t-106 21t-96 49l80 182q25 -37 66 -62.5t83.5 -34.5t79.5 1t55 45q10 28 2 50t-28 38t-49.5 28t-63 20t-68.5 13t-66 8v382h469l-53 -163h-273v-91v0z" />
    <glyph glyph-name="six" unicode="6" horiz-adv-x="540" 
d="M302 476q47 0 88 -19t72 -51t48.5 -76t17.5 -93t-17.5 -92.5t-48.5 -75.5t-72 -51t-88 -19q-98 -1 -162 35t-96 96t-31.5 137t31 159.5t91.5 164t150 148.5l182 -96q-70 -32 -127.5 -77t-98.5 -99q28 9 61 9zM350 215q3 19 -2 37.5t-16 33t-27.5 24t-35.5 12.5
q-20 3 -38 -2t-32.5 -16t-24 -27.5t-12.5 -35.5t2 -37t16 -32.5t27 -24.5t36 -13q39 -5 70 18.5t37 62.5z" />
    <glyph glyph-name="seven" unicode="7" horiz-adv-x="539" 
d="M33 733h494l-54 -146l-240 -588l-179 62l258 511l-300 -27l21 188v0z" />
    <glyph glyph-name="eight" unicode="8" horiz-adv-x="549" 
d="M406 407q63 -31 94 -73t35.5 -87t-15 -89t-58 -79t-92.5 -56.5t-119 -21.5q-57 0 -103 17t-77 45.5t-46.5 65t-11 75t29.5 76.5t74 69q-34 22 -53 59t-22 80t10 86.5t42.5 78.5t75.5 57.5t109 22.5q74 0 127.5 -28.5t74.5 -75t5 -105t-80 -117.5zM203 573
q-18 -23 -12.5 -42t24 -35t45.5 -29t52 -24q26 33 32.5 60.5t-1 47t-25 31.5t-38.5 15t-42 -2.5t-35 -21.5zM178 190q11 -15 30.5 -24.5t42 -13.5t45.5 -2.5t42 8t31 18.5t12 29q0 19 -15 33.5t-39 26.5t-54.5 21.5t-61.5 20.5q-14 -10 -25.5 -22.5t-18 -27t-5 -31.5
t15.5 -36z" />
    <glyph glyph-name="nine" unicode="9" horiz-adv-x="504" 
d="M233 733q77 0 134 -28t88.5 -77.5t36 -118t-23.5 -149.5t-90 -172.5t-163 -186.5l-153 102q56 44 107 87.5t93 87.5q-17 -4 -42 -4q-45 0 -83.5 18t-66 48.5t-43 72t-15.5 89.5q0 55 19.5 98t51 72.5t71 45t79.5 15.5zM242 412q19 0 36.5 7t30.5 19t20.5 28.5t7.5 35.5
t-7.5 35.5t-20.5 28.5t-30.5 19t-36.5 7q-20 0 -37 -7t-29.5 -19t-20 -28.5t-7.5 -35.5t7.5 -35.5t20 -28.5t29.5 -19t37 -7z" />
    <glyph glyph-name="colon" unicode=":" horiz-adv-x="230" 
d="M206 88q0 -18 -7 -34.5t-19 -28.5t-28 -19t-34 -7q-37 0 -63 26t-26 63q0 18 7 34t19 28t28.5 19t34.5 7q36 0 62 -26t26 -62zM201 447q0 -18 -7 -34.5t-19 -28.5t-28 -19t-34 -7q-37 0 -63 26t-26 63q0 18 7 34t19 28t28.5 19t34.5 7t34 -7t28 -19t19 -28t7 -34z" />
    <glyph glyph-name="semicolon" unicode=";" horiz-adv-x="261" 
d="M237 448q0 -18 -7 -34.5t-19 -28.5t-28 -19t-34 -7q-37 0 -63 26t-26 63q0 18 7 34t19 28t28.5 19t34.5 7t34 -7t28 -19t19 -28t7 -34zM53 104l143 69q63 -91 30 -172t-141 -153l-61 52q25 20 41 46.5t20.5 54.5t-3 55t-29.5 48z" />
    <glyph glyph-name="less" unicode="&#x3c;" horiz-adv-x="425" 
d="M210 308l176 -149l-120 -111l-242 254l267 253l110 -108l-191 -139v0z" />
    <glyph glyph-name="equal" unicode="=" horiz-adv-x="466" 
d="M442 344h-418v125h418v-125v0zM442 176h-418v125h418v-125v0z" />
    <glyph glyph-name="greater" unicode="&#x3e;" horiz-adv-x="425" 
d="M215 307l-191 139l110 108l267 -253l-242 -254l-120 111l176 149v0z" />
    <glyph glyph-name="question" unicode="?" horiz-adv-x="452" 
d="M296 98q0 -20 -7.5 -37.5t-20.5 -31t-31 -21t-38 -7.5t-37.5 7.5t-30.5 21t-20.5 31t-7.5 37.5q0 41 28 69t68 28q41 0 69 -28t28 -69zM80 494l-56 185q83 43 156 52t127.5 -10.5t87 -63t33 -106t-34.5 -140t-114 -163.5h-141q26 40 54 85t48 85.5t27.5 72t-7.5 45.5
t-57.5 6t-122.5 -48z" />
    <glyph glyph-name="at" unicode="@" horiz-adv-x="848" 
d="M726 604q47 -54 72.5 -121.5t25.5 -136.5q0 -52 -14.5 -96.5t-43.5 -78.5q-31 -39 -77 -60q-45 -21 -103 -21h-1q-37 0 -66 15.5t-48 43.5q-3 5 -6.5 10.5t-5.5 11.5q-40 -38 -82 -47t-77 7.5t-57.5 57.5t-22.5 104q0 55 26 98.5t64.5 68.5t83.5 29.5t83 -17.5
q4 17 11 32l125 -10q-8 -22 -14.5 -49.5t-11.5 -54.5t-8 -51.5t-4 -41.5q-4 -36 0 -53t6 -20h6q51 0 76 31q27 35 27 91q0 45 -16.5 90t-48.5 81q-12 14 -29 29t-40 27t-52 19.5t-64 7.5q-57 0 -108 -22.5t-90 -64.5q-41 -44 -63 -101t-22 -123q5 -67 31.5 -120t72.5 -84
q52 -35 123.5 -39t158.5 24l42 -126q-53 -18 -98.5 -25t-85.5 -7q-75 0 -127.5 19t-88.5 44q-72 49 -114 129.5t-47 179.5v2v2q0 92 31 173t90 144q29 31 62 54t70 39q77 35 163 35q88 0 166 -36q68 -33 120 -93zM375 314q0 -64 18 -75.5t47 14.5q-2 31 3 68q2 18 5 35.5
t8 34.5q-32 12 -56 -8t-25 -69z" />
    <glyph glyph-name="A" unicode="A" horiz-adv-x="693" 
d="M468 1l-45 196h-179l-56 -196h-176l242 716l196 16l231 -732h-213zM286 343l103 4l-45 199z" />
    <glyph glyph-name="B" unicode="B" horiz-adv-x="511" 
d="M499 224q0 -44 -16.5 -84.5t-55 -71.5t-102.5 -49.5t-159 -18.5h-29h-103l-22 733h168h74q59 0 100 -11t66.5 -33.5t37.5 -55t13 -74.5q1 -45 -20 -88.5t-55 -71.5q25 -12 44.5 -26t32.5 -34t19.5 -48t6.5 -67zM323 529q0 25 -12 40.5t-32 24.5t-46.5 12.5t-54.5 3.5
l-3 -169q68 1 108 22t40 66zM169 145q33 -2 65 2t57 15.5t40 30t15 44.5q0 24 -15 40t-39.5 25t-56 13t-63.5 4z" />
    <glyph glyph-name="C" unicode="C" horiz-adv-x="618" 
d="M474 498q-30 39 -64.5 54t-67.5 10.5t-63 -25.5t-51 -54t-31.5 -75.5t-5.5 -88.5q5 -37 21.5 -68t41 -51t53.5 -28.5t59 -0.5t57.5 33t49.5 72l133 -83q-56 -90 -123.5 -136t-135.5 -55.5t-131 14t-110 72.5t-73 119.5t-19 155.5q8 92 38.5 160.5t75.5 114t101 69
t115.5 26t119 -15.5t112.5 -55l-102 -164v0z" />
    <glyph glyph-name="D" unicode="D" horiz-adv-x="637" 
d="M294 733q90 0 154.5 -31.5t104.5 -83t57 -117.5t14 -134.5t-26 -134.5t-63 -117.5t-96.5 -83t-126.5 -31.5h-300l9 733h273zM263 138q61 0 101.5 33t60 82.5t19 107.5t-21 107.5t-61.5 82.5t-101 33h-67l-9 -446h79z" />
    <glyph glyph-name="E" unicode="E" horiz-adv-x="460" 
d="M205 151h226l17 -151h-246h-98h-79l-13 733h63h142h231l-17 -143h-217l-3 -141h189v-139h-191l-4 -159v0z" />
    <glyph glyph-name="F" unicode="F" horiz-adv-x="434" 
d="M404 584h-217v-148h202v-139h-202v-297h-159l-16 733h65h110h235l-18 -149v0z" />
    <glyph glyph-name="G" unicode="G" horiz-adv-x="600" 
d="M588 74q-52 -35 -110.5 -53t-117 -20.5t-114.5 12t-103 46.5q-64 47 -97.5 123.5t-33.5 176.5q0 89 27.5 157.5t72.5 115.5t103.5 72.5t121 29t124 -14.5t113.5 -58l-115 -172q-30 38 -63 55.5t-64.5 16.5t-59 -18t-47 -47.5t-27.5 -73.5t-1 -95q8 -54 33 -90.5t58 -53.5
t69 -15t67 26l-3 81l-113 -18v153h280v-336v0z" />
    <glyph glyph-name="H" unicode="H" horiz-adv-x="590" 
d="M406 733h172v-733h-160l-5 318l-222 -11l-5 -307h-164l-10 733h185l-4 -268l217 10l-4 258v0z" />
    <glyph glyph-name="I" unicode="I" horiz-adv-x="192" 
d="M180 0h-168l1 733h167v-733v0z" />
    <glyph glyph-name="J" unicode="J" horiz-adv-x="452" 
d="M256 733l184 -5l-9 -468q-1 -60 -21 -107t-53 -80.5t-76 -52.5t-89 -20t-92.5 15.5t-87.5 52.5l105 151q12 -31 35.5 -46.5t47.5 -13.5t42.5 24t19.5 66z" />
    <glyph glyph-name="K" unicode="K" horiz-adv-x="572" 
d="M560 98l-168 -111l-216 293v-280h-164v733h164v-240l239 254l138 -102l-281 -246l288 -301v0z" />
    <glyph glyph-name="L" unicode="L" horiz-adv-x="413" 
d="M181 153l220 12l-17 -164h-203h-102h-67v732h184l-15 -580v0z" />
    <glyph glyph-name="M" unicode="M" horiz-adv-x="686" 
d="M674 0h-171l14 435l-93 -224h-153l-83 218v-429h-176l14 733h207l122 -333l132 333h171l16 -733v0z" />
    <glyph glyph-name="N" unicode="N" horiz-adv-x="602" 
d="M428 733h162v-733h-144l-277 445l10 -445h-167v733h161l258 -398z" />
    <glyph glyph-name="O" unicode="O" horiz-adv-x="641" 
d="M320 739q64 0 120.5 -29t98.5 -79.5t66 -118.5t24 -146t-24 -146t-66 -118.5t-98.5 -79.5t-120.5 -29t-120 29t-98 79.5t-66 118.5t-24 146t24 146t66 118.5t98 79.5t120 29zM342 135q30 2 55.5 21t43.5 50.5t27.5 73t7.5 87.5q-3 46 -17 86.5t-35.5 70t-49.5 45.5
t-59 14q-30 -2 -55.5 -21t-43.5 -50.5t-27.5 -73t-6.5 -87.5t16.5 -86t35.5 -69.5t50 -46t58 -14.5z" />
    <glyph glyph-name="P" unicode="P" horiz-adv-x="493" 
d="M258 733q68 0 114 -22t72 -58t33.5 -81.5t-2 -92t-34 -89.5t-63 -74.5t-89 -46.5t-111.5 -6v-262h-166l6 732h160h80zM178 401q22 -7 46.5 -4.5t45.5 15t34.5 36t13.5 57.5q0 33 -12.5 57t-33 36.5t-45.5 13.5t-49 -12v-199z" />
    <glyph glyph-name="Q" unicode="Q" horiz-adv-x="677" 
d="M542 -101l-92 132q-29 -17 -62.5 -26.5t-68.5 -9.5q-63 0 -119 29.5t-98 80t-66 118.5t-24 145t24 145t66 118.5t98 80t119 29.5q64 0 120 -29.5t98 -80t66.5 -118.5t24.5 -145q0 -69 -19.5 -130t-53.5 -110l110 -130zM341 138q8 0 15.5 2t14.5 4l-88 127l94 65l79 -92
q10 27 14.5 59t2.5 66q-2 46 -15.5 86.5t-35 69.5t-49 45t-58.5 14q-30 -2 -55.5 -20.5t-43.5 -50t-27 -73t-6 -87.5q2 -46 15.5 -86t35 -69.5t49 -45.5t58.5 -14z" />
    <glyph glyph-name="R" unicode="R" horiz-adv-x="544" 
d="M352 -1l-145 260q-13 0 -28 3v-263h-167l6 734h161h80q70 0 116.5 -23.5t72.5 -61.5t32 -85t-5.5 -95t-39 -91t-69.5 -73l166 -209zM179 400q22 -7 46.5 -4.5t45.5 15.5t34.5 36.5t13.5 57.5q0 33 -12.5 57t-33 36.5t-45.5 13.5t-49 -12v-200z" />
    <glyph glyph-name="S" unicode="S" horiz-adv-x="551" 
d="M440 513q-27 22 -59 36t-61 18t-52.5 -3.5t-32.5 -29.5q-6 -16 6 -28t35.5 -24t54.5 -24.5t63.5 -29.5t62.5 -39.5t50.5 -53.5t28 -73t-4.5 -97q-15 -53 -50 -89t-81.5 -55.5t-100.5 -23t-106.5 8t-100 38t-80.5 66.5l117 141q18 -20 41.5 -37t49.5 -30t51.5 -20t47 -7
t36 8.5t19.5 27.5q4 26 -20 43.5t-62 33t-82 34t-80 47t-56.5 71t-10.5 106.5q7 45 33 83.5t64 66.5t85.5 44t97.5 16.5t100 -16t94 -53.5l-97 -156v0z" />
    <glyph glyph-name="T" unicode="T" horiz-adv-x="550" 
d="M538 733l-19 -153h-180l8 -581h-178l10 581h-167v153h526v0z" />
    <glyph glyph-name="U" unicode="U" horiz-adv-x="591" 
d="M12 733h189v-432q-1 -46 13 -76t36.5 -45t48.5 -15.5t48.5 15t37 45.5t14.5 76v431l180 1l-14 -492q-6 -58 -31.5 -103t-63 -76t-83.5 -47t-94 -16q-56 0 -103.5 19.5t-82 55t-54.5 85t-23 110.5z" />
    <glyph glyph-name="V" unicode="V" horiz-adv-x="647" 
d="M439 732l196 1l-208 -734h-225l-190 734l196 -1l115 -515l116 515v0z" />
    <glyph glyph-name="W" unicode="W" horiz-adv-x="990" 
d="M797 733l181 1l-175 -734h-203l-105 401l-104 -401h-204l-175 734l180 -1l107 -500l113 500h167l112 -495l106 495v0z" />
    <glyph glyph-name="X" unicode="X" horiz-adv-x="641" 
d="M629 633l-199 -269l199 -270l-146 -97l-163 220l-163 -220l-145 97l199 270l-199 269l148 98l160 -218l161 218l148 -98v0z" />
    <glyph glyph-name="Y" unicode="Y" horiz-adv-x="659" 
d="M647 733l-236 -479l12 -254h-185l13 248l-239 485h199l118 -273l119 273h199v0z" />
    <glyph glyph-name="Z" unicode="Z" horiz-adv-x="611" 
d="M276 163l323 5l-25 -169h-529v142l332 431h-365l33 161h537v-136l-306 -434v0z" />
    <glyph glyph-name="bracketleft" unicode="[" horiz-adv-x="294" 
d="M270 705l-115 -19v-651l115 -13v-110h-115h-131v895h246v-102v0z" />
    <glyph glyph-name="backslash" unicode="\" horiz-adv-x="376" 
d="M24 779l120 30l208 -780l-134 -32l-194 782v0z" />
    <glyph glyph-name="bracketright" unicode="]" horiz-adv-x="294" 
d="M24 705v102h246v-895h-246v110l116 13v651l-116 19v0z" />
    <glyph glyph-name="asciicircum" unicode="^" horiz-adv-x="541" 
d="M270 345l-142 -166l-104 114l246 242l247 -249l-127 -111l-120 170v0z" />
    <glyph glyph-name="underscore" unicode="_" horiz-adv-x="539" 
d="M24 -3h491v-103h-491v103v0z" />
    <glyph glyph-name="grave" unicode="`" horiz-adv-x="354" 
d="M31 736l299 -93l-12 -108l-294 51l7 150v0z" />
    <glyph glyph-name="a" unicode="a" horiz-adv-x="492" 
d="M338 -7q-8 14 -14 29.5t-11 32.5q-44 -39 -96.5 -50.5t-98 1.5t-76 49t-30.5 92q0 47 19 86.5t55 65t87.5 32.5t115.5 -11q3 36 -16 56t-50 23t-68.5 -11.5t-70.5 -47.5l-59 128q38 25 83 41t90 22t87 1.5t74 -22t51.5 -48.5t19.5 -77l2 -213q0 -14 4.5 -31t11.5 -34
t15.5 -31t16.5 -22zM165 169q0 -20 11.5 -30t30 -10.5t41.5 7t45 22.5q-1 13 -2 25.5t-1 25.5q-20 6 -41.5 9t-39.5 0t-30.5 -14t-13.5 -35z" />
    <glyph glyph-name="b" unicode="b" horiz-adv-x="483" 
d="M182 480q57 45 109.5 53t92 -17t63.5 -81.5t24 -140.5q0 -72 -24 -127t-64.5 -92.5t-94 -56.5t-113.5 -19h-145l-18 794h175zM177 151q28 -6 55 -6t47.5 9.5t33.5 30.5t13 56q0 50 -11.5 78.5t-31.5 40t-46.5 8t-56.5 -17.5z" />
    <glyph glyph-name="c" unicode="c" horiz-adv-x="432" 
d="M403 494l-90 -148q-28 32 -56 38.5t-49.5 -6.5t-35 -42.5t-13.5 -68.5q0 -45 15 -77t39 -42t53 6.5t57 68.5l97 -109q-34 -48 -77.5 -75.5t-89 -35.5t-89 3.5t-77.5 42t-54.5 80t-20.5 116.5q0 55 16.5 103.5t45.5 86t67.5 62.5t81.5 34t89.5 0.5t90.5 -37.5z" />
    <glyph glyph-name="d" unicode="d" horiz-adv-x="523" 
d="M351 -20l-26 84q-53 -54 -108.5 -62t-101 17.5t-74.5 78t-29 120.5q0 66 20 126.5t58 104.5t93 67.5t125 15.5l-5 262h160l-10 -591q2 -18 8 -39.5t14 -42.5t17.5 -38.5t18.5 -28.5zM158 252q0 -30 15 -50.5t38.5 -30.5t51.5 -8t54 17v181q-29 7 -57.5 8t-50.5 -9.5
t-36 -36t-15 -71.5z" />
    <glyph glyph-name="e" unicode="e" horiz-adv-x="466" 
d="M454 108q-45 -44 -95 -70t-99 -33.5t-94 3.5t-79 40.5t-54.5 78.5t-20.5 117q0 69 24 124t61.5 92.5t83.5 57.5t90 20q60 0 100 -34t58 -82t12.5 -99.5t-36.5 -87.5l-260 -19q-1 -39 22.5 -61t58 -23.5t73.5 18t69 63.5zM243 422q-22 0 -40.5 -10.5t-31.5 -26.5t-20 -35
t-7 -36l166 14q0 16 -3.5 32.5t-11.5 30t-20.5 22.5t-31.5 9z" />
    <glyph glyph-name="f" unicode="f" horiz-adv-x="453" 
d="M373 626q-24 23 -47 28t-41.5 -6.5t-30 -40t-11.5 -71.5h127l-15 -120h-109l14 -416h-159l-6 416h-83l18 120h64q-2 102 31 161.5t84.5 85t113.5 20.5t118 -33l-68 -144v0z" />
    <glyph glyph-name="g" unicode="g" horiz-adv-x="551" 
d="M521 -53q0 -43 -22.5 -79.5t-60 -63t-85 -41.5t-98.5 -15q-67 0 -113.5 13.5t-75 36t-41.5 51.5t-13 60q0 22 10.5 45t29 42t44 31.5t55.5 14.5q-9 9 -12.5 21.5t-2.5 27t7 28.5t15 25q-64 17 -105 57.5t-41 103.5q0 56 23.5 99t60.5 72.5t83 45t92 15.5q57 0 101 -28
q29 16 66.5 28.5t82.5 23.5l18 -138q-25 2 -49 1t-44 -8q8 -20 11.5 -42t3.5 -45q0 -32 -11 -61t-31.5 -53.5t-48 -42.5t-60.5 -28q-1 -5 -1.5 -9.5t-0.5 -9.5q0 -8 12.5 -13.5t31.5 -12t42.5 -15t46 -20.5t41.5 -28.5t30 -40.5q8 -18 9 -43v-5zM156 327q0 -32 23.5 -53.5
t57.5 -21.5t57 21.5t23 53.5t-23 53.5t-57 21.5t-57.5 -21.5t-23.5 -53.5zM282 -109q48 4 65 18t11 30.5t-33 32t-68 23.5q-48 -20 -67.5 -41t-15 -37t32.5 -24t75 -2z" />
    <glyph glyph-name="h" unicode="h" horiz-adv-x="482" 
d="M470 -1h-171l-6 312q1 27 -9.5 40.5t-27 16.5t-37 -4t-38.5 -22l-8 -343h-151l-10 802h179l-7 -325q40 39 87 53t88 -1t69 -61.5t30 -127.5z" />
    <glyph glyph-name="i" unicode="i" horiz-adv-x="218" 
d="M204 -1h-177v537h161zM201 672q-6 -21 -19 -36.5t-29.5 -25.5t-35.5 -12t-38 4t-33 18.5t-22.5 29.5t-10.5 37t4 40q6 21 19 36.5t29.5 25.5t35.5 12t38 -4t33 -18.5t22.5 -29.5t10.5 -37t-4 -40z" />
    <glyph glyph-name="j" unicode="j" horiz-adv-x="399" 
d="M382 669q-6 -21 -19.5 -37.5t-30.5 -26.5t-37 -12.5t-39 3.5q-20 6 -35 19.5t-23.5 31t-10.5 38.5t5 42q6 21 19.5 37.5t30.5 26.5t36.5 12.5t39.5 -3.5q19 -6 34 -19t24 -31t10.5 -39t-4.5 -42zM204 535h180v-473q0 -122 -32 -200.5t-84.5 -114t-119 -26.5t-136.5 63
l70 162q12 -9 23.5 -20t25 -18.5t30 -9.5t37.5 7q13 6 19.5 41t9 87.5t0.5 118t-5.5 133.5t-8.5 133z" />
    <glyph glyph-name="k" unicode="k" horiz-adv-x="478" 
d="M329 -23l-162 225v0l-4 -201h-141l-10 792h166l-7 -416l189 168l97 -118l-186 -144l195 -201l-137 -105v0z" />
    <glyph glyph-name="l" unicode="l" horiz-adv-x="193" 
d="M181 0h-153l-16 793h169v-793v0z" />
    <glyph glyph-name="m" unicode="m" horiz-adv-x="755" 
d="M577 267q1 37 -9.5 59t-28.5 29.5t-41.5 2.5t-49.5 -21v-1l10 -337h-160v268q1 36 -9 57.5t-27 29.5t-40 3.5t-48 -20.5l11 -338h-173v536h155l3 -80q37 39 76.5 59t75.5 19.5t65 -22t45 -66.5q50 45 103.5 70t98 18t72 -53t26.5 -144l11 -337h-166v268z" />
    <glyph glyph-name="n" unicode="n" horiz-adv-x="482" 
d="M304 269q1 41 -10 64t-29 29.5t-42 -2.5t-49 -32l11 -327h-173v534h156l2 -75q47 43 98 63.5t93.5 10t70 -57.5t28.5 -138l10 -337h-166v268z" />
    <glyph glyph-name="o" unicode="o" horiz-adv-x="446" 
d="M242 541q44 0 79.5 -21t60.5 -58t38.5 -86t13.5 -105t-17.5 -106t-47 -88t-69 -60t-83.5 -22t-81.5 22t-65 60t-43 88t-15.5 106t19.5 105t52 86t73.5 58t85 21zM254 146q16 3 28 16t19 32t8.5 42.5t-4.5 49.5q-5 25 -16.5 46t-26 35t-31 20.5t-32.5 2.5
q-17 -4 -29 -16.5t-19 -31.5t-8.5 -43t4.5 -49q6 -26 17.5 -46.5t25.5 -35t30.5 -20.5t33.5 -2z" />
    <glyph glyph-name="p" unicode="p" horiz-adv-x="509" 
d="M176 479q63 44 121 54.5t102.5 -14t71 -84.5t26.5 -157q0 -74 -24 -129t-66 -90.5t-98 -50t-120 -6.5l7 -232h-184l7 766h156zM185 152q26 -6 53 -4.5t48.5 13.5t36 35.5t14.5 61.5q1 37 -15.5 60.5t-41 32.5t-52 3.5t-48.5 -25.5z" />
    <glyph glyph-name="q" unicode="q" horiz-adv-x="489" 
d="M477 533v-756h-166l5 264q-77 -44 -133.5 -44t-93.5 30.5t-55.5 85t-21.5 121.5q2 59 20.5 108.5t48.5 87.5t68 63.5t78 35.5t79.5 4.5t71.5 -28.5zM179 269q0 -34 10.5 -58t29.5 -37t44.5 -13.5t54.5 13.5l3 197q-30 12 -56 13.5t-44.5 -10.5t-29.5 -37.5t-12 -67.5z
" />
    <glyph glyph-name="r" unicode="r" horiz-adv-x="459" 
d="M177 454q14 33 44 55t67.5 31t79 5.5t79.5 -20.5l-57 -196q-25 17 -52.5 23.5t-54.5 2t-52 -20t-44 -41.5l11 -294h-186v537h165v-82v0z" />
    <glyph glyph-name="s" unicode="s" horiz-adv-x="436" 
d="M344 354q-14 16 -36 30.5t-44.5 22.5t-41.5 6t-28 -19q-5 -12 13.5 -22t47.5 -22t62 -30t57 -46t31.5 -69.5t-13.5 -101.5q-14 -36 -42 -60t-63 -36t-74 -12t-76.5 12t-70 35t-54.5 58l101 119q11 -29 34.5 -49t48.5 -29.5t46.5 -7.5t29.5 19q6 11 -10 20t-42 20.5
t-57 27.5t-56.5 40t-39.5 59t-5 85q10 51 47.5 84t89.5 46t111.5 5t113.5 -39l-80 -146v0z" />
    <glyph glyph-name="t" unicode="t" horiz-adv-x="405" 
d="M393 53q-54 -37 -105.5 -49.5t-92 0.5t-65 51.5t-24.5 103.5v256h-94l31 121h63v99l165 7l-4 -106h117l-34 -121h-88l-7 -187q-1 -37 6 -56t19.5 -24t30 2.5t36.5 23.5z" />
    <glyph glyph-name="u" unicode="u" horiz-adv-x="504" 
d="M442 172q9 -70 50 -108l-132 -65q-20 13 -33.5 30.5t-18.5 42.5q-46 -40 -93 -58.5t-86 -13t-66 35t-32 85.5l-19 415h167l-1 -280q-1 -40 9.5 -60.5t28.5 -26t40.5 2t45.5 25.5l-13 339h159l-6 -364v0z" />
    <glyph glyph-name="v" unicode="v" horiz-adv-x="494" 
d="M315 535h167l-148 -536h-180l-142 536h166l69 -346z" />
    <glyph glyph-name="w" unicode="w" horiz-adv-x="774" 
d="M596 535h166l-148 -534h-179l-50 189l-52 -189h-179l-142 535h166l68 -345l69 345h145l68 -345l68 344v0z" />
    <glyph glyph-name="x" unicode="x" horiz-adv-x="491" 
d="M479 94l-129 -97l-105 140l-104 -140l-129 97l135 175l-132 176l120 94l110 -143l111 143l120 -94l-132 -176l135 -175v0z" />
    <glyph glyph-name="y" unicode="y" horiz-adv-x="552" 
d="M369 535h171l-291 -759l-158 34l71 185l23 62l-173 478h174l84 -257l99 257v0z" />
    <glyph glyph-name="z" unicode="z" horiz-adv-x="424" 
d="M192 146l220 3l-32 -148h-365l6 126l182 262h-191l24 147h365l-29 -133l-180 -257v0z" />
    <glyph glyph-name="braceleft" unicode="{" horiz-adv-x="314" 
d="M267 687q-10 5 -24 5t-26.5 -3.5t-22 -11t-9.5 -17.5q-1 -16 3.5 -35.5t10.5 -44t11.5 -56t7.5 -72.5q-3 -42 -19 -63.5t-43 -28.5q13 -6 25 -12.5t21 -17t14.5 -26.5t5.5 -42q0 -36 -10 -69.5t-19.5 -62t-14 -51.5t6.5 -38q19 -14 44.5 -14.5t60.5 14.5l-12 -126
q-41 -8 -83.5 -4.5t-76.5 18.5t-55.5 43t-21.5 69q-1 38 6.5 73t17 65t16.5 54t5.5 40t-15.5 23t-47 4v118q28 -1 45 6t22.5 26t-2 52.5t-28.5 85.5q-24 63 -11.5 105.5t47.5 68t85.5 35.5t102.5 8l-18 -118v0z" />
    <glyph glyph-name="bar" unicode="|" horiz-adv-x="156" 
d="M132 0h-108v807h108v-807v0z" />
    <glyph glyph-name="braceright" unicode="}" horiz-adv-x="314" 
d="M47 689l-17 118q51 2 101.5 -8t85.5 -35.5t47.5 -68t-11.5 -105.5q-21 -52 -28 -85.5t-1.5 -52.5t22.5 -25.5t44 -5.5v-119q-33 3 -47 -4t-15.5 -23t6 -40t16.5 -54t17 -65t8 -73q0 -41 -22 -69t-56.5 -43t-76.5 -18.5t-83 4.5l-13 126q35 -15 61 -14.5t45 14.5
q10 15 5.5 37.5t-14 51t-19.5 62t-10 69.5q0 26 5 42.5t14 27t21 17t26 12.5q-28 7 -43 28.5t-16 63.5q1 41 6.5 72.5t11 56t10 43.5t3.5 36q0 10 -9.5 17t-22 11t-27 3.5t-24.5 -4.5z" />
    <glyph glyph-name="asciitilde" unicode="~" horiz-adv-x="451" 
d="M24 265q38 57 71.5 78t63.5 21.5t56.5 -10t52 -16.5t50 2t50.5 46l59 -78q-33 -44 -60 -65.5t-50 -28.5t-42.5 -3t-38 11t-36.5 14t-37 6t-40.5 -14t-46.5 -46l-52 83v0z" />
    <glyph glyph-name="cent" unicode="&#xa2;" horiz-adv-x="450" 
d="M426 200q-38 -54 -87 -81t-99 -31l-15 -88l-87 29l14 73q-55 23 -91.5 79.5t-36.5 147.5q0 57 18 106.5t48.5 87t71.5 61.5t86 30l24 130l77 -27l-18 -108q37 -9 77 -34l-87 -147l-9.5 9.5t-9.5 8.5l-36 -210q16 8 32 25.5t32 46.5zM169 352q0 -47 15 -78l35 187
q-23 -12 -37 -41t-13 -68z" />
    <glyph glyph-name="sterling" unicode="&#xa3;" horiz-adv-x="541" 
d="M517 94q-11 -21 -24 -38t-31 -29t-42.5 -18.5t-57.5 -6.5q-29 0 -53 6t-46 13.5t-44 14t-47.5 7.5t-57 -6t-72.5 -26l-18 -9l8 132q9 7 17.5 13.5t16.5 11.5q32 29 42.5 62.5t9.5 70.5l-70 -2v137h52q-4 26 -5.5 52t0.5 52q16 77 60.5 124t102.5 66t122 10.5t120 -42.5
l-65 -171q-21 16 -42 28.5t-41.5 17.5t-40 0.5t-37.5 -22.5q-17 -13 -17 -43t5 -72h172l-28 -128l-141 -4q-3 -26 -10 -51.5t-19 -51.5q30 -7 56.5 -16.5t52.5 -10t52.5 14t55.5 54.5z" />
    <glyph glyph-name="currency" unicode="&#xa4;" horiz-adv-x="538" 
d="M450 364q0 -43 -19 -83l83 -74l-95 -80l-68 74q-33 -18 -75 -18q-26 0 -50.5 7.5t-44.5 21.5l-64 -85l-93 94l86 88q-9 25 -9 55q0 20 4 38t11 35l-92 80l112 98l66 -86q34 17 74 17q20 0 38.5 -5t35.5 -13l78 87l86 -105l-82 -66q18 -36 18 -80zM198 364q0 -32 23 -54.5
t55 -22.5t54.5 22.5t22.5 54.5t-22.5 55t-54.5 23t-55 -23t-23 -55z" />
    <glyph glyph-name="yen" unicode="&#xa5;" horiz-adv-x="684" 
d="M660 733l-181 -367h78v-103h-129l-4 -8l1 -27h132v-103h-127l6 -125h-186l7 125h-135v103h140l1 21l-7 14h-134v103h83l-181 367h200l118 -273l118 273h200v0z" />
    <glyph glyph-name="brokenbar" unicode="&#xa6;" horiz-adv-x="164" 
d="M140 450h-116v358h116v-358v0zM140 -89h-116v358h116v-358v0z" />
    <glyph glyph-name="section" unicode="&#xa7;" horiz-adv-x="608" 
d="M348 580q-5 -13 14 -22.5t49.5 -22t64.5 -30.5t58.5 -47t32.5 -71.5t-14 -103.5q-17 -42 -49.5 -67.5t-73.5 -36.5q-2 -15 -5 -31.5t-10 -34.5q-23 -57 -74 -85t-110.5 -28t-116 27.5t-90.5 81.5l103 121q12 -30 36 -50.5t49.5 -30.5t47.5 -7.5t31 19.5q6 11 -10 20.5
t-43 21t-58.5 28t-57.5 41.5t-40 61.5t-5 87.5q10 51 46.5 84t87.5 48q0 9 0.5 18t2.5 20q10 52 48.5 86t91.5 47.5t114 5t116 -41.5l-81 -149q-15 16 -37.5 31.5t-45.5 23.5t-43 6t-29 -20zM210 411q-5 -12 11.5 -21.5t43 -20.5t58.5 -26t58 -38q17 2 30 9t18 17
q6 11 -9.5 20t-41.5 20.5t-57 27t-57 39.5q-18 -2 -32 -8.5t-22 -18.5z" />
    <glyph glyph-name="dieresis" unicode="&#xa8;" horiz-adv-x="458" 
d="M201 646q0 -18 -7 -34.5t-19 -28.5t-28 -19t-34 -7q-37 0 -63 26t-26 63q0 18 7 34t19 28t28.5 19t34.5 7t34 -7t28 -19t19 -28t7 -34zM434 646q0 -18 -7 -34.5t-19 -28.5t-28 -19t-34 -7q-37 0 -63 26t-26 63q0 18 7 34t19 28t28.5 19t34.5 7t34 -7t28 -19t19 -28t7 -34
z" />
    <glyph glyph-name="macron" unicode="&#xaf;" horiz-adv-x="271" 
d="M24 733h223l-9 -98h-214v98v0z" />
    <glyph glyph-name="plusminus" unicode="&#xb1;" horiz-adv-x="539" 
d="M460 384v-131h-135l-4 -152h-132v152h-134v131h134v151h144l-4 -151h131zM24 -3h491v-103h-491v103z" />
    <glyph glyph-name="acute" unicode="&#xb4;" horiz-adv-x="342" 
d="M312 730l6 -144l-284 -49l-10 104l288 89v0z" />
    <glyph glyph-name="mu" unicode="&#xb5;" horiz-adv-x="531" 
d="M367 3q-18 29 -30 79q-63 -74 -138 -81v-191h-175l17 725h158v-357q29 -9 60 -4.5t61 18.5q-2 57 -4 116q-2 51 -4.5 111t-7.5 115h169q-5 -60 -7.5 -126t0.5 -129.5t12.5 -120t28.5 -98.5z" />
    <glyph glyph-name="periodcentered" unicode="&#xb7;" horiz-adv-x="266" 
d="M246 448q0 -18 -7 -34.5t-19 -28.5t-28 -19t-34 -7q-37 0 -63 26t-26 63q0 18 7 34t19 28t28.5 19t34.5 7t34 -7t28 -19t19 -28t7 -34z" />
    <glyph glyph-name="cedilla" unicode="&#xb8;" horiz-adv-x="286" 
d="M155 -24q44 -4 69 -20t33.5 -39t1 -50t-29.5 -53t-57 -49t-81 -37l-67 104q38 -5 64.5 6t33.5 27t-9 31.5t-62 19.5l30 147h101l-29 -87h2v0z" />
    <glyph glyph-name="Agrave" unicode="&#xc0;" horiz-adv-x="693" 
d="M468 1l-45 196h-179l-56 -196h-176l242 716l196 16l231 -732h-213zM286 343l103 4l-45 199zM200 934l299 -93l-12 -108l-294 51l7 150v0z" />
    <glyph glyph-name="Aacute" unicode="&#xc1;" horiz-adv-x="693" 
d="M468 1l-45 196h-179l-56 -196h-176l242 716l196 16l231 -732h-213zM286 343l103 4l-45 199zM487 928l6 -144l-284 -49l-10 104l288 89v0z" />
    <glyph glyph-name="Acircumflex" unicode="&#xc2;" horiz-adv-x="693" 
d="M468 1l-45 196h-179l-56 -196h-176l242 716l196 16l231 -732h-213zM286 343l103 4l-45 199zM482 733l-137 55l-143 -55l-20 82l173 114l155 -111l-28 -85v0z" />
    <glyph glyph-name="Atilde" unicode="&#xc3;" horiz-adv-x="693" 
d="M468 1l-45 196h-179l-56 -196h-176l242 716l196 16l231 -732h-213zM286 343l103 4l-45 199zM155 816q36 54 68 73.5t60 20.5t53.5 -9.5t49.5 -15.5t47.5 2t47.5 43l56 -73q-42 -56 -73.5 -75t-58 -18.5t-49 11.5t-45.5 16.5t-48 -4t-57 -50.5l-51 79v0z" />
    <glyph glyph-name="Adieresis" unicode="&#xc4;" horiz-adv-x="693" 
d="M468 1l-45 196h-179l-56 -196h-176l242 716l196 16l231 -732h-213zM286 343l103 4l-45 199zM318 844q0 -18 -7 -34.5t-19 -28.5t-28 -19t-34 -7q-37 0 -63 26t-26 63q0 18 7 34t19 28t28.5 19t34.5 7t34 -7t28 -19t19 -28t7 -34zM551 844q0 -18 -7 -34.5t-19 -28.5
t-28 -19t-34 -7q-37 0 -63 26t-26 63q0 18 7 34t19 28t28.5 19t34.5 7t34 -7t28 -19t19 -28t7 -34z" />
    <glyph glyph-name="Aring" unicode="&#xc5;" horiz-adv-x="693" 
d="M468 1l-45 196h-179l-56 -196h-176l242 716l196 16l231 -732h-213zM286 343l103 4l-45 199zM346 1002q28 0 53 -10.5t44 -28t29.5 -41.5t10.5 -51t-10.5 -51t-29.5 -41.5t-44 -28t-53 -10.5q-29 0 -53.5 10.5t-43 28t-29 41.5t-10.5 51t10.5 51t29 41.5t43 28t53.5 10.5z
M346 808q26 0 44 17.5t18 43.5t-18 43.5t-44 17.5q-25 0 -43.5 -17.5t-18.5 -43.5t18.5 -43.5t43.5 -17.5z" />
    <glyph glyph-name="AE" unicode="&#xc6;" horiz-adv-x="799" 
d="M545 152h226l16 -151h-245h-98h-78l-4 200h-114l-57 -200h-179l246 729l299 2h230l-16 -142h-217l-3 -141h189v-139h-192zM290 350l69 2l-3 175l-7 29z" />
    <glyph glyph-name="Ccedilla" unicode="&#xc7;" horiz-adv-x="618" 
d="M474 498q-30 39 -64.5 54t-67.5 10.5t-63 -25.5t-51 -54t-31.5 -75.5t-5.5 -88.5q5 -37 21.5 -68t41 -51t53.5 -28.5t59 -0.5t57.5 33t49.5 72l133 -83q-56 -90 -123.5 -136t-135.5 -55.5t-131 14t-110 72.5t-73 119.5t-19 155.5q8 92 38.5 160.5t75.5 114t101 69
t115.5 26t119 -15.5t112.5 -55l-102 -164v0zM345 -28q44 -4 69 -20t33.5 -39t1 -50t-29.5 -53t-57 -49t-81 -37l-67 104q38 -5 64.5 6t33.5 27t-9 31.5t-62 19.5l30 147h101l-29 -87h2v0z" />
    <glyph glyph-name="Egrave" unicode="&#xc8;" horiz-adv-x="460" 
d="M205 151h226l17 -151h-246h-98h-79l-13 733h63h142h231l-17 -143h-217l-3 -141h189v-139h-191l-4 -159v0zM82 946l299 -93l-12 -108l-294 51l7 150v0z" />
    <glyph glyph-name="Eacute" unicode="&#xc9;" horiz-adv-x="460" 
d="M205 151h226l17 -151h-246h-98h-79l-13 733h63h142h231l-17 -143h-217l-3 -141h189v-139h-191l-4 -159v0zM369 946l6 -144l-284 -49l-10 104l288 89v0z" />
    <glyph glyph-name="Ecircumflex" unicode="&#xca;" horiz-adv-x="460" 
d="M205 151h226l17 -151h-246h-98h-79l-13 733h63h142h231l-17 -143h-217l-3 -141h189v-139h-191l-4 -159v0zM368 748l-137 55l-143 -55l-20 82l173 114l155 -111l-28 -85v0z" />
    <glyph glyph-name="Edieresis" unicode="&#xcb;" horiz-adv-x="460" 
d="M205 151h226l17 -151h-246h-98h-79l-13 733h63h142h231l-17 -143h-217l-3 -141h189v-139h-191l-4 -159v0zM202 844q0 -18 -7 -34.5t-19 -28.5t-28 -19t-34 -7q-37 0 -63 26t-26 63q0 18 7 34t19 28t28.5 19t34.5 7t34 -7t28 -19t19 -28t7 -34zM435 844q0 -18 -7 -34.5
t-19 -28.5t-28 -19t-34 -7q-37 0 -63 26t-26 63q0 18 7 34t19 28t28.5 19t34.5 7t34 -7t28 -19t19 -28t7 -34z" />
    <glyph glyph-name="Igrave" unicode="&#xcc;" horiz-adv-x="192" 
d="M180 0h-168l1 733h167v-733v0zM-50 934l299 -93l-12 -108l-294 51l7 150v0z" />
    <glyph glyph-name="Iacute" unicode="&#xcd;" horiz-adv-x="192" 
d="M180 0h-168l1 733h167v-733v0zM237 928l6 -144l-284 -49l-10 104l288 89v0z" />
    <glyph glyph-name="Icircumflex" unicode="&#xce;" horiz-adv-x="192" 
d="M180 0h-168l1 733h167v-733v0zM232 733l-137 55l-143 -55l-20 82l173 114l155 -111l-28 -85v0z" />
    <glyph glyph-name="Idieresis" unicode="&#xcf;" horiz-adv-x="192" 
d="M180 0h-168l1 733h167v-733v0zM68 844q0 -18 -7 -34.5t-19 -28.5t-28 -19t-34 -7q-37 0 -63 26t-26 63q0 18 7 34t19 28t28.5 19t34.5 7t34 -7t28 -19t19 -28t7 -34zM301 844q0 -18 -7 -34.5t-19 -28.5t-28 -19t-34 -7q-37 0 -63 26t-26 63q0 18 7 34t19 28t28.5 19
t34.5 7t34 -7t28 -19t19 -28t7 -34z" />
    <glyph glyph-name="Eth" unicode="&#xd0;" horiz-adv-x="704" 
d="M361 733q90 0 154.5 -31.5t104.5 -83t57 -117.5t14 -134.5t-26 -134.5t-63 -117.5t-96.5 -83t-126.5 -31.5h-300l9 733h273zM330 138q61 0 101.5 33t60 82.5t19 107.5t-21 107.5t-61.5 82.5t-101 33h-67l-9 -446h79zM12 472h421v-120h-421v120z" />
    <glyph glyph-name="Ntilde" unicode="&#xd1;" horiz-adv-x="602" 
d="M428 733h162v-733h-144l-277 445l10 -445h-167v733h161l258 -398zM110 816q36 54 68 73.5t60 20.5t53.5 -9.5t49.5 -15.5t47.5 2t47.5 43l56 -73q-42 -56 -73.5 -75t-58 -18.5t-49 11.5t-45.5 16.5t-48 -4t-57 -50.5l-51 79v0z" />
    <glyph glyph-name="Ograve" unicode="&#xd2;" horiz-adv-x="641" 
d="M320 739q64 0 120.5 -29t98.5 -79.5t66 -118.5t24 -146t-24 -146t-66 -118.5t-98.5 -79.5t-120.5 -29t-120 29t-98 79.5t-66 118.5t-24 146t24 146t66 118.5t98 79.5t120 29zM342 135q30 2 55.5 21t43.5 50.5t27.5 73t7.5 87.5q-3 46 -17 86.5t-35.5 70t-49.5 45.5
t-59 14q-30 -2 -55.5 -21t-43.5 -50.5t-27.5 -73t-6.5 -87.5t16.5 -86t35.5 -69.5t50 -46t58 -14.5zM174 934l299 -93l-12 -108l-294 51l7 150v0z" />
    <glyph glyph-name="Oacute" unicode="&#xd3;" horiz-adv-x="641" 
d="M320 739q64 0 120.5 -29t98.5 -79.5t66 -118.5t24 -146t-24 -146t-66 -118.5t-98.5 -79.5t-120.5 -29t-120 29t-98 79.5t-66 118.5t-24 146t24 146t66 118.5t98 79.5t120 29zM342 135q30 2 55.5 21t43.5 50.5t27.5 73t7.5 87.5q-3 46 -17 86.5t-35.5 70t-49.5 45.5
t-59 14q-30 -2 -55.5 -21t-43.5 -50.5t-27.5 -73t-6.5 -87.5t16.5 -86t35.5 -69.5t50 -46t58 -14.5zM461 928l6 -144l-284 -49l-10 104l288 89v0z" />
    <glyph glyph-name="Ocircumflex" unicode="&#xd4;" horiz-adv-x="641" 
d="M320 739q64 0 120.5 -29t98.5 -79.5t66 -118.5t24 -146t-24 -146t-66 -118.5t-98.5 -79.5t-120.5 -29t-120 29t-98 79.5t-66 118.5t-24 146t24 146t66 118.5t98 79.5t120 29zM342 135q30 2 55.5 21t43.5 50.5t27.5 73t7.5 87.5q-3 46 -17 86.5t-35.5 70t-49.5 45.5
t-59 14q-30 -2 -55.5 -21t-43.5 -50.5t-27.5 -73t-6.5 -87.5t16.5 -86t35.5 -69.5t50 -46t58 -14.5zM456 733l-137 55l-143 -55l-20 82l173 114l155 -111l-28 -85v0z" />
    <glyph glyph-name="Otilde" unicode="&#xd5;" horiz-adv-x="641" 
d="M320 739q64 0 120.5 -29t98.5 -79.5t66 -118.5t24 -146t-24 -146t-66 -118.5t-98.5 -79.5t-120.5 -29t-120 29t-98 79.5t-66 118.5t-24 146t24 146t66 118.5t98 79.5t120 29zM342 135q30 2 55.5 21t43.5 50.5t27.5 73t7.5 87.5q-3 46 -17 86.5t-35.5 70t-49.5 45.5
t-59 14q-30 -2 -55.5 -21t-43.5 -50.5t-27.5 -73t-6.5 -87.5t16.5 -86t35.5 -69.5t50 -46t58 -14.5zM129 816q36 54 68 73.5t60 20.5t53.5 -9.5t49.5 -15.5t47.5 2t47.5 43l56 -73q-42 -56 -73.5 -75t-58 -18.5t-49 11.5t-45.5 16.5t-48 -4t-57 -50.5l-51 79v0z" />
    <glyph glyph-name="Odieresis" unicode="&#xd6;" horiz-adv-x="641" 
d="M320 739q64 0 120.5 -29t98.5 -79.5t66 -118.5t24 -146t-24 -146t-66 -118.5t-98.5 -79.5t-120.5 -29t-120 29t-98 79.5t-66 118.5t-24 146t24 146t66 118.5t98 79.5t120 29zM342 135q30 2 55.5 21t43.5 50.5t27.5 73t7.5 87.5q-3 46 -17 86.5t-35.5 70t-49.5 45.5
t-59 14q-30 -2 -55.5 -21t-43.5 -50.5t-27.5 -73t-6.5 -87.5t16.5 -86t35.5 -69.5t50 -46t58 -14.5zM292 844q0 -18 -7 -34.5t-19 -28.5t-28 -19t-34 -7q-37 0 -63 26t-26 63q0 18 7 34t19 28t28.5 19t34.5 7t34 -7t28 -19t19 -28t7 -34zM525 844q0 -18 -7 -34.5t-19 -28.5
t-28 -19t-34 -7q-37 0 -63 26t-26 63q0 18 7 34t19 28t28.5 19t34.5 7t34 -7t28 -19t19 -28t7 -34z" />
    <glyph glyph-name="multiply" unicode="&#xd7;" horiz-adv-x="489" 
d="M465 427l-111 -108l111 -108l-108 -116l-115 114l-117 -114l-101 119l109 105l-109 108l107 111l113 -111l115 111l106 -111v0z" />
    <glyph glyph-name="Oslash" unicode="&#xd8;" horiz-adv-x="641" 
d="M320 739q64 0 120.5 -29t98.5 -79.5t66 -118.5t24 -146t-24 -146t-66 -118.5t-98.5 -79.5t-120.5 -29t-120 29t-98 79.5t-66 118.5t-24 146t24 146t66 118.5t98 79.5t120 29zM342 135q30 2 55.5 21t43.5 50.5t27.5 73t7.5 87.5q-3 46 -17 86.5t-35.5 70t-49.5 45.5
t-59 14q-30 -2 -55.5 -21t-43.5 -50.5t-27.5 -73t-6.5 -87.5t16.5 -86t35.5 -69.5t50 -46t58 -14.5zM461.475 763.864l-181.971 -798.602l-127.037 32.8037l196.85 795.208l112.158 -29.4102v0z" />
    <glyph glyph-name="Ugrave" unicode="&#xd9;" horiz-adv-x="591" 
d="M12 733h189v-432q-1 -46 13 -76t36.5 -45t48.5 -15.5t48.5 15t37 45.5t14.5 76v431l180 1l-14 -492q-6 -58 -31.5 -103t-63 -76t-83.5 -47t-94 -16q-56 0 -103.5 19.5t-82 55t-54.5 85t-23 110.5zM147 954l299 -93l-12 -108l-294 51l7 150v0z" />
    <glyph glyph-name="Uacute" unicode="&#xda;" horiz-adv-x="591" 
d="M12 733h189v-432q-1 -46 13 -76t36.5 -45t48.5 -15.5t48.5 15t37 45.5t14.5 76v431l180 1l-14 -492q-6 -58 -31.5 -103t-63 -76t-83.5 -47t-94 -16q-56 0 -103.5 19.5t-82 55t-54.5 85t-23 110.5zM438 948l6 -144l-284 -49l-10 104l288 89v0z" />
    <glyph glyph-name="Ucircumflex" unicode="&#xdb;" horiz-adv-x="591" 
d="M12 733h189v-432q-1 -46 13 -76t36.5 -45t48.5 -15.5t48.5 15t37 45.5t14.5 76v431l180 1l-14 -492q-6 -58 -31.5 -103t-63 -76t-83.5 -47t-94 -16q-56 0 -103.5 19.5t-82 55t-54.5 85t-23 110.5zM427 758l-137 55l-143 -55l-20 82l173 114l155 -111l-28 -85v0z" />
    <glyph glyph-name="Udieresis" unicode="&#xdc;" horiz-adv-x="591" 
d="M12 733h189v-432q-1 -46 13 -76t36.5 -45t48.5 -15.5t48.5 15t37 45.5t14.5 76v431l180 1l-14 -492q-6 -58 -31.5 -103t-63 -76t-83.5 -47t-94 -16q-56 0 -103.5 19.5t-82 55t-54.5 85t-23 110.5zM265 861q0 -18 -7 -34.5t-19 -28.5t-28 -19t-34 -7q-37 0 -63 26t-26 63
q0 18 7 34t19 28t28.5 19t34.5 7t34 -7t28 -19t19 -28t7 -34zM498 861q0 -18 -7 -34.5t-19 -28.5t-28 -19t-34 -7q-37 0 -63 26t-26 63q0 18 7 34t19 28t28.5 19t34.5 7t34 -7t28 -19t19 -28t7 -34z" />
    <glyph glyph-name="Yacute" unicode="&#xdd;" horiz-adv-x="659" 
d="M647 733l-236 -479l12 -254h-185l13 248l-239 485h199l118 -273l119 273h199v0zM472 949l6 -144l-284 -49l-10 104l288 89v0z" />
    <glyph glyph-name="Thorn" unicode="&#xde;" horiz-adv-x="502" 
d="M477 367q0 -60 -22.5 -102.5t-62 -70.5t-93 -42.5t-115.5 -20.5v-130h-160v731h160v-125q144 15 219.5 -48.5t73.5 -191.5zM317 376q0 28 -11 46t-30 28t-43 13.5t-49 2.5v-185q24 -1 47.5 4t42.5 16t31 29.5t12 45.5z" />
    <glyph glyph-name="germandbls" unicode="&#xdf;" horiz-adv-x="604" 
d="M402 385q2 -23 19.5 -39t40.5 -31t48 -31.5t43 -39t24.5 -53t-6.5 -74.5q-17 -47 -45 -75t-61 -41t-68.5 -11t-67 14t-56.5 34t-38 50l83 96q17 -24 39.5 -39t44 -21t38 -2.5t21.5 15.5q3 11 -10 19.5t-34.5 18.5t-47.5 23t-49 33t-38.5 48.5t-15.5 70.5q1 43 19 71
t38.5 49t36.5 39.5t13 43.5q-5 26 -28.5 38t-50.5 8.5t-49.5 -23.5t-24.5 -58l8 -517h-158l9 361h-55v115h58l2 76q5 51 30.5 88t62 59t79.5 29.5t84.5 0.5t76 -29t54.5 -59q22 -42 25.5 -71.5t-4.5 -52t-23.5 -38.5t-30.5 -30.5t-26 -30t-10 -34.5z" />
    <glyph glyph-name="agrave" unicode="&#xe0;" horiz-adv-x="492" 
d="M338 -7q-8 14 -14 29.5t-11 32.5q-44 -39 -96.5 -50.5t-98 1.5t-76 49t-30.5 92q0 47 19 86.5t55 65t87.5 32.5t115.5 -11q3 36 -16 56t-50 23t-68.5 -11.5t-70.5 -47.5l-59 128q38 25 83 41t90 22t87 1.5t74 -22t51.5 -48.5t19.5 -77l2 -213q0 -14 4.5 -31t11.5 -34
t15.5 -31t16.5 -22zM165 169q0 -20 11.5 -30t30 -10.5t41.5 7t45 22.5q-1 13 -2 25.5t-1 25.5q-20 6 -41.5 9t-39.5 0t-30.5 -14t-13.5 -35zM100 736l299 -93l-12 -108l-294 51l7 150v0z" />
    <glyph glyph-name="aacute" unicode="&#xe1;" horiz-adv-x="492" 
d="M338 -7q-8 14 -14 29.5t-11 32.5q-44 -39 -96.5 -50.5t-98 1.5t-76 49t-30.5 92q0 47 19 86.5t55 65t87.5 32.5t115.5 -11q3 36 -16 56t-50 23t-68.5 -11.5t-70.5 -47.5l-59 128q38 25 83 41t90 22t87 1.5t74 -22t51.5 -48.5t19.5 -77l2 -213q0 -14 4.5 -31t11.5 -34
t15.5 -31t16.5 -22zM165 169q0 -20 11.5 -30t30 -10.5t41.5 7t45 22.5q-1 13 -2 25.5t-1 25.5q-20 6 -41.5 9t-39.5 0t-30.5 -14t-13.5 -35zM387 730l6 -144l-284 -49l-10 104l288 89v0z" />
    <glyph glyph-name="acircumflex" unicode="&#xe2;" horiz-adv-x="492" 
d="M338 -7q-8 14 -14 29.5t-11 32.5q-44 -39 -96.5 -50.5t-98 1.5t-76 49t-30.5 92q0 47 19 86.5t55 65t87.5 32.5t115.5 -11q3 36 -16 56t-50 23t-68.5 -11.5t-70.5 -47.5l-59 128q38 25 83 41t90 22t87 1.5t74 -22t51.5 -48.5t19.5 -77l2 -213q0 -14 4.5 -31t11.5 -34
t15.5 -31t16.5 -22zM165 169q0 -20 11.5 -30t30 -10.5t41.5 7t45 22.5q-1 13 -2 25.5t-1 25.5q-20 6 -41.5 9t-39.5 0t-30.5 -14t-13.5 -35zM382 535l-137 55l-143 -55l-20 82l173 114l155 -111l-28 -85v0z" />
    <glyph glyph-name="atilde" unicode="&#xe3;" horiz-adv-x="492" 
d="M338 -7q-8 14 -14 29.5t-11 32.5q-44 -39 -96.5 -50.5t-98 1.5t-76 49t-30.5 92q0 47 19 86.5t55 65t87.5 32.5t115.5 -11q3 36 -16 56t-50 23t-68.5 -11.5t-70.5 -47.5l-59 128q38 25 83 41t90 22t87 1.5t74 -22t51.5 -48.5t19.5 -77l2 -213q0 -14 4.5 -31t11.5 -34
t15.5 -31t16.5 -22zM165 169q0 -20 11.5 -30t30 -10.5t41.5 7t45 22.5q-1 13 -2 25.5t-1 25.5q-20 6 -41.5 9t-39.5 0t-30.5 -14t-13.5 -35zM55 618q36 54 68 73.5t60 20.5t53.5 -9.5t49.5 -15.5t47.5 2t47.5 43l56 -73q-42 -56 -73.5 -75t-58 -18.5t-49 11.5t-45.5 16.5
t-48 -4t-57 -50.5l-51 79v0z" />
    <glyph glyph-name="adieresis" unicode="&#xe4;" horiz-adv-x="492" 
d="M338 -7q-8 14 -14 29.5t-11 32.5q-44 -39 -96.5 -50.5t-98 1.5t-76 49t-30.5 92q0 47 19 86.5t55 65t87.5 32.5t115.5 -11q3 36 -16 56t-50 23t-68.5 -11.5t-70.5 -47.5l-59 128q38 25 83 41t90 22t87 1.5t74 -22t51.5 -48.5t19.5 -77l2 -213q0 -14 4.5 -31t11.5 -34
t15.5 -31t16.5 -22zM165 169q0 -20 11.5 -30t30 -10.5t41.5 7t45 22.5q-1 13 -2 25.5t-1 25.5q-20 6 -41.5 9t-39.5 0t-30.5 -14t-13.5 -35zM218 646q0 -18 -7 -34.5t-19 -28.5t-28 -19t-34 -7q-37 0 -63 26t-26 63q0 18 7 34t19 28t28.5 19t34.5 7t34 -7t28 -19t19 -28
t7 -34zM451 646q0 -18 -7 -34.5t-19 -28.5t-28 -19t-34 -7q-37 0 -63 26t-26 63q0 18 7 34t19 28t28.5 19t34.5 7t34 -7t28 -19t19 -28t7 -34z" />
    <glyph glyph-name="aring" unicode="&#xe5;" horiz-adv-x="492" 
d="M338 -7q-8 14 -14 29.5t-11 32.5q-44 -39 -96.5 -50.5t-98 1.5t-76 49t-30.5 92q0 47 19 86.5t55 65t87.5 32.5t115.5 -11q3 36 -16 56t-50 23t-68.5 -11.5t-70.5 -47.5l-59 128q38 25 83 41t90 22t87 1.5t74 -22t51.5 -48.5t19.5 -77l2 -213q0 -14 4.5 -31t11.5 -34
t15.5 -31t16.5 -22zM165 169q0 -20 11.5 -30t30 -10.5t41.5 7t45 22.5q-1 13 -2 25.5t-1 25.5q-20 6 -41.5 9t-39.5 0t-30.5 -14t-13.5 -35zM253 812q28 0 53 -10.5t44 -28t29.5 -41.5t10.5 -51t-10.5 -51t-29.5 -41.5t-44 -28t-53 -10.5q-29 0 -53.5 10.5t-43 28t-29 41.5
t-10.5 51t10.5 51t29 41.5t43 28t53.5 10.5zM253 618q26 0 44 17.5t18 43.5t-18 43.5t-44 17.5q-25 0 -43.5 -17.5t-18.5 -43.5t18.5 -43.5t43.5 -17.5z" />
    <glyph glyph-name="ae" unicode="&#xe6;" horiz-adv-x="742" 
d="M730 107q-47 -45 -99 -71.5t-103 -33t-96.5 7t-79.5 46.5q-24 -26 -58.5 -40.5t-72.5 -18t-75.5 4t-67 25.5t-48 47t-18.5 69q0 46 18.5 84.5t53.5 63.5t85 32t113 -11q3 35 -15.5 54.5t-49 22.5t-67 -11t-68.5 -46l-57 124q46 41 97.5 59.5t100.5 18.5t91.5 -17
t69.5 -46q37 33 79.5 50t83.5 17q40 0 71 -16t52.5 -42t33.5 -58.5t13.5 -66.5t-8 -65.5t-29.5 -55.5l-259 -19l1 -22q6 -32 31 -48t58 -14.5t68.5 21.5t63.5 60zM518 422q-20 0 -36.5 -8.5t-29.5 -21.5t-21 -29.5t-11 -32.5v-16l165 14q0 15 -3.5 32t-11.5 30.5t-20.5 22.5
t-31.5 9zM161 165q0 -20 11.5 -29.5t29.5 -10t40 7t44 21.5q-1 12 -1.5 24.5t-1.5 24.5q-20 6 -41 9t-38.5 0.5t-29.5 -13.5t-13 -34z" />
    <glyph glyph-name="ccedilla" unicode="&#xe7;" horiz-adv-x="432" 
d="M255 -35q44 -4 69 -20t33.5 -39t1 -50t-29.5 -53t-57 -49t-81 -37l-67 104q38 -5 64.5 6t33.5 27t-9 31.5t-62 19.5l30 147h101l-29 -87h2zM403 494l-90 -148q-28 32 -56 38.5t-49.5 -6.5t-35 -42.5t-13.5 -68.5q0 -45 15 -77t39 -42t53 6.5t57 68.5l97 -109
q-34 -48 -77.5 -75.5t-89 -35.5t-89 3.5t-77.5 42t-54.5 80t-20.5 116.5q0 55 16.5 103.5t45.5 86t67.5 62.5t81.5 34t89.5 0.5t90.5 -37.5z" />
    <glyph glyph-name="egrave" unicode="&#xe8;" horiz-adv-x="466" 
d="M454 108q-45 -44 -95 -70t-99 -33.5t-94 3.5t-79 40.5t-54.5 78.5t-20.5 117q0 69 24 124t61.5 92.5t83.5 57.5t90 20q60 0 100 -34t58 -82t12.5 -99.5t-36.5 -87.5l-260 -19q-1 -39 22.5 -61t58 -23.5t73.5 18t69 63.5zM243 422q-22 0 -40.5 -10.5t-31.5 -26.5t-20 -35
t-7 -36l166 14q0 16 -3.5 32.5t-11.5 30t-20.5 22.5t-31.5 9zM87 736l299 -93l-12 -108l-294 51l7 150v0z" />
    <glyph glyph-name="eacute" unicode="&#xe9;" horiz-adv-x="466" 
d="M454 108q-45 -44 -95 -70t-99 -33.5t-94 3.5t-79 40.5t-54.5 78.5t-20.5 117q0 69 24 124t61.5 92.5t83.5 57.5t90 20q60 0 100 -34t58 -82t12.5 -99.5t-36.5 -87.5l-260 -19q-1 -39 22.5 -61t58 -23.5t73.5 18t69 63.5zM243 422q-22 0 -40.5 -10.5t-31.5 -26.5t-20 -35
t-7 -36l166 14q0 16 -3.5 32.5t-11.5 30t-20.5 22.5t-31.5 9zM374 730l6 -144l-284 -49l-10 104l288 89v0z" />
    <glyph glyph-name="ecircumflex" unicode="&#xea;" horiz-adv-x="466" 
d="M454 108q-45 -44 -95 -70t-99 -33.5t-94 3.5t-79 40.5t-54.5 78.5t-20.5 117q0 69 24 124t61.5 92.5t83.5 57.5t90 20q60 0 100 -34t58 -82t12.5 -99.5t-36.5 -87.5l-260 -19q-1 -39 22.5 -61t58 -23.5t73.5 18t69 63.5zM243 422q-22 0 -40.5 -10.5t-31.5 -26.5t-20 -35
t-7 -36l166 14q0 16 -3.5 32.5t-11.5 30t-20.5 22.5t-31.5 9zM369 535l-137 55l-143 -55l-20 82l173 114l155 -111l-28 -85v0z" />
    <glyph glyph-name="edieresis" unicode="&#xeb;" horiz-adv-x="466" 
d="M454 108q-45 -44 -95 -70t-99 -33.5t-94 3.5t-79 40.5t-54.5 78.5t-20.5 117q0 69 24 124t61.5 92.5t83.5 57.5t90 20q60 0 100 -34t58 -82t12.5 -99.5t-36.5 -87.5l-260 -19q-1 -39 22.5 -61t58 -23.5t73.5 18t69 63.5zM243 422q-22 0 -40.5 -10.5t-31.5 -26.5t-20 -35
t-7 -36l166 14q0 16 -3.5 32.5t-11.5 30t-20.5 22.5t-31.5 9zM205 646q0 -18 -7 -34.5t-19 -28.5t-28 -19t-34 -7q-37 0 -63 26t-26 63q0 18 7 34t19 28t28.5 19t34.5 7t34 -7t28 -19t19 -28t7 -34zM438 646q0 -18 -7 -34.5t-19 -28.5t-28 -19t-34 -7q-37 0 -63 26t-26 63
q0 18 7 34t19 28t28.5 19t34.5 7t34 -7t28 -19t19 -28t7 -34z" />
    <glyph glyph-name="igrave" unicode="&#xec;" horiz-adv-x="218" 
d="M204 -1h-177v537h161l16 -537v0zM-35 754l299 -93l-12 -108l-294 51l7 150v0z" />
    <glyph glyph-name="iacute" unicode="&#xed;" horiz-adv-x="218" 
d="M204 -1h-177v537h161l16 -537v0zM254 757l6 -144l-284 -49l-10 104l288 89v0z" />
    <glyph glyph-name="icircumflex" unicode="&#xee;" horiz-adv-x="218" 
d="M204 -1h-177v537h161l16 -537v0zM245 535l-137 55l-143 -55l-20 82l173 114l155 -111l-28 -85v0z" />
    <glyph glyph-name="idieresis" unicode="&#xef;" horiz-adv-x="218" 
d="M204 -1h-177v537h161l16 -537v0zM81 646q0 -18 -7 -34.5t-19 -28.5t-28 -19t-34 -7q-37 0 -63 26t-26 63q0 18 7 34t19 28t28.5 19t34.5 7t34 -7t28 -19t19 -28t7 -34zM314 646q0 -18 -7 -34.5t-19 -28.5t-28 -19t-34 -7q-37 0 -63 26t-26 63q0 18 7 34t19 28t28.5 19
t34.5 7t34 -7t28 -19t19 -28t7 -34z" />
    <glyph glyph-name="ntilde" unicode="&#xf1;" horiz-adv-x="482" 
d="M304 269q1 41 -10 64t-29 29.5t-42 -2.5t-49 -32l11 -327h-173v534h156l2 -75q47 43 98 63.5t93.5 10t70 -57.5t28.5 -138l10 -337h-166v268zM50 618q36 54 68 73.5t60 20.5t53.5 -9.5t49.5 -15.5t47.5 2t47.5 43l56 -73q-42 -56 -73.5 -75t-58 -18.5t-49 11.5
t-45.5 16.5t-48 -4t-57 -50.5l-51 79v0z" />
    <glyph glyph-name="ograve" unicode="&#xf2;" horiz-adv-x="446" 
d="M242 541q44 0 79.5 -21t60.5 -58t38.5 -86t13.5 -105t-17.5 -106t-47 -88t-69 -60t-83.5 -22t-81.5 22t-65 60t-43 88t-15.5 106t19.5 105t52 86t73.5 58t85 21zM254 146q16 3 28 16t19 32t8.5 42.5t-4.5 49.5q-5 25 -16.5 46t-26 35t-31 20.5t-32.5 2.5
q-17 -4 -29 -16.5t-19 -31.5t-8.5 -43t4.5 -49q6 -26 17.5 -46.5t25.5 -35t30.5 -20.5t33.5 -2zM77 736l299 -93l-12 -108l-294 51l7 150v0z" />
    <glyph glyph-name="oacute" unicode="&#xf3;" horiz-adv-x="446" 
d="M242 541q44 0 79.5 -21t60.5 -58t38.5 -86t13.5 -105t-17.5 -106t-47 -88t-69 -60t-83.5 -22t-81.5 22t-65 60t-43 88t-15.5 106t19.5 105t52 86t73.5 58t85 21zM254 146q16 3 28 16t19 32t8.5 42.5t-4.5 49.5q-5 25 -16.5 46t-26 35t-31 20.5t-32.5 2.5
q-17 -4 -29 -16.5t-19 -31.5t-8.5 -43t4.5 -49q6 -26 17.5 -46.5t25.5 -35t30.5 -20.5t33.5 -2zM364 730l6 -144l-284 -49l-10 104l288 89v0z" />
    <glyph glyph-name="ocircumflex" unicode="&#xf4;" horiz-adv-x="446" 
d="M242 541q44 0 79.5 -21t60.5 -58t38.5 -86t13.5 -105t-17.5 -106t-47 -88t-69 -60t-83.5 -22t-81.5 22t-65 60t-43 88t-15.5 106t19.5 105t52 86t73.5 58t85 21zM254 146q16 3 28 16t19 32t8.5 42.5t-4.5 49.5q-5 25 -16.5 46t-26 35t-31 20.5t-32.5 2.5
q-17 -4 -29 -16.5t-19 -31.5t-8.5 -43t4.5 -49q6 -26 17.5 -46.5t25.5 -35t30.5 -20.5t33.5 -2zM359 535l-137 55l-143 -55l-20 82l173 114l155 -111l-28 -85v0z" />
    <glyph glyph-name="otilde" unicode="&#xf5;" horiz-adv-x="446" 
d="M242 541q44 0 79.5 -21t60.5 -58t38.5 -86t13.5 -105t-17.5 -106t-47 -88t-69 -60t-83.5 -22t-81.5 22t-65 60t-43 88t-15.5 106t19.5 105t52 86t73.5 58t85 21zM254 146q16 3 28 16t19 32t8.5 42.5t-4.5 49.5q-5 25 -16.5 46t-26 35t-31 20.5t-32.5 2.5
q-17 -4 -29 -16.5t-19 -31.5t-8.5 -43t4.5 -49q6 -26 17.5 -46.5t25.5 -35t30.5 -20.5t33.5 -2zM32 618q36 54 68 73.5t60 20.5t53.5 -9.5t49.5 -15.5t47.5 2t47.5 43l56 -73q-42 -56 -73.5 -75t-58 -18.5t-49 11.5t-45.5 16.5t-48 -4t-57 -50.5l-51 79v0z" />
    <glyph glyph-name="odieresis" unicode="&#xf6;" horiz-adv-x="446" 
d="M242 541q44 0 79.5 -21t60.5 -58t38.5 -86t13.5 -105t-17.5 -106t-47 -88t-69 -60t-83.5 -22t-81.5 22t-65 60t-43 88t-15.5 106t19.5 105t52 86t73.5 58t85 21zM254 146q16 3 28 16t19 32t8.5 42.5t-4.5 49.5q-5 25 -16.5 46t-26 35t-31 20.5t-32.5 2.5
q-17 -4 -29 -16.5t-19 -31.5t-8.5 -43t4.5 -49q6 -26 17.5 -46.5t25.5 -35t30.5 -20.5t33.5 -2zM195 646q0 -18 -7 -34.5t-19 -28.5t-28 -19t-34 -7q-37 0 -63 26t-26 63q0 18 7 34t19 28t28.5 19t34.5 7t34 -7t28 -19t19 -28t7 -34zM428 646q0 -18 -7 -34.5t-19 -28.5
t-28 -19t-34 -7q-37 0 -63 26t-26 63q0 18 7 34t19 28t28.5 19t34.5 7t34 -7t28 -19t19 -28t7 -34z" />
    <glyph glyph-name="divide" unicode="&#xf7;" horiz-adv-x="469" 
d="M24 321v-120h421v120h-421zM313 88q0 -18 -7 -34.5t-19 -28.5t-28 -19t-34 -7q-37 0 -63 26t-26 63q0 18 7 34t19 28t28.5 19t34.5 7t34 -7t28 -19t19 -28t7 -34zM308 447q0 -18 -7 -34.5t-19 -28.5t-28 -19t-34 -7q-37 0 -63 26t-26 63q0 18 7 34t19 28t28.5 19t34.5 7
t34 -7t28 -19t19 -28t7 -34z" />
    <glyph glyph-name="oslash" unicode="&#xf8;" horiz-adv-x="446" 
d="M242 541q44 0 79.5 -21t60.5 -58t38.5 -86t13.5 -105t-17.5 -106t-47 -88t-69 -60t-83.5 -22t-81.5 22t-65 60t-43 88t-15.5 106t19.5 105t52 86t73.5 58t85 21zM254 146q16 3 28 16t19 32t8.5 42.5t-4.5 49.5q-5 25 -16.5 46t-26 35t-31 20.5t-32.5 2.5
q-17 -4 -29 -16.5t-19 -31.5t-8.5 -43t4.5 -49q6 -26 17.5 -46.5t25.5 -35t30.5 -20.5t33.5 -2zM357.778 564.609l-144.278 -599.91l-100.723 24.6426l156.075 597.361l88.9258 -22.0938v0z" />
    <glyph glyph-name="ugrave" unicode="&#xf9;" horiz-adv-x="504" 
d="M442 172q9 -70 50 -108l-132 -65q-20 13 -33.5 30.5t-18.5 42.5q-46 -40 -93 -58.5t-86 -13t-66 35t-32 85.5l-19 415h167l-1 -280q-1 -40 9.5 -60.5t28.5 -26t40.5 2t45.5 25.5l-13 339h159l-6 -364v0zM110 767l299 -93l-12 -108l-294 51l7 150v0z" />
    <glyph glyph-name="uacute" unicode="&#xfa;" horiz-adv-x="504" 
d="M442 172q9 -70 50 -108l-132 -65q-20 13 -33.5 30.5t-18.5 42.5q-46 -40 -93 -58.5t-86 -13t-66 35t-32 85.5l-19 415h167l-1 -280q-1 -40 9.5 -60.5t28.5 -26t40.5 2t45.5 25.5l-13 339h159l-6 -364v0zM389 763l6 -144l-284 -49l-10 104l288 89v0z" />
    <glyph glyph-name="ucircumflex" unicode="&#xfb;" horiz-adv-x="504" 
d="M442 172q9 -70 50 -108l-132 -65q-20 13 -33.5 30.5t-18.5 42.5q-46 -40 -93 -58.5t-86 -13t-66 35t-32 85.5l-19 415h167l-1 -280q-1 -40 9.5 -60.5t28.5 -26t40.5 2t45.5 25.5l-13 339h159l-6 -364v0zM384 560l-137 55l-143 -55l-20 82l173 114l155 -111l-28 -85v0z
" />
    <glyph glyph-name="udieresis" unicode="&#xfc;" horiz-adv-x="504" 
d="M442 172q9 -70 50 -108l-132 -65q-20 13 -33.5 30.5t-18.5 42.5q-46 -40 -93 -58.5t-86 -13t-66 35t-32 85.5l-19 415h167l-1 -280q-1 -40 9.5 -60.5t28.5 -26t40.5 2t45.5 25.5l-13 339h159l-6 -364v0zM224 646q0 -18 -7 -34.5t-19 -28.5t-28 -19t-34 -7q-37 0 -63 26
t-26 63q0 18 7 34t19 28t28.5 19t34.5 7t34 -7t28 -19t19 -28t7 -34zM457 646q0 -18 -7 -34.5t-19 -28.5t-28 -19t-34 -7q-37 0 -63 26t-26 63q0 18 7 34t19 28t28.5 19t34.5 7t34 -7t28 -19t19 -28t7 -34z" />
    <glyph glyph-name="yacute" unicode="&#xfd;" horiz-adv-x="552" 
d="M369 535h171l-291 -759l-158 34l71 185l23 62l-173 478h174l84 -257l99 257v0zM417 730l6 -144l-284 -49l-10 104l288 89v0z" />
    <glyph glyph-name="thorn" unicode="&#xfe;" horiz-adv-x="502" 
d="M477 367q0 -60 -22.5 -102.5t-62 -70.5t-93 -42.5t-115.5 -20.5v-130h-160v731h160v-125q144 15 219.5 -48.5t73.5 -191.5zM317 376q0 28 -11 46t-30 28t-43 13.5t-49 2.5v-185q24 -1 47.5 4t42.5 16t31 29.5t12 45.5z" />
    <glyph glyph-name="ydieresis" unicode="&#xff;" horiz-adv-x="552" 
d="M369 535h171l-291 -759l-158 34l71 185l23 62l-173 478h174l84 -257l99 257v0zM248 646q0 -18 -7 -34.5t-19 -28.5t-28 -19t-34 -7q-37 0 -63 26t-26 63q0 18 7 34t19 28t28.5 19t34.5 7t34 -7t28 -19t19 -28t7 -34zM481 646q0 -18 -7 -34.5t-19 -28.5t-28 -19t-34 -7
q-37 0 -63 26t-26 63q0 18 7 34t19 28t28.5 19t34.5 7t34 -7t28 -19t19 -28t7 -34z" />
    <glyph glyph-name="Amacron" unicode="&#x100;" horiz-adv-x="693" 
d="M468 1l-45 196h-179l-56 -196h-176l242 716l196 16l231 -732h-213zM286 343l103 4l-45 199zM235 931h223l-9 -98h-214v98v0z" />
    <glyph glyph-name="amacron" unicode="&#x101;" horiz-adv-x="492" 
d="M338 -7q-8 14 -14 29.5t-11 32.5q-44 -39 -96.5 -50.5t-98 1.5t-76 49t-30.5 92q0 47 19 86.5t55 65t87.5 32.5t115.5 -11q3 36 -16 56t-50 23t-68.5 -11.5t-70.5 -47.5l-59 128q38 25 83 41t90 22t87 1.5t74 -22t51.5 -48.5t19.5 -77l2 -213q0 -14 4.5 -31t11.5 -34
t15.5 -31t16.5 -22zM165 169q0 -20 11.5 -30t30 -10.5t41.5 7t45 22.5q-1 13 -2 25.5t-1 25.5q-20 6 -41.5 9t-39.5 0t-30.5 -14t-13.5 -35zM134 733h223l-9 -98h-214v98v0z" />
    <glyph glyph-name="Abreve" unicode="&#x102;" horiz-adv-x="693" 
d="M468 1l-45 196h-179l-56 -196h-176l242 716l196 16l231 -732h-213zM286 343l103 4l-45 199zM532 931q2 -4 2 -8.5v-9.5q0 -38 -15 -70.5t-40.5 -56.5t-60 -38t-73.5 -14q-38 0 -72 14t-59.5 38t-40 56.5t-14.5 70.5v9.5t2 8.5h104q-2 -5 -2 -10.5v-10.5q0 -35 24 -60
t58 -25q36 0 60.5 25t24.5 60v10.5t-2 10.5h104z" />
    <glyph glyph-name="abreve" unicode="&#x103;" horiz-adv-x="492" 
d="M338 -7q-8 14 -14 29.5t-11 32.5q-44 -39 -96.5 -50.5t-98 1.5t-76 49t-30.5 92q0 47 19 86.5t55 65t87.5 32.5t115.5 -11q3 36 -16 56t-50 23t-68.5 -11.5t-70.5 -47.5l-59 128q38 25 83 41t90 22t87 1.5t74 -22t51.5 -48.5t19.5 -77l2 -213q0 -14 4.5 -31t11.5 -34
t15.5 -31t16.5 -22zM165 169q0 -20 11.5 -30t30 -10.5t41.5 7t45 22.5q-1 13 -2 25.5t-1 25.5q-20 6 -41.5 9t-39.5 0t-30.5 -14t-13.5 -35zM431 733q2 -4 2 -8.5v-9.5q0 -38 -15 -70.5t-40.5 -56.5t-60 -38t-73.5 -14q-38 0 -72 14t-59.5 38t-40 56.5t-14.5 70.5v9.5t2 8.5
h104q-2 -5 -2 -10.5v-10.5q0 -35 24 -60t58 -25q36 0 60.5 25t24.5 60v10.5t-2 10.5h104z" />
    <glyph glyph-name="Aogonek" unicode="&#x104;" horiz-adv-x="693" 
d="M468 1l-45 196h-179l-56 -196h-176l242 716l196 16l231 -732h-213zM286 343l103 4l-45 199zM667 66q-34 -26 -53 -58.5t-19 -65.5t20.5 -64.5t65.5 -53.5l-106 -103q-49 28 -75.5 66.5t-28 84t23 97t77.5 106.5z" />
    <glyph glyph-name="aogonek" unicode="&#x105;" horiz-adv-x="492" 
d="M338 -7q-8 14 -14 29.5t-11 32.5q-44 -39 -96.5 -50.5t-98 1.5t-76 49t-30.5 92q0 47 19 86.5t55 65t87.5 32.5t115.5 -11q3 36 -16 56t-50 23t-68.5 -11.5t-70.5 -47.5l-59 128q38 25 83 41t90 22t87 1.5t74 -22t51.5 -48.5t19.5 -77l2 -213q0 -14 4.5 -31t11.5 -34
t15.5 -31t16.5 -22zM165 169q0 -20 11.5 -30t30 -10.5t41.5 7t45 22.5q-1 13 -2 25.5t-1 25.5q-20 6 -41.5 9t-39.5 0t-30.5 -14t-13.5 -35zM466 66q-34 -26 -53 -58.5t-19 -65.5t20.5 -64.5t65.5 -53.5l-106 -103q-49 28 -75.5 66.5t-28 84t23 97t77.5 106.5z" />
    <glyph glyph-name="Cacute" unicode="&#x106;" horiz-adv-x="618" 
d="M474 498q-30 39 -64.5 54t-67.5 10.5t-63 -25.5t-51 -54t-31.5 -75.5t-5.5 -88.5q5 -37 21.5 -68t41 -51t53.5 -28.5t59 -0.5t57.5 33t49.5 72l133 -83q-56 -90 -123.5 -136t-135.5 -55.5t-131 14t-110 72.5t-73 119.5t-19 155.5q8 92 38.5 160.5t75.5 114t101 69
t115.5 26t119 -15.5t112.5 -55l-102 -164v0zM450 928l6 -144l-284 -49l-10 104l288 89v0z" />
    <glyph glyph-name="cacute" unicode="&#x107;" horiz-adv-x="432" 
d="M403 494l-90 -148q-28 32 -56 38.5t-49.5 -6.5t-35 -42.5t-13.5 -68.5q0 -45 15 -77t39 -42t53 6.5t57 68.5l97 -109q-34 -48 -77.5 -75.5t-89 -35.5t-89 3.5t-77.5 42t-54.5 80t-20.5 116.5q0 55 16.5 103.5t45.5 86t67.5 62.5t81.5 34t89.5 0.5t90.5 -37.5zM357 730
l6 -144l-284 -49l-10 104l288 89v0z" />
    <glyph glyph-name="Ccircumflex" unicode="&#x108;" horiz-adv-x="618" 
d="M474 498q-30 39 -64.5 54t-67.5 10.5t-63 -25.5t-51 -54t-31.5 -75.5t-5.5 -88.5q5 -37 21.5 -68t41 -51t53.5 -28.5t59 -0.5t57.5 33t49.5 72l133 -83q-56 -90 -123.5 -136t-135.5 -55.5t-131 14t-110 72.5t-73 119.5t-19 155.5q8 92 38.5 160.5t75.5 114t101 69
t115.5 26t119 -15.5t112.5 -55l-102 -164v0zM445 733l-137 55l-143 -55l-20 82l173 114l155 -111l-28 -85v0z" />
    <glyph glyph-name="ccircumflex" unicode="&#x109;" horiz-adv-x="432" 
d="M403 494l-90 -148q-28 32 -56 38.5t-49.5 -6.5t-35 -42.5t-13.5 -68.5q0 -45 15 -77t39 -42t53 6.5t57 68.5l97 -109q-34 -48 -77.5 -75.5t-89 -35.5t-89 3.5t-77.5 42t-54.5 80t-20.5 116.5q0 55 16.5 103.5t45.5 86t67.5 62.5t81.5 34t89.5 0.5t90.5 -37.5zM352 535
l-137 55l-143 -55l-20 82l173 114l155 -111l-28 -85v0z" />
    <glyph glyph-name="Cdotaccent" unicode="&#x10a;" horiz-adv-x="618" 
d="M474 498q-30 39 -64.5 54t-67.5 10.5t-63 -25.5t-51 -54t-31.5 -75.5t-5.5 -88.5q5 -37 21.5 -68t41 -51t53.5 -28.5t59 -0.5t57.5 33t49.5 72l133 -83q-56 -90 -123.5 -136t-135.5 -55.5t-131 14t-110 72.5t-73 119.5t-19 155.5q8 92 38.5 160.5t75.5 114t101 69
t115.5 26t119 -15.5t112.5 -55l-102 -164v0zM397 844q0 -18 -7 -34.5t-19 -28.5t-28 -19t-34 -7q-37 0 -63 26t-26 63q0 18 7 34t19 28t28.5 19t34.5 7t34 -7t28 -19t19 -28t7 -34z" />
    <glyph glyph-name="cdotaccent" unicode="&#x10b;" horiz-adv-x="432" 
d="M403 494l-90 -148q-28 32 -56 38.5t-49.5 -6.5t-35 -42.5t-13.5 -68.5q0 -45 15 -77t39 -42t53 6.5t57 68.5l97 -109q-34 -48 -77.5 -75.5t-89 -35.5t-89 3.5t-77.5 42t-54.5 80t-20.5 116.5q0 55 16.5 103.5t45.5 86t67.5 62.5t81.5 34t89.5 0.5t90.5 -37.5zM304 646
q0 -18 -7 -34.5t-19 -28.5t-28 -19t-34 -7q-37 0 -63 26t-26 63q0 18 7 34t19 28t28.5 19t34.5 7t34 -7t28 -19t19 -28t7 -34z" />
    <glyph glyph-name="Ccaron" unicode="&#x10c;" horiz-adv-x="618" 
d="M474 498q-30 39 -64.5 54t-67.5 10.5t-63 -25.5t-51 -54t-31.5 -75.5t-5.5 -88.5q5 -37 21.5 -68t41 -51t53.5 -28.5t59 -0.5t57.5 33t49.5 72l133 -83q-56 -90 -123.5 -136t-135.5 -55.5t-131 14t-110 72.5t-73 119.5t-19 155.5q8 92 38.5 160.5t75.5 114t101 69
t115.5 26t119 -15.5t112.5 -55l-102 -164v0zM173 931l135 -55l142 55l21 -82l-173 -112l-152 110l27 84v0z" />
    <glyph glyph-name="ccaron" unicode="&#x10d;" horiz-adv-x="432" 
d="M403 494l-90 -148q-28 32 -56 38.5t-49.5 -6.5t-35 -42.5t-13.5 -68.5q0 -45 15 -77t39 -42t53 6.5t57 68.5l97 -109q-34 -48 -77.5 -75.5t-89 -35.5t-89 3.5t-77.5 42t-54.5 80t-20.5 116.5q0 55 16.5 103.5t45.5 86t67.5 62.5t81.5 34t89.5 0.5t90.5 -37.5zM80 733
l135 -55l142 55l21 -82l-173 -112l-152 110l27 84v0z" />
    <glyph glyph-name="Dcaron" unicode="&#x10e;" horiz-adv-x="637" 
d="M294 733q90 0 154.5 -31.5t104.5 -83t57 -117.5t14 -134.5t-26 -134.5t-63 -117.5t-96.5 -83t-126.5 -31.5h-300l9 733h273zM263 138q61 0 101.5 33t60 82.5t19 107.5t-21 107.5t-61.5 82.5t-101 33h-67l-9 -446h79zM183 943l135 -55l142 55l21 -82l-173 -112l-152 110
l27 84v0z" />
    <glyph glyph-name="dcaron" unicode="&#x10f;" horiz-adv-x="740" 
d="M351 -20l-26 84q-53 -54 -108.5 -62t-101 17.5t-74.5 78t-29 120.5q0 66 20 126.5t58 104.5t93 67.5t125 15.5l-5 262h160l-10 -591q2 -18 8 -39.5t14 -42.5t17.5 -38.5t18.5 -28.5zM158 252q0 -30 15 -50.5t38.5 -30.5t51.5 -8t54 17v181q-29 7 -57.5 8t-50.5 -9.5
t-36 -36t-15 -71.5zM573 688l113 46q24 -39 28 -74.5t-8.5 -68.5t-41 -63.5t-70.5 -58.5l-47 39q39 53 48.5 98t-22.5 82z" />
    <glyph glyph-name="Dcroat" unicode="&#x110;" horiz-adv-x="679" 
d="M336 733q90 0 154.5 -31.5t104.5 -83t57 -117.5t14 -134.5t-26 -134.5t-63 -117.5t-96.5 -83t-126.5 -31.5h-300l9 733h273zM305 138q61 0 101.5 33t60 82.5t19 107.5t-21 107.5t-61.5 82.5t-101 33h-67l-9 -446h79zM12.0898 535.147h261.002l-10.5342 -114.999h-250.468
v114.999v0z" />
    <glyph glyph-name="dcroat" unicode="&#x111;" horiz-adv-x="523" 
d="M351 -20l-26 84q-53 -54 -108.5 -62t-101 17.5t-74.5 78t-29 120.5q0 66 20 126.5t58 104.5t93 67.5t125 15.5l-5 262h160l-10 -591q2 -18 8 -39.5t14 -42.5t17.5 -38.5t18.5 -28.5zM158 252q0 -30 15 -50.5t38.5 -30.5t51.5 -8t54 17v181q-29 7 -57.5 8t-50.5 -9.5
t-36 -36t-15 -71.5zM155.751 734.379h364.007v-112.998h-364.007v112.998v0z" />
    <glyph glyph-name="Emacron" unicode="&#x112;" horiz-adv-x="460" 
d="M205 151h226l17 -151h-246h-98h-79l-13 733h63h142h231l-17 -143h-217l-3 -141h189v-139h-191l-4 -159v0zM118 931h223l-9 -98h-214v98v0z" />
    <glyph glyph-name="emacron" unicode="&#x113;" horiz-adv-x="466" 
d="M454 108q-45 -44 -95 -70t-99 -33.5t-94 3.5t-79 40.5t-54.5 78.5t-20.5 117q0 69 24 124t61.5 92.5t83.5 57.5t90 20q60 0 100 -34t58 -82t12.5 -99.5t-36.5 -87.5l-260 -19q-1 -39 22.5 -61t58 -23.5t73.5 18t69 63.5zM243 422q-22 0 -40.5 -10.5t-31.5 -26.5t-20 -35
t-7 -36l166 14q0 16 -3.5 32.5t-11.5 30t-20.5 22.5t-31.5 9zM121 733h223l-9 -98h-214v98v0z" />
    <glyph glyph-name="Ebreve" unicode="&#x114;" horiz-adv-x="460" 
d="M205 151h226l17 -151h-246h-98h-79l-13 733h63h142h231l-17 -143h-217l-3 -141h189v-139h-191l-4 -159v0zM415 956q2 -4 2 -8.5v-9.5q0 -38 -15 -70.5t-40.5 -56.5t-60 -38t-73.5 -14q-38 0 -72 14t-59.5 38t-40 56.5t-14.5 70.5v9.5t2 8.5h104q-2 -5 -2 -10.5v-10.5
q0 -35 24 -60t58 -25q36 0 60.5 25t24.5 60v10.5t-2 10.5h104z" />
    <glyph glyph-name="ebreve" unicode="&#x115;" horiz-adv-x="466" 
d="M454 108q-45 -44 -95 -70t-99 -33.5t-94 3.5t-79 40.5t-54.5 78.5t-20.5 117q0 69 24 124t61.5 92.5t83.5 57.5t90 20q60 0 100 -34t58 -82t12.5 -99.5t-36.5 -87.5l-260 -19q-1 -39 22.5 -61t58 -23.5t73.5 18t69 63.5zM243 422q-22 0 -40.5 -10.5t-31.5 -26.5t-20 -35
t-7 -36l166 14q0 16 -3.5 32.5t-11.5 30t-20.5 22.5t-31.5 9zM420 747q2 -4 2 -8.5v-9.5q0 -38 -15 -70.5t-40.5 -56.5t-60 -38t-73.5 -14q-38 0 -72 14t-59.5 38t-40 56.5t-14.5 70.5v9.5t2 8.5h104q-2 -5 -2 -10.5v-10.5q0 -35 24 -60t58 -25q36 0 60.5 25t24.5 60v10.5
t-2 10.5h104z" />
    <glyph glyph-name="Edotaccent" unicode="&#x116;" horiz-adv-x="460" 
d="M205 151h226l17 -151h-246h-98h-79l-13 733h63h142h231l-17 -143h-217l-3 -141h189v-139h-191l-4 -159v0zM318 844q0 -18 -7 -34.5t-19 -28.5t-28 -19t-34 -7q-37 0 -63 26t-26 63q0 18 7 34t19 28t28.5 19t34.5 7t34 -7t28 -19t19 -28t7 -34z" />
    <glyph glyph-name="edotaccent" unicode="&#x117;" horiz-adv-x="466" 
d="M454 108q-45 -44 -95 -70t-99 -33.5t-94 3.5t-79 40.5t-54.5 78.5t-20.5 117q0 69 24 124t61.5 92.5t83.5 57.5t90 20q60 0 100 -34t58 -82t12.5 -99.5t-36.5 -87.5l-260 -19q-1 -39 22.5 -61t58 -23.5t73.5 18t69 63.5zM243 422q-22 0 -40.5 -10.5t-31.5 -26.5t-20 -35
t-7 -36l166 14q0 16 -3.5 32.5t-11.5 30t-20.5 22.5t-31.5 9zM321 646q0 -18 -7 -34.5t-19 -28.5t-28 -19t-34 -7q-37 0 -63 26t-26 63q0 18 7 34t19 28t28.5 19t34.5 7t34 -7t28 -19t19 -28t7 -34z" />
    <glyph glyph-name="Eogonek" unicode="&#x118;" horiz-adv-x="460" 
d="M205 151h226l17 -151h-246h-98h-79l-13 733h63h142h231l-17 -143h-217l-3 -141h189v-139h-191l-4 -159v0zM313 70q-34 -26 -53 -58.5t-19 -65.5t20.5 -64.5t65.5 -53.5l-106 -103q-49 28 -75.5 66.5t-28 84t23 97t77.5 106.5z" />
    <glyph glyph-name="eogonek" unicode="&#x119;" horiz-adv-x="466" 
d="M454 108q-45 -44 -95 -70t-99 -33.5t-94 3.5t-79 40.5t-54.5 78.5t-20.5 117q0 69 24 124t61.5 92.5t83.5 57.5t90 20q60 0 100 -34t58 -82t12.5 -99.5t-36.5 -87.5l-260 -19q-1 -39 22.5 -61t58 -23.5t73.5 18t69 63.5zM243 422q-22 0 -40.5 -10.5t-31.5 -26.5t-20 -35
t-7 -36l166 14q0 16 -3.5 32.5t-11.5 30t-20.5 22.5t-31.5 9zM337 58q-34 -26 -53 -58.5t-19 -65.5t20.5 -64.5t65.5 -53.5l-106 -103q-49 28 -75.5 66.5t-28 84t23 97t77.5 106.5z" />
    <glyph glyph-name="Ecaron" unicode="&#x11a;" horiz-adv-x="460" 
d="M205 151h226l17 -151h-246h-98h-79l-13 733h63h142h231l-17 -143h-217l-3 -141h189v-139h-191l-4 -159v0zM94 945l135 -55l142 55l21 -82l-173 -112l-152 110l27 84v0z" />
    <glyph glyph-name="ecaron" unicode="&#x11b;" horiz-adv-x="466" 
d="M454 108q-45 -44 -95 -70t-99 -33.5t-94 3.5t-79 40.5t-54.5 78.5t-20.5 117q0 69 24 124t61.5 92.5t83.5 57.5t90 20q60 0 100 -34t58 -82t12.5 -99.5t-36.5 -87.5l-260 -19q-1 -39 22.5 -61t58 -23.5t73.5 18t69 63.5zM243 422q-22 0 -40.5 -10.5t-31.5 -26.5t-20 -35
t-7 -36l166 14q0 16 -3.5 32.5t-11.5 30t-20.5 22.5t-31.5 9zM101 750l135 -55l142 55l21 -82l-173 -112l-152 110l27 84v0z" />
    <glyph glyph-name="Gcircumflex" unicode="&#x11c;" horiz-adv-x="600" 
d="M588 74q-52 -35 -110.5 -53t-117 -20.5t-114.5 12t-103 46.5q-64 47 -97.5 123.5t-33.5 176.5q0 89 27.5 157.5t72.5 115.5t103.5 72.5t121 29t124 -14.5t113.5 -58l-115 -172q-30 38 -63 55.5t-64.5 16.5t-59 -18t-47 -47.5t-27.5 -73.5t-1 -95q8 -54 33 -90.5t58 -53.5
t69 -15t67 26l-3 81l-113 -18v153h280v-336v0zM448 735l-137 55l-143 -55l-20 82l173 114l155 -111l-28 -85v0z" />
    <glyph glyph-name="gcircumflex" unicode="&#x11d;" horiz-adv-x="551" 
d="M521 -53q0 -43 -22.5 -79.5t-60 -63t-85 -41.5t-98.5 -15q-67 0 -113.5 13.5t-75 36t-41.5 51.5t-13 60q0 22 10.5 45t29 42t44 31.5t55.5 14.5q-9 9 -12.5 21.5t-2.5 27t7 28.5t15 25q-64 17 -105 57.5t-41 103.5q0 56 23.5 99t60.5 72.5t83 45t92 15.5q57 0 101 -28
q29 16 66.5 28.5t82.5 23.5l18 -138q-25 2 -49 1t-44 -8q8 -20 11.5 -42t3.5 -45q0 -32 -11 -61t-31.5 -53.5t-48 -42.5t-60.5 -28q-1 -5 -1.5 -9.5t-0.5 -9.5q0 -8 12.5 -13.5t31.5 -12t42.5 -15t46 -20.5t41.5 -28.5t30 -40.5q8 -18 9 -43v-5zM156 327q0 -32 23.5 -53.5
t57.5 -21.5t57 21.5t23 53.5t-23 53.5t-57 21.5t-57.5 -21.5t-23.5 -53.5zM282 -109q48 4 65 18t11 30.5t-33 32t-68 23.5q-48 -20 -67.5 -41t-15 -37t32.5 -24t75 -2zM411 535l-137 55l-143 -55l-20 82l173 114l155 -111l-28 -85v0z" />
    <glyph glyph-name="Gbreve" unicode="&#x11e;" horiz-adv-x="600" 
d="M588 74q-52 -35 -110.5 -53t-117 -20.5t-114.5 12t-103 46.5q-64 47 -97.5 123.5t-33.5 176.5q0 89 27.5 157.5t72.5 115.5t103.5 72.5t121 29t124 -14.5t113.5 -58l-115 -172q-30 38 -63 55.5t-64.5 16.5t-59 -18t-47 -47.5t-27.5 -73.5t-1 -95q8 -54 33 -90.5t58 -53.5
t69 -15t67 26l-3 81l-113 -18v153h280v-336v0zM524 945q2 -4 2 -8.5v-9.5q0 -38 -15 -70.5t-40.5 -56.5t-60 -38t-73.5 -14q-38 0 -72 14t-59.5 38t-40 56.5t-14.5 70.5v9.5t2 8.5h104q-2 -5 -2 -10.5v-10.5q0 -35 24 -60t58 -25q36 0 60.5 25t24.5 60v10.5t-2 10.5h104z
" />
    <glyph glyph-name="gbreve" unicode="&#x11f;" horiz-adv-x="551" 
d="M521 -53q0 -43 -22.5 -79.5t-60 -63t-85 -41.5t-98.5 -15q-67 0 -113.5 13.5t-75 36t-41.5 51.5t-13 60q0 22 10.5 45t29 42t44 31.5t55.5 14.5q-9 9 -12.5 21.5t-2.5 27t7 28.5t15 25q-64 17 -105 57.5t-41 103.5q0 56 23.5 99t60.5 72.5t83 45t92 15.5q57 0 101 -28
q29 16 66.5 28.5t82.5 23.5l18 -138q-25 2 -49 1t-44 -8q8 -20 11.5 -42t3.5 -45q0 -32 -11 -61t-31.5 -53.5t-48 -42.5t-60.5 -28q-1 -5 -1.5 -9.5t-0.5 -9.5q0 -8 12.5 -13.5t31.5 -12t42.5 -15t46 -20.5t41.5 -28.5t30 -40.5q8 -18 9 -43v-5zM156 327q0 -32 23.5 -53.5
t57.5 -21.5t57 21.5t23 53.5t-23 53.5t-57 21.5t-57.5 -21.5t-23.5 -53.5zM282 -109q48 4 65 18t11 30.5t-33 32t-68 23.5q-48 -20 -67.5 -41t-15 -37t32.5 -24t75 -2zM461 733q2 -4 2 -8.5v-9.5q0 -38 -15 -70.5t-40.5 -56.5t-60 -38t-73.5 -14q-38 0 -72 14t-59.5 38
t-40 56.5t-14.5 70.5v9.5t2 8.5h104q-2 -5 -2 -10.5v-10.5q0 -35 24 -60t58 -25q36 0 60.5 25t24.5 60v10.5t-2 10.5h104z" />
    <glyph glyph-name="Gdotaccent" unicode="&#x120;" horiz-adv-x="600" 
d="M588 74q-52 -35 -110.5 -53t-117 -20.5t-114.5 12t-103 46.5q-64 47 -97.5 123.5t-33.5 176.5q0 89 27.5 157.5t72.5 115.5t103.5 72.5t121 29t124 -14.5t113.5 -58l-115 -172q-30 38 -63 55.5t-64.5 16.5t-59 -18t-47 -47.5t-27.5 -73.5t-1 -95q8 -54 33 -90.5t58 -53.5
t69 -15t67 26l-3 81l-113 -18v153h280v-336v0zM388 844q0 -18 -7 -34.5t-19 -28.5t-28 -19t-34 -7q-37 0 -63 26t-26 63q0 18 7 34t19 28t28.5 19t34.5 7t34 -7t28 -19t19 -28t7 -34z" />
    <glyph glyph-name="gdotaccent" unicode="&#x121;" horiz-adv-x="551" 
d="M521 -53q0 -43 -22.5 -79.5t-60 -63t-85 -41.5t-98.5 -15q-67 0 -113.5 13.5t-75 36t-41.5 51.5t-13 60q0 22 10.5 45t29 42t44 31.5t55.5 14.5q-9 9 -12.5 21.5t-2.5 27t7 28.5t15 25q-64 17 -105 57.5t-41 103.5q0 56 23.5 99t60.5 72.5t83 45t92 15.5q57 0 101 -28
q29 16 66.5 28.5t82.5 23.5l18 -138q-25 2 -49 1t-44 -8q8 -20 11.5 -42t3.5 -45q0 -32 -11 -61t-31.5 -53.5t-48 -42.5t-60.5 -28q-1 -5 -1.5 -9.5t-0.5 -9.5q0 -8 12.5 -13.5t31.5 -12t42.5 -15t46 -20.5t41.5 -28.5t30 -40.5q8 -18 9 -43v-5zM156 327q0 -32 23.5 -53.5
t57.5 -21.5t57 21.5t23 53.5t-23 53.5t-57 21.5t-57.5 -21.5t-23.5 -53.5zM282 -109q48 4 65 18t11 30.5t-33 32t-68 23.5q-48 -20 -67.5 -41t-15 -37t32.5 -24t75 -2zM364 646q0 -18 -7 -34.5t-19 -28.5t-28 -19t-34 -7q-37 0 -63 26t-26 63q0 18 7 34t19 28t28.5 19
t34.5 7t34 -7t28 -19t19 -28t7 -34z" />
    <glyph glyph-name="uni0122" unicode="&#x122;" horiz-adv-x="600" 
d="M588 74q-52 -35 -110.5 -53t-117 -20.5t-114.5 12t-103 46.5q-64 47 -97.5 123.5t-33.5 176.5q0 89 27.5 157.5t72.5 115.5t103.5 72.5t121 29t124 -14.5t113.5 -58l-115 -172q-30 38 -63 55.5t-64.5 16.5t-59 -18t-47 -47.5t-27.5 -73.5t-1 -95q8 -54 33 -90.5t58 -53.5
t69 -15t67 26l-3 81l-113 -18v153h280v-336zM262 -69l113 46q24 -39 28 -74.5t-8.5 -68.5t-41 -63.5t-70.5 -58.5l-47 39q39 53 48.5 98t-22.5 82z" />
    <glyph glyph-name="uni0123" unicode="&#x123;" horiz-adv-x="551" 
d="M521 -48q-1 25 -9 43q-11 24 -30 40.5t-41.5 28.5t-46 20.5t-42.5 15t-31.5 12t-12.5 13.5q0 5 0.5 9.5t1.5 9.5q33 10 60.5 28t48 42.5t31.5 53.5t11 61q0 23 -3.5 45t-11.5 42q20 7 44 8t49 -1l-18 138q-45 -11 -82.5 -23.5t-66.5 -28.5q-44 28 -101 28
q-46 0 -92 -15.5t-83 -45t-60.5 -72.5t-23.5 -99q0 -63 41 -103.5t105 -57.5q-9 -11 -15 -25t-7 -28.5t2.5 -27t12.5 -21.5q-30 -2 -55.5 -14.5t-44 -31.5t-29 -42t-10.5 -45q0 -31 13 -60t41.5 -51.5t75 -36t113.5 -13.5q51 0 98.5 15t85 41.5t60 63t22.5 79.5v5zM156 327
q0 32 23.5 53.5t57.5 21.5t57 -21.5t23 -53.5t-23 -53.5t-57 -21.5t-57.5 21.5t-23.5 53.5zM282 -109q-47 -6 -75 2t-32.5 24t15 37t67.5 41q41 -8 68 -23.5t33 -32t-11 -30.5t-65 -18zM343 600l-114 -46q-48 77 -19.5 143t112.5 122l47 -39q-40 -52 -49 -97.5t23 -82.5z
" />
    <glyph glyph-name="Hcircumflex" unicode="&#x124;" horiz-adv-x="590" 
d="M406 733h172v-733h-160l-5 318l-222 -11l-5 -307h-164l-10 733h185l-4 -268l217 10l-4 258v0zM431 733l-137 55l-143 -55l-20 82l173 114l155 -111l-28 -85v0z" />
    <glyph glyph-name="hcircumflex" unicode="&#x125;" horiz-adv-x="482" 
d="M470 -1h-171l-6 312q1 27 -9.5 40.5t-27 16.5t-37 -4t-38.5 -22l-8 -343h-151l-10 802h179l-7 -325q40 39 87 53t88 -1t69 -61.5t30 -127.5zM519 597l-137 55l-143 -55l-20 82l173 114l155 -111l-28 -85v0z" />
    <glyph glyph-name="Hbar" unicode="&#x126;" horiz-adv-x="659" 
d="M427 733h172v-733h-160l-5 318l-222 -11l-5 -307h-164l-10 733h185l-4 -268l217 10l-4 258v0zM-83.6592 679.619h-257l10.3721 -115.998h246.628v115.998v0z" />
    <glyph glyph-name="hbar" unicode="&#x127;" horiz-adv-x="523" 
d="M511 -1h-171l-6 312q1 27 -9.5 40.5t-27 16.5t-37 -4t-38.5 -22l-8 -343h-151l-10 802h179l-7 -325q40 39 87 53t88 -1t69 -61.5t30 -127.5zM11.7041 733.332h276.001l-11.1396 -107.002h-264.861v107.002v0z" />
    <glyph glyph-name="Itilde" unicode="&#x128;" horiz-adv-x="192" 
d="M180 0h-168l1 733h167v-733v0zM-95 816q36 54 68 73.5t60 20.5t53.5 -9.5t49.5 -15.5t47.5 2t47.5 43l56 -73q-42 -56 -73.5 -75t-58 -18.5t-49 11.5t-45.5 16.5t-48 -4t-57 -50.5l-51 79v0z" />
    <glyph glyph-name="itilde" unicode="&#x129;" horiz-adv-x="218" 
d="M204 -1h-177v537h161l16 -537v0zM-82 618q36 54 68 73.5t60 20.5t53.5 -9.5t49.5 -15.5t47.5 2t47.5 43l56 -73q-42 -56 -73.5 -75t-58 -18.5t-49 11.5t-45.5 16.5t-48 -4t-57 -50.5l-51 79v0z" />
    <glyph glyph-name="Imacron" unicode="&#x12a;" horiz-adv-x="192" 
d="M180 0h-168l1 733h167v-733v0zM-15 931h223l-9 -98h-214v98v0z" />
    <glyph glyph-name="imacron" unicode="&#x12b;" horiz-adv-x="218" 
d="M204 -1h-177v537h161l16 -537v0zM-2 733h223l-9 -98h-214v98v0z" />
    <glyph glyph-name="Iogonek" unicode="&#x12e;" horiz-adv-x="192" 
d="M186 46q-34 -26 -53 -58.5t-19 -65.5t20.5 -64.5t65.5 -53.5l-106 -103q-49 28 -75.5 66.5t-28 84t23 97t77.5 106.5zM180 0h-168l1 733h167v-733z" />
    <glyph glyph-name="iogonek" unicode="&#x12f;" horiz-adv-x="218" 
d="M220 66q-34 -26 -53 -58.5t-19 -65.5t20.5 -64.5t65.5 -53.5l-106 -103q-49 28 -75.5 66.5t-28 84t23 97t77.5 106.5zM204 -1h-177v537h161zM201 672q-6 -21 -19 -36.5t-29.5 -25.5t-35.5 -12t-38 4t-33 18.5t-22.5 29.5t-10.5 37t4 40q6 21 19 36.5t29.5 25.5t35.5 12
t38 -4t33 -18.5t22.5 -29.5t10.5 -37t-4 -40z" />
    <glyph glyph-name="Idotaccent" unicode="&#x130;" horiz-adv-x="192" 
d="M180 0h-168l1 733h167v-733v0zM185 844q0 -18 -7 -34.5t-19 -28.5t-28 -19t-34 -7q-37 0 -63 26t-26 63q0 18 7 34t19 28t28.5 19t34.5 7t34 -7t28 -19t19 -28t7 -34z" />
    <glyph glyph-name="dotlessi" unicode="&#x131;" horiz-adv-x="218" 
d="M204 -1h-177v537h161l16 -537v0z" />
    <glyph glyph-name="Jcircumflex" unicode="&#x134;" horiz-adv-x="452" 
d="M256 733l184 -5l-9 -468q-1 -60 -21 -107t-53 -80.5t-76 -52.5t-89 -20t-92.5 15.5t-87.5 52.5l105 151q12 -31 35.5 -46.5t47.5 -13.5t42.5 24t19.5 66zM477 758l-137 55l-143 -55l-20 82l173 114l155 -111l-28 -85v0z" />
    <glyph glyph-name="jcircumflex" unicode="&#x135;" horiz-adv-x="399" 
d="M204 535h180v-473q0 -122 -32 -200.5t-84.5 -114t-119 -26.5t-136.5 63l70 162q12 -9 23.5 -20t25 -18.5t30 -9.5t37.5 7q13 6 19.5 41t9 87.5t0.5 118t-5.5 133.5t-8.5 133zM274 612l-143 -55l-20 82l173 114l155 -111l-28 -85z" />
    <glyph glyph-name="uni0136" unicode="&#x136;" horiz-adv-x="572" 
d="M392 -13l-216 293v-280h-164v733h164v-240l239 254l138 -102l-281 -246l288 -301zM194 -70l113 46q24 -39 28 -74.5t-8.5 -68.5t-41 -63.5t-70.5 -58.5l-47 39q39 53 48.5 98t-22.5 82z" />
    <glyph glyph-name="uni0137" unicode="&#x137;" horiz-adv-x="478" 
d="M167 202l-4 -201h-141l-10 792h166l-7 -416l189 168l97 -118l-186 -144l195 -201l-137 -105zM159 -70l113 46q24 -39 28 -74.5t-8.5 -68.5t-41 -63.5t-70.5 -58.5l-47 39q39 53 48.5 98t-22.5 82z" />
    <glyph glyph-name="Lacute" unicode="&#x139;" horiz-adv-x="413" 
d="M181 153l220 12l-17 -164h-203h-102h-67v732h184l-15 -580v0zM299 954l6 -144l-284 -49l-10 104l288 89v0z" />
    <glyph glyph-name="lacute" unicode="&#x13a;" horiz-adv-x="193" 
d="M181 0h-153l-16 793h169v-793v0zM294 1014l6 -144l-284 -49l-10 104l288 89v0z" />
    <glyph glyph-name="uni013B" unicode="&#x13b;" horiz-adv-x="413" 
d="M401 165l-17 -164h-203h-102h-67v732h184l-15 -580zM87 -69l113 46q24 -39 28 -74.5t-8.5 -68.5t-41 -63.5t-70.5 -58.5l-47 39q39 53 48.5 98t-22.5 82z" />
    <glyph glyph-name="uni013C" unicode="&#x13c;" horiz-adv-x="193" 
d="M181 0h-153l-16 793h169v-793zM36 -72l113 46q24 -39 28 -74.5t-8.5 -68.5t-41 -63.5t-70.5 -58.5l-47 39q39 53 48.5 98t-22.5 82z" />
    <glyph glyph-name="Lcaron" unicode="&#x13d;" horiz-adv-x="413" 
d="M181 153l220 12l-17 -164h-203h-102h-67v732h184l-15 -580v0zM250 845l113 46q24 -39 28 -74.5t-8.5 -68.5t-41 -63.5t-70.5 -58.5l-47 39q39 53 48.5 98t-22.5 82z" />
    <glyph glyph-name="lcaron" unicode="&#x13e;" horiz-adv-x="410" 
d="M181 0h-153l-16 793h169v-793v0zM243 688l113 46q24 -39 28 -74.5t-8.5 -68.5t-41 -63.5t-70.5 -58.5l-47 39q39 53 48.5 98t-22.5 82z" />
    <glyph glyph-name="Ldot" unicode="&#x13f;" horiz-adv-x="413" 
d="M181 153l220 12l-17 -164h-203h-102h-67v732h184l-15 -580v0zM394 446q0 -18 -7 -34.5t-19 -28.5t-28 -19t-34 -7q-37 0 -63 26t-26 63q0 18 7 34t19 28t28.5 19t34.5 7t34 -7t28 -19t19 -28t7 -34z" />
    <glyph glyph-name="ldot" unicode="&#x140;" horiz-adv-x="459" 
d="M181 0h-153l-16 793h169v-793v0zM439 448q0 -18 -7 -34.5t-19 -28.5t-28 -19t-34 -7q-37 0 -63 26t-26 63q0 18 7 34t19 28t28.5 19t34.5 7t34 -7t28 -19t19 -28t7 -34z" />
    <glyph glyph-name="Lslash" unicode="&#x141;" horiz-adv-x="540" 
d="M12 263l378 192l46 -90l-378 -192zM308 153l220 12l-17 -164h-203h-102h-67v732h184z" />
    <glyph glyph-name="lslash" unicode="&#x142;" horiz-adv-x="429" 
d="M0 281l374 193l55 -107l-374 -193zM286 0h-153l-16 793h169v-793v0z" />
    <glyph glyph-name="Nacute" unicode="&#x143;" horiz-adv-x="602" 
d="M428 733h162v-733h-144l-277 445l10 -445h-167v733h161l258 -398zM442 928l6 -144l-284 -49l-10 104l288 89v0z" />
    <glyph glyph-name="nacute" unicode="&#x144;" horiz-adv-x="482" 
d="M304 269q1 41 -10 64t-29 29.5t-42 -2.5t-49 -32l11 -327h-173v534h156l2 -75q47 43 98 63.5t93.5 10t70 -57.5t28.5 -138l10 -337h-166v268zM382 730l6 -144l-284 -49l-10 104l288 89v0z" />
    <glyph glyph-name="uni0145" unicode="&#x145;" horiz-adv-x="602" 
d="M428 733h162v-733h-144l-277 445l10 -445h-167v733h161l258 -398zM223 -70l113 46q24 -39 28 -74.5t-8.5 -68.5t-41 -63.5t-70.5 -58.5l-47 39q39 53 48.5 98t-22.5 82z" />
    <glyph glyph-name="uni0146" unicode="&#x146;" horiz-adv-x="482" 
d="M304 269q1 41 -10 64t-29 29.5t-42 -2.5t-49 -32l11 -327h-173v534h156l2 -75q47 43 98 63.5t93.5 10t70 -57.5t28.5 -138l10 -337h-166v268zM186 -72l113 46q24 -39 28 -74.5t-8.5 -68.5t-41 -63.5t-70.5 -58.5l-47 39q39 53 48.5 98t-22.5 82z" />
    <glyph glyph-name="Ncaron" unicode="&#x147;" horiz-adv-x="602" 
d="M428 733h162v-733h-144l-277 445l10 -445h-167v733h161l258 -398zM165 931l135 -55l142 55l21 -82l-173 -112l-152 110l27 84v0z" />
    <glyph glyph-name="ncaron" unicode="&#x148;" horiz-adv-x="482" 
d="M304 269q1 41 -10 64t-29 29.5t-42 -2.5t-49 -32l11 -327h-173v534h156l2 -75q47 43 98 63.5t93.5 10t70 -57.5t28.5 -138l10 -337h-166v268zM105 733l135 -55l142 55l21 -82l-173 -112l-152 110l27 84v0z" />
    <glyph glyph-name="napostrophe" unicode="&#x149;" horiz-adv-x="482" 
d="M304 269q1 41 -10 64t-29 29.5t-42 -2.5t-49 -32l11 -327h-173v534h156l2 -75q47 43 98 63.5t93.5 10t70 -57.5t28.5 -138l10 -337h-166v268zM173 790l143 69q63 -91 30 -172t-141 -153l-61 52q25 20 41 46.5t20.5 54.5t-3 55t-29.5 48z" />
    <glyph glyph-name="Omacron" unicode="&#x14c;" horiz-adv-x="641" 
d="M320 739q64 0 120.5 -29t98.5 -79.5t66 -118.5t24 -146t-24 -146t-66 -118.5t-98.5 -79.5t-120.5 -29t-120 29t-98 79.5t-66 118.5t-24 146t24 146t66 118.5t98 79.5t120 29zM342 135q30 2 55.5 21t43.5 50.5t27.5 73t7.5 87.5q-3 46 -17 86.5t-35.5 70t-49.5 45.5
t-59 14q-30 -2 -55.5 -21t-43.5 -50.5t-27.5 -73t-6.5 -87.5t16.5 -86t35.5 -69.5t50 -46t58 -14.5zM209 931h223l-9 -98h-214v98v0z" />
    <glyph glyph-name="omacron" unicode="&#x14d;" horiz-adv-x="446" 
d="M242 541q44 0 79.5 -21t60.5 -58t38.5 -86t13.5 -105t-17.5 -106t-47 -88t-69 -60t-83.5 -22t-81.5 22t-65 60t-43 88t-15.5 106t19.5 105t52 86t73.5 58t85 21zM254 146q16 3 28 16t19 32t8.5 42.5t-4.5 49.5q-5 25 -16.5 46t-26 35t-31 20.5t-32.5 2.5
q-17 -4 -29 -16.5t-19 -31.5t-8.5 -43t4.5 -49q6 -26 17.5 -46.5t25.5 -35t30.5 -20.5t33.5 -2zM111 733h223l-9 -98h-214v98v0z" />
    <glyph glyph-name="Obreve" unicode="&#x14e;" horiz-adv-x="641" 
d="M320 739q64 0 120.5 -29t98.5 -79.5t66 -118.5t24 -146t-24 -146t-66 -118.5t-98.5 -79.5t-120.5 -29t-120 29t-98 79.5t-66 118.5t-24 146t24 146t66 118.5t98 79.5t120 29zM342 135q30 2 55.5 21t43.5 50.5t27.5 73t7.5 87.5q-3 46 -17 86.5t-35.5 70t-49.5 45.5
t-59 14q-30 -2 -55.5 -21t-43.5 -50.5t-27.5 -73t-6.5 -87.5t16.5 -86t35.5 -69.5t50 -46t58 -14.5zM485 962q2 -4 2 -8.5v-9.5q0 -38 -15 -70.5t-40.5 -56.5t-60 -38t-73.5 -14q-38 0 -72 14t-59.5 38t-40 56.5t-14.5 70.5v9.5t2 8.5h104q-2 -5 -2 -10.5v-10.5
q0 -35 24 -60t58 -25q36 0 60.5 25t24.5 60v10.5t-2 10.5h104z" />
    <glyph glyph-name="obreve" unicode="&#x14f;" horiz-adv-x="446" 
d="M242 541q44 0 79.5 -21t60.5 -58t38.5 -86t13.5 -105t-17.5 -106t-47 -88t-69 -60t-83.5 -22t-81.5 22t-65 60t-43 88t-15.5 106t19.5 105t52 86t73.5 58t85 21zM254 146q16 3 28 16t19 32t8.5 42.5t-4.5 49.5q-5 25 -16.5 46t-26 35t-31 20.5t-32.5 2.5
q-17 -4 -29 -16.5t-19 -31.5t-8.5 -43t4.5 -49q6 -26 17.5 -46.5t25.5 -35t30.5 -20.5t33.5 -2zM400 772q2 -4 2 -8.5v-9.5q0 -38 -15 -70.5t-40.5 -56.5t-60 -38t-73.5 -14q-38 0 -72 14t-59.5 38t-40 56.5t-14.5 70.5v9.5t2 8.5h104q-2 -5 -2 -10.5v-10.5q0 -35 24 -60
t58 -25q36 0 60.5 25t24.5 60v10.5t-2 10.5h104z" />
    <glyph glyph-name="OE" unicode="&#x152;" horiz-adv-x="776" 
d="M748 151l16 -150h-246h-97h-30q-17 -5 -34.5 -7.5t-35.5 -2.5q-64 0 -120.5 29.5t-98.5 80t-66 118.5t-24 145q0 78 24 146t66 118.5t98.5 79.5t120.5 29q25 0 45 -4h26h142h230l-16 -142h-217l-3 -142h189v-139h-192l-3 -159h226zM182 349q3 -46 16.5 -86t35 -69
t49 -45.5t57.5 -15.5l-8 448q-4 0 -8 0.5t-8 -0.5q-30 -2 -55.5 -21t-44 -50.5t-28 -73t-6.5 -87.5z" />
    <glyph glyph-name="oe" unicode="&#x153;" horiz-adv-x="692" 
d="M680 106q-42 -42 -89.5 -67t-94.5 -34t-90.5 -1t-77.5 33q-53 -42 -112 -42q-44 0 -81 22t-64.5 59.5t-43 87.5t-15.5 106q0 55 19.5 104t52 85.5t73.5 57.5t85 21q70 0 118 -53q32 24 68 36t70 12q40 0 71 -16t52.5 -41.5t33 -58t13 -66t-8 -65t-29.5 -54.5l-258 -19
q-1 -39 22 -60.5t57.5 -23t73 18t68.5 62.5zM469 419q-22 0 -40.5 -11t-31 -26.5t-19.5 -34.5t-7 -36l166 13q-1 16 -4.5 32.5t-11.5 30.5t-21 23t-31 9zM147 249q6 -25 17 -46t25.5 -35t31 -20.5t32.5 -3.5v1q-6 21 -9.5 45t-3.5 51q0 35 6 65.5t17 56.5q-14 16 -30.5 23
t-33.5 3t-29 -17t-19 -32t-8.5 -42.5t4.5 -48.5z" />
    <glyph glyph-name="Racute" unicode="&#x154;" horiz-adv-x="544" 
d="M352 -1l-145 260q-13 0 -28 3v-263h-167l6 734h161h80q70 0 116.5 -23.5t72.5 -61.5t32 -85t-5.5 -95t-39 -91t-69.5 -73l166 -209zM179 400q22 -7 46.5 -4.5t45.5 15.5t34.5 36.5t13.5 57.5q0 33 -12.5 57t-33 36.5t-45.5 13.5t-49 -12v-200zM413 928l6 -144l-284 -49
l-10 104l288 89v0z" />
    <glyph glyph-name="racute" unicode="&#x155;" horiz-adv-x="459" 
d="M177 454q14 33 44 55t67.5 31t79 5.5t79.5 -20.5l-57 -196q-25 17 -52.5 23.5t-54.5 2t-52 -20t-44 -41.5l11 -294h-186v537h165v-82v0zM370 730l6 -144l-284 -49l-10 104l288 89v0z" />
    <glyph glyph-name="uni0156" unicode="&#x156;" horiz-adv-x="544" 
d="M352 -1l-145 260q-13 0 -28 3v-263h-167l6 734h161h80q70 0 116.5 -23.5t72.5 -61.5t32 -85t-5.5 -95t-39 -91t-69.5 -73l166 -209zM179 400q22 -7 46.5 -4.5t45.5 15.5t34.5 36.5t13.5 57.5q0 33 -12.5 57t-33 36.5t-45.5 13.5t-49 -12v-200zM190 -69l113 46
q24 -39 28 -74.5t-8.5 -68.5t-41 -63.5t-70.5 -58.5l-47 39q39 53 48.5 98t-22.5 82z" />
    <glyph glyph-name="uni0157" unicode="&#x157;" horiz-adv-x="459" 
d="M177 454q14 33 44 55t67.5 31t79 5.5t79.5 -20.5l-57 -196q-25 17 -52.5 23.5t-54.5 2t-52 -20t-44 -41.5l11 -294h-186v537h165v-82zM52 -69l113 46q24 -39 28 -74.5t-8.5 -68.5t-41 -63.5t-70.5 -58.5l-47 39q39 53 48.5 98t-22.5 82z" />
    <glyph glyph-name="Rcaron" unicode="&#x158;" horiz-adv-x="544" 
d="M352 -1l-145 260q-13 0 -28 3v-263h-167l6 734h161h80q70 0 116.5 -23.5t72.5 -61.5t32 -85t-5.5 -95t-39 -91t-69.5 -73l166 -209zM179 400q22 -7 46.5 -4.5t45.5 15.5t34.5 36.5t13.5 57.5q0 33 -12.5 57t-33 36.5t-45.5 13.5t-49 -12v-200zM136 931l135 -55l142 55
l21 -82l-173 -112l-152 110l27 84v0z" />
    <glyph glyph-name="rcaron" unicode="&#x159;" horiz-adv-x="459" 
d="M177 454q14 33 44 55t67.5 31t79 5.5t79.5 -20.5l-57 -196q-25 17 -52.5 23.5t-54.5 2t-52 -20t-44 -41.5l11 -294h-186v537h165v-82v0zM94 733l135 -55l142 55l21 -82l-173 -112l-152 110l27 84v0z" />
    <glyph glyph-name="Sacute" unicode="&#x15a;" horiz-adv-x="551" 
d="M440 513q-27 22 -59 36t-61 18t-52.5 -3.5t-32.5 -29.5q-6 -16 6 -28t35.5 -24t54.5 -24.5t63.5 -29.5t62.5 -39.5t50.5 -53.5t28 -73t-4.5 -97q-15 -53 -50 -89t-81.5 -55.5t-100.5 -23t-106.5 8t-100 38t-80.5 66.5l117 141q18 -20 41.5 -37t49.5 -30t51.5 -20t47 -7
t36 8.5t19.5 27.5q4 26 -20 43.5t-62 33t-82 34t-80 47t-56.5 71t-10.5 106.5q7 45 33 83.5t64 66.5t85.5 44t97.5 16.5t100 -16t94 -53.5l-97 -156v0zM416 928l6 -144l-284 -49l-10 104l288 89v0z" />
    <glyph glyph-name="sacute" unicode="&#x15b;" horiz-adv-x="436" 
d="M344 354q-14 16 -36 30.5t-44.5 22.5t-41.5 6t-28 -19q-5 -12 13.5 -22t47.5 -22t62 -30t57 -46t31.5 -69.5t-13.5 -101.5q-14 -36 -42 -60t-63 -36t-74 -12t-76.5 12t-70 35t-54.5 58l101 119q11 -29 34.5 -49t48.5 -29.5t46.5 -7.5t29.5 19q6 11 -10 20t-42 20.5
t-57 27.5t-56.5 40t-39.5 59t-5 85q10 51 47.5 84t89.5 46t111.5 5t113.5 -39l-80 -146v0zM359 730l6 -144l-284 -49l-10 104l288 89v0z" />
    <glyph glyph-name="Scircumflex" unicode="&#x15c;" horiz-adv-x="551" 
d="M440 513q-27 22 -59 36t-61 18t-52.5 -3.5t-32.5 -29.5q-6 -16 6 -28t35.5 -24t54.5 -24.5t63.5 -29.5t62.5 -39.5t50.5 -53.5t28 -73t-4.5 -97q-15 -53 -50 -89t-81.5 -55.5t-100.5 -23t-106.5 8t-100 38t-80.5 66.5l117 141q18 -20 41.5 -37t49.5 -30t51.5 -20t47 -7
t36 8.5t19.5 27.5q4 26 -20 43.5t-62 33t-82 34t-80 47t-56.5 71t-10.5 106.5q7 45 33 83.5t64 66.5t85.5 44t97.5 16.5t100 -16t94 -53.5l-97 -156v0zM411 733l-137 55l-143 -55l-20 82l173 114l155 -111l-28 -85v0z" />
    <glyph glyph-name="scircumflex" unicode="&#x15d;" horiz-adv-x="436" 
d="M344 354q-14 16 -36 30.5t-44.5 22.5t-41.5 6t-28 -19q-5 -12 13.5 -22t47.5 -22t62 -30t57 -46t31.5 -69.5t-13.5 -101.5q-14 -36 -42 -60t-63 -36t-74 -12t-76.5 12t-70 35t-54.5 58l101 119q11 -29 34.5 -49t48.5 -29.5t46.5 -7.5t29.5 19q6 11 -10 20t-42 20.5
t-57 27.5t-56.5 40t-39.5 59t-5 85q10 51 47.5 84t89.5 46t111.5 5t113.5 -39l-80 -146v0zM354 535l-137 55l-143 -55l-20 82l173 114l155 -111l-28 -85v0z" />
    <glyph glyph-name="Scedilla" unicode="&#x15e;" horiz-adv-x="551" 
d="M440 513q-27 22 -59 36t-61 18t-52.5 -3.5t-32.5 -29.5q-6 -16 6 -28t35.5 -24t54.5 -24.5t63.5 -29.5t62.5 -39.5t50.5 -53.5t28 -73t-4.5 -97q-15 -53 -50 -89t-81.5 -55.5t-100.5 -23t-106.5 8t-100 38t-80.5 66.5l117 141q18 -20 41.5 -37t49.5 -30t51.5 -20t47 -7
t36 8.5t19.5 27.5q4 26 -20 43.5t-62 33t-82 34t-80 47t-56.5 71t-10.5 106.5q7 45 33 83.5t64 66.5t85.5 44t97.5 16.5t100 -16t94 -53.5l-97 -156v0zM340 -28q44 -4 69 -20t33.5 -39t1 -50t-29.5 -53t-57 -49t-81 -37l-67 104q38 -5 64.5 6t33.5 27t-9 31.5t-62 19.5
l30 147h101l-29 -87h2v0z" />
    <glyph glyph-name="scedilla" unicode="&#x15f;" horiz-adv-x="436" 
d="M344 354q-14 16 -36 30.5t-44.5 22.5t-41.5 6t-28 -19q-5 -12 13.5 -22t47.5 -22t62 -30t57 -46t31.5 -69.5t-13.5 -101.5q-14 -36 -42 -60t-63 -36t-74 -12t-76.5 12t-70 35t-54.5 58l101 119q11 -29 34.5 -49t48.5 -29.5t46.5 -7.5t29.5 19q6 11 -10 20t-42 20.5
t-57 27.5t-56.5 40t-39.5 59t-5 85q10 51 47.5 84t89.5 46t111.5 5t113.5 -39l-80 -146v0zM263 -24q44 -4 69 -20t33.5 -39t1 -50t-29.5 -53t-57 -49t-81 -37l-67 104q38 -5 64.5 6t33.5 27t-9 31.5t-62 19.5l30 147h101l-29 -87h2v0z" />
    <glyph glyph-name="Scaron" unicode="&#x160;" horiz-adv-x="551" 
d="M440 513q-27 22 -59 36t-61 18t-52.5 -3.5t-32.5 -29.5q-6 -16 6 -28t35.5 -24t54.5 -24.5t63.5 -29.5t62.5 -39.5t50.5 -53.5t28 -73t-4.5 -97q-15 -53 -50 -89t-81.5 -55.5t-100.5 -23t-106.5 8t-100 38t-80.5 66.5l117 141q18 -20 41.5 -37t49.5 -30t51.5 -20t47 -7
t36 8.5t19.5 27.5q4 26 -20 43.5t-62 33t-82 34t-80 47t-56.5 71t-10.5 106.5q7 45 33 83.5t64 66.5t85.5 44t97.5 16.5t100 -16t94 -53.5l-97 -156v0zM140 931l135 -55l142 55l21 -82l-173 -112l-152 110l27 84v0z" />
    <glyph glyph-name="scaron" unicode="&#x161;" horiz-adv-x="436" 
d="M344 354q-14 16 -36 30.5t-44.5 22.5t-41.5 6t-28 -19q-5 -12 13.5 -22t47.5 -22t62 -30t57 -46t31.5 -69.5t-13.5 -101.5q-14 -36 -42 -60t-63 -36t-74 -12t-76.5 12t-70 35t-54.5 58l101 119q11 -29 34.5 -49t48.5 -29.5t46.5 -7.5t29.5 19q6 11 -10 20t-42 20.5
t-57 27.5t-56.5 40t-39.5 59t-5 85q10 51 47.5 84t89.5 46t111.5 5t113.5 -39l-80 -146v0zM82 733l135 -55l142 55l21 -82l-173 -112l-152 110l27 84v0z" />
    <glyph glyph-name="uni0162" unicode="&#x162;" horiz-adv-x="550" 
d="M519 580h-180l8 -581h-178l10 581h-167v153h526zM283 -40q44 -4 69 -20t33.5 -39t1 -50t-29.5 -53t-57 -49t-81 -37l-67 104q38 -5 64.5 6t33.5 27t-9 31.5t-62 19.5l30 147h101l-29 -87h2z" />
    <glyph glyph-name="uni0163" unicode="&#x163;" horiz-adv-x="405" 
d="M393 53q-54 -37 -105.5 -49.5t-92 0.5t-65 51.5t-24.5 103.5v256h-94l31 121h63v99l165 7l-4 -106h117l-34 -121h-88l-7 -187q-1 -37 6 -56t19.5 -24t30 2.5t36.5 23.5zM268 -38q44 -4 69 -20t33.5 -39t1 -50t-29.5 -53t-57 -49t-81 -37l-67 104q38 -5 64.5 6t33.5 27
t-9 31.5t-62 19.5l30 147h101l-29 -87h2z" />
    <glyph glyph-name="Tcaron" unicode="&#x164;" horiz-adv-x="550" 
d="M538 733l-19 -153h-180l8 -581h-178l10 581h-167v153h526v0zM139 931l135 -55l142 55l21 -82l-173 -112l-152 110l27 84v0z" />
    <glyph glyph-name="tcaron" unicode="&#x165;" horiz-adv-x="778" 
d="M393 53q-54 -37 -105.5 -49.5t-92 0.5t-65 51.5t-24.5 103.5v256h-94l31 121h63v99l165 7l-4 -106h117l-34 -121h-88l-7 -187q-1 -37 6 -56t19.5 -24t30 2.5t36.5 23.5zM456 733l135 -55l142 55l21 -82l-173 -112l-152 110l27 84v0z" />
    <glyph glyph-name="Tbar" unicode="&#x166;" horiz-adv-x="550" 
d="M538 733l-19 -153h-180l8 -581h-178l10 581h-167v153h526v0zM50.6777 469.549h443.006l-17.8789 -119.999h-425.127v119.999v0z" />
    <glyph glyph-name="tbar" unicode="&#x167;" horiz-adv-x="405" 
d="M393 53q-54 -37 -105.5 -49.5t-92 0.5t-65 51.5t-24.5 103.5v256h-94l31 121h63v99l165 7l-4 -106h117l-34 -121h-88l-7 -187q-1 -37 6 -56t19.5 -24t30 2.5t36.5 23.5zM31.5781 353.803h312.002l-12.5918 -108h-299.41v108v0z" />
    <glyph glyph-name="Utilde" unicode="&#x168;" horiz-adv-x="591" 
d="M12 733h189v-432q-1 -46 13 -76t36.5 -45t48.5 -15.5t48.5 15t37 45.5t14.5 76v431l180 1l-14 -492q-6 -58 -31.5 -103t-63 -76t-83.5 -47t-94 -16q-56 0 -103.5 19.5t-82 55t-54.5 85t-23 110.5zM104 816q36 54 68 73.5t60 20.5t53.5 -9.5t49.5 -15.5t47.5 2t47.5 43
l56 -73q-41 -56 -73 -75t-58.5 -18.5t-49 11.5t-45.5 16.5t-48 -4t-57 -50.5l-51 79v0z" />
    <glyph glyph-name="utilde" unicode="&#x169;" horiz-adv-x="504" 
d="M442 172q9 -70 50 -108l-132 -65q-20 13 -33.5 30.5t-18.5 42.5q-46 -40 -93 -58.5t-86 -13t-66 35t-32 85.5l-19 415h167l-1 -280q-1 -40 9.5 -60.5t28.5 -26t40.5 2t45.5 25.5l-13 339h159l-6 -364v0zM61 618q36 54 68 73.5t60 20.5t53.5 -9.5t49.5 -15.5t47.5 2
t47.5 43l56 -73q-42 -56 -73.5 -75t-58 -18.5t-49 11.5t-45.5 16.5t-48 -4t-57 -50.5l-51 79v0z" />
    <glyph glyph-name="Umacron" unicode="&#x16a;" horiz-adv-x="591" 
d="M12 733h189v-432q-1 -46 13 -76t36.5 -45t48.5 -15.5t48.5 15t37 45.5t14.5 76v431l180 1l-14 -492q-6 -58 -31.5 -103t-63 -76t-83.5 -47t-94 -16q-56 0 -103.5 19.5t-82 55t-54.5 85t-23 110.5zM184 931h223l-9 -98h-214v98v0z" />
    <glyph glyph-name="umacron" unicode="&#x16b;" horiz-adv-x="504" 
d="M442 172q9 -70 50 -108l-132 -65q-20 13 -33.5 30.5t-18.5 42.5q-46 -40 -93 -58.5t-86 -13t-66 35t-32 85.5l-19 415h167l-1 -280q-1 -40 9.5 -60.5t28.5 -26t40.5 2t45.5 25.5l-13 339h159l-6 -364v0zM140 733h223l-9 -98h-214v98v0z" />
    <glyph glyph-name="Ubreve" unicode="&#x16c;" horiz-adv-x="591" 
d="M12 733h189v-432q-1 -46 13 -76t36.5 -45t48.5 -15.5t48.5 15t37 45.5t14.5 76v431l180 1l-14 -492q-6 -58 -31.5 -103t-63 -76t-83.5 -47t-94 -16q-56 0 -103.5 19.5t-82 55t-54.5 85t-23 110.5zM479 952q2 -4 2 -8.5v-9.5q0 -38 -15 -70.5t-40.5 -56.5t-60 -38
t-73.5 -14q-38 0 -72 14t-59.5 38t-40 56.5t-14.5 70.5v9.5t2 8.5h104q-2 -5 -2 -10.5v-10.5q0 -35 24 -60t58 -25q36 0 60.5 25t24.5 60v10.5t-2 10.5h104z" />
    <glyph glyph-name="ubreve" unicode="&#x16d;" horiz-adv-x="504" 
d="M442 172q9 -70 50 -108l-132 -65q-20 13 -33.5 30.5t-18.5 42.5q-46 -40 -93 -58.5t-86 -13t-66 35t-32 85.5l-19 415h167l-1 -280q-1 -40 9.5 -60.5t28.5 -26t40.5 2t45.5 25.5l-13 339h159l-6 -364v0zM433 762q2 -4 2 -8.5v-9.5q0 -38 -15 -70.5t-40.5 -56.5t-60 -38
t-73.5 -14q-38 0 -72 14t-59.5 38t-40 56.5t-14.5 70.5v9.5t2 8.5h104q-2 -5 -2 -10.5v-10.5q0 -35 24 -60t58 -25q36 0 60.5 25t24.5 60v10.5t-2 10.5h104z" />
    <glyph glyph-name="Uring" unicode="&#x16e;" horiz-adv-x="591" 
d="M12 733h189v-432q-1 -46 13 -76t36.5 -45t48.5 -15.5t48.5 15t37 45.5t14.5 76v431l180 1l-14 -492q-6 -58 -31.5 -103t-63 -76t-83.5 -47t-94 -16q-56 0 -103.5 19.5t-82 55t-54.5 85t-23 110.5zM297 1018q28 0 53 -10.5t44 -28t29.5 -41.5t10.5 -51t-10.5 -51
t-29.5 -41.5t-44 -28t-53 -10.5q-29 0 -53.5 10.5t-43 28t-29 41.5t-10.5 51t10.5 51t29 41.5t43 28t53.5 10.5zM297 824q26 0 44 17.5t18 43.5t-18 43.5t-44 17.5q-25 0 -43.5 -17.5t-18.5 -43.5t18.5 -43.5t43.5 -17.5z" />
    <glyph glyph-name="uring" unicode="&#x16f;" horiz-adv-x="504" 
d="M442 172q9 -70 50 -108l-132 -65q-20 13 -33.5 30.5t-18.5 42.5q-46 -40 -93 -58.5t-86 -13t-66 35t-32 85.5l-19 415h167l-1 -280q-1 -40 9.5 -60.5t28.5 -26t40.5 2t45.5 25.5l-13 339h159l-6 -364v0zM251 825q28 0 53 -10.5t44 -28t29.5 -41.5t10.5 -51t-10.5 -51
t-29.5 -41.5t-44 -28t-53 -10.5q-29 0 -53.5 10.5t-43 28t-29 41.5t-10.5 51t10.5 51t29 41.5t43 28t53.5 10.5zM251 631q26 0 44 17.5t18 43.5t-18 43.5t-44 17.5q-25 0 -43.5 -17.5t-18.5 -43.5t18.5 -43.5t43.5 -17.5z" />
    <glyph glyph-name="Uogonek" unicode="&#x172;" horiz-adv-x="591" 
d="M401 37q-34 -26 -53 -58.5t-19 -65.5t20.5 -64.5t65.5 -53.5l-106 -103q-49 28 -75.5 66.5t-28 84t23 97t77.5 106.5zM12 733h189v-432q-1 -46 13 -76t36.5 -45t48.5 -15.5t48.5 15t37 45.5t14.5 76v431l180 1l-14 -492q-6 -58 -31.5 -103t-63 -76t-83.5 -47t-94 -16
q-56 0 -103.5 19.5t-82 55t-54.5 85t-23 110.5z" />
    <glyph glyph-name="uogonek" unicode="&#x173;" horiz-adv-x="504" 
d="M301 68q-34 -26 -53 -58.5t-19 -65.5t20.5 -64.5t65.5 -53.5l-106 -103q-49 28 -75.5 66.5t-28 84t23 97t77.5 106.5zM442 172q9 -70 50 -108l-132 -65q-20 13 -33.5 30.5t-18.5 42.5q-46 -40 -93 -58.5t-86 -13t-66 35t-32 85.5l-19 415h167l-1 -280q-1 -40 9.5 -60.5
t28.5 -26t40.5 2t45.5 25.5l-13 339h159z" />
    <glyph glyph-name="Wcircumflex" unicode="&#x174;" horiz-adv-x="990" 
d="M797 733l181 1l-175 -734h-203l-105 401l-104 -401h-204l-175 734l180 -1l107 -500l113 500h167l112 -495l106 495v0zM631 733l-137 55l-143 -55l-20 82l173 114l155 -111l-28 -85v0z" />
    <glyph glyph-name="wcircumflex" unicode="&#x175;" horiz-adv-x="774" 
d="M596 535h166l-148 -534h-179l-50 189l-52 -189h-179l-142 535h166l68 -345l69 345h145l68 -345l68 344v0zM523 535l-137 55l-143 -55l-20 82l173 114l155 -111l-28 -85v0z" />
    <glyph glyph-name="Ycircumflex" unicode="&#x176;" horiz-adv-x="659" 
d="M647 733l-236 -479l12 -254h-185l13 248l-239 485h199l118 -273l119 273h199v0zM465 733l-137 55l-143 -55l-20 82l173 114l155 -111l-28 -85v0z" />
    <glyph glyph-name="ycircumflex" unicode="&#x177;" horiz-adv-x="552" 
d="M369 535h171l-291 -759l-158 34l71 185l23 62l-173 478h174l84 -257l99 257v0zM412 535l-137 55l-143 -55l-20 82l173 114l155 -111l-28 -85v0z" />
    <glyph glyph-name="Ydieresis" unicode="&#x178;" horiz-adv-x="659" 
d="M647 733l-236 -479l12 -254h-185l13 248l-239 485h199l118 -273l119 273h199v0zM301 844q0 -18 -7 -34.5t-19 -28.5t-28 -19t-34 -7q-37 0 -63 26t-26 63q0 18 7 34t19 28t28.5 19t34.5 7t34 -7t28 -19t19 -28t7 -34zM534 844q0 -18 -7 -34.5t-19 -28.5t-28 -19t-34 -7
q-37 0 -63 26t-26 63q0 18 7 34t19 28t28.5 19t34.5 7t34 -7t28 -19t19 -28t7 -34z" />
    <glyph glyph-name="Zacute" unicode="&#x179;" horiz-adv-x="611" 
d="M276 163l323 5l-25 -169h-529v142l332 431h-365l33 161h537v-136l-306 -434v0zM446 928l6 -144l-284 -49l-10 104l288 89v0z" />
    <glyph glyph-name="zacute" unicode="&#x17a;" horiz-adv-x="424" 
d="M192 146l220 3l-32 -148h-365l6 126l182 262h-191l24 147h365l-29 -133l-180 -257v0zM353 730l6 -144l-284 -49l-10 104l288 89v0z" />
    <glyph glyph-name="Zdotaccent" unicode="&#x17b;" horiz-adv-x="611" 
d="M276 163l323 5l-25 -169h-529v142l332 431h-365l33 161h537v-136l-306 -434v0zM394 844q0 -18 -7 -34.5t-19 -28.5t-28 -19t-34 -7q-37 0 -63 26t-26 63q0 18 7 34t19 28t28.5 19t34.5 7t34 -7t28 -19t19 -28t7 -34z" />
    <glyph glyph-name="zdotaccent" unicode="&#x17c;" horiz-adv-x="424" 
d="M192 146l220 3l-32 -148h-365l6 126l182 262h-191l24 147h365l-29 -133l-180 -257v0zM300 646q0 -18 -7 -34.5t-19 -28.5t-28 -19t-34 -7q-37 0 -63 26t-26 63q0 18 7 34t19 28t28.5 19t34.5 7t34 -7t28 -19t19 -28t7 -34z" />
    <glyph glyph-name="Zcaron" unicode="&#x17d;" horiz-adv-x="611" 
d="M276 163l323 5l-25 -169h-529v142l332 431h-365l33 161h537v-136l-306 -434v0zM170 931l135 -55l142 55l21 -82l-173 -112l-152 110l27 84v0z" />
    <glyph glyph-name="zcaron" unicode="&#x17e;" horiz-adv-x="424" 
d="M192 146l220 3l-32 -148h-365l6 126l182 262h-191l24 147h365l-29 -133l-180 -257v0zM76 733l135 -55l142 55l21 -82l-173 -112l-152 110l27 84v0z" />
    <glyph glyph-name="uni0218" unicode="&#x218;" horiz-adv-x="551" 
d="M440 513q-27 22 -59 36t-61 18t-52.5 -3.5t-32.5 -29.5q-6 -16 6 -28t35.5 -24t54.5 -24.5t63.5 -29.5t62.5 -39.5t50.5 -53.5t28 -73t-4.5 -97q-15 -53 -50 -89t-81.5 -55.5t-100.5 -23t-106.5 8t-100 38t-80.5 66.5l117 141q18 -20 41.5 -37t49.5 -30t51.5 -20t47 -7
t36 8.5t19.5 27.5q4 26 -20 43.5t-62 33t-82 34t-80 47t-56.5 71t-10.5 106.5q7 45 33 83.5t64 66.5t85.5 44t97.5 16.5t100 -16t94 -53.5zM277 -71l113 46q24 -39 28 -74.5t-8.5 -68.5t-41 -63.5t-70.5 -58.5l-47 39q39 53 48.5 98t-22.5 82z" />
    <glyph glyph-name="uni0219" unicode="&#x219;" horiz-adv-x="436" 
d="M344 354q-14 16 -36 30.5t-44.5 22.5t-41.5 6t-28 -19q-5 -12 13.5 -22t47.5 -22t62 -30t57 -46t31.5 -69.5t-13.5 -101.5q-14 -36 -42 -60t-63 -36t-74 -12t-76.5 12t-70 35t-54.5 58l101 119q11 -29 34.5 -49t48.5 -29.5t46.5 -7.5t29.5 19q6 11 -10 20t-42 20.5
t-57 27.5t-56.5 40t-39.5 59t-5 85q10 51 47.5 84t89.5 46t111.5 5t113.5 -39zM164 -72l113 46q24 -39 28 -74.5t-8.5 -68.5t-41 -63.5t-70.5 -58.5l-47 39q39 53 48.5 98t-22.5 82z" />
    <glyph glyph-name="uni021A" unicode="&#x21a;" horiz-adv-x="550" 
d="M188 -69l113 46q24 -39 28 -74.5t-8.5 -68.5t-41 -63.5t-70.5 -58.5l-47 39q39 53 48.5 98t-22.5 82zM519 580h-180l8 -581h-178l10 581h-167v153h526z" />
    <glyph glyph-name="uni021B" unicode="&#x21b;" horiz-adv-x="405" 
d="M393 53q-54 -37 -105.5 -49.5t-92 0.5t-65 51.5t-24.5 103.5v256h-94l31 121h63v99l165 7l-4 -106h117l-34 -121h-88l-7 -187q-1 -37 6 -56t19.5 -24t30 2.5t36.5 23.5zM160.266 -79.7588l118.422 56.2607q52.1719 -74.1992 24.8438 -140.243
q-27.3281 -66.0449 -116.766 -124.752l-50.5156 42.3994q20.7031 16.3076 33.9531 37.9141q13.25 21.6074 16.9766 44.4385q3.72656 22.8301 -2.48438 44.8447t-24.4297 39.1377z" />
    <glyph glyph-name="circumflex" unicode="&#x2c6;" horiz-adv-x="376" 
d="M324 535l-137 55l-143 -55l-20 82l173 114l155 -111l-28 -85v0z" />
    <glyph glyph-name="caron" unicode="&#x2c7;" horiz-adv-x="373" 
d="M51 733l135 -55l142 55l21 -82l-173 -112l-152 110l27 84v0z" />
    <glyph glyph-name="uni02C9" unicode="&#x2c9;" horiz-adv-x="271" 
d="M24 733h223l-9 -98h-214v98v0z" />
    <glyph glyph-name="breve" unicode="&#x2d8;" horiz-adv-x="423" 
d="M397 733q2 -4 2 -8.5v-9.5q0 -38 -15 -70.5t-40.5 -56.5t-60 -38t-73.5 -14q-38 0 -72 14t-59.5 38t-40 56.5t-14.5 70.5v9.5t2 8.5h104q-2 -5 -2 -10.5v-10.5q0 -35 24 -60t58 -25q36 0 60.5 25t24.5 60v10.5t-2 10.5h104z" />
    <glyph glyph-name="dotaccent" unicode="&#x2d9;" horiz-adv-x="225" 
d="M201 646q0 -18 -7 -34.5t-19 -28.5t-28 -19t-34 -7q-37 0 -63 26t-26 63q0 18 7 34t19 28t28.5 19t34.5 7t34 -7t28 -19t19 -28t7 -34z" />
    <glyph glyph-name="ring" unicode="&#x2da;" horiz-adv-x="321" 
d="M160 732q28 0 53 -10.5t44 -28t29.5 -41.5t10.5 -51t-10.5 -51t-29.5 -41.5t-44 -28t-53 -10.5q-29 0 -53.5 10.5t-43 28t-29 41.5t-10.5 51t10.5 51t29 41.5t43 28t53.5 10.5zM160 538q26 0 44 17.5t18 43.5t-18 43.5t-44 17.5q-25 0 -43.5 -17.5t-18.5 -43.5
t18.5 -43.5t43.5 -17.5z" />
    <glyph glyph-name="ogonek" unicode="&#x2db;" horiz-adv-x="258" 
d="M220 66q-34 -26 -53 -58.5t-19 -65.5t20.5 -64.5t65.5 -53.5l-106 -103q-49 28 -75.5 66.5t-28 84t23 97t77.5 106.5z" />
    <glyph glyph-name="tilde" unicode="&#x2dc;" horiz-adv-x="430" 
d="M24 618q36 54 68 73.5t60 20.5t53.5 -9.5t49.5 -15.5t47.5 2t47.5 43l56 -73q-42 -56 -73.5 -75t-58 -18.5t-49 11.5t-45.5 16.5t-48 -4t-57 -50.5l-51 79v0z" />
    <glyph glyph-name="hungarumlaut" unicode="&#x2dd;" horiz-adv-x="684" 
d="M312 730l6 -144l-284 -49l-10 104l288 89v0zM654 730l6 -144l-284 -49l-10 104l288 89v0z" />
    <glyph glyph-name="Wgrave" unicode="&#x1e80;" horiz-adv-x="990" 
d="M797 733l181 1l-175 -734h-203l-105 401l-104 -401h-204l-175 734l180 -1l107 -500l113 500h167l112 -495l106 495v0zM349 934l299 -93l-12 -108l-294 51l7 150v0z" />
    <glyph glyph-name="wgrave" unicode="&#x1e81;" horiz-adv-x="774" 
d="M596 535h166l-148 -534h-179l-50 189l-52 -189h-179l-142 535h166l68 -345l69 345h145l68 -345l68 344v0zM241 736l299 -93l-12 -108l-294 51l7 150v0z" />
    <glyph glyph-name="Wacute" unicode="&#x1e82;" horiz-adv-x="990" 
d="M797 733l181 1l-175 -734h-203l-105 401l-104 -401h-204l-175 734l180 -1l107 -500l113 500h167l112 -495l106 495v0zM636 928l6 -144l-284 -49l-10 104l288 89v0z" />
    <glyph glyph-name="wacute" unicode="&#x1e83;" horiz-adv-x="774" 
d="M596 535h166l-148 -534h-179l-50 189l-52 -189h-179l-142 535h166l68 -345l69 345h145l68 -345l68 344v0zM528 730l6 -144l-284 -49l-10 104l288 89v0z" />
    <glyph glyph-name="Wdieresis" unicode="&#x1e84;" horiz-adv-x="990" 
d="M797 733l181 1l-175 -734h-203l-105 401l-104 -401h-204l-175 734l180 -1l107 -500l113 500h167l112 -495l106 495v0zM467 844q0 -18 -7 -34.5t-19 -28.5t-28 -19t-34 -7q-37 0 -63 26t-26 63q0 18 7 34t19 28t28.5 19t34.5 7t34 -7t28 -19t19 -28t7 -34zM700 844
q0 -18 -7 -34.5t-19 -28.5t-28 -19t-34 -7q-37 0 -63 26t-26 63q0 18 7 34t19 28t28.5 19t34.5 7t34 -7t28 -19t19 -28t7 -34z" />
    <glyph glyph-name="wdieresis" unicode="&#x1e85;" horiz-adv-x="774" 
d="M596 535h166l-148 -534h-179l-50 189l-52 -189h-179l-142 535h166l68 -345l69 345h145l68 -345l68 344v0zM359 646q0 -18 -7 -34.5t-19 -28.5t-28 -19t-34 -7q-37 0 -63 26t-26 63q0 18 7 34t19 28t28.5 19t34.5 7t34 -7t28 -19t19 -28t7 -34zM592 646q0 -18 -7 -34.5
t-19 -28.5t-28 -19t-34 -7q-37 0 -63 26t-26 63q0 18 7 34t19 28t28.5 19t34.5 7t34 -7t28 -19t19 -28t7 -34z" />
    <glyph glyph-name="quoteleft" unicode="&#x2018;" horiz-adv-x="218" 
d="M168 516l-114 -46q-48 77 -19.5 143t112.5 122l47 -39q-40 -52 -49 -97.5t23 -82.5z" />
    <glyph glyph-name="quoteright" unicode="&#x2019;" horiz-adv-x="217" 
d="M50 688l113 46q24 -39 28 -74.5t-8.5 -68.5t-41 -63.5t-70.5 -58.5l-47 39q39 53 48.5 98t-22.5 82z" />
    <glyph glyph-name="quotesinglbase" unicode="&#x201a;" horiz-adv-x="217" 
d="M50 128l113 46q24 -39 28 -74.5t-8.5 -68.5t-41 -63.5t-70.5 -58.5l-47 39q39 53 48.5 98t-22.5 82z" />
    <glyph glyph-name="quotedblleft" unicode="&#x201c;" horiz-adv-x="395" 
d="M168 516l-114 -46q-48 77 -19.5 143t112.5 122l47 -39q-40 -52 -49 -97.5t23 -82.5zM345 515l-114 -46q-48 77 -19.5 143t112.5 122l47 -39q-40 -52 -49 -97.5t23 -82.5z" />
    <glyph glyph-name="quotedblright" unicode="&#x201d;" horiz-adv-x="392" 
d="M50 688l113 46q24 -39 28 -74.5t-8.5 -68.5t-41 -63.5t-70.5 -58.5l-47 39q39 53 48.5 98t-22.5 82zM225 686l113 46q24 -39 28 -74.5t-8.5 -68.5t-41 -63.5t-70.5 -58.5l-47 39q39 53 48.5 98t-22.5 82z" />
    <glyph glyph-name="quotedblbase" unicode="&#x201e;" horiz-adv-x="392" 
d="M50 131l113 46q24 -39 28 -74.5t-8.5 -68.5t-41 -63.5t-70.5 -58.5l-47 39q39 53 48.5 98t-22.5 82zM225 129l113 46q24 -39 28 -74.5t-8.5 -68.5t-41 -63.5t-70.5 -58.5l-47 39q39 53 48.5 98t-22.5 82z" />
    <glyph glyph-name="commaaccent" unicode="&#xf6c3;" 
d="M45 302l143 69q63 -91 30 -172t-141 -153l-61 52q25 20 41 46.5t20.5 54.5t-3 55t-29.5 48z" />
    <glyph glyph-name="uniF8FF" unicode="&#xf8ff;" horiz-adv-x="0" 
 />
    <glyph glyph-name="commaaccent.salt" horiz-adv-x="0" 
 />
    <glyph glyph-name="caron.salt" horiz-adv-x="373" 
d="M51 733l135 -55l142 55l21 -82l-173 -112l-152 110l27 84v0z" />
    <glyph glyph-name="hungarumlaut.case" 
 />
    <glyph glyph-name="tilde.case" 
d="M-47 816q36 54 68 73.5t60 20.5t53.5 -9.5t49.5 -15.5t47.5 2t47.5 43l56 -73q-41 -56 -73 -75t-58.5 -18.5t-49 11.5t-45.5 16.5t-48 -4t-57 -50.5l-51 79v0z" />
    <glyph glyph-name="dotaccent.case" 
d="M232 844q0 -18 -7 -34.5t-19 -28.5t-28 -19t-34 -7q-37 0 -63 26t-26 63q0 18 7 34t19 28t28.5 19t34.5 7t34 -7t28 -19t19 -28t7 -34z" />
    <glyph glyph-name="ring.case" 
d="M144 930q28 0 53 -10.5t44 -28t29.5 -41.5t10.5 -51t-10.5 -51t-29.5 -41.5t-44 -28t-53 -10.5q-29 0 -53.5 10.5t-43 28t-29 41.5t-10.5 51t10.5 51t29 41.5t43 28t53.5 10.5zM144 736q26 0 44 17.5t18 43.5t-18 43.5t-44 17.5q-25 0 -43.5 -17.5t-18.5 -43.5
t18.5 -43.5t43.5 -17.5z" />
    <glyph glyph-name="breve.case" 
d="M330 931q2 -4 2 -8.5v-9.5q0 -38 -15 -70.5t-40.5 -56.5t-60 -38t-73.5 -14q-38 0 -72 14t-59.5 38t-40 56.5t-14.5 70.5v9.5t2 8.5h104q-2 -5 -2 -10.5v-10.5q0 -35 24 -60t58 -25q36 0 60.5 25t24.5 60v10.5t-2 10.5h104z" />
    <glyph glyph-name="caron.case" 
d="M9 931l135 -55l142 55l21 -82l-173 -112l-152 110l27 84v0z" />
    <glyph glyph-name="circumflex.case" 
d="M280 733l-137 55l-143 -55l-20 82l173 114l155 -111l-28 -85v0z" />
    <glyph glyph-name="acute.case" 
d="M285 928l6 -144l-284 -49l-10 104l288 89v0z" />
    <glyph glyph-name="macron.case" 
d="M32 931h223l-9 -98h-214v98v0z" />
    <glyph glyph-name="dieresis.case" 
d="M116 844q0 -18 -7 -34.5t-19 -28.5t-28 -19t-34 -7q-37 0 -63 26t-26 63q0 18 7 34t19 28t28.5 19t34.5 7t34 -7t28 -19t19 -28t7 -34zM349 844q0 -18 -7 -34.5t-19 -28.5t-28 -19t-34 -7q-37 0 -63 26t-26 63q0 18 7 34t19 28t28.5 19t34.5 7t34 -7t28 -19t19 -28t7 -34
z" />
    <glyph glyph-name="grave.case" 
d="M-2 934l299 -93l-12 -108l-294 51l7 150v0z" />
    </font>
</defs>
</svg>
